  0
SECTION
  2
HEADER
  9
$ACADVER
  1
AC1009
  0
ENDSEC
  0
SECTION
  2
TABLES
  0
TABLE
  2
LAYER
  70
1
  0
LAYER
  2
Layer_0
  70
0
  62
7
  6
CONTINUOUS
  0
ENDTAB
  0
ENDSEC
  0
SECTION
  2
ENTITIES
  0
CIRCLE
  5
90
  8
Layer_0
  62
7
  10
232.33105
  20
-52.128922
  30
0
  40
2.75
  0
CIRCLE
  5
90
  8
Layer_0
  62
7
  10
232.11609
  20
293.58325
  30
0
  40
2.75
  0
CIRCLE
  5
90
  8
Layer_0
  62
7
  10
76.988419
  20
23.239243
  30
0
  40
2.75
  0
CIRCLE
  5
90
  8
Layer_0
  62
7
  10
77.988419
  20
37.239231
  30
0
  40
2.75
  0
POLYLINE
  5
90
  8
Layer_0
  62
7
  66
1
  10
0
  20
0
  30
0
  0
VERTEX
  5
90
  8
Layer_0
  10
198.50189
  20
-23.650391
  0
VERTEX
  5
91
  8
Layer_0
  10
38.501892
  20
-23.650391
  42
0.3033436
  0
VERTEX
  5
92
  8
Layer_0
  10
35.730225
  20
-25.502335
  42
0.30333334
  0
VERTEX
  5
93
  8
Layer_0
  10
36.380554
  20
-28.771698
  0
VERTEX
  5
94
  8
Layer_0
  10
50.522705
  20
-42.913849
  42
0.41421738
  0
VERTEX
  5
95
  8
Layer_0
  10
54.765381
  20
-42.913818
  42
0.41421356
  0
VERTEX
  5
96
  8
Layer_0
  10
54.765381
  20
-38.671204
  0
VERTEX
  5
97
  8
Layer_0
  10
45.744507
  20
-29.650391
  0
VERTEX
  5
98
  8
Layer_0
  10
57.259277
  20
-29.650391
  0
VERTEX
  5
99
  8
Layer_0
  10
70.522705
  20
-42.913849
  42
0.41421738
  0
VERTEX
  5
9a
  8
Layer_0
  10
74.765381
  20
-42.913818
  42
0.41421356
  0
VERTEX
  5
9b
  8
Layer_0
  10
74.765381
  20
-38.671204
  0
VERTEX
  5
9c
  8
Layer_0
  10
65.744507
  20
-29.650391
  0
VERTEX
  5
9d
  8
Layer_0
  10
77.259277
  20
-29.650391
  0
VERTEX
  5
9e
  8
Layer_0
  10
90.522705
  20
-42.913849
  42
0.41421738
  0
VERTEX
  5
9f
  8
Layer_0
  10
94.765381
  20
-42.913818
  42
0.41421356
  0
VERTEX
  5
a0
  8
Layer_0
  10
94.765381
  20
-38.671204
  0
VERTEX
  5
a1
  8
Layer_0
  10
85.744507
  20
-29.650391
  0
VERTEX
  5
a2
  8
Layer_0
  10
97.259277
  20
-29.650391
  0
VERTEX
  5
a3
  8
Layer_0
  10
110.52271
  20
-42.913849
  42
0.41421738
  0
VERTEX
  5
a4
  8
Layer_0
  10
114.76538
  20
-42.913818
  42
0.41421356
  0
VERTEX
  5
a5
  8
Layer_0
  10
114.76538
  20
-38.671204
  0
VERTEX
  5
a6
  8
Layer_0
  10
105.74451
  20
-29.650391
  0
VERTEX
  5
a7
  8
Layer_0
  10
117.25928
  20
-29.650391
  0
VERTEX
  5
a8
  8
Layer_0
  10
130.52271
  20
-42.913849
  42
0.41421738
  0
VERTEX
  5
a9
  8
Layer_0
  10
134.76532
  20
-42.913818
  42
0.41422119
  0
VERTEX
  5
aa
  8
Layer_0
  10
134.76532
  20
-38.671204
  0
VERTEX
  5
ab
  8
Layer_0
  10
125.74454
  20
-29.650391
  0
VERTEX
  5
ac
  8
Layer_0
  10
137.25925
  20
-29.650391
  0
VERTEX
  5
ad
  8
Layer_0
  10
150.52271
  20
-42.913849
  42
0.41421738
  0
VERTEX
  5
ae
  8
Layer_0
  10
154.76532
  20
-42.913818
  42
0.41422119
  0
VERTEX
  5
af
  8
Layer_0
  10
154.76532
  20
-38.671204
  0
VERTEX
  5
b0
  8
Layer_0
  10
145.74454
  20
-29.650391
  0
VERTEX
  5
b1
  8
Layer_0
  10
157.25925
  20
-29.650391
  0
VERTEX
  5
b2
  8
Layer_0
  10
170.52271
  20
-42.913849
  42
0.41421738
  0
VERTEX
  5
b3
  8
Layer_0
  10
174.76532
  20
-42.913818
  42
0.41422119
  0
VERTEX
  5
b4
  8
Layer_0
  10
174.76532
  20
-38.671204
  0
VERTEX
  5
b5
  8
Layer_0
  10
165.74454
  20
-29.650391
  0
VERTEX
  5
b6
  8
Layer_0
  10
177.25925
  20
-29.650391
  0
VERTEX
  5
b7
  8
Layer_0
  10
190.52271
  20
-42.913849
  42
0.41421738
  0
VERTEX
  5
b8
  8
Layer_0
  10
194.76532
  20
-42.913818
  42
0.41422119
  0
VERTEX
  5
b9
  8
Layer_0
  10
194.76532
  20
-38.671204
  0
VERTEX
  5
ba
  8
Layer_0
  10
185.74454
  20
-29.650391
  0
VERTEX
  5
bb
  8
Layer_0
  10
198.50189
  20
-29.650391
  0
SEQEND
  0
POLYLINE
  5
bd
  8
Layer_0
  62
7
  66
1
  10
0
  20
0
  30
0
  0
VERTEX
  5
bd
  8
Layer_0
  10
38.501892
  20
-23.650391
  42
0.3033436
  0
VERTEX
  5
be
  8
Layer_0
  10
35.730225
  20
-25.502335
  42
0.30333334
  0
VERTEX
  5
bf
  8
Layer_0
  10
36.380554
  20
-28.771698
  0
SEQEND
  0
POLYLINE
  5
c1
  8
Layer_0
  62
7
  70
1
  66
1
  10
0
  20
0
  30
0
  0
VERTEX
  5
c1
  8
Layer_0
  10
219.00003
  20
53
  0
VERTEX
  5
c2
  8
Layer_0
  10
219.00003
  20
293
  42
0.41421356
  0
VERTEX
  5
c3
  8
Layer_0
  10
214.00003
  20
298
  0
VERTEX
  5
c4
  8
Layer_0
  10
94
  20
298
  0
VERTEX
  5
c5
  8
Layer_0
  10
-26
  20
298
  42
0.41421356
  0
VERTEX
  5
c6
  8
Layer_0
  10
-31
  20
293
  0
VERTEX
  5
c7
  8
Layer_0
  10
-31
  20
53
  42
0.41421356
  0
VERTEX
  5
c8
  8
Layer_0
  10
-26
  20
48
  0
VERTEX
  5
c9
  8
Layer_0
  10
64
  20
48
  0
VERTEX
  5
ca
  8
Layer_0
  10
94
  20
48
  0
VERTEX
  5
cb
  8
Layer_0
  10
124
  20
48
  0
VERTEX
  5
cc
  8
Layer_0
  10
214.00003
  20
48
  42
0.41421356
  0
SEQEND
  0
POLYLINE
  5
ce
  8
Layer_0
  62
7
  70
1
  66
1
  10
0
  20
0
  30
0
  0
VERTEX
  5
ce
  8
Layer_0
  10
120.5
  20
38
  0
VERTEX
  5
cf
  8
Layer_0
  10
120.5
  20
18
  0
VERTEX
  5
d0
  8
Layer_0
  10
105.5
  20
18
  0
VERTEX
  5
d1
  8
Layer_0
  10
105.5
  20
38
  0
VERTEX
  5
d2
  8
Layer_0
  10
108
  20
38
  0
VERTEX
  5
d3
  8
Layer_0
  10
108
  20
44
  0
VERTEX
  5
d4
  8
Layer_0
  10
118
  20
44
  0
VERTEX
  5
d5
  8
Layer_0
  10
118
  20
38
  0
SEQEND
  0
POLYLINE
  5
d7
  8
Layer_0
  62
7
  70
1
  66
1
  10
0
  20
0
  30
0
  0
VERTEX
  5
d7
  8
Layer_0
  10
100
  20
38.000008
  0
VERTEX
  5
d8
  8
Layer_0
  10
102.5
  20
38.000008
  0
VERTEX
  5
d9
  8
Layer_0
  10
102.5
  20
18.000008
  0
VERTEX
  5
da
  8
Layer_0
  10
87.5
  20
18.000008
  0
VERTEX
  5
db
  8
Layer_0
  10
87.5
  20
38.000008
  0
VERTEX
  5
dc
  8
Layer_0
  10
90
  20
38.000008
  0
VERTEX
  5
dd
  8
Layer_0
  10
90
  20
44.000008
  0
VERTEX
  5
de
  8
Layer_0
  10
100
  20
44.000008
  0
SEQEND
  0
POLYLINE
  5
e0
  8
Layer_0
  62
7
  70
1
  66
1
  10
0
  20
0
  30
0
  0
VERTEX
  5
e0
  8
Layer_0
  10
136.00003
  20
38.999992
  0
VERTEX
  5
e1
  8
Layer_0
  10
138.50003
  20
38.999992
  0
VERTEX
  5
e2
  8
Layer_0
  10
138.50003
  20
18.999992
  0
VERTEX
  5
e3
  8
Layer_0
  10
123.50003
  20
18.999992
  0
VERTEX
  5
e4
  8
Layer_0
  10
123.50003
  20
38.999992
  0
VERTEX
  5
e5
  8
Layer_0
  10
126.00003
  20
38.999992
  0
VERTEX
  5
e6
  8
Layer_0
  10
126.00003
  20
44.999992
  0
VERTEX
  5
e7
  8
Layer_0
  10
136.00003
  20
44.999992
  0
SEQEND
  0
POLYLINE
  5
e9
  8
Layer_0
  62
7
  70
1
  66
1
  10
0
  20
0
  30
0
  0
VERTEX
  5
e9
  8
Layer_0
  10
153.99997
  20
39.999992
  0
VERTEX
  5
ea
  8
Layer_0
  10
156.49997
  20
39.999992
  0
VERTEX
  5
eb
  8
Layer_0
  10
156.49997
  20
19.999992
  0
VERTEX
  5
ec
  8
Layer_0
  10
141.49997
  20
19.999992
  0
VERTEX
  5
ed
  8
Layer_0
  10
141.49997
  20
39.999992
  0
VERTEX
  5
ee
  8
Layer_0
  10
143.99997
  20
39.999992
  0
VERTEX
  5
ef
  8
Layer_0
  10
143.99997
  20
45.999992
  0
VERTEX
  5
f0
  8
Layer_0
  10
153.99997
  20
45.999992
  0
SEQEND
  0
POLYLINE
  5
f2
  8
Layer_0
  62
7
  70
1
  66
1
  10
0
  20
0
  30
0
  0
VERTEX
  5
f2
  8
Layer_0
  10
225.04501
  20
300.65433
  0
VERTEX
  5
f3
  8
Layer_0
  10
474.52502
  20
300.65433
  0
VERTEX
  5
f4
  8
Layer_0
  10
474.52502
  20
124.25432
  0
VERTEX
  5
f5
  8
Layer_0
  10
225.04501
  20
124.25432
  0
SEQEND
  0
POLYLINE
  5
f7
  8
Layer_0
  62
7
  70
1
  66
1
  10
0
  20
0
  30
0
  0
VERTEX
  5
f7
  8
Layer_0
  10
225.25998
  20
117.19998
  0
VERTEX
  5
f8
  8
Layer_0
  10
474.73999
  20
117.19998
  0
VERTEX
  5
f9
  8
Layer_0
  10
474.73999
  20
-59.200012
  0
VERTEX
  5
fa
  8
Layer_0
  10
225.25998
  20
-59.200012
  0
SEQEND
  0
POLYLINE
  5
fc
  8
Layer_0
  62
7
  66
1
  10
0
  20
0
  30
0
  0
VERTEX
  5
fc
  8
Layer_0
  10
-26
  20
48
  0
VERTEX
  5
fd
  8
Layer_0
  10
-25.919678
  20
48
  0
SEQEND
  0
POLYLINE
  5
ff
  8
Layer_0
  62
7
  70
1
  66
1
  10
0
  20
0
  30
0
  0
VERTEX
  5
ff
  8
Layer_0
  10
-26
  20
293
  0
VERTEX
  5
100
  8
Layer_0
  10
-16
  20
293
  0
VERTEX
  5
101
  8
Layer_0
  10
-16
  20
287.5
  0
VERTEX
  5
102
  8
Layer_0
  10
-26
  20
287.5
  0
SEQEND
  0
POLYLINE
  5
104
  8
Layer_0
  62
7
  70
1
  66
1
  10
0
  20
0
  30
0
  0
VERTEX
  5
104
  8
Layer_0
  10
-26
  20
53
  0
VERTEX
  5
105
  8
Layer_0
  10
-16
  20
53
  0
VERTEX
  5
106
  8
Layer_0
  10
-16
  20
58.5
  0
VERTEX
  5
107
  8
Layer_0
  10
-26
  20
58.5
  0
SEQEND
  0
POLYLINE
  5
109
  8
Layer_0
  62
7
  66
1
  10
0
  20
0
  30
0
  0
VERTEX
  5
109
  8
Layer_0
  10
225.04501
  20
300.65433
  0
VERTEX
  5
10a
  8
Layer_0
  10
225.54501
  20
300.65433
  0
SEQEND
  0
POLYLINE
  5
10c
  8
Layer_0
  62
7
  66
1
  10
0
  20
0
  30
0
  0
VERTEX
  5
10c
  8
Layer_0
  10
225.79501
  20
300.65433
  0
VERTEX
  5
10d
  8
Layer_0
  10
226.29501
  20
300.65433
  0
SEQEND
  0
POLYLINE
  5
10f
  8
Layer_0
  62
7
  66
1
  10
0
  20
0
  30
0
  0
VERTEX
  5
10f
  8
Layer_0
  10
226.54501
  20
300.65433
  0
VERTEX
  5
110
  8
Layer_0
  10
227.04501
  20
300.65433
  0
SEQEND
  0
POLYLINE
  5
112
  8
Layer_0
  62
7
  66
1
  10
0
  20
0
  30
0
  0
VERTEX
  5
112
  8
Layer_0
  10
227.29501
  20
300.65433
  0
VERTEX
  5
113
  8
Layer_0
  10
227.79501
  20
300.65433
  0
SEQEND
  0
POLYLINE
  5
115
  8
Layer_0
  62
7
  66
1
  10
0
  20
0
  30
0
  0
VERTEX
  5
115
  8
Layer_0
  10
228.04501
  20
300.65433
  0
VERTEX
  5
116
  8
Layer_0
  10
228.54501
  20
300.65433
  0
SEQEND
  0
POLYLINE
  5
118
  8
Layer_0
  62
7
  66
1
  10
0
  20
0
  30
0
  0
VERTEX
  5
118
  8
Layer_0
  10
228.79501
  20
300.65433
  0
VERTEX
  5
119
  8
Layer_0
  10
229.29501
  20
300.65433
  0
SEQEND
  0
POLYLINE
  5
11b
  8
Layer_0
  62
7
  66
1
  10
0
  20
0
  30
0
  0
VERTEX
  5
11b
  8
Layer_0
  10
229.54501
  20
300.65433
  0
VERTEX
  5
11c
  8
Layer_0
  10
230.04501
  20
300.65433
  0
SEQEND
  0
POLYLINE
  5
11e
  8
Layer_0
  62
7
  66
1
  10
0
  20
0
  30
0
  0
VERTEX
  5
11e
  8
Layer_0
  10
230.29501
  20
300.65433
  0
VERTEX
  5
11f
  8
Layer_0
  10
230.79501
  20
300.65433
  0
SEQEND
  0
POLYLINE
  5
121
  8
Layer_0
  62
7
  66
1
  10
0
  20
0
  30
0
  0
VERTEX
  5
121
  8
Layer_0
  10
231.04501
  20
300.65433
  0
VERTEX
  5
122
  8
Layer_0
  10
231.54501
  20
300.65433
  0
SEQEND
  0
POLYLINE
  5
124
  8
Layer_0
  62
7
  66
1
  10
0
  20
0
  30
0
  0
VERTEX
  5
124
  8
Layer_0
  10
231.79501
  20
300.65433
  0
VERTEX
  5
125
  8
Layer_0
  10
232.29501
  20
300.65433
  0
SEQEND
  0
POLYLINE
  5
127
  8
Layer_0
  62
7
  66
1
  10
0
  20
0
  30
0
  0
VERTEX
  5
127
  8
Layer_0
  10
232.54501
  20
300.65433
  0
VERTEX
  5
128
  8
Layer_0
  10
233.04501
  20
300.65433
  0
SEQEND
  0
POLYLINE
  5
12a
  8
Layer_0
  62
7
  66
1
  10
0
  20
0
  30
0
  0
VERTEX
  5
12a
  8
Layer_0
  10
233.29501
  20
300.65433
  0
VERTEX
  5
12b
  8
Layer_0
  10
233.79501
  20
300.65433
  0
SEQEND
  0
POLYLINE
  5
12d
  8
Layer_0
  62
7
  66
1
  10
0
  20
0
  30
0
  0
VERTEX
  5
12d
  8
Layer_0
  10
234.04501
  20
300.65433
  0
VERTEX
  5
12e
  8
Layer_0
  10
234.54501
  20
300.65433
  0
SEQEND
  0
POLYLINE
  5
130
  8
Layer_0
  62
7
  66
1
  10
0
  20
0
  30
0
  0
VERTEX
  5
130
  8
Layer_0
  10
234.79501
  20
300.65433
  0
VERTEX
  5
131
  8
Layer_0
  10
235.04501
  20
300.65433
  0
SEQEND
  0
POLYLINE
  5
133
  8
Layer_0
  62
7
  66
1
  10
0
  20
0
  30
0
  0
VERTEX
  5
133
  8
Layer_0
  10
225.25998
  20
-59.200012
  0
VERTEX
  5
134
  8
Layer_0
  10
225.75998
  20
-59.200012
  0
SEQEND
  0
POLYLINE
  5
136
  8
Layer_0
  62
7
  66
1
  10
0
  20
0
  30
0
  0
VERTEX
  5
136
  8
Layer_0
  10
226.00998
  20
-59.200012
  0
VERTEX
  5
137
  8
Layer_0
  10
226.50998
  20
-59.200012
  0
SEQEND
  0
POLYLINE
  5
139
  8
Layer_0
  62
7
  66
1
  10
0
  20
0
  30
0
  0
VERTEX
  5
139
  8
Layer_0
  10
226.75998
  20
-59.200012
  0
VERTEX
  5
13a
  8
Layer_0
  10
227.25998
  20
-59.200012
  0
SEQEND
  0
POLYLINE
  5
13c
  8
Layer_0
  62
7
  66
1
  10
0
  20
0
  30
0
  0
VERTEX
  5
13c
  8
Layer_0
  10
227.50998
  20
-59.200012
  0
VERTEX
  5
13d
  8
Layer_0
  10
228.00998
  20
-59.200012
  0
SEQEND
  0
POLYLINE
  5
13f
  8
Layer_0
  62
7
  66
1
  10
0
  20
0
  30
0
  0
VERTEX
  5
13f
  8
Layer_0
  10
228.25998
  20
-59.200012
  0
VERTEX
  5
140
  8
Layer_0
  10
228.75998
  20
-59.200012
  0
SEQEND
  0
POLYLINE
  5
142
  8
Layer_0
  62
7
  66
1
  10
0
  20
0
  30
0
  0
VERTEX
  5
142
  8
Layer_0
  10
229.00998
  20
-59.200012
  0
VERTEX
  5
143
  8
Layer_0
  10
229.50998
  20
-59.200012
  0
SEQEND
  0
POLYLINE
  5
145
  8
Layer_0
  62
7
  66
1
  10
0
  20
0
  30
0
  0
VERTEX
  5
145
  8
Layer_0
  10
229.75998
  20
-59.200012
  0
VERTEX
  5
146
  8
Layer_0
  10
230.25998
  20
-59.200012
  0
SEQEND
  0
POLYLINE
  5
148
  8
Layer_0
  62
7
  66
1
  10
0
  20
0
  30
0
  0
VERTEX
  5
148
  8
Layer_0
  10
230.50998
  20
-59.200012
  0
VERTEX
  5
149
  8
Layer_0
  10
231.00998
  20
-59.200012
  0
SEQEND
  0
POLYLINE
  5
14b
  8
Layer_0
  62
7
  66
1
  10
0
  20
0
  30
0
  0
VERTEX
  5
14b
  8
Layer_0
  10
231.25998
  20
-59.200012
  0
VERTEX
  5
14c
  8
Layer_0
  10
231.75998
  20
-59.200012
  0
SEQEND
  0
POLYLINE
  5
14e
  8
Layer_0
  62
7
  66
1
  10
0
  20
0
  30
0
  0
VERTEX
  5
14e
  8
Layer_0
  10
232.00998
  20
-59.200012
  0
VERTEX
  5
14f
  8
Layer_0
  10
232.50998
  20
-59.200012
  0
SEQEND
  0
POLYLINE
  5
151
  8
Layer_0
  62
7
  66
1
  10
0
  20
0
  30
0
  0
VERTEX
  5
151
  8
Layer_0
  10
232.75998
  20
-59.200012
  0
VERTEX
  5
152
  8
Layer_0
  10
233.25998
  20
-59.200012
  0
SEQEND
  0
POLYLINE
  5
154
  8
Layer_0
  62
7
  66
1
  10
0
  20
0
  30
0
  0
VERTEX
  5
154
  8
Layer_0
  10
233.50998
  20
-59.200012
  0
VERTEX
  5
155
  8
Layer_0
  10
234.00998
  20
-59.200012
  0
SEQEND
  0
POLYLINE
  5
157
  8
Layer_0
  62
7
  66
1
  10
0
  20
0
  30
0
  0
VERTEX
  5
157
  8
Layer_0
  10
234.25998
  20
-59.200012
  0
VERTEX
  5
158
  8
Layer_0
  10
234.75998
  20
-59.200012
  0
SEQEND
  0
POLYLINE
  5
15a
  8
Layer_0
  62
7
  66
1
  10
0
  20
0
  30
0
  0
VERTEX
  5
15a
  8
Layer_0
  10
235.00998
  20
-59.200012
  0
VERTEX
  5
15b
  8
Layer_0
  10
235.25998
  20
-59.200012
  0
SEQEND
  0
POLYLINE
  5
15d
  8
Layer_0
  62
7
  66
1
  10
0
  20
0
  30
0
  0
VERTEX
  5
15d
  8
Layer_0
  10
199.35593
  20
5.7924957
  0
VERTEX
  5
15e
  8
Layer_0
  10
186.59857
  20
5.7924957
  0
VERTEX
  5
15f
  8
Layer_0
  10
195.61938
  20
-3.2283173
  42
-0.41422119
  0
VERTEX
  5
160
  8
Layer_0
  10
195.61938
  20
-7.4709625
  42
-0.41420975
  0
VERTEX
  5
161
  8
Layer_0
  10
191.37674
  20
-7.4709625
  0
VERTEX
  5
162
  8
Layer_0
  10
178.11328
  20
5.7924957
  0
VERTEX
  5
163
  8
Layer_0
  10
166.59857
  20
5.7924957
  0
VERTEX
  5
164
  8
Layer_0
  10
175.61938
  20
-3.2283173
  42
-0.41422119
  0
VERTEX
  5
165
  8
Layer_0
  10
175.61938
  20
-7.4709625
  42
-0.41420975
  0
VERTEX
  5
166
  8
Layer_0
  10
171.37674
  20
-7.4709625
  0
VERTEX
  5
167
  8
Layer_0
  10
158.11328
  20
5.7924957
  0
VERTEX
  5
168
  8
Layer_0
  10
146.59857
  20
5.7924957
  0
VERTEX
  5
169
  8
Layer_0
  10
155.61938
  20
-3.2283173
  42
-0.41422119
  0
VERTEX
  5
16a
  8
Layer_0
  10
155.61938
  20
-7.4709625
  42
-0.41420975
  0
VERTEX
  5
16b
  8
Layer_0
  10
151.37674
  20
-7.4709625
  0
VERTEX
  5
16c
  8
Layer_0
  10
138.11328
  20
5.7924957
  0
VERTEX
  5
16d
  8
Layer_0
  10
126.59857
  20
5.7924957
  0
VERTEX
  5
16e
  8
Layer_0
  10
135.61938
  20
-3.2283173
  42
-0.41422119
  0
VERTEX
  5
16f
  8
Layer_0
  10
135.61938
  20
-7.4709625
  42
-0.41421356
  0
VERTEX
  5
170
  8
Layer_0
  10
131.37677
  20
-7.4709625
  0
VERTEX
  5
171
  8
Layer_0
  10
118.11328
  20
5.7924957
  0
VERTEX
  5
172
  8
Layer_0
  10
106.59857
  20
5.7924957
  0
VERTEX
  5
173
  8
Layer_0
  10
115.61938
  20
-3.2283325
  42
-0.41421547
  0
VERTEX
  5
174
  8
Layer_0
  10
115.61938
  20
-7.4709625
  42
-0.41421356
  0
VERTEX
  5
175
  8
Layer_0
  10
111.37671
  20
-7.4709625
  0
VERTEX
  5
176
  8
Layer_0
  10
98.113281
  20
5.7924957
  0
VERTEX
  5
177
  8
Layer_0
  10
86.598572
  20
5.7924957
  0
VERTEX
  5
178
  8
Layer_0
  10
95.619385
  20
-3.2283325
  42
-0.41421547
  0
VERTEX
  5
179
  8
Layer_0
  10
95.619385
  20
-7.4709625
  42
-0.41421356
  0
VERTEX
  5
17a
  8
Layer_0
  10
91.376709
  20
-7.4709625
  0
VERTEX
  5
17b
  8
Layer_0
  10
78.113281
  20
5.7924957
  0
VERTEX
  5
17c
  8
Layer_0
  10
66.598572
  20
5.7924957
  0
VERTEX
  5
17d
  8
Layer_0
  10
75.619385
  20
-3.2283325
  42
-0.41421547
  0
VERTEX
  5
17e
  8
Layer_0
  10
75.619385
  20
-7.4709625
  42
-0.41421356
  0
VERTEX
  5
17f
  8
Layer_0
  10
71.376709
  20
-7.4709625
  0
VERTEX
  5
180
  8
Layer_0
  10
58.113281
  20
5.7924957
  0
VERTEX
  5
181
  8
Layer_0
  10
46.598572
  20
5.7924957
  0
VERTEX
  5
182
  8
Layer_0
  10
55.619385
  20
-3.2283325
  42
-0.41421547
  0
VERTEX
  5
183
  8
Layer_0
  10
55.619385
  20
-7.4709625
  42
-0.41421356
  0
VERTEX
  5
184
  8
Layer_0
  10
51.376709
  20
-7.4709625
  0
VERTEX
  5
185
  8
Layer_0
  10
37.234619
  20
6.6711731
  0
SEQEND
  0
POLYLINE
  5
187
  8
Layer_0
  62
7
  70
1
  66
1
  10
0
  20
0
  30
0
  0
VERTEX
  5
187
  8
Layer_0
  10
201.47726
  20
10.913803
  42
0.19891237
  0
VERTEX
  5
188
  8
Layer_0
  10
199.35593
  20
11.792496
  42
-0.19891237
  0
SEQEND
  0
POLYLINE
  5
18a
  8
Layer_0
  62
7
  66
1
  10
0
  20
0
  30
0
  0
VERTEX
  5
18a
  8
Layer_0
  10
201.47726
  20
10.913803
  0
VERTEX
  5
18b
  8
Layer_0
  10
215.61938
  20
-3.2283173
  42
-0.41422119
  0
VERTEX
  5
18c
  8
Layer_0
  10
215.61938
  20
-7.4709625
  42
-0.41421356
  0
VERTEX
  5
18d
  8
Layer_0
  10
211.37677
  20
-7.4709625
  0
VERTEX
  5
18e
  8
Layer_0
  10
198.11328
  20
5.7924957
  0
SEQEND
  0
POLYLINE
  5
190
  8
Layer_0
  62
7
  66
1
  10
0
  20
0
  30
0
  0
VERTEX
  5
190
  8
Layer_0
  10
215.49808
  20
-12.34964
  0
VERTEX
  5
191
  8
Layer_0
  10
37.355957
  20
-12.34964
  42
-0.41421356
  0
VERTEX
  5
192
  8
Layer_0
  10
32.355957
  20
-7.3496399
  0
VERTEX
  5
193
  8
Layer_0
  10
32.355957
  20
10.792496
  42
-0.41421356
  0
VERTEX
  5
194
  8
Layer_0
  10
37.355957
  20
15.792496
  0
VERTEX
  5
195
  8
Layer_0
  10
215.49808
  20
15.792496
  0
VERTEX
  5
196
  8
Layer_0
  10
220.49808
  20
15.792496
  0
VERTEX
  5
197
  8
Layer_0
  10
220.49808
  20
-12.34964
  0
VERTEX
  5
198
  8
Layer_0
  10
215.36725
  20
-12.34964
  0
SEQEND
  0
POLYLINE
  5
19a
  8
Layer_0
  62
7
  70
1
  66
1
  10
0
  20
0
  30
0
  0
VERTEX
  5
19a
  8
Layer_0
  10
37.234619
  20
6.6711731
  42
-0.30333222
  0
VERTEX
  5
19b
  8
Layer_0
  10
36.58429
  20
9.9405518
  42
-0.3033436
  0
VERTEX
  5
19c
  8
Layer_0
  10
39.355957
  20
11.792496
  42
0.3033436
  0
VERTEX
  5
19d
  8
Layer_0
  10
36.58429
  20
9.9405518
  42
0.30333222
  0
SEQEND
  0
POLYLINE
  5
19f
  8
Layer_0
  62
7
  66
1
  10
0
  20
0
  30
0
  0
VERTEX
  5
19f
  8
Layer_0
  10
199.35593
  20
11.792496
  0
VERTEX
  5
1a0
  8
Layer_0
  10
39.355957
  20
11.792496
  0
SEQEND
  0
POLYLINE
  5
1a2
  8
Layer_0
  62
7
  66
1
  10
0
  20
0
  30
0
  0
VERTEX
  5
1a2
  8
Layer_0
  10
214.64401
  20
-47.792511
  0
VERTEX
  5
1a3
  8
Layer_0
  10
36.501892
  20
-47.792511
  42
-0.41421356
  0
VERTEX
  5
1a4
  8
Layer_0
  10
31.501892
  20
-42.792511
  0
VERTEX
  5
1a5
  8
Layer_0
  10
31.501892
  20
-24.650391
  42
-0.41421356
  0
VERTEX
  5
1a6
  8
Layer_0
  10
36.501892
  20
-19.650391
  0
VERTEX
  5
1a7
  8
Layer_0
  10
214.64401
  20
-19.650391
  0
VERTEX
  5
1a8
  8
Layer_0
  10
219.64401
  20
-19.650391
  0
VERTEX
  5
1a9
  8
Layer_0
  10
219.64401
  20
-47.792511
  0
VERTEX
  5
1aa
  8
Layer_0
  10
214.51318
  20
-47.792511
  0
SEQEND
  0
POLYLINE
  5
1ac
  8
Layer_0
  62
7
  66
1
  10
0
  20
0
  30
0
  0
VERTEX
  5
1ac
  8
Layer_0
  10
200.6232
  20
-24.529068
  0
VERTEX
  5
1ad
  8
Layer_0
  10
214.76535
  20
-38.671204
  42
-0.41421738
  0
VERTEX
  5
1ae
  8
Layer_0
  10
214.76532
  20
-42.913818
  42
-0.41422119
  0
VERTEX
  5
1af
  8
Layer_0
  10
210.52271
  20
-42.913818
  0
VERTEX
  5
1b0
  8
Layer_0
  10
197.25925
  20
-29.650391
  0
SEQEND
  0
POLYLINE
  5
1b2
  8
Layer_0
  62
7
  70
1
  66
1
  10
0
  20
0
  30
0
  0
VERTEX
  5
1b2
  8
Layer_0
  10
200.6232
  20
-24.529068
  42
0.19891589
  0
VERTEX
  5
1b3
  8
Layer_0
  10
198.50189
  20
-23.650391
  42
-0.19891942
  0
SEQEND
  0
POLYLINE
  5
1b5
  8
Layer_0
  62
7
  70
1
  66
1
  10
0
  20
0
  30
0
  0
VERTEX
  5
1b5
  8
Layer_0
  10
200.50934
  20
21.25087
  0
VERTEX
  5
1b6
  8
Layer_0
  10
210.50934
  20
21.25087
  42
0.32753858
  0
VERTEX
  5
1b7
  8
Layer_0
  10
220.04874
  20
28.25087
  0
VERTEX
  5
1b8
  8
Layer_0
  10
210.50934
  20
28.25087
  0
VERTEX
  5
1b9
  8
Layer_0
  10
210.50934
  20
33.75087
  0
VERTEX
  5
1ba
  8
Layer_0
  10
220.1918
  20
33.75087
  42
0.34199951
  0
VERTEX
  5
1bb
  8
Layer_0
  10
210.50934
  20
41.25087
  0
VERTEX
  5
1bc
  8
Layer_0
  10
200.50934
  20
41.25087
  42
0.34200045
  0
VERTEX
  5
1bd
  8
Layer_0
  10
190.82687
  20
33.75087
  0
VERTEX
  5
1be
  8
Layer_0
  10
199.71976
  20
33.75087
  0
VERTEX
  5
1bf
  8
Layer_0
  10
199.71976
  20
28.25087
  0
VERTEX
  5
1c0
  8
Layer_0
  10
190.96994
  20
28.25087
  42
0.32753829
  0
SEQEND
  0
POLYLINE
  5
1c2
  8
Layer_0
  62
7
  70
1
  66
1
  10
0
  20
0
  30
0
  0
VERTEX
  5
1c2
  8
Layer_0
  10
167.68228
  20
34.91687
  0
VERTEX
  5
1c3
  8
Layer_0
  10
158.38101
  20
34.841553
  42
-0.33213266
  0
VERTEX
  5
1c4
  8
Layer_0
  10
167.96878
  20
41.999992
  0
VERTEX
  5
1c5
  8
Layer_0
  10
177.96878
  20
41.999992
  42
-0.32529471
  0
VERTEX
  5
1c6
  8
Layer_0
  10
187.48355
  20
35.077225
  0
VERTEX
  5
1c7
  8
Layer_0
  10
177.92426
  20
34.999817
  0
VERTEX
  5
1c8
  8
Layer_0
  10
177.96878
  20
29.5
  0
VERTEX
  5
1c9
  8
Layer_0
  10
187.6712
  20
29.578552
  42
-0.34426506
  0
VERTEX
  5
1ca
  8
Layer_0
  10
177.96878
  20
22
  0
VERTEX
  5
1cb
  8
Layer_0
  10
167.96878
  20
22
  42
-0.33740641
  0
VERTEX
  5
1cc
  8
Layer_0
  10
158.3288
  20
29.340958
  0
VERTEX
  5
1cd
  8
Layer_0
  10
167.72681
  20
29.417053
  0
SEQEND
  0
POLYLINE
  5
1cf
  8
Layer_0
  62
7
  70
1
  66
1
  10
0
  20
0
  30
0
  0
VERTEX
  5
1cf
  8
Layer_0
  10
-11
  20
173
  0
VERTEX
  5
1d0
  8
Layer_0
  10
-11
  20
186.5
  0
VERTEX
  5
1d1
  8
Layer_0
  10
-5.5
  20
186.5
  0
VERTEX
  5
1d2
  8
Layer_0
  10
-5.5
  20
159.5
  0
VERTEX
  5
1d3
  8
Layer_0
  10
-11
  20
159.5
  0
SEQEND
  0
POLYLINE
  5
1d5
  8
Layer_0
  62
7
  70
1
  66
1
  10
0
  20
0
  30
0
  0
VERTEX
  5
1d5
  8
Layer_0
  10
214.00003
  20
58.5
  0
VERTEX
  5
1d6
  8
Layer_0
  10
214.00003
  20
53
  0
VERTEX
  5
1d7
  8
Layer_0
  10
204.00003
  20
53
  0
VERTEX
  5
1d8
  8
Layer_0
  10
204.00003
  20
58.5
  0
SEQEND
  0
POLYLINE
  5
1da
  8
Layer_0
  62
7
  70
1
  66
1
  10
0
  20
0
  30
0
  0
VERTEX
  5
1da
  8
Layer_0
  10
199.00003
  20
173
  0
VERTEX
  5
1db
  8
Layer_0
  10
199.00003
  20
159.5
  0
VERTEX
  5
1dc
  8
Layer_0
  10
193.50003
  20
159.5
  0
VERTEX
  5
1dd
  8
Layer_0
  10
193.50003
  20
186.5
  0
VERTEX
  5
1de
  8
Layer_0
  10
199.00003
  20
186.5
  0
SEQEND
  0
POLYLINE
  5
1e0
  8
Layer_0
  62
7
  66
1
  10
0
  20
0
  30
0
  0
VERTEX
  5
1e0
  8
Layer_0
  10
214.00003
  20
48
  0
VERTEX
  5
1e1
  8
Layer_0
  10
213.91974
  20
48
  0
SEQEND
  0
POLYLINE
  5
1e3
  8
Layer_0
  62
7
  70
1
  66
1
  10
0
  20
0
  30
0
  0
VERTEX
  5
1e3
  8
Layer_0
  10
204.00003
  20
287.5
  0
VERTEX
  5
1e4
  8
Layer_0
  10
214.00003
  20
287.5
  0
VERTEX
  5
1e5
  8
Layer_0
  10
214.00003
  20
293
  0
VERTEX
  5
1e6
  8
Layer_0
  10
204.00003
  20
293
  0
SEQEND
  0
POLYLINE
  5
1e8
  8
Layer_0
  62
7
  70
1
  66
1
  10
0
  20
0
  30
0
  0
VERTEX
  5
1e8
  8
Layer_0
  10
26.859406
  20
19.763077
  0
VERTEX
  5
1e9
  8
Layer_0
  10
76.836212
  20
18.241562
  42
0.41421356
  0
VERTEX
  5
1ea
  8
Layer_0
  10
81.986053
  20
23.087082
  42
0.41421356
  0
VERTEX
  5
1eb
  8
Layer_0
  10
77.140533
  20
28.236923
  0
VERTEX
  5
1ec
  8
Layer_0
  10
27.163727
  20
29.758438
  42
0.41421498
  0
VERTEX
  5
1ed
  8
Layer_0
  10
22.013885
  20
24.912903
  42
0.41421368
  0
SEQEND
  0
POLYLINE
  5
1ef
  8
Layer_0
  62
7
  70
1
  66
1
  10
0
  20
0
  30
0
  0
VERTEX
  5
1ef
  8
Layer_0
  10
77.836273
  20
32.241562
  42
0.41421662
  0
VERTEX
  5
1f0
  8
Layer_0
  10
82.986115
  20
37.087097
  42
0.41421509
  0
VERTEX
  5
1f1
  8
Layer_0
  10
78.140564
  20
42.236938
  0
VERTEX
  5
1f2
  8
Layer_0
  10
28.163727
  20
43.758453
  42
0.41421459
  0
VERTEX
  5
1f3
  8
Layer_0
  10
23.013916
  20
38.912918
  42
0.41421406
  0
VERTEX
  5
1f4
  8
Layer_0
  10
27.859436
  20
33.763092
  0
SEQEND
  0
ENDSEC
  0
EOF
