  0
SECTION
  2
HEADER
  9
$ACADVER
  1
AC1009
  0
ENDSEC
  0
SECTION
  2
TABLES
  0
TABLE
  2
LAYER
  70
1
  0
LAYER
  2
Layer_0
  70
0
  62
7
  6
CONTINUOUS
  0
ENDTAB
  0
ENDSEC
  0
SECTION
  2
ENTITIES
  0
CIRCLE
  5
90
  8
Layer_0
  62
7
  10
232.11609
  20
-64.723465
  30
0
  40
2.75
  0
CIRCLE
  5
90
  8
Layer_0
  62
7
  10
232.11609
  20
279.63211
  30
0
  40
2.75
  0
CIRCLE
  5
90
  8
Layer_0
  62
7
  10
211.49088
  20
84.572693
  30
0
  40
2.75
  0
CIRCLE
  5
90
  8
Layer_0
  62
7
  10
207.672
  20
102.03049
  30
0
  40
2.75
  0
CIRCLE
  5
90
  8
Layer_0
  62
7
  10
137.89435
  20
33.999992
  30
0
  40
2.75
  0
CIRCLE
  5
90
  8
Layer_0
  62
7
  10
137.89435
  20
54.000008
  30
0
  40
2.75
  0
POLYLINE
  5
90
  8
Layer_0
  62
7
  66
1
  10
0
  20
0
  30
0
  0
VERTEX
  5
90
  8
Layer_0
  10
197.22769
  20
9.3842926
  0
VERTEX
  5
91
  8
Layer_0
  10
197.22769
  20
3.8464203
  0
VERTEX
  5
92
  8
Layer_0
  10
197.57321
  20
3.8464203
  0
VERTEX
  5
93
  8
Layer_0
  10
192.87424
  20
3.8083649
  42
0.33740942
  0
VERTEX
  5
94
  8
Layer_0
  10
202.51422
  20
-3.5325928
  0
VERTEX
  5
95
  8
Layer_0
  10
212.51422
  20
-3.5325928
  42
0.3442639
  0
VERTEX
  5
96
  8
Layer_0
  10
222.21661
  20
4.0459747
  0
VERTEX
  5
97
  8
Layer_0
  10
217.36542
  20
4.0066986
  0
VERTEX
  5
98
  8
Layer_0
  10
217.46967
  20
4.0066986
  0
VERTEX
  5
99
  8
Layer_0
  10
217.46967
  20
9.4672241
  0
VERTEX
  5
9a
  8
Layer_0
  10
222.02896
  20
9.544632
  42
0.32529719
  0
VERTEX
  5
9b
  8
Layer_0
  10
212.51422
  20
16.467407
  0
VERTEX
  5
9c
  8
Layer_0
  10
210.51422
  20
16.467407
  0
VERTEX
  5
9d
  8
Layer_0
  10
210.51422
  20
6.4674072
  0
VERTEX
  5
9e
  8
Layer_0
  10
204.51422
  20
6.4674072
  0
VERTEX
  5
9f
  8
Layer_0
  10
204.51422
  20
16.467407
  0
VERTEX
  5
a0
  8
Layer_0
  10
202.51422
  20
16.467407
  42
0.33213008
  0
VERTEX
  5
a1
  8
Layer_0
  10
192.92645
  20
9.3089752
  0
VERTEX
  5
a2
  8
Layer_0
  10
197.22769
  20
9.343811
  0
VERTEX
  5
a3
  8
Layer_0
  10
192.92645
  20
9.3089752
  42
-0.33213008
  0
VERTEX
  5
a4
  8
Layer_0
  10
202.51422
  20
16.467407
  0
VERTEX
  5
a5
  8
Layer_0
  10
204.51422
  20
16.467407
  0
VERTEX
  5
a6
  8
Layer_0
  10
204.51422
  20
6.4674072
  0
VERTEX
  5
a7
  8
Layer_0
  10
210.51422
  20
6.4674072
  0
VERTEX
  5
a8
  8
Layer_0
  10
210.51422
  20
16.467407
  0
VERTEX
  5
a9
  8
Layer_0
  10
212.51422
  20
16.467407
  42
-0.32529534
  0
VERTEX
  5
aa
  8
Layer_0
  10
222.02899
  20
9.544632
  0
SEQEND
  0
POLYLINE
  5
ac
  8
Layer_0
  62
7
  66
1
  10
0
  20
0
  30
0
  0
VERTEX
  5
ac
  8
Layer_0
  10
212.46967
  20
4.0066986
  0
VERTEX
  5
ad
  8
Layer_0
  10
212.51389
  20
4.0066986
  0
VERTEX
  5
ae
  8
Layer_0
  10
212.51419
  20
3.9674072
  0
VERTEX
  5
af
  8
Layer_0
  10
212.51389
  20
4.0066986
  0
SEQEND
  0
POLYLINE
  5
b1
  8
Layer_0
  62
7
  66
1
  10
0
  20
0
  30
0
  0
VERTEX
  5
b1
  8
Layer_0
  10
202.22769
  20
3.8464203
  0
VERTEX
  5
b2
  8
Layer_0
  10
202.22769
  20
3.8841095
  0
VERTEX
  5
b3
  8
Layer_0
  10
202.27222
  20
3.8844757
  0
VERTEX
  5
b4
  8
Layer_0
  10
202.22769
  20
3.8841095
  0
SEQEND
  0
POLYLINE
  5
b6
  8
Layer_0
  62
7
  66
1
  10
0
  20
0
  30
0
  0
VERTEX
  5
b6
  8
Layer_0
  10
202.51422
  20
-3.5325928
  42
-0.33740942
  0
VERTEX
  5
b7
  8
Layer_0
  10
192.87424
  20
3.8083649
  0
VERTEX
  5
b8
  8
Layer_0
  10
197.57321
  20
3.8464203
  0
SEQEND
  0
POLYLINE
  5
ba
  8
Layer_0
  62
7
  66
1
  10
0
  20
0
  30
0
  0
VERTEX
  5
ba
  8
Layer_0
  10
167.22769
  20
9.3842926
  0
VERTEX
  5
bb
  8
Layer_0
  10
167.22769
  20
3.8464203
  0
VERTEX
  5
bc
  8
Layer_0
  10
167.57321
  20
3.8464203
  0
VERTEX
  5
bd
  8
Layer_0
  10
162.87424
  20
3.8083649
  42
0.33740942
  0
VERTEX
  5
be
  8
Layer_0
  10
172.51422
  20
-3.5325928
  0
VERTEX
  5
bf
  8
Layer_0
  10
182.51422
  20
-3.5325928
  42
0.3442639
  0
VERTEX
  5
c0
  8
Layer_0
  10
192.21661
  20
4.0459747
  0
VERTEX
  5
c1
  8
Layer_0
  10
187.36542
  20
4.0066986
  0
VERTEX
  5
c2
  8
Layer_0
  10
187.46967
  20
4.0066986
  0
VERTEX
  5
c3
  8
Layer_0
  10
187.46967
  20
9.4672241
  0
VERTEX
  5
c4
  8
Layer_0
  10
192.02896
  20
9.544632
  42
0.32529719
  0
VERTEX
  5
c5
  8
Layer_0
  10
182.51422
  20
16.467407
  0
VERTEX
  5
c6
  8
Layer_0
  10
180.51422
  20
16.467407
  0
VERTEX
  5
c7
  8
Layer_0
  10
180.51422
  20
6.4674072
  0
VERTEX
  5
c8
  8
Layer_0
  10
174.51422
  20
6.4674072
  0
VERTEX
  5
c9
  8
Layer_0
  10
174.51422
  20
16.467407
  0
VERTEX
  5
ca
  8
Layer_0
  10
172.51422
  20
16.467407
  42
0.33213008
  0
VERTEX
  5
cb
  8
Layer_0
  10
162.92645
  20
9.3089752
  0
VERTEX
  5
cc
  8
Layer_0
  10
167.22769
  20
9.343811
  0
VERTEX
  5
cd
  8
Layer_0
  10
162.92645
  20
9.3089752
  42
-0.33213008
  0
VERTEX
  5
ce
  8
Layer_0
  10
172.51422
  20
16.467407
  0
VERTEX
  5
cf
  8
Layer_0
  10
174.51422
  20
16.467407
  0
VERTEX
  5
d0
  8
Layer_0
  10
174.51422
  20
6.4674072
  0
VERTEX
  5
d1
  8
Layer_0
  10
180.51422
  20
6.4674072
  0
VERTEX
  5
d2
  8
Layer_0
  10
180.51422
  20
16.467407
  0
VERTEX
  5
d3
  8
Layer_0
  10
182.51422
  20
16.467407
  42
-0.32529534
  0
VERTEX
  5
d4
  8
Layer_0
  10
192.02899
  20
9.544632
  0
SEQEND
  0
POLYLINE
  5
d6
  8
Layer_0
  62
7
  66
1
  10
0
  20
0
  30
0
  0
VERTEX
  5
d6
  8
Layer_0
  10
182.46967
  20
4.0066986
  0
VERTEX
  5
d7
  8
Layer_0
  10
182.51389
  20
4.0066986
  0
VERTEX
  5
d8
  8
Layer_0
  10
182.51419
  20
3.9674072
  0
VERTEX
  5
d9
  8
Layer_0
  10
182.51389
  20
4.0066986
  0
SEQEND
  0
POLYLINE
  5
db
  8
Layer_0
  62
7
  66
1
  10
0
  20
0
  30
0
  0
VERTEX
  5
db
  8
Layer_0
  10
172.22769
  20
3.8464203
  0
VERTEX
  5
dc
  8
Layer_0
  10
172.22769
  20
3.8841095
  0
VERTEX
  5
dd
  8
Layer_0
  10
172.27222
  20
3.8844757
  0
VERTEX
  5
de
  8
Layer_0
  10
172.22769
  20
3.8841095
  0
SEQEND
  0
POLYLINE
  5
e0
  8
Layer_0
  62
7
  66
1
  10
0
  20
0
  30
0
  0
VERTEX
  5
e0
  8
Layer_0
  10
172.51422
  20
-3.5325928
  42
-0.33740942
  0
VERTEX
  5
e1
  8
Layer_0
  10
162.87424
  20
3.8083649
  0
VERTEX
  5
e2
  8
Layer_0
  10
167.57321
  20
3.8464203
  0
SEQEND
  0
POLYLINE
  5
e4
  8
Layer_0
  62
7
  66
1
  10
0
  20
0
  30
0
  0
VERTEX
  5
e4
  8
Layer_0
  10
199.60867
  20
-45.812851
  0
VERTEX
  5
e5
  8
Layer_0
  10
39.608704
  20
-45.812851
  42
0.30334491
  0
VERTEX
  5
e6
  8
Layer_0
  10
36.837036
  20
-47.66481
  42
0.30333839
  0
VERTEX
  5
e7
  8
Layer_0
  10
37.487366
  20
-50.934158
  0
VERTEX
  5
e8
  8
Layer_0
  10
51.629486
  20
-65.076309
  42
0.41421356
  0
VERTEX
  5
e9
  8
Layer_0
  10
55.872131
  20
-65.076279
  42
0.41422119
  0
VERTEX
  5
ea
  8
Layer_0
  10
55.872131
  20
-60.833664
  0
VERTEX
  5
eb
  8
Layer_0
  10
46.851318
  20
-51.812851
  0
VERTEX
  5
ec
  8
Layer_0
  10
58.366028
  20
-51.812851
  0
VERTEX
  5
ed
  8
Layer_0
  10
71.629486
  20
-65.076309
  42
0.41421356
  0
VERTEX
  5
ee
  8
Layer_0
  10
75.872131
  20
-65.076279
  42
0.41422119
  0
VERTEX
  5
ef
  8
Layer_0
  10
75.872131
  20
-60.833664
  0
VERTEX
  5
f0
  8
Layer_0
  10
66.851318
  20
-51.812851
  0
VERTEX
  5
f1
  8
Layer_0
  10
78.366028
  20
-51.812851
  0
VERTEX
  5
f2
  8
Layer_0
  10
91.629486
  20
-65.076309
  42
0.41421356
  0
VERTEX
  5
f3
  8
Layer_0
  10
95.872131
  20
-65.076279
  42
0.41422119
  0
VERTEX
  5
f4
  8
Layer_0
  10
95.872131
  20
-60.833664
  0
VERTEX
  5
f5
  8
Layer_0
  10
86.851318
  20
-51.812851
  0
VERTEX
  5
f6
  8
Layer_0
  10
98.366028
  20
-51.812851
  0
VERTEX
  5
f7
  8
Layer_0
  10
111.62949
  20
-65.076309
  42
0.41421356
  0
VERTEX
  5
f8
  8
Layer_0
  10
115.87213
  20
-65.076279
  42
0.41422119
  0
VERTEX
  5
f9
  8
Layer_0
  10
115.87213
  20
-60.833664
  0
VERTEX
  5
fa
  8
Layer_0
  10
106.85132
  20
-51.812851
  0
VERTEX
  5
fb
  8
Layer_0
  10
118.36603
  20
-51.812851
  0
VERTEX
  5
fc
  8
Layer_0
  10
131.62949
  20
-65.076309
  42
0.41421356
  0
VERTEX
  5
fd
  8
Layer_0
  10
135.87213
  20
-65.076279
  42
0.41422119
  0
VERTEX
  5
fe
  8
Layer_0
  10
135.87213
  20
-60.833664
  0
VERTEX
  5
ff
  8
Layer_0
  10
126.85132
  20
-51.812851
  0
VERTEX
  5
100
  8
Layer_0
  10
138.36603
  20
-51.812851
  0
VERTEX
  5
101
  8
Layer_0
  10
151.62949
  20
-65.076309
  42
0.41421356
  0
VERTEX
  5
102
  8
Layer_0
  10
155.87213
  20
-65.076279
  42
0.41422119
  0
VERTEX
  5
103
  8
Layer_0
  10
155.87213
  20
-60.833664
  0
VERTEX
  5
104
  8
Layer_0
  10
146.85132
  20
-51.812851
  0
VERTEX
  5
105
  8
Layer_0
  10
158.36603
  20
-51.812851
  0
VERTEX
  5
106
  8
Layer_0
  10
171.62949
  20
-65.076309
  42
0.41421356
  0
VERTEX
  5
107
  8
Layer_0
  10
175.87213
  20
-65.076279
  42
0.41422119
  0
VERTEX
  5
108
  8
Layer_0
  10
175.87213
  20
-60.833664
  0
VERTEX
  5
109
  8
Layer_0
  10
166.85132
  20
-51.812851
  0
VERTEX
  5
10a
  8
Layer_0
  10
178.36603
  20
-51.812851
  0
VERTEX
  5
10b
  8
Layer_0
  10
191.62949
  20
-65.076309
  42
0.41421356
  0
VERTEX
  5
10c
  8
Layer_0
  10
195.87213
  20
-65.076279
  42
0.41422119
  0
VERTEX
  5
10d
  8
Layer_0
  10
195.87213
  20
-60.833664
  0
VERTEX
  5
10e
  8
Layer_0
  10
186.85132
  20
-51.812851
  0
VERTEX
  5
10f
  8
Layer_0
  10
199.60867
  20
-51.812851
  0
SEQEND
  0
POLYLINE
  5
111
  8
Layer_0
  62
7
  66
1
  10
0
  20
0
  30
0
  0
VERTEX
  5
111
  8
Layer_0
  10
217.36542
  20
4.0066986
  0
VERTEX
  5
112
  8
Layer_0
  10
222.21661
  20
4.0459747
  42
-0.3442639
  0
VERTEX
  5
113
  8
Layer_0
  10
212.51422
  20
-3.5325928
  0
SEQEND
  0
POLYLINE
  5
115
  8
Layer_0
  62
7
  66
1
  10
0
  20
0
  30
0
  0
VERTEX
  5
115
  8
Layer_0
  10
187.36542
  20
4.0066986
  0
VERTEX
  5
116
  8
Layer_0
  10
192.21661
  20
4.0459747
  42
-0.3442639
  0
VERTEX
  5
117
  8
Layer_0
  10
182.51422
  20
-3.5325928
  0
SEQEND
  0
POLYLINE
  5
119
  8
Layer_0
  62
7
  66
1
  10
0
  20
0
  30
0
  0
VERTEX
  5
119
  8
Layer_0
  10
39.608704
  20
-45.812851
  42
0.30334491
  0
VERTEX
  5
11a
  8
Layer_0
  10
36.837036
  20
-47.66481
  42
0.30333839
  0
VERTEX
  5
11b
  8
Layer_0
  10
37.487366
  20
-50.934158
  0
SEQEND
  0
POLYLINE
  5
11d
  8
Layer_0
  62
7
  70
1
  66
1
  10
0
  20
0
  30
0
  0
VERTEX
  5
11d
  8
Layer_0
  10
219.00003
  20
119
  0
VERTEX
  5
11e
  8
Layer_0
  10
219.00003
  20
359
  42
0.41421356
  0
VERTEX
  5
11f
  8
Layer_0
  10
214.00003
  20
364
  0
VERTEX
  5
120
  8
Layer_0
  10
94
  20
364
  0
VERTEX
  5
121
  8
Layer_0
  10
-26
  20
364
  42
0.41421356
  0
VERTEX
  5
122
  8
Layer_0
  10
-31
  20
359
  0
VERTEX
  5
123
  8
Layer_0
  10
-31
  20
119
  42
0.41421356
  0
VERTEX
  5
124
  8
Layer_0
  10
-26
  20
114
  0
VERTEX
  5
125
  8
Layer_0
  10
64
  20
114
  0
VERTEX
  5
126
  8
Layer_0
  10
94
  20
114
  0
VERTEX
  5
127
  8
Layer_0
  10
124
  20
114
  0
VERTEX
  5
128
  8
Layer_0
  10
214.00003
  20
114
  42
0.41421356
  0
SEQEND
  0
POLYLINE
  5
12a
  8
Layer_0
  62
7
  70
1
  66
1
  10
0
  20
0
  30
0
  0
VERTEX
  5
12a
  8
Layer_0
  10
116.5
  20
17
  0
VERTEX
  5
12b
  8
Layer_0
  10
116.5
  20
-3
  0
VERTEX
  5
12c
  8
Layer_0
  10
101.5
  20
-3
  0
VERTEX
  5
12d
  8
Layer_0
  10
101.5
  20
17
  0
VERTEX
  5
12e
  8
Layer_0
  10
104
  20
17
  0
VERTEX
  5
12f
  8
Layer_0
  10
104
  20
23
  0
VERTEX
  5
130
  8
Layer_0
  10
114
  20
23
  0
VERTEX
  5
131
  8
Layer_0
  10
114
  20
17
  0
SEQEND
  0
POLYLINE
  5
133
  8
Layer_0
  62
7
  70
1
  66
1
  10
0
  20
0
  30
0
  0
VERTEX
  5
133
  8
Layer_0
  10
94
  20
16.000023
  0
VERTEX
  5
134
  8
Layer_0
  10
96.5
  20
16.000023
  0
VERTEX
  5
135
  8
Layer_0
  10
96.5
  20
-3.9999771
  0
VERTEX
  5
136
  8
Layer_0
  10
81.5
  20
-3.9999771
  0
VERTEX
  5
137
  8
Layer_0
  10
81.5
  20
16.000023
  0
VERTEX
  5
138
  8
Layer_0
  10
84
  20
16.000023
  0
VERTEX
  5
139
  8
Layer_0
  10
84
  20
22.000023
  0
VERTEX
  5
13a
  8
Layer_0
  10
94
  20
22.000023
  0
SEQEND
  0
POLYLINE
  5
13c
  8
Layer_0
  62
7
  70
1
  66
1
  10
0
  20
0
  30
0
  0
VERTEX
  5
13c
  8
Layer_0
  10
134.00003
  20
15.999992
  0
VERTEX
  5
13d
  8
Layer_0
  10
136.50003
  20
15.999992
  0
VERTEX
  5
13e
  8
Layer_0
  10
136.50003
  20
-4.0000076
  0
VERTEX
  5
13f
  8
Layer_0
  10
121.50003
  20
-4.0000076
  0
VERTEX
  5
140
  8
Layer_0
  10
121.50003
  20
15.999992
  0
VERTEX
  5
141
  8
Layer_0
  10
124.00003
  20
15.999992
  0
VERTEX
  5
142
  8
Layer_0
  10
124.00003
  20
21.999992
  0
VERTEX
  5
143
  8
Layer_0
  10
134.00003
  20
21.999992
  0
SEQEND
  0
POLYLINE
  5
145
  8
Layer_0
  62
7
  70
1
  66
1
  10
0
  20
0
  30
0
  0
VERTEX
  5
145
  8
Layer_0
  10
156.69876
  20
16.251175
  0
VERTEX
  5
146
  8
Layer_0
  10
159.19876
  20
16.251175
  0
VERTEX
  5
147
  8
Layer_0
  10
159.19876
  20
-3.7488251
  0
VERTEX
  5
148
  8
Layer_0
  10
144.19876
  20
-3.7488251
  0
VERTEX
  5
149
  8
Layer_0
  10
144.19876
  20
16.251175
  0
VERTEX
  5
14a
  8
Layer_0
  10
146.69876
  20
16.251175
  0
VERTEX
  5
14b
  8
Layer_0
  10
146.69876
  20
22.251175
  0
VERTEX
  5
14c
  8
Layer_0
  10
156.69876
  20
22.251175
  0
SEQEND
  0
POLYLINE
  5
14e
  8
Layer_0
  62
7
  70
1
  66
1
  10
0
  20
0
  30
0
  0
VERTEX
  5
14e
  8
Layer_0
  10
225.04501
  20
286.70319
  0
VERTEX
  5
14f
  8
Layer_0
  10
474.52502
  20
286.70319
  0
VERTEX
  5
150
  8
Layer_0
  10
474.52502
  20
110.30318
  0
VERTEX
  5
151
  8
Layer_0
  10
415.15503
  20
110.30318
  0
VERTEX
  5
152
  8
Layer_0
  10
415.15503
  20
115.30318
  0
VERTEX
  5
153
  8
Layer_0
  10
409.15503
  20
115.30318
  0
VERTEX
  5
154
  8
Layer_0
  10
409.15503
  20
110.30318
  0
VERTEX
  5
155
  8
Layer_0
  10
290.41504
  20
110.30318
  0
VERTEX
  5
156
  8
Layer_0
  10
349.78503
  20
110.30318
  0
VERTEX
  5
157
  8
Layer_0
  10
290.41504
  20
110.30318
  0
VERTEX
  5
158
  8
Layer_0
  10
290.41504
  20
115.30318
  0
VERTEX
  5
159
  8
Layer_0
  10
284.41504
  20
115.30318
  0
VERTEX
  5
15a
  8
Layer_0
  10
284.41504
  20
110.30318
  0
VERTEX
  5
15b
  8
Layer_0
  10
225.04501
  20
110.30318
  0
SEQEND
  0
POLYLINE
  5
15d
  8
Layer_0
  62
7
  70
1
  66
1
  10
0
  20
0
  30
0
  0
VERTEX
  5
15d
  8
Layer_0
  10
474.52502
  20
104.60547
  0
VERTEX
  5
15e
  8
Layer_0
  10
474.52502
  20
-71.79454
  0
VERTEX
  5
15f
  8
Layer_0
  10
225.04501
  20
-71.79454
  0
VERTEX
  5
160
  8
Layer_0
  10
225.04501
  20
104.60547
  0
VERTEX
  5
161
  8
Layer_0
  10
284.41504
  20
104.60547
  0
VERTEX
  5
162
  8
Layer_0
  10
284.41504
  20
99.605469
  0
VERTEX
  5
163
  8
Layer_0
  10
290.41504
  20
99.605469
  0
VERTEX
  5
164
  8
Layer_0
  10
290.41504
  20
104.60547
  0
VERTEX
  5
165
  8
Layer_0
  10
409.15503
  20
104.60547
  0
VERTEX
  5
166
  8
Layer_0
  10
409.15503
  20
99.605469
  0
VERTEX
  5
167
  8
Layer_0
  10
415.15503
  20
99.605469
  0
VERTEX
  5
168
  8
Layer_0
  10
415.15503
  20
104.60547
  0
SEQEND
  0
POLYLINE
  5
16a
  8
Layer_0
  62
7
  66
1
  10
0
  20
0
  30
0
  0
VERTEX
  5
16a
  8
Layer_0
  10
-26
  20
114
  0
VERTEX
  5
16b
  8
Layer_0
  10
-25.919678
  20
114
  0
SEQEND
  0
POLYLINE
  5
16d
  8
Layer_0
  62
7
  70
1
  66
1
  10
0
  20
0
  30
0
  0
VERTEX
  5
16d
  8
Layer_0
  10
-26
  20
359
  0
VERTEX
  5
16e
  8
Layer_0
  10
-16
  20
359
  0
VERTEX
  5
16f
  8
Layer_0
  10
-16
  20
353.5
  0
VERTEX
  5
170
  8
Layer_0
  10
-26
  20
353.5
  0
SEQEND
  0
POLYLINE
  5
172
  8
Layer_0
  62
7
  70
1
  66
1
  10
0
  20
0
  30
0
  0
VERTEX
  5
172
  8
Layer_0
  10
-26
  20
119
  0
VERTEX
  5
173
  8
Layer_0
  10
-16
  20
119
  0
VERTEX
  5
174
  8
Layer_0
  10
-16
  20
124.5
  0
VERTEX
  5
175
  8
Layer_0
  10
-26
  20
124.5
  0
SEQEND
  0
POLYLINE
  5
177
  8
Layer_0
  62
7
  66
1
  10
0
  20
0
  30
0
  0
VERTEX
  5
177
  8
Layer_0
  10
225.04501
  20
286.70319
  0
VERTEX
  5
178
  8
Layer_0
  10
225.54501
  20
286.70319
  0
SEQEND
  0
POLYLINE
  5
17a
  8
Layer_0
  62
7
  66
1
  10
0
  20
0
  30
0
  0
VERTEX
  5
17a
  8
Layer_0
  10
225.79501
  20
286.70319
  0
VERTEX
  5
17b
  8
Layer_0
  10
226.29501
  20
286.70319
  0
SEQEND
  0
POLYLINE
  5
17d
  8
Layer_0
  62
7
  66
1
  10
0
  20
0
  30
0
  0
VERTEX
  5
17d
  8
Layer_0
  10
226.54501
  20
286.70319
  0
VERTEX
  5
17e
  8
Layer_0
  10
227.04501
  20
286.70319
  0
SEQEND
  0
POLYLINE
  5
180
  8
Layer_0
  62
7
  66
1
  10
0
  20
0
  30
0
  0
VERTEX
  5
180
  8
Layer_0
  10
227.29501
  20
286.70319
  0
VERTEX
  5
181
  8
Layer_0
  10
227.79501
  20
286.70319
  0
SEQEND
  0
POLYLINE
  5
183
  8
Layer_0
  62
7
  66
1
  10
0
  20
0
  30
0
  0
VERTEX
  5
183
  8
Layer_0
  10
228.04501
  20
286.70319
  0
VERTEX
  5
184
  8
Layer_0
  10
228.54501
  20
286.70319
  0
SEQEND
  0
POLYLINE
  5
186
  8
Layer_0
  62
7
  66
1
  10
0
  20
0
  30
0
  0
VERTEX
  5
186
  8
Layer_0
  10
228.79501
  20
286.70319
  0
VERTEX
  5
187
  8
Layer_0
  10
229.29501
  20
286.70319
  0
SEQEND
  0
POLYLINE
  5
189
  8
Layer_0
  62
7
  66
1
  10
0
  20
0
  30
0
  0
VERTEX
  5
189
  8
Layer_0
  10
229.54501
  20
286.70319
  0
VERTEX
  5
18a
  8
Layer_0
  10
230.04501
  20
286.70319
  0
SEQEND
  0
POLYLINE
  5
18c
  8
Layer_0
  62
7
  66
1
  10
0
  20
0
  30
0
  0
VERTEX
  5
18c
  8
Layer_0
  10
230.29501
  20
286.70319
  0
VERTEX
  5
18d
  8
Layer_0
  10
230.79501
  20
286.70319
  0
SEQEND
  0
POLYLINE
  5
18f
  8
Layer_0
  62
7
  66
1
  10
0
  20
0
  30
0
  0
VERTEX
  5
18f
  8
Layer_0
  10
231.04501
  20
286.70319
  0
VERTEX
  5
190
  8
Layer_0
  10
231.54501
  20
286.70319
  0
SEQEND
  0
POLYLINE
  5
192
  8
Layer_0
  62
7
  66
1
  10
0
  20
0
  30
0
  0
VERTEX
  5
192
  8
Layer_0
  10
231.79501
  20
286.70319
  0
VERTEX
  5
193
  8
Layer_0
  10
232.29501
  20
286.70319
  0
SEQEND
  0
POLYLINE
  5
195
  8
Layer_0
  62
7
  66
1
  10
0
  20
0
  30
0
  0
VERTEX
  5
195
  8
Layer_0
  10
232.54501
  20
286.70319
  0
VERTEX
  5
196
  8
Layer_0
  10
233.04501
  20
286.70319
  0
SEQEND
  0
POLYLINE
  5
198
  8
Layer_0
  62
7
  66
1
  10
0
  20
0
  30
0
  0
VERTEX
  5
198
  8
Layer_0
  10
233.29501
  20
286.70319
  0
VERTEX
  5
199
  8
Layer_0
  10
233.79501
  20
286.70319
  0
SEQEND
  0
POLYLINE
  5
19b
  8
Layer_0
  62
7
  66
1
  10
0
  20
0
  30
0
  0
VERTEX
  5
19b
  8
Layer_0
  10
234.04501
  20
286.70319
  0
VERTEX
  5
19c
  8
Layer_0
  10
234.54501
  20
286.70319
  0
SEQEND
  0
POLYLINE
  5
19e
  8
Layer_0
  62
7
  66
1
  10
0
  20
0
  30
0
  0
VERTEX
  5
19e
  8
Layer_0
  10
234.79501
  20
286.70319
  0
VERTEX
  5
19f
  8
Layer_0
  10
235.04501
  20
286.70319
  0
SEQEND
  0
POLYLINE
  5
1a1
  8
Layer_0
  62
7
  66
1
  10
0
  20
0
  30
0
  0
VERTEX
  5
1a1
  8
Layer_0
  10
225.04501
  20
-71.79454
  0
VERTEX
  5
1a2
  8
Layer_0
  10
225.54501
  20
-71.79454
  0
SEQEND
  0
POLYLINE
  5
1a4
  8
Layer_0
  62
7
  66
1
  10
0
  20
0
  30
0
  0
VERTEX
  5
1a4
  8
Layer_0
  10
225.79501
  20
-71.79454
  0
VERTEX
  5
1a5
  8
Layer_0
  10
226.29501
  20
-71.79454
  0
SEQEND
  0
POLYLINE
  5
1a7
  8
Layer_0
  62
7
  66
1
  10
0
  20
0
  30
0
  0
VERTEX
  5
1a7
  8
Layer_0
  10
226.54501
  20
-71.79454
  0
VERTEX
  5
1a8
  8
Layer_0
  10
227.04501
  20
-71.79454
  0
SEQEND
  0
POLYLINE
  5
1aa
  8
Layer_0
  62
7
  66
1
  10
0
  20
0
  30
0
  0
VERTEX
  5
1aa
  8
Layer_0
  10
227.29501
  20
-71.79454
  0
VERTEX
  5
1ab
  8
Layer_0
  10
227.79501
  20
-71.79454
  0
SEQEND
  0
POLYLINE
  5
1ad
  8
Layer_0
  62
7
  66
1
  10
0
  20
0
  30
0
  0
VERTEX
  5
1ad
  8
Layer_0
  10
228.04501
  20
-71.79454
  0
VERTEX
  5
1ae
  8
Layer_0
  10
228.54501
  20
-71.79454
  0
SEQEND
  0
POLYLINE
  5
1b0
  8
Layer_0
  62
7
  66
1
  10
0
  20
0
  30
0
  0
VERTEX
  5
1b0
  8
Layer_0
  10
228.79501
  20
-71.79454
  0
VERTEX
  5
1b1
  8
Layer_0
  10
229.29501
  20
-71.79454
  0
SEQEND
  0
POLYLINE
  5
1b3
  8
Layer_0
  62
7
  66
1
  10
0
  20
0
  30
0
  0
VERTEX
  5
1b3
  8
Layer_0
  10
229.54501
  20
-71.79454
  0
VERTEX
  5
1b4
  8
Layer_0
  10
230.04501
  20
-71.79454
  0
SEQEND
  0
POLYLINE
  5
1b6
  8
Layer_0
  62
7
  66
1
  10
0
  20
0
  30
0
  0
VERTEX
  5
1b6
  8
Layer_0
  10
230.29501
  20
-71.79454
  0
VERTEX
  5
1b7
  8
Layer_0
  10
230.79501
  20
-71.79454
  0
SEQEND
  0
POLYLINE
  5
1b9
  8
Layer_0
  62
7
  66
1
  10
0
  20
0
  30
0
  0
VERTEX
  5
1b9
  8
Layer_0
  10
231.04501
  20
-71.79454
  0
VERTEX
  5
1ba
  8
Layer_0
  10
231.54501
  20
-71.79454
  0
SEQEND
  0
POLYLINE
  5
1bc
  8
Layer_0
  62
7
  66
1
  10
0
  20
0
  30
0
  0
VERTEX
  5
1bc
  8
Layer_0
  10
231.79501
  20
-71.79454
  0
VERTEX
  5
1bd
  8
Layer_0
  10
232.29501
  20
-71.79454
  0
SEQEND
  0
POLYLINE
  5
1bf
  8
Layer_0
  62
7
  66
1
  10
0
  20
0
  30
0
  0
VERTEX
  5
1bf
  8
Layer_0
  10
232.54501
  20
-71.79454
  0
VERTEX
  5
1c0
  8
Layer_0
  10
233.04501
  20
-71.79454
  0
SEQEND
  0
POLYLINE
  5
1c2
  8
Layer_0
  62
7
  66
1
  10
0
  20
0
  30
0
  0
VERTEX
  5
1c2
  8
Layer_0
  10
233.29501
  20
-71.79454
  0
VERTEX
  5
1c3
  8
Layer_0
  10
233.79501
  20
-71.79454
  0
SEQEND
  0
POLYLINE
  5
1c5
  8
Layer_0
  62
7
  66
1
  10
0
  20
0
  30
0
  0
VERTEX
  5
1c5
  8
Layer_0
  10
234.04501
  20
-71.79454
  0
VERTEX
  5
1c6
  8
Layer_0
  10
234.54501
  20
-71.79454
  0
SEQEND
  0
POLYLINE
  5
1c8
  8
Layer_0
  62
7
  66
1
  10
0
  20
0
  30
0
  0
VERTEX
  5
1c8
  8
Layer_0
  10
234.79501
  20
-71.79454
  0
VERTEX
  5
1c9
  8
Layer_0
  10
235.04501
  20
-71.79454
  0
SEQEND
  0
POLYLINE
  5
1cb
  8
Layer_0
  62
7
  66
1
  10
0
  20
0
  30
0
  0
VERTEX
  5
1cb
  8
Layer_0
  10
200.46271
  20
-16.369965
  0
VERTEX
  5
1cc
  8
Layer_0
  10
187.70535
  20
-16.369965
  0
VERTEX
  5
1cd
  8
Layer_0
  10
196.72617
  20
-25.390793
  42
-0.41422119
  0
VERTEX
  5
1ce
  8
Layer_0
  10
196.72617
  20
-29.633408
  42
-0.41421738
  0
VERTEX
  5
1cf
  8
Layer_0
  10
192.48355
  20
-29.633438
  0
VERTEX
  5
1d0
  8
Layer_0
  10
179.22009
  20
-16.369965
  0
VERTEX
  5
1d1
  8
Layer_0
  10
167.70535
  20
-16.369965
  0
VERTEX
  5
1d2
  8
Layer_0
  10
176.72617
  20
-25.390793
  42
-0.41422119
  0
VERTEX
  5
1d3
  8
Layer_0
  10
176.72617
  20
-29.633408
  42
-0.41421738
  0
VERTEX
  5
1d4
  8
Layer_0
  10
172.48355
  20
-29.633438
  0
VERTEX
  5
1d5
  8
Layer_0
  10
159.22009
  20
-16.369965
  0
VERTEX
  5
1d6
  8
Layer_0
  10
147.70535
  20
-16.369965
  0
VERTEX
  5
1d7
  8
Layer_0
  10
156.72617
  20
-25.390793
  42
-0.41422119
  0
VERTEX
  5
1d8
  8
Layer_0
  10
156.72617
  20
-29.633408
  42
-0.41421738
  0
VERTEX
  5
1d9
  8
Layer_0
  10
152.48355
  20
-29.633438
  0
VERTEX
  5
1da
  8
Layer_0
  10
139.22009
  20
-16.369965
  0
VERTEX
  5
1db
  8
Layer_0
  10
127.70535
  20
-16.369965
  0
VERTEX
  5
1dc
  8
Layer_0
  10
136.72617
  20
-25.390793
  42
-0.41422119
  0
VERTEX
  5
1dd
  8
Layer_0
  10
136.72617
  20
-29.633408
  42
-0.41422119
  0
VERTEX
  5
1de
  8
Layer_0
  10
132.48355
  20
-29.633408
  0
VERTEX
  5
1df
  8
Layer_0
  10
119.22009
  20
-16.369965
  0
VERTEX
  5
1e0
  8
Layer_0
  10
107.70535
  20
-16.369965
  0
VERTEX
  5
1e1
  8
Layer_0
  10
116.72617
  20
-25.390793
  42
-0.41422119
  0
VERTEX
  5
1e2
  8
Layer_0
  10
116.72617
  20
-29.633408
  42
-0.41422119
  0
VERTEX
  5
1e3
  8
Layer_0
  10
112.48355
  20
-29.633408
  0
VERTEX
  5
1e4
  8
Layer_0
  10
99.220093
  20
-16.369965
  0
VERTEX
  5
1e5
  8
Layer_0
  10
87.705353
  20
-16.369965
  0
VERTEX
  5
1e6
  8
Layer_0
  10
96.726166
  20
-25.390793
  42
-0.41422119
  0
VERTEX
  5
1e7
  8
Layer_0
  10
96.726166
  20
-29.633408
  42
-0.41422119
  0
VERTEX
  5
1e8
  8
Layer_0
  10
92.483551
  20
-29.633408
  0
VERTEX
  5
1e9
  8
Layer_0
  10
79.220093
  20
-16.369965
  0
VERTEX
  5
1ea
  8
Layer_0
  10
67.705353
  20
-16.369965
  0
VERTEX
  5
1eb
  8
Layer_0
  10
76.726166
  20
-25.390793
  42
-0.41422119
  0
VERTEX
  5
1ec
  8
Layer_0
  10
76.726166
  20
-29.633408
  42
-0.41422119
  0
VERTEX
  5
1ed
  8
Layer_0
  10
72.483551
  20
-29.633408
  0
VERTEX
  5
1ee
  8
Layer_0
  10
59.220093
  20
-16.369965
  0
VERTEX
  5
1ef
  8
Layer_0
  10
47.705353
  20
-16.369965
  0
VERTEX
  5
1f0
  8
Layer_0
  10
56.726166
  20
-25.390793
  42
-0.41422119
  0
VERTEX
  5
1f1
  8
Layer_0
  10
56.726166
  20
-29.633408
  42
-0.41422119
  0
VERTEX
  5
1f2
  8
Layer_0
  10
52.483551
  20
-29.633408
  0
VERTEX
  5
1f3
  8
Layer_0
  10
38.341431
  20
-15.491287
  0
SEQEND
  0
POLYLINE
  5
1f5
  8
Layer_0
  62
7
  70
1
  66
1
  10
0
  20
0
  30
0
  0
VERTEX
  5
1f5
  8
Layer_0
  10
202.58405
  20
-11.248657
  42
0.19891237
  0
VERTEX
  5
1f6
  8
Layer_0
  10
200.46271
  20
-10.369965
  42
-0.19891237
  0
SEQEND
  0
POLYLINE
  5
1f8
  8
Layer_0
  62
7
  66
1
  10
0
  20
0
  30
0
  0
VERTEX
  5
1f8
  8
Layer_0
  10
202.58405
  20
-11.248657
  0
VERTEX
  5
1f9
  8
Layer_0
  10
216.72617
  20
-25.390793
  42
-0.41422119
  0
VERTEX
  5
1fa
  8
Layer_0
  10
216.72617
  20
-29.633408
  42
-0.41422119
  0
VERTEX
  5
1fb
  8
Layer_0
  10
212.48355
  20
-29.633408
  0
VERTEX
  5
1fc
  8
Layer_0
  10
199.22009
  20
-16.369965
  0
SEQEND
  0
POLYLINE
  5
1fe
  8
Layer_0
  62
7
  66
1
  10
0
  20
0
  30
0
  0
VERTEX
  5
1fe
  8
Layer_0
  10
216.60486
  20
-34.5121
  0
VERTEX
  5
1ff
  8
Layer_0
  10
38.462708
  20
-34.5121
  42
-0.41421356
  0
VERTEX
  5
200
  8
Layer_0
  10
33.462708
  20
-29.5121
  0
VERTEX
  5
201
  8
Layer_0
  10
33.462708
  20
-11.369965
  42
-0.41421356
  0
VERTEX
  5
202
  8
Layer_0
  10
38.462708
  20
-6.3699646
  0
VERTEX
  5
203
  8
Layer_0
  10
216.60486
  20
-6.3699646
  0
VERTEX
  5
204
  8
Layer_0
  10
221.60486
  20
-6.3699646
  0
VERTEX
  5
205
  8
Layer_0
  10
221.60486
  20
-34.5121
  0
VERTEX
  5
206
  8
Layer_0
  10
216.47403
  20
-34.5121
  0
SEQEND
  0
POLYLINE
  5
208
  8
Layer_0
  62
7
  70
1
  66
1
  10
0
  20
0
  30
0
  0
VERTEX
  5
208
  8
Layer_0
  10
38.341431
  20
-15.491287
  42
-0.30333222
  0
VERTEX
  5
209
  8
Layer_0
  10
37.691101
  20
-12.221939
  42
-0.30333673
  0
VERTEX
  5
20a
  8
Layer_0
  10
40.462708
  20
-10.369965
  42
0.3033436
  0
VERTEX
  5
20b
  8
Layer_0
  10
37.691101
  20
-12.221924
  42
0.3033298
  0
SEQEND
  0
POLYLINE
  5
20d
  8
Layer_0
  62
7
  66
1
  10
0
  20
0
  30
0
  0
VERTEX
  5
20d
  8
Layer_0
  10
200.46271
  20
-10.369965
  0
VERTEX
  5
20e
  8
Layer_0
  10
40.462708
  20
-10.369965
  0
SEQEND
  0
POLYLINE
  5
210
  8
Layer_0
  62
7
  66
1
  10
0
  20
0
  30
0
  0
VERTEX
  5
210
  8
Layer_0
  10
215.75082
  20
-69.954971
  0
VERTEX
  5
211
  8
Layer_0
  10
37.608704
  20
-69.954971
  42
-0.41421356
  0
VERTEX
  5
212
  8
Layer_0
  10
32.608704
  20
-64.954971
  0
VERTEX
  5
213
  8
Layer_0
  10
32.608704
  20
-46.812851
  42
-0.41421356
  0
VERTEX
  5
214
  8
Layer_0
  10
37.608704
  20
-41.812851
  0
VERTEX
  5
215
  8
Layer_0
  10
215.75082
  20
-41.812851
  0
VERTEX
  5
216
  8
Layer_0
  10
220.75082
  20
-41.812851
  0
VERTEX
  5
217
  8
Layer_0
  10
220.75082
  20
-69.954971
  0
VERTEX
  5
218
  8
Layer_0
  10
215.62
  20
-69.954971
  0
SEQEND
  0
POLYLINE
  5
21a
  8
Layer_0
  62
7
  66
1
  10
0
  20
0
  30
0
  0
VERTEX
  5
21a
  8
Layer_0
  10
201.73001
  20
-46.691513
  0
VERTEX
  5
21b
  8
Layer_0
  10
215.87213
  20
-60.833664
  42
-0.41422119
  0
VERTEX
  5
21c
  8
Layer_0
  10
215.87213
  20
-65.076279
  42
-0.41422119
  0
VERTEX
  5
21d
  8
Layer_0
  10
211.62952
  20
-65.076279
  0
VERTEX
  5
21e
  8
Layer_0
  10
198.36603
  20
-51.812851
  0
SEQEND
  0
POLYLINE
  5
220
  8
Layer_0
  62
7
  70
1
  66
1
  10
0
  20
0
  30
0
  0
VERTEX
  5
220
  8
Layer_0
  10
201.73001
  20
-46.691513
  42
0.19892234
  0
VERTEX
  5
221
  8
Layer_0
  10
199.60867
  20
-45.812851
  42
-0.19892234
  0
SEQEND
  0
POLYLINE
  5
223
  8
Layer_0
  62
7
  70
1
  66
1
  10
0
  20
0
  30
0
  0
VERTEX
  5
223
  8
Layer_0
  10
-11
  20
239
  0
VERTEX
  5
224
  8
Layer_0
  10
-11
  20
252.5
  0
VERTEX
  5
225
  8
Layer_0
  10
-5.5
  20
252.5
  0
VERTEX
  5
226
  8
Layer_0
  10
-5.5
  20
225.5
  0
VERTEX
  5
227
  8
Layer_0
  10
-11
  20
225.5
  0
SEQEND
  0
POLYLINE
  5
229
  8
Layer_0
  62
7
  70
1
  66
1
  10
0
  20
0
  30
0
  0
VERTEX
  5
229
  8
Layer_0
  10
214.00003
  20
124.5
  0
VERTEX
  5
22a
  8
Layer_0
  10
214.00003
  20
119
  0
VERTEX
  5
22b
  8
Layer_0
  10
204.00003
  20
119
  0
VERTEX
  5
22c
  8
Layer_0
  10
204.00003
  20
124.5
  0
SEQEND
  0
POLYLINE
  5
22e
  8
Layer_0
  62
7
  70
1
  66
1
  10
0
  20
0
  30
0
  0
VERTEX
  5
22e
  8
Layer_0
  10
199.00003
  20
239
  0
VERTEX
  5
22f
  8
Layer_0
  10
199.00003
  20
225.5
  0
VERTEX
  5
230
  8
Layer_0
  10
193.50003
  20
225.5
  0
VERTEX
  5
231
  8
Layer_0
  10
193.50003
  20
252.5
  0
VERTEX
  5
232
  8
Layer_0
  10
199.00003
  20
252.5
  0
SEQEND
  0
POLYLINE
  5
234
  8
Layer_0
  62
7
  66
1
  10
0
  20
0
  30
0
  0
VERTEX
  5
234
  8
Layer_0
  10
214.00003
  20
114
  0
VERTEX
  5
235
  8
Layer_0
  10
213.91974
  20
114
  0
SEQEND
  0
POLYLINE
  5
237
  8
Layer_0
  62
7
  70
1
  66
1
  10
0
  20
0
  30
0
  0
VERTEX
  5
237
  8
Layer_0
  10
204.00003
  20
353.5
  0
VERTEX
  5
238
  8
Layer_0
  10
214.00003
  20
353.5
  0
VERTEX
  5
239
  8
Layer_0
  10
214.00003
  20
359
  0
VERTEX
  5
23a
  8
Layer_0
  10
204.00003
  20
359
  0
SEQEND
  0
POLYLINE
  5
23c
  8
Layer_0
  62
7
  70
1
  66
1
  10
0
  20
0
  30
0
  0
VERTEX
  5
23c
  8
Layer_0
  10
165.98837
  20
63.253201
  0
VERTEX
  5
23d
  8
Layer_0
  10
213.15118
  20
79.856407
  42
0.41421356
  0
VERTEX
  5
23e
  8
Layer_0
  10
216.20715
  20
86.233002
  42
0.41421356
  0
VERTEX
  5
23f
  8
Layer_0
  10
209.83057
  20
89.288979
  0
VERTEX
  5
240
  8
Layer_0
  10
162.66772
  20
72.685776
  42
0.41421498
  0
VERTEX
  5
241
  8
Layer_0
  10
159.61179
  20
66.309158
  42
0.41421368
  0
SEQEND
  0
POLYLINE
  5
243
  8
Layer_0
  62
7
  70
1
  66
1
  10
0
  20
0
  30
0
  0
VERTEX
  5
243
  8
Layer_0
  10
209.33231
  20
97.314209
  42
0.41421662
  0
VERTEX
  5
244
  8
Layer_0
  10
212.38828
  20
103.69082
  42
0.41421509
  0
VERTEX
  5
245
  8
Layer_0
  10
206.01166
  20
106.74678
  0
VERTEX
  5
246
  8
Layer_0
  10
158.84882
  20
90.14357
  42
0.41421459
  0
VERTEX
  5
247
  8
Layer_0
  10
155.79288
  20
83.76696
  42
0.41421406
  0
VERTEX
  5
248
  8
Layer_0
  10
162.16946
  20
80.710999
  0
SEQEND
  0
POLYLINE
  5
24a
  8
Layer_0
  62
7
  66
1
  10
0
  20
0
  30
0
  0
VERTEX
  5
24a
  8
Layer_0
  10
78.211304
  20
41.25
  42
0.36997094
  0
VERTEX
  5
24b
  8
Layer_0
  10
96
  20
26
  0
VERTEX
  5
24c
  8
Layer_0
  10
126
  20
26
  0
VERTEX
  5
24d
  8
Layer_0
  10
141
  20
26
  42
0.41421356
  0
VERTEX
  5
24e
  8
Layer_0
  10
146
  20
31
  0
VERTEX
  5
24f
  8
Layer_0
  10
146
  20
57.000015
  42
0.41421356
  0
VERTEX
  5
250
  8
Layer_0
  10
141
  20
62.000015
  0
VERTEX
  5
251
  8
Layer_0
  10
126
  20
62.000015
  0
VERTEX
  5
252
  8
Layer_0
  10
96
  20
62.000015
  42
0.36997128
  0
VERTEX
  5
253
  8
Layer_0
  10
78.211304
  20
46.750031
  0
SEQEND
  0
POLYLINE
  5
255
  8
Layer_0
  62
7
  66
1
  10
0
  20
0
  30
0
  0
VERTEX
  5
255
  8
Layer_0
  10
78
  20
41.25
  0
VERTEX
  5
256
  8
Layer_0
  10
88
  20
41.25
  0
VERTEX
  5
257
  8
Layer_0
  10
88
  20
46.750015
  0
VERTEX
  5
258
  8
Layer_0
  10
78
  20
46.750015
  0
SEQEND
  0
POLYLINE
  5
25a
  8
Layer_0
  62
7
  66
1
  10
0
  20
0
  30
0
  0
VERTEX
  5
25a
  8
Layer_0
  10
284.41504
  20
110.30318
  0
VERTEX
  5
25b
  8
Layer_0
  10
225.04501
  20
110.30318
  0
SEQEND
  0
POLYLINE
  5
25d
  8
Layer_0
  62
7
  70
1
  66
1
  10
0
  20
0
  30
0
  0
VERTEX
  5
25d
  8
Layer_0
  10
349.78503
  20
104.60547
  0
VERTEX
  5
25e
  8
Layer_0
  10
290.41504
  20
104.60547
  0
SEQEND
  0
POLYLINE
  5
260
  8
Layer_0
  62
7
  66
1
  10
0
  20
0
  30
0
  0
VERTEX
  5
260
  8
Layer_0
  10
225.04501
  20
104.60547
  0
VERTEX
  5
261
  8
Layer_0
  10
284.41504
  20
104.60547
  0
SEQEND
  0
CIRCLE
  5
263
  8
Layer_0
  62
7
  10
211.89435
  20
33.000004
  30
0
  40
2.75
  0
CIRCLE
  5
263
  8
Layer_0
  62
7
  10
211.89435
  20
53.000019
  30
0
  40
2.75
  0
POLYLINE
  5
263
  8
Layer_0
  62
7
  66
1
  10
0
  20
0
  30
0
  0
VERTEX
  5
263
  8
Layer_0
  10
152.2113
  20
40.25
  42
0.36997094
  0
VERTEX
  5
264
  8
Layer_0
  10
170
  20
25
  0
VERTEX
  5
265
  8
Layer_0
  10
200
  20
25
  0
VERTEX
  5
266
  8
Layer_0
  10
215
  20
25
  42
0.41421356
  0
VERTEX
  5
267
  8
Layer_0
  10
220
  20
30
  0
VERTEX
  5
268
  8
Layer_0
  10
220
  20
56.000015
  42
0.41421356
  0
VERTEX
  5
269
  8
Layer_0
  10
215
  20
61.000015
  0
VERTEX
  5
26a
  8
Layer_0
  10
200
  20
61.000015
  0
VERTEX
  5
26b
  8
Layer_0
  10
170
  20
61.000015
  42
0.36997128
  0
VERTEX
  5
26c
  8
Layer_0
  10
152.2113
  20
45.750031
  0
SEQEND
  0
POLYLINE
  5
26e
  8
Layer_0
  62
7
  66
1
  10
0
  20
0
  30
0
  0
VERTEX
  5
26e
  8
Layer_0
  10
152
  20
40.25
  0
VERTEX
  5
26f
  8
Layer_0
  10
162
  20
40.25
  0
VERTEX
  5
270
  8
Layer_0
  10
162
  20
45.750015
  0
VERTEX
  5
271
  8
Layer_0
  10
152
  20
45.750015
  0
SEQEND
  0
ENDSEC
  0
EOF
