0
SECTION
2
HEADER
9
$INSUNITS
70
4
9
$ACADVER
1
AC1014
9
$HANDSEED
5
FFFF
0
ENDSEC
0
SECTION
2
TABLES
0
TABLE
2
VPORT
5
8
100
AcDbSymbolTable
0
ENDTAB
0
TABLE
2
LTYPE
5
5
100
AcDbSymbolTable
0
LTYPE
5
14
100
AcDbSymbolTableRecord
100
AcDbLinetypeTableRecord
2
BYBLOCK
70
0
0
LTYPE
5
15
100
AcDbSymbolTableRecord
100
AcDbLinetypeTableRecord
2
BYLAYER
70
0
0
LTYPE
5
16
100
AcDbSymbolTableRecord
100
AcDbLinetypeTableRecord
2
DASHED
70
0
3
Dashed __ __ __ __ __ __ __ __ __ __ __ __ __ _
72
65
73
2
40
0.75
49
0.5
74
0
49
-0.25
74
0
0
ENDTAB
0
TABLE
2
LAYER
5
2
100
AcDbSymbolTable
70
3
0
LAYER
5
50
100
AcDbSymbolTableRecord
100
AcDbLayerTableRecord
2
1
70
0
62
7
6
DASHED
0
LAYER
5
51
100
AcDbSymbolTableRecord
100
AcDbLayerTableRecord
2
0
70
0
62
7
6
CONTINUOUS
0
ENDTAB
0
TABLE
2
STYLE
5
3
100
AcDbSymbolTable
70
1
0
STYLE
5
11
100
AcDbSymbolTableRecord
100
AcDbTextStyleTableRecord
2
STANDARD
70
0
0
ENDTAB
0
TABLE
2
VIEW
5
6
100
AcDbSymbolTable
70
0
0
ENDTAB
0
TABLE
2
UCS
5
7
100
AcDbSymbolTable
70
0
0
ENDTAB
0
TABLE
2
APPID
5
9
100
AcDbSymbolTable
70
2
0
APPID
5
12
100
AcDbSymbolTableRecord
100
AcDbRegAppTableRecord
2
ACAD
70
0
0
ENDTAB
0
TABLE
2
DIMSTYLE
5
A
100
AcDbSymbolTable
70
1
0
ENDTAB
0
TABLE
2
BLOCK_RECORD
5
1
100
AcDbSymbolTable
70
1
0
BLOCK_RECORD
5
1F
100
AcDbSymbolTableRecord
100
AcDbBlockTableRecord
2
*MODEL_SPACE
0
BLOCK_RECORD
5
1B
100
AcDbSymbolTableRecord
100
AcDbBlockTableRecord
2
*PAPER_SPACE
0
ENDTAB
0
ENDSEC
0
SECTION
2
BLOCKS
0
BLOCK
5
20
100
AcDbEntity
100
AcDbBlockBegin
2
*MODEL_SPACE
0
ENDBLK
5
21
100
AcDbEntity
100
AcDbBlockEnd
0
BLOCK
5
1C
100
AcDbEntity
100
AcDbBlockBegin
2
*PAPER_SPACE
0
ENDBLK
5
1D
100
AcDbEntity
100
AcDbBlockEnd
0
ENDSEC
0
SECTION
2
ENTITIES
0
LWPOLYLINE
5
100
100
AcDbEntity
8
0
100
AcDbPolyline
90
17
70
1
43
0.0
10
-354.22067083009085
20
303.56032240986008
10
-354.22067083009063
20
313.48905589569597
42
0.016418245683249642
10
-357.49123756528672
20
313.20632938924473
10
-357.49123756528672
20
303.56032240986008
10
-363.29123756528691
20
303.56032366365019
10
-363.41082478202281
20
312.1336629044838
42
0.88018090972119722
10
-352.30742484274685
20
213.56602836484822
10
-352.30742484274685
20
223.81545536541188
10
-346.50742484274679
20
223.81545536541188
10
-346.5074248427469
20
213.81545536541188
42
0.84150333228716634
10
-339.55204728076581
20
312.09896609728082
10
-339.55204728076581
20
303.56032240986008
10
-345.35204728076576
20
303.56032240986008
10
-345.35204728076576
20
313.17443279927397
42
0.016447927998848921
10
-348.6270077730195
20
313.47469012461198
10
-348.67287030632713
20
304.54590152354018
10
-348.67287030632713
20
303.56032240986008
0
LINE
5
101
100
AcDbEntity
8
0
100
AcDbLine
10
-363.29123756528691
20
303.56032366365019
30
0
11
-363.41082478202281
21
312.1336629044838
31
0
0
LINE
5
102
100
AcDbEntity
8
0
100
AcDbLine
10
-354.22067083009068
20
304.46414333931375
30
0
11
-354.47287016702171
21
303.56159360554085
31
0
0
LWPOLYLINE
5
103
100
AcDbEntity
8
0
100
AcDbPolyline
90
2
70
1
43
0.0
10
-363.41082478202281
20
312.1336629044838
42
0.88018090972119722
10
-352.30742484274685
20
213.56602836484819
42
-0.88018090972119722
0
LINE
5
104
100
AcDbEntity
8
0
100
AcDbLine
10
-354.22067083009068
20
304.5601495094362
30
0
11
-354.22067083009085
21
303.56032240986008
31
0
0
LINE
5
105
100
AcDbEntity
8
0
100
AcDbLine
10
-357.49123756528672
20
303.56032240986008
30
0
11
-357.49123756528672
21
313.20632938924473
31
0
0
LINE
5
106
100
AcDbEntity
8
0
100
AcDbLine
10
-348.67287030632713
20
304.54590152354018
30
0
11
-348.67287030632713
21
303.56032240986008
31
0
0
LWPOLYLINE
5
107
100
AcDbEntity
8
0
100
AcDbPolyline
90
2
70
1
43
0.0
10
-363.41082478202281
20
312.1336629044838
42
0.88018090972119722
10
-352.30742484274685
20
213.56602836484819
42
-0.88018090972119722
0
LINE
5
108
100
AcDbEntity
8
0
100
AcDbLine
10
-348.67287030632713
20
304.54590152354018
30
0
11
-348.67287030632713
21
303.56032240986008
31
0
0
LWPOLYLINE
5
109
100
AcDbEntity
8
0
100
AcDbPolyline
90
2
70
1
43
0.0
10
-363.41082478202281
20
312.1336629044838
42
0.88018090972119722
10
-352.30742484274685
20
213.56602836484819
42
-0.88018090972119722
0
LINE
5
110
100
AcDbEntity
8
0
100
AcDbLine
10
-348.67287030632713
20
304.54590152354018
30
0
11
-348.67287030632713
21
303.56032240986008
31
0
0
LWPOLYLINE
5
111
100
AcDbEntity
8
0
100
AcDbPolyline
90
2
70
1
43
0.0
10
-346.5074248427469
20
213.81545536541188
42
0.84150333228716634
10
-339.55204728076581
20
312.09896609728082
42
-0.84150333228716634
0
LWPOLYLINE
5
112
100
AcDbEntity
8
0
100
AcDbPolyline
90
2
70
1
43
0.0
10
-339.55204728076581
20
312.09896609728082
42
-0.84150333228716634
10
-346.5074248427469
20
213.81545536541188
42
0.84150333228716634
0
CIRCLE
5
113
100
AcDbEntity
8
0
100
AcDbCircle
10
-351.55204894969586
20
263.56032211183572
30
0
40
35
210
0
220
0
230
1
0
LWPOLYLINE
5
114
100
AcDbEntity
8
0
100
AcDbPolyline
90
2
70
1
43
0.0
10
-346.5074248427469
20
213.81545536541188
42
0.84150333228716634
10
-339.55204728076581
20
312.09896609728082
42
-0.84150333228716634
0
LWPOLYLINE
5
115
100
AcDbEntity
8
0
100
AcDbPolyline
90
2
70
1
43
0.0
10
-346.5074248427469
20
213.81545536541188
42
0.84150333228716634
10
-339.55204728076581
20
312.09896609728082
42
-0.84150333228716634
0
CIRCLE
5
116
100
AcDbEntity
8
0
100
AcDbCircle
10
-351.55204894969586
20
263.56032211183572
30
0
40
35
210
0
220
0
230
1
0
CIRCLE
5
117
100
AcDbEntity
8
0
100
AcDbCircle
10
-351.55204894969586
20
263.56032211183572
30
0
40
35
210
0
220
0
230
1
0
CIRCLE
5
118
100
AcDbEntity
8
0
100
AcDbCircle
10
-351.55204894969586
20
263.56032211183572
30
0
40
35
210
0
220
0
230
1
0
LINE
5
119
100
AcDbEntity
8
0
100
AcDbLine
10
-363.29123756528691
20
303.56032366365019
30
0
11
-363.41082478202281
21
312.1336629044838
31
0
0
LINE
5
120
100
AcDbEntity
8
0
100
AcDbLine
10
-345.35204728076576
20
303.56032240986008
30
0
11
-345.35204728076576
21
313.17443279927397
31
0
0
LINE
5
121
100
AcDbEntity
8
0
100
AcDbLine
10
-363.29123756528691
20
303.56032366365019
30
0
11
-363.41082478202281
21
312.1336629044838
31
0
0
LINE
5
122
100
AcDbEntity
8
0
100
AcDbLine
10
-345.35204728076576
20
303.56032240986008
30
0
11
-345.35204728076576
21
313.17443279927397
31
0
0
LINE
5
123
100
AcDbEntity
8
0
100
AcDbLine
10
-339.55204728076581
20
303.56032240986008
30
0
11
-339.55204728076581
21
312.09896609728082
31
0
0
LINE
5
124
100
AcDbEntity
8
0
100
AcDbLine
10
-348.67287030632713
20
304.54590152354018
30
0
11
-348.67287030632713
21
303.56032240986008
31
0
0
LINE
5
125
100
AcDbEntity
8
0
100
AcDbLine
10
-357.49123756528672
20
303.56032240986008
30
0
11
-357.49123756528672
21
313.20632938924473
31
0
0
LINE
5
126
100
AcDbEntity
8
0
100
AcDbLine
10
-339.55204728076581
20
303.56032240986008
30
0
11
-339.55204728076581
21
312.09896609728082
31
0
0
LWPOLYLINE
5
127
100
AcDbEntity
8
0
100
AcDbPolyline
90
2
70
1
43
0.0
10
-363.41082478202281
20
312.1336629044838
42
0.88018090972119722
10
-352.30742484274685
20
213.56602836484819
42
-0.88018090972119722
0
LINE
5
128
100
AcDbEntity
8
0
100
AcDbLine
10
-345.35204728076576
20
303.56032240986008
30
0
11
-345.35204728076576
21
313.17443279927397
31
0
0
LINE
5
129
100
AcDbEntity
8
0
100
AcDbLine
10
-357.49123756528672
20
303.56032240986008
30
0
11
-357.49123756528672
21
313.20632938924473
31
0
0
LINE
5
130
100
AcDbEntity
8
0
100
AcDbLine
10
-339.55204728076581
20
303.56032240986008
30
0
11
-339.55204728076581
21
312.09896609728082
31
0
0
LINE
5
131
100
AcDbEntity
8
0
100
AcDbLine
10
-354.22067083009068
20
304.5601495094362
30
0
11
-354.22067083009085
21
303.56032240986008
31
0
0
CIRCLE
5
132
100
AcDbEntity
8
0
100
AcDbCircle
10
-351.55204894969586
20
263.56032211183572
30
0
40
35
210
0
220
0
230
1
0
LINE
5
133
100
AcDbEntity
8
0
100
AcDbLine
10
-354.22067083009068
20
304.5601495094362
30
0
11
-354.22067083009085
21
303.56032240986008
31
0
0
LINE
5
134
100
AcDbEntity
8
0
100
AcDbLine
10
-357.49123756528672
20
303.56032240986008
30
0
11
-357.49123756528672
21
313.20632938924473
31
0
0
LINE
5
135
100
AcDbEntity
8
0
100
AcDbLine
10
-363.29123756528691
20
303.56032366365019
30
0
11
-363.41082478202281
21
312.1336629044838
31
0
0
LINE
5
136
100
AcDbEntity
8
0
100
AcDbLine
10
-345.35204728076576
20
303.56032240986008
30
0
11
-345.35204728076576
21
313.17443279927397
31
0
0
LINE
5
137
100
AcDbEntity
8
0
100
AcDbLine
10
-339.55204728076581
20
303.56032240986008
30
0
11
-339.55204728076581
21
312.09896609728082
31
0
0
LWPOLYLINE
5
138
100
AcDbEntity
8
0
100
AcDbPolyline
90
2
70
1
43
0.0
10
-345.35204728076576
20
313.17443279927397
42
0.016447927998848921
10
-348.6270077730195
20
313.47469012461198
42
-0.016447927998848921
0
LWPOLYLINE
5
139
100
AcDbEntity
8
0
100
AcDbPolyline
90
2
70
1
43
0.0
10
-345.35204728076576
20
313.17443279927397
42
0.016447927998848921
10
-348.6270077730195
20
313.47469012461198
42
-0.016447927998848921
0
LINE
5
140
100
AcDbEntity
8
0
100
AcDbLine
10
-348.67287030632713
20
304.54590152354018
30
0
11
-348.6497564566622
21
309.04584216184821
31
0
0
LINE
5
141
100
AcDbEntity
8
0
100
AcDbLine
10
-346.50742484274679
20
223.81545536541188
30
0
11
-352.30742484274685
21
223.81545536541188
31
0
0
LINE
5
142
100
AcDbEntity
8
0
100
AcDbLine
10
-352.30742484274685
20
223.81545536541188
30
0
11
-352.30742484274685
21
213.56602836484822
31
0
0
LINE
5
143
100
AcDbEntity
8
0
100
AcDbLine
10
-348.62664260699728
20
313.54578280052442
30
0
11
-348.67287030632713
21
304.54590152354018
31
0
0
LINE
5
144
100
AcDbEntity
8
0
100
AcDbLine
10
-354.22067083009068
20
313.5601495094362
30
0
11
-354.22067083009068
21
304.5601495094362
31
0
0
LINE
5
145
100
AcDbEntity
8
0
100
AcDbLine
10
-354.22067083009085
20
303.56032240986008
30
0
11
-348.67287030632713
21
303.56032240986008
31
0
0
LINE
5
146
100
AcDbEntity
8
0
100
AcDbLine
10
-346.5074248427469
20
213.81545536541188
30
0
11
-346.50742484274679
21
223.81545536541188
31
0
0
LINE
5
147
100
AcDbEntity
8
0
100
AcDbLine
10
-348.67287030632713
20
304.54590152354018
30
0
11
-348.6497564566622
21
309.04584216184821
31
0
0
LINE
5
148
100
AcDbEntity
8
0
100
AcDbLine
10
-354.22067083009085
20
303.56032240986008
30
0
11
-348.67287030632713
21
303.56032240986008
31
0
0
LWPOLYLINE
5
149
100
AcDbEntity
8
0
100
AcDbPolyline
90
2
70
1
43
0.0
10
-357.49123756528672
20
313.20632938924473
42
-0.016418245683249642
10
-354.22067083009068
20
313.48905589569597
42
0.016418245683243297
0
LINE
5
150
100
AcDbEntity
8
0
100
AcDbLine
10
-348.62664260699728
20
313.54578280052442
30
0
11
-348.67287030632713
21
304.54590152354018
31
0
0
LINE
5
151
100
AcDbEntity
8
0
100
AcDbLine
10
-348.67287030632713
20
304.54590152354018
30
0
11
-348.6497564566622
21
309.04584216184821
31
0
0
LWPOLYLINE
5
152
100
AcDbEntity
8
0
100
AcDbPolyline
90
2
70
1
43
0.0
10
-354.22067083009068
20
313.48905589569597
42
0.016418245683243297
10
-357.49123756528672
20
313.20632938924473
42
-0.016418245683249642
0
LINE
5
153
100
AcDbEntity
8
0
100
AcDbLine
10
-363.29123756528691
20
303.56032366365019
30
0
11
-357.49123756528672
21
303.56032240986008
31
0
0
LINE
5
154
100
AcDbEntity
8
0
100
AcDbLine
10
-339.55204728076581
20
303.56032240986008
30
0
11
-345.35204728076576
21
303.56032240986008
31
0
0
LINE
5
155
100
AcDbEntity
8
0
100
AcDbLine
10
-339.55204728076581
20
303.56032240986008
30
0
11
-345.35204728076576
21
303.56032240986008
31
0
0
LWPOLYLINE
5
156
100
AcDbEntity
8
0
100
AcDbPolyline
90
2
70
1
43
0.0
10
-348.6270077730195
20
313.47469012461198
42
-0.016447927998848921
10
-345.35204728076576
20
313.17443279927397
42
0.016447927998848921
0
LINE
5
157
100
AcDbEntity
8
0
100
AcDbLine
10
-346.50742484274679
20
223.81545536541188
30
0
11
-352.30742484274685
21
223.81545536541188
31
0
0
LINE
5
158
100
AcDbEntity
8
0
100
AcDbLine
10
-363.29123756528691
20
303.56032366365019
30
0
11
-357.49123756528672
21
303.56032240986008
31
0
0
LINE
5
159
100
AcDbEntity
8
0
100
AcDbLine
10
-346.5074248427469
20
213.81545536541188
30
0
11
-346.50742484274679
21
223.81545536541188
31
0
0
LINE
5
160
100
AcDbEntity
8
0
100
AcDbLine
10
-339.55204728076581
20
303.56032240986008
30
0
11
-345.35204728076576
21
303.56032240986008
31
0
0
LINE
5
161
100
AcDbEntity
8
0
100
AcDbLine
10
-339.55204728076581
20
303.56032240986008
30
0
11
-345.35204728076576
21
303.56032240986008
31
0
0
LINE
5
162
100
AcDbEntity
8
0
100
AcDbLine
10
-352.30742484274685
20
223.81545536541188
30
0
11
-352.30742484274685
21
213.56602836484822
31
0
0
LWPOLYLINE
5
163
100
AcDbEntity
8
0
100
AcDbPolyline
90
2
70
1
43
0.0
10
-348.6270077730195
20
313.47469012461198
42
-0.016447927998848921
10
-345.35204728076576
20
313.17443279927397
42
0.016447927998848921
0
LINE
5
164
100
AcDbEntity
8
0
100
AcDbLine
10
-348.62664260699728
20
313.54578280052442
30
0
11
-348.67287030632713
21
304.54590152354018
31
0
0
LINE
5
165
100
AcDbEntity
8
0
100
AcDbLine
10
-346.5074248427469
20
213.81545536541188
30
0
11
-346.50742484274679
21
223.81545536541188
31
0
0
LINE
5
166
100
AcDbEntity
8
0
100
AcDbLine
10
-346.5074248427469
20
213.81545536541188
30
0
11
-346.50742484274679
21
223.81545536541188
31
0
0
LINE
5
167
100
AcDbEntity
8
0
100
AcDbLine
10
-354.47287016702171
20
303.56159360554085
30
0
11
-348.67287030632713
21
303.56032240986008
31
0
0
LINE
5
168
100
AcDbEntity
8
0
100
AcDbLine
10
-346.50742484274679
20
223.81545536541188
30
0
11
-352.30742484274685
21
223.81545536541188
31
0
0
LINE
5
169
100
AcDbEntity
8
0
100
AcDbLine
10
-348.67287030632713
20
304.54590152354018
30
0
11
-348.6497564566622
21
309.04584216184821
31
0
0
LINE
5
170
100
AcDbEntity
8
0
100
AcDbLine
10
-348.62664260699728
20
313.54578280052442
30
0
11
-348.67287030632713
21
304.54590152354018
31
0
0
LINE
5
171
100
AcDbEntity
8
0
100
AcDbLine
10
-352.30742484274685
20
223.81545536541188
30
0
11
-352.30742484274685
21
213.56602836484822
31
0
0
LINE
5
172
100
AcDbEntity
8
0
100
AcDbLine
10
-352.30742484274685
20
223.81545536541188
30
0
11
-352.30742484274685
21
213.56602836484822
31
0
0
LINE
5
173
100
AcDbEntity
8
0
100
AcDbLine
10
-354.22067083009068
20
313.5601495094362
30
0
11
-354.22067083009068
21
304.5601495094362
31
0
0
LINE
5
174
100
AcDbEntity
8
0
100
AcDbLine
10
-363.29123756528691
20
303.56032366365019
30
0
11
-357.49123756528672
21
303.56032240986008
31
0
0
LINE
5
175
100
AcDbEntity
8
0
100
AcDbLine
10
-354.22067083009068
20
313.5601495094362
30
0
11
-354.22067083009068
21
304.5601495094362
31
0
0
LINE
5
176
100
AcDbEntity
8
0
100
AcDbLine
10
-354.22067083009085
20
303.56032240986008
30
0
11
-348.67287030632713
21
303.56032240986008
31
0
0
LWPOLYLINE
5
177
100
AcDbEntity
8
0
100
AcDbPolyline
90
2
70
1
43
0.0
10
-354.22067083009068
20
313.48905589569597
42
0.016418245683243297
10
-357.49123756528672
20
313.20632938924473
42
-0.016418245683249642
0
LWPOLYLINE
5
178
100
AcDbEntity
8
0
100
AcDbPolyline
90
2
70
1
43
0.0
10
-354.22067083009068
20
313.48905589569597
42
0.016418245683243297
10
-357.49123756528672
20
313.20632938924473
42
-0.016418245683249642
0
LINE
5
179
100
AcDbEntity
8
0
100
AcDbLine
10
-354.22067083009068
20
313.5601495094362
30
0
11
-354.22067083009068
21
304.46414333931375
31
0
0
LINE
5
180
100
AcDbEntity
8
0
100
AcDbLine
10
-363.29123756528691
20
303.56032366365019
30
0
11
-357.49123756528672
21
303.56032240986008
31
0
0
LINE
5
181
100
AcDbEntity
8
0
100
AcDbLine
10
-346.50742484274679
20
223.81545536541188
30
0
11
-352.30742484274685
21
223.81545536541188
31
0
0
LWPOLYLINE
5
182
100
AcDbEntity
8
0
100
AcDbPolyline
90
17
70
1
43
0.0
10
-209.98675080906634
20
172.14719527959318
10
-209.98675080906611
20
182.07592876542913
42
0.016418245683249642
10
-213.25731754426229
20
181.79320225897789
10
-213.25731754426229
20
172.14719527959318
10
-219.05731754426239
20
172.14719653338335
10
-219.17690476099835
20
180.7205357742169
42
0.88018090972119745
10
-208.07350482172237
20
82.152901234581378
10
-208.07350482172239
20
92.402328235145021
10
-202.27350482172233
20
92.402328235145021
10
-202.27350482172241
20
82.402328235145035
42
0.84150333228716545
10
-195.31812725974135
20
180.68583896701398
10
-195.31812725974135
20
172.14719527959318
10
-201.11812725974136
20
172.14719527959318
10
-201.11812725974136
20
181.7613056690071
42
0.016447927998848921
10
-204.39308775199507
20
182.06156299434511
10
-204.43895028530264
20
173.13277439327328
10
-204.43895028530264
20
172.14719527959318
0
LINE
5
183
100
AcDbEntity
8
0
100
AcDbLine
10
-219.05731754426239
20
172.14719653338335
30
0
11
-219.17690476099835
21
180.7205357742169
31
0
0
LINE
5
184
100
AcDbEntity
8
0
100
AcDbLine
10
-209.98675080906619
20
173.05101620904685
30
0
11
-210.23895014599719
21
172.14846647527395
31
0
0
LWPOLYLINE
5
185
100
AcDbEntity
8
0
100
AcDbPolyline
90
2
70
1
43
0.0
10
-219.17690476099835
20
180.7205357742169
42
0.88018090972119722
10
-208.07350482172239
20
82.152901234581336
42
-0.88018090972119745
0
LINE
5
186
100
AcDbEntity
8
0
100
AcDbLine
10
-209.98675080906619
20
173.14702237916933
30
0
11
-209.98675080906634
21
172.14719527959318
31
0
0
LINE
5
187
100
AcDbEntity
8
0
100
AcDbLine
10
-213.25731754426229
20
172.14719527959318
30
0
11
-213.25731754426229
21
181.79320225897789
31
0
0
LINE
5
188
100
AcDbEntity
8
0
100
AcDbLine
10
-204.43895028530264
20
173.13277439327328
30
0
11
-204.43895028530264
21
172.14719527959318
31
0
0
LWPOLYLINE
5
189
100
AcDbEntity
8
0
100
AcDbPolyline
90
2
70
1
43
0.0
10
-219.17690476099835
20
180.7205357742169
42
0.88018090972119722
10
-208.07350482172239
20
82.152901234581336
42
-0.88018090972119745
0
LINE
5
190
100
AcDbEntity
8
0
100
AcDbLine
10
-204.43895028530264
20
173.13277439327328
30
0
11
-204.43895028530264
21
172.14719527959318
31
0
0
LWPOLYLINE
5
191
100
AcDbEntity
8
0
100
AcDbPolyline
90
2
70
1
43
0.0
10
-219.17690476099835
20
180.7205357742169
42
0.88018090972119722
10
-208.07350482172239
20
82.152901234581336
42
-0.88018090972119745
0
LINE
5
192
100
AcDbEntity
8
0
100
AcDbLine
10
-204.43895028530264
20
173.13277439327328
30
0
11
-204.43895028530264
21
172.14719527959318
31
0
0
LWPOLYLINE
5
193
100
AcDbEntity
8
0
100
AcDbPolyline
90
2
70
1
43
0.0
10
-202.27350482172238
20
82.402328235145049
42
0.84150333228716623
10
-195.31812725974135
20
180.68583896701398
42
-0.84150333228716545
0
LWPOLYLINE
5
194
100
AcDbEntity
8
0
100
AcDbPolyline
90
2
70
1
43
0.0
10
-195.31812725974135
20
180.68583896701398
42
-0.84150333228716545
10
-202.27350482172238
20
82.402328235145049
42
0.84150333228716623
0
CIRCLE
5
195
100
AcDbEntity
8
0
100
AcDbCircle
10
-207.3181289286714
20
132.1471949815689
30
0
40
35
210
0
220
0
230
1
0
LWPOLYLINE
5
196
100
AcDbEntity
8
0
100
AcDbPolyline
90
2
70
1
43
0.0
10
-202.27350482172238
20
82.402328235145049
42
0.84150333228716623
10
-195.31812725974135
20
180.68583896701398
42
-0.84150333228716545
0
LWPOLYLINE
5
197
100
AcDbEntity
8
0
100
AcDbPolyline
90
2
70
1
43
0.0
10
-202.27350482172238
20
82.402328235145049
42
0.84150333228716623
10
-195.31812725974135
20
180.68583896701398
42
-0.84150333228716545
0
CIRCLE
5
198
100
AcDbEntity
8
0
100
AcDbCircle
10
-207.3181289286714
20
132.1471949815689
30
0
40
35
210
0
220
0
230
1
0
CIRCLE
5
199
100
AcDbEntity
8
0
100
AcDbCircle
10
-207.3181289286714
20
132.1471949815689
30
0
40
35
210
0
220
0
230
1
0
CIRCLE
5
200
100
AcDbEntity
8
0
100
AcDbCircle
10
-207.3181289286714
20
132.1471949815689
30
0
40
35
210
0
220
0
230
1
0
LINE
5
201
100
AcDbEntity
8
0
100
AcDbLine
10
-219.05731754426239
20
172.14719653338335
30
0
11
-219.17690476099835
21
180.7205357742169
31
0
0
LINE
5
202
100
AcDbEntity
8
0
100
AcDbLine
10
-201.11812725974136
20
172.14719527959318
30
0
11
-201.11812725974136
21
181.7613056690071
31
0
0
LINE
5
203
100
AcDbEntity
8
0
100
AcDbLine
10
-219.05731754426239
20
172.14719653338335
30
0
11
-219.17690476099835
21
180.7205357742169
31
0
0
LINE
5
204
100
AcDbEntity
8
0
100
AcDbLine
10
-201.11812725974136
20
172.14719527959318
30
0
11
-201.11812725974136
21
181.7613056690071
31
0
0
LINE
5
205
100
AcDbEntity
8
0
100
AcDbLine
10
-195.31812725974135
20
172.14719527959318
30
0
11
-195.31812725974135
21
180.68583896701398
31
0
0
LINE
5
206
100
AcDbEntity
8
0
100
AcDbLine
10
-204.43895028530264
20
173.13277439327328
30
0
11
-204.43895028530264
21
172.14719527959318
31
0
0
LINE
5
207
100
AcDbEntity
8
0
100
AcDbLine
10
-213.25731754426229
20
172.14719527959318
30
0
11
-213.25731754426229
21
181.79320225897789
31
0
0
LINE
5
208
100
AcDbEntity
8
0
100
AcDbLine
10
-195.31812725974135
20
172.14719527959318
30
0
11
-195.31812725974135
21
180.68583896701398
31
0
0
LWPOLYLINE
5
209
100
AcDbEntity
8
0
100
AcDbPolyline
90
2
70
1
43
0.0
10
-219.17690476099835
20
180.7205357742169
42
0.88018090972119722
10
-208.07350482172239
20
82.152901234581336
42
-0.88018090972119745
0
LINE
5
210
100
AcDbEntity
8
0
100
AcDbLine
10
-201.11812725974136
20
172.14719527959318
30
0
11
-201.11812725974136
21
181.7613056690071
31
0
0
LINE
5
211
100
AcDbEntity
8
0
100
AcDbLine
10
-213.25731754426229
20
172.14719527959318
30
0
11
-213.25731754426229
21
181.79320225897789
31
0
0
LINE
5
212
100
AcDbEntity
8
0
100
AcDbLine
10
-195.31812725974135
20
172.14719527959318
30
0
11
-195.31812725974135
21
180.68583896701398
31
0
0
LINE
5
213
100
AcDbEntity
8
0
100
AcDbLine
10
-209.98675080906619
20
173.14702237916933
30
0
11
-209.98675080906634
21
172.14719527959318
31
0
0
CIRCLE
5
214
100
AcDbEntity
8
0
100
AcDbCircle
10
-207.3181289286714
20
132.1471949815689
30
0
40
35
210
0
220
0
230
1
0
LINE
5
215
100
AcDbEntity
8
0
100
AcDbLine
10
-209.98675080906619
20
173.14702237916933
30
0
11
-209.98675080906634
21
172.14719527959318
31
0
0
LINE
5
216
100
AcDbEntity
8
0
100
AcDbLine
10
-213.25731754426229
20
172.14719527959318
30
0
11
-213.25731754426229
21
181.79320225897789
31
0
0
LINE
5
217
100
AcDbEntity
8
0
100
AcDbLine
10
-219.05731754426239
20
172.14719653338335
30
0
11
-219.17690476099835
21
180.7205357742169
31
0
0
LINE
5
218
100
AcDbEntity
8
0
100
AcDbLine
10
-201.11812725974136
20
172.14719527959318
30
0
11
-201.11812725974136
21
181.7613056690071
31
0
0
LINE
5
219
100
AcDbEntity
8
0
100
AcDbLine
10
-195.31812725974135
20
172.14719527959318
30
0
11
-195.31812725974135
21
180.68583896701398
31
0
0
LWPOLYLINE
5
220
100
AcDbEntity
8
0
100
AcDbPolyline
90
2
70
1
43
0.0
10
-201.11812725974136
20
181.7613056690071
42
0.016447927998848921
10
-204.39308775199507
20
182.06156299434511
42
-0.016447927998848921
0
LWPOLYLINE
5
221
100
AcDbEntity
8
0
100
AcDbPolyline
90
2
70
1
43
0.0
10
-201.11812725974136
20
181.7613056690071
42
0.016447927998848921
10
-204.39308775199507
20
182.06156299434511
42
-0.016447927998848921
0
LINE
5
222
100
AcDbEntity
8
0
100
AcDbLine
10
-204.43895028530264
20
173.13277439327328
30
0
11
-204.41583643563774
21
177.63271503158137
31
0
0
LINE
5
223
100
AcDbEntity
8
0
100
AcDbLine
10
-202.27350482172233
20
92.402328235145021
30
0
11
-208.07350482172239
21
92.402328235145021
31
0
0
LINE
5
224
100
AcDbEntity
8
0
100
AcDbLine
10
-208.07350482172239
20
92.402328235145021
30
0
11
-208.07350482172237
21
82.152901234581378
31
0
0
LINE
5
225
100
AcDbEntity
8
0
100
AcDbLine
10
-204.39272258597285
20
182.13265567025758
30
0
11
-204.43895028530264
21
173.13277439327328
31
0
0
LINE
5
226
100
AcDbEntity
8
0
100
AcDbLine
10
-209.98675080906619
20
182.14702237916939
30
0
11
-209.98675080906619
21
173.14702237916933
31
0
0
LINE
5
227
100
AcDbEntity
8
0
100
AcDbLine
10
-209.98675080906634
20
172.14719527959318
30
0
11
-204.43895028530264
21
172.14719527959318
31
0
0
LINE
5
228
100
AcDbEntity
8
0
100
AcDbLine
10
-202.27350482172238
20
82.402328235145049
30
0
11
-202.27350482172233
21
92.402328235145021
31
0
0
LINE
5
229
100
AcDbEntity
8
0
100
AcDbLine
10
-204.43895028530264
20
173.13277439327328
30
0
11
-204.41583643563774
21
177.63271503158137
31
0
0
LINE
5
230
100
AcDbEntity
8
0
100
AcDbLine
10
-209.98675080906634
20
172.14719527959318
30
0
11
-204.43895028530264
21
172.14719527959318
31
0
0
LWPOLYLINE
5
231
100
AcDbEntity
8
0
100
AcDbPolyline
90
2
70
1
43
0.0
10
-213.25731754426229
20
181.79320225897789
42
-0.016418245683249219
10
-209.98675080906619
20
182.07592876542913
42
0.01641824568324372
0
LINE
5
232
100
AcDbEntity
8
0
100
AcDbLine
10
-204.39272258597285
20
182.13265567025758
30
0
11
-204.43895028530264
21
173.13277439327328
31
0
0
LINE
5
233
100
AcDbEntity
8
0
100
AcDbLine
10
-204.43895028530264
20
173.13277439327328
30
0
11
-204.41583643563774
21
177.63271503158137
31
0
0
LWPOLYLINE
5
234
100
AcDbEntity
8
0
100
AcDbPolyline
90
2
70
1
43
0.0
10
-209.98675080906619
20
182.07592876542913
42
0.01641824568324372
10
-213.25731754426229
20
181.79320225897789
42
-0.016418245683249219
0
LINE
5
235
100
AcDbEntity
8
0
100
AcDbLine
10
-219.05731754426239
20
172.14719653338335
30
0
11
-213.25731754426229
21
172.14719527959318
31
0
0
LINE
5
236
100
AcDbEntity
8
0
100
AcDbLine
10
-195.31812725974135
20
172.14719527959318
30
0
11
-201.11812725974136
21
172.14719527959318
31
0
0
LINE
5
237
100
AcDbEntity
8
0
100
AcDbLine
10
-195.31812725974135
20
172.14719527959318
30
0
11
-201.11812725974136
21
172.14719527959318
31
0
0
LWPOLYLINE
5
238
100
AcDbEntity
8
0
100
AcDbPolyline
90
2
70
1
43
0.0
10
-204.39308775199507
20
182.06156299434511
42
-0.016447927998848921
10
-201.11812725974136
20
181.7613056690071
42
0.016447927998848921
0
LINE
5
239
100
AcDbEntity
8
0
100
AcDbLine
10
-202.27350482172233
20
92.402328235145021
30
0
11
-208.07350482172239
21
92.402328235145021
31
0
0
LINE
5
240
100
AcDbEntity
8
0
100
AcDbLine
10
-219.05731754426239
20
172.14719653338335
30
0
11
-213.25731754426229
21
172.14719527959318
31
0
0
LINE
5
241
100
AcDbEntity
8
0
100
AcDbLine
10
-202.27350482172238
20
82.402328235145049
30
0
11
-202.27350482172233
21
92.402328235145021
31
0
0
LINE
5
242
100
AcDbEntity
8
0
100
AcDbLine
10
-195.31812725974135
20
172.14719527959318
30
0
11
-201.11812725974136
21
172.14719527959318
31
0
0
LINE
5
243
100
AcDbEntity
8
0
100
AcDbLine
10
-195.31812725974135
20
172.14719527959318
30
0
11
-201.11812725974136
21
172.14719527959318
31
0
0
LINE
5
244
100
AcDbEntity
8
0
100
AcDbLine
10
-208.07350482172239
20
92.402328235145021
30
0
11
-208.07350482172237
21
82.152901234581378
31
0
0
LWPOLYLINE
5
245
100
AcDbEntity
8
0
100
AcDbPolyline
90
2
70
1
43
0.0
10
-204.39308775199507
20
182.06156299434511
42
-0.016447927998848921
10
-201.11812725974136
20
181.7613056690071
42
0.016447927998848921
0
LINE
5
246
100
AcDbEntity
8
0
100
AcDbLine
10
-204.39272258597285
20
182.13265567025758
30
0
11
-204.43895028530264
21
173.13277439327328
31
0
0
LINE
5
247
100
AcDbEntity
8
0
100
AcDbLine
10
-202.27350482172238
20
82.402328235145049
30
0
11
-202.27350482172233
21
92.402328235145021
31
0
0
LINE
5
248
100
AcDbEntity
8
0
100
AcDbLine
10
-202.27350482172238
20
82.402328235145049
30
0
11
-202.27350482172233
21
92.402328235145021
31
0
0
LINE
5
249
100
AcDbEntity
8
0
100
AcDbLine
10
-210.23895014599719
20
172.14846647527395
30
0
11
-204.43895028530264
21
172.14719527959318
31
0
0
LINE
5
250
100
AcDbEntity
8
0
100
AcDbLine
10
-202.27350482172233
20
92.402328235145021
30
0
11
-208.07350482172239
21
92.402328235145021
31
0
0
LINE
5
251
100
AcDbEntity
8
0
100
AcDbLine
10
-204.43895028530264
20
173.13277439327328
30
0
11
-204.41583643563774
21
177.63271503158137
31
0
0
LINE
5
252
100
AcDbEntity
8
0
100
AcDbLine
10
-204.39272258597285
20
182.13265567025758
30
0
11
-204.43895028530264
21
173.13277439327328
31
0
0
LINE
5
253
100
AcDbEntity
8
0
100
AcDbLine
10
-208.07350482172239
20
92.402328235145021
30
0
11
-208.07350482172237
21
82.152901234581378
31
0
0
LINE
5
254
100
AcDbEntity
8
0
100
AcDbLine
10
-208.07350482172239
20
92.402328235145021
30
0
11
-208.07350482172237
21
82.152901234581378
31
0
0
LINE
5
255
100
AcDbEntity
8
0
100
AcDbLine
10
-209.98675080906619
20
182.14702237916939
30
0
11
-209.98675080906619
21
173.14702237916933
31
0
0
LINE
5
256
100
AcDbEntity
8
0
100
AcDbLine
10
-219.05731754426239
20
172.14719653338335
30
0
11
-213.25731754426229
21
172.14719527959318
31
0
0
LINE
5
257
100
AcDbEntity
8
0
100
AcDbLine
10
-209.98675080906619
20
182.14702237916939
30
0
11
-209.98675080906619
21
173.14702237916933
31
0
0
LINE
5
258
100
AcDbEntity
8
0
100
AcDbLine
10
-209.98675080906634
20
172.14719527959318
30
0
11
-204.43895028530264
21
172.14719527959318
31
0
0
LWPOLYLINE
5
259
100
AcDbEntity
8
0
100
AcDbPolyline
90
2
70
1
43
0.0
10
-209.98675080906619
20
182.07592876542913
42
0.01641824568324372
10
-213.25731754426229
20
181.79320225897789
42
-0.016418245683249219
0
LWPOLYLINE
5
260
100
AcDbEntity
8
0
100
AcDbPolyline
90
2
70
1
43
0.0
10
-209.98675080906619
20
182.07592876542913
42
0.01641824568324372
10
-213.25731754426229
20
181.79320225897789
42
-0.016418245683249219
0
LINE
5
261
100
AcDbEntity
8
0
100
AcDbLine
10
-209.98675080906619
20
182.14702237916939
30
0
11
-209.98675080906619
21
173.05101620904685
31
0
0
LINE
5
262
100
AcDbEntity
8
0
100
AcDbLine
10
-219.05731754426239
20
172.14719653338335
30
0
11
-213.25731754426229
21
172.14719527959318
31
0
0
LINE
5
263
100
AcDbEntity
8
0
100
AcDbLine
10
-202.27350482172233
20
92.402328235145021
30
0
11
-208.07350482172239
21
92.402328235145021
31
0
0
ENDSEC
0
SECTION
2
OBJECTS
0
DICTIONARY
5
C
100
AcDbDictionary
3
ACAD_GROUP
350
D
3
ACAD_MLINESTYLE
350
17
0
DICTIONARY
5
D
100
AcDbDictionary
0
DICTIONARY
5
1A
330
C
100
AcDbDictionary
0
DICTIONARY
5
17
100
AcDbDictionary
0
ENDSEC
0
EOF
