0
SECTION
2
HEADER
9
$INSUNITS
70
4
9
$ACADVER
1
AC1014
9
$HANDSEED
5
FFFF
0
ENDSEC
0
SECTION
2
TABLES
0
TABLE
2
VPORT
5
8
100
AcDbSymbolTable
0
ENDTAB
0
TABLE
2
LTYPE
5
5
100
AcDbSymbolTable
0
LTYPE
5
14
100
AcDbSymbolTableRecord
100
AcDbLinetypeTableRecord
2
BYBLOCK
70
0
0
LTYPE
5
15
100
AcDbSymbolTableRecord
100
AcDbLinetypeTableRecord
2
BYLAYER
70
0
0
LTYPE
5
16
100
AcDbSymbolTableRecord
100
AcDbLinetypeTableRecord
2
DASHED
70
0
3
Dashed __ __ __ __ __ __ __ __ __ __ __ __ __ _
72
65
73
2
40
0.75
49
0.5
74
0
49
-0.25
74
0
0
ENDTAB
0
TABLE
2
LAYER
5
2
100
AcDbSymbolTable
70
3
0
LAYER
5
50
100
AcDbSymbolTableRecord
100
AcDbLayerTableRecord
2
1
70
0
62
7
6
DASHED
0
LAYER
5
51
100
AcDbSymbolTableRecord
100
AcDbLayerTableRecord
2
0
70
0
62
7
6
CONTINUOUS
0
ENDTAB
0
TABLE
2
STYLE
5
3
100
AcDbSymbolTable
70
1
0
STYLE
5
11
100
AcDbSymbolTableRecord
100
AcDbTextStyleTableRecord
2
STANDARD
70
0
0
ENDTAB
0
TABLE
2
VIEW
5
6
100
AcDbSymbolTable
70
0
0
ENDTAB
0
TABLE
2
UCS
5
7
100
AcDbSymbolTable
70
0
0
ENDTAB
0
TABLE
2
APPID
5
9
100
AcDbSymbolTable
70
2
0
APPID
5
12
100
AcDbSymbolTableRecord
100
AcDbRegAppTableRecord
2
ACAD
70
0
0
ENDTAB
0
TABLE
2
DIMSTYLE
5
A
100
AcDbSymbolTable
70
1
0
ENDTAB
0
TABLE
2
BLOCK_RECORD
5
1
100
AcDbSymbolTable
70
1
0
BLOCK_RECORD
5
1F
100
AcDbSymbolTableRecord
100
AcDbBlockTableRecord
2
*MODEL_SPACE
0
BLOCK_RECORD
5
1B
100
AcDbSymbolTableRecord
100
AcDbBlockTableRecord
2
*PAPER_SPACE
0
ENDTAB
0
ENDSEC
0
SECTION
2
BLOCKS
0
BLOCK
5
20
100
AcDbEntity
100
AcDbBlockBegin
2
*MODEL_SPACE
0
ENDBLK
5
21
100
AcDbEntity
100
AcDbBlockEnd
0
BLOCK
5
1C
100
AcDbEntity
100
AcDbBlockBegin
2
*PAPER_SPACE
0
ENDBLK
5
1D
100
AcDbEntity
100
AcDbBlockEnd
0
ENDSEC
0
SECTION
2
ENTITIES
0
POINT
5
100
100
AcDbEntity
8
0
100
AcDbPoint
10
-78.314262960110668
20
-70.109911602384784
30
0
0
POINT
5
101
100
AcDbEntity
8
0
100
AcDbPoint
10
-203.31426296011074
20
-70.109911602384784
30
0
0
POINT
5
102
100
AcDbEntity
8
0
100
AcDbPoint
10
-308.5627201864441
20
-473.73452922742354
30
0
0
POINT
5
103
100
AcDbEntity
8
0
100
AcDbPoint
10
-202.05205166471427
20
-94.953423186696369
30
0
0
POINT
5
104
100
AcDbEntity
8
0
100
AcDbPoint
10
-538.30818566263997
20
-549.35880560667147
30
0
0
LWPOLYLINE
5
105
100
AcDbEntity
8
0
100
AcDbPolyline
90
16
70
1
43
0.0
10
-77.144762960110683
20
-50.109911602384791
10
-77.144762960110683
20
-65.109911602384784
10
-71.444762960110651
20
-65.109911602384784
10
-71.444762960110651
20
-50.109911602384791
10
-63.314262960110675
20
-50.109911602384791
10
-63.314262960110675
20
-80.109911602384784
10
-103.31426296011068
20
-80.109911602384784
10
-103.31426296011068
20
-50.109911602384791
10
-95.183762960110684
20
-50.109911602384791
10
-95.183762960110684
20
-65.109911602384784
10
-89.483762960110681
20
-65.109911602384784
10
-89.483762960110681
20
-50.109911602384791
10
-86.144762960110683
20
-50.109911602384791
10
-86.144762960110683
20
-65.109911602384784
10
-80.44476296011068
20
-65.109911602384784
10
-80.44476296011068
20
-50.109911602384791
0
LWPOLYLINE
5
106
100
AcDbEntity
8
0
100
AcDbPolyline
90
16
70
1
43
0.0
10
-196.44476296011072
20
-50.109911602384791
10
-188.31426296011071
20
-50.109911602384791
10
-188.31426296011071
20
-80.109911602384784
10
-228.31426296011074
20
-80.109911602384784
10
-228.31426296011074
20
-50.109911602384791
10
-220.1837629601107
20
-50.109911602384791
10
-220.1837629601107
20
-65.109911602384784
10
-214.48376296011074
20
-65.109911602384784
10
-214.48376296011074
20
-50.109911602384791
10
-211.14476296011063
20
-50.109911602384791
10
-211.14476296011063
20
-65.109911602384784
10
-205.44476296011069
20
-65.109911602384784
10
-205.44476296011069
20
-50.109911602384791
10
-202.14476296011071
20
-50.109911602384791
10
-202.14476296011071
20
-65.109911602384784
10
-196.44476296011072
20
-65.109911602384784
0
LWPOLYLINE
5
107
100
AcDbEntity
8
0
100
AcDbPolyline
90
26
70
1
43
0.0
10
-288.51349756785817
20
-339.33035083138475
10
-265.31349913248016
20
-339.33035113881931
10
-265.31349913248016
20
-324.33035113881931
10
-259.51349913248015
20
-324.33035113881931
10
-259.51349913248015
20
-339.33035113881931
10
-249.31349913248013
20
-339.33035113881931
10
-249.31349913248022
20
-309.33035113881925
10
-437.31349913248005
20
-309.33035113881937
10
-437.31349913247993
20
-339.33035151631543
10
-427.11349913248006
20
-339.33035113126942
10
-427.11349913248006
20
-324.33035113881931
10
-421.3134991324801
20
-324.33035113881931
10
-421.31349913248005
20
-339.33035113881931
10
-386.23010969986285
20
-339.33035100884752
10
-386.23010969986285
20
-329.7108783178827
10
-380.43010969986284
20
-329.7108783178827
10
-380.43010969986284
20
-330.92160603051923
10
-380.43010969986284
20
-339.33035084079609
10
-370.43010969986284
20
-339.33035084079609
10
-370.43010969986284
20
-319.33035084079609
10
-304.31349756785812
20
-319.33035084079609
10
-304.31349756785812
20
-339.33035084079609
10
-294.31349756785812
20
-339.33035084079609
10
-294.31349756785812
20
-329.5809794407387
10
-288.51349756785811
20
-329.5809794407387
10
-288.51349756785811
20
-330.79170715337523
0
LINE
5
108
100
AcDbEntity
8
0
100
AcDbLine
10
-304.31349756785812
20
-339.33035084079609
30
0
11
-294.31349756785812
21
-339.33035084079609
31
0
0
LWPOLYLINE
5
109
100
AcDbEntity
8
0
100
AcDbPolyline
90
26
70
1
43
0.0
10
-571.60854403329654
20
-347.25330066032075
10
-571.60854403329654
20
-348.46402837295727
10
-571.60854403329654
20
-356.87277318323413
10
-561.60854403329654
20
-356.87277318323413
10
-561.60854403329665
20
-336.87277318323419
10
-495.49193190129199
20
-336.87277318323419
10
-495.49193190129199
20
-356.87277318323402
10
-485.49193190129211
20
-356.87277318323402
10
-485.49193190129211
20
-347.12340178317675
10
-479.69193190129204
20
-347.12340178317675
10
-479.69193190129204
20
-348.33412949581327
10
-479.69193190129209
20
-356.87277317382279
10
-456.49193346591409
20
-356.87277348125724
10
-456.49193346591409
20
-341.87277348125735
10
-450.69193346591413
20
-341.87277348125735
10
-450.69193346591413
20
-356.87277348125724
10
-440.49193346591414
20
-356.87277348125718
10
-440.49193346591426
20
-326.87277348125735
10
-628.49193346591369
20
-326.87277348125747
10
-628.49193346591346
20
-356.87277385875348
10
-618.29193346591364
20
-356.87277347370747
10
-618.29193346591364
20
-341.87277348125741
10
-612.49193346591369
20
-341.87277348125741
10
-612.49193346591369
20
-356.87277348125735
10
-577.40854403329649
20
-356.87277335128556
10
-577.40854403329649
20
-347.25330066032075
0
LINE
5
110
100
AcDbEntity
8
0
100
AcDbLine
10
-561.60854403329654
20
-356.87277318323413
30
0
11
-571.60854403329654
21
-356.87277318323413
31
0
0
LINE
5
111
100
AcDbEntity
8
0
100
AcDbLine
10
-380.43010969986284
20
-339.33035084079609
30
0
11
-370.43010969986284
21
-339.33035084079609
31
0
0
LINE
5
112
100
AcDbEntity
8
0
100
AcDbLine
10
-259.51349913248015
20
-339.33035113881931
30
0
11
-249.31349913248013
21
-339.33035113881931
31
0
0
LINE
5
113
100
AcDbEntity
8
0
100
AcDbLine
10
-495.49193190129199
20
-356.87277318323402
30
0
11
-485.49193190129211
21
-356.87277318323402
31
0
0
LINE
5
114
100
AcDbEntity
8
0
100
AcDbLine
10
-450.69193346591413
20
-356.87277348125724
30
0
11
-440.49193346591414
21
-356.87277348125718
31
0
0
LINE
5
115
100
AcDbEntity
8
0
100
AcDbLine
10
-50.94034023316874
20
-482.03155896404485
30
0
11
-50.94034023316874
21
-476.23155896404484
31
0
0
LWPOLYLINE
5
116
100
AcDbEntity
8
0
100
AcDbPolyline
90
2
70
1
43
0.0
10
14.224566967269894
20
-502.86829552762993
10
14.224566965818362
20
-472.45432047780184
0
SPLINE
5
117
100
AcDbEntity
8
0
100
AcDbSpline
70
4
71
5
72
21
73
15
74
0
42
0.000000001
43
0.0000000001
44
0.0000000001
40
0
40
0
40
0
40
0
40
0
40
0
40
0.10000000000000001
40
0.20000000000000001
40
0.30000000000000004
40
0.40000000000000002
40
0.5
40
0.59999999999999998
40
0.69999999999999996
40
0.80000000000000004
40
0.8999999999999998
40
1
40
1
40
1
40
1
40
1
40
1
41
1
41
1
41
1
41
1
41
1
41
1
41
1
41
1
41
1
41
1
41
1
41
1
41
1
41
1
41
1
10
44.059659766831189
20
-526.90908301857689
30
0
10
42.549452667128961
20
-529.43394932370347
30
0
10
39.616415403556559
20
-534.1731458707161
30
0
10
35.478998251067338
20
-540.3503289648911
30
0
10
30.493768584699747
20
-546.72411696144059
30
0
10
25.194604357017045
20
-551.56052286278339
30
0
10
20.884194392748601
20
-553.22490574753499
30
0
10
17.605142037293167
20
-551.69623772946136
30
0
10
15.332244611654584
20
-547.09170245866142
30
0
10
13.960921453163326
20
-539.68943271487467
30
0
10
13.367565085670883
20
-529.78355880212439
30
0
10
13.422772812257602
20
-520.05773319828177
30
0
10
13.72564871047949
20
-511.82260895177905
30
0
10
14.039589064232878
20
-505.92156455339904
30
0
10
14.224566967269894
20
-502.86829552762993
30
0
0
LWPOLYLINE
5
118
100
AcDbEntity
8
0
100
AcDbPolyline
90
2
70
1
43
0.0
10
44.059659766831189
20
-339.55403490951284
10
59.086490278458839
20
-391.62946533108448
0
SPLINE
5
119
100
AcDbEntity
8
0
100
AcDbSpline
70
4
71
5
72
21
73
15
74
0
42
0.000000001
43
0.0000000001
44
0.0000000001
40
0
40
0
40
0
40
0
40
0
40
0
40
0.10000000000000001
40
0.20000000000000001
40
0.30000000000000004
40
0.40000000000000002
40
0.5
40
0.59999999999999998
40
0.69999999999999996
40
0.80000000000000004
40
0.8999999999999998
40
1
40
1
40
1
40
1
40
1
40
1
41
1
41
1
41
1
41
1
41
1
41
1
41
1
41
1
41
1
41
1
41
1
41
1
41
1
41
1
41
1
10
44.059659766831189
20
-526.90908301857689
30
0
10
42.549452667128961
20
-529.43394932370347
30
0
10
39.616415403556559
20
-534.1731458707161
30
0
10
35.478998251067338
20
-540.3503289648911
30
0
10
30.493768584699747
20
-546.72411696144059
30
0
10
25.194604357017045
20
-551.56052286278339
30
0
10
20.884194392748601
20
-553.22490574753499
30
0
10
17.605142037293167
20
-551.69623772946136
30
0
10
15.332244611654584
20
-547.09170245866142
30
0
10
13.960921453163326
20
-539.68943271487467
30
0
10
13.367565085670883
20
-529.78355880212439
30
0
10
13.422772812257602
20
-520.05773319828177
30
0
10
13.72564871047949
20
-511.82260895177905
30
0
10
14.039589064232878
20
-505.92156455339904
30
0
10
14.224566967269894
20
-502.86829552762993
30
0
0
ARC
5
120
100
AcDbEntity
8
0
100
AcDbCircle
10
79.82048285124533
20
-433.23155896404489
30
0
40
46.482605807484205
210
0
220
0
230
1
100
AcDbArc
50
0
51
116.49112409780757
0
ARC
5
121
100
AcDbEntity
8
0
100
AcDbCircle
10
79.82048285124533
20
-433.23155896404489
30
0
40
46.482605807484262
210
0
220
0
230
1
100
AcDbArc
50
-116.49112409780761
51
0
0
LINE
5
122
100
AcDbEntity
8
0
100
AcDbLine
10
-60.940340233168733
20
-482.03155896404485
30
0
11
-50.94034023316874
21
-482.03155896404485
31
0
0
SPLINE
5
123
100
AcDbEntity
8
0
100
AcDbSpline
70
4
71
5
72
21
73
15
74
0
42
0.000000001
43
0.0000000001
44
0.0000000001
40
0
40
0
40
0
40
0
40
0
40
0
40
0.10000000000000001
40
0.20000000000000001
40
0.30000000000000004
40
0.40000000000000002
40
0.5
40
0.59999999999999998
40
0.69999999999999996
40
0.80000000000000004
40
0.8999999999999998
40
1
40
1
40
1
40
1
40
1
40
1
41
1
41
1
41
1
41
1
41
1
41
1
41
1
41
1
41
1
41
1
41
1
41
1
41
1
41
1
41
1
10
44.059659766831189
20
-339.55403490951284
30
0
10
42.549452667128961
20
-337.0291686043862
30
0
10
39.616415403556559
20
-332.28997205737363
30
0
10
35.478998251067338
20
-326.11278896319857
30
0
10
30.493768584699747
20
-319.73900096664926
30
0
10
25.194604357017045
20
-314.90259506530634
30
0
10
20.884194392748601
20
-313.23821218055474
30
0
10
17.605142037293167
20
-314.76688019862843
30
0
10
15.332244611654584
20
-319.37141546942837
30
0
10
13.960921453163326
20
-326.77368521321506
30
0
10
13.367565085670883
20
-336.67955912596534
30
0
10
13.422772812257602
20
-346.40538472980802
30
0
10
13.72564871047949
20
-354.64050897631074
30
0
10
14.039589064232878
20
-360.54155337469075
30
0
10
14.224566967269894
20
-363.59482240045986
30
0
0
SPLINE
5
124
100
AcDbEntity
8
0
100
AcDbSpline
70
4
71
5
72
21
73
15
74
0
42
0.000000001
43
0.0000000001
44
0.0000000001
40
0
40
0
40
0
40
0
40
0
40
0
40
0.10000000000000001
40
0.20000000000000001
40
0.30000000000000004
40
0.40000000000000002
40
0.5
40
0.59999999999999998
40
0.69999999999999996
40
0.80000000000000004
40
0.8999999999999998
40
1
40
1
40
1
40
1
40
1
40
1
41
1
41
1
41
1
41
1
41
1
41
1
41
1
41
1
41
1
41
1
41
1
41
1
41
1
41
1
41
1
10
44.059659766831189
20
-339.55403490951284
30
0
10
42.549452667128961
20
-337.0291686043862
30
0
10
39.616415403556559
20
-332.28997205737363
30
0
10
35.478998251067338
20
-326.11278896319857
30
0
10
30.493768584699747
20
-319.73900096664926
30
0
10
25.194604357017045
20
-314.90259506530634
30
0
10
20.884194392748601
20
-313.23821218055474
30
0
10
17.605142037293167
20
-314.76688019862843
30
0
10
15.332244611654584
20
-319.37141546942837
30
0
10
13.960921453163326
20
-326.77368521321506
30
0
10
13.367565085670883
20
-336.67955912596534
30
0
10
13.422772812257602
20
-346.40538472980802
30
0
10
13.72564871047949
20
-354.64050897631074
30
0
10
14.039589064232878
20
-360.54155337469075
30
0
10
14.224566967269894
20
-363.59482240045986
30
0
0
LWPOLYLINE
5
125
100
AcDbEntity
8
0
100
AcDbPolyline
90
2
70
1
43
0.0
10
14.224566965818362
20
-394.00879745028789
10
14.224566967269894
20
-363.59482240045986
0
LINE
5
126
100
AcDbEntity
8
0
100
AcDbLine
10
-60.940340233168733
20
-501.90908301857695
30
0
11
-60.940340233168733
21
-482.03155896404485
31
0
0
LINE
5
127
100
AcDbEntity
8
0
100
AcDbLine
10
14.224566965818362
20
-472.45432047780184
30
0
11
-60.940340233168733
21
-501.90908301857695
31
0
0
LINE
5
128
100
AcDbEntity
8
0
100
AcDbLine
10
-60.940340233168733
20
-364.55403490951278
30
0
11
-60.940340233168733
21
-384.43155896404494
31
0
0
LINE
5
129
100
AcDbEntity
8
0
100
AcDbLine
10
-50.94034023316874
20
-390.23155896404489
30
0
11
-60.940340233168733
21
-390.23155896404489
31
0
0
LINE
5
130
100
AcDbEntity
8
0
100
AcDbLine
10
-50.94034023316874
20
-384.43155896404494
30
0
11
-50.94034023316874
21
-390.23155896404489
31
0
0
LINE
5
131
100
AcDbEntity
8
0
100
AcDbLine
10
-60.940340233168733
20
-390.23155896404489
30
0
11
-60.940340233168733
21
-433.23155896404489
31
0
0
LINE
5
132
100
AcDbEntity
8
0
100
AcDbLine
10
-60.940340233168733
20
-384.43155896404494
30
0
11
-50.94034023316874
21
-384.43155896404494
31
0
0
LINE
5
133
100
AcDbEntity
8
0
100
AcDbLine
10
-60.940340233168733
20
-476.23155896404484
30
0
11
-60.940340233168733
21
-433.23155896404489
31
0
0
LWPOLYLINE
5
134
100
AcDbEntity
8
0
100
AcDbPolyline
90
2
70
1
43
0.0
10
59.086490278458839
20
-474.83365259700525
10
44.059659766831189
20
-526.90908301857689
0
LINE
5
135
100
AcDbEntity
8
0
100
AcDbLine
10
-50.94034023316874
20
-476.23155896404484
30
0
11
-60.940340233168733
21
-476.23155896404484
31
0
0
LINE
5
136
100
AcDbEntity
8
0
100
AcDbLine
10
14.224566965818362
20
-394.00879745028789
30
0
11
-60.940340233168733
21
-364.55403490951278
31
0
0
LWPOLYLINE
5
137
100
AcDbEntity
8
0
100
AcDbPolyline
90
24
70
1
43
0.0
10
-141.96442228650153
20
-462.25237265194164
10
-118.56442385112346
20
-462.25237296202647
10
-118.56442385112346
20
-447.2523729593762
10
-112.76442385112347
20
-447.2523729593762
10
-112.76442385112347
20
-462.2523729593762
10
-102.76442385112347
20
-462.25237295937603
10
-102.7644238511235
20
-432.25237295937603
10
-290.76442385112352
20
-432.2523729593762
10
-290.76442385112341
20
-462.25237333687221
10
-280.56442385112354
20
-462.25237295182615
10
-280.56442385112354
20
-447.2523729593762
10
-274.76442385112358
20
-447.2523729593762
10
-274.76442385112352
20
-462.2523729593762
10
-239.6810344185063
20
-462.25237282940435
10
-239.6810344185063
20
-452.63290013843942
10
-233.88103441850629
20
-452.63290013843942
10
-233.88103441850629
20
-462.25237266135287
10
-193.62303441850628
20
-462.25237266135287
10
-193.62303441850628
20
-452.57600651633186
10
-188.02303441850626
20
-452.56809245493281
10
-188.02303441850626
20
-462.25237266135287
10
-147.76442228650151
20
-462.25237266135287
10
-147.76442228650151
20
-452.51119796774458
10
-141.96442228650147
20
-452.50300126129559
0
LINE
5
138
100
AcDbEntity
8
0
100
AcDbLine
10
-280.76442385112352
20
-447.2523729593762
30
0
11
-274.76442385112358
21
-447.2523729593762
31
0
0
LINE
5
139
100
AcDbEntity
8
0
100
AcDbLine
10
-522.85896293974577
20
-484.9546272200439
30
0
11
-522.85896293974577
21
-475.34051683063001
31
0
0
LWPOLYLINE
5
140
100
AcDbEntity
8
0
100
AcDbPolyline
90
2
70
1
43
0.0
10
-540.91774044100293
20
-476.38128672542024
42
0.88018090972119645
10
-529.81434050172686
20
-574.94892126505579
42
-0.88018090972119645
0
ARC
5
141
100
AcDbEntity
8
0
100
AcDbCircle
10
529.0589646086753
20
-524.95462751807293
30
0
40
50.000000000005862
210
0
220
0
230
-1
100
AcDbArc
50
83.178084169910505
51
86.607575957054735
0
LINE
5
142
100
AcDbEntity
8
0
100
AcDbLine
10
-540.79815322426691
20
-484.95462596625373
30
0
11
-540.91774044100293
21
-476.38128672542024
31
0
0
LINE
5
143
100
AcDbEntity
8
0
100
AcDbLine
10
-534.99815322426673
20
-484.9546272200439
30
0
11
-534.99815322426673
21
-475.30862024065925
31
0
0
LINE
5
144
100
AcDbEntity
8
0
100
AcDbLine
10
-526.13355826597729
20
-474.9691668293795
30
0
11
-526.17978596530702
21
-483.96904810636374
31
0
0
LINE
5
145
100
AcDbEntity
8
0
100
AcDbLine
10
-540.79815322426691
20
-484.95462596625373
30
0
11
-534.99815322426673
21
-484.9546272200439
31
0
0
LINE
5
146
100
AcDbEntity
8
0
100
AcDbLine
10
-524.01434050172679
20
-564.69949426449205
30
0
11
-529.81434050172686
21
-564.69949426449205
31
0
0
LINE
5
147
100
AcDbEntity
8
0
100
AcDbLine
10
-526.17978596530702
20
-483.96904810636374
30
0
11
-526.15667211564221
21
-479.46910746805571
31
0
0
LINE
5
148
100
AcDbEntity
8
0
100
AcDbLine
10
-517.05896293974592
20
-484.9546272200439
30
0
11
-517.05896293974581
21
-476.4159835326231
31
0
0
LINE
5
149
100
AcDbEntity
8
0
100
AcDbLine
10
-529.81434050172686
20
-564.69949426449205
30
0
11
-529.81434050172686
21
-574.94892126505579
31
0
0
LINE
5
150
100
AcDbEntity
8
0
100
AcDbLine
10
-524.01434050172691
20
-574.69949426449205
30
0
11
-524.01434050172679
21
-564.69949426449205
31
0
0
ARC
5
151
100
AcDbEntity
8
0
100
AcDbCircle
10
-529.0589646086753
20
-524.95462751807293
30
0
40
50.000000000005791
210
0
220
0
230
1
100
AcDbArc
50
93.392424042945251
51
96.821915830089495
0
LWPOLYLINE
5
152
100
AcDbEntity
8
0
100
AcDbPolyline
90
2
70
1
43
0.0
10
-522.85896293974577
20
-475.34051683063001
42
0.016447927998856523
10
-526.13392343199951
20
-475.04025950529194
42
-0.016447927998850611
0
LINE
5
153
100
AcDbEntity
8
0
100
AcDbLine
10
-526.17978596530702
20
-483.96904810636374
30
0
11
-526.17978596530702
21
-484.9546272200439
31
0
0
LINE
5
154
100
AcDbEntity
8
0
100
AcDbLine
10
-517.05896293974592
20
-484.9546272200439
30
0
11
-522.85896293974577
21
-484.9546272200439
31
0
0
LINE
5
155
100
AcDbEntity
8
0
100
AcDbLine
10
-531.97978569214774
20
-484.95640728944056
30
0
11
-526.17978596530702
21
-484.9546272200439
31
0
0
LWPOLYLINE
5
156
100
AcDbEntity
8
0
100
AcDbPolyline
90
2
70
1
43
0.0
10
-524.01434050172691
20
-574.69949426449205
42
0.84150333228716667
10
-517.05896293974592
20
-476.41598353262333
42
-0.84150333228716667
0
LINE
5
157
100
AcDbEntity
8
0
100
AcDbLine
10
-532.01768362881342
20
-475.0422444677672
30
0
11
-531.97978569214774
21
-484.95640728944056
31
0
0
ENDSEC
0
SECTION
2
OBJECTS
0
DICTIONARY
5
C
100
AcDbDictionary
3
ACAD_GROUP
350
D
3
ACAD_MLINESTYLE
350
17
0
DICTIONARY
5
D
100
AcDbDictionary
0
DICTIONARY
5
1A
330
C
100
AcDbDictionary
0
DICTIONARY
5
17
100
AcDbDictionary
0
ENDSEC
0
EOF
