  0
SECTION
  2
HEADER
  9
$ACADVER
  1
AC1009
  0
ENDSEC
  0
SECTION
  2
TABLES
  0
TABLE
  2
LAYER
  70
2
  0
LAYER
  2
Layer_1
  70
0
  62
5
  6
CONTINUOUS
  0
LAYER
  2
Layer_5
  70
0
  62
30
  6
CONTINUOUS
  0
ENDTAB
  0
ENDSEC
  0
SECTION
  2
ENTITIES
  0
POLYLINE
  5
90
  8
Layer_5
  62
30
  66
1
  10
0
  20
0
  30
0
  0
VERTEX
  5
90
  8
Layer_5
  10
80.89624
  20
241.36621
  0
VERTEX
  5
91
  8
Layer_5
  10
89.795349
  20
239.84814
  0
SEQEND
  0
POLYLINE
  5
93
  8
Layer_5
  62
30
  66
1
  10
0
  20
0
  30
0
  0
VERTEX
  5
93
  8
Layer_5
  10
84.958252
  20
248.68915
  0
VERTEX
  5
94
  8
Layer_5
  10
85.007996
  20
248.39233
  42
0.11997217
  0
VERTEX
  5
95
  8
Layer_5
  10
87.008911
  20
244.08307
  42
0.0039781726
  0
VERTEX
  5
96
  8
Layer_5
  10
88.89679
  20
241.76141
  0
VERTEX
  5
97
  8
Layer_5
  10
89.061279
  20
241.53998
  42
-0.092056811
  0
VERTEX
  5
98
  8
Layer_5
  10
89.736267
  20
240.23187
  42
-0.24350935
  0
VERTEX
  5
99
  8
Layer_5
  10
89.330688
  20
238.50293
  42
-0.083422217
  0
VERTEX
  5
9a
  8
Layer_5
  10
87.855591
  20
237.21796
  42
-0.039181752
  0
VERTEX
  5
9b
  8
Layer_5
  10
84.044312
  20
235.25452
  0
VERTEX
  5
9c
  8
Layer_5
  10
83.651672
  20
235.08032
  0
VERTEX
  5
9d
  8
Layer_5
  10
83.268677
  20
234.91113
  42
0.034923237
  0
VERTEX
  5
9e
  8
Layer_5
  10
80.853455
  20
233.73792
  42
0.0099209599
  0
VERTEX
  5
9f
  8
Layer_5
  10
80.662964
  20
233.6109
  42
0.01025886
  0
VERTEX
  5
a0
  8
Layer_5
  10
80.501709
  20
233.48688
  42
0.0099297217
  0
VERTEX
  5
a1
  8
Layer_5
  10
80.370056
  20
233.36505
  42
0.065764584
  0
VERTEX
  5
a2
  8
Layer_5
  10
80.19574
  20
233.12476
  42
0.019950488
  0
VERTEX
  5
a3
  8
Layer_5
  10
80.152039
  20
233.00433
  42
0.037897867
  0
VERTEX
  5
a4
  8
Layer_5
  10
80.13623
  20
232.88245
  42
0.12428654
  0
VERTEX
  5
a5
  8
Layer_5
  10
80.242615
  20
232.4964
  42
0.047151434
  0
VERTEX
  5
a6
  8
Layer_5
  10
81.332214
  20
231.1521
  0
VERTEX
  5
a7
  8
Layer_5
  10
81.514832
  20
230.94135
  42
-0.086807565
  0
VERTEX
  5
a8
  8
Layer_5
  10
83.666382
  20
227.51678
  42
-0.13656535
  0
VERTEX
  5
a9
  8
Layer_5
  10
84.003723
  20
224.80109
  42
-0.23900466
  0
VERTEX
  5
aa
  8
Layer_5
  10
82.055542
  20
222.30267
  42
-0.23376188
  0
VERTEX
  5
ab
  8
Layer_5
  10
77.987061
  20
222.33276
  42
-0.10204319
  0
VERTEX
  5
ac
  8
Layer_5
  10
75.216675
  20
224.51813
  42
-0.13268013
  0
VERTEX
  5
ad
  8
Layer_5
  10
71.009583
  20
233.39996
  42
-0.12822603
  0
VERTEX
  5
ae
  8
Layer_5
  10
71.308167
  20
237.67102
  42
-0.02309377
  0
VERTEX
  5
af
  8
Layer_5
  10
72.402527
  20
240.08234
  0
VERTEX
  5
b0
  8
Layer_5
  10
72.498657
  20
240.29614
  42
0.1309006
  0
VERTEX
  5
b1
  8
Layer_5
  10
73.240234
  20
244.90289
  42
0.016823528
  0
VERTEX
  5
b2
  8
Layer_5
  10
73.135742
  20
245.85797
  0
SEQEND
  0
POLYLINE
  5
b4
  8
Layer_5
  62
30
  66
1
  10
0
  20
0
  30
0
  0
VERTEX
  5
b4
  8
Layer_5
  10
60.200439
  20
251.45105
  0
VERTEX
  5
b5
  8
Layer_5
  10
60.28418
  20
251.17419
  42
0.1113391
  0
VERTEX
  5
b6
  8
Layer_5
  10
61.062317
  20
249.65973
  0
VERTEX
  5
b7
  8
Layer_5
  10
61.173157
  20
249.55768
  42
0.15962786
  0
VERTEX
  5
b8
  8
Layer_5
  10
61.524109
  20
249.36523
  0
VERTEX
  5
b9
  8
Layer_5
  10
61.647339
  20
249.33826
  0
VERTEX
  5
ba
  8
Layer_5
  10
61.773621
  20
249.32935
  42
0.12032147
  0
VERTEX
  5
bb
  8
Layer_5
  10
62.310364
  20
249.46497
  0
VERTEX
  5
bc
  8
Layer_5
  10
62.452576
  20
249.53876
  42
0.057584588
  0
VERTEX
  5
bd
  8
Layer_5
  10
64.055481
  20
250.89868
  0
VERTEX
  5
be
  8
Layer_5
  10
64.23407
  20
251.07056
  42
-0.073865559
  0
VERTEX
  5
bf
  8
Layer_5
  10
66.397034
  20
252.74622
  42
-0.2112804
  0
VERTEX
  5
c0
  8
Layer_5
  10
68.972046
  20
252.97742
  0
VERTEX
  5
c1
  8
Layer_5
  10
69.179626
  20
252.89648
  42
-0.19659662
  0
VERTEX
  5
c2
  8
Layer_5
  10
71.668274
  20
250.13184
  42
-0.1907445
  0
VERTEX
  5
c3
  8
Layer_5
  10
71.707092
  20
247.57349
  42
-0.16296393
  0
VERTEX
  5
c4
  8
Layer_5
  10
70.159546
  20
245.91583
  42
-0.064137194
  0
VERTEX
  5
c5
  8
Layer_5
  10
68.195068
  20
245.11157
  0
VERTEX
  5
c6
  8
Layer_5
  10
68.102356
  20
244.91553
  42
0.043879395
  0
VERTEX
  5
c7
  8
Layer_5
  10
67.09021
  20
242.36908
  42
0.036893817
  0
VERTEX
  5
c8
  8
Layer_5
  10
67.004089
  20
241.96289
  42
0.0036866159
  0
VERTEX
  5
c9
  8
Layer_5
  10
66.993347
  20
241.87549
  42
0.039636982
  0
VERTEX
  5
ca
  8
Layer_5
  10
66.984985
  20
241.71832
  42
0.005372817
  0
VERTEX
  5
cb
  8
Layer_5
  10
66.987549
  20
241.64868
  42
0.0193751
  0
VERTEX
  5
cc
  8
Layer_5
  10
66.999939
  20
241.5556
  0
VERTEX
  5
cd
  8
Layer_5
  10
67.006409
  20
241.52759
  0
VERTEX
  5
ce
  8
Layer_5
  10
67.014038
  20
241.50116
  0
VERTEX
  5
cf
  8
Layer_5
  10
67.022766
  20
241.4762
  0
VERTEX
  5
d0
  8
Layer_5
  10
67.032715
  20
241.45288
  0
VERTEX
  5
d1
  8
Layer_5
  10
67.056152
  20
241.41083
  42
0.010858575
  0
VERTEX
  5
d2
  8
Layer_5
  10
67.084229
  20
241.37506
  42
0.010991504
  0
VERTEX
  5
d3
  8
Layer_5
  10
67.117065
  20
241.34552
  0
VERTEX
  5
d4
  8
Layer_5
  10
67.135193
  20
241.33307
  42
0.011075452
  0
VERTEX
  5
d5
  8
Layer_5
  10
67.17511
  20
241.31293
  42
0.060796585
  0
VERTEX
  5
d6
  8
Layer_5
  10
67.322937
  20
241.28967
  0
VERTEX
  5
d7
  8
Layer_5
  10
67.351685
  20
241.2912
  42
0.0075189931
  0
VERTEX
  5
d8
  8
Layer_5
  10
67.477905
  20
241.31238
  42
0.0032694529
  0
VERTEX
  5
d9
  8
Layer_5
  10
67.547852
  20
241.33203
  42
0.0032498463
  0
VERTEX
  5
da
  8
Layer_5
  10
67.661072
  20
241.3725
  0
VERTEX
  5
db
  8
Layer_5
  10
67.70105
  20
241.38885
  42
0.0038264772
  0
VERTEX
  5
dc
  8
Layer_5
  10
67.784119
  20
241.42603
  42
0.0075832582
  0
VERTEX
  5
dd
  8
Layer_5
  10
67.916931
  20
241.49231
  42
0.013133252
  0
VERTEX
  5
de
  8
Layer_5
  10
68.108643
  20
241.60034
  42
0.039707132
  0
VERTEX
  5
df
  8
Layer_5
  10
69.816406
  20
242.87714
  42
0.010005172
  0
VERTEX
  5
e0
  8
Layer_5
  10
69.010986
  20
242.27808
  0
VERTEX
  5
e1
  8
Layer_5
  10
68.946655
  20
242.22736
  0
VERTEX
  5
e2
  8
Layer_5
  10
68.914734
  20
242.2019
  42
0.0069202652
  0
VERTEX
  5
e3
  8
Layer_5
  10
68.757996
  20
242.07397
  0
VERTEX
  5
e4
  8
Layer_5
  10
68.696838
  20
242.0224
  42
-0.0098318798
  0
VERTEX
  5
e5
  8
Layer_5
  10
68.577271
  20
241.91833
  42
0.00080302019
  0
VERTEX
  5
e6
  8
Layer_5
  10
68.519043
  20
241.86584
  0
SEQEND
  0
POLYLINE
  5
e8
  8
Layer_5
  62
30
  66
1
  10
0
  20
0
  30
0
  0
VERTEX
  5
e8
  8
Layer_5
  10
86.453674
  20
249.23956
  0
VERTEX
  5
e9
  8
Layer_5
  10
86.460449
  20
249.23981
  0
VERTEX
  5
ea
  8
Layer_5
  10
86.467041
  20
249.24026
  0
VERTEX
  5
eb
  8
Layer_5
  10
86.473633
  20
249.24072
  0
VERTEX
  5
ec
  8
Layer_5
  10
86.48645
  20
249.24225
  0
VERTEX
  5
ed
  8
Layer_5
  10
86.510803
  20
249.2467
  42
0.66817864
  0
VERTEX
  5
ee
  8
Layer_5
  10
86.528137
  20
249.25122
  0
VERTEX
  5
ef
  8
Layer_5
  10
86.544739
  20
249.25671
  42
0.0069342995
  0
VERTEX
  5
f0
  8
Layer_5
  10
86.560852
  20
249.26288
  0
VERTEX
  5
f1
  8
Layer_5
  10
86.56604
  20
249.26514
  0
VERTEX
  5
f2
  8
Layer_5
  10
86.571228
  20
249.2674
  0
VERTEX
  5
f3
  8
Layer_5
  10
86.581383
  20
249.27223
  0
VERTEX
  5
f4
  8
Layer_5
  10
86.591492
  20
249.27716
  0
VERTEX
  5
f5
  8
Layer_5
  10
86.604988
  20
249.28441
  0
VERTEX
  5
f6
  8
Layer_5
  10
86.611023
  20
249.28772
  0
VERTEX
  5
f7
  8
Layer_5
  10
86.615845
  20
249.29047
  0
VERTEX
  5
f8
  8
Layer_5
  10
86.625305
  20
249.29617
  0
VERTEX
  5
f9
  8
Layer_5
  10
86.634766
  20
249.30188
  0
VERTEX
  5
fa
  8
Layer_5
  10
86.644104
  20
249.3078
  0
VERTEX
  5
fb
  8
Layer_5
  10
86.666931
  20
249.32306
  0
SEQEND
  0
POLYLINE
  5
fd
  8
Layer_5
  62
30
  66
1
  10
0
  20
0
  30
0
  0
VERTEX
  5
fd
  8
Layer_5
  10
66.973389
  20
259.45789
  42
0.082386645
  0
VERTEX
  5
fe
  8
Layer_5
  10
71.394043
  20
261.05615
  42
0.11428133
  0
VERTEX
  5
ff
  8
Layer_5
  10
75.440918
  20
265.01489
  42
0.0060256342
  0
VERTEX
  5
100
  8
Layer_5
  10
75.675903
  20
265.38007
  0
SEQEND
  0
POLYLINE
  5
102
  8
Layer_5
  62
30
  66
1
  10
0
  20
0
  30
0
  0
VERTEX
  5
102
  8
Layer_5
  10
79.828064
  20
248.12933
  42
0.058160582
  0
VERTEX
  5
103
  8
Layer_5
  10
76.132385
  20
253.40009
  42
0.10077617
  0
VERTEX
  5
104
  8
Layer_5
  10
72.89679
  20
255.84454
  42
0.15610907
  0
VERTEX
  5
105
  8
Layer_5
  10
68.349609
  20
256.3186
  0
SEQEND
  0
POLYLINE
  5
107
  8
Layer_5
  62
30
  70
1
  66
1
  10
0
  20
0
  30
0
  0
VERTEX
  5
107
  8
Layer_5
  10
111.3788
  20
256.58801
  42
0.41422023
  0
VERTEX
  5
108
  8
Layer_5
  10
112.59747
  20
257.79721
  42
0.41422355
  0
VERTEX
  5
109
  8
Layer_5
  10
111.38826
  20
259.01587
  42
0.41422023
  0
VERTEX
  5
10a
  8
Layer_5
  10
110.16959
  20
257.80667
  42
0.41422355
  0
SEQEND
  0
POLYLINE
  5
10c
  8
Layer_5
  62
30
  66
1
  10
0
  20
0
  30
0
  0
VERTEX
  5
10c
  8
Layer_5
  10
66.6297
  20
255.33942
  42
-0.032296231
  0
VERTEX
  5
10d
  8
Layer_5
  10
71.582886
  20
253.85583
  42
-0.073614891
  0
VERTEX
  5
10e
  8
Layer_5
  10
75.052917
  20
252.01428
  42
-0.24459127
  0
VERTEX
  5
10f
  8
Layer_5
  10
76.879944
  20
248.409
  0
VERTEX
  5
110
  8
Layer_5
  10
76.884888
  20
248.21167
  42
0.0034149715
  0
VERTEX
  5
111
  8
Layer_5
  10
76.874451
  20
246.37683
  42
0.15327633
  0
VERTEX
  5
112
  8
Layer_5
  10
78.031555
  20
242.57721
  42
0.12823636
  0
VERTEX
  5
113
  8
Layer_5
  10
79.802002
  20
240.93567
  42
0.016943266
  0
VERTEX
  5
114
  8
Layer_5
  10
80.022583
  20
240.85736
  42
0.045232573
  0
VERTEX
  5
115
  8
Layer_5
  10
80.223938
  20
240.82465
  42
0.03523204
  0
VERTEX
  5
116
  8
Layer_5
  10
80.404114
  20
240.83838
  42
0.048079567
  0
VERTEX
  5
117
  8
Layer_5
  10
80.562012
  20
240.89923
  42
0.05951218
  0
VERTEX
  5
118
  8
Layer_5
  10
80.755432
  20
241.07935
  42
0.05097259
  0
VERTEX
  5
119
  8
Layer_5
  10
80.89624
  20
241.36621
  0
VERTEX
  5
11a
  8
Layer_5
  10
80.762085
  20
241.495
  42
-0.12469793
  0
VERTEX
  5
11b
  8
Layer_5
  10
79.56604
  20
243.2749
  42
-0.24863332
  0
VERTEX
  5
11c
  8
Layer_5
  10
79.987793
  20
245.3739
  42
-0.090344869
  0
VERTEX
  5
11d
  8
Layer_5
  10
82.077087
  20
247.16895
  42
-0.034375908
  0
VERTEX
  5
11e
  8
Layer_5
  10
84.958252
  20
248.68915
  42
0.025496141
  0
VERTEX
  5
11f
  8
Layer_5
  10
88.498413
  20
250.11023
  42
0.067590427
  0
VERTEX
  5
120
  8
Layer_5
  10
91.259766
  20
251.79913
  42
0.13792496
  0
VERTEX
  5
121
  8
Layer_5
  10
92.171448
  20
253.0788
  42
0.057970516
  0
VERTEX
  5
122
  8
Layer_5
  10
92.225586
  20
253.31555
  42
0.065197601
  0
VERTEX
  5
123
  8
Layer_5
  10
92.242737
  20
253.67316
  42
0.039368701
  0
VERTEX
  5
124
  8
Layer_5
  10
92.184509
  20
254.03351
  0
VERTEX
  5
125
  8
Layer_5
  10
92.148621
  20
254.1543
  42
0.12401489
  0
VERTEX
  5
126
  8
Layer_5
  10
91.107178
  20
255.62561
  42
-0.039480844
  0
VERTEX
  5
127
  8
Layer_5
  10
90.338013
  20
256.05383
  42
-0.094759585
  0
VERTEX
  5
128
  8
Layer_5
  10
88.057739
  20
258.4502
  42
-0.042950742
  0
VERTEX
  5
129
  8
Layer_5
  10
85.324707
  20
263.54407
  0
VERTEX
  5
12a
  8
Layer_5
  10
85.20575
  20
263.8111
  0
SEQEND
  0
POLYLINE
  5
12c
  8
Layer_5
  62
30
  66
1
  10
0
  20
0
  30
0
  0
VERTEX
  5
12c
  8
Layer_5
  10
67.18158
  20
257.85822
  42
0.036228451
  0
VERTEX
  5
12d
  8
Layer_5
  10
75.811584
  20
258.06256
  42
0.059952906
  0
VERTEX
  5
12e
  8
Layer_5
  10
79.811951
  20
258.92218
  42
0.12377514
  0
VERTEX
  5
12f
  8
Layer_5
  10
82.075256
  20
260.36127
  42
0.19944822
  0
VERTEX
  5
130
  8
Layer_5
  10
82.935913
  20
263.04932
  0
VERTEX
  5
131
  8
Layer_5
  10
82.993286
  20
263.11023
  42
-0.0093395112
  0
VERTEX
  5
132
  8
Layer_5
  10
83.118652
  20
263.22491
  42
-0.15276539
  0
VERTEX
  5
133
  8
Layer_5
  10
84.767151
  20
263.79089
  42
-0.066751932
  0
VERTEX
  5
134
  8
Layer_5
  10
88.109009
  20
263.47406
  0
VERTEX
  5
135
  8
Layer_5
  10
88.312378
  20
263.43274
  0
VERTEX
  5
136
  8
Layer_5
  10
88.518921
  20
263.38922
  42
-0.020517932
  0
VERTEX
  5
137
  8
Layer_5
  10
92.699829
  20
262.28186
  0
VERTEX
  5
138
  8
Layer_5
  10
109.57947
  20
257.63763
  42
0.34455312
  0
VERTEX
  5
139
  8
Layer_5
  10
111.10797
  20
256.01166
  42
0.34453206
  0
VERTEX
  5
13a
  8
Layer_5
  10
113.05463
  20
257.10284
  42
0.34453769
  0
VERTEX
  5
13b
  8
Layer_5
  10
112.46497
  20
259.25519
  42
0.34452375
  0
VERTEX
  5
13c
  8
Layer_5
  10
110.23395
  20
259.20197
  0
VERTEX
  5
13d
  8
Layer_5
  10
87.336365
  20
266.31628
  42
-0.30131766
  0
VERTEX
  5
13e
  8
Layer_5
  10
86.987183
  20
266.7442
  0
VERTEX
  5
13f
  8
Layer_5
  10
86.84137
  20
268.20856
  42
0.3229429
  0
VERTEX
  5
140
  8
Layer_5
  10
86.453796
  20
268.64679
  0
VERTEX
  5
141
  8
Layer_5
  10
16.015137
  20
284.53522
  0
VERTEX
  5
142
  8
Layer_5
  10
82.935913
  20
263.04932
  0
SEQEND
  0
POLYLINE
  5
144
  8
Layer_5
  62
30
  70
1
  66
1
  10
0
  20
0
  30
0
  0
VERTEX
  5
144
  8
Layer_5
  10
52.170166
  20
264.36176
  42
0.076514145
  0
VERTEX
  5
145
  8
Layer_5
  10
55.305481
  20
262.85803
  42
0.051542335
  0
VERTEX
  5
146
  8
Layer_5
  10
58.283569
  20
262.10474
  42
0.10717263
  0
VERTEX
  5
147
  8
Layer_5
  10
58.955322
  20
262.16071
  0
VERTEX
  5
148
  8
Layer_5
  10
59.033875
  20
262.19513
  0
VERTEX
  5
149
  8
Layer_5
  10
59.104004
  20
262.23676
  0
VERTEX
  5
14a
  8
Layer_5
  10
59.165894
  20
262.28546
  0
VERTEX
  5
14b
  8
Layer_5
  10
59.219971
  20
262.34125
  0
VERTEX
  5
14c
  8
Layer_5
  10
59.266602
  20
262.40405
  0
VERTEX
  5
14d
  8
Layer_5
  10
59.306152
  20
262.47369
  42
0.081876204
  0
VERTEX
  5
14e
  8
Layer_5
  10
59.401672
  20
262.91638
  42
0.052758894
  0
VERTEX
  5
14f
  8
Layer_5
  10
59.356262
  20
263.36578
  42
0.19684099
  0
VERTEX
  5
150
  8
Layer_5
  10
57.815186
  20
265.42267
  42
0.10875749
  0
VERTEX
  5
151
  8
Layer_5
  10
54.370728
  20
266.58844
  42
0.083008669
  0
VERTEX
  5
152
  8
Layer_5
  10
51.649841
  20
266.5824
  42
0.014917311
  0
VERTEX
  5
153
  8
Layer_5
  10
51.398987
  20
266.50903
  42
0.02343963
  0
VERTEX
  5
154
  8
Layer_5
  10
51.20575
  20
266.41907
  42
0.11654223
  0
VERTEX
  5
155
  8
Layer_5
  10
50.986328
  20
266.19122
  0
VERTEX
  5
156
  8
Layer_5
  10
50.963379
  20
266.12439
  0
VERTEX
  5
157
  8
Layer_5
  10
50.951721
  20
266.05371
  0
VERTEX
  5
158
  8
Layer_5
  10
50.950745
  20
265.97919
  0
VERTEX
  5
159
  8
Layer_5
  10
50.959839
  20
265.90082
  0
VERTEX
  5
15a
  8
Layer_5
  10
50.978333
  20
265.81873
  42
0.026693728
  0
VERTEX
  5
15b
  8
Layer_5
  10
51.041565
  20
265.64343
  42
0.12319048
  0
SEQEND
  0
POLYLINE
  5
15d
  8
Layer_5
  62
30
  66
1
  10
0
  20
0
  30
0
  0
VERTEX
  5
15d
  8
Layer_5
  10
88.17749
  20
282.49921
  42
-0.18160747
  0
VERTEX
  5
15e
  8
Layer_5
  10
87.796814
  20
281.4364
  42
-0.11480474
  0
VERTEX
  5
15f
  8
Layer_5
  10
87.111816
  20
281.05518
  42
-0.0049548804
  0
VERTEX
  5
160
  8
Layer_5
  10
86.678101
  20
280.92456
  0
VERTEX
  5
161
  8
Layer_5
  10
86.62738
  20
280.90851
  0
VERTEX
  5
162
  8
Layer_5
  10
86.577698
  20
280.89209
  42
-0.0074935732
  0
VERTEX
  5
163
  8
Layer_5
  10
86.435303
  20
280.84021
  0
VERTEX
  5
164
  8
Layer_5
  10
86.390259
  20
280.82184
  0
VERTEX
  5
165
  8
Layer_5
  10
86.346436
  20
280.80286
  42
0.051659267
  0
VERTEX
  5
166
  8
Layer_5
  10
86.010376
  20
280.59796
  42
0.0099101984
  0
VERTEX
  5
167
  8
Layer_5
  10
85.950073
  20
280.5434
  0
VERTEX
  5
168
  8
Layer_5
  10
85.921997
  20
280.51477
  0
VERTEX
  5
169
  8
Layer_5
  10
85.895142
  20
280.48535
  42
0.0066146543
  0
VERTEX
  5
16a
  8
Layer_5
  10
85.845276
  20
280.42401
  42
0.011624202
  0
VERTEX
  5
16b
  8
Layer_5
  10
85.780029
  20
280.32562
  0
SEQEND
  0
POLYLINE
  5
16d
  8
Layer_5
  62
30
  66
1
  10
0
  20
0
  30
0
  0
VERTEX
  5
16d
  8
Layer_5
  10
72.981689
  20
266.24512
  42
0.010619015
  0
VERTEX
  5
16e
  8
Layer_5
  10
70.891479
  20
264.12744
  0
VERTEX
  5
16f
  8
Layer_5
  10
70.638245
  20
263.85944
  42
-0.00078896693
  0
VERTEX
  5
170
  8
Layer_5
  10
69.726257
  20
262.8891
  42
-0.055145335
  0
VERTEX
  5
171
  8
Layer_5
  10
68.141907
  20
261.44025
  42
-0.029949748
  0
VERTEX
  5
172
  8
Layer_5
  10
67.850586
  20
261.2832
  42
-0.16241194
  0
VERTEX
  5
173
  8
Layer_5
  10
67.173645
  20
261.18433
  0
VERTEX
  5
174
  8
Layer_5
  10
67.043579
  20
261.21558
  42
-0.12023735
  0
VERTEX
  5
175
  8
Layer_5
  10
66.273376
  20
261.742
  42
-0.047997751
  0
VERTEX
  5
176
  8
Layer_5
  10
64.96582
  20
263.55432
  0
VERTEX
  5
177
  8
Layer_5
  10
64.701172
  20
263.97375
  42
0.057802689
  0
VERTEX
  5
178
  8
Layer_5
  10
63.301147
  20
265.86322
  42
0.12256088
  0
VERTEX
  5
179
  8
Layer_5
  10
62.735413
  20
266.19562
  42
0.04868015
  0
VERTEX
  5
17a
  8
Layer_5
  10
62.526855
  20
266.1994
  42
0.047870794
  0
VERTEX
  5
17b
  8
Layer_5
  10
62.329468
  20
266.12378
  42
0.14329144
  0
VERTEX
  5
17c
  8
Layer_5
  10
61.968811
  20
265.7262
  42
0.08077729
  0
VERTEX
  5
17d
  8
Layer_5
  10
61.388062
  20
263.92554
  0
VERTEX
  5
17e
  8
Layer_5
  10
61.328674
  20
263.60608
  42
0.15267817
  0
VERTEX
  5
17f
  8
Layer_5
  10
60.134949
  20
251.77466
  0
VERTEX
  5
180
  8
Layer_5
  10
60.200439
  20
251.45105
  42
-0.021079717
  0
VERTEX
  5
181
  8
Layer_5
  10
54.82428
  20
247.26733
  42
-0.050716272
  0
VERTEX
  5
182
  8
Layer_5
  10
43.864014
  20
240.92041
  42
-0.11220797
  0
VERTEX
  5
183
  8
Layer_5
  10
27.412231
  20
237.57495
  42
-0.059290148
  0
VERTEX
  5
184
  8
Layer_5
  10
15.272827
  20
239.39203
  42
-0.051102756
  0
VERTEX
  5
185
  8
Layer_5
  10
15.067444
  20
239.52692
  42
-0.015407397
  0
VERTEX
  5
186
  8
Layer_5
  10
14.97345
  20
239.61707
  42
-0.020178036
  0
VERTEX
  5
187
  8
Layer_5
  10
14.914001
  20
239.7074
  0
VERTEX
  5
188
  8
Layer_5
  10
14.8974
  20
239.75262
  0
VERTEX
  5
189
  8
Layer_5
  10
14.889648
  20
239.79797
  42
-0.015633411
  0
VERTEX
  5
18a
  8
Layer_5
  10
14.900696
  20
239.88879
  0
VERTEX
  5
18b
  8
Layer_5
  10
14.919556
  20
239.93427
  0
VERTEX
  5
18c
  8
Layer_5
  10
14.94751
  20
239.9798
  0
VERTEX
  5
18d
  8
Layer_5
  10
14.984375
  20
240.02545
  0
VERTEX
  5
18e
  8
Layer_5
  10
15.030334
  20
240.07111
  0
VERTEX
  5
18f
  8
Layer_5
  10
15.085327
  20
240.11682
  42
0.0014644859
  0
VERTEX
  5
190
  8
Layer_5
  10
15.222473
  20
240.20844
  42
0.014934247
  0
VERTEX
  5
191
  8
Layer_5
  10
15.395508
  20
240.30023
  0
VERTEX
  5
192
  8
Layer_5
  10
15.495361
  20
240.34619
  0
VERTEX
  5
193
  8
Layer_5
  10
15.603943
  20
240.39227
  0
VERTEX
  5
194
  8
Layer_5
  10
15.721191
  20
240.43835
  42
-0.039048012
  0
VERTEX
  5
195
  8
Layer_5
  10
19.397339
  20
241.3233
  42
-0.010584488
  0
VERTEX
  5
196
  8
Layer_5
  10
24.817078
  20
242.17377
  42
0.086061349
  0
VERTEX
  5
197
  8
Layer_5
  10
28.762817
  20
243.55963
  42
0.12128771
  0
VERTEX
  5
198
  8
Layer_5
  10
39.045044
  20
253.013
  42
0.025574653
  0
VERTEX
  5
199
  8
Layer_5
  10
40.171082
  20
254.98639
  0
VERTEX
  5
19a
  8
Layer_5
  10
39.978882
  20
255.0932
  42
0.12744819
  0
VERTEX
  5
19b
  8
Layer_5
  10
37.391479
  20
255.60919
  42
0.077340782
  0
VERTEX
  5
19c
  8
Layer_5
  10
33.248718
  20
254.70081
  42
0.040123651
  0
VERTEX
  5
19d
  8
Layer_5
  10
26.75177
  20
251.60614
  42
0.020683845
  0
VERTEX
  5
19e
  8
Layer_5
  10
17.588684
  20
245.86963
  42
-0.2149396
  0
VERTEX
  5
19f
  8
Layer_5
  10
17.039917
  20
245.90192
  42
-0.10975967
  0
VERTEX
  5
1a0
  8
Layer_5
  10
16.951233
  20
246.02197
  0
VERTEX
  5
1a1
  8
Layer_5
  10
16.935852
  20
246.07507
  0
VERTEX
  5
1a2
  8
Layer_5
  10
16.927612
  20
246.13458
  0
VERTEX
  5
1a3
  8
Layer_5
  10
16.926453
  20
246.20068
  0
VERTEX
  5
1a4
  8
Layer_5
  10
16.932434
  20
246.27319
  42
-0.021693602
  0
VERTEX
  5
1a5
  8
Layer_5
  10
16.965454
  20
246.4375
  42
-0.075173953
  0
VERTEX
  5
1a6
  8
Layer_5
  10
17.856873
  20
248.10394
  42
-0.040318668
  0
VERTEX
  5
1a7
  8
Layer_5
  10
21.774597
  20
252.78802
  42
-0.064556626
  0
VERTEX
  5
1a8
  8
Layer_5
  10
33.242126
  20
262.12415
  42
-0.079282067
  0
VERTEX
  5
1a9
  8
Layer_5
  10
44.372925
  20
266.77692
  42
-0.09634116
  0
VERTEX
  5
1aa
  8
Layer_5
  10
55.306641
  20
267.27594
  42
-0.011680139
  0
VERTEX
  5
1ab
  8
Layer_5
  10
56.478394
  20
267.06305
  0
VERTEX
  5
1ac
  8
Layer_5
  10
56.65686
  20
267.02655
  42
-0.14770939
  0
VERTEX
  5
1ad
  8
Layer_5
  10
59.991455
  20
265.13025
  42
-0.034699347
  0
VERTEX
  5
1ae
  8
Layer_5
  10
61.328674
  20
263.60608
  0
SEQEND
  0
POLYLINE
  5
1b0
  8
Layer_5
  62
30
  70
1
  66
1
  10
0
  20
0
  30
0
  0
VERTEX
  5
1b0
  8
Layer_5
  10
57.928284
  20
256.91516
  42
0.25499927
  0
VERTEX
  5
1b1
  8
Layer_5
  10
54.046631
  20
257.61188
  42
0.088271995
  0
VERTEX
  5
1b2
  8
Layer_5
  10
50.855591
  20
255.92084
  42
0.082764843
  0
VERTEX
  5
1b3
  8
Layer_5
  10
47.579407
  20
252.59766
  42
0.11435476
  0
VERTEX
  5
1b4
  8
Layer_5
  10
46.948059
  20
251.09454
  42
0.076606037
  0
VERTEX
  5
1b5
  8
Layer_5
  10
46.95166
  20
250.7276
  42
0.088712795
  0
VERTEX
  5
1b6
  8
Layer_5
  10
47.098572
  20
250.30487
  42
0.042872086
  0
VERTEX
  5
1b7
  8
Layer_5
  10
47.315063
  20
250.03809
  42
0.049583568
  0
VERTEX
  5
1b8
  8
Layer_5
  10
47.622131
  20
249.81451
  42
0.1116809
  0
VERTEX
  5
1b9
  8
Layer_5
  10
51.646912
  20
249.19696
  42
0.18034103
  0
VERTEX
  5
1ba
  8
Layer_5
  10
55.262329
  20
251.0061
  42
0.078687948
  0
VERTEX
  5
1bb
  8
Layer_5
  10
57.667236
  20
254.57971
  42
0.014943672
  0
VERTEX
  5
1bc
  8
Layer_5
  10
58.283752
  20
255.92865
  42
0.32826257
  0
VERTEX
  5
1bd
  8
Layer_5
  10
58.077698
  20
256.7934
  0
SEQEND
  0
POLYLINE
  5
1bf
  8
Layer_5
  62
30
  66
1
  10
0
  20
0
  30
0
  0
VERTEX
  5
1bf
  8
Layer_5
  10
83.716675
  20
269.2641
  42
0.021873936
  0
VERTEX
  5
1c0
  8
Layer_5
  10
85.140076
  20
269.79047
  42
0.091094085
  0
VERTEX
  5
1c1
  8
Layer_5
  10
87.862732
  20
271.4679
  42
0.20852517
  0
VERTEX
  5
1c2
  8
Layer_5
  10
89.026001
  20
274.02863
  42
0.11422078
  0
VERTEX
  5
1c3
  8
Layer_5
  10
88.353943
  20
276.58374
  42
0.06397627
  0
VERTEX
  5
1c4
  8
Layer_5
  10
85.780029
  20
280.32562
  0
VERTEX
  5
1c5
  8
Layer_5
  10
85.724487
  20
280.42108
  0
VERTEX
  5
1c6
  8
Layer_5
  10
85.670837
  20
280.51556
  0
VERTEX
  5
1c7
  8
Layer_5
  10
85.61908
  20
280.60925
  0
VERTEX
  5
1c8
  8
Layer_5
  10
85.569275
  20
280.70203
  42
-0.11886378
  0
VERTEX
  5
1c9
  8
Layer_5
  10
84.98938
  20
282.54352
  42
-0.0097768302
  0
VERTEX
  5
1ca
  8
Layer_5
  10
84.999329
  20
282.66516
  42
-0.066884346
  0
VERTEX
  5
1cb
  8
Layer_5
  10
85.079895
  20
282.92267
  42
-0.086749161
  0
VERTEX
  5
1cc
  8
Layer_5
  10
85.20813
  20
283.07043
  0
VERTEX
  5
1cd
  8
Layer_5
  10
85.249695
  20
283.09802
  0
VERTEX
  5
1ce
  8
Layer_5
  10
85.295227
  20
283.1217
  0
VERTEX
  5
1cf
  8
Layer_5
  10
85.344666
  20
283.1413
  0
VERTEX
  5
1d0
  8
Layer_5
  10
85.398071
  20
283.15674
  0
VERTEX
  5
1d1
  8
Layer_5
  10
85.455383
  20
283.16809
  0
VERTEX
  5
1d2
  8
Layer_5
  10
85.516541
  20
283.17523
  0
VERTEX
  5
1d3
  8
Layer_5
  10
85.581604
  20
283.17816
  0
VERTEX
  5
1d4
  8
Layer_5
  10
85.65033
  20
283.17694
  0
VERTEX
  5
1d5
  8
Layer_5
  10
85.722717
  20
283.17175
  0
VERTEX
  5
1d6
  8
Layer_5
  10
85.798523
  20
283.16248
  0
VERTEX
  5
1d7
  8
Layer_5
  10
85.877686
  20
283.14941
  0
VERTEX
  5
1d8
  8
Layer_5
  10
85.959839
  20
283.13275
  0
VERTEX
  5
1d9
  8
Layer_5
  10
86.044739
  20
283.11255
  0
VERTEX
  5
1da
  8
Layer_5
  10
86.132263
  20
283.08917
  0
VERTEX
  5
1db
  8
Layer_5
  10
86.222046
  20
283.06281
  42
0.0063928843
  0
VERTEX
  5
1dc
  8
Layer_5
  10
86.407166
  20
283.00232
  0
VERTEX
  5
1dd
  8
Layer_5
  10
86.501831
  20
282.96881
  42
-0.0039622317
  0
VERTEX
  5
1de
  8
Layer_5
  10
87.519592
  20
282.56879
  0
VERTEX
  5
1df
  8
Layer_5
  10
87.599731
  20
282.53961
  42
0.083297396
  0
VERTEX
  5
1e0
  8
Layer_5
  10
88.036926
  20
282.43475
  0
VERTEX
  5
1e1
  8
Layer_5
  10
88.078003
  20
282.43762
  42
0.020356593
  0
VERTEX
  5
1e2
  8
Layer_5
  10
88.141724
  20
282.45941
  0
VERTEX
  5
1e3
  8
Layer_5
  10
88.16394
  20
282.4787
  0
VERTEX
  5
1e4
  8
Layer_5
  10
88.179565
  20
282.50372
  0
VERTEX
  5
1e5
  8
Layer_5
  10
88.188477
  20
282.53467
  0
VERTEX
  5
1e6
  8
Layer_5
  10
88.19043
  20
282.57166
  0
VERTEX
  5
1e7
  8
Layer_5
  10
88.185425
  20
282.61487
  0
VERTEX
  5
1e8
  8
Layer_5
  10
88.17334
  20
282.66425
  0
VERTEX
  5
1e9
  8
Layer_5
  10
88.154175
  20
282.72009
  42
-0.0054247795
  0
VERTEX
  5
1ea
  8
Layer_5
  10
88.094055
  20
282.85083
  0
VERTEX
  5
1eb
  8
Layer_5
  10
88.053101
  20
282.92596
  42
0.040938868
  0
VERTEX
  5
1ec
  8
Layer_5
  10
86.986633
  20
284.34094
  0
VERTEX
  5
1ed
  8
Layer_5
  10
85.139771
  20
285.55902
  0
VERTEX
  5
1ee
  8
Layer_5
  10
83.492981
  20
286.21796
  42
-0.01375479
  0
VERTEX
  5
1ef
  8
Layer_5
  10
82.39502
  20
286.4187
  0
VERTEX
  5
1f0
  8
Layer_5
  10
82.286194
  20
286.44159
  42
0.026937776
  0
VERTEX
  5
1f1
  8
Layer_5
  10
79.808838
  20
286.93115
  0
VERTEX
  5
1f2
  8
Layer_5
  10
79.742798
  20
286.93732
  0
VERTEX
  5
1f3
  8
Layer_5
  10
79.678528
  20
286.94263
  0
VERTEX
  5
1f4
  8
Layer_5
  10
79.616028
  20
286.94708
  0
VERTEX
  5
1f5
  8
Layer_5
  10
79.555237
  20
286.95068
  0
VERTEX
  5
1f6
  8
Layer_5
  10
79.495972
  20
286.95361
  0
VERTEX
  5
1f7
  8
Layer_5
  10
79.438171
  20
286.95587
  0
VERTEX
  5
1f8
  8
Layer_5
  10
79.381775
  20
286.9574
  42
0.0012581314
  0
VERTEX
  5
1f9
  8
Layer_5
  10
79.272522
  20
286.95911
  42
-0.0031284818
  0
VERTEX
  5
1fa
  8
Layer_5
  10
78.628662
  20
286.95685
  42
0.38715943
  0
VERTEX
  5
1fb
  8
Layer_5
  10
77.619812
  20
286.06445
  0
VERTEX
  5
1fc
  8
Layer_5
  10
77.566162
  20
285.56519
  42
0.022681353
  0
VERTEX
  5
1fd
  8
Layer_5
  10
77.102539
  20
279.57709
  42
0.047015342
  0
VERTEX
  5
1fe
  8
Layer_5
  10
77.362305
  20
276.09039
  42
-0.034814922
  0
VERTEX
  5
1ff
  8
Layer_5
  10
77.380432
  20
275.91791
  42
-0.039753768
  0
VERTEX
  5
200
  8
Layer_5
  10
77.038818
  20
271.03461
  0
VERTEX
  5
201
  8
Layer_5
  10
77.005066
  20
270.77808
  0
SEQEND
  0
POLYLINE
  5
203
  8
Layer_5
  62
30
  66
1
  10
0
  20
0
  30
0
  0
VERTEX
  5
203
  8
Layer_5
  10
95.612671
  20
263.74481
  0
VERTEX
  5
204
  8
Layer_5
  10
96.418945
  20
263.76941
  42
-0.01425506
  0
VERTEX
  5
205
  8
Layer_5
  10
108.03741
  20
263.87671
  42
-0.041878268
  0
VERTEX
  5
206
  8
Layer_5
  10
110.82605
  20
263.63715
  42
-0.014073429
  0
VERTEX
  5
207
  8
Layer_5
  10
110.98315
  20
263.59869
  42
-0.0073510744
  0
VERTEX
  5
208
  8
Layer_5
  10
111.11298
  20
263.55756
  42
-0.052464695
  0
VERTEX
  5
209
  8
Layer_5
  10
111.28992
  20
263.46735
  42
-0.092856801
  0
VERTEX
  5
20a
  8
Layer_5
  10
111.35571
  20
263.36633
  0
VERTEX
  5
20b
  8
Layer_5
  10
111.35468
  20
263.33936
  42
-0.028241326
  0
VERTEX
  5
20c
  8
Layer_5
  10
111.33173
  20
263.28339
  42
-0.016686176
  0
VERTEX
  5
20d
  8
Layer_5
  10
111.28082
  20
263.22467
  42
-0.017239138
  0
VERTEX
  5
20e
  8
Layer_5
  10
111.20209
  20
263.16333
  42
-0.065990173
  0
VERTEX
  5
20f
  8
Layer_5
  10
109.74475
  20
262.61896
  42
-0.020531044
  0
VERTEX
  5
210
  8
Layer_5
  10
103.5166
  20
261.28906
  0
SEQEND
  0
POLYLINE
  5
212
  8
Layer_5
  62
30
  66
1
  10
0
  20
0
  30
0
  0
VERTEX
  5
212
  8
Layer_5
  10
71.864441
  20
271.93762
  42
-0.017937027
  0
VERTEX
  5
213
  8
Layer_5
  10
71.695679
  20
272.03381
  0
VERTEX
  5
214
  8
Layer_5
  10
71.643616
  20
272.06921
  0
VERTEX
  5
215
  8
Layer_5
  10
71.593689
  20
272.10626
  0
VERTEX
  5
216
  8
Layer_5
  10
71.545837
  20
272.14508
  0
VERTEX
  5
217
  8
Layer_5
  10
71.500122
  20
272.18549
  42
-0.018052213
  0
VERTEX
  5
218
  8
Layer_5
  10
71.375671
  20
272.31689
  42
-0.01962289
  0
VERTEX
  5
219
  8
Layer_5
  10
71.303406
  20
272.41284
  42
-0.20896663
  0
VERTEX
  5
21a
  8
Layer_5
  10
71.115173
  20
273.95593
  42
-0.0054034312
  0
VERTEX
  5
21b
  8
Layer_5
  10
71.153137
  20
274.09253
  42
-0.038064764
  0
VERTEX
  5
21c
  8
Layer_5
  10
71.278259
  20
274.40942
  42
-0.0079773338
  0
VERTEX
  5
21d
  8
Layer_5
  10
71.3396
  20
274.52228
  42
-0.047966617
  0
VERTEX
  5
21e
  8
Layer_5
  10
71.5177
  20
274.75677
  42
-0.055266126
  0
VERTEX
  5
21f
  8
Layer_5
  10
71.683105
  20
274.8847
  0
VERTEX
  5
220
  8
Layer_5
  10
71.727356
  20
274.90735
  0
VERTEX
  5
221
  8
Layer_5
  10
71.772644
  20
274.92596
  0
VERTEX
  5
222
  8
Layer_5
  10
71.819031
  20
274.94049
  0
VERTEX
  5
223
  8
Layer_5
  10
71.866455
  20
274.95099
  42
-0.036244778
  0
VERTEX
  5
224
  8
Layer_5
  10
72.014465
  20
274.95715
  0
VERTEX
  5
225
  8
Layer_5
  10
72.065735
  20
274.95074
  42
-0.01217419
  0
VERTEX
  5
226
  8
Layer_5
  10
72.170898
  20
274.9248
  0
VERTEX
  5
227
  8
Layer_5
  10
72.224792
  20
274.9054
  42
-0.012407589
  0
VERTEX
  5
228
  8
Layer_5
  10
72.335205
  20
274.85339
  42
-0.0084883415
  0
VERTEX
  5
229
  8
Layer_5
  10
72.448914
  20
274.784
  42
-0.077670399
  0
VERTEX
  5
22a
  8
Layer_5
  10
73.130127
  20
274.09314
  0
SEQEND
  0
POLYLINE
  5
22c
  8
Layer_5
  62
30
  66
1
  10
0
  20
0
  30
0
  0
VERTEX
  5
22c
  8
Layer_5
  10
85.686951
  20
283.1748
  0
VERTEX
  5
22d
  8
Layer_5
  10
85.618774
  20
283.20868
  42
0.15489807
  0
VERTEX
  5
22e
  8
Layer_5
  10
84.499084
  20
283.25574
  42
0.098812374
  0
VERTEX
  5
22f
  8
Layer_5
  10
81.606384
  20
281.84399
  42
0.14813045
  0
VERTEX
  5
230
  8
Layer_5
  10
78.423828
  20
277.8584
  42
0.12820422
  0
VERTEX
  5
231
  8
Layer_5
  10
78.029846
  20
273.18451
  0
VERTEX
  5
232
  8
Layer_5
  10
78.068604
  20
272.93762
  0
VERTEX
  5
233
  8
Layer_5
  10
78.119385
  20
272.854
  0
VERTEX
  5
234
  8
Layer_5
  10
78.168518
  20
272.77246
  42
-0.065778556
  0
VERTEX
  5
235
  8
Layer_5
  10
78.965027
  20
271.12793
  0
VERTEX
  5
236
  8
Layer_5
  10
78.979858
  20
271.06378
  0
VERTEX
  5
237
  8
Layer_5
  10
78.99115
  20
271.00391
  42
-0.010668699
  0
VERTEX
  5
238
  8
Layer_5
  10
79.003601
  20
270.89606
  42
-0.010750073
  0
VERTEX
  5
239
  8
Layer_5
  10
79.003967
  20
270.80261
  0
VERTEX
  5
23a
  8
Layer_5
  10
79.000061
  20
270.7608
  0
VERTEX
  5
23b
  8
Layer_5
  10
78.99353
  20
270.72198
  0
VERTEX
  5
23c
  8
Layer_5
  10
78.984619
  20
270.6861
  42
-0.024208372
  0
VERTEX
  5
23d
  8
Layer_5
  10
78.92749
  20
270.56793
  42
-0.018585262
  0
VERTEX
  5
23e
  8
Layer_5
  10
78.864807
  20
270.50287
  0
VERTEX
  5
23f
  8
Layer_5
  10
78.840576
  20
270.48523
  0
VERTEX
  5
240
  8
Layer_5
  10
78.814758
  20
270.46936
  42
-0.0063825143
  0
VERTEX
  5
241
  8
Layer_5
  10
78.72821
  20
270.4328
  0
VERTEX
  5
242
  8
Layer_5
  10
78.69635
  20
270.42413
  0
VERTEX
  5
243
  8
Layer_5
  10
78.663086
  20
270.41718
  0
VERTEX
  5
244
  8
Layer_5
  10
78.628357
  20
270.41187
  0
SEQEND
  0
POLYLINE
  5
246
  8
Layer_1
  62
5
  70
1
  66
1
  10
0
  20
0
  30
0
  0
VERTEX
  5
246
  8
Layer_1
  10
104.3316
  20
215.73627
  42
0.41421518
  0
VERTEX
  5
247
  8
Layer_1
  10
124.4093
  20
235.6582
  0
VERTEX
  5
248
  8
Layer_1
  10
124.56592
  20
275.87067
  42
0.41421275
  0
VERTEX
  5
249
  8
Layer_1
  10
104.64398
  20
295.94843
  0
VERTEX
  5
24a
  8
Layer_1
  10
23.668518
  20
296.26373
  42
0.41421194
  0
VERTEX
  5
24b
  8
Layer_1
  10
3.5907593
  20
276.34174
  0
VERTEX
  5
24c
  8
Layer_1
  10
3.4341431
  20
236.12927
  42
0.41421195
  0
VERTEX
  5
24d
  8
Layer_1
  10
23.35614
  20
216.05157
  0
VERTEX
  5
24e
  8
Layer_1
  10
63.843872
  20
215.89392
  0
SEQEND
  0
POLYLINE
  5
250
  8
Layer_5
  62
30
  66
1
  10
0
  20
0
  30
0
  0
VERTEX
  5
250
  8
Layer_5
  10
69.816406
  20
242.87714
  0
VERTEX
  5
251
  8
Layer_5
  10
69.527649
  20
242.65271
  42
0.13866008
  0
VERTEX
  5
252
  8
Layer_5
  10
66.983582
  20
239.24475
  42
0.12546077
  0
VERTEX
  5
253
  8
Layer_5
  10
66.650085
  20
235.34192
  42
0.089117702
  0
VERTEX
  5
254
  8
Layer_5
  10
68.566406
  20
230.06555
  42
0.070144754
  0
VERTEX
  5
255
  8
Layer_5
  10
71.195618
  20
226.46417
  42
0.12962572
  0
VERTEX
  5
256
  8
Layer_5
  10
72.171509
  20
225.83209
  0
VERTEX
  5
257
  8
Layer_5
  10
72.274719
  20
225.82367
  0
VERTEX
  5
258
  8
Layer_5
  10
72.367798
  20
225.83691
  42
0.052290404
  0
VERTEX
  5
259
  8
Layer_5
  10
72.522339
  20
225.92889
  42
0.16389752
  0
VERTEX
  5
25a
  8
Layer_5
  10
72.67218
  20
226.23334
  0
VERTEX
  5
25b
  8
Layer_5
  10
72.687439
  20
226.30365
  0
VERTEX
  5
25c
  8
Layer_5
  10
72.699829
  20
226.37952
  0
VERTEX
  5
25d
  8
Layer_5
  10
72.709351
  20
226.46106
  42
-0.016996571
  0
VERTEX
  5
25e
  8
Layer_5
  10
72.719971
  20
226.64087
  0
VERTEX
  5
25f
  8
Layer_5
  10
72.721008
  20
226.7392
  42
0.057638377
  0
VERTEX
  5
260
  8
Layer_5
  10
72.349365
  20
229.07123
  0
SEQEND
  0
POLYLINE
  5
262
  8
Layer_5
  62
30
  66
1
  10
0
  20
0
  30
0
  0
VERTEX
  5
262
  8
Layer_5
  10
74.235474
  20
282.77997
  0
VERTEX
  5
263
  8
Layer_5
  10
74.193848
  20
282.88232
  42
-0.0020622259
  0
VERTEX
  5
264
  8
Layer_5
  10
74.116882
  20
283.08008
  42
-0.094699171
  0
VERTEX
  5
265
  8
Layer_5
  10
73.81488
  20
284.43231
  42
-0.010720396
  0
VERTEX
  5
266
  8
Layer_5
  10
73.825073
  20
284.53442
  42
-0.050082559
  0
VERTEX
  5
267
  8
Layer_5
  10
73.871826
  20
284.70941
  0
VERTEX
  5
268
  8
Layer_5
  10
73.888977
  20
284.74713
  42
0.018854936
  0
VERTEX
  5
269
  8
Layer_5
  10
73.953247
  20
284.8457
  0
VERTEX
  5
26a
  8
Layer_5
  10
73.978943
  20
284.87372
  0
VERTEX
  5
26b
  8
Layer_5
  10
74.006653
  20
284.89948
  0
VERTEX
  5
26c
  8
Layer_5
  10
74.03656
  20
284.92279
  0
VERTEX
  5
26d
  8
Layer_5
  10
74.068481
  20
284.94373
  42
-0.06136546
  0
VERTEX
  5
26e
  8
Layer_5
  10
74.176331
  20
284.99255
  42
-0.020180364
  0
VERTEX
  5
26f
  8
Layer_5
  10
74.258179
  20
285.01367
  42
-0.014933075
  0
VERTEX
  5
270
  8
Layer_5
  10
74.347473
  20
285.02582
  0
VERTEX
  5
271
  8
Layer_5
  10
74.394958
  20
285.02863
  0
VERTEX
  5
272
  8
Layer_5
  10
74.444153
  20
285.0293
  42
-0.012160628
  0
VERTEX
  5
273
  8
Layer_5
  10
74.601868
  20
285.0188
  42
-0.014140685
  0
VERTEX
  5
274
  8
Layer_5
  10
74.77356
  20
284.9906
  0
VERTEX
  5
275
  8
Layer_5
  10
74.833557
  20
284.97754
  0
VERTEX
  5
276
  8
Layer_5
  10
74.894897
  20
284.96271
  0
VERTEX
  5
277
  8
Layer_5
  10
74.957275
  20
284.94629
  0
VERTEX
  5
278
  8
Layer_5
  10
75.020752
  20
284.92834
  42
-0.035430463
  0
VERTEX
  5
279
  8
Layer_5
  10
77.217896
  20
283.96301
  0
VERTEX
  5
27a
  8
Layer_5
  10
77.335571
  20
283.90985
  42
0.0040635774
  0
VERTEX
  5
27b
  8
Layer_5
  10
77.403992
  20
283.88153
  0
VERTEX
  5
27c
  8
Layer_5
  10
77.423035
  20
283.87427
  42
0.0022712281
  0
VERTEX
  5
27d
  8
Layer_5
  10
77.4552
  20
283.86328
  0
VERTEX
  5
27e
  8
Layer_5
  10
77.479736
  20
283.85693
  42
0.010768874
  0
VERTEX
  5
27f
  8
Layer_5
  10
77.496521
  20
283.8551
  42
0.040154155
  0
VERTEX
  5
280
  8
Layer_5
  10
77.507324
  20
283.86102
  42
0.03142034
  0
VERTEX
  5
281
  8
Layer_5
  10
77.505005
  20
283.87079
  42
0.036210097
  0
VERTEX
  5
282
  8
Layer_5
  10
77.452087
  20
283.92767
  0
VERTEX
  5
283
  8
Layer_5
  10
77.436646
  20
283.94116
  0
VERTEX
  5
284
  8
Layer_5
  10
77.400024
  20
283.97156
  0
SEQEND
  0
POLYLINE
  5
286
  8
Layer_5
  62
30
  66
1
  10
0
  20
0
  30
0
  0
VERTEX
  5
286
  8
Layer_5
  10
76.061707
  20
226.84637
  0
VERTEX
  5
287
  8
Layer_5
  10
75.794861
  20
227.20618
  42
-0.068540949
  0
VERTEX
  5
288
  8
Layer_5
  10
73.362
  20
231.5083
  42
-0.16589872
  0
VERTEX
  5
289
  8
Layer_5
  10
73.124268
  20
236.93182
  0
VERTEX
  5
28a
  8
Layer_5
  10
73.190674
  20
237.18298
  42
-0.0030960024
  0
VERTEX
  5
28b
  8
Layer_5
  10
73.630493
  20
238.70892
  0
VERTEX
  5
28c
  8
Layer_5
  10
73.703674
  20
238.96997
  42
0.13496883
  0
VERTEX
  5
28d
  8
Layer_5
  10
73.84314
  20
245.91339
  42
0.054603273
  0
VERTEX
  5
28e
  8
Layer_5
  10
71.636597
  20
251.90576
  42
0.005640628
  0
VERTEX
  5
28f
  8
Layer_5
  10
71.163025
  20
252.86566
  0
SEQEND
  0
POLYLINE
  5
291
  8
Layer_5
  62
30
  66
1
  10
0
  20
0
  30
0
  0
VERTEX
  5
291
  8
Layer_5
  10
77.847412
  20
264.68298
  42
-0.082738509
  0
VERTEX
  5
292
  8
Layer_5
  10
75.646179
  20
261.05188
  42
-0.20499004
  0
VERTEX
  5
293
  8
Layer_5
  10
70.923584
  20
258.86768
  42
-0.0098442618
  0
VERTEX
  5
294
  8
Layer_5
  10
70.426086
  20
258.85016
  0
SEQEND
  0
POLYLINE
  5
296
  8
Layer_5
  62
30
  66
1
  10
0
  20
0
  30
0
  0
VERTEX
  5
296
  8
Layer_5
  10
72.781616
  20
274.49969
  0
VERTEX
  5
297
  8
Layer_5
  10
72.620728
  20
274.64008
  42
-0.24223579
  0
VERTEX
  5
298
  8
Layer_5
  10
70.730591
  20
279.40527
  42
-0.12148551
  0
VERTEX
  5
299
  8
Layer_5
  10
71.897949
  20
283.1142
  42
-0.16454646
  0
VERTEX
  5
29a
  8
Layer_5
  10
72.776489
  20
283.89185
  0
VERTEX
  5
29b
  8
Layer_5
  10
72.86792
  20
283.91241
  0
VERTEX
  5
29c
  8
Layer_5
  10
72.959839
  20
283.92133
  42
-0.15612819
  0
VERTEX
  5
29d
  8
Layer_5
  10
73.42395
  20
283.78326
  0
VERTEX
  5
29e
  8
Layer_5
  10
73.517456
  20
283.71771
  0
VERTEX
  5
29f
  8
Layer_5
  10
73.611206
  20
283.6391
  0
VERTEX
  5
2a0
  8
Layer_5
  10
73.705017
  20
283.5473
  42
-0.090159907
  0
VERTEX
  5
2a1
  8
Layer_5
  10
74.647095
  20
281.88873
  42
-0.040147646
  0
VERTEX
  5
2a2
  8
Layer_5
  10
76.053101
  20
276.85907
  42
-0.0080672915
  0
VERTEX
  5
2a3
  8
Layer_5
  10
76.609741
  20
274.01044
  0
SEQEND
  0
POLYLINE
  5
2a5
  8
Layer_5
  62
30
  66
1
  10
0
  20
0
  30
0
  0
VERTEX
  5
2a5
  8
Layer_5
  10
91.263611
  20
251.80255
  42
0.015031787
  0
VERTEX
  5
2a6
  8
Layer_5
  10
101.96967
  20
248.01343
  42
0.0335158
  0
VERTEX
  5
2a7
  8
Layer_5
  10
107.38782
  20
246.60919
  42
0.077680037
  0
VERTEX
  5
2a8
  8
Layer_5
  10
109.2547
  20
246.51611
  42
0.092934301
  0
VERTEX
  5
2a9
  8
Layer_5
  10
109.65967
  20
246.65778
  42
0.070098249
  0
VERTEX
  5
2aa
  8
Layer_5
  10
109.80853
  20
246.80481
  0
VERTEX
  5
2ab
  8
Layer_5
  10
109.84857
  20
246.8927
  0
VERTEX
  5
2ac
  8
Layer_5
  10
109.86682
  20
246.98926
  0
VERTEX
  5
2ad
  8
Layer_5
  10
109.86395
  20
247.09418
  0
VERTEX
  5
2ae
  8
Layer_5
  10
109.84094
  20
247.20654
  0
VERTEX
  5
2af
  8
Layer_5
  10
109.79883
  20
247.32581
  0
VERTEX
  5
2b0
  8
Layer_5
  10
109.73846
  20
247.45117
  42
0.091550359
  0
VERTEX
  5
2b1
  8
Layer_5
  10
108.55927
  20
248.72595
  42
0.097520794
  0
VERTEX
  5
2b2
  8
Layer_5
  10
104.29321
  20
250.89349
  42
0.0011738438
  0
VERTEX
  5
2b3
  8
Layer_5
  10
102.78821
  20
251.35919
  0
VERTEX
  5
2b4
  8
Layer_5
  10
102.52472
  20
251.44269
  42
-0.065433536
  0
VERTEX
  5
2b5
  8
Layer_5
  10
99.049194
  20
252.96802
  42
-0.1331571
  0
VERTEX
  5
2b6
  8
Layer_5
  10
96.967102
  20
255.11646
  42
-0.23577112
  0
VERTEX
  5
2b7
  8
Layer_5
  10
96.842407
  20
258.29193
  42
-0.25083897
  0
VERTEX
  5
2b8
  8
Layer_5
  10
99.169128
  20
259.95319
  42
-0.099937201
  0
VERTEX
  5
2b9
  8
Layer_5
  10
101.93683
  20
259.76105
  42
-0.021604088
  0
VERTEX
  5
2ba
  8
Layer_5
  10
103.05872
  20
259.43176
  0
SEQEND
  0
ENDSEC
  0
EOF
