0
SECTION
2
HEADER
9
$INSUNITS
70
4
9
$ACADVER
1
AC1014
9
$HANDSEED
5
FFFF
0
ENDSEC
0
SECTION
2
TABLES
0
TABLE
2
VPORT
5
8
100
AcDbSymbolTable
0
ENDTAB
0
TABLE
2
LTYPE
5
5
100
AcDbSymbolTable
0
LTYPE
5
14
100
AcDbSymbolTableRecord
100
AcDbLinetypeTableRecord
2
BYBLOCK
70
0
0
LTYPE
5
15
100
AcDbSymbolTableRecord
100
AcDbLinetypeTableRecord
2
BYLAYER
70
0
0
LTYPE
5
16
100
AcDbSymbolTableRecord
100
AcDbLinetypeTableRecord
2
DASHED
70
0
3
Dashed __ __ __ __ __ __ __ __ __ __ __ __ __ _
72
65
73
2
40
0.75
49
0.5
74
0
49
-0.25
74
0
0
ENDTAB
0
TABLE
2
LAYER
5
2
100
AcDbSymbolTable
70
2
0
LAYER
5
50
100
AcDbSymbolTableRecord
100
AcDbLayerTableRecord
2
0
70
0
62
7
6
CONTINUOUS
0
ENDTAB
0
TABLE
2
STYLE
5
3
100
AcDbSymbolTable
70
1
0
STYLE
5
11
100
AcDbSymbolTableRecord
100
AcDbTextStyleTableRecord
2
STANDARD
70
0
0
ENDTAB
0
TABLE
2
VIEW
5
6
100
AcDbSymbolTable
70
0
0
ENDTAB
0
TABLE
2
UCS
5
7
100
AcDbSymbolTable
70
0
0
ENDTAB
0
TABLE
2
APPID
5
9
100
AcDbSymbolTable
70
2
0
APPID
5
12
100
AcDbSymbolTableRecord
100
AcDbRegAppTableRecord
2
ACAD
70
0
0
ENDTAB
0
TABLE
2
DIMSTYLE
5
A
100
AcDbSymbolTable
70
1
0
ENDTAB
0
TABLE
2
BLOCK_RECORD
5
1
100
AcDbSymbolTable
70
1
0
BLOCK_RECORD
5
1F
100
AcDbSymbolTableRecord
100
AcDbBlockTableRecord
2
*MODEL_SPACE
0
BLOCK_RECORD
5
1B
100
AcDbSymbolTableRecord
100
AcDbBlockTableRecord
2
*PAPER_SPACE
0
ENDTAB
0
ENDSEC
0
SECTION
2
BLOCKS
0
BLOCK
5
20
100
AcDbEntity
100
AcDbBlockBegin
2
*MODEL_SPACE
0
ENDBLK
5
21
100
AcDbEntity
100
AcDbBlockEnd
0
BLOCK
5
1C
100
AcDbEntity
100
AcDbBlockBegin
2
*PAPER_SPACE
0
ENDBLK
5
1D
100
AcDbEntity
100
AcDbBlockEnd
0
ENDSEC
0
SECTION
2
ENTITIES
0
LWPOLYLINE
5
100
100
AcDbEntity
8
0
100
AcDbPolyline
90
32
70
1
43
0.0
10
-3.3218159835496408
20
-50.109526724054696
10
-2.7439865422057164
20
-50.051277965704614
10
-2.1661507294460147
20
-50.109526724054696
10
-1.627953406363094
20
-50.276588434399997
10
-1.1409249242932606
20
-50.540933382545923
10
-0.7165937231479802
20
-50.891033765722469
10
-0.36648951712192179
20
-51.315360506876608
10
-0.10214074612655111
20
-51.802385803238487
10
0.064923512785108883
20
-52.340579940613452
10
0.12317354541840686
20
-52.918415753373189
10
0.064923512785108883
20
-53.496244557575437
10
-0.10214074612655111
20
-54.034436146384039
10
-0.36648951712192179
20
-54.521460805604356
10
-0.7165937231479802
20
-54.945788821041681
10
-1.1409249242932606
20
-55.295891752784584
10
-1.627953406363094
20
-55.560239886638399
10
-2.1661507294460147
20
-55.727303508408482
10
-2.7439865422057164
20
-55.785552903900196
10
-3.3218159835496408
20
-55.727303508408482
10
-3.8600069352166422
20
-55.560239886638399
10
-4.3470315944369009
20
-55.295891752784584
10
-4.7713602470157834
20
-54.945788821041681
10
-5.1214631787587361
20
-54.521460805604356
10
-5.3858106754709656
20
-54.034436146384039
10
-5.5528742972410328
20
-53.496244557575437
10
-5.6111243298743307
20
-52.918415753373189
10
-5.5528742972410328
20
-52.340579940613452
10
-5.3858106754709656
20
-51.802385803238487
10
-5.1214631787587361
20
-51.315360506876608
10
-4.7713602470157834
20
-50.891033765722469
10
-4.3470315944369009
20
-50.540933382545923
10
-3.8600069352166422
20
-50.276588434399997
0
LWPOLYLINE
5
101
100
AcDbEntity
8
0
100
AcDbPolyline
90
109
70
1
43
0.0
10
1.002921448695071
20
95.497313495463132
10
-2.0300515517600459
20
86.509926129253387
10
-11.903345431845551
20
86.52808721310646
10
-3.9045393094385528
20
80.991698895332362
10
-6.9735872666631504
20
72.01550546969986
10
-1.9594065666542448
20
75.51424553739966
10
-16.077017867620036
20
47.081705282485409
10
-22.767588173878572
20
33.289370054105305
10
-25.040134599279735
20
28.435378218121059
10
-26.22392965453794
20
25.680434055718919
10
-26.497451990131864
20
24.574390025708723
10
-26.493611937774872
20
24.133207703817376
10
-26.391653992135833
20
23.759694278669663
10
-26.188291776898467
20
23.448681894837051
10
-25.880237004322009
20
23.195002696891116
10
-24.936901733321044
20
22.838970525520921
10
-23.535349522905065
20
22.650253646848455
10
-21.649281716846424
20
22.587507306021593
10
-16.318403418606113
20
22.674546581354136
10
-17.014986495016835
20
20.95384377758915
10
-18.669127754119881
20
17.466056810946
10
-23.723090300663216
20
7.3100428192875633
10
-32.924758577521068
20
-10.878060934245983
10
-34.631049875684269
20
-14.092953149760401
10
-36.244307033303997
20
-17.1545873274553
10
-36.89169194763646
20
-18.621040691552171
10
-37.366591802417936
20
-20.040910085510486
10
-37.619263679511633
20
-21.411437323391382
10
-37.599965297922253
20
-22.729866130680794
10
-36.605458637341862
20
-23.218902883039174
10
-35.456143136314367
20
-23.545862920844627
10
-34.190577966664691
20
-23.738368880546918
10
-32.847325485925992
20
-23.824041487171019
10
-30.082001649897379
20
-23.785375275559044
10
-27.468658382802332
20
-23.650837094766057
10
-27.926061055266587
20
-25.070936496837977
10
-28.928878590733895
20
-27.561165531831033
10
-31.911565191276694
20
-34.401945790547245
10
-37.17078990927579
20
-46.07436313545584
10
-39.395423287183668
20
-50.900613826654748
10
-42.53977564595445
20
-57.844832748062913
10
-44.042282304006825
20
-61.420961307446511
10
-45.277241740286989
20
-64.698318884347088
10
-46.078828299132255
20
-67.400818648274893
10
-46.26528651087169
20
-68.45021951673931
10
-46.281216324880006
20
-69.252372494457205
10
-45.478568288147457
20
-69.679296861869773
10
-44.25574639913787
20
-70.018348572751336
10
-42.665356890289146
20
-70.278155798500336
10
-40.760007268322305
20
-70.467345436231824
10
-36.214856437635412
20
-70.66837889896135
10
-31.041150775137474
20
-70.690464775002653
10
-20.491504338375233
20
-70.473859571837806
10
-15.957277300231834
20
-70.373200120757119
10
-12.477923539660765
20
-70.369656976380654
10
-12.477923539660765
20
-82.777744759902262
10
-0.26528485790668327
20
-82.777744759902276
10
-0.26528485790668299
20
-76.406744759902267
10
2.5347151420933205
20
-76.406744759902267
10
2.5347151420933169
20
-82.777744759902276
10
14.747353823847398
20
-82.777744759902276
10
14.747353823847398
20
-70.259946929028132
10
46.945521926688997
20
-70.046820518939242
10
48.553028881467966
20
-69.005418325983214
10
48.491208307369916
20
-67.701062702111741
10
48.16575383513927
20
-66.184242658262377
10
47.641263339060686
20
-64.531408813699926
10
46.982336604843397
20
-62.81901306197247
10
45.519566556272494
20
-59.521341499789614
10
44.294230506552722
20
-56.902837385823659
10
34.458113201044043
20
-34.729660203994058
10
31.934668063591314
20
-29.223502980335052
10
30.667331003182738
20
-26.373301053243825
10
29.610598546453595
20
-23.656456046439569
10
30.896768875091727
20
-23.627289615919604
10
32.283321498219294
20
-23.680201676320198
10
35.159481847929811
20
-23.782054493597098
10
36.550040180227406
20
-23.705892499472085
10
37.84288584129358
20
-23.461600945698589
10
38.988495089697807
20
-22.986629731059125
10
39.49060917317054
20
-22.643091269107725
10
39.937342909726837
20
-22.218425568628195
10
39.955052260193241
20
-21.689432392940109
10
39.749962116966572
20
-20.817372877218059
10
38.784716183861207
20
-18.234420626776995
10
37.268273964974185
20
-14.85030424236415
10
35.427303040585315
20
-11.045755963330794
10
31.678444759280513
20
-3.6982996873646101
10
29.351484530753513
20
0.7620788177635518
10
18.497768004912452
20
22.651350167523177
10
21.128687459881856
20
22.70838517114619
10
23.761511331060738
20
22.686189069610023
10
25.381854777433439
20
22.724408007826504
10
26.646463597557979
20
22.867546325787842
10
27.583533855314233
20
23.11839980078652
10
28.221261614582094
20
23.479763572973553
10
28.587845487807844
20
23.95443341964139
10
28.711480901729658
20
24.545204480941081
10
28.620365831652261
20
25.254872534165287
10
28.342696341455529
20
26.086233356606385
10
26.54666301333922
20
30.239596267089723
10
23.99484914663601
20
35.76377886344325
10
17.447973382946067
20
49.321011394046579
10
10.350260044188868
20
63.550753243261653
10
4.3498969384598851
20
75.245825431650502
10
8.9794301640532392
20
72.01550546969986
10
5.910382206828686
20
80.991698895332362
10
13.909188329235711
20
86.52808721310646
10
4.0359167491057413
20
86.509926129253387
0
LWPOLYLINE
5
102
100
AcDbEntity
8
0
100
AcDbPolyline
90
32
70
1
43
0.0
10
20.086033283703451
20
-8.3023708236364335
10
20.624230606786398
20
-8.4694318968401738
10
21.111259088856151
20
-8.7337774821275893
10
21.535590290001529
20
-9.0838772281625602
10
21.885694496027579
20
-9.5082046064583459
10
22.150043267022994
20
-9.995229265678649
10
22.317107525934645
20
-10.53342404019519
10
22.375357558567899
20
-11.111259215813352
10
22.317107525934645
20
-11.689088020015586
10
22.150043267022994
20
-12.22727960882418
10
21.885694496027579
20
-12.714304268044483
10
21.535590290001529
20
-13.138632920623419
10
21.111259088856151
20
-13.488735852366336
10
20.624230606786398
20
-13.753083349078548
10
20.086033283703451
20
-13.920146970848624
10
19.508197470943784
20
-13.978397003481877
10
18.930368029599904
20
-13.920146970848624
10
18.392177077932903
20
-13.753083349078548
10
17.905152418712547
20
-13.488735852366336
10
17.480823766133664
20
-13.138632920623419
10
17.130720834390765
20
-12.714304268044483
10
16.866373337678535
20
-12.22727960882418
10
16.699309715908424
20
-11.689088020015586
10
16.64105968327517
20
-11.111259215813352
10
16.699309715908424
20
-10.53342404019519
10
16.866373337678535
20
-9.995229265678649
10
17.130720834390765
20
-9.5082046064583459
10
17.480823766133664
20
-9.0838772281625602
10
17.905152418712547
20
-8.7337774821275893
10
18.392177077932903
20
-8.4694318968401738
10
18.930368029599904
20
-8.3023708236364335
10
19.508197470943784
20
-8.244121428144684
0
LWPOLYLINE
5
103
100
AcDbEntity
8
0
100
AcDbPolyline
90
32
70
1
43
0.0
10
-13.113021178449209
20
-2.0255341424732265
10
-13.537349831028145
20
-1.6754312107303626
10
-13.887452762771062
20
-1.2511031952930196
10
-14.151800259483283
20
-0.76407853607271647
10
-14.318863881253403
20
-0.22588694726408676
10
-14.377113913886603
20
0.35194185693814717
10
-14.318863881253403
20
0.9297776696979021
10
-14.151800259483283
20
1.4679718070727965
10
-13.887452762771062
20
1.9549971034346925
10
-13.537349831028145
20
2.3793238445888321
10
-13.113021178449209
20
2.7294242277654135
10
-12.625996519228915
20
2.9937691759112894
10
-12.087804930420312
20
3.1608308862566048
10
-11.509976126218078
20
3.2190796446067083
10
-10.932140950599925
20
3.1608308862566048
10
-10.39394617608334
20
2.9937691759112894
10
-9.9069215168630986
20
2.7294242277654135
10
-9.4825941385673129
20
2.3793238445888321
10
-9.1324937553907848
20
1.9549971034346925
10
-8.8681488072449088
20
1.4679718070727965
10
-8.7010877340411774
20
0.9297776696979021
10
-8.6428383385494723
20
0.35194185693814717
10
-8.7010877340411774
20
-0.22588694726408676
10
-8.8681488072449088
20
-0.76407853607271647
10
-9.1324937553907848
20
-1.2511031952930196
10
-9.4825941385673129
20
-1.6754312107303626
10
-9.9069215168630986
20
-2.0255341424732265
10
-10.39394617608334
20
-2.2898822763270843
10
-10.932140950599925
20
-2.4569458980971604
10
-11.509976126218078
20
-2.5151959307304494
10
-12.087804930420312
20
-2.4569458980971604
10
-12.625996519228915
20
-2.2898822763270843
0
LWPOLYLINE
5
104
100
AcDbEntity
8
0
100
AcDbPolyline
90
32
70
1
43
0.0
10
8.2775479810467534
20
9.1733863334328447
10
7.7905233218265035
20
9.4377344672865959
10
7.3661946692475233
20
9.7878373990295131
10
7.0160917375046505
20
10.212165414466909
10
6.7517442407923856
20
10.699190073687141
10
6.584680619022274
20
11.237381662495736
10
6.526430586388976
20
11.815210466698041
10
6.584680619022274
20
12.393046279457742
10
6.7517442407923856
20
12.931240416832708
10
7.0160917375046505
20
13.418265713194621
10
7.3661946692475233
20
13.842592454348761
10
7.7905233218265035
20
14.192692837525342
10
8.2775479810467534
20
14.457037785671218
10
8.8157389327137547
20
14.624099496016498
10
9.3935683740575904
20
14.682348254366602
10
9.9714041868173453
20
14.624099496016498
10
10.509601509900222
20
14.457037785671218
10
10.996629991970011
20
14.192692837525342
10
11.420961193115371
20
13.842592454348761
10
11.771065399141474
20
13.418265713194621
10
12.035414170136853
20
12.931240416832708
10
12.202478429048504
20
12.393046279457742
10
12.260728461681794
20
11.815210466698041
10
12.202478429048504
20
11.237381662495736
10
12.035414170136853
20
10.699190073687141
10
11.771065399141474
20
10.212165414466909
10
11.420961193115371
20
9.7878373990295131
10
10.996629991970011
20
9.4377344672865959
10
10.509601509900222
20
9.1733863334328447
10
9.9714041868173453
20
9.0063227116627331
10
9.3935683740575904
20
8.9480733161710546
10
8.8157389327137547
20
9.0063227116627331
0
LWPOLYLINE
5
105
100
AcDbEntity
8
0
100
AcDbPolyline
90
32
70
1
43
0.0
10
1.1390837033983647
20
48.223360430188329
10
0.71475568796097733
20
47.873257498445447
10
0.22773102874068307
20
47.6089100017332
10
-0.31046056006787559
20
47.44184637996316
10
-0.88828936427015392
20
47.38359634732987
10
-1.4661258141715017
20
47.44184637996316
10
-2.0043231372543335
20
47.6089100017332
10
-2.4913516193242113
20
47.873257498445447
10
-2.9156828204694385
20
48.223360430188329
10
-3.2657870264955413
20
48.6476890827673
10
-3.5301357974909653
20
49.134713741987532
10
-3.6971994192610769
20
49.672904693654623
10
-3.755449451894366
20
50.250734134998432
10
-3.6971994192610769
20
50.828569310616594
10
-3.5301357974909653
20
51.366764085133134
10
-3.2657870264955413
20
51.853788744353402
10
-2.9156828204694385
20
52.278115485507577
10
-2.4913516193242113
20
52.628215868684158
10
-2.0043231372543335
20
52.892561453971609
10
-1.4661258141715017
20
53.059622527175314
10
-0.88828936427015392
20
53.117871922667099
10
-0.31046056006787559
20
53.059622527175314
10
0.22773102874068307
20
52.892561453971609
10
0.71475568796097733
20
52.628215868684158
10
1.1390837033983647
20
52.278115485507577
10
1.4891866351412286
20
51.853788744353402
10
1.7535347689950953
20
51.366764085133134
10
1.9205983907651181
20
50.828569310616594
10
1.978848423398416
20
50.250734134998432
10
1.9205983907651181
20
49.672904693654623
10
1.7535347689950953
20
49.134713741987532
10
1.4891866351412286
20
48.6476890827673
0
LWPOLYLINE
5
106
100
AcDbEntity
8
0
100
AcDbPolyline
90
32
70
1
43
0.0
10
26.671208902591772
20
-48.518007563168695
10
27.158233561812075
20
-48.253662615022783
10
27.696425150620669
20
-48.086600904677503
10
28.274253954822957
20
-48.028352146327379
10
28.852089767582658
20
-48.086600904677503
10
29.390283904957641
20
-48.253662615022783
10
29.877309201319502
20
-48.518007563168695
10
30.301635942473641
20
-48.868107946345241
10
30.651736325650205
20
-49.29243468749938
10
30.916081273796099
20
-49.779459983861273
10
31.083142984141414
20
-50.317654121236224
10
31.141391742491482
20
-50.895489933995961
10
31.083142984141414
20
-51.473318738198195
10
30.916081273796099
20
-52.011510327006803
10
30.651736325650205
20
-52.498534986227128
10
30.301635942473641
20
-52.922863001664439
10
29.877309201319502
20
-53.272965933407349
10
29.390283904957641
20
-53.537314067261178
10
28.852089767582658
20
-53.704377689031233
10
28.274253954822957
20
-53.762627084522961
10
27.696425150620669
20
-53.704377689031233
10
27.158233561812075
20
-53.537314067261178
10
26.671208902591772
20
-53.272965933407349
10
26.246880887154429
20
-52.922863001664439
10
25.896777955411476
20
-52.498534986227128
10
25.63242982155769
20
-52.011510327006803
10
25.465366199787578
20
-51.473318738198195
10
25.407116167154289
20
-50.895489933995961
10
25.465366199787578
20
-50.317654121236224
10
25.63242982155769
20
-49.779459983861273
10
25.896777955411476
20
-49.29243468749938
10
26.246880887154429
20
-48.868107946345241
0
LWPOLYLINE
5
107
100
AcDbEntity
8
0
100
AcDbPolyline
90
32
70
1
43
0.0
10
-6.4352669752536062
20
-19.457435569688055
10
-6.7853711812797091
20
-19.881763585125345
10
-7.2097023824249806
20
-20.231866516868298
10
-7.6967308644947696
20
-20.496214650722084
10
-8.2349281875776015
20
-20.663278272492196
10
-8.8127640003374008
20
-20.721528305125485
10
-9.3905934416812276
20
-20.663278272492196
10
-9.9287843933482289
20
-20.496214650722084
10
-10.415809052568523
20
-20.231866516868298
10
-10.840137705147459
20
-19.881763585125345
10
-11.190240636890323
20
-19.457435569688055
10
-11.454588133602543
20
-18.970410910467717
10
-11.621651755372664
20
-18.432219321659158
10
-11.679901788005953
20
-17.854390517456871
10
-11.621651755372664
20
-17.276554704697169
10
-11.454588133602543
20
-16.738360567322186
10
-11.190240636890323
20
-16.251335270960272
10
-10.840137705147459
20
-15.827008529806132
10
-10.415809052568523
20
-15.476908146629622
10
-9.9287843933482289
20
-15.212563198483728
10
-9.3905934416812276
20
-15.045501488138395
10
-8.8127640003374008
20
-14.987252729788292
10
-8.2349281875776015
20
-15.045501488138395
10
-7.6967308644947696
20
-15.212563198483728
10
-7.2097023824249806
20
-15.476908146629622
10
-6.7853711812797091
20
-15.827008529806132
10
-6.4352669752536062
20
-16.251335270960272
10
-6.1709182042581912
20
-16.738360567322186
10
-6.0038539453465223
20
-17.276554704697169
10
-5.9456039127131799
20
-17.854390517456871
10
-6.0038539453465223
20
-18.432219321659158
10
-6.1709182042581912
20
-18.970410910467717
0
LWPOLYLINE
5
108
100
AcDbEntity
8
0
100
AcDbPolyline
90
32
70
1
43
0.0
10
-29.827984129767692
20
-56.193456046314552
10
-29.886234162400946
20
-55.615627242112282
10
-29.827984129767692
20
-55.03779206649412
10
-29.660920507997623
20
-54.49959729197758
10
-29.396573011285405
20
-54.012572632757298
10
-29.046470079542441
20
-53.588245254461562
10
-28.622141426963552
20
-53.238145508426591
10
-28.135116767743213
20
-52.97379992313914
10
-27.596925816076208
20
-52.806738849935364
10
-27.019096374732374
20
-52.748489454443686
10
-26.441260561972662
20
-52.806738849935364
10
-25.90306323888975
20
-52.97379992313914
10
-25.416034756819911
20
-53.238145508426591
10
-24.99170355567464
20
-53.588245254461562
10
-24.64159934964858
20
-54.012572632757298
10
-24.377250578653118
20
-54.49959729197758
10
-24.210186319741453
20
-55.03779206649412
10
-24.151936287108249
20
-55.615627242112282
10
-24.210186319741453
20
-56.193456046314552
10
-24.377250578653118
20
-56.73164763512311
10
-24.64159934964858
20
-57.218672294343449
10
-24.99170355567464
20
-57.643000946922349
10
-25.416034756819911
20
-57.993103878665252
10
-25.90306323888975
20
-58.257451375377478
10
-26.441260561972662
20
-58.42451499714759
10
-27.019096374732374
20
-58.482765029780865
10
-27.596925816076208
20
-58.42451499714759
10
-28.135116767743213
20
-58.257451375377478
10
-28.622141426963552
20
-57.993103878665252
10
-29.046470079542441
20
-57.643000946922349
10
-29.396573011285405
20
-57.218672294343449
10
-29.660920507997623
20
-56.73164763512311
0
LWPOLYLINE
5
109
100
AcDbEntity
8
0
100
AcDbPolyline
90
32
70
1
43
0.0
10
4.5769799350559559
20
-31.903194349659678
10
5.1151740724309391
20
-32.070256060005008
10
5.6021993687928351
20
-32.334601008150869
10
6.0265261099469392
20
-32.684701391327415
10
6.3766264931235472
20
-33.10902813248159
10
6.6409714412694321
20
-33.596053428843469
10
6.8080331516147119
20
-34.13424756621842
10
6.8662819099648154
20
-34.712083378978171
10
6.8080331516147119
20
-35.289912183180405
10
6.6409714412694321
20
-35.828103771988999
10
6.3766264931235472
20
-36.315128431209303
10
6.0265261099469392
20
-36.739456446646663
10
5.6021993687928351
20
-37.089559378389545
10
5.1151740724309391
20
-37.353907512243367
10
4.5769799350559559
20
-37.520971134013465
10
3.9991441222962454
20
-37.579220529505157
10
3.4213153180939671
20
-37.520971134013465
10
2.8831237292853817
20
-37.353907512243367
10
2.3960990700650786
20
-37.089559378389545
10
1.9717710546277356
20
-36.739456446646663
10
1.6216681228848273
20
-36.315128431209303
10
1.357319989031005
20
-35.828103771988999
10
1.1902563672608935
20
-35.289912183180405
10
1.1320063346276488
20
-34.712083378978171
10
1.1902563672608935
20
-34.13424756621842
10
1.357319989031005
20
-33.596053428843469
10
1.6216681228848273
20
-33.10902813248159
10
1.9717710546277356
20
-32.684701391327415
10
2.3960990700650786
20
-32.334601008150869
10
2.8831237292853817
20
-32.070256060005008
10
3.4213153180939671
20
-31.903194349659678
10
3.9991441222962454
20
-31.844945591309592
0
LWPOLYLINE
5
110
100
AcDbEntity
8
0
100
AcDbPolyline
90
25
70
1
43
0.0
10
-24.529303781727812
20
-75.807480764618745
10
-25.527457707773952
20
-75.629002629037544
10
-25.527457707773952
20
-81.80082894145275
10
-28.327457707773949
20
-81.80082894145275
10
-28.327457707773949
20
-75.475724324931278
10
-29.348638300978145
20
-75.620531316714207
10
-30.337970097572544
20
-75.86008253706548
10
-32.202302455464
20
-76.604323804333887
10
-33.8828857276524
20
-77.670261045599332
10
-35.342152134625302
20
-79.019710365432701
10
-36.54253389687004
20
-80.614485319838565
10
-37.446462597732562
20
-82.416401376246128
10
-37.775516919941062
20
-83.383104452165469
10
-38.016369820558694
20
-84.387272727801559
10
-38.16432556607451
20
-85.424134012652729
10
-38.214687148694352
20
-86.488914204792522
10
-38.214687148694352
20
-88.172235911530507
10
-16.528855108304299
20
-88.172235911530507
10
-16.528855108304299
20
-85.315370120559891
10
-16.899100634242021
20
-83.409698742090583
10
-17.578039348628465
20
-81.634525429598341
10
-18.534989698244875
20
-80.02103252959067
10
-19.739272041297546
20
-78.600399840008791
10
-21.160205461709502
20
-77.403809707360182
10
-22.76710968054525
20
-76.462443203869256
0
LWPOLYLINE
5
111
100
AcDbEntity
8
0
100
AcDbPolyline
90
32
70
1
43
0.0
10
-12.368953213693077
20
31.452819618060914
10
-12.633301984688448
20
31.939844277281182
10
-12.800365606458515
20
32.478035228948201
10
-12.858615639091857
20
33.05586467029201
10
-12.800365606458515
20
33.633699845910243
10
-12.633301984688448
20
34.171894620426713
10
-12.368953213693077
20
34.658919279647016
10
-12.018849007666974
20
35.083246020801191
10
-11.594517806521605
20
35.433346403977737
10
-11.107489324451816
20
35.697691989265188
10
-10.56929200136894
20
35.864753062468928
10
-9.9914555514676007
20
35.923002457960571
10
-9.4136267472653667
20
35.864753062468928
10
-8.8754351584567726
20
35.697691989265188
10
-8.3884104992364694
20
35.433346403977737
10
-7.9640824837991797
20
35.083246020801191
10
-7.6139795520563158
20
34.658919279647016
10
-7.3496314182024935
20
34.171894620426713
10
-7.182567796432382
20
33.633699845910243
10
-7.124317763799084
20
33.05586467029201
10
-7.182567796432382
20
32.478035228948201
10
-7.3496314182024935
20
31.939844277281182
10
-7.6139795520563158
20
31.452819618060914
10
-7.9640824837991797
20
31.028490965482014
10
-8.3884104992364694
20
30.678388033739026
10
-8.8754351584567726
20
30.41404053702685
10
-9.4136267472653667
20
30.246976915256738
10
-9.9914555514676007
20
30.188726882623484
10
-10.56929200136894
20
30.246976915256738
10
-11.107489324451816
20
30.41404053702685
10
-11.594517806521605
20
30.678388033739026
10
-12.018849007666974
20
31.028490965482014
0
LWPOLYLINE
5
112
100
AcDbEntity
8
0
100
AcDbPolyline
90
32
70
1
43
0.0
10
14.538059183274825
20
36.951859970170666
10
14.962387835853797
20
36.601755764144563
10
15.312490767596625
20
36.177424562999327
10
15.576838901450447
20
35.690396080929467
10
15.743902523220505
20
35.152198757846556
10
15.802151918712255
20
34.574362307945314
10
15.743902523220505
20
33.996533503743009
10
15.576838901450447
20
33.458341914934451
10
15.312490767596625
20
32.971317255714183
10
14.962387835853797
20
32.546989240276787
10
14.538059183274825
20
32.196886308533905
10
14.051035161196062
20
31.932538174680047
10
13.512843572387574
20
31.765474552909936
10
12.935014131043694
20
31.707224520276682
10
12.357178955425496
20
31.765474552909936
10
11.818984818050602
20
31.932538174680047
10
11.331959521688653
20
32.196886308533905
10
10.907632780534513
20
32.546989240276787
10
10.557532397357985
20
32.971317255714183
10
10.293186812070516
20
33.458341914934451
10
10.126125738866776
20
33.996533503743009
10
10.067876980516672
20
34.574362307945314
10
10.126125738866776
20
35.152198757846556
10
10.293186812070516
20
35.690396080929467
10
10.557532397357985
20
36.177424562999327
10
10.907632780534513
20
36.601755764144563
10
11.331959521688653
20
36.951859970170666
10
11.818984818050602
20
37.216208741166064
10
12.357178955425496
20
37.383272362936175
10
12.935014131043694
20
37.441522395569429
10
13.512843572387574
20
37.383272362936175
10
14.051035161196062
20
37.216208741166064
0
ENDSEC
0
SECTION
2
OBJECTS
0
DICTIONARY
5
C
100
AcDbDictionary
3
ACAD_GROUP
350
D
3
ACAD_MLINESTYLE
350
17
0
DICTIONARY
5
D
100
AcDbDictionary
0
DICTIONARY
5
1A
330
C
100
AcDbDictionary
0
DICTIONARY
5
17
100
AcDbDictionary
0
ENDSEC
0
EOF
