0
SECTION
2
HEADER
9
$INSUNITS
70
4
9
$ACADVER
1
AC1014
9
$HANDSEED
5
FFFF
0
ENDSEC
0
SECTION
2
TABLES
0
TABLE
2
VPORT
5
8
100
AcDbSymbolTable
0
ENDTAB
0
TABLE
2
LTYPE
5
5
100
AcDbSymbolTable
0
LTYPE
5
14
100
AcDbSymbolTableRecord
100
AcDbLinetypeTableRecord
2
BYBLOCK
70
0
0
LTYPE
5
15
100
AcDbSymbolTableRecord
100
AcDbLinetypeTableRecord
2
BYLAYER
70
0
0
LTYPE
5
16
100
AcDbSymbolTableRecord
100
AcDbLinetypeTableRecord
2
DASHED
70
0
3
Dashed __ __ __ __ __ __ __ __ __ __ __ __ __ _
72
65
73
2
40
0.75
49
0.5
74
0
49
-0.25
74
0
0
ENDTAB
0
TABLE
2
LAYER
5
2
100
AcDbSymbolTable
70
2
0
LAYER
5
50
100
AcDbSymbolTableRecord
100
AcDbLayerTableRecord
2
0
70
0
62
7
6
CONTINUOUS
0
ENDTAB
0
TABLE
2
STYLE
5
3
100
AcDbSymbolTable
70
1
0
STYLE
5
11
100
AcDbSymbolTableRecord
100
AcDbTextStyleTableRecord
2
STANDARD
70
0
0
ENDTAB
0
TABLE
2
VIEW
5
6
100
AcDbSymbolTable
70
0
0
ENDTAB
0
TABLE
2
UCS
5
7
100
AcDbSymbolTable
70
0
0
ENDTAB
0
TABLE
2
APPID
5
9
100
AcDbSymbolTable
70
2
0
APPID
5
12
100
AcDbSymbolTableRecord
100
AcDbRegAppTableRecord
2
ACAD
70
0
0
ENDTAB
0
TABLE
2
DIMSTYLE
5
A
100
AcDbSymbolTable
70
1
0
ENDTAB
0
TABLE
2
BLOCK_RECORD
5
1
100
AcDbSymbolTable
70
1
0
BLOCK_RECORD
5
1F
100
AcDbSymbolTableRecord
100
AcDbBlockTableRecord
2
*MODEL_SPACE
0
BLOCK_RECORD
5
1B
100
AcDbSymbolTableRecord
100
AcDbBlockTableRecord
2
*PAPER_SPACE
0
ENDTAB
0
ENDSEC
0
SECTION
2
BLOCKS
0
BLOCK
5
20
100
AcDbEntity
100
AcDbBlockBegin
2
*MODEL_SPACE
0
ENDBLK
5
21
100
AcDbEntity
100
AcDbBlockEnd
0
BLOCK
5
1C
100
AcDbEntity
100
AcDbBlockBegin
2
*PAPER_SPACE
0
ENDBLK
5
1D
100
AcDbEntity
100
AcDbBlockEnd
0
ENDSEC
0
SECTION
2
ENTITIES
0
SPLINE
5
100
100
AcDbEntity
8
0
100
AcDbSpline
70
4
71
5
72
16
73
10
74
0
42
0.000000001
43
0.0000000001
44
0.0000000001
40
0
40
0
40
0
40
0
40
0
40
0
40
0.20000000000000001
40
0.40000000000000002
40
0.60000000000000009
40
0.80000000000000004
40
1
40
1
40
1
40
1
40
1
40
1
41
1
41
1
41
1
41
1
41
1
41
1
41
1
41
1
41
1
41
1
10
121.6033616499638
20
200.79453587047294
30
0
10
124.86625421273845
20
200.7945358704535
30
0
10
131.39203933829171
20
200.79453587041985
30
0
10
141.18071702663394
20
200.79453587038608
30
0
10
154.23228727777834
20
200.79453587037096
30
0
10
170.54675009173096
20
200.79453587038631
30
0
10
183.59832034290002
20
200.79453587041488
30
0
10
193.38699803127707
20
200.7945358704421
30
0
10
199.91278315686128
20
200.79453587046228
30
0
10
203.17567571965327
20
200.79453587047294
30
0
0
SPLINE
5
101
100
AcDbEntity
8
0
100
AcDbSpline
70
4
71
5
72
31
73
25
74
0
42
0.000000001
43
0.0000000001
44
0.0000000001
40
0
40
0
40
0
40
0
40
0
40
0
40
0.050000000000000003
40
0.10000000000000001
40
0.15000000000000002
40
0.20000000000000001
40
0.25
40
0.29999999999999999
40
0.34999999999999998
40
0.39999999999999997
40
0.44999999999999996
40
0.49999999999999994
40
0.54999999999999993
40
0.59999999999999998
40
0.65000000000000002
40
0.70000000000000007
40
0.75000000000000011
40
0.80000000000000016
40
0.8500000000000002
40
0.90000000000000024
40
0.95000000000000029
40
1
40
1
40
1
40
1
40
1
40
1
41
1
41
1
41
1
41
1
41
1
41
1
41
1
41
1
41
1
41
1
41
1
41
1
41
1
41
1
41
1
41
1
41
1
41
1
41
1
41
1
41
1
41
1
41
1
41
1
41
1
10
203.17567571965327
20
200.79453587047294
30
0
10
204.17777194768541
20
201.15664246118601
30
0
10
206.22827628537479
20
201.86720004375866
30
0
10
209.44296925235787
20
202.89207012729221
30
0
10
214.00822677551307
20
204.17629260749297
30
0
10
220.17090671576395
20
205.63493006858874
30
0
10
226.75098304233472
20
206.92164089753385
30
0
10
233.6615988025211
20
207.98841102387459
30
0
10
240.74738235179086
20
208.75694661465076
30
0
10
247.76607538349003
20
209.11214051144444
30
0
10
254.43222727320372
20
208.92014052388916
30
0
10
260.45785037103832
20
208.04551546103781
30
0
10
265.59399776386158
20
206.36907456731308
30
0
10
269.67369860118447
20
203.80661784524219
30
0
10
272.65447518662279
20
200.3277823424159
30
0
10
274.57588266779021
20
195.93926527884059
30
0
10
275.5232489338805
20
190.67076765056817
30
0
10
275.587398474422
20
184.56033432587091
30
0
10
274.83974340662076
20
177.64444182537406
30
0
10
273.33695740976827
20
169.95650525008716
30
0
10
271.12002827190389
20
161.52436034698181
30
0
10
268.79691988245258
20
154.20001546232655
30
0
10
266.75203381580837
20
148.3870793541443
30
0
10
265.254858051474
20
144.37028902513615
30
0
10
264.47279033849509
20
142.32651884942382
30
0
0
SPLINE
5
102
100
AcDbEntity
8
0
100
AcDbSpline
70
4
71
5
72
31
73
25
74
0
42
0.000000001
43
0.0000000001
44
0.0000000001
40
0
40
0
40
0
40
0
40
0
40
0
40
0.050000000000000003
40
0.10000000000000001
40
0.15000000000000002
40
0.20000000000000001
40
0.25
40
0.29999999999999999
40
0.34999999999999998
40
0.39999999999999997
40
0.44999999999999996
40
0.49999999999999994
40
0.54999999999999993
40
0.59999999999999998
40
0.65000000000000002
40
0.70000000000000007
40
0.75000000000000011
40
0.80000000000000016
40
0.8500000000000002
40
0.90000000000000024
40
0.95000000000000029
40
1
40
1
40
1
40
1
40
1
40
1
41
1
41
1
41
1
41
1
41
1
41
1
41
1
41
1
41
1
41
1
41
1
41
1
41
1
41
1
41
1
41
1
41
1
41
1
41
1
41
1
41
1
41
1
41
1
41
1
41
1
10
264.47279033849509
20
142.32651884942382
30
0
10
264.65135243200444
20
141.36891012626199
30
0
10
265.00596710708658
20
139.4412713235719
30
0
10
265.53036123842969
20
136.5125491418471
30
0
10
266.21443091193566
20
132.53275337326306
30
0
10
267.03480065732782
20
127.43215819612388
30
0
10
267.79233192241765
20
122.20546065528293
30
0
10
268.43113337230074
20
116.85464904667762
30
0
10
268.85742248630396
20
111.38541937025533
30
0
10
268.93089931065072
20
105.80884876593827
30
0
10
268.49408025203178
20
100.14525197689004
30
0
10
267.39906389304917
20
94.427932985884482
30
0
10
265.53748352722198
20
88.707683954355403
30
0
10
262.86648289147485
20
83.056381264142146
30
0
10
259.44788763490567
20
77.573692794192283
30
0
10
255.4361735782953
20
72.38110450213243
30
0
10
251.03904721443399
20
67.608883092154699
30
0
10
246.48861638149481
20
63.385399617671538
30
0
10
242.00817018966467
20
59.82451261889959
30
0
10
237.78357327847746
20
57.01433416763804
30
0
10
233.92576040487467
20
55.000909198206841
30
0
10
231.17251116617038
20
54.038856993701458
30
0
10
229.3008882408011
20
53.681381820875352
30
0
10
228.13867928617225
20
53.604197534650126
30
0
10
227.57896136093959
20
53.605889445786161
30
0
0
SPLINE
5
103
100
AcDbEntity
8
0
100
AcDbSpline
70
4
71
5
72
26
73
20
74
0
42
0.000000001
43
0.0000000001
44
0.0000000001
40
0
40
0
40
0
40
0
40
0
40
0
40
0.066666666666666666
40
0.13333333333333333
40
0.20000000000000001
40
0.26666666666666666
40
0.33333333333333331
40
0.39999999999999997
40
0.46666666666666662
40
0.53333333333333333
40
0.59999999999999998
40
0.66666666666666663
40
0.73333333333333328
40
0.79999999999999993
40
0.86666666666666659
40
0.93333333333333324
40
1
40
1
40
1
40
1
40
1
40
1
41
1
41
1
41
1
41
1
41
1
41
1
41
1
41
1
41
1
41
1
41
1
41
1
41
1
41
1
41
1
41
1
41
1
41
1
41
1
41
1
10
141.04269591204766
20
200.79453587038211
30
0
10
141.26577006562096
20
199.31012621968281
30
0
10
141.59411679978459
20
196.31475992236307
30
0
10
141.73322383520662
20
191.74206391972322
30
0
10
141.2068075728323
20
185.4847325240903
30
0
10
139.34198158746787
20
177.39881826739315
30
0
10
136.26538118613149
20
169.07129875093233
30
0
10
132.00879063066472
20
160.55629679228878
30
0
10
126.67752701378048
20
151.95929050714477
30
0
10
120.44520224186388
20
143.43174158878054
30
0
10
113.51832089238309
20
135.14712603967905
30
0
10
106.1138694987816
20
127.28310313024791
30
0
10
98.434590894649318
20
120.0006259841871
30
0
10
90.647221240088655
20
113.42307579320682
30
0
10
82.85902836340378
20
107.61164403683937
30
0
10
75.131298935687198
20
102.58535873227243
30
0
10
69.020329032481001
20
99.188548088303406
30
0
10
64.480739853713075
20
96.986060314851144
30
0
10
61.473601868748588
20
95.670011865890601
30
0
10
59.974846562941096
20
95.050056996565246
30
0
0
SPLINE
5
104
100
AcDbEntity
8
0
100
AcDbSpline
70
4
71
5
72
26
73
20
74
0
42
0.000000001
43
0.0000000001
44
0.0000000001
40
0
40
0
40
0
40
0
40
0
40
0
40
0.066666666666666666
40
0.13333333333333333
40
0.20000000000000001
40
0.26666666666666666
40
0.33333333333333331
40
0.39999999999999997
40
0.46666666666666662
40
0.53333333333333333
40
0.59999999999999998
40
0.66666666666666663
40
0.73333333333333328
40
0.79999999999999993
40
0.86666666666666659
40
0.93333333333333324
40
1
40
1
40
1
40
1
40
1
40
1
41
1
41
1
41
1
41
1
41
1
41
1
41
1
41
1
41
1
41
1
41
1
41
1
41
1
41
1
41
1
41
1
41
1
41
1
41
1
41
1
10
185.01855480341999
20
200.79453587038211
30
0
10
184.56643838848385
20
198.91609186504201
30
0
10
183.81127356770494
20
195.15160119984307
30
0
10
183.12572497410082
20
189.48205843691355
30
0
10
183.11260640184915
20
181.87671184773842
30
0
10
184.62462049736561
20
172.30189499547282
30
0
10
187.67731500568641
20
162.68786498441096
30
0
10
192.23798156589552
20
153.09625401356129
30
0
10
198.19657006434457
20
143.63333336298734
30
0
10
205.32066872419904
20
134.46573715976663
30
0
10
213.29522803362124
20
125.80107183794887
30
0
10
221.76663706906211
20
117.86516887609517
30
0
10
230.38093437839103
20
110.87948087612737
30
0
10
238.8213860794836
20
105.03673341766637
30
0
10
246.84775123775671
20
100.47219240717382
30
0
10
254.33278619257763
20
97.235348850215416
30
0
10
259.84594016680592
20
95.708438646300237
30
0
10
263.71012702377408
20
95.151958162153051
30
0
10
266.16681107138811
20
95.040730875516587
30
0
10
267.36529340661389
20
95.050056996561736
30
0
0
CIRCLE
5
105
100
AcDbEntity
8
0
100
AcDbCircle
10
134.14140344337383
20
91.444150037608495
30
0
40
2.6081525052774173
210
0
220
0
230
1
0
LINE
5
106
100
AcDbEntity
8
0
100
AcDbLine
10
156.10720898696368
20
96.732214335139389
30
0
11
168.21007412822149
21
96.732214335139389
31
0
0
SPLINE
5
107
100
AcDbEntity
8
0
100
AcDbSpline
70
4
71
5
72
31
73
25
74
0
42
0.000000001
43
0.0000000001
44
0.0000000001
40
0
40
0
40
0
40
0
40
0
40
0
40
0.050000000000000003
40
0.10000000000000001
40
0.15000000000000002
40
0.20000000000000001
40
0.25
40
0.29999999999999999
40
0.34999999999999998
40
0.39999999999999997
40
0.44999999999999996
40
0.49999999999999994
40
0.54999999999999993
40
0.59999999999999998
40
0.65000000000000002
40
0.70000000000000007
40
0.75000000000000011
40
0.80000000000000016
40
0.8500000000000002
40
0.90000000000000024
40
0.95000000000000029
40
1
40
1
40
1
40
1
40
1
40
1
41
1
41
1
41
1
41
1
41
1
41
1
41
1
41
1
41
1
41
1
41
1
41
1
41
1
41
1
41
1
41
1
41
1
41
1
41
1
41
1
41
1
41
1
41
1
41
1
41
1
10
156.10720898696368
20
96.732214335139389
30
0
10
156.00804572954439
20
96.636246516238899
30
0
10
155.83456674717553
20
96.43024236492036
30
0
10
155.64889065225404
20
96.079030908708134
30
0
10
155.55101756782429
20
95.525991112312539
30
0
10
155.67926599875352
20
94.698575206181502
30
0
10
156.05511856321459
20
93.754078785795656
30
0
10
156.66756659997941
20
92.733686147159773
30
0
10
157.49344157340283
20
91.709063783365409
30
0
10
158.50007468881287
20
90.768890568564231
30
0
10
159.64758430677273
20
90.005892515611961
30
0
10
160.89096874584928
20
89.503723624143291
30
0
10
162.1820119725852
20
89.323717097874734
30
0
10
163.47108344969871
20
89.490968532000096
30
0
10
164.70887626126444
20
89.980213285689373
30
0
10
165.84799702703961
20
90.730622835640148
30
0
10
166.84460964362157
20
91.659411928364051
30
0
10
167.66022505410047
20
92.675236927043585
30
0
10
168.26360556200302
20
93.691077907372744
30
0
10
168.63304456142015
20
94.637607590701535
30
0
10
168.75852445644327
20
95.475463944911155
30
0
10
168.66167087509672
20
96.044096878160474
30
0
10
168.47863143250208
20
96.411165960244304
30
0
10
168.30773777326067
20
96.629581051572416
30
0
10
168.21007412822149
20
96.732214335139389
30
0
0
LWPOLYLINE
5
108
100
AcDbEntity
8
0
100
AcDbPolyline
90
6
70
1
43
0.0
10
162.38951868475655
20
84.318731633830282
10
155.29366063349738
20
78.427376382147841
10
156.83398177086963
20
76.572132609328989
10
162.38951868475655
20
81.184632089604662
10
167.94505559864348
20
76.572132609328989
10
169.48537673601572
20
78.427376382147841
0
LINE
5
109
100
AcDbEntity
8
0
100
AcDbLine
10
128.58215636135418
20
116.25737481833039
30
0
11
148.21007412822149
21
110
31
0
0
SPLINE
5
110
100
AcDbEntity
8
0
100
AcDbSpline
70
4
71
5
72
31
73
25
74
0
42
0.000000001
43
0.0000000001
44
0.0000000001
40
0
40
0
40
0
40
0
40
0
40
0
40
0.050000000000000003
40
0.10000000000000001
40
0.15000000000000002
40
0.20000000000000001
40
0.25
40
0.29999999999999999
40
0.34999999999999998
40
0.39999999999999997
40
0.44999999999999996
40
0.49999999999999994
40
0.54999999999999993
40
0.59999999999999998
40
0.65000000000000002
40
0.70000000000000007
40
0.75000000000000011
40
0.80000000000000016
40
0.8500000000000002
40
0.90000000000000024
40
0.95000000000000029
40
1
40
1
40
1
40
1
40
1
40
1
41
1
41
1
41
1
41
1
41
1
41
1
41
1
41
1
41
1
41
1
41
1
41
1
41
1
41
1
41
1
41
1
41
1
41
1
41
1
41
1
41
1
41
1
41
1
41
1
41
1
10
128.58215636135418
20
116.25737481833039
30
0
10
128.29752729706655
20
116.34113375327669
30
0
10
127.74442878855047
20
116.48520466765768
30
0
10
126.96326007369173
20
116.63097171445023
30
0
10
126.01905382134046
20
116.68406159698476
30
0
10
125.00427214622361
20
116.51575604393068
30
0
10
124.16052768489138
20
116.12084153592983
30
0
10
123.49584979207106
20
115.52063025364866
30
0
10
123.02047022843146
20
114.75453530764705
30
0
10
122.74713986550032
20
113.88877570215286
30
0
10
122.68914508364062
20
113.01454530929956
30
0
10
122.85420680067506
20
112.22558224449824
30
0
10
123.23855469476756
20
111.5992108880419
30
0
10
123.82145486159855
20
111.17797208330384
30
0
10
124.55667737602971
20
110.94470495559574
30
0
10
125.37873928302693
20
110.83301970668451
30
0
10
126.21450474592731
20
110.75075408832129
30
0
10
126.99273085692391
20
110.59847717097115
30
0
10
127.65447000243921
20
110.2898749870357
30
0
10
128.16315445532078
20
109.77123207066589
30
0
10
128.49905371614611
20
109.01340695179996
30
0
10
128.62314737922483
20
108.20622683360438
30
0
10
128.63435686170945
20
107.48699036168293
30
0
10
128.60559558757967
20
106.95710501362143
30
0
10
128.58215636135418
20
106.67956371572031
30
0
0
SPLINE
5
111
100
AcDbEntity
8
0
100
AcDbSpline
70
4
71
5
72
26
73
20
74
0
42
0.000000001
43
0.0000000001
44
0.0000000001
40
0
40
0
40
0
40
0
40
0
40
0
40
0.066666666666666666
40
0.13333333333333333
40
0.20000000000000001
40
0.26666666666666666
40
0.33333333333333331
40
0.39999999999999997
40
0.46666666666666662
40
0.53333333333333333
40
0.59999999999999998
40
0.66666666666666663
40
0.73333333333333328
40
0.79999999999999993
40
0.86666666666666659
40
0.93333333333333324
40
1
40
1
40
1
40
1
40
1
40
1
41
1
41
1
41
1
41
1
41
1
41
1
41
1
41
1
41
1
41
1
41
1
41
1
41
1
41
1
41
1
41
1
41
1
41
1
41
1
41
1
10
148.21007412822149
20
110
30
0
10
148.31830197101877
20
109.86406602862304
30
0
10
148.52357910158241
20
109.59395369702435
30
0
10
148.79795968343703
20
109.19405229470051
30
0
10
149.09623790365123
20
108.67145882688824
30
0
10
149.35379545360379
20
108.03761779492672
30
0
10
149.49308385794376
20
107.42751159303928
30
0
10
149.51243733753461
20
106.84931289699881
30
0
10
149.41306729910187
20
106.31597382732301
30
0
10
149.20188199653643
20
105.84695461864086
30
0
10
148.89041898581445
20
105.46622932699029
30
0
10
148.49203714409765
20
105.19816638985021
30
0
10
148.02016122232513
20
105.06429920626357
30
0
10
147.48619898072516
20
105.07825835799053
30
0
10
146.89863906607857
20
105.24458242146036
30
0
10
146.26348645501827
20
105.56291543184327
30
0
10
145.7202826331546
20
105.93680233419573
30
0
10
145.2939944376005
20
106.28284675735081
30
0
10
145.00146926846415
20
106.54249869457854
30
0
10
144.85312343068
20
106.67956371572031
30
0
0
ARC
5
112
100
AcDbEntity
8
0
100
AcDbCircle
10
136.71763989601709
20
105.13888065429107
30
0
40
8.2800843376469526
210
0
220
0
230
1
100
AcDbArc
50
-190.72357682966592
51
10.723576829665944
0
ARC
5
113
100
AcDbEntity
8
0
100
AcDbCircle
10
136.71763989601709
20
105.13888065429107
30
0
40
8.2800843376469544
210
0
220
-0
230
1
100
AcDbArc
50
61.109123667497741
51
83.526341754517333
0
LINE
5
114
100
AcDbEntity
8
0
100
AcDbLine
10
177.58998375482213
20
108.09164084405774
30
0
11
175.99526627235753
21
108.09164084405774
31
0
0
LINE
5
115
100
AcDbEntity
8
0
100
AcDbLine
10
175.99526627235753
20
108.09164084405774
30
0
11
199.65024226224949
21
116.06522825638086
31
0
0
SPLINE
5
116
100
AcDbEntity
8
0
100
AcDbSpline
70
4
71
5
72
31
73
25
74
0
42
0.000000001
43
0.0000000001
44
0.0000000001
40
0
40
0
40
0
40
0
40
0
40
0
40
0.050000000000000003
40
0.10000000000000001
40
0.15000000000000002
40
0.20000000000000001
40
0.25
40
0.29999999999999999
40
0.34999999999999998
40
0.39999999999999997
40
0.44999999999999996
40
0.49999999999999994
40
0.54999999999999993
40
0.59999999999999998
40
0.65000000000000002
40
0.70000000000000007
40
0.75000000000000011
40
0.80000000000000016
40
0.8500000000000002
40
0.90000000000000024
40
0.95000000000000029
40
1
40
1
40
1
40
1
40
1
40
1
41
1
41
1
41
1
41
1
41
1
41
1
41
1
41
1
41
1
41
1
41
1
41
1
41
1
41
1
41
1
41
1
41
1
41
1
41
1
41
1
41
1
41
1
41
1
41
1
41
1
10
199.65024226224949
20
116.06522825638086
30
0
10
199.83413070060755
20
116.06300153293742
30
0
10
200.1858972872503
20
116.03993672058289
30
0
10
200.66551624202066
20
115.94950228766135
30
0
10
201.20855484937437
20
115.71681979085106
30
0
10
201.72460882529762
20
115.24202013451571
30
0
10
202.0760149141023
20
114.59723020972604
30
0
10
202.26210992792539
20
113.81333770282401
30
0
10
202.28492916379122
20
112.94783057611382
30
0
10
202.15031228515269
20
112.08398030263078
30
0
10
201.86808999664748
20
111.31001507333562
30
0
10
201.45278575184361
20
110.70181913135195
30
0
10
200.92412207473186
20
110.30599703938856
30
0
10
200.30840275462677
20
110.11746841291054
30
0
10
199.63785095210091
20
110.07480631596624
30
0
10
198.94646636658538
20
110.08624478058955
30
0
10
198.26670797514839
20
110.04828588583683
30
0
10
197.62601127700822
20
109.86621077571647
30
0
10
197.04292679834381
20
109.47569049352849
30
0
10
196.5286455411279
20
108.83815120156099
30
0
10
196.0889945827243
20
107.93356276800401
30
0
10
195.79867529693615
20
106.99051683119434
30
0
10
195.61550326247954
20
106.15978735524509
30
0
10
195.5086890437444
20
105.55132801998971
30
0
10
195.45910707443812
20
105.23343832870695
30
0
0
SPLINE
5
117
100
AcDbEntity
8
0
100
AcDbSpline
70
4
71
5
72
26
73
20
74
0
42
0.000000001
43
0.0000000001
44
0.0000000001
40
0
40
0
40
0
40
0
40
0
40
0
40
0.066666666666666666
40
0.13333333333333333
40
0.20000000000000001
40
0.26666666666666666
40
0.33333333333333331
40
0.39999999999999997
40
0.46666666666666662
40
0.53333333333333333
40
0.59999999999999998
40
0.66666666666666663
40
0.73333333333333328
40
0.79999999999999993
40
0.86666666666666659
40
0.93333333333333324
40
1
40
1
40
1
40
1
40
1
40
1
41
1
41
1
41
1
41
1
41
1
41
1
41
1
41
1
41
1
41
1
41
1
41
1
41
1
41
1
41
1
41
1
41
1
41
1
41
1
41
1
10
175.99526627235753
20
108.09164084405774
30
0
10
175.92489661444301
20
107.95557942097049
30
0
10
175.79762351419521
20
107.69174643462934
30
0
10
175.64711180925175
20
107.32086616360874
30
0
10
175.52781890739371
20
106.87646234955736
30
0
10
175.51653679264913
20
106.40617280890118
30
0
10
175.64350916997478
20
106.02244949735956
30
0
10
175.90433058809646
20
105.72480449099973
30
0
10
176.28674143872553
20
105.50940805539655
30
0
10
176.76588759376799
20
105.36671647838737
30
0
10
177.30795396980523
20
105.28309595332514
30
0
10
177.87516519798453
20
105.2430594276811
30
0
10
178.43007076363489
20
105.23106325290343
30
0
10
178.93965023912909
20
105.2331917991244
30
0
10
179.38037531197244
20
105.23907257994041
30
0
10
179.74073074249799
20
105.24287117920193
30
0
10
179.96128000417735
20
105.24197014466145
30
0
10
180.0885639991136
20
105.23870498090875
30
0
10
180.15659329599271
20
105.23538445633859
30
0
10
180.1864014601689
20
105.23343832870695
30
0
0
LWPOLYLINE
5
118
100
AcDbEntity
8
0
100
AcDbPolyline
90
4
70
1
43
0.0
10
100.21007564813992
20
93.000001385807991
10
114.21007585675618
20
95.000001415610313
10
114.73197770254967
20
91.346688495055901
10
100.21007564813992
20
89.272131058711665
0
LWPOLYLINE
5
119
100
AcDbEntity
8
0
100
AcDbPolyline
90
4
70
1
43
0.0
10
104.21007570774456
20
83.000001236796379
10
114.73197770254967
20
85.600148032437147
10
115.28388749853312
20
81.736779460552924
10
104.83405417255567
20
79.15444209883492
0
LWPOLYLINE
5
120
100
AcDbEntity
8
0
100
AcDbPolyline
90
4
70
1
43
0.0
10
212.2309253672839
20
93.034040448753899
10
209.52028519800481
20
89.419853556381781
10
225.39689190378226
20
86.838291490401716
10
227.46214155656631
20
91.22694700256784
0
LWPOLYLINE
5
121
100
AcDbEntity
8
0
100
AcDbPolyline
90
4
70
1
43
0.0
10
212.2309253672839
20
82.96594839143161
10
210.09339197665241
20
80.115903870589591
10
221.57300982341309
20
78.249299342661033
10
224.04172991467522
20
81.540926131010593
0
LWPOLYLINE
5
122
100
AcDbEntity
8
0
100
AcDbPolyline
90
11
70
1
43
0.0
10
65.081808153909321
20
181.03459915997416
10
78.482250121137753
20
194.99406869838197
10
81.27605953732197
20
193.20426046624021
10
81.27605953732197
20
178.91412787176114
10
82.900962578823339
20
177.35429647200039
10
89.975974432382841
20
184.72445729917081
10
91.541602054654419
20
181.0393768855856
10
80.938597245318519
20
169.99404546939144
10
76.421719825657206
20
172.73710281479279
10
76.421719825657206
20
184.99406869838197
10
68.391573099247665
20
177.6137356998579
0
LINE
5
123
100
AcDbEntity
8
0
100
AcDbLine
10
-8.8817841970012523e-15
20
233.6330176051739
30
0
11
0
21
25.000000000000036
31
0
0
LINE
5
124
100
AcDbEntity
8
0
100
AcDbLine
10
330
20
24.999999999999996
30
0
11
330
21
233.63301760517388
31
0
0
LINE
5
125
100
AcDbEntity
8
0
100
AcDbLine
10
24.999999999999996
20
-4.4408920985006262e-15
30
0
11
305
21
-8.8817841970012523e-15
31
0
0
ARC
5
126
100
AcDbEntity
8
0
100
AcDbCircle
10
187.82275426730351
20
103.70616776728002
30
0
40
7.7875823952516949
210
0
220
0
230
1
100
AcDbArc
50
-191.30993247402026
51
11.309932474020261
0
SPLINE
5
127
100
AcDbEntity
8
0
100
AcDbSpline
70
4
71
5
72
31
73
25
74
0
42
0.000000001
43
0.0000000001
44
0.0000000001
40
0
40
0
40
0
40
0
40
0
40
0
40
0.050000000000000003
40
0.10000000000000001
40
0.15000000000000002
40
0.20000000000000001
40
0.25
40
0.29999999999999999
40
0.34999999999999998
40
0.39999999999999997
40
0.44999999999999996
40
0.49999999999999994
40
0.54999999999999993
40
0.59999999999999998
40
0.65000000000000002
40
0.70000000000000007
40
0.75000000000000011
40
0.80000000000000016
40
0.8500000000000002
40
0.90000000000000024
40
0.95000000000000029
40
1
40
1
40
1
40
1
40
1
40
1
41
1
41
1
41
1
41
1
41
1
41
1
41
1
41
1
41
1
41
1
41
1
41
1
41
1
41
1
41
1
41
1
41
1
41
1
41
1
41
1
41
1
41
1
41
1
41
1
41
1
10
121.60336164985985
20
200.79453587047294
30
0
10
120.60126542182772
20
201.15664246118601
30
0
10
118.55076108413938
20
201.86720004375866
30
0
10
115.33606811716248
20
202.89207012729221
30
0
10
110.77081059401301
20
204.17629260749297
30
0
10
104.60813065376291
20
205.63493006858874
30
0
10
98.02805432718489
20
206.92164089753385
30
0
10
91.117438566990671
20
207.98841102387459
30
0
10
84.031655017717526
20
208.75694661465076
30
0
10
77.01296198601959
20
209.11214051144444
30
0
10
70.346810096309383
20
208.92014052388916
30
0
10
64.321186998476236
20
208.04551546103781
30
0
10
59.185039605651795
20
206.36907456731308
30
0
10
55.105338768326604
20
203.80661784524219
30
0
10
52.124562182887473
20
200.3277823424159
30
0
10
50.203154701720251
20
195.93926527884059
30
0
10
49.255788435633406
20
190.67076765056817
30
0
10
49.191638895097647
20
184.56033432587091
30
0
10
49.939293962904571
20
177.64444182537406
30
0
10
51.442079959760136
20
169.95650525008716
30
0
10
53.659009097621265
20
161.52436034698181
30
0
10
55.982117487065651
20
154.20001546232655
30
0
10
58.027003553705782
20
148.3870793541443
30
0
10
59.52417931803911
20
144.37028902513615
30
0
10
60.306247031018039
20
142.32651884942382
30
0
0
SPLINE
5
128
100
AcDbEntity
8
0
100
AcDbSpline
70
4
71
5
72
31
73
25
74
0
42
0.000000001
43
0.0000000001
44
0.0000000001
40
0
40
0
40
0
40
0
40
0
40
0
40
0.050000000000000003
40
0.10000000000000001
40
0.15000000000000002
40
0.20000000000000001
40
0.25
40
0.29999999999999999
40
0.34999999999999998
40
0.39999999999999997
40
0.44999999999999996
40
0.49999999999999994
40
0.54999999999999993
40
0.59999999999999998
40
0.65000000000000002
40
0.70000000000000007
40
0.75000000000000011
40
0.80000000000000016
40
0.8500000000000002
40
0.90000000000000024
40
0.95000000000000029
40
1
40
1
40
1
40
1
40
1
40
1
41
1
41
1
41
1
41
1
41
1
41
1
41
1
41
1
41
1
41
1
41
1
41
1
41
1
41
1
41
1
41
1
41
1
41
1
41
1
41
1
41
1
41
1
41
1
41
1
41
1
10
60.306247031018039
20
142.32651884942382
30
0
10
60.127684937508654
20
141.36891012626199
30
0
10
59.773070262425712
20
139.4412713235719
30
0
10
59.248676131079286
20
136.5125491418471
30
0
10
58.564606457570427
20
132.53275337326306
30
0
10
57.74423671217842
20
127.43215819612388
30
0
10
56.986705447091509
20
122.20546065528293
30
0
10
56.347903997212676
20
116.85464904667762
30
0
10
55.921614883213223
20
111.38541937025533
30
0
10
55.848138058869225
20
105.80884876593827
30
0
10
56.284957117488048
20
100.14525197689004
30
0
10
57.379973476468265
20
94.427932985884482
30
0
10
59.241553842292227
20
88.707683954355403
30
0
10
61.912554478035979
20
83.056381264142146
30
0
10
65.331149734603898
20
77.573692794192283
30
0
10
69.342863791213063
20
72.38110450213243
30
0
10
73.739990155074338
20
67.608883092154699
30
0
10
78.29042098801493
20
63.385399617671538
30
0
10
82.770867179847556
20
59.82451261889959
30
0
10
86.995464091038542
20
57.01433416763804
30
0
10
90.853276964642617
20
55.000909198206841
30
0
10
93.606526203344913
20
54.038856993701458
30
0
10
95.478149128712488
20
53.681381820875352
30
0
10
96.640358083340885
20
53.604197534650126
30
0
10
97.200076008573546
20
53.605889445786161
30
0
0
LINE
5
129
100
AcDbEntity
8
0
100
AcDbLine
10
97.200076008573546
20
53.605889445786161
30
0
11
122.21052657842107
21
52.242378571991168
31
0
0
SPLINE
5
130
100
AcDbEntity
8
0
100
AcDbSpline
70
4
71
5
72
16
73
10
74
0
42
0.000000001
43
0.0000000001
44
0.0000000001
40
0
40
0
40
0
40
0
40
0
40
0
40
0.20000000000000001
40
0.40000000000000002
40
0.60000000000000009
40
0.80000000000000004
40
1
40
1
40
1
40
1
40
1
40
1
41
1
41
1
41
1
41
1
41
1
41
1
41
1
41
1
41
1
41
1
10
122.21052657842107
20
52.242378571991168
30
0
10
125.05032969384901
20
52.028161921273266
30
0
10
131.13122140483699
20
51.678167508193809
30
0
10
141.45533243792374
20
51.388280865794414
30
0
10
157.29451961083009
20
51.407110627750384
30
0
10
179.39410294882708
20
51.880343785357439
30
0
10
198.20281863180682
20
52.479624440261212
30
0
10
212.73581232088716
20
53.012444058367095
30
0
10
222.60169576061543
20
53.402298352346818
30
0
10
227.57896136093959
20
53.605889445786161
30
0
0
LWPOLYLINE
5
131
100
AcDbEntity
8
0
100
AcDbPolyline
90
33
70
1
43
0.0
10
411.8800850076052
20
162.63593570412701
10
359.52847679957029
20
162.63593570412695
10
359.52847679957029
20
156.63593570412695
10
414.13008500760526
20
156.63593570412695
10
417.69258500760509
20
147.13593570412701
10
419.75508500760509
20
141.63593570412698
10
423.50508500760503
20
131.63593570412698
10
359.52847679957029
20
131.63593570412689
10
359.52847679957029
20
125.63593570412691
10
425.75508500760509
20
125.63593570412691
10
429.31758500760503
20
116.13593570412696
10
431.38008500760526
20
110.63593570412692
10
434.89131942348899
20
101.27264392843642
10
359.52847679957029
20
101.27264392843641
10
359.52847679957029
20
95.272643928436409
10
437.14131942348899
20
95.272643928436409
10
440.70381942348911
20
85.772643928436338
10
442.76631942348899
20
80.272643928436324
10
446.51631942348899
20
70.272643928436338
10
359.52847679957029
20
70.272643928436324
10
359.52847679957029
20
64.272643928436324
10
448.77720489344188
20
64.243616008561844
10
448.77753162611657
20
64.242744721429332
10
451.44328559871957
20
57.134067461154565
10
514.4862107451529
20
60.554447946427636
42
-0.31719824777338745
10
524.25268381084311
20
54.429768739996319
42
-0.099415710182346073
10
525.80323990552097
20
46.70849814608691
10
525.80323990552097
20
2.1978789140125166
10
339.2962054188618
20
2.1978789140125343
10
339.2962054188618
20
199.70809726428413
10
401.16724971808424
20
191.20349647618286
10
406.30635059172118
20
177.49922747981745
10
408.36885059172113
20
171.99922747981748
0
LWPOLYLINE
5
132
100
AcDbEntity
8
0
100
AcDbPolyline
90
12
70
1
43
0.0
10
330
20
268.67872065847348
10
330
20
288.67872065847348
10
0
20
288.67872065847348
10
0
20
268.67872065847348
10
30
20
268.67872065847348
10
30
20
274.67872065847354
10
36
20
274.67872065847354
10
36
20
268.67872065847348
10
294
20
268.67872065847348
10
294
20
274.67872065847354
10
300
20
274.67872065847354
10
300
20
268.67872065847348
0
LWPOLYLINE
5
133
100
AcDbEntity
8
0
100
AcDbPolyline
90
4
70
1
43
0.0
10
496.25360571917184
20
37.639880473281977
10
502.25360571917179
20
37.639880473281977
10
502.25360571917179
20
17.639880473281977
10
496.25360571917184
20
17.639880473281977
0
ARC
5
134
100
AcDbEntity
8
0
100
AcDbCircle
10
305
20
233.63301760517388
30
0
40
25
210
0
220
-0
230
1
100
AcDbArc
50
0
51
90
0
ARC
5
135
100
AcDbEntity
8
0
100
AcDbCircle
10
305
20
24.999999999999993
30
0
40
25
210
-0
220
0
230
1
100
AcDbArc
50
-90
51
0
0
ARC
5
136
100
AcDbEntity
8
0
100
AcDbCircle
10
24.999999999999982
20
24.999999999999979
30
0
40
24.999999999999982
210
0
220
0
230
1
100
AcDbArc
50
180
51
270
0
ARC
5
137
100
AcDbEntity
8
0
100
AcDbCircle
10
24.999999999999993
20
233.6330176051739
30
0
40
25
210
0
220
-0
230
1
100
AcDbArc
50
90
51
180
0
LINE
5
138
100
AcDbEntity
8
0
100
AcDbLine
10
359.52847679957029
20
162.63593570412695
30
0
11
359.52847679957029
21
157.13593570412695
31
0
0
LINE
5
139
100
AcDbEntity
8
0
100
AcDbLine
10
359.52847679957029
20
131.63593570412689
30
0
11
359.52847679957029
21
126.13593570412689
31
0
0
LINE
5
140
100
AcDbEntity
8
0
100
AcDbLine
10
30
20
258.6330176051739
30
0
11
29.999999999999996
21
210.6330176051739
31
0
0
LINE
5
141
100
AcDbEntity
8
0
100
AcDbLine
10
29.999999999999996
20
210.6330176051739
30
0
11
36
21
210.6330176051739
31
0
0
LINE
5
142
100
AcDbEntity
8
0
100
AcDbLine
10
36
20
210.6330176051739
30
0
11
36.000000000000007
21
258.6330176051739
31
0
0
LINE
5
143
100
AcDbEntity
8
0
100
AcDbLine
10
24.999999999999996
20
258.6330176051739
30
0
11
30
21
258.6330176051739
31
0
0
SPLINE
5
144
100
AcDbEntity
8
0
100
AcDbSpline
70
4
71
5
72
16
73
10
74
0
42
0.000000001
43
0.0000000001
44
0.0000000001
40
0
40
0
40
0
40
0
40
0
40
0
40
0.20000000000000001
40
0.40000000000000002
40
0.60000000000000009
40
0.80000000000000004
40
1
40
1
40
1
40
1
40
1
40
1
41
1
41
1
41
1
41
1
41
1
41
1
41
1
41
1
41
1
41
1
10
290.54308282243079
20
258.6330176051739
30
0
10
290.54308282241124
20
256.71301760514797
30
0
10
290.54308282237793
20
252.87301760510343
30
0
10
290.54308282234632
20
247.11301760506078
30
0
10
290.54308282233609
20
239.43301760504585
30
0
10
290.54308282235718
20
229.83301760507229
30
0
10
290.54308282238577
20
222.15301760511022
30
0
10
290.54308282240862
20
216.39301760514167
30
0
10
290.5430828224234
20
212.55301760516306
30
0
10
290.54308282243079
20
210.6330176051739
30
0
0
LINE
5
145
100
AcDbEntity
8
0
100
AcDbLine
10
290.54308282243079
20
210.6330176051739
30
0
11
296.54308282243079
21
210.6330176051739
31
0
0
LINE
5
146
100
AcDbEntity
8
0
100
AcDbLine
10
296.54308282243079
20
210.6330176051739
30
0
11
296.54308282243079
21
258.6330176051739
31
0
0
LINE
5
147
100
AcDbEntity
8
0
100
AcDbLine
10
36.000000000000007
20
258.6330176051739
30
0
11
290.54308282243079
21
258.6330176051739
31
0
0
LINE
5
148
100
AcDbEntity
8
0
100
AcDbLine
10
296.54308282243079
20
258.6330176051739
30
0
11
305
21
258.6330176051739
31
0
0
LWPOLYLINE
5
149
100
AcDbEntity
8
0
100
AcDbPolyline
90
33
70
1
43
0.0
10
412.57815907471075
20
196.73891320958802
10
416.32815907471075
20
186.73891320958802
10
418.3906590747107
20
181.23891320958802
10
421.95315907471075
20
171.73891320958796
10
499.56600169862941
20
171.73891320958791
10
499.56600169862941
20
165.73891320958791
10
424.20315907471081
20
165.73891320958791
10
427.71439349059449
20
156.37562143389741
10
429.77689349059472
20
150.87562143389735
10
433.33939349059472
20
141.37562143389741
10
499.56600169862941
20
141.37562143389741
10
499.56600169862941
20
135.37562143389746
10
435.58939349059472
20
135.37562143389738
10
439.33939349059466
20
125.37562143389736
10
441.40189349059472
20
119.87562143389732
10
444.96439349059449
20
110.37562143389741
10
499.56600169862941
20
110.37562143389742
10
499.56600169862941
20
104.37562143389741
10
447.2143934905946
20
104.37562143389732
10
450.72562790647856
20
95.012329658206852
10
452.78812790647851
20
89.51232965820688
10
457.9272287801154
20
75.808060661841495
10
519.79827307933783
20
67.303459873740223
10
519.79827307933783
20
264.81367822401182
10
333.29123859267872
20
264.81367822401177
10
333.29123859267884
20
220.30305899193746
42
0.099415710182346323
10
334.84179468735658
20
212.58178839802804
42
0.31719824777338695
10
344.6082677530469
20
206.45710919159671
10
407.65119289948018
20
209.87748967686974
10
410.31694687208324
20
202.76881241659504
10
410.31727360475793
20
202.76794112946251
10
499.56600169862941
20
202.73891320958799
10
499.56600169862941
20
196.73891320958799
0
LWPOLYLINE
5
150
100
AcDbEntity
8
0
100
AcDbPolyline
90
4
70
1
43
0.0
10
362.8408727790279
20
229.37167666474238
10
356.84087277902796
20
229.37167666474238
10
356.8408727790279
20
249.37167666474238
10
362.84087277902785
20
249.37167666474238
0
LINE
5
151
100
AcDbEntity
8
0
100
AcDbLine
10
499.56600169862941
20
135.37562143389746
30
0
11
499.56600169862941
21
140.87562143389744
31
0
0
LINE
5
152
100
AcDbEntity
8
0
100
AcDbLine
10
499.56600169862941
20
104.37562143389741
30
0
11
499.56600169862941
21
109.87562143389741
31
0
0
ENDSEC
0
SECTION
2
OBJECTS
0
DICTIONARY
5
C
100
AcDbDictionary
3
ACAD_GROUP
350
D
3
ACAD_MLINESTYLE
350
17
0
DICTIONARY
5
D
100
AcDbDictionary
0
DICTIONARY
5
1A
330
C
100
AcDbDictionary
0
DICTIONARY
5
17
100
AcDbDictionary
0
ENDSEC
0
EOF
