0
SECTION
2
HEADER
9
$INSUNITS
70
4
9
$ACADVER
1
AC1014
9
$HANDSEED
5
FFFF
0
ENDSEC
0
SECTION
2
TABLES
0
TABLE
2
VPORT
5
8
100
AcDbSymbolTable
0
ENDTAB
0
TABLE
2
LTYPE
5
5
100
AcDbSymbolTable
0
LTYPE
5
14
100
AcDbSymbolTableRecord
100
AcDbLinetypeTableRecord
2
BYBLOCK
70
0
0
LTYPE
5
15
100
AcDbSymbolTableRecord
100
AcDbLinetypeTableRecord
2
BYLAYER
70
0
0
LTYPE
5
16
100
AcDbSymbolTableRecord
100
AcDbLinetypeTableRecord
2
DASHED
70
0
3
Dashed __ __ __ __ __ __ __ __ __ __ __ __ __ _
72
65
73
2
40
0.75
49
0.5
74
0
49
-0.25
74
0
0
ENDTAB
0
TABLE
2
LAYER
5
2
100
AcDbSymbolTable
70
2
0
LAYER
5
50
100
AcDbSymbolTableRecord
100
AcDbLayerTableRecord
2
0
70
0
62
7
6
CONTINUOUS
0
ENDTAB
0
TABLE
2
STYLE
5
3
100
AcDbSymbolTable
70
1
0
STYLE
5
11
100
AcDbSymbolTableRecord
100
AcDbTextStyleTableRecord
2
STANDARD
70
0
0
ENDTAB
0
TABLE
2
VIEW
5
6
100
AcDbSymbolTable
70
0
0
ENDTAB
0
TABLE
2
UCS
5
7
100
AcDbSymbolTable
70
0
0
ENDTAB
0
TABLE
2
APPID
5
9
100
AcDbSymbolTable
70
2
0
APPID
5
12
100
AcDbSymbolTableRecord
100
AcDbRegAppTableRecord
2
ACAD
70
0
0
ENDTAB
0
TABLE
2
DIMSTYLE
5
A
100
AcDbSymbolTable
70
1
0
ENDTAB
0
TABLE
2
BLOCK_RECORD
5
1
100
AcDbSymbolTable
70
1
0
BLOCK_RECORD
5
1F
100
AcDbSymbolTableRecord
100
AcDbBlockTableRecord
2
*MODEL_SPACE
0
BLOCK_RECORD
5
1B
100
AcDbSymbolTableRecord
100
AcDbBlockTableRecord
2
*PAPER_SPACE
0
ENDTAB
0
ENDSEC
0
SECTION
2
BLOCKS
0
BLOCK
5
20
100
AcDbEntity
100
AcDbBlockBegin
2
*MODEL_SPACE
0
ENDBLK
5
21
100
AcDbEntity
100
AcDbBlockEnd
0
BLOCK
5
1C
100
AcDbEntity
100
AcDbBlockBegin
2
*PAPER_SPACE
0
ENDBLK
5
1D
100
AcDbEntity
100
AcDbBlockEnd
0
ENDSEC
0
SECTION
2
ENTITIES
0
POINT
5
100
100
AcDbEntity
8
0
100
AcDbPoint
10
53.016684217658181
20
136.96721770451467
30
0
0
POINT
5
101
100
AcDbEntity
8
0
100
AcDbPoint
10
23.863586138476919
20
-4.1651872966510712
30
0
0
POINT
5
102
100
AcDbEntity
8
0
100
AcDbPoint
10
35.11807026752976
20
-4.20831687855447
30
0
0
LINE
5
103
100
AcDbEntity
8
0
100
AcDbLine
10
-2.5724787771375857
20
48.456512733717446
30
0
11
-47.572478777137626
21
21.456512733717421
31
0
0
LINE
5
104
100
AcDbEntity
8
0
100
AcDbLine
10
2.5724787771377375
20
48.456512733717361
30
0
11
47.572478777137626
21
21.456512733717421
31
0
0
LINE
5
105
100
AcDbEntity
8
0
100
AcDbLine
10
-50
20
17.169048105154697
30
0
11
-50
21
-44.999999999999993
31
0
0
LWPOLYLINE
5
106
100
AcDbEntity
8
0
100
AcDbPolyline
90
21
70
1
43
0.0
10
-34.94727719065181
20
-6.0380057085736549
10
-37.424872807125574
20
-7.5245630784579163
42
0.26344713910230028
10
-38.104578749527036
20
-8.7250531744554785
10
-38.104578749527036
20
-22.753716879748751
42
0.41421356237309132
10
-36.704578749527037
20
-24.153716879748742
10
-35.568672659156768
20
-24.15371687974875
42
-0.41421356237309315
10
-34.168672659156769
20
-25.553716879748748
10
-34.168672659156769
20
-38.600000000000001
42
0.41421356237309132
10
-32.768672659156771
20
-39.999999999999993
10
-25.672776876424098
20
-40
42
0.41421356237309415
10
-24.272776876424096
20
-38.599999999999994
10
-24.272776876424096
20
-25.553716879748748
42
-0.41421356237309315
10
-22.872776876424098
20
-24.15371687974875
10
-21.736870786053831
20
-24.15371687974875
42
0.41421356237309315
10
-20.336870786053829
20
-22.753716879748747
10
-20.336870786053829
20
-8.7250531744554785
42
0.26344713910230028
10
-21.016576728455295
20
-7.5245630784579163
10
-23.494172344929058
20
-6.0380057085736567
42
-0.51091622080969856
10
-23.688358926559872
20
-3.777456576260346
42
0.67629383167202939
10
-29.220724767790415
20
12.359355334616096
42
0.67629383167203039
10
-34.753090609021001
20
-3.7774565762603358
42
-0.51091622080970123
0
LINE
5
107
100
AcDbEntity
8
0
100
AcDbLine
10
50
20
-45
30
0
11
49.999999999999993
21
17.169048105154687
31
0
0
LINE
5
108
100
AcDbEntity
8
0
100
AcDbLine
10
17.659770651850661
20
-20
30
0
11
23.929874508101044
21
-20
31
0
0
ARC
5
109
100
AcDbEntity
8
0
100
AcDbCircle
10
-45
20
17.169048105154697
30
0
40
4.9999999999999982
210
0
220
0
230
1
100
AcDbArc
50
120.96375653207343
51
180
0
ARC
5
110
100
AcDbEntity
8
0
100
AcDbCircle
10
45
20
17.169048105154701
30
0
40
4.9999999999999911
210
-0
220
0
230
1
100
AcDbArc
50
0
51
59.036243467926546
0
ARC
5
111
100
AcDbEntity
8
0
100
AcDbCircle
10
1.9428902930940239e-15
20
44.169048105154225
30
0
40
5.0000000000004086
210
0
220
-0
230
1
100
AcDbArc
50
59.03624346792791
51
120.96375653207014
0
ARC
5
112
100
AcDbEntity
8
0
100
AcDbCircle
10
23.929874508101044
20
-21.400000000000002
30
0
40
1.4000000000000001
210
0
220
0
230
1
100
AcDbArc
50
-1.0167226291587554
51
90
0
CIRCLE
5
113
100
AcDbEntity
8
0
100
AcDbCircle
10
0
20
40
30
0
40
3.5000000000000013
210
0
220
0
230
1
0
LINE
5
114
100
AcDbEntity
8
0
100
AcDbLine
10
25.329654090455836
20
-21.424841916646074
30
0
11
25.329654090455808
21
-38.600000088324492
31
0
0
ARC
5
115
100
AcDbEntity
8
0
100
AcDbCircle
10
26.72965409045581
20
-38.600000088324485
30
0
40
1.4000000000000012
210
0
220
0
230
1
100
AcDbArc
50
180
51
269.99999638527163
0
ARC
5
116
100
AcDbEntity
8
0
100
AcDbCircle
10
17.659770651850657
20
-18.600000000000001
30
0
40
1.3999999999999972
210
0
220
0
230
1
100
AcDbArc
50
145.52115358150743
51
270.00000000000017
0
LWPOLYLINE
5
117
100
AcDbEntity
8
0
100
AcDbPolyline
90
21
70
1
43
0.0
10
72.343907341234086
20
79.798169599359994
42
0.41421356237309315
10
73.743907341234078
20
81.19816959936
10
73.743907341234078
20
94.24445271961126
42
-0.41421356237308943
10
75.143907341234083
20
95.644452719611223
10
76.279813431604353
20
95.644452719611223
42
0.41421356237309315
10
77.679813431604344
20
97.044452719611229
10
77.679813431604344
20
111.07311642490451
42
0.263447139102301
10
77.00010748920289
20
112.27360652090206
10
74.522511872729126
20
113.76016389078634
42
-0.51091622080969934
10
74.328325291098309
20
116.02071302309965
42
0.67629383167202917
10
68.795959449867766
20
132.15752493397611
42
0.67629383167203017
10
63.263593608637187
20
116.02071302309966
42
-0.510916220809705
10
63.069407027006363
20
113.76016389078632
10
60.5918114105326
20
112.27360652090206
42
0.263447139102298
10
59.912105468131145
20
111.07311642490451
10
59.912105468131145
20
97.044452719611229
42
0.41421356237309132
10
61.312105468131151
20
95.644452719611252
10
62.448011558501406
20
95.644452719611223
42
-0.41421356237309132
10
63.848011558501412
20
94.244452719611246
10
63.848011558501412
20
81.19816959936
42
0.41421356237309509
10
65.248011558501418
20
79.798169599359994
0
CIRCLE
5
118
100
AcDbEntity
8
0
100
AcDbCircle
10
128.07019889388303
20
82.13316930133675
30
0
40
1.4999999999999991
210
0
220
0
230
1
0
LWPOLYLINE
5
119
100
AcDbEntity
8
0
100
AcDbPolyline
90
2
70
1
43
0.0
10
131.10319296438203
20
114.87662495714311
10
131.12185158099152
20
114.88661071996091
0
LWPOLYLINE
5
120
100
AcDbEntity
8
0
100
AcDbPolyline
90
17
70
1
43
0.0
10
134.19405936167584
20
99.798169599359994
10
138.79836310138836
20
99.798169599359994
42
0.60370788884595494
10
139.95243245059274
20
101.99071230308448
10
131.92337444777931
20
113.68230910977529
42
-0.40352866363082285
10
132.24318230002129
20
115.59913280804075
42
0.7033818588318852
10
127.2374089854486
20
132.15752493397611
42
0.70338185883188142
10
122.2316356708759
20
115.59913280804079
42
-0.40352866363082368
10
122.55144352311788
20
113.68230910977533
10
114.52238552030444
20
101.99071230308448
42
0.60370788884595494
10
115.67645486950883
20
99.798169599359994
10
121.94655872575922
20
99.798169599359994
42
-0.41942060112334995
10
123.34633830811401
20
98.373327682713921
10
123.34633830811399
20
81.198169511035502
42
0.41421354389478071
10
124.74633821978952
20
79.798169511035496
10
131.39405927335133
20
79.798169091638016
42
0.4142135808514022
10
132.79405936167581
20
81.198169091638022
10
132.79405936167586
20
98.398169599359989
42
-0.41421356237309509
0
LINE
5
121
100
AcDbEntity
8
0
100
AcDbLine
10
131.12185158099152
20
114.84945501737025
30
0
11
131.103192964382
21
114.87662495714311
31
0
0
CIRCLE
5
122
100
AcDbEntity
8
0
100
AcDbCircle
10
68.233550123178986
20
82.133371572769747
30
0
40
1.5000000000000002
210
0
220
0
230
1
0
LINE
5
123
100
AcDbEntity
8
0
100
AcDbLine
10
16.505701302646255
20
-17.807457296275516
30
0
11
23.324613545770916
21
-5.1644975326970277
31
0
0
ARC
5
124
100
AcDbEntity
8
0
100
AcDbCircle
10
29.366705481294936
20
3.1812212475766621
30
0
40
9.1789999999999967
210
0
220
-0
230
1
100
AcDbArc
50
88.829366164333592
51
226.55825589611183
0
ARC
5
125
100
AcDbEntity
8
0
100
AcDbCircle
10
22.092408513546768
20
-4.4999143862349031
30
0
40
1.4000000000000032
210
-0
220
0
230
1
100
AcDbArc
50
-28.339965163177425
51
46.558255896111781
0
LINE
5
126
100
AcDbEntity
8
0
100
AcDbLine
10
26.729654002131333
20
-40.000000088324484
30
0
11
29.353584202985044
21
-40.00000025386538
31
0
0
LINE
5
127
100
AcDbEntity
8
0
100
AcDbLine
10
33.519761968274267
20
-21.456228155629891
30
0
11
33.388126167987487
21
-38.630881870865458
31
0
0
ARC
5
128
100
AcDbEntity
8
0
100
AcDbCircle
10
41.211070607194145
20
-18.690253601027649
30
0
40
1.3999999999999946
210
0
220
0
230
1
100
AcDbArc
50
-90.439137127929897
51
34.039709290562293
0
ARC
5
129
100
AcDbEntity
8
0
100
AcDbCircle
10
34.919690833548252
20
-21.442115318470094
30
0
40
1.3999999999999992
210
0
220
-0
230
1
100
AcDbArc
50
89.560862872069819
51
180.57758550122858
0
LINE
5
130
100
AcDbEntity
8
0
100
AcDbLine
10
42.371180355812086
20
-17.906579324837839
30
0
11
35.649368002773841
21
-5.2117286186088574
31
0
0
ARC
5
131
100
AcDbEntity
8
0
100
AcDbCircle
10
36.886630417276855
20
-4.5566089977317414
30
0
40
1.3999999999999995
210
0
220
0
230
1
100
AcDbArc
50
133.00260697595795
51
207.90082803524743
0
LINE
5
132
100
AcDbEntity
8
0
100
AcDbLine
10
41.200340567996875
20
-20.090212481230498
30
0
11
34.930420872745529
21
-20.042156438267241
31
0
0
LINE
5
133
100
AcDbEntity
8
0
100
AcDbLine
10
31.977437336909237
20
-40.020110712547975
30
0
11
29.353584202985044
21
-40.00000025386538
31
0
0
ARC
5
134
100
AcDbEntity
8
0
100
AcDbCircle
10
31.988167287784634
20
-38.620151831668174
30
0
40
1.400000000000003
210
0
220
0
230
1
100
AcDbArc
50
269.56086648679809
51
359.56086287206978
0
ARC
5
135
100
AcDbEntity
8
0
100
AcDbCircle
10
29.671417738133037
20
3.1800535252637108
30
0
40
9.179000000000002
210
-0
220
0
230
1
100
AcDbArc
50
-46.997393024041962
51
90.731496707736255
0
LINE
5
136
100
AcDbEntity
8
0
100
AcDbLine
10
-45.000000000000057
20
-50.00000074505806
30
0
11
45
21
-50.000000745058045
31
0
0
ARC
5
137
100
AcDbEntity
8
0
100
AcDbCircle
10
45
20
-45.000000745058045
30
0
40
5
210
0
220
0
230
1
100
AcDbArc
50
-90
51
0
0
ARC
5
138
100
AcDbEntity
8
0
100
AcDbCircle
10
-45.000000000000057
20
-45.000000745058053
30
0
40
5.0000000000000107
210
0
220
-0
230
1
100
AcDbArc
50
179.99999150505948
51
270
0
CIRCLE
5
139
100
AcDbEntity
8
0
100
AcDbCircle
10
-29.220724767790433
20
-36.000000536441803
30
0
40
1.4999999999999991
210
0
220
0
230
1
0
CIRCLE
5
140
100
AcDbEntity
8
0
100
AcDbCircle
10
29.35358445534068
20
-36.000000253865387
30
0
40
1.4999999999999991
210
0
220
0
230
1
0
ENDSEC
0
SECTION
2
OBJECTS
0
DICTIONARY
5
C
100
AcDbDictionary
3
ACAD_GROUP
350
D
3
ACAD_MLINESTYLE
350
17
0
DICTIONARY
5
D
100
AcDbDictionary
0
DICTIONARY
5
1A
330
C
100
AcDbDictionary
0
DICTIONARY
5
17
100
AcDbDictionary
0
ENDSEC
0
EOF
