  0
SECTION
  2
HEADER
  9
$ACADVER
  1
AC1009
  0
ENDSEC
  0
SECTION
  2
TABLES
  0
TABLE
  2
LAYER
  70
1
  0
LAYER
  2
Layer_0
  70
0
  62
7
  6
CONTINUOUS
  0
ENDTAB
  0
ENDSEC
  0
SECTION
  2
ENTITIES
  0
POLYLINE
  5
90
  8
Layer_0
  62
7
  66
1
  10
0
  20
0
  30
0
  0
VERTEX
  5
90
  8
Layer_0
  10
98.31881
  20
291.5
  42
-0.41421356
  0
VERTEX
  5
91
  8
Layer_0
  10
93.31881
  20
286.5
  0
SEQEND
  0
POLYLINE
  5
93
  8
Layer_0
  62
7
  66
1
  10
0
  20
0
  30
0
  0
VERTEX
  5
93
  8
Layer_0
  10
93.31881
  20
286.5
  42
-0.41421356
  0
VERTEX
  5
94
  8
Layer_0
  10
88.31881
  20
291.5
  0
SEQEND
  0
POLYLINE
  5
96
  8
Layer_0
  62
7
  66
1
  10
0
  20
0
  30
0
  0
VERTEX
  5
96
  8
Layer_0
  10
88.31881
  20
291.5
  42
-0.41421356
  0
VERTEX
  5
97
  8
Layer_0
  10
93.31881
  20
296.5
  0
SEQEND
  0
POLYLINE
  5
99
  8
Layer_0
  62
7
  66
1
  10
0
  20
0
  30
0
  0
VERTEX
  5
99
  8
Layer_0
  10
93.31881
  20
296.5
  42
-0.41421356
  0
VERTEX
  5
9a
  8
Layer_0
  10
98.31881
  20
291.5
  0
SEQEND
  0
POLYLINE
  5
9c
  8
Layer_0
  62
7
  66
1
  10
0
  20
0
  30
0
  0
VERTEX
  5
9c
  8
Layer_0
  10
101.81881
  20
291.5
  42
-0.41421356
  0
VERTEX
  5
9d
  8
Layer_0
  10
93.31881
  20
283
  0
SEQEND
  0
POLYLINE
  5
9f
  8
Layer_0
  62
7
  66
1
  10
0
  20
0
  30
0
  0
VERTEX
  5
9f
  8
Layer_0
  10
93.31881
  20
283
  42
-0.41421356
  0
VERTEX
  5
a0
  8
Layer_0
  10
84.81881
  20
291.5
  0
SEQEND
  0
POLYLINE
  5
a2
  8
Layer_0
  62
7
  66
1
  10
0
  20
0
  30
0
  0
VERTEX
  5
a2
  8
Layer_0
  10
84.81881
  20
291.5
  42
-0.41421356
  0
VERTEX
  5
a3
  8
Layer_0
  10
93.31881
  20
300
  0
SEQEND
  0
POLYLINE
  5
a5
  8
Layer_0
  62
7
  66
1
  10
0
  20
0
  30
0
  0
VERTEX
  5
a5
  8
Layer_0
  10
93.31881
  20
300
  42
-0.41421356
  0
VERTEX
  5
a6
  8
Layer_0
  10
101.81881
  20
291.5
  0
SEQEND
  0
POLYLINE
  5
a8
  8
Layer_0
  62
7
  66
1
  10
0
  20
0
  30
0
  0
VERTEX
  5
a8
  8
Layer_0
  10
254.7159
  20
285.36032
  42
-0.41421356
  0
VERTEX
  5
a9
  8
Layer_0
  10
249.7159
  20
280.36032
  0
SEQEND
  0
POLYLINE
  5
ab
  8
Layer_0
  62
7
  66
1
  10
0
  20
0
  30
0
  0
VERTEX
  5
ab
  8
Layer_0
  10
249.7159
  20
280.36032
  42
-0.41421356
  0
VERTEX
  5
ac
  8
Layer_0
  10
244.7159
  20
285.36032
  0
SEQEND
  0
POLYLINE
  5
ae
  8
Layer_0
  62
7
  66
1
  10
0
  20
0
  30
0
  0
VERTEX
  5
ae
  8
Layer_0
  10
244.7159
  20
285.36032
  42
-0.41421356
  0
VERTEX
  5
af
  8
Layer_0
  10
249.7159
  20
290.36032
  0
SEQEND
  0
POLYLINE
  5
b1
  8
Layer_0
  62
7
  66
1
  10
0
  20
0
  30
0
  0
VERTEX
  5
b1
  8
Layer_0
  10
249.7159
  20
290.36032
  42
-0.41421356
  0
VERTEX
  5
b2
  8
Layer_0
  10
254.7159
  20
285.36032
  0
SEQEND
  0
POLYLINE
  5
b4
  8
Layer_0
  62
7
  66
1
  10
0
  20
0
  30
0
  0
VERTEX
  5
b4
  8
Layer_0
  10
258.21588
  20
285.36032
  42
-0.41421356
  0
VERTEX
  5
b5
  8
Layer_0
  10
249.7159
  20
276.86032
  0
SEQEND
  0
POLYLINE
  5
b7
  8
Layer_0
  62
7
  66
1
  10
0
  20
0
  30
0
  0
VERTEX
  5
b7
  8
Layer_0
  10
249.7159
  20
276.86032
  42
-0.41421356
  0
VERTEX
  5
b8
  8
Layer_0
  10
241.2159
  20
285.36032
  0
SEQEND
  0
POLYLINE
  5
ba
  8
Layer_0
  62
7
  66
1
  10
0
  20
0
  30
0
  0
VERTEX
  5
ba
  8
Layer_0
  10
241.2159
  20
285.36032
  42
-0.41421356
  0
VERTEX
  5
bb
  8
Layer_0
  10
249.7159
  20
293.86032
  0
SEQEND
  0
POLYLINE
  5
bd
  8
Layer_0
  62
7
  66
1
  10
0
  20
0
  30
0
  0
VERTEX
  5
bd
  8
Layer_0
  10
249.7159
  20
293.86032
  42
-0.41421356
  0
VERTEX
  5
be
  8
Layer_0
  10
258.21588
  20
285.36032
  0
SEQEND
  0
POLYLINE
  5
c0
  8
Layer_0
  62
7
  66
1
  10
0
  20
0
  30
0
  0
VERTEX
  5
c0
  8
Layer_0
  10
98.31881
  20
140.92575
  42
-0.41421356
  0
VERTEX
  5
c1
  8
Layer_0
  10
93.31881
  20
135.92575
  0
SEQEND
  0
POLYLINE
  5
c3
  8
Layer_0
  62
7
  66
1
  10
0
  20
0
  30
0
  0
VERTEX
  5
c3
  8
Layer_0
  10
93.31881
  20
135.92575
  42
-0.41421356
  0
VERTEX
  5
c4
  8
Layer_0
  10
88.31881
  20
140.92575
  0
SEQEND
  0
POLYLINE
  5
c6
  8
Layer_0
  62
7
  66
1
  10
0
  20
0
  30
0
  0
VERTEX
  5
c6
  8
Layer_0
  10
88.31881
  20
140.92575
  42
-0.41421356
  0
VERTEX
  5
c7
  8
Layer_0
  10
93.31881
  20
145.92575
  0
SEQEND
  0
POLYLINE
  5
c9
  8
Layer_0
  62
7
  66
1
  10
0
  20
0
  30
0
  0
VERTEX
  5
c9
  8
Layer_0
  10
93.31881
  20
145.92575
  42
-0.41421356
  0
VERTEX
  5
ca
  8
Layer_0
  10
98.31881
  20
140.92575
  0
SEQEND
  0
POLYLINE
  5
cc
  8
Layer_0
  62
7
  66
1
  10
0
  20
0
  30
0
  0
VERTEX
  5
cc
  8
Layer_0
  10
258.21588
  20
147.0654
  42
-0.41421356
  0
VERTEX
  5
cd
  8
Layer_0
  10
249.7159
  20
138.5654
  0
SEQEND
  0
POLYLINE
  5
cf
  8
Layer_0
  62
7
  66
1
  10
0
  20
0
  30
0
  0
VERTEX
  5
cf
  8
Layer_0
  10
249.7159
  20
138.5654
  42
-0.41421356
  0
VERTEX
  5
d0
  8
Layer_0
  10
241.2159
  20
147.0654
  0
SEQEND
  0
POLYLINE
  5
d2
  8
Layer_0
  62
7
  66
1
  10
0
  20
0
  30
0
  0
VERTEX
  5
d2
  8
Layer_0
  10
241.2159
  20
147.0654
  42
-0.41421356
  0
VERTEX
  5
d3
  8
Layer_0
  10
249.7159
  20
155.5654
  0
SEQEND
  0
POLYLINE
  5
d5
  8
Layer_0
  62
7
  66
1
  10
0
  20
0
  30
0
  0
VERTEX
  5
d5
  8
Layer_0
  10
249.7159
  20
155.5654
  42
-0.41421356
  0
VERTEX
  5
d6
  8
Layer_0
  10
258.21588
  20
147.0654
  0
SEQEND
  0
POLYLINE
  5
d8
  8
Layer_0
  62
7
  66
1
  10
0
  20
0
  30
0
  0
VERTEX
  5
d8
  8
Layer_0
  10
254.7159
  20
147.0654
  42
-0.41421356
  0
VERTEX
  5
d9
  8
Layer_0
  10
249.7159
  20
142.0654
  0
SEQEND
  0
POLYLINE
  5
db
  8
Layer_0
  62
7
  66
1
  10
0
  20
0
  30
0
  0
VERTEX
  5
db
  8
Layer_0
  10
249.7159
  20
142.0654
  42
-0.41421356
  0
VERTEX
  5
dc
  8
Layer_0
  10
244.7159
  20
147.0654
  0
SEQEND
  0
POLYLINE
  5
de
  8
Layer_0
  62
7
  66
1
  10
0
  20
0
  30
0
  0
VERTEX
  5
de
  8
Layer_0
  10
244.7159
  20
147.0654
  42
-0.41421356
  0
VERTEX
  5
df
  8
Layer_0
  10
249.7159
  20
152.0654
  0
SEQEND
  0
POLYLINE
  5
e1
  8
Layer_0
  62
7
  66
1
  10
0
  20
0
  30
0
  0
VERTEX
  5
e1
  8
Layer_0
  10
249.7159
  20
152.0654
  42
-0.41421356
  0
VERTEX
  5
e2
  8
Layer_0
  10
254.7159
  20
147.0654
  0
SEQEND
  0
POLYLINE
  5
e4
  8
Layer_0
  62
7
  66
1
  10
0
  20
0
  30
0
  0
VERTEX
  5
e4
  8
Layer_0
  10
101.81881
  20
140.92575
  42
-0.41421356
  0
VERTEX
  5
e5
  8
Layer_0
  10
93.31881
  20
132.42575
  0
SEQEND
  0
POLYLINE
  5
e7
  8
Layer_0
  62
7
  66
1
  10
0
  20
0
  30
0
  0
VERTEX
  5
e7
  8
Layer_0
  10
93.31881
  20
132.42575
  42
-0.41421356
  0
VERTEX
  5
e8
  8
Layer_0
  10
84.81881
  20
140.92575
  0
SEQEND
  0
POLYLINE
  5
ea
  8
Layer_0
  62
7
  66
1
  10
0
  20
0
  30
0
  0
VERTEX
  5
ea
  8
Layer_0
  10
84.81881
  20
140.92575
  42
-0.41421356
  0
VERTEX
  5
eb
  8
Layer_0
  10
93.31881
  20
149.42575
  0
SEQEND
  0
POLYLINE
  5
ed
  8
Layer_0
  62
7
  66
1
  10
0
  20
0
  30
0
  0
VERTEX
  5
ed
  8
Layer_0
  10
93.31881
  20
149.42575
  42
-0.41421356
  0
VERTEX
  5
ee
  8
Layer_0
  10
101.81881
  20
140.92575
  0
SEQEND
  0
POLYLINE
  5
f0
  8
Layer_0
  62
7
  66
1
  10
0
  20
0
  30
0
  0
VERTEX
  5
f0
  8
Layer_0
  10
46.292229
  20
256.30902
  0
VERTEX
  5
f1
  8
Layer_0
  10
46.292229
  20
255.97504
  0
SEQEND
  0
POLYLINE
  5
f3
  8
Layer_0
  62
7
  66
1
  10
0
  20
0
  30
0
  0
VERTEX
  5
f3
  8
Layer_0
  10
80.82045
  20
280.9747
  42
0.069939123
  0
VERTEX
  5
f4
  8
Layer_0
  10
81.787514
  20
281.10452
  0
SEQEND
  0
POLYLINE
  5
f6
  8
Layer_0
  62
7
  66
1
  10
0
  20
0
  30
0
  0
VERTEX
  5
f6
  8
Layer_0
  10
101.54382
  20
289.35544
  0
VERTEX
  5
f7
  8
Layer_0
  10
117.1312
  20
258.73526
  0
SEQEND
  0
POLYLINE
  5
f9
  8
Layer_0
  62
7
  66
1
  10
0
  20
0
  30
0
  0
VERTEX
  5
f9
  8
Layer_0
  10
117.1312
  20
258.73526
  42
0.2821298
  0
VERTEX
  5
fa
  8
Layer_0
  10
119.80472
  20
257.09622
  0
SEQEND
  0
POLYLINE
  5
fc
  8
Layer_0
  62
7
  66
1
  10
0
  20
0
  30
0
  0
VERTEX
  5
fc
  8
Layer_0
  10
119.80472
  20
257.09622
  0
VERTEX
  5
fd
  8
Layer_0
  10
182.96555
  20
257.09622
  0
SEQEND
  0
POLYLINE
  5
ff
  8
Layer_0
  62
7
  66
1
  10
0
  20
0
  30
0
  0
VERTEX
  5
ff
  8
Layer_0
  10
182.96555
  20
257.09622
  0
VERTEX
  5
100
  8
Layer_0
  10
212.96555
  20
257.09622
  0
SEQEND
  0
POLYLINE
  5
102
  8
Layer_0
  62
7
  66
1
  10
0
  20
0
  30
0
  0
VERTEX
  5
102
  8
Layer_0
  10
212.96555
  20
257.09622
  0
VERTEX
  5
103
  8
Layer_0
  10
226.28902
  20
257.09622
  0
SEQEND
  0
POLYLINE
  5
105
  8
Layer_0
  62
7
  66
1
  10
0
  20
0
  30
0
  0
VERTEX
  5
105
  8
Layer_0
  10
226.28902
  20
257.09622
  42
0.28911586
  0
VERTEX
  5
106
  8
Layer_0
  10
228.9968
  20
258.80475
  0
SEQEND
  0
POLYLINE
  5
108
  8
Layer_0
  62
7
  66
1
  10
0
  20
0
  30
0
  0
VERTEX
  5
108
  8
Layer_0
  10
228.9968
  20
258.80475
  0
VERTEX
  5
109
  8
Layer_0
  10
241.25826
  20
284.51279
  0
SEQEND
  0
POLYLINE
  5
10b
  8
Layer_0
  62
7
  66
1
  10
0
  20
0
  30
0
  0
VERTEX
  5
10b
  8
Layer_0
  10
228.28854
  20
178.71443
  0
VERTEX
  5
10c
  8
Layer_0
  10
228.33984
  20
178.73608
  0
SEQEND
  0
POLYLINE
  5
10e
  8
Layer_0
  62
7
  66
1
  10
0
  20
0
  30
0
  0
VERTEX
  5
10e
  8
Layer_0
  10
184.18056
  20
179.26413
  0
VERTEX
  5
10f
  8
Layer_0
  10
184.10956
  20
179.1794
  0
SEQEND
  0
POLYLINE
  5
111
  8
Layer_0
  62
7
  66
1
  10
0
  20
0
  30
0
  0
VERTEX
  5
111
  8
Layer_0
  10
10.469707
  20
177.98163
  0
VERTEX
  5
112
  8
Layer_0
  10
10.49345
  20
178.04039
  0
SEQEND
  0
POLYLINE
  5
114
  8
Layer_0
  62
7
  66
1
  10
0
  20
0
  30
0
  0
VERTEX
  5
114
  8
Layer_0
  10
231.78955
  20
234.13095
  0
VERTEX
  5
115
  8
Layer_0
  10
232.01181
  20
234.1329
  0
SEQEND
  0
POLYLINE
  5
117
  8
Layer_0
  62
7
  66
1
  10
0
  20
0
  30
0
  0
VERTEX
  5
117
  8
Layer_0
  10
249.34123
  20
259.00854
  0
VERTEX
  5
118
  8
Layer_0
  10
249.34581
  20
259.12506
  0
SEQEND
  0
POLYLINE
  5
11a
  8
Layer_0
  62
7
  66
1
  10
0
  20
0
  30
0
  0
VERTEX
  5
11a
  8
Layer_0
  10
245.95872
  20
258.83121
  42
-0.2729042
  0
VERTEX
  5
11b
  8
Layer_0
  10
248.64284
  20
260.27512
  0
SEQEND
  0
POLYLINE
  5
11d
  8
Layer_0
  62
7
  66
1
  10
0
  20
0
  30
0
  0
VERTEX
  5
11d
  8
Layer_0
  10
248.64284
  20
260.27512
  0
VERTEX
  5
11e
  8
Layer_0
  10
251.01268
  20
260.18195
  0
SEQEND
  0
POLYLINE
  5
120
  8
Layer_0
  62
7
  66
1
  10
0
  20
0
  30
0
  0
VERTEX
  5
120
  8
Layer_0
  10
251.01268
  20
260.18195
  42
-0.40020185
  0
VERTEX
  5
121
  8
Layer_0
  10
253.89473
  20
257.21063
  0
SEQEND
  0
POLYLINE
  5
123
  8
Layer_0
  62
7
  66
1
  10
0
  20
0
  30
0
  0
VERTEX
  5
123
  8
Layer_0
  10
253.89473
  20
257.21063
  0
VERTEX
  5
124
  8
Layer_0
  10
254.25475
  20
216.24066
  0
SEQEND
  0
POLYLINE
  5
126
  8
Layer_0
  62
7
  66
1
  10
0
  20
0
  30
0
  0
VERTEX
  5
126
  8
Layer_0
  10
254.25475
  20
216.24066
  0
VERTEX
  5
127
  8
Layer_0
  10
254.2545
  20
216.21286
  0
SEQEND
  0
POLYLINE
  5
129
  8
Layer_0
  62
7
  66
1
  10
0
  20
0
  30
0
  0
VERTEX
  5
129
  8
Layer_0
  10
254.2545
  20
216.21286
  0
VERTEX
  5
12a
  8
Layer_0
  10
254.25475
  20
216.18507
  0
SEQEND
  0
POLYLINE
  5
12c
  8
Layer_0
  62
7
  66
1
  10
0
  20
0
  30
0
  0
VERTEX
  5
12c
  8
Layer_0
  10
254.25475
  20
216.18507
  0
VERTEX
  5
12d
  8
Layer_0
  10
253.89473
  20
175.2151
  0
SEQEND
  0
POLYLINE
  5
12f
  8
Layer_0
  62
7
  66
1
  10
0
  20
0
  30
0
  0
VERTEX
  5
12f
  8
Layer_0
  10
253.89473
  20
175.2151
  42
-0.40020185
  0
VERTEX
  5
130
  8
Layer_0
  10
251.01268
  20
172.24377
  0
SEQEND
  0
POLYLINE
  5
132
  8
Layer_0
  62
7
  66
1
  10
0
  20
0
  30
0
  0
VERTEX
  5
132
  8
Layer_0
  10
251.01268
  20
172.24377
  0
VERTEX
  5
133
  8
Layer_0
  10
248.64284
  20
172.15062
  0
SEQEND
  0
POLYLINE
  5
135
  8
Layer_0
  62
7
  66
1
  10
0
  20
0
  30
0
  0
VERTEX
  5
135
  8
Layer_0
  10
248.64284
  20
172.15062
  42
-0.27290371
  0
VERTEX
  5
136
  8
Layer_0
  10
245.95872
  20
173.59454
  0
SEQEND
  0
POLYLINE
  5
138
  8
Layer_0
  62
7
  66
1
  10
0
  20
0
  30
0
  0
VERTEX
  5
138
  8
Layer_0
  10
245.95872
  20
173.59454
  0
VERTEX
  5
139
  8
Layer_0
  10
231.77843
  20
197.01544
  0
SEQEND
  0
POLYLINE
  5
13b
  8
Layer_0
  62
7
  66
1
  10
0
  20
0
  30
0
  0
VERTEX
  5
13b
  8
Layer_0
  10
231.77843
  20
197.01544
  42
-0.13919375
  0
VERTEX
  5
13c
  8
Layer_0
  10
231.34483
  20
198.59557
  0
SEQEND
  0
POLYLINE
  5
13e
  8
Layer_0
  62
7
  66
1
  10
0
  20
0
  30
0
  0
VERTEX
  5
13e
  8
Layer_0
  10
231.34483
  20
198.59557
  0
VERTEX
  5
13f
  8
Layer_0
  10
231.49939
  20
216.18507
  0
SEQEND
  0
POLYLINE
  5
141
  8
Layer_0
  62
7
  66
1
  10
0
  20
0
  30
0
  0
VERTEX
  5
141
  8
Layer_0
  10
231.49939
  20
216.18507
  0
VERTEX
  5
142
  8
Layer_0
  10
231.49915
  20
216.21286
  0
SEQEND
  0
POLYLINE
  5
144
  8
Layer_0
  62
7
  66
1
  10
0
  20
0
  30
0
  0
VERTEX
  5
144
  8
Layer_0
  10
231.49915
  20
216.21286
  0
VERTEX
  5
145
  8
Layer_0
  10
231.49939
  20
216.24066
  0
SEQEND
  0
POLYLINE
  5
147
  8
Layer_0
  62
7
  66
1
  10
0
  20
0
  30
0
  0
VERTEX
  5
147
  8
Layer_0
  10
231.49939
  20
216.24066
  0
VERTEX
  5
148
  8
Layer_0
  10
231.34483
  20
233.83017
  0
SEQEND
  0
POLYLINE
  5
14a
  8
Layer_0
  62
7
  66
1
  10
0
  20
0
  30
0
  0
VERTEX
  5
14a
  8
Layer_0
  10
231.34483
  20
233.83017
  42
-0.13919375
  0
VERTEX
  5
14b
  8
Layer_0
  10
231.77843
  20
235.41029
  0
SEQEND
  0
POLYLINE
  5
14d
  8
Layer_0
  62
7
  66
1
  10
0
  20
0
  30
0
  0
VERTEX
  5
14d
  8
Layer_0
  10
231.77843
  20
235.41029
  0
VERTEX
  5
14e
  8
Layer_0
  10
245.95872
  20
258.83121
  0
SEQEND
  0
POLYLINE
  5
150
  8
Layer_0
  62
7
  66
1
  10
0
  20
0
  30
0
  0
VERTEX
  5
150
  8
Layer_0
  10
244.32039
  20
232.69287
  42
0.19968273
  0
VERTEX
  5
151
  8
Layer_0
  10
244.02959
  20
233.40375
  0
SEQEND
  0
POLYLINE
  5
153
  8
Layer_0
  62
7
  66
1
  10
0
  20
0
  30
0
  0
VERTEX
  5
153
  8
Layer_0
  10
244.02959
  20
233.40375
  42
0.1996616
  0
VERTEX
  5
154
  8
Layer_0
  10
243.32042
  20
233.69872
  0
SEQEND
  0
POLYLINE
  5
156
  8
Layer_0
  62
7
  66
1
  10
0
  20
0
  30
0
  0
VERTEX
  5
156
  8
Layer_0
  10
243.32042
  20
233.69872
  0
VERTEX
  5
157
  8
Layer_0
  10
235.77072
  20
233.69872
  0
SEQEND
  0
POLYLINE
  5
159
  8
Layer_0
  62
7
  66
1
  10
0
  20
0
  30
0
  0
VERTEX
  5
159
  8
Layer_0
  10
235.77072
  20
233.69872
  42
0.41421356
  0
VERTEX
  5
15a
  8
Layer_0
  10
234.77072
  20
232.69872
  0
SEQEND
  0
POLYLINE
  5
15c
  8
Layer_0
  62
7
  66
1
  10
0
  20
0
  30
0
  0
VERTEX
  5
15c
  8
Layer_0
  10
234.77072
  20
232.69872
  0
VERTEX
  5
15d
  8
Layer_0
  10
234.77072
  20
216.24066
  0
SEQEND
  0
POLYLINE
  5
15f
  8
Layer_0
  62
7
  66
1
  10
0
  20
0
  30
0
  0
VERTEX
  5
15f
  8
Layer_0
  10
234.77072
  20
216.24066
  0
VERTEX
  5
160
  8
Layer_0
  10
234.77072
  20
216.21286
  0
SEQEND
  0
POLYLINE
  5
162
  8
Layer_0
  62
7
  66
1
  10
0
  20
0
  30
0
  0
VERTEX
  5
162
  8
Layer_0
  10
234.77072
  20
216.21286
  0
VERTEX
  5
163
  8
Layer_0
  10
234.77072
  20
216.18507
  0
SEQEND
  0
POLYLINE
  5
165
  8
Layer_0
  62
7
  66
1
  10
0
  20
0
  30
0
  0
VERTEX
  5
165
  8
Layer_0
  10
234.77072
  20
216.18507
  0
VERTEX
  5
166
  8
Layer_0
  10
234.77072
  20
199.72702
  0
SEQEND
  0
POLYLINE
  5
168
  8
Layer_0
  62
7
  66
1
  10
0
  20
0
  30
0
  0
VERTEX
  5
168
  8
Layer_0
  10
234.77072
  20
199.72702
  42
0.41421356
  0
VERTEX
  5
169
  8
Layer_0
  10
235.77072
  20
198.72702
  0
SEQEND
  0
POLYLINE
  5
16b
  8
Layer_0
  62
7
  66
1
  10
0
  20
0
  30
0
  0
VERTEX
  5
16b
  8
Layer_0
  10
235.77072
  20
198.72702
  0
VERTEX
  5
16c
  8
Layer_0
  10
243.32042
  20
198.72702
  0
SEQEND
  0
POLYLINE
  5
16e
  8
Layer_0
  62
7
  66
1
  10
0
  20
0
  30
0
  0
VERTEX
  5
16e
  8
Layer_0
  10
243.32042
  20
198.72702
  42
0.1996616
  0
VERTEX
  5
16f
  8
Layer_0
  10
244.02959
  20
199.02199
  0
SEQEND
  0
POLYLINE
  5
171
  8
Layer_0
  62
7
  66
1
  10
0
  20
0
  30
0
  0
VERTEX
  5
171
  8
Layer_0
  10
244.02959
  20
199.02199
  42
0.19968272
  0
VERTEX
  5
172
  8
Layer_0
  10
244.32039
  20
199.73285
  0
SEQEND
  0
POLYLINE
  5
174
  8
Layer_0
  62
7
  66
1
  10
0
  20
0
  30
0
  0
VERTEX
  5
174
  8
Layer_0
  10
244.32039
  20
199.73285
  0
VERTEX
  5
175
  8
Layer_0
  10
244.22447
  20
216.18507
  0
SEQEND
  0
POLYLINE
  5
177
  8
Layer_0
  62
7
  66
1
  10
0
  20
0
  30
0
  0
VERTEX
  5
177
  8
Layer_0
  10
244.22447
  20
216.18507
  0
VERTEX
  5
178
  8
Layer_0
  10
244.22462
  20
216.21286
  0
SEQEND
  0
POLYLINE
  5
17a
  8
Layer_0
  62
7
  66
1
  10
0
  20
0
  30
0
  0
VERTEX
  5
17a
  8
Layer_0
  10
244.22462
  20
216.21286
  0
VERTEX
  5
17b
  8
Layer_0
  10
244.22447
  20
216.24066
  0
SEQEND
  0
POLYLINE
  5
17d
  8
Layer_0
  62
7
  66
1
  10
0
  20
0
  30
0
  0
VERTEX
  5
17d
  8
Layer_0
  10
244.22447
  20
216.24066
  0
VERTEX
  5
17e
  8
Layer_0
  10
244.32039
  20
232.69287
  0
SEQEND
  0
POLYLINE
  5
180
  8
Layer_0
  62
7
  66
1
  10
0
  20
0
  30
0
  0
VERTEX
  5
180
  8
Layer_0
  10
251.33882
  20
205.25102
  0
VERTEX
  5
181
  8
Layer_0
  10
251.33882
  20
216.18507
  0
SEQEND
  0
POLYLINE
  5
183
  8
Layer_0
  62
7
  66
1
  10
0
  20
0
  30
0
  0
VERTEX
  5
183
  8
Layer_0
  10
251.33882
  20
216.18507
  0
VERTEX
  5
184
  8
Layer_0
  10
251.33882
  20
216.21286
  0
SEQEND
  0
POLYLINE
  5
186
  8
Layer_0
  62
7
  66
1
  10
0
  20
0
  30
0
  0
VERTEX
  5
186
  8
Layer_0
  10
251.33882
  20
216.21286
  0
VERTEX
  5
187
  8
Layer_0
  10
251.33882
  20
216.24066
  0
SEQEND
  0
POLYLINE
  5
189
  8
Layer_0
  62
7
  66
1
  10
0
  20
0
  30
0
  0
VERTEX
  5
189
  8
Layer_0
  10
251.33882
  20
216.24066
  0
VERTEX
  5
18a
  8
Layer_0
  10
251.33882
  20
227.17471
  0
SEQEND
  0
POLYLINE
  5
18c
  8
Layer_0
  62
7
  66
1
  10
0
  20
0
  30
0
  0
VERTEX
  5
18c
  8
Layer_0
  10
251.33882
  20
227.17471
  42
0.26918143
  0
VERTEX
  5
18d
  8
Layer_0
  10
250.33086
  20
228.91135
  0
SEQEND
  0
POLYLINE
  5
18f
  8
Layer_0
  62
7
  66
1
  10
0
  20
0
  30
0
  0
VERTEX
  5
18f
  8
Layer_0
  10
250.33086
  20
228.91135
  42
0.26917706
  0
VERTEX
  5
190
  8
Layer_0
  10
248.32292
  20
228.89749
  0
SEQEND
  0
POLYLINE
  5
192
  8
Layer_0
  62
7
  66
1
  10
0
  20
0
  30
0
  0
VERTEX
  5
192
  8
Layer_0
  10
248.32292
  20
228.89749
  42
0.26917547
  0
VERTEX
  5
193
  8
Layer_0
  10
247.339
  20
227.14713
  0
SEQEND
  0
POLYLINE
  5
195
  8
Layer_0
  62
7
  66
1
  10
0
  20
0
  30
0
  0
VERTEX
  5
195
  8
Layer_0
  10
247.339
  20
227.14713
  0
VERTEX
  5
196
  8
Layer_0
  10
247.339
  20
216.24066
  0
SEQEND
  0
POLYLINE
  5
198
  8
Layer_0
  62
7
  66
1
  10
0
  20
0
  30
0
  0
VERTEX
  5
198
  8
Layer_0
  10
247.339
  20
216.24066
  0
VERTEX
  5
199
  8
Layer_0
  10
247.339
  20
216.21286
  0
SEQEND
  0
POLYLINE
  5
19b
  8
Layer_0
  62
7
  66
1
  10
0
  20
0
  30
0
  0
VERTEX
  5
19b
  8
Layer_0
  10
247.339
  20
216.21286
  0
VERTEX
  5
19c
  8
Layer_0
  10
247.339
  20
216.18507
  0
SEQEND
  0
POLYLINE
  5
19e
  8
Layer_0
  62
7
  66
1
  10
0
  20
0
  30
0
  0
VERTEX
  5
19e
  8
Layer_0
  10
247.339
  20
216.18507
  0
VERTEX
  5
19f
  8
Layer_0
  10
247.339
  20
205.27861
  0
SEQEND
  0
POLYLINE
  5
1a1
  8
Layer_0
  62
7
  66
1
  10
0
  20
0
  30
0
  0
VERTEX
  5
1a1
  8
Layer_0
  10
247.339
  20
205.27861
  42
0.26917547
  0
VERTEX
  5
1a2
  8
Layer_0
  10
248.32292
  20
203.52824
  0
SEQEND
  0
POLYLINE
  5
1a4
  8
Layer_0
  62
7
  66
1
  10
0
  20
0
  30
0
  0
VERTEX
  5
1a4
  8
Layer_0
  10
248.32292
  20
203.52824
  42
0.26917706
  0
VERTEX
  5
1a5
  8
Layer_0
  10
250.33086
  20
203.51439
  0
SEQEND
  0
POLYLINE
  5
1a7
  8
Layer_0
  62
7
  66
1
  10
0
  20
0
  30
0
  0
VERTEX
  5
1a7
  8
Layer_0
  10
250.33086
  20
203.51439
  42
0.26918143
  0
VERTEX
  5
1a8
  8
Layer_0
  10
251.33882
  20
205.25102
  0
SEQEND
  0
POLYLINE
  5
1aa
  8
Layer_0
  62
7
  66
1
  10
0
  20
0
  30
0
  0
VERTEX
  5
1aa
  8
Layer_0
  10
247.75911
  20
253.97173
  0
VERTEX
  5
1ab
  8
Layer_0
  10
241.78233
  20
244.10017
  0
SEQEND
  0
POLYLINE
  5
1ad
  8
Layer_0
  62
7
  66
1
  10
0
  20
0
  30
0
  0
VERTEX
  5
1ad
  8
Layer_0
  10
241.78233
  20
244.10017
  42
0.39246132
  0
VERTEX
  5
1ae
  8
Layer_0
  10
242.05736
  20
242.76791
  0
SEQEND
  0
POLYLINE
  5
1b0
  8
Layer_0
  62
7
  66
1
  10
0
  20
0
  30
0
  0
VERTEX
  5
1b0
  8
Layer_0
  10
242.05736
  20
242.76791
  0
VERTEX
  5
1b1
  8
Layer_0
  10
247.33205
  20
239.0085
  0
SEQEND
  0
POLYLINE
  5
1b3
  8
Layer_0
  62
7
  66
1
  10
0
  20
0
  30
0
  0
VERTEX
  5
1b3
  8
Layer_0
  10
247.33205
  20
239.0085
  42
0.15605852
  0
VERTEX
  5
1b4
  8
Layer_0
  10
247.91243
  20
238.82283
  0
SEQEND
  0
POLYLINE
  5
1b6
  8
Layer_0
  62
7
  66
1
  10
0
  20
0
  30
0
  0
VERTEX
  5
1b6
  8
Layer_0
  10
247.91243
  20
238.82283
  0
VERTEX
  5
1b7
  8
Layer_0
  10
249.71135
  20
238.82283
  0
SEQEND
  0
POLYLINE
  5
1b9
  8
Layer_0
  62
7
  66
1
  10
0
  20
0
  30
0
  0
VERTEX
  5
1b9
  8
Layer_0
  10
249.71135
  20
238.82283
  42
0.20935498
  0
VERTEX
  5
1ba
  8
Layer_0
  10
250.44627
  20
239.14467
  0
SEQEND
  0
POLYLINE
  5
1bc
  8
Layer_0
  62
7
  66
1
  10
0
  20
0
  30
0
  0
VERTEX
  5
1bc
  8
Layer_0
  10
250.44627
  20
239.14467
  42
0.20936905
  0
VERTEX
  5
1bd
  8
Layer_0
  10
250.70811
  20
239.90303
  0
SEQEND
  0
POLYLINE
  5
1bf
  8
Layer_0
  62
7
  66
1
  10
0
  20
0
  30
0
  0
VERTEX
  5
1bf
  8
Layer_0
  10
250.70811
  20
239.90303
  0
VERTEX
  5
1c0
  8
Layer_0
  10
249.61131
  20
253.53401
  0
SEQEND
  0
POLYLINE
  5
1c2
  8
Layer_0
  62
7
  66
1
  10
0
  20
0
  30
0
  0
VERTEX
  5
1c2
  8
Layer_0
  10
249.61131
  20
253.53401
  42
0.32542698
  0
VERTEX
  5
1c3
  8
Layer_0
  10
248.84453
  20
254.427
  0
SEQEND
  0
POLYLINE
  5
1c5
  8
Layer_0
  62
7
  66
1
  10
0
  20
0
  30
0
  0
VERTEX
  5
1c5
  8
Layer_0
  10
248.84453
  20
254.427
  42
0.32540722
  0
VERTEX
  5
1c6
  8
Layer_0
  10
247.75911
  20
253.97173
  0
SEQEND
  0
POLYLINE
  5
1c8
  8
Layer_0
  62
7
  66
1
  10
0
  20
0
  30
0
  0
VERTEX
  5
1c8
  8
Layer_0
  10
85.093788
  20
289.35544
  0
VERTEX
  5
1c9
  8
Layer_0
  10
82.315437
  20
259.81531
  0
SEQEND
  0
POLYLINE
  5
1cb
  8
Layer_0
  62
7
  66
1
  10
0
  20
0
  30
0
  0
VERTEX
  5
1cb
  8
Layer_0
  10
82.315437
  20
259.81531
  42
-0.38700574
  0
VERTEX
  5
1cc
  8
Layer_0
  10
79.328621
  20
257.09622
  0
SEQEND
  0
POLYLINE
  5
1ce
  8
Layer_0
  62
7
  66
1
  10
0
  20
0
  30
0
  0
VERTEX
  5
1ce
  8
Layer_0
  10
79.328621
  20
257.09622
  0
VERTEX
  5
1cf
  8
Layer_0
  10
50.198463
  20
257.09622
  0
SEQEND
  0
POLYLINE
  5
1d1
  8
Layer_0
  62
7
  66
1
  10
0
  20
0
  30
0
  0
VERTEX
  5
1d1
  8
Layer_0
  10
50.198463
  20
257.09622
  0
VERTEX
  5
1d2
  8
Layer_0
  10
20.19846
  20
257.09622
  0
SEQEND
  0
POLYLINE
  5
1d4
  8
Layer_0
  62
7
  66
1
  10
0
  20
0
  30
0
  0
VERTEX
  5
1d4
  8
Layer_0
  10
20.19846
  20
257.09622
  0
VERTEX
  5
1d5
  8
Layer_0
  10
17.69846
  20
257.09622
  0
SEQEND
  0
POLYLINE
  5
1d7
  8
Layer_0
  62
7
  66
1
  10
0
  20
0
  30
0
  0
VERTEX
  5
1d7
  8
Layer_0
  10
17.69846
  20
257.09622
  42
0.41421356
  0
VERTEX
  5
1d8
  8
Layer_0
  10
14.69846
  20
254.09622
  0
SEQEND
  0
POLYLINE
  5
1da
  8
Layer_0
  62
7
  66
1
  10
0
  20
0
  30
0
  0
VERTEX
  5
1da
  8
Layer_0
  10
14.69846
  20
254.09622
  0
VERTEX
  5
1db
  8
Layer_0
  10
14.69846
  20
222.09622
  0
SEQEND
  0
POLYLINE
  5
1dd
  8
Layer_0
  62
7
  66
1
  10
0
  20
0
  30
0
  0
VERTEX
  5
1dd
  8
Layer_0
  10
14.69846
  20
222.09622
  0
VERTEX
  5
1de
  8
Layer_0
  10
4.6984596
  20
222.09622
  0
SEQEND
  0
POLYLINE
  5
1e0
  8
Layer_0
  62
7
  66
1
  10
0
  20
0
  30
0
  0
VERTEX
  5
1e0
  8
Layer_0
  10
4.6984596
  20
222.09622
  0
VERTEX
  5
1e1
  8
Layer_0
  10
-3.8146973e-06
  20
220.38612
  0
SEQEND
  0
POLYLINE
  5
1e3
  8
Layer_0
  62
7
  66
1
  10
0
  20
0
  30
0
  0
VERTEX
  5
1e3
  8
Layer_0
  10
-3.8146973e-06
  20
220.38612
  0
VERTEX
  5
1e4
  8
Layer_0
  10
-3.8146973e-06
  20
212.03961
  0
SEQEND
  0
POLYLINE
  5
1e6
  8
Layer_0
  62
7
  66
1
  10
0
  20
0
  30
0
  0
VERTEX
  5
1e6
  8
Layer_0
  10
-3.8146973e-06
  20
212.03961
  0
VERTEX
  5
1e7
  8
Layer_0
  10
4.6984596
  20
210.3295
  0
SEQEND
  0
POLYLINE
  5
1e9
  8
Layer_0
  62
7
  66
1
  10
0
  20
0
  30
0
  0
VERTEX
  5
1e9
  8
Layer_0
  10
4.6984596
  20
210.3295
  0
VERTEX
  5
1ea
  8
Layer_0
  10
14.69846
  20
210.3295
  0
SEQEND
  0
POLYLINE
  5
1ec
  8
Layer_0
  62
7
  66
1
  10
0
  20
0
  30
0
  0
VERTEX
  5
1ec
  8
Layer_0
  10
14.69846
  20
210.3295
  0
VERTEX
  5
1ed
  8
Layer_0
  10
14.69846
  20
178.3295
  0
SEQEND
  0
POLYLINE
  5
1ef
  8
Layer_0
  62
7
  66
1
  10
0
  20
0
  30
0
  0
VERTEX
  5
1ef
  8
Layer_0
  10
14.69846
  20
178.3295
  42
0.41421356
  0
VERTEX
  5
1f0
  8
Layer_0
  10
17.69846
  20
175.3295
  0
SEQEND
  0
POLYLINE
  5
1f2
  8
Layer_0
  62
7
  66
1
  10
0
  20
0
  30
0
  0
VERTEX
  5
1f2
  8
Layer_0
  10
17.69846
  20
175.3295
  0
VERTEX
  5
1f3
  8
Layer_0
  10
20.19846
  20
175.3295
  0
SEQEND
  0
POLYLINE
  5
1f5
  8
Layer_0
  62
7
  66
1
  10
0
  20
0
  30
0
  0
VERTEX
  5
1f5
  8
Layer_0
  10
20.19846
  20
175.3295
  0
VERTEX
  5
1f6
  8
Layer_0
  10
50.198463
  20
175.3295
  0
SEQEND
  0
POLYLINE
  5
1f8
  8
Layer_0
  62
7
  66
1
  10
0
  20
0
  30
0
  0
VERTEX
  5
1f8
  8
Layer_0
  10
50.198463
  20
175.3295
  0
VERTEX
  5
1f9
  8
Layer_0
  10
79.328621
  20
175.3295
  0
SEQEND
  0
POLYLINE
  5
1fb
  8
Layer_0
  62
7
  66
1
  10
0
  20
0
  30
0
  0
VERTEX
  5
1fb
  8
Layer_0
  10
79.328621
  20
175.3295
  42
-0.38700574
  0
VERTEX
  5
1fc
  8
Layer_0
  10
82.315437
  20
172.61043
  0
SEQEND
  0
POLYLINE
  5
1fe
  8
Layer_0
  62
7
  66
1
  10
0
  20
0
  30
0
  0
VERTEX
  5
1fe
  8
Layer_0
  10
82.315437
  20
172.61043
  0
VERTEX
  5
1ff
  8
Layer_0
  10
85.093788
  20
143.07028
  0
SEQEND
  0
POLYLINE
  5
201
  8
Layer_0
  62
7
  66
1
  10
0
  20
0
  30
0
  0
VERTEX
  5
201
  8
Layer_0
  10
231.78955
  20
198.35037
  0
VERTEX
  5
202
  8
Layer_0
  10
232.01181
  20
198.34842
  0
SEQEND
  0
POLYLINE
  5
204
  8
Layer_0
  62
7
  66
1
  10
0
  20
0
  30
0
  0
VERTEX
  5
204
  8
Layer_0
  10
249.34123
  20
173.47278
  0
VERTEX
  5
205
  8
Layer_0
  10
249.34581
  20
173.35626
  0
SEQEND
  0
POLYLINE
  5
207
  8
Layer_0
  62
7
  66
1
  10
0
  20
0
  30
0
  0
VERTEX
  5
207
  8
Layer_0
  10
46.292229
  20
176.1723
  0
VERTEX
  5
208
  8
Layer_0
  10
46.292229
  20
176.50629
  0
SEQEND
  0
POLYLINE
  5
20a
  8
Layer_0
  62
7
  66
1
  10
0
  20
0
  30
0
  0
VERTEX
  5
20a
  8
Layer_0
  10
4.6984596
  20
222.09622
  0
VERTEX
  5
20b
  8
Layer_0
  10
5.1984596
  20
222.09622
  0
SEQEND
  0
POLYLINE
  5
20d
  8
Layer_0
  62
7
  66
1
  10
0
  20
0
  30
0
  0
VERTEX
  5
20d
  8
Layer_0
  10
5.4484596
  20
222.09622
  0
VERTEX
  5
20e
  8
Layer_0
  10
5.9484596
  20
222.09622
  0
SEQEND
  0
POLYLINE
  5
210
  8
Layer_0
  62
7
  66
1
  10
0
  20
0
  30
0
  0
VERTEX
  5
210
  8
Layer_0
  10
6.1984596
  20
222.09622
  0
VERTEX
  5
211
  8
Layer_0
  10
6.6984596
  20
222.09622
  0
SEQEND
  0
POLYLINE
  5
213
  8
Layer_0
  62
7
  66
1
  10
0
  20
0
  30
0
  0
VERTEX
  5
213
  8
Layer_0
  10
6.9484596
  20
222.09622
  0
VERTEX
  5
214
  8
Layer_0
  10
7.4484596
  20
222.09622
  0
SEQEND
  0
POLYLINE
  5
216
  8
Layer_0
  62
7
  66
1
  10
0
  20
0
  30
0
  0
VERTEX
  5
216
  8
Layer_0
  10
7.6984596
  20
222.09622
  0
VERTEX
  5
217
  8
Layer_0
  10
8.1984596
  20
222.09622
  0
SEQEND
  0
POLYLINE
  5
219
  8
Layer_0
  62
7
  66
1
  10
0
  20
0
  30
0
  0
VERTEX
  5
219
  8
Layer_0
  10
8.4484596
  20
222.09622
  0
VERTEX
  5
21a
  8
Layer_0
  10
8.9484596
  20
222.09622
  0
SEQEND
  0
POLYLINE
  5
21c
  8
Layer_0
  62
7
  66
1
  10
0
  20
0
  30
0
  0
VERTEX
  5
21c
  8
Layer_0
  10
9.1984596
  20
222.09622
  0
VERTEX
  5
21d
  8
Layer_0
  10
9.6984596
  20
222.09622
  0
SEQEND
  0
POLYLINE
  5
21f
  8
Layer_0
  62
7
  66
1
  10
0
  20
0
  30
0
  0
VERTEX
  5
21f
  8
Layer_0
  10
4.6984596
  20
210.3295
  0
VERTEX
  5
220
  8
Layer_0
  10
5.1984596
  20
210.3295
  0
SEQEND
  0
POLYLINE
  5
222
  8
Layer_0
  62
7
  66
1
  10
0
  20
0
  30
0
  0
VERTEX
  5
222
  8
Layer_0
  10
5.4484596
  20
210.3295
  0
VERTEX
  5
223
  8
Layer_0
  10
5.9484596
  20
210.3295
  0
SEQEND
  0
POLYLINE
  5
225
  8
Layer_0
  62
7
  66
1
  10
0
  20
0
  30
0
  0
VERTEX
  5
225
  8
Layer_0
  10
6.1984596
  20
210.3295
  0
VERTEX
  5
226
  8
Layer_0
  10
6.6984596
  20
210.3295
  0
SEQEND
  0
POLYLINE
  5
228
  8
Layer_0
  62
7
  66
1
  10
0
  20
0
  30
0
  0
VERTEX
  5
228
  8
Layer_0
  10
6.9484596
  20
210.3295
  0
VERTEX
  5
229
  8
Layer_0
  10
7.4484596
  20
210.3295
  0
SEQEND
  0
POLYLINE
  5
22b
  8
Layer_0
  62
7
  66
1
  10
0
  20
0
  30
0
  0
VERTEX
  5
22b
  8
Layer_0
  10
7.6984596
  20
210.3295
  0
VERTEX
  5
22c
  8
Layer_0
  10
8.1984596
  20
210.3295
  0
SEQEND
  0
POLYLINE
  5
22e
  8
Layer_0
  62
7
  66
1
  10
0
  20
0
  30
0
  0
VERTEX
  5
22e
  8
Layer_0
  10
8.4484596
  20
210.3295
  0
VERTEX
  5
22f
  8
Layer_0
  10
8.9484596
  20
210.3295
  0
SEQEND
  0
POLYLINE
  5
231
  8
Layer_0
  62
7
  66
1
  10
0
  20
0
  30
0
  0
VERTEX
  5
231
  8
Layer_0
  10
9.1984596
  20
210.3295
  0
VERTEX
  5
232
  8
Layer_0
  10
9.6984596
  20
210.3295
  0
SEQEND
  0
POLYLINE
  5
234
  8
Layer_0
  62
7
  66
1
  10
0
  20
0
  30
0
  0
VERTEX
  5
234
  8
Layer_0
  10
101.54382
  20
143.07028
  0
VERTEX
  5
235
  8
Layer_0
  10
117.1312
  20
173.69048
  0
SEQEND
  0
POLYLINE
  5
237
  8
Layer_0
  62
7
  66
1
  10
0
  20
0
  30
0
  0
VERTEX
  5
237
  8
Layer_0
  10
117.1312
  20
173.69048
  42
-0.2821298
  0
VERTEX
  5
238
  8
Layer_0
  10
119.80472
  20
175.3295
  0
SEQEND
  0
POLYLINE
  5
23a
  8
Layer_0
  62
7
  66
1
  10
0
  20
0
  30
0
  0
VERTEX
  5
23a
  8
Layer_0
  10
119.80472
  20
175.3295
  0
VERTEX
  5
23b
  8
Layer_0
  10
182.96555
  20
175.3295
  0
SEQEND
  0
POLYLINE
  5
23d
  8
Layer_0
  62
7
  66
1
  10
0
  20
0
  30
0
  0
VERTEX
  5
23d
  8
Layer_0
  10
182.96555
  20
175.3295
  0
VERTEX
  5
23e
  8
Layer_0
  10
212.96555
  20
175.3295
  0
SEQEND
  0
POLYLINE
  5
240
  8
Layer_0
  62
7
  66
1
  10
0
  20
0
  30
0
  0
VERTEX
  5
240
  8
Layer_0
  10
212.96555
  20
175.3295
  0
VERTEX
  5
241
  8
Layer_0
  10
226.28902
  20
175.3295
  0
SEQEND
  0
POLYLINE
  5
243
  8
Layer_0
  62
7
  66
1
  10
0
  20
0
  30
0
  0
VERTEX
  5
243
  8
Layer_0
  10
226.28902
  20
175.3295
  42
-0.28911264
  0
VERTEX
  5
244
  8
Layer_0
  10
228.9968
  20
173.62099
  0
SEQEND
  0
POLYLINE
  5
246
  8
Layer_0
  62
7
  66
1
  10
0
  20
0
  30
0
  0
VERTEX
  5
246
  8
Layer_0
  10
228.9968
  20
173.62099
  0
VERTEX
  5
247
  8
Layer_0
  10
241.25826
  20
147.91295
  0
SEQEND
  0
POLYLINE
  5
249
  8
Layer_0
  62
7
  66
1
  10
0
  20
0
  30
0
  0
VERTEX
  5
249
  8
Layer_0
  10
46.292229
  20
256.25345
  0
VERTEX
  5
24a
  8
Layer_0
  10
46.292229
  20
255.91946
  0
SEQEND
  0
POLYLINE
  5
24c
  8
Layer_0
  62
7
  66
1
  10
0
  20
0
  30
0
  0
VERTEX
  5
24c
  8
Layer_0
  10
231.78955
  20
234.07538
  0
VERTEX
  5
24d
  8
Layer_0
  10
232.01181
  20
234.07733
  0
SEQEND
  0
POLYLINE
  5
24f
  8
Layer_0
  62
7
  66
1
  10
0
  20
0
  30
0
  0
VERTEX
  5
24f
  8
Layer_0
  10
249.34123
  20
173.41719
  0
VERTEX
  5
250
  8
Layer_0
  10
249.34581
  20
173.30067
  0
SEQEND
  0
POLYLINE
  5
252
  8
Layer_0
  62
7
  66
1
  10
0
  20
0
  30
0
  0
VERTEX
  5
252
  8
Layer_0
  10
242.05736
  20
189.65781
  0
VERTEX
  5
253
  8
Layer_0
  10
247.33205
  20
193.41724
  0
SEQEND
  0
POLYLINE
  5
255
  8
Layer_0
  62
7
  66
1
  10
0
  20
0
  30
0
  0
VERTEX
  5
255
  8
Layer_0
  10
247.33205
  20
193.41724
  42
-0.15605852
  0
VERTEX
  5
256
  8
Layer_0
  10
247.91243
  20
193.60291
  0
SEQEND
  0
POLYLINE
  5
258
  8
Layer_0
  62
7
  66
1
  10
0
  20
0
  30
0
  0
VERTEX
  5
258
  8
Layer_0
  10
247.91243
  20
193.60291
  0
VERTEX
  5
259
  8
Layer_0
  10
249.71135
  20
193.60291
  0
SEQEND
  0
POLYLINE
  5
25b
  8
Layer_0
  62
7
  66
1
  10
0
  20
0
  30
0
  0
VERTEX
  5
25b
  8
Layer_0
  10
249.71135
  20
193.60291
  42
-0.20935498
  0
VERTEX
  5
25c
  8
Layer_0
  10
250.44627
  20
193.28107
  0
SEQEND
  0
POLYLINE
  5
25e
  8
Layer_0
  62
7
  66
1
  10
0
  20
0
  30
0
  0
VERTEX
  5
25e
  8
Layer_0
  10
250.44627
  20
193.28107
  42
-0.20936905
  0
VERTEX
  5
25f
  8
Layer_0
  10
250.70811
  20
192.52271
  0
SEQEND
  0
POLYLINE
  5
261
  8
Layer_0
  62
7
  66
1
  10
0
  20
0
  30
0
  0
VERTEX
  5
261
  8
Layer_0
  10
250.70811
  20
192.52271
  0
VERTEX
  5
262
  8
Layer_0
  10
249.61131
  20
178.89172
  0
SEQEND
  0
POLYLINE
  5
264
  8
Layer_0
  62
7
  66
1
  10
0
  20
0
  30
0
  0
VERTEX
  5
264
  8
Layer_0
  10
249.61131
  20
178.89172
  42
-0.32542698
  0
VERTEX
  5
265
  8
Layer_0
  10
248.84453
  20
177.99873
  0
SEQEND
  0
POLYLINE
  5
267
  8
Layer_0
  62
7
  66
1
  10
0
  20
0
  30
0
  0
VERTEX
  5
267
  8
Layer_0
  10
248.84453
  20
177.99873
  42
-0.32540959
  0
VERTEX
  5
268
  8
Layer_0
  10
247.75911
  20
178.45401
  0
SEQEND
  0
POLYLINE
  5
26a
  8
Layer_0
  62
7
  66
1
  10
0
  20
0
  30
0
  0
VERTEX
  5
26a
  8
Layer_0
  10
247.75911
  20
178.45401
  0
VERTEX
  5
26b
  8
Layer_0
  10
241.78233
  20
188.32556
  0
SEQEND
  0
POLYLINE
  5
26d
  8
Layer_0
  62
7
  66
1
  10
0
  20
0
  30
0
  0
VERTEX
  5
26d
  8
Layer_0
  10
241.78233
  20
188.32556
  42
-0.39246132
  0
VERTEX
  5
26e
  8
Layer_0
  10
242.05736
  20
189.65781
  0
SEQEND
  0
POLYLINE
  5
270
  8
Layer_0
  62
7
  66
1
  10
0
  20
0
  30
0
  0
VERTEX
  5
270
  8
Layer_0
  10
228.28854
  20
253.7113
  0
VERTEX
  5
271
  8
Layer_0
  10
228.33984
  20
253.68965
  0
SEQEND
  0
POLYLINE
  5
273
  8
Layer_0
  62
7
  66
1
  10
0
  20
0
  30
0
  0
VERTEX
  5
273
  8
Layer_0
  10
231.78955
  20
198.29478
  0
VERTEX
  5
274
  8
Layer_0
  10
232.01181
  20
198.29283
  0
SEQEND
  0
POLYLINE
  5
276
  8
Layer_0
  62
7
  66
1
  10
0
  20
0
  30
0
  0
VERTEX
  5
276
  8
Layer_0
  10
81.787514
  20
151.32121
  42
0.069934573
  0
VERTEX
  5
277
  8
Layer_0
  10
80.82045
  20
151.45103
  0
SEQEND
  0
POLYLINE
  5
279
  8
Layer_0
  62
7
  66
1
  10
0
  20
0
  30
0
  0
VERTEX
  5
279
  8
Layer_0
  10
46.292229
  20
176.11671
  0
VERTEX
  5
27a
  8
Layer_0
  10
46.292229
  20
176.4507
  0
SEQEND
  0
POLYLINE
  5
27c
  8
Layer_0
  62
7
  66
1
  10
0
  20
0
  30
0
  0
VERTEX
  5
27c
  8
Layer_0
  10
249.34123
  20
258.95297
  0
VERTEX
  5
27d
  8
Layer_0
  10
249.34581
  20
259.06949
  0
SEQEND
  0
POLYLINE
  5
27f
  8
Layer_0
  62
7
  66
1
  10
0
  20
0
  30
0
  0
VERTEX
  5
27f
  8
Layer_0
  10
184.18056
  20
253.16161
  0
VERTEX
  5
280
  8
Layer_0
  10
184.10956
  20
253.24634
  0
SEQEND
  0
POLYLINE
  5
282
  8
Layer_0
  62
7
  66
1
  10
0
  20
0
  30
0
  0
VERTEX
  5
282
  8
Layer_0
  10
10.469707
  20
254.44411
  0
VERTEX
  5
283
  8
Layer_0
  10
10.49345
  20
254.38535
  0
SEQEND
  0
POLYLINE
  5
285
  8
Layer_0
  62
7
  66
1
  10
0
  20
0
  30
0
  0
VERTEX
  5
285
  8
Layer_0
  10
258.17352
  20
284.51279
  0
VERTEX
  5
286
  8
Layer_0
  10
269.14502
  20
222.29056
  0
SEQEND
  0
POLYLINE
  5
288
  8
Layer_0
  62
7
  66
1
  10
0
  20
0
  30
0
  0
VERTEX
  5
288
  8
Layer_0
  10
269.14502
  20
222.29056
  42
-0.087486386
  0
VERTEX
  5
289
  8
Layer_0
  10
269.14502
  20
210.13518
  0
SEQEND
  0
POLYLINE
  5
28b
  8
Layer_0
  62
7
  66
1
  10
0
  20
0
  30
0
  0
VERTEX
  5
28b
  8
Layer_0
  10
269.14502
  20
210.13518
  0
VERTEX
  5
28c
  8
Layer_0
  10
258.17352
  20
147.91295
  0
SEQEND
  0
ENDSEC
  0
EOF
