0
SECTION
2
HEADER
0
ENDSEC
0
SECTION
2
TABLES
0
TABLE
2
LTYPE
0
LTYPE
72
65
70
64
2
CONTINUOUS
3
______
73
0
40
0
0
ENDTAB
0
TABLE
2
LAYER
0
ENDTAB
0
ENDSEC
0
SECTION
2
ENTITIES
0
CIRCLE
8
0
10
0
20
0
40
2
0
CIRCLE
8
0
10
0
20
0
40
2
0
LINE
8
layer0
10
0.3119543
20
2.8568457
11
0.3709553
21
2.7907313
0
LINE
8
layer0
10
0.3709553
20
2.7907313
11
0.4258126
21
2.7238248
0
LINE
8
layer0
10
0.4258126
20
2.7238248
11
0.4753172
21
2.6580144
0
LINE
8
layer0
10
0.4753172
20
2.6580144
11
0.5201477
21
2.5929747
0
LINE
8
layer0
10
0.5201477
20
2.5929747
11
0.5607993
21
2.5283522
0
LINE
8
layer0
10
0.5607993
20
2.5283522
11
0.6293038
21
2.4026711
0
LINE
8
layer0
10
0.6293038
20
2.4026711
11
0.6812267
21
2.2849873
0
LINE
8
layer0
10
0.6812267
20
2.2849873
11
0.7194246
21
2.1740988
0
LINE
8
layer0
10
0.7194246
20
2.1740988
11
0.7445481
21
2.0747998
0
LINE
8
layer0
10
0.7445481
20
2.0747998
11
0.7593832
21
1.9852094
0
LINE
8
layer0
10
0.7593832
20
1.9852094
11
0.7654714
21
1.9096267
0
LINE
8
layer0
10
0.7654714
20
1.9096267
11
0.7658037
21
1.8602777
0
LINE
8
layer0
10
0.7658037
20
1.8602777
11
0.6484664
21
1.7606322
0
LINE
8
layer0
10
0.6484664
20
1.7606322
11
0.5924494
21
1.704488
0
LINE
8
layer0
10
0.5924494
20
1.704488
11
0.5422307
21
1.646887
0
LINE
8
layer0
10
0.5422307
20
1.646887
11
0.4978456
21
1.5882043
0
LINE
8
layer0
10
0.4978456
20
1.5882043
11
0.45928
21
1.5288356
0
LINE
8
layer0
10
0.45928
20
1.5288356
11
0.4265056
21
1.4691628
0
LINE
8
layer0
10
0.4265056
20
1.4691628
11
0.399487
21
1.4095608
0
LINE
8
layer0
10
0.399487
20
1.4095608
11
0.3781466
21
1.3504042
0
LINE
8
layer0
10
0.3781466
20
1.3504042
11
0.3623922
21
1.2920679
0
LINE
8
layer0
10
0.3623922
20
1.2920679
11
0.3521038
21
1.2349125
0
LINE
8
layer0
10
0.3521038
20
1.2349125
11
0.3471753
21
1.1792844
0
LINE
8
layer0
10
0.3471753
20
1.1792844
11
0.347444
21
1.1255301
0
LINE
8
layer0
10
0.347444
20
1.1255301
11
0.3527261
21
1.0739891
0
LINE
8
layer0
10
0.3527261
20
1.0739891
11
0.3628377
21
1.0249725
0
LINE
8
layer0
10
0.3628377
20
1.0249725
11
0.377588
21
0.9787984
0
LINE
8
layer0
10
0.377588
20
0.9787984
11
0.3967293
21
0.935771
0
LINE
8
layer0
10
0.3967293
20
0.935771
11
0.4200426
21
0.8961659
0
LINE
8
layer0
10
0.4200426
20
0.8961659
11
0.4472521
21
0.8602449
0
LINE
8
layer0
10
0.4472521
20
0.8602449
11
0.4700563
21
0.8358851
0
LINE
8
layer0
10
0.4700563
20
0.8358851
11
0.5034317
21
0.807021
0
LINE
8
layer0
10
0.5034317
20
0.807021
11
0.5722615
21
0.7583013
0
LINE
8
layer0
10
0.5722615
20
0.7583013
11
0.6343738
21
0.7071633
0
LINE
8
layer0
10
0.6343738
20
0.7071633
11
0.6717514
21
0.6717514
0
LINE
8
layer0
10
0.6717514
20
0.6717514
11
0.7071633
21
0.6343738
0
LINE
8
layer0
10
0.7071633
20
0.6343738
11
0.7583013
21
0.5722615
0
LINE
8
layer0
10
0.7583013
20
0.5722615
11
0.807021
21
0.5034317
0
LINE
8
layer0
10
0.807021
20
0.5034317
11
0.8358851
21
0.4700563
0
LINE
8
layer0
10
0.8358851
20
0.4700563
11
0.8602449
21
0.4472521
0
LINE
8
layer0
10
0.8602449
20
0.4472521
11
0.8961659
21
0.4200426
0
LINE
8
layer0
10
0.8961659
20
0.4200426
11
0.935771
21
0.3967293
0
LINE
8
layer0
10
0.935771
20
0.3967293
11
0.9787984
21
0.377588
0
LINE
8
layer0
10
0.9787984
20
0.377588
11
1.0249725
21
0.3628377
0
LINE
8
layer0
10
1.0249725
20
0.3628377
11
1.0739891
21
0.3527261
0
LINE
8
layer0
10
1.0739891
20
0.3527261
11
1.1255301
21
0.347444
0
LINE
8
layer0
10
1.1255301
20
0.347444
11
1.1792844
21
0.3471753
0
LINE
8
layer0
10
1.1792844
20
0.3471753
11
1.2349125
21
0.3521038
0
LINE
8
layer0
10
1.2349125
20
0.3521038
11
1.2920679
21
0.3623922
0
LINE
8
layer0
10
1.2920679
20
0.3623922
11
1.3504042
21
0.3781466
0
LINE
8
layer0
10
1.3504042
20
0.3781466
11
1.4095608
21
0.399487
0
LINE
8
layer0
10
1.4095608
20
0.399487
11
1.4691628
21
0.4265056
0
LINE
8
layer0
10
1.4691628
20
0.4265056
11
1.5288356
21
0.45928
0
LINE
8
layer0
10
1.5288356
20
0.45928
11
1.5882043
21
0.4978456
0
LINE
8
layer0
10
1.5882043
20
0.4978456
11
1.646887
21
0.5422307
0
LINE
8
layer0
10
1.646887
20
0.5422307
11
1.704488
21
0.5924494
0
LINE
8
layer0
10
1.704488
20
0.5924494
11
1.7606322
21
0.6484664
0
LINE
8
layer0
10
1.7606322
20
0.6484664
11
1.8602777
21
0.7658037
0
LINE
8
layer0
10
1.8602777
20
0.7658037
11
1.9096267
21
0.7654714
0
LINE
8
layer0
10
1.9096267
20
0.7654714
11
1.9852094
21
0.7593832
0
LINE
8
layer0
10
1.9852094
20
0.7593832
11
2.0747998
21
0.7445481
0
LINE
8
layer0
10
2.0747998
20
0.7445481
11
2.1740988
21
0.7194246
0
LINE
8
layer0
10
2.1740988
20
0.7194246
11
2.2849873
21
0.6812267
0
LINE
8
layer0
10
2.2849873
20
0.6812267
11
2.4026711
21
0.6293038
0
LINE
8
layer0
10
2.4026711
20
0.6293038
11
2.5283522
21
0.5607993
0
LINE
8
layer0
10
2.5283522
20
0.5607993
11
2.5929747
21
0.5201477
0
LINE
8
layer0
10
2.5929747
20
0.5201477
11
2.6580144
21
0.4753172
0
LINE
8
layer0
10
2.6580144
20
0.4753172
11
2.7238248
21
0.4258126
0
LINE
8
layer0
10
2.7238248
20
0.4258126
11
2.7907313
21
0.3709553
0
LINE
8
layer0
10
2.7907313
20
0.3709553
11
2.8568457
21
0.3119543
0
LINE
8
layer0
10
2.8568457
20
0.3119543
11
2.9947256
21
0.1754638
0
ARC
8
layer0
10
-0.0001387
20
1e-7
40
3
50
356.6469747
51
363.3530234
0
LINE
8
layer0
10
2.9947256
20
-0.1754638
11
2.8568457
21
-0.3119543
0
LINE
8
layer0
10
2.8568457
20
-0.3119543
11
2.7907313
21
-0.3709553
0
LINE
8
layer0
10
2.7907313
20
-0.3709553
11
2.7238248
21
-0.4258126
0
LINE
8
layer0
10
2.7238248
20
-0.4258126
11
2.6580144
21
-0.4753172
0
LINE
8
layer0
10
2.6580144
20
-0.4753172
11
2.5929747
21
-0.5201477
0
LINE
8
layer0
10
2.5929747
20
-0.5201477
11
2.5283522
21
-0.5607993
0
LINE
8
layer0
10
2.5283522
20
-0.5607993
11
2.4026711
21
-0.6293038
0
LINE
8
layer0
10
2.4026711
20
-0.6293038
11
2.2849873
21
-0.6812267
0
LINE
8
layer0
10
2.2849873
20
-0.6812267
11
2.1740988
21
-0.7194246
0
LINE
8
layer0
10
2.1740988
20
-0.7194246
11
2.0747998
21
-0.7445481
0
LINE
8
layer0
10
2.0747998
20
-0.7445481
11
1.9852094
21
-0.7593832
0
LINE
8
layer0
10
1.9852094
20
-0.7593832
11
1.9096267
21
-0.7654714
0
LINE
8
layer0
10
1.9096267
20
-0.7654714
11
1.8602777
21
-0.7658037
0
LINE
8
layer0
10
1.8602777
20
-0.7658037
11
1.7606322
21
-0.6484664
0
LINE
8
layer0
10
1.7606322
20
-0.6484664
11
1.704488
21
-0.5924494
0
LINE
8
layer0
10
1.704488
20
-0.5924494
11
1.646887
21
-0.5422307
0
LINE
8
layer0
10
1.646887
20
-0.5422307
11
1.5882043
21
-0.4978456
0
LINE
8
layer0
10
1.5882043
20
-0.4978456
11
1.5288356
21
-0.45928
0
LINE
8
layer0
10
1.5288356
20
-0.45928
11
1.4691628
21
-0.4265056
0
LINE
8
layer0
10
1.4691628
20
-0.4265056
11
1.4095608
21
-0.399487
0
LINE
8
layer0
10
1.4095608
20
-0.399487
11
1.3504042
21
-0.3781466
0
LINE
8
layer0
10
1.3504042
20
-0.3781466
11
1.2920679
21
-0.3623922
0
LINE
8
layer0
10
1.2920679
20
-0.3623922
11
1.2349125
21
-0.3521038
0
LINE
8
layer0
10
1.2349125
20
-0.3521038
11
1.1792844
21
-0.3471753
0
LINE
8
layer0
10
1.1792844
20
-0.3471753
11
1.1255301
21
-0.347444
0
LINE
8
layer0
10
1.1255301
20
-0.347444
11
1.0739891
21
-0.3527261
0
LINE
8
layer0
10
1.0739891
20
-0.3527261
11
1.0249725
21
-0.3628377
0
LINE
8
layer0
10
1.0249725
20
-0.3628377
11
0.9787984
21
-0.377588
0
LINE
8
layer0
10
0.9787984
20
-0.377588
11
0.935771
21
-0.3967293
0
LINE
8
layer0
10
0.935771
20
-0.3967293
11
0.8961659
21
-0.4200426
0
LINE
8
layer0
10
0.8961659
20
-0.4200426
11
0.8602449
21
-0.4472521
0
LINE
8
layer0
10
0.8602449
20
-0.4472521
11
0.8358851
21
-0.4700563
0
LINE
8
layer0
10
0.8358851
20
-0.4700563
11
0.807021
21
-0.5034317
0
LINE
8
layer0
10
0.807021
20
-0.5034317
11
0.7583013
21
-0.5722615
0
LINE
8
layer0
10
0.7583013
20
-0.5722615
11
0.7071633
21
-0.6343738
0
LINE
8
layer0
10
0.7071633
20
-0.6343738
11
0.6717514
21
-0.6717514
0
LINE
8
layer0
10
0.6717514
20
-0.6717514
11
0.6343738
21
-0.7071633
0
LINE
8
layer0
10
0.6343738
20
-0.7071633
11
0.5722615
21
-0.7583013
0
LINE
8
layer0
10
0.5722615
20
-0.7583013
11
0.5034317
21
-0.807021
0
LINE
8
layer0
10
0.5034317
20
-0.807021
11
0.4700563
21
-0.8358851
0
LINE
8
layer0
10
0.4700563
20
-0.8358851
11
0.4472521
21
-0.8602449
0
LINE
8
layer0
10
0.4472521
20
-0.8602449
11
0.4200426
21
-0.8961659
0
LINE
8
layer0
10
0.4200426
20
-0.8961659
11
0.3967293
21
-0.935771
0
LINE
8
layer0
10
0.3967293
20
-0.935771
11
0.377588
21
-0.9787984
0
LINE
8
layer0
10
0.377588
20
-0.9787984
11
0.3628377
21
-1.0249725
0
LINE
8
layer0
10
0.3628377
20
-1.0249725
11
0.3527261
21
-1.0739891
0
LINE
8
layer0
10
0.3527261
20
-1.0739891
11
0.347444
21
-1.1255301
0
LINE
8
layer0
10
0.347444
20
-1.1255301
11
0.3471753
21
-1.1792844
0
LINE
8
layer0
10
0.3471753
20
-1.1792844
11
0.3521038
21
-1.2349125
0
LINE
8
layer0
10
0.3521038
20
-1.2349125
11
0.3623922
21
-1.2920679
0
LINE
8
layer0
10
0.3623922
20
-1.2920679
11
0.3781466
21
-1.3504042
0
LINE
8
layer0
10
0.3781466
20
-1.3504042
11
0.399487
21
-1.4095608
0
LINE
8
layer0
10
0.399487
20
-1.4095608
11
0.4265056
21
-1.4691628
0
LINE
8
layer0
10
0.4265056
20
-1.4691628
11
0.45928
21
-1.5288356
0
LINE
8
layer0
10
0.45928
20
-1.5288356
11
0.4978456
21
-1.5882043
0
LINE
8
layer0
10
0.4978456
20
-1.5882043
11
0.5422307
21
-1.646887
0
LINE
8
layer0
10
0.5422307
20
-1.646887
11
0.5924494
21
-1.704488
0
LINE
8
layer0
10
0.5924494
20
-1.704488
11
0.6484664
21
-1.7606322
0
LINE
8
layer0
10
0.6484664
20
-1.7606322
11
0.7658037
21
-1.8602777
0
LINE
8
layer0
10
0.7658037
20
-1.8602777
11
0.7654714
21
-1.9096267
0
LINE
8
layer0
10
0.7654714
20
-1.9096267
11
0.7593832
21
-1.9852094
0
LINE
8
layer0
10
0.7593832
20
-1.9852094
11
0.7445481
21
-2.0747998
0
LINE
8
layer0
10
0.7445481
20
-2.0747998
11
0.7194246
21
-2.1740988
0
LINE
8
layer0
10
0.7194246
20
-2.1740988
11
0.6812267
21
-2.2849873
0
LINE
8
layer0
10
0.6812267
20
-2.2849873
11
0.6293038
21
-2.4026711
0
LINE
8
layer0
10
0.6293038
20
-2.4026711
11
0.5607993
21
-2.5283522
0
LINE
8
layer0
10
0.5607993
20
-2.5283522
11
0.5201477
21
-2.5929747
0
LINE
8
layer0
10
0.5201477
20
-2.5929747
11
0.4753172
21
-2.6580144
0
LINE
8
layer0
10
0.4753172
20
-2.6580144
11
0.4258126
21
-2.7238248
0
LINE
8
layer0
10
0.4258126
20
-2.7238248
11
0.3709553
21
-2.7907313
0
LINE
8
layer0
10
0.3709553
20
-2.7907313
11
0.3119543
21
-2.8568457
0
LINE
8
layer0
10
0.3119543
20
-2.8568457
11
0.1754638
21
-2.9947256
0
ARC
8
layer0
10
1e-7
20
0.0001387
40
3
50
266.6469747
51
273.3530234
0
LINE
8
layer0
10
-0.1754638
20
-2.9947256
11
-0.3119543
21
-2.8568457
0
LINE
8
layer0
10
-0.3119543
20
-2.8568457
11
-0.3709553
21
-2.7907313
0
LINE
8
layer0
10
-0.3709553
20
-2.7907313
11
-0.4258126
21
-2.7238248
0
LINE
8
layer0
10
-0.4258126
20
-2.7238248
11
-0.4753172
21
-2.6580144
0
LINE
8
layer0
10
-0.4753172
20
-2.6580144
11
-0.5201477
21
-2.5929747
0
LINE
8
layer0
10
-0.5201477
20
-2.5929747
11
-0.5607993
21
-2.5283522
0
LINE
8
layer0
10
-0.5607993
20
-2.5283522
11
-0.6293038
21
-2.4026711
0
LINE
8
layer0
10
-0.6293038
20
-2.4026711
11
-0.6812267
21
-2.2849873
0
LINE
8
layer0
10
-0.6812267
20
-2.2849873
11
-0.7194246
21
-2.1740988
0
LINE
8
layer0
10
-0.7194246
20
-2.1740988
11
-0.7445481
21
-2.0747998
0
LINE
8
layer0
10
-0.7445481
20
-2.0747998
11
-0.7593832
21
-1.9852094
0
LINE
8
layer0
10
-0.7593832
20
-1.9852094
11
-0.7654714
21
-1.9096267
0
LINE
8
layer0
10
-0.7654714
20
-1.9096267
11
-0.7658037
21
-1.8602777
0
LINE
8
layer0
10
-0.7658037
20
-1.8602777
11
-0.6484664
21
-1.7606322
0
LINE
8
layer0
10
-0.6484664
20
-1.7606322
11
-0.5924494
21
-1.704488
0
LINE
8
layer0
10
-0.5924494
20
-1.704488
11
-0.5422307
21
-1.646887
0
LINE
8
layer0
10
-0.5422307
20
-1.646887
11
-0.4978456
21
-1.5882043
0
LINE
8
layer0
10
-0.4978456
20
-1.5882043
11
-0.45928
21
-1.5288356
0
LINE
8
layer0
10
-0.45928
20
-1.5288356
11
-0.4265056
21
-1.4691628
0
LINE
8
layer0
10
-0.4265056
20
-1.4691628
11
-0.399487
21
-1.4095608
0
LINE
8
layer0
10
-0.399487
20
-1.4095608
11
-0.3781466
21
-1.3504042
0
LINE
8
layer0
10
-0.3781466
20
-1.3504042
11
-0.3623922
21
-1.2920679
0
LINE
8
layer0
10
-0.3623922
20
-1.2920679
11
-0.3521038
21
-1.2349125
0
LINE
8
layer0
10
-0.3521038
20
-1.2349125
11
-0.3471753
21
-1.1792844
0
LINE
8
layer0
10
-0.3471753
20
-1.1792844
11
-0.347444
21
-1.1255301
0
LINE
8
layer0
10
-0.347444
20
-1.1255301
11
-0.3527261
21
-1.0739891
0
LINE
8
layer0
10
-0.3527261
20
-1.0739891
11
-0.3628377
21
-1.0249725
0
LINE
8
layer0
10
-0.3628377
20
-1.0249725
11
-0.377588
21
-0.9787984
0
LINE
8
layer0
10
-0.377588
20
-0.9787984
11
-0.3967293
21
-0.935771
0
LINE
8
layer0
10
-0.3967293
20
-0.935771
11
-0.4200426
21
-0.8961659
0
LINE
8
layer0
10
-0.4200426
20
-0.8961659
11
-0.4472521
21
-0.8602449
0
LINE
8
layer0
10
-0.4472521
20
-0.8602449
11
-0.4700563
21
-0.8358851
0
LINE
8
layer0
10
-0.4700563
20
-0.8358851
11
-0.5034317
21
-0.807021
0
LINE
8
layer0
10
-0.5034317
20
-0.807021
11
-0.5722615
21
-0.7583013
0
LINE
8
layer0
10
-0.5722615
20
-0.7583013
11
-0.6343738
21
-0.7071633
0
LINE
8
layer0
10
-0.6343738
20
-0.7071633
11
-0.6717514
21
-0.6717514
0
LINE
8
layer0
10
-0.6717514
20
-0.6717514
11
-0.7071633
21
-0.6343738
0
LINE
8
layer0
10
-0.7071633
20
-0.6343738
11
-0.7583013
21
-0.5722615
0
LINE
8
layer0
10
-0.7583013
20
-0.5722615
11
-0.807021
21
-0.5034317
0
LINE
8
layer0
10
-0.807021
20
-0.5034317
11
-0.8358851
21
-0.4700563
0
LINE
8
layer0
10
-0.8358851
20
-0.4700563
11
-0.8602449
21
-0.4472521
0
LINE
8
layer0
10
-0.8602449
20
-0.4472521
11
-0.8961659
21
-0.4200426
0
LINE
8
layer0
10
-0.8961659
20
-0.4200426
11
-0.935771
21
-0.3967293
0
LINE
8
layer0
10
-0.935771
20
-0.3967293
11
-0.9787984
21
-0.377588
0
LINE
8
layer0
10
-0.9787984
20
-0.377588
11
-1.0249725
21
-0.3628377
0
LINE
8
layer0
10
-1.0249725
20
-0.3628377
11
-1.0739891
21
-0.3527261
0
LINE
8
layer0
10
-1.0739891
20
-0.3527261
11
-1.1255301
21
-0.347444
0
LINE
8
layer0
10
-1.1255301
20
-0.347444
11
-1.1792844
21
-0.3471753
0
LINE
8
layer0
10
-1.1792844
20
-0.3471753
11
-1.2349125
21
-0.3521038
0
LINE
8
layer0
10
-1.2349125
20
-0.3521038
11
-1.2920679
21
-0.3623922
0
LINE
8
layer0
10
-1.2920679
20
-0.3623922
11
-1.3504042
21
-0.3781466
0
LINE
8
layer0
10
-1.3504042
20
-0.3781466
11
-1.4095608
21
-0.399487
0
LINE
8
layer0
10
-1.4095608
20
-0.399487
11
-1.4691628
21
-0.4265056
0
LINE
8
layer0
10
-1.4691628
20
-0.4265056
11
-1.5288356
21
-0.45928
0
LINE
8
layer0
10
-1.5288356
20
-0.45928
11
-1.5882043
21
-0.4978456
0
LINE
8
layer0
10
-1.5882043
20
-0.4978456
11
-1.646887
21
-0.5422307
0
LINE
8
layer0
10
-1.646887
20
-0.5422307
11
-1.704488
21
-0.5924494
0
LINE
8
layer0
10
-1.704488
20
-0.5924494
11
-1.7606322
21
-0.6484664
0
LINE
8
layer0
10
-1.7606322
20
-0.6484664
11
-1.8602777
21
-0.7658037
0
LINE
8
layer0
10
-1.8602777
20
-0.7658037
11
-1.9096267
21
-0.7654714
0
LINE
8
layer0
10
-1.9096267
20
-0.7654714
11
-1.9852094
21
-0.7593832
0
LINE
8
layer0
10
-1.9852094
20
-0.7593832
11
-2.0747998
21
-0.7445481
0
LINE
8
layer0
10
-2.0747998
20
-0.7445481
11
-2.1740988
21
-0.7194246
0
LINE
8
layer0
10
-2.1740988
20
-0.7194246
11
-2.2849873
21
-0.6812267
0
LINE
8
layer0
10
-2.2849873
20
-0.6812267
11
-2.4026711
21
-0.6293038
0
LINE
8
layer0
10
-2.4026711
20
-0.6293038
11
-2.5283522
21
-0.5607993
0
LINE
8
layer0
10
-2.5283522
20
-0.5607993
11
-2.5929747
21
-0.5201477
0
LINE
8
layer0
10
-2.5929747
20
-0.5201477
11
-2.6580144
21
-0.4753172
0
LINE
8
layer0
10
-2.6580144
20
-0.4753172
11
-2.7238248
21
-0.4258126
0
LINE
8
layer0
10
-2.7238248
20
-0.4258126
11
-2.7907313
21
-0.3709553
0
LINE
8
layer0
10
-2.7907313
20
-0.3709553
11
-2.8568457
21
-0.3119543
0
LINE
8
layer0
10
-2.8568457
20
-0.3119543
11
-2.9947256
21
-0.1754638
0
ARC
8
layer0
10
0.0001387
20
-1e-7
40
3
50
176.6469747
51
183.3530234
0
LINE
8
layer0
10
-2.9947256
20
0.1754638
11
-2.8568457
21
0.3119543
0
LINE
8
layer0
10
-2.8568457
20
0.3119543
11
-2.7907313
21
0.3709553
0
LINE
8
layer0
10
-2.7907313
20
0.3709553
11
-2.7238248
21
0.4258126
0
LINE
8
layer0
10
-2.7238248
20
0.4258126
11
-2.6580144
21
0.4753172
0
LINE
8
layer0
10
-2.6580144
20
0.4753172
11
-2.5929747
21
0.5201477
0
LINE
8
layer0
10
-2.5929747
20
0.5201477
11
-2.5283522
21
0.5607993
0
LINE
8
layer0
10
-2.5283522
20
0.5607993
11
-2.4026711
21
0.6293038
0
LINE
8
layer0
10
-2.4026711
20
0.6293038
11
-2.2849873
21
0.6812267
0
LINE
8
layer0
10
-2.2849873
20
0.6812267
11
-2.1740988
21
0.7194246
0
LINE
8
layer0
10
-2.1740988
20
0.7194246
11
-2.0747998
21
0.7445481
0
LINE
8
layer0
10
-2.0747998
20
0.7445481
11
-1.9852094
21
0.7593832
0
LINE
8
layer0
10
-1.9852094
20
0.7593832
11
-1.9096267
21
0.7654714
0
LINE
8
layer0
10
-1.9096267
20
0.7654714
11
-1.8602777
21
0.7658037
0
LINE
8
layer0
10
-1.8602777
20
0.7658037
11
-1.7606322
21
0.6484664
0
LINE
8
layer0
10
-1.7606322
20
0.6484664
11
-1.704488
21
0.5924494
0
LINE
8
layer0
10
-1.704488
20
0.5924494
11
-1.646887
21
0.5422307
0
LINE
8
layer0
10
-1.646887
20
0.5422307
11
-1.5882043
21
0.4978456
0
LINE
8
layer0
10
-1.5882043
20
0.4978456
11
-1.5288356
21
0.45928
0
LINE
8
layer0
10
-1.5288356
20
0.45928
11
-1.4691628
21
0.4265056
0
LINE
8
layer0
10
-1.4691628
20
0.4265056
11
-1.4095608
21
0.399487
0
LINE
8
layer0
10
-1.4095608
20
0.399487
11
-1.3504042
21
0.3781466
0
LINE
8
layer0
10
-1.3504042
20
0.3781466
11
-1.2920679
21
0.3623922
0
LINE
8
layer0
10
-1.2920679
20
0.3623922
11
-1.2349125
21
0.3521038
0
LINE
8
layer0
10
-1.2349125
20
0.3521038
11
-1.1792844
21
0.3471753
0
LINE
8
layer0
10
-1.1792844
20
0.3471753
11
-1.1255301
21
0.347444
0
LINE
8
layer0
10
-1.1255301
20
0.347444
11
-1.0739891
21
0.3527261
0
LINE
8
layer0
10
-1.0739891
20
0.3527261
11
-1.0249725
21
0.3628377
0
LINE
8
layer0
10
-1.0249725
20
0.3628377
11
-0.9787984
21
0.377588
0
LINE
8
layer0
10
-0.9787984
20
0.377588
11
-0.935771
21
0.3967293
0
LINE
8
layer0
10
-0.935771
20
0.3967293
11
-0.8961659
21
0.4200426
0
LINE
8
layer0
10
-0.8961659
20
0.4200426
11
-0.8602449
21
0.4472521
0
LINE
8
layer0
10
-0.8602449
20
0.4472521
11
-0.8358851
21
0.4700563
0
LINE
8
layer0
10
-0.8358851
20
0.4700563
11
-0.807021
21
0.5034317
0
LINE
8
layer0
10
-0.807021
20
0.5034317
11
-0.7583013
21
0.5722615
0
LINE
8
layer0
10
-0.7583013
20
0.5722615
11
-0.7071633
21
0.6343738
0
LINE
8
layer0
10
-0.7071633
20
0.6343738
11
-0.6717514
21
0.6717514
0
LINE
8
layer0
10
-0.6717514
20
0.6717514
11
-0.6343738
21
0.7071633
0
LINE
8
layer0
10
-0.6343738
20
0.7071633
11
-0.5722615
21
0.7583013
0
LINE
8
layer0
10
-0.5722615
20
0.7583013
11
-0.5034317
21
0.807021
0
LINE
8
layer0
10
-0.5034317
20
0.807021
11
-0.4700563
21
0.8358851
0
LINE
8
layer0
10
-0.4700563
20
0.8358851
11
-0.4472521
21
0.8602449
0
LINE
8
layer0
10
-0.4472521
20
0.8602449
11
-0.4200426
21
0.8961659
0
LINE
8
layer0
10
-0.4200426
20
0.8961659
11
-0.3967293
21
0.935771
0
LINE
8
layer0
10
-0.3967293
20
0.935771
11
-0.377588
21
0.9787984
0
LINE
8
layer0
10
-0.377588
20
0.9787984
11
-0.3628377
21
1.0249725
0
LINE
8
layer0
10
-0.3628377
20
1.0249725
11
-0.3527261
21
1.0739891
0
LINE
8
layer0
10
-0.3527261
20
1.0739891
11
-0.347444
21
1.1255301
0
LINE
8
layer0
10
-0.347444
20
1.1255301
11
-0.3471753
21
1.1792844
0
LINE
8
layer0
10
-0.3471753
20
1.1792844
11
-0.3521038
21
1.2349125
0
LINE
8
layer0
10
-0.3521038
20
1.2349125
11
-0.3623922
21
1.2920679
0
LINE
8
layer0
10
-0.3623922
20
1.2920679
11
-0.3781466
21
1.3504042
0
LINE
8
layer0
10
-0.3781466
20
1.3504042
11
-0.399487
21
1.4095608
0
LINE
8
layer0
10
-0.399487
20
1.4095608
11
-0.4265056
21
1.4691628
0
LINE
8
layer0
10
-0.4265056
20
1.4691628
11
-0.45928
21
1.5288356
0
LINE
8
layer0
10
-0.45928
20
1.5288356
11
-0.4978456
21
1.5882043
0
LINE
8
layer0
10
-0.4978456
20
1.5882043
11
-0.5422307
21
1.646887
0
LINE
8
layer0
10
-0.5422307
20
1.646887
11
-0.5924494
21
1.704488
0
LINE
8
layer0
10
-0.5924494
20
1.704488
11
-0.6484664
21
1.7606322
0
LINE
8
layer0
10
-0.6484664
20
1.7606322
11
-0.7658037
21
1.8602777
0
LINE
8
layer0
10
-0.7658037
20
1.8602777
11
-0.7654714
21
1.9096267
0
LINE
8
layer0
10
-0.7654714
20
1.9096267
11
-0.7593832
21
1.9852094
0
LINE
8
layer0
10
-0.7593832
20
1.9852094
11
-0.7445481
21
2.0747998
0
LINE
8
layer0
10
-0.7445481
20
2.0747998
11
-0.7194246
21
2.1740988
0
LINE
8
layer0
10
-0.7194246
20
2.1740988
11
-0.6812267
21
2.2849873
0
LINE
8
layer0
10
-0.6812267
20
2.2849873
11
-0.6293038
21
2.4026711
0
LINE
8
layer0
10
-0.6293038
20
2.4026711
11
-0.5607993
21
2.5283522
0
LINE
8
layer0
10
-0.5607993
20
2.5283522
11
-0.5201477
21
2.5929747
0
LINE
8
layer0
10
-0.5201477
20
2.5929747
11
-0.4753172
21
2.6580144
0
LINE
8
layer0
10
-0.4753172
20
2.6580144
11
-0.4258126
21
2.7238248
0
LINE
8
layer0
10
-0.4258126
20
2.7238248
11
-0.3709553
21
2.7907313
0
LINE
8
layer0
10
-0.3709553
20
2.7907313
11
-0.3119543
21
2.8568457
0
LINE
8
layer0
10
-0.3119543
20
2.8568457
11
-0.1754638
21
2.9947256
0
ARC
8
layer0
10
-1e-7
20
-0.0001387
40
3
50
86.6469747
51
93.3530234
0
LINE
8
layer0
10
0.1754638
20
2.9947256
11
0.3119543
21
2.8568457
0
LINE
8
layer1
10
0.3119543
20
2.8568457
11
0.3709553
21
2.7907313
0
LINE
8
layer1
10
0.3709553
20
2.7907313
11
0.4258126
21
2.7238248
0
LINE
8
layer1
10
0.4258126
20
2.7238248
11
0.4753172
21
2.6580144
0
LINE
8
layer1
10
0.4753172
20
2.6580144
11
0.5201477
21
2.5929747
0
LINE
8
layer1
10
0.5201477
20
2.5929747
11
0.5607993
21
2.5283522
0
LINE
8
layer1
10
0.5607993
20
2.5283522
11
0.6293038
21
2.4026711
0
LINE
8
layer1
10
0.6293038
20
2.4026711
11
0.6812267
21
2.2849873
0
LINE
8
layer1
10
0.6812267
20
2.2849873
11
0.7194246
21
2.1740988
0
LINE
8
layer1
10
0.7194246
20
2.1740988
11
0.7445481
21
2.0747998
0
LINE
8
layer1
10
0.7445481
20
2.0747998
11
0.7593832
21
1.9852094
0
LINE
8
layer1
10
0.7593832
20
1.9852094
11
0.7654714
21
1.9096267
0
LINE
8
layer1
10
0.7654714
20
1.9096267
11
0.7658037
21
1.8602777
0
LINE
8
layer1
10
0.7658037
20
1.8602777
11
0.6484664
21
1.7606322
0
LINE
8
layer1
10
0.6484664
20
1.7606322
11
0.5924494
21
1.704488
0
LINE
8
layer1
10
0.5924494
20
1.704488
11
0.5422307
21
1.646887
0
LINE
8
layer1
10
0.5422307
20
1.646887
11
0.4978456
21
1.5882043
0
LINE
8
layer1
10
0.4978456
20
1.5882043
11
0.45928
21
1.5288356
0
LINE
8
layer1
10
0.45928
20
1.5288356
11
0.4265056
21
1.4691628
0
LINE
8
layer1
10
0.4265056
20
1.4691628
11
0.399487
21
1.4095608
0
LINE
8
layer1
10
0.399487
20
1.4095608
11
0.3781466
21
1.3504042
0
LINE
8
layer1
10
0.3781466
20
1.3504042
11
0.3623922
21
1.2920679
0
LINE
8
layer1
10
0.3623922
20
1.2920679
11
0.3521038
21
1.2349125
0
LINE
8
layer1
10
0.3521038
20
1.2349125
11
0.3471753
21
1.1792844
0
LINE
8
layer1
10
0.3471753
20
1.1792844
11
0.347444
21
1.1255301
0
LINE
8
layer1
10
0.347444
20
1.1255301
11
0.3527261
21
1.0739891
0
LINE
8
layer1
10
0.3527261
20
1.0739891
11
0.3628377
21
1.0249725
0
LINE
8
layer1
10
0.3628377
20
1.0249725
11
0.377588
21
0.9787984
0
LINE
8
layer1
10
0.377588
20
0.9787984
11
0.3967293
21
0.935771
0
LINE
8
layer1
10
0.3967293
20
0.935771
11
0.4200426
21
0.8961659
0
LINE
8
layer1
10
0.4200426
20
0.8961659
11
0.4472521
21
0.8602449
0
LINE
8
layer1
10
0.4472521
20
0.8602449
11
0.4700563
21
0.8358851
0
LINE
8
layer1
10
0.4700563
20
0.8358851
11
0.5034317
21
0.807021
0
LINE
8
layer1
10
0.5034317
20
0.807021
11
0.5722615
21
0.7583013
0
LINE
8
layer1
10
0.5722615
20
0.7583013
11
0.6343738
21
0.7071633
0
LINE
8
layer1
10
0.6343738
20
0.7071633
11
0.6717514
21
0.6717514
0
LINE
8
layer1
10
0.6717514
20
0.6717514
11
0.7071633
21
0.6343738
0
LINE
8
layer1
10
0.7071633
20
0.6343738
11
0.7583013
21
0.5722615
0
LINE
8
layer1
10
0.7583013
20
0.5722615
11
0.807021
21
0.5034317
0
LINE
8
layer1
10
0.807021
20
0.5034317
11
0.8358851
21
0.4700563
0
LINE
8
layer1
10
0.8358851
20
0.4700563
11
0.8602449
21
0.4472521
0
LINE
8
layer1
10
0.8602449
20
0.4472521
11
0.8961659
21
0.4200426
0
LINE
8
layer1
10
0.8961659
20
0.4200426
11
0.935771
21
0.3967293
0
LINE
8
layer1
10
0.935771
20
0.3967293
11
0.9787984
21
0.377588
0
LINE
8
layer1
10
0.9787984
20
0.377588
11
1.0249725
21
0.3628377
0
LINE
8
layer1
10
1.0249725
20
0.3628377
11
1.0739891
21
0.3527261
0
LINE
8
layer1
10
1.0739891
20
0.3527261
11
1.1255301
21
0.347444
0
LINE
8
layer1
10
1.1255301
20
0.347444
11
1.1792844
21
0.3471753
0
LINE
8
layer1
10
1.1792844
20
0.3471753
11
1.2349125
21
0.3521038
0
LINE
8
layer1
10
1.2349125
20
0.3521038
11
1.2920679
21
0.3623922
0
LINE
8
layer1
10
1.2920679
20
0.3623922
11
1.3504042
21
0.3781466
0
LINE
8
layer1
10
1.3504042
20
0.3781466
11
1.4095608
21
0.399487
0
LINE
8
layer1
10
1.4095608
20
0.399487
11
1.4691628
21
0.4265056
0
LINE
8
layer1
10
1.4691628
20
0.4265056
11
1.5288356
21
0.45928
0
LINE
8
layer1
10
1.5288356
20
0.45928
11
1.5882043
21
0.4978456
0
LINE
8
layer1
10
1.5882043
20
0.4978456
11
1.646887
21
0.5422307
0
LINE
8
layer1
10
1.646887
20
0.5422307
11
1.704488
21
0.5924494
0
LINE
8
layer1
10
1.704488
20
0.5924494
11
1.7606322
21
0.6484664
0
LINE
8
layer1
10
1.7606322
20
0.6484664
11
1.8602777
21
0.7658037
0
LINE
8
layer1
10
1.8602777
20
0.7658037
11
1.9096267
21
0.7654714
0
LINE
8
layer1
10
1.9096267
20
0.7654714
11
1.9852094
21
0.7593832
0
LINE
8
layer1
10
1.9852094
20
0.7593832
11
2.0747998
21
0.7445481
0
LINE
8
layer1
10
2.0747998
20
0.7445481
11
2.1740988
21
0.7194246
0
LINE
8
layer1
10
2.1740988
20
0.7194246
11
2.2849873
21
0.6812267
0
LINE
8
layer1
10
2.2849873
20
0.6812267
11
2.4026711
21
0.6293038
0
LINE
8
layer1
10
2.4026711
20
0.6293038
11
2.5283522
21
0.5607993
0
LINE
8
layer1
10
2.5283522
20
0.5607993
11
2.5929747
21
0.5201477
0
LINE
8
layer1
10
2.5929747
20
0.5201477
11
2.6580144
21
0.4753172
0
LINE
8
layer1
10
2.6580144
20
0.4753172
11
2.7238248
21
0.4258126
0
LINE
8
layer1
10
2.7238248
20
0.4258126
11
2.7907313
21
0.3709553
0
LINE
8
layer1
10
2.7907313
20
0.3709553
11
2.8568457
21
0.3119543
0
LINE
8
layer1
10
2.8568457
20
0.3119543
11
2.9947256
21
0.1754638
0
ARC
8
layer1
10
-0.0001387
20
1e-7
40
3
50
356.6469747
51
363.3530234
0
LINE
8
layer1
10
2.9947256
20
-0.1754638
11
2.8568457
21
-0.3119543
0
LINE
8
layer1
10
2.8568457
20
-0.3119543
11
2.7907313
21
-0.3709553
0
LINE
8
layer1
10
2.7907313
20
-0.3709553
11
2.7238248
21
-0.4258126
0
LINE
8
layer1
10
2.7238248
20
-0.4258126
11
2.6580144
21
-0.4753172
0
LINE
8
layer1
10
2.6580144
20
-0.4753172
11
2.5929747
21
-0.5201477
0
LINE
8
layer1
10
2.5929747
20
-0.5201477
11
2.5283522
21
-0.5607993
0
LINE
8
layer1
10
2.5283522
20
-0.5607993
11
2.4026711
21
-0.6293038
0
LINE
8
layer1
10
2.4026711
20
-0.6293038
11
2.2849873
21
-0.6812267
0
LINE
8
layer1
10
2.2849873
20
-0.6812267
11
2.1740988
21
-0.7194246
0
LINE
8
layer1
10
2.1740988
20
-0.7194246
11
2.0747998
21
-0.7445481
0
LINE
8
layer1
10
2.0747998
20
-0.7445481
11
1.9852094
21
-0.7593832
0
LINE
8
layer1
10
1.9852094
20
-0.7593832
11
1.9096267
21
-0.7654714
0
LINE
8
layer1
10
1.9096267
20
-0.7654714
11
1.8602777
21
-0.7658037
0
LINE
8
layer1
10
1.8602777
20
-0.7658037
11
1.7606322
21
-0.6484664
0
LINE
8
layer1
10
1.7606322
20
-0.6484664
11
1.704488
21
-0.5924494
0
LINE
8
layer1
10
1.704488
20
-0.5924494
11
1.646887
21
-0.5422307
0
LINE
8
layer1
10
1.646887
20
-0.5422307
11
1.5882043
21
-0.4978456
0
LINE
8
layer1
10
1.5882043
20
-0.4978456
11
1.5288356
21
-0.45928
0
LINE
8
layer1
10
1.5288356
20
-0.45928
11
1.4691628
21
-0.4265056
0
LINE
8
layer1
10
1.4691628
20
-0.4265056
11
1.4095608
21
-0.399487
0
LINE
8
layer1
10
1.4095608
20
-0.399487
11
1.3504042
21
-0.3781466
0
LINE
8
layer1
10
1.3504042
20
-0.3781466
11
1.2920679
21
-0.3623922
0
LINE
8
layer1
10
1.2920679
20
-0.3623922
11
1.2349125
21
-0.3521038
0
LINE
8
layer1
10
1.2349125
20
-0.3521038
11
1.1792844
21
-0.3471753
0
LINE
8
layer1
10
1.1792844
20
-0.3471753
11
1.1255301
21
-0.347444
0
LINE
8
layer1
10
1.1255301
20
-0.347444
11
1.0739891
21
-0.3527261
0
LINE
8
layer1
10
1.0739891
20
-0.3527261
11
1.0249725
21
-0.3628377
0
LINE
8
layer1
10
1.0249725
20
-0.3628377
11
0.9787984
21
-0.377588
0
LINE
8
layer1
10
0.9787984
20
-0.377588
11
0.935771
21
-0.3967293
0
LINE
8
layer1
10
0.935771
20
-0.3967293
11
0.8961659
21
-0.4200426
0
LINE
8
layer1
10
0.8961659
20
-0.4200426
11
0.8602449
21
-0.4472521
0
LINE
8
layer1
10
0.8602449
20
-0.4472521
11
0.8358851
21
-0.4700563
0
LINE
8
layer1
10
0.8358851
20
-0.4700563
11
0.807021
21
-0.5034317
0
LINE
8
layer1
10
0.807021
20
-0.5034317
11
0.7583013
21
-0.5722615
0
LINE
8
layer1
10
0.7583013
20
-0.5722615
11
0.7071633
21
-0.6343738
0
LINE
8
layer1
10
0.7071633
20
-0.6343738
11
0.6717514
21
-0.6717514
0
LINE
8
layer1
10
0.6717514
20
-0.6717514
11
0.6343738
21
-0.7071633
0
LINE
8
layer1
10
0.6343738
20
-0.7071633
11
0.5722615
21
-0.7583013
0
LINE
8
layer1
10
0.5722615
20
-0.7583013
11
0.5034317
21
-0.807021
0
LINE
8
layer1
10
0.5034317
20
-0.807021
11
0.4700563
21
-0.8358851
0
LINE
8
layer1
10
0.4700563
20
-0.8358851
11
0.4472521
21
-0.8602449
0
LINE
8
layer1
10
0.4472521
20
-0.8602449
11
0.4200426
21
-0.8961659
0
LINE
8
layer1
10
0.4200426
20
-0.8961659
11
0.3967293
21
-0.935771
0
LINE
8
layer1
10
0.3967293
20
-0.935771
11
0.377588
21
-0.9787984
0
LINE
8
layer1
10
0.377588
20
-0.9787984
11
0.3628377
21
-1.0249725
0
LINE
8
layer1
10
0.3628377
20
-1.0249725
11
0.3527261
21
-1.0739891
0
LINE
8
layer1
10
0.3527261
20
-1.0739891
11
0.347444
21
-1.1255301
0
LINE
8
layer1
10
0.347444
20
-1.1255301
11
0.3471753
21
-1.1792844
0
LINE
8
layer1
10
0.3471753
20
-1.1792844
11
0.3521038
21
-1.2349125
0
LINE
8
layer1
10
0.3521038
20
-1.2349125
11
0.3623922
21
-1.2920679
0
LINE
8
layer1
10
0.3623922
20
-1.2920679
11
0.3781466
21
-1.3504042
0
LINE
8
layer1
10
0.3781466
20
-1.3504042
11
0.399487
21
-1.4095608
0
LINE
8
layer1
10
0.399487
20
-1.4095608
11
0.4265056
21
-1.4691628
0
LINE
8
layer1
10
0.4265056
20
-1.4691628
11
0.45928
21
-1.5288356
0
LINE
8
layer1
10
0.45928
20
-1.5288356
11
0.4978456
21
-1.5882043
0
LINE
8
layer1
10
0.4978456
20
-1.5882043
11
0.5422307
21
-1.646887
0
LINE
8
layer1
10
0.5422307
20
-1.646887
11
0.5924494
21
-1.704488
0
LINE
8
layer1
10
0.5924494
20
-1.704488
11
0.6484664
21
-1.7606322
0
LINE
8
layer1
10
0.6484664
20
-1.7606322
11
0.7658037
21
-1.8602777
0
LINE
8
layer1
10
0.7658037
20
-1.8602777
11
0.7654714
21
-1.9096267
0
LINE
8
layer1
10
0.7654714
20
-1.9096267
11
0.7593832
21
-1.9852094
0
LINE
8
layer1
10
0.7593832
20
-1.9852094
11
0.7445481
21
-2.0747998
0
LINE
8
layer1
10
0.7445481
20
-2.0747998
11
0.7194246
21
-2.1740988
0
LINE
8
layer1
10
0.7194246
20
-2.1740988
11
0.6812267
21
-2.2849873
0
LINE
8
layer1
10
0.6812267
20
-2.2849873
11
0.6293038
21
-2.4026711
0
LINE
8
layer1
10
0.6293038
20
-2.4026711
11
0.5607993
21
-2.5283522
0
LINE
8
layer1
10
0.5607993
20
-2.5283522
11
0.5201477
21
-2.5929747
0
LINE
8
layer1
10
0.5201477
20
-2.5929747
11
0.4753172
21
-2.6580144
0
LINE
8
layer1
10
0.4753172
20
-2.6580144
11
0.4258126
21
-2.7238248
0
LINE
8
layer1
10
0.4258126
20
-2.7238248
11
0.3709553
21
-2.7907313
0
LINE
8
layer1
10
0.3709553
20
-2.7907313
11
0.3119543
21
-2.8568457
0
LINE
8
layer1
10
0.3119543
20
-2.8568457
11
0.1754638
21
-2.9947256
0
ARC
8
layer1
10
1e-7
20
0.0001387
40
3
50
266.6469747
51
273.3530234
0
LINE
8
layer1
10
-0.1754638
20
-2.9947256
11
-0.3119543
21
-2.8568457
0
LINE
8
layer1
10
-0.3119543
20
-2.8568457
11
-0.3709553
21
-2.7907313
0
LINE
8
layer1
10
-0.3709553
20
-2.7907313
11
-0.4258126
21
-2.7238248
0
LINE
8
layer1
10
-0.4258126
20
-2.7238248
11
-0.4753172
21
-2.6580144
0
LINE
8
layer1
10
-0.4753172
20
-2.6580144
11
-0.5201477
21
-2.5929747
0
LINE
8
layer1
10
-0.5201477
20
-2.5929747
11
-0.5607993
21
-2.5283522
0
LINE
8
layer1
10
-0.5607993
20
-2.5283522
11
-0.6293038
21
-2.4026711
0
LINE
8
layer1
10
-0.6293038
20
-2.4026711
11
-0.6812267
21
-2.2849873
0
LINE
8
layer1
10
-0.6812267
20
-2.2849873
11
-0.7194246
21
-2.1740988
0
LINE
8
layer1
10
-0.7194246
20
-2.1740988
11
-0.7445481
21
-2.0747998
0
LINE
8
layer1
10
-0.7445481
20
-2.0747998
11
-0.7593832
21
-1.9852094
0
LINE
8
layer1
10
-0.7593832
20
-1.9852094
11
-0.7654714
21
-1.9096267
0
LINE
8
layer1
10
-0.7654714
20
-1.9096267
11
-0.7658037
21
-1.8602777
0
LINE
8
layer1
10
-0.7658037
20
-1.8602777
11
-0.6484664
21
-1.7606322
0
LINE
8
layer1
10
-0.6484664
20
-1.7606322
11
-0.5924494
21
-1.704488
0
LINE
8
layer1
10
-0.5924494
20
-1.704488
11
-0.5422307
21
-1.646887
0
LINE
8
layer1
10
-0.5422307
20
-1.646887
11
-0.4978456
21
-1.5882043
0
LINE
8
layer1
10
-0.4978456
20
-1.5882043
11
-0.45928
21
-1.5288356
0
LINE
8
layer1
10
-0.45928
20
-1.5288356
11
-0.4265056
21
-1.4691628
0
LINE
8
layer1
10
-0.4265056
20
-1.4691628
11
-0.399487
21
-1.4095608
0
LINE
8
layer1
10
-0.399487
20
-1.4095608
11
-0.3781466
21
-1.3504042
0
LINE
8
layer1
10
-0.3781466
20
-1.3504042
11
-0.3623922
21
-1.2920679
0
LINE
8
layer1
10
-0.3623922
20
-1.2920679
11
-0.3521038
21
-1.2349125
0
LINE
8
layer1
10
-0.3521038
20
-1.2349125
11
-0.3471753
21
-1.1792844
0
LINE
8
layer1
10
-0.3471753
20
-1.1792844
11
-0.347444
21
-1.1255301
0
LINE
8
layer1
10
-0.347444
20
-1.1255301
11
-0.3527261
21
-1.0739891
0
LINE
8
layer1
10
-0.3527261
20
-1.0739891
11
-0.3628377
21
-1.0249725
0
LINE
8
layer1
10
-0.3628377
20
-1.0249725
11
-0.377588
21
-0.9787984
0
LINE
8
layer1
10
-0.377588
20
-0.9787984
11
-0.3967293
21
-0.935771
0
LINE
8
layer1
10
-0.3967293
20
-0.935771
11
-0.4200426
21
-0.8961659
0
LINE
8
layer1
10
-0.4200426
20
-0.8961659
11
-0.4472521
21
-0.8602449
0
LINE
8
layer1
10
-0.4472521
20
-0.8602449
11
-0.4700563
21
-0.8358851
0
LINE
8
layer1
10
-0.4700563
20
-0.8358851
11
-0.5034317
21
-0.807021
0
LINE
8
layer1
10
-0.5034317
20
-0.807021
11
-0.5722615
21
-0.7583013
0
LINE
8
layer1
10
-0.5722615
20
-0.7583013
11
-0.6343738
21
-0.7071633
0
LINE
8
layer1
10
-0.6343738
20
-0.7071633
11
-0.6717514
21
-0.6717514
0
LINE
8
layer1
10
-0.6717514
20
-0.6717514
11
-0.7071633
21
-0.6343738
0
LINE
8
layer1
10
-0.7071633
20
-0.6343738
11
-0.7583013
21
-0.5722615
0
LINE
8
layer1
10
-0.7583013
20
-0.5722615
11
-0.807021
21
-0.5034317
0
LINE
8
layer1
10
-0.807021
20
-0.5034317
11
-0.8358851
21
-0.4700563
0
LINE
8
layer1
10
-0.8358851
20
-0.4700563
11
-0.8602449
21
-0.4472521
0
LINE
8
layer1
10
-0.8602449
20
-0.4472521
11
-0.8961659
21
-0.4200426
0
LINE
8
layer1
10
-0.8961659
20
-0.4200426
11
-0.935771
21
-0.3967293
0
LINE
8
layer1
10
-0.935771
20
-0.3967293
11
-0.9787984
21
-0.377588
0
LINE
8
layer1
10
-0.9787984
20
-0.377588
11
-1.0249725
21
-0.3628377
0
LINE
8
layer1
10
-1.0249725
20
-0.3628377
11
-1.0739891
21
-0.3527261
0
LINE
8
layer1
10
-1.0739891
20
-0.3527261
11
-1.1255301
21
-0.347444
0
LINE
8
layer1
10
-1.1255301
20
-0.347444
11
-1.1792844
21
-0.3471753
0
LINE
8
layer1
10
-1.1792844
20
-0.3471753
11
-1.2349125
21
-0.3521038
0
LINE
8
layer1
10
-1.2349125
20
-0.3521038
11
-1.2920679
21
-0.3623922
0
LINE
8
layer1
10
-1.2920679
20
-0.3623922
11
-1.3504042
21
-0.3781466
0
LINE
8
layer1
10
-1.3504042
20
-0.3781466
11
-1.4095608
21
-0.399487
0
LINE
8
layer1
10
-1.4095608
20
-0.399487
11
-1.4691628
21
-0.4265056
0
LINE
8
layer1
10
-1.4691628
20
-0.4265056
11
-1.5288356
21
-0.45928
0
LINE
8
layer1
10
-1.5288356
20
-0.45928
11
-1.5882043
21
-0.4978456
0
LINE
8
layer1
10
-1.5882043
20
-0.4978456
11
-1.646887
21
-0.5422307
0
LINE
8
layer1
10
-1.646887
20
-0.5422307
11
-1.704488
21
-0.5924494
0
LINE
8
layer1
10
-1.704488
20
-0.5924494
11
-1.7606322
21
-0.6484664
0
LINE
8
layer1
10
-1.7606322
20
-0.6484664
11
-1.8602777
21
-0.7658037
0
LINE
8
layer1
10
-1.8602777
20
-0.7658037
11
-1.9096267
21
-0.7654714
0
LINE
8
layer1
10
-1.9096267
20
-0.7654714
11
-1.9852094
21
-0.7593832
0
LINE
8
layer1
10
-1.9852094
20
-0.7593832
11
-2.0747998
21
-0.7445481
0
LINE
8
layer1
10
-2.0747998
20
-0.7445481
11
-2.1740988
21
-0.7194246
0
LINE
8
layer1
10
-2.1740988
20
-0.7194246
11
-2.2849873
21
-0.6812267
0
LINE
8
layer1
10
-2.2849873
20
-0.6812267
11
-2.4026711
21
-0.6293038
0
LINE
8
layer1
10
-2.4026711
20
-0.6293038
11
-2.5283522
21
-0.5607993
0
LINE
8
layer1
10
-2.5283522
20
-0.5607993
11
-2.5929747
21
-0.5201477
0
LINE
8
layer1
10
-2.5929747
20
-0.5201477
11
-2.6580144
21
-0.4753172
0
LINE
8
layer1
10
-2.6580144
20
-0.4753172
11
-2.7238248
21
-0.4258126
0
LINE
8
layer1
10
-2.7238248
20
-0.4258126
11
-2.7907313
21
-0.3709553
0
LINE
8
layer1
10
-2.7907313
20
-0.3709553
11
-2.8568457
21
-0.3119543
0
LINE
8
layer1
10
-2.8568457
20
-0.3119543
11
-2.9947256
21
-0.1754638
0
ARC
8
layer1
10
0.0001387
20
-1e-7
40
3
50
176.6469747
51
183.3530234
0
LINE
8
layer1
10
-2.9947256
20
0.1754638
11
-2.8568457
21
0.3119543
0
LINE
8
layer1
10
-2.8568457
20
0.3119543
11
-2.7907313
21
0.3709553
0
LINE
8
layer1
10
-2.7907313
20
0.3709553
11
-2.7238248
21
0.4258126
0
LINE
8
layer1
10
-2.7238248
20
0.4258126
11
-2.6580144
21
0.4753172
0
LINE
8
layer1
10
-2.6580144
20
0.4753172
11
-2.5929747
21
0.5201477
0
LINE
8
layer1
10
-2.5929747
20
0.5201477
11
-2.5283522
21
0.5607993
0
LINE
8
layer1
10
-2.5283522
20
0.5607993
11
-2.4026711
21
0.6293038
0
LINE
8
layer1
10
-2.4026711
20
0.6293038
11
-2.2849873
21
0.6812267
0
LINE
8
layer1
10
-2.2849873
20
0.6812267
11
-2.1740988
21
0.7194246
0
LINE
8
layer1
10
-2.1740988
20
0.7194246
11
-2.0747998
21
0.7445481
0
LINE
8
layer1
10
-2.0747998
20
0.7445481
11
-1.9852094
21
0.7593832
0
LINE
8
layer1
10
-1.9852094
20
0.7593832
11
-1.9096267
21
0.7654714
0
LINE
8
layer1
10
-1.9096267
20
0.7654714
11
-1.8602777
21
0.7658037
0
LINE
8
layer1
10
-1.8602777
20
0.7658037
11
-1.7606322
21
0.6484664
0
LINE
8
layer1
10
-1.7606322
20
0.6484664
11
-1.704488
21
0.5924494
0
LINE
8
layer1
10
-1.704488
20
0.5924494
11
-1.646887
21
0.5422307
0
LINE
8
layer1
10
-1.646887
20
0.5422307
11
-1.5882043
21
0.4978456
0
LINE
8
layer1
10
-1.5882043
20
0.4978456
11
-1.5288356
21
0.45928
0
LINE
8
layer1
10
-1.5288356
20
0.45928
11
-1.4691628
21
0.4265056
0
LINE
8
layer1
10
-1.4691628
20
0.4265056
11
-1.4095608
21
0.399487
0
LINE
8
layer1
10
-1.4095608
20
0.399487
11
-1.3504042
21
0.3781466
0
LINE
8
layer1
10
-1.3504042
20
0.3781466
11
-1.2920679
21
0.3623922
0
LINE
8
layer1
10
-1.2920679
20
0.3623922
11
-1.2349125
21
0.3521038
0
LINE
8
layer1
10
-1.2349125
20
0.3521038
11
-1.1792844
21
0.3471753
0
LINE
8
layer1
10
-1.1792844
20
0.3471753
11
-1.1255301
21
0.347444
0
LINE
8
layer1
10
-1.1255301
20
0.347444
11
-1.0739891
21
0.3527261
0
LINE
8
layer1
10
-1.0739891
20
0.3527261
11
-1.0249725
21
0.3628377
0
LINE
8
layer1
10
-1.0249725
20
0.3628377
11
-0.9787984
21
0.377588
0
LINE
8
layer1
10
-0.9787984
20
0.377588
11
-0.935771
21
0.3967293
0
LINE
8
layer1
10
-0.935771
20
0.3967293
11
-0.8961659
21
0.4200426
0
LINE
8
layer1
10
-0.8961659
20
0.4200426
11
-0.8602449
21
0.4472521
0
LINE
8
layer1
10
-0.8602449
20
0.4472521
11
-0.8358851
21
0.4700563
0
LINE
8
layer1
10
-0.8358851
20
0.4700563
11
-0.807021
21
0.5034317
0
LINE
8
layer1
10
-0.807021
20
0.5034317
11
-0.7583013
21
0.5722615
0
LINE
8
layer1
10
-0.7583013
20
0.5722615
11
-0.7071633
21
0.6343738
0
LINE
8
layer1
10
-0.7071633
20
0.6343738
11
-0.6717514
21
0.6717514
0
LINE
8
layer1
10
-0.6717514
20
0.6717514
11
-0.6343738
21
0.7071633
0
LINE
8
layer1
10
-0.6343738
20
0.7071633
11
-0.5722615
21
0.7583013
0
LINE
8
layer1
10
-0.5722615
20
0.7583013
11
-0.5034317
21
0.807021
0
LINE
8
layer1
10
-0.5034317
20
0.807021
11
-0.4700563
21
0.8358851
0
LINE
8
layer1
10
-0.4700563
20
0.8358851
11
-0.4472521
21
0.8602449
0
LINE
8
layer1
10
-0.4472521
20
0.8602449
11
-0.4200426
21
0.8961659
0
LINE
8
layer1
10
-0.4200426
20
0.8961659
11
-0.3967293
21
0.935771
0
LINE
8
layer1
10
-0.3967293
20
0.935771
11
-0.377588
21
0.9787984
0
LINE
8
layer1
10
-0.377588
20
0.9787984
11
-0.3628377
21
1.0249725
0
LINE
8
layer1
10
-0.3628377
20
1.0249725
11
-0.3527261
21
1.0739891
0
LINE
8
layer1
10
-0.3527261
20
1.0739891
11
-0.347444
21
1.1255301
0
LINE
8
layer1
10
-0.347444
20
1.1255301
11
-0.3471753
21
1.1792844
0
LINE
8
layer1
10
-0.3471753
20
1.1792844
11
-0.3521038
21
1.2349125
0
LINE
8
layer1
10
-0.3521038
20
1.2349125
11
-0.3623922
21
1.2920679
0
LINE
8
layer1
10
-0.3623922
20
1.2920679
11
-0.3781466
21
1.3504042
0
LINE
8
layer1
10
-0.3781466
20
1.3504042
11
-0.399487
21
1.4095608
0
LINE
8
layer1
10
-0.399487
20
1.4095608
11
-0.4265056
21
1.4691628
0
LINE
8
layer1
10
-0.4265056
20
1.4691628
11
-0.45928
21
1.5288356
0
LINE
8
layer1
10
-0.45928
20
1.5288356
11
-0.4978456
21
1.5882043
0
LINE
8
layer1
10
-0.4978456
20
1.5882043
11
-0.5422307
21
1.646887
0
LINE
8
layer1
10
-0.5422307
20
1.646887
11
-0.5924494
21
1.704488
0
LINE
8
layer1
10
-0.5924494
20
1.704488
11
-0.6484664
21
1.7606322
0
LINE
8
layer1
10
-0.6484664
20
1.7606322
11
-0.7658037
21
1.8602777
0
LINE
8
layer1
10
-0.7658037
20
1.8602777
11
-0.7654714
21
1.9096267
0
LINE
8
layer1
10
-0.7654714
20
1.9096267
11
-0.7593832
21
1.9852094
0
LINE
8
layer1
10
-0.7593832
20
1.9852094
11
-0.7445481
21
2.0747998
0
LINE
8
layer1
10
-0.7445481
20
2.0747998
11
-0.7194246
21
2.1740988
0
LINE
8
layer1
10
-0.7194246
20
2.1740988
11
-0.6812267
21
2.2849873
0
LINE
8
layer1
10
-0.6812267
20
2.2849873
11
-0.6293038
21
2.4026711
0
LINE
8
layer1
10
-0.6293038
20
2.4026711
11
-0.5607993
21
2.5283522
0
LINE
8
layer1
10
-0.5607993
20
2.5283522
11
-0.5201477
21
2.5929747
0
LINE
8
layer1
10
-0.5201477
20
2.5929747
11
-0.4753172
21
2.6580144
0
LINE
8
layer1
10
-0.4753172
20
2.6580144
11
-0.4258126
21
2.7238248
0
LINE
8
layer1
10
-0.4258126
20
2.7238248
11
-0.3709553
21
2.7907313
0
LINE
8
layer1
10
-0.3709553
20
2.7907313
11
-0.3119543
21
2.8568457
0
LINE
8
layer1
10
-0.3119543
20
2.8568457
11
-0.1754638
21
2.9947256
0
ARC
8
layer1
10
-1e-7
20
-0.0001387
40
3
50
86.6469747
51
93.3530234
0
LINE
8
layer1
10
0.1754638
20
2.9947256
11
0.3119543
21
2.8568457
0
ENDSEC
0
EOF