  0
SECTION
  2
HEADER
  9
$ACADVER
  1
AC1009
  9
$DWGCODEPAGE
  3
ANSI_1251
  9
$HANDSEED
  5
934
  0
ENDSEC
  0
SECTION
  2
TABLES
  0
TABLE
  2
VPORT
 70
        1
  0
VPORT
  2
*ACTIVE
 70
     0
 10
0.0
 20
0.0
 11
1.0
 21
1.0
 12
464.07916259765625
 22
328.08334350585938
 13
0.0
 23
0.0
 14
1.0
 24
1.0
 15
0.0
 25
0.0
 16
0.0
 26
0.0
 36
1.0
 17
0.0
 27
0.0
 37
1.0
 40
656.16668701171875
 41
1.4145160727715154
 42
50.0
 43
0.0
 44
0.0
 50
0.0
 51
0.0
 71
     0
 72
   100
 73
     1
 74
     0
 75
     1
 76
     0
 77
     0
 78
     0
  0
ENDTAB
  0
TABLE
  2
LTYPE
 70
        1
  0
LTYPE
  2
CONTINUOUS
 70
     0
  3
Solid line
 72
    65
 73
     0
 40
0.0
  0
ENDTAB
  0
TABLE
  2
LAYER
 70
        1
  0
LAYER
  2
0
 70
     0
 62
     7
  6
CONTINUOUS
  0
ENDTAB
  0
TABLE
  2
STYLE
 70
        1
  0
STYLE
  2
Standard
 70
     0
 40
0.0
 41
0.0
 50
0.0
 71
     0
 42
0.0
  3
txt
  0
ENDTAB
  0
TABLE
  2
VIEW
 70
        0
  0
ENDTAB
  0
TABLE
  2
UCS
 70
        0
  0
ENDTAB
  0
TABLE
  2
APPID
 70
        1
  0
APPID
  2
ACAD
 70
     0
  0
ENDTAB
  0
TABLE
  2
DIMSTYLE
 70
        0
  0
ENDTAB
  0
TABLE
  2
BLOCK_RECORD
 70
        0
  0
ENDTAB
  0
ENDSEC
  0
SECTION
  2
ENTITIES
  0
3DFACE
  5
01
100
AcDbEntity
  8
0
 62
     7
100
AcDbFace
 10
-27807.375981835223
 20
2791.3048645547642
 30
-92488.550395871658
 11
-27144.17800430251
 21
3187.5270166025289
 31
-103578.8456939014
 12
-29799.584478920617
 22
3150.9726037514624
 32
-103580.16044632929
 13
-27807.375981835223
 23
2791.3048645547642
 33
-92488.550395871658
  0
3DFACE
  5
07
100
AcDbEntity
  8
0
 62
     7
100
AcDbFace
 10
-26480.327630678694
 20
3583.7490130214555
 30
-114668.50353620853
 11
-27144.17800430251
 21
3187.5270166025289
 31
-103578.8456939014
 12
-24489.423925775511
 22
3224.7338255447039
 32
-103577.55086196485
 13
-26480.327630678694
 23
3583.7490130214555
 33
-114668.50353620853
  0
3DFACE
  5
0D
100
AcDbEntity
  8
0
 62
     7
100
AcDbFace
 10
-33117.536534980325
 20
2809.5820709802974
 30
-92487.893019657713
 11
-32454.33855744762
 21
3187.5270166025289
 31
-103578.8456939014
 12
-34445.23977228938
 22
2827.8591217769922
 32
-92487.893019657713
 13
-33117.536534980325
 23
2809.5820709802974
 33
-92487.893019657713
  0
3DFACE
  5
13
100
AcDbEntity
  8
0
 62
     7
100
AcDbFace
 10
-31790.485693762381
 20
3565.4719622247608
 30
-114669.16091242248
 11
-32454.33855744762
 21
3187.5270166025289
 31
-103578.8456939014
 12
-30463.434852544437
 22
3547.847618776851
 32
-114669.80832839075
 13
-31790.485693762381
 23
3565.4719622247608
 33
-114669.16091242248
  0
3DFACE
  5
19
100
AcDbEntity
  8
0
 62
     7
100
AcDbFace
 10
-35108.437749822093
 20
36082.446941380258
 30
-91325.990521762549
 11
-35108.437749822093
 21
42343.671512167435
 31
-80003.965128195749
 12
-35108.437749822093
 22
29045.752503915766
 32
-80468.072735238136
 13
-35108.437749822093
 23
36082.446941380258
 33
-91325.990521762549
  0
3DFACE
  5
1F
100
AcDbEntity
  8
0
 62
     7
100
AcDbFace
 10
-35108.437749822093
 20
30981.822566367446
 30
-135918.92671003274
 11
-35108.437749822093
 21
30594.737539058478
 31
-124827.97403578907
 12
-35108.437749822093
 22
24333.51545833272
 32
-136151.31916190658
 13
-35108.437749822093
 23
30981.822566367446
 33
-135918.92671003274
  0
3DFACE
  5
25
100
AcDbEntity
  8
0
 62
     7
100
AcDbFace
 10
-35108.437749822093
 20
28658.667476606799
 30
-69377.77245708555
 11
-35108.437749822093
 21
29045.752503915766
 31
-80468.072735238136
 12
-35108.437749822093
 22
35307.626980732639
 32
-69146.042361548505
 13
-35108.437749822093
 23
28658.667476606799
 33
-69377.77245708555
  0
3DFACE
  5
2B
100
AcDbEntity
  8
0
 62
     7
100
AcDbFace
 10
-35108.437749822093
 20
57577.658092809361
 30
-134990.05411973404
 11
-35108.437749822093
 21
57189.920669409286
 31
-123899.75882170428
 12
-35108.437749822093
 22
50928.696098622109
 32
-135221.78919539391
 13
-35108.437749822093
 23
57577.658092809361
 33
-134990.05411973404
  0
3DFACE
  5
31
100
AcDbEntity
  8
0
 62
     7
100
AcDbFace
 10
-35108.437749822093
 20
29433.487437254422
 30
-91558.373013390708
 11
-35108.437749822093
 21
29045.752503915766
 31
-80468.072735238136
 12
-35108.437749822093
 22
22784.527933128589
 32
-91790.098128804937
 13
-35108.437749822093
 23
29433.487437254422
 33
-91558.373013390708
  0
3DFACE
  5
37
100
AcDbEntity
  8
0
 62
     7
100
AcDbFace
 10
-35108.437749822093
 20
15360.749713385845
 30
-69842.532460219052
 11
-35108.437749822093
 21
14973.665931107589
 31
-58752.884578157587
 12
-35108.437749822093
 22
8711.7895867446587
 32
-70074.909971724395
 13
-35108.437749822093
 23
15360.749713385845
 33
-69842.532460219052
  0
3DFACE
  5
3D
100
AcDbEntity
  8
0
 62
     7
100
AcDbFace
 10
-35108.437749822093
 20
41956.586484858468
 30
-68913.664850043162
 11
-35108.437749822093
 21
41569.503947610923
 31
-57824.011987858859
 12
-35108.437749822093
 22
35307.626980732639
 32
-69146.042361548505
 13
-35108.437749822093
 23
41956.586484858468
 33
-68913.664850043162
  0
3DFACE
  5
43
100
AcDbEntity
  8
0
 62
     7
100
AcDbFace
 10
-35108.437749822093
 20
48604.891102831774
 30
-68681.934754506103
 11
-35108.437749822093
 21
42343.671512167435
 31
-80003.965128195749
 12
-35108.437749822093
 22
55642.23793638737
 32
-79539.852541030516
 13
-35108.437749822093
 23
48604.891102831774
 33
-68681.934754506103
  0
3DFACE
  5
49
100
AcDbEntity
  8
0
 62
     7
100
AcDbFace
 10
-35108.437749822093
 20
56029.322963696337
 30
-90629.510383337649
 11
-35108.437749822093
 21
55642.23793638737
 31
-79539.852541030516
 12
-35108.437749822093
 22
49379.708573417978
 32
-90861.882914720161
 13
-35108.437749822093
 23
56029.322963696337
 33
-90629.510383337649
  0
3DFACE
  5
4F
100
AcDbEntity
  8
0
 62
     7
100
AcDbFace
 10
-35108.437749822093
 20
16910.389634681083
 30
-114203.08117673827
 11
-35108.437749822093
 21
16522.65345631172
 31
-103112.78587870851
 12
-35108.437749822093
 22
10261.429508039899
 32
-114435.47362861209
 13
-35108.437749822093
 23
16910.389634681083
 33
-114203.08117673827
  0
3DFACE
  5
55
100
AcDbEntity
  8
0
 62
     7
100
AcDbFace
 10
-35108.437749822093
 20
50154.531024127013
 30
-113041.83605505704
 11
-35108.437749822093
 21
43892.654057248728
 31
-124363.86642874667
 12
-35108.437749822093
 22
57189.920669409286
 32
-123899.75882170428
 13
-35108.437749822093
 23
50154.531024127013
 33
-113041.83605505704
  0
3DFACE
  5
5B
100
AcDbEntity
  8
0
 62
     7
100
AcDbFace
 10
-35108.437749822093
 20
2063.4834124829672
 30
-70307.292463352554
 11
-35108.437749822093
 21
2450.5668835035463
 31
-81397.597721627972
 12
-35108.437749822093
 22
8711.7895867446587
 32
-70074.909971724395
 13
-35108.437749822093
 23
2063.4834124829672
 33
-70307.292463352554
  0
3DFACE
  5
61
100
AcDbEntity
  8
0
 62
     7
100
AcDbFace
 10
-35108.437749822093
 20
43505.569029939768
 30
-113274.21854668521
 11
-35108.437749822093
 21
43118.488982753632
 31
-102183.91328840979
 12
-35108.437749822093
 22
36856.61450593677
 32
-113505.94366209942
 13
-35108.437749822093
 23
43505.569029939768
 33
-113274.21854668521
  0
3DFACE
  5
67
100
AcDbEntity
  8
0
 62
     7
100
AcDbFace
 10
-35108.437749822093
 20
22010.360368572077
 30
-69610.149968590893
 11
-35108.437749822093
 21
15748.485891755208
 31
-80932.185322403355
 12
-35108.437749822093
 22
29045.752503915766
 32
-80468.072735238136
 13
-35108.437749822093
 23
22010.360368572077
 33
-69610.149968590893
  0
3DFACE
  5
6D
100
AcDbEntity
  8
0
 62
     7
100
AcDbFace
 10
-35108.437749822093
 20
11035.596450081057
 30
-136615.42676894896
 11
-35108.437749822093
 21
17297.473416959339
 31
-125293.39639525933
 12
-35108.437749822093
 22
4000.206493541109
 32
-125757.50400230174
 13
-35108.437749822093
 23
11035.596450081057
 33
-136615.42676894896
  0
3DFACE
  5
73
100
AcDbEntity
  8
0
 62
     7
100
AcDbFace
 10
-35108.437749822093
 20
3612.4703151717449
 30
-114667.8461599946
 11
-35108.437749822093
 21
4000.206493541109
 31
-125757.50400230174
 12
-35108.437749822093
 22
10261.429508039899
 32
-114435.47362861209
 13
-35108.437749822093
 23
3612.4703151717449
 33
-114667.8461599946
  0
3DFACE
  5
79
100
AcDbEntity
  8
0
 62
     7
100
AcDbFace
 10
-35108.437749822093
 20
37630.782070493282
 30
-135686.55417865026
 11
-35108.437749822093
 21
43892.654057248728
 31
-124363.86642874667
 12
-35108.437749822093
 22
30594.737539058478
 32
-124827.97403578907
 13
-35108.437749822093
 23
37630.782070493282
 33
-135686.55417865026
  0
3DFACE
  5
7F
100
AcDbEntity
  8
0
 62
     7
100
AcDbFace
 10
-35108.437749822093
 20
30208.307397902041
 30
-113738.3261537276
 11
-35108.437749822093
 21
30594.737539058478
 31
-124827.97403578907
 12
-35108.437749822093
 22
36856.61450593677
 32
-113505.94366209942
 13
-35108.437749822093
 23
30208.307397902041
 33
-113738.3261537276
  0
3DFACE
  5
85
100
AcDbEntity
  8
0
 62
     7
100
AcDbFace
 10
-35108.437749822093
 20
23559.347893776208
 30
-113970.70864535576
 11
-35108.437749822093
 21
17297.473416959339
 31
-125293.39639525933
 12
-35108.437749822093
 22
30594.737539058478
 32
-124827.97403578907
 13
-35108.437749822093
 23
23559.347893776208
 33
-113970.70864535576
  0
3DFACE
  5
8B
100
AcDbEntity
  8
0
 62
     7
100
AcDbFace
 10
-35108.437749822093
 20
16135.569674033464
 30
-92022.480620433111
 11
-35108.437749822093
 21
16522.65345631172
 31
-103112.78587870851
 12
-35108.437749822093
 22
22784.527933128589
 32
-91790.098128804937
 13
-35108.437749822093
 23
16135.569674033464
 33
-92022.480620433111
  0
3DFACE
  5
91
100
AcDbEntity
  8
0
 62
     7
100
AcDbFace
 10
-35108.437749822093
 20
44279.739084557696
 30
-135454.17168702208
 11
-35108.437749822093
 21
44667.47650795777
 31
-146544.4769452975
 12
-35108.437749822093
 22
50928.696098622109
 32
-135221.78919539391
 13
-35108.437749822093
 23
44279.739084557696
 33
-135454.17168702208
  0
3DFACE
  5
97
100
AcDbEntity
  8
0
 62
     7
100
AcDbFace
 10
-35108.437749822093
 20
42730.751559353565
 30
-91093.617990380051
 11
-35108.437749822093
 21
43118.488982753632
 31
-102183.91328840979
 12
-35108.437749822093
 22
49379.708573417978
 32
-90861.882914720161
 13
-35108.437749822093
 23
42730.751559353565
 33
-91093.617990380051
  0
3DFACE
  5
9D
100
AcDbEntity
  8
0
 62
     7
100
AcDbFace
 10
-35108.437749822093
 20
17684.555954206888
 30
-136383.69169328909
 11
-35108.437749822093
 21
18071.639736485144
 31
-147473.34953559621
 12
-35108.437749822093
 22
24333.51545833272
 32
-136151.31916190658
 13
-35108.437749822093
 23
17684.555954206888
 33
-136383.69169328909
  0
3DFACE
  5
A3
100
AcDbEntity
  8
0
 62
     7
100
AcDbFace
 10
-35108.437749822093
 20
9486.6095473922796
 30
-92254.86311206127
 11
-35108.437749822093
 21
15748.485891755208
 31
-80932.185322403355
 12
-35108.437749822093
 22
2450.5668835035463
 32
-81397.597721627972
 13
-35108.437749822093
 23
9486.6095473922796
 33
-92254.86311206127
  0
3DFACE
  5
A9
100
AcDbEntity
  8
0
 62
     7
100
AcDbFace
 10
-24489.423925775511
 20
56029.322963696337
 30
-90629.510383337649
 11
-24489.423925775511
 21
55642.23793638737
 31
-79539.852541030516
 12
-25816.474766993459
 22
56029.322963696337
 32
-90629.510383337649
 13
-24489.423925775511
 23
56029.322963696337
 33
-90629.510383337649
  0
3DFACE
  5
AF
100
AcDbEntity
  8
0
 62
     7
100
AcDbFace
 10
-28471.881241611565
 20
56029.322963696337
 30
-90629.510383337649
 11
-27144.17800430251
 21
55642.23793638737
 31
-79539.852541030516
 12
-32454.33855744762
 22
55642.23793638737
 32
-79539.852541030516
 13
-28471.881241611565
 23
56029.322963696337
 33
-90629.510383337649
  0
3DFACE
  5
B5
100
AcDbEntity
  8
0
 62
     7
100
AcDbFace
 10
-35108.437749822093
 20
56802.835642100319
 30
-112809.46352367454
 11
-35108.437749822093
 21
57189.920669409286
 31
-123899.75882170428
 12
-33781.386908604145
 22
56802.835642100319
 32
-112809.46352367454
 13
-35108.437749822093
 23
56802.835642100319
 33
-112809.46352367454
  0
3DFACE
  5
BB
100
AcDbEntity
  8
0
 62
     7
100
AcDbFace
 10
-33781.386908604145
 20
56029.322963696337
 30
-90629.510383337649
 11
-35108.437749822093
 21
56415.75559491419
 31
-101719.8056813674
 12
-31126.632830077146
 22
56029.322963696337
 32
-90629.510383337649
 13
-33781.386908604145
 23
56029.322963696337
 33
-90629.510383337649
  0
3DFACE
  5
C1
100
AcDbEntity
  8
0
 62
     7
100
AcDbFace
 10
-31126.632830077146
 20
56802.835642100319
 30
-112809.46352367454
 11
-32454.33855744762
 21
57189.920669409286
 31
-123899.75882170428
 12
-28471.881241611565
 22
56802.835642100319
 32
-112809.46352367454
 13
-31126.632830077146
 23
56802.835642100319
 33
-112809.46352367454
  0
3DFACE
  5
C7
100
AcDbEntity
  8
0
 62
     7
100
AcDbFace
 10
-28471.881241611565
 20
56029.322963696337
 30
-90629.510383337649
 11
-29799.584478920617
 21
56415.75559491419
 31
-101719.8056813674
 12
-24489.423925775511
 22
56415.75559491419
 32
-101719.8056813674
 13
-28471.881241611565
 23
56029.322963696337
 33
-90629.510383337649
  0
3DFACE
  5
CD
100
AcDbEntity
  8
0
 62
     7
100
AcDbFace
 10
-33781.386908604145
 20
56029.322963696337
 30
-90629.510383337649
 11
-32454.33855744762
 21
55642.23793638737
 31
-79539.852541030516
 12
-35108.437749822093
 22
55642.23793638737
 32
-79539.852541030516
 13
-33781.386908604145
 23
56029.322963696337
 33
-90629.510383337649
  0
3DFACE
  5
D3
100
AcDbEntity
  8
0
 62
     7
100
AcDbFace
 10
-25816.474766993459
 20
56802.835642100319
 30
-112809.46352367454
 11
-24489.423925775511
 21
56415.75559491419
 31
-101719.8056813674
 12
-28471.881241611565
 22
56802.835642100319
 32
-112809.46352367454
 13
-25816.474766993459
 23
56802.835642100319
 33
-112809.46352367454
  0
3DFACE
  5
D9
100
AcDbEntity
  8
0
 62
     7
100
AcDbFace
 10
-31126.632830077146
 20
56802.835642100319
 30
-112809.46352367454
 11
-29799.584478920617
 21
56415.75559491419
 31
-101719.8056813674
 12
-33781.386908604145
 22
56802.835642100319
 32
-112809.46352367454
 13
-31126.632830077146
 23
56802.835642100319
 33
-112809.46352367454
  0
3DFACE
  5
DF
100
AcDbEntity
  8
0
 62
     7
100
AcDbFace
 10
-25816.474766993459
 20
56802.835642100319
 30
-112809.46352367454
 11
-27144.17800430251
 21
57189.920669409286
 31
-123899.75882170428
 12
-24489.423925775511
 22
57189.920669409286
 32
-123899.75882170428
 13
-25816.474766993459
 23
56802.835642100319
 33
-112809.46352367454
  0
3DFACE
  5
E5
100
AcDbEntity
  8
0
 62
     7
100
AcDbFace
 10
-24489.423925775511
 20
30208.307397902041
 30
-113738.3261537276
 11
-24489.423925775511
 21
30594.737539058478
 31
-124827.97403578907
 12
-24489.423925775511
 22
23559.347893776208
 32
-113970.70864535576
 13
-24489.423925775511
 23
30208.307397902041
 33
-113738.3261537276
  0
3DFACE
  5
EB
100
AcDbEntity
  8
0
 62
     7
100
AcDbFace
 10
-24489.423925775511
 20
55254.500512987295
 30
-68449.552262877944
 11
-24489.423925775511
 21
55642.23793638737
 31
-79539.852541030516
 12
-24489.423925775511
 22
48604.891102831774
 32
-68681.934754506103
 13
-24489.423925775511
 23
55254.500512987295
 33
-68449.552262877944
  0
3DFACE
  5
F1
100
AcDbEntity
  8
0
 62
     7
100
AcDbFace
 10
-24489.423925775511
 20
17684.555954206888
 30
-136383.69169328909
 11
-24489.423925775511
 21
18071.639736485144
 31
-147473.34953559621
 12
-24489.423925775511
 22
11035.596450081057
 32
-136615.42676894896
 13
-24489.423925775511
 23
17684.555954206888
 33
-136383.69169328909
  0
3DFACE
  5
F7
100
AcDbEntity
  8
0
 62
     7
100
AcDbFace
 10
-24489.423925775511
 20
30981.822566367446
 30
-135918.92671003274
 11
-24489.423925775511
 21
30594.737539058478
 31
-124827.97403578907
 12
-24489.423925775511
 22
37630.782070493282
 32
-135686.55417865026
 13
-24489.423925775511
 23
30981.822566367446
 33
-135918.92671003274
  0
3DFACE
  5
FD
100
AcDbEntity
  8
0
 62
     7
100
AcDbFace
 10
-24489.423925775511
 20
28658.667476606799
 30
-69377.77245708555
 11
-24489.423925775511
 21
29045.752503915766
 31
-80468.072735238136
 12
-24489.423925775511
 22
22010.360368572077
 32
-69610.149968590893
 13
-24489.423925775511
 23
28658.667476606799
 33
-69377.77245708555
  0
3DFACE
  5
103
100
AcDbEntity
  8
0
 62
     7
100
AcDbFace
 10
-24489.423925775511
 20
16910.389634681083
 30
-114203.08117673827
 11
-24489.423925775511
 21
16522.65345631172
 31
-103112.78587870851
 12
-24489.423925775511
 22
23559.347893776208
 32
-113970.70864535576
 13
-24489.423925775511
 23
16910.389634681083
 33
-114203.08117673827
  0
3DFACE
  5
109
100
AcDbEntity
  8
0
 62
     7
100
AcDbFace
 10
-24489.423925775511
 20
42730.751559353565
 30
-91093.617990380051
 11
-24489.423925775511
 21
43118.488982753632
 31
-102183.91328840979
 12
-24489.423925775511
 22
36082.446941380258
 32
-91325.990521762549
 13
-24489.423925775511
 23
42730.751559353565
 33
-91093.617990380051
  0
3DFACE
  5
10F
100
AcDbEntity
  8
0
 62
     7
100
AcDbFace
 10
-24489.423925775511
 20
56802.835642100319
 30
-112809.46352367454
 11
-24489.423925775511
 21
57189.920669409286
 31
-123899.75882170428
 12
-24489.423925775511
 22
50154.531024127013
 32
-113041.83605505704
 13
-24489.423925775511
 23
56802.835642100319
 33
-112809.46352367454
  0
3DFACE
  5
115
100
AcDbEntity
  8
0
 62
     7
100
AcDbFace
 10
-24489.423925775511
 20
22784.527933128589
 30
-91790.098128804937
 11
-24489.423925775511
 21
15748.485891755208
 31
-80932.185322403355
 12
-24489.423925775511
 22
29045.752503915766
 32
-80468.072735238136
 13
-24489.423925775511
 23
22784.527933128589
 33
-91790.098128804937
  0
3DFACE
  5
11B
100
AcDbEntity
  8
0
 62
     7
100
AcDbFace
 10
-24489.423925775511
 20
15360.749713385845
 30
-69842.532460219052
 11
-24489.423925775511
 21
14973.665931107589
 31
-58752.884578157587
 12
-24489.423925775511
 22
22010.360368572077
 32
-69610.149968590893
 13
-24489.423925775511
 23
15360.749713385845
 33
-69842.532460219052
  0
3DFACE
  5
121
100
AcDbEntity
  8
0
 62
     7
100
AcDbFace
 10
-24489.423925775511
 20
43505.569029939768
 30
-113274.21854668521
 11
-24489.423925775511
 21
43118.488982753632
 31
-102183.91328840979
 12
-24489.423925775511
 22
50154.531024127013
 32
-113041.83605505704
 13
-24489.423925775511
 23
43505.569029939768
 33
-113274.21854668521
  0
3DFACE
  5
127
100
AcDbEntity
  8
0
 62
     7
100
AcDbFace
 10
-24489.423925775511
 20
8711.7895867446587
 30
-70074.909971724395
 11
-24489.423925775511
 21
15748.485891755208
 31
-80932.185322403355
 12
-24489.423925775511
 22
2450.5668835035463
 32
-81397.597721627972
 13
-24489.423925775511
 23
8711.7895867446587
 33
-70074.909971724395
  0
3DFACE
  5
12D
100
AcDbEntity
  8
0
 62
     7
100
AcDbFace
 10
-24489.423925775511
 20
35307.626980732639
 30
-69146.042361548505
 11
-24489.423925775511
 21
42343.671512167435
 31
-80003.965128195749
 12
-24489.423925775511
 22
29045.752503915766
 32
-80468.072735238136
 13
-24489.423925775511
 23
35307.626980732639
 33
-69146.042361548505
  0
3DFACE
  5
133
100
AcDbEntity
  8
0
 62
     7
100
AcDbFace
 10
-24489.423925775511
 20
2837.6503545241249
 30
-92487.893019657713
 11
-24489.423925775511
 21
2450.5668835035463
 31
-81397.597721627972
 12
-24489.423925775511
 22
9486.6095473922796
 32
-92254.86311206127
 13
-24489.423925775511
 23
2837.6503545241249
 33
-92487.893019657713
  0
3DFACE
  5
139
100
AcDbEntity
  8
0
 62
     7
100
AcDbFace
 10
-24489.423925775511
 20
24333.51545833272
 30
-136151.31916190658
 11
-24489.423925775511
 21
17297.473416959339
 31
-125293.39639525933
 12
-24489.423925775511
 22
30594.737539058478
 32
-124827.97403578907
 13
-24489.423925775511
 23
24333.51545833272
 33
-136151.31916190658
  0
3DFACE
  5
13F
100
AcDbEntity
  8
0
 62
     7
100
AcDbFace
 10
-24489.423925775511
 20
41956.586484858468
 30
-68913.664850043162
 11
-24489.423925775511
 21
41569.503947610923
 31
-57824.011987858859
 12
-24489.423925775511
 22
48604.891102831774
 32
-68681.934754506103
 13
-24489.423925775511
 23
41956.586484858468
 33
-68913.664850043162
  0
3DFACE
  5
145
100
AcDbEntity
  8
0
 62
     7
100
AcDbFace
 10
-24489.423925775511
 20
29433.487437254422
 30
-91558.373013390708
 11
-24489.423925775511
 21
29045.752503915766
 31
-80468.072735238136
 12
-24489.423925775511
 22
36082.446941380258
 32
-91325.990521762549
 13
-24489.423925775511
 23
29433.487437254422
 33
-91558.373013390708
  0
3DFACE
  5
14B
100
AcDbEntity
  8
0
 62
     7
100
AcDbFace
 10
-24489.423925775511
 20
16135.569674033464
 30
-92022.480620433111
 11
-24489.423925775511
 21
16522.65345631172
 31
-103112.78587870851
 12
-24489.423925775511
 22
9486.6095473922796
 32
-92254.86311206127
 13
-24489.423925775511
 23
16135.569674033464
 33
-92022.480620433111
  0
3DFACE
  5
151
100
AcDbEntity
  8
0
 62
     7
100
AcDbFace
 10
-24489.423925775511
 20
36856.61450593677
 30
-113505.94366209942
 11
-24489.423925775511
 21
43892.654057248728
 31
-124363.86642874667
 12
-24489.423925775511
 22
30594.737539058478
 32
-124827.97403578907
 13
-24489.423925775511
 23
36856.61450593677
 33
-113505.94366209942
  0
3DFACE
  5
157
100
AcDbEntity
  8
0
 62
     7
100
AcDbFace
 10
-24489.423925775511
 20
4387.2899645616881
 30
-136847.79930033148
 11
-24489.423925775511
 21
4000.206493541109
 31
-125757.50400230174
 12
-24489.423925775511
 22
11035.596450081057
 32
-136615.42676894896
 13
-24489.423925775511
 23
4387.2899645616881
 33
-136847.79930033148
  0
3DFACE
  5
15D
100
AcDbEntity
  8
0
 62
     7
100
AcDbFace
 10
-24489.423925775511
 20
50928.696098622109
 30
-135221.78919539391
 11
-24489.423925775511
 21
43892.654057248728
 31
-124363.86642874667
 12
-24489.423925775511
 22
57189.920669409286
 32
-123899.75882170428
 13
-24489.423925775511
 23
50928.696098622109
 33
-135221.78919539391
  0
3DFACE
  5
163
100
AcDbEntity
  8
0
 62
     7
100
AcDbFace
 10
-24489.423925775511
 20
44279.739084557696
 30
-135454.17168702208
 11
-24489.423925775511
 21
44667.47650795777
 31
-146544.4769452975
 12
-24489.423925775511
 22
37630.782070493282
 32
-135686.55417865026
 13
-24489.423925775511
 23
44279.739084557696
 33
-135454.17168702208
  0
3DFACE
  5
169
100
AcDbEntity
  8
0
 62
     7
100
AcDbFace
 10
-24489.423925775511
 20
49379.708573417978
 30
-90861.882914720161
 11
-24489.423925775511
 21
42343.671512167435
 31
-80003.965128195749
 12
-24489.423925775511
 22
55642.23793638737
 32
-79539.852541030516
 13
-24489.423925775511
 23
49379.708573417978
 33
-90861.882914720161
  0
3DFACE
  5
16F
100
AcDbEntity
  8
0
 62
     7
100
AcDbFace
 10
-24489.423925775511
 20
10261.429508039899
 30
-114435.47362861209
 11
-24489.423925775511
 21
17297.473416959339
 31
-125293.39639525933
 12
-24489.423925775511
 22
4000.206493541109
 32
-125757.50400230174
 13
-24489.423925775511
 23
10261.429508039899
 33
-114435.47362861209
  0
3DFACE
  5
175
100
AcDbEntity
  8
0
 62
     7
100
AcDbFace
 10
-24489.423925775511
 20
18071.639736485144
 30
-147473.34953559621
 11
-24489.423925775511
 21
31368.90510361499
 31
-147009.24192855382
 12
-27144.17800430251
 22
18071.639736485144
 32
-147473.34953559621
 13
-24489.423925775511
 23
18071.639736485144
 33
-147473.34953559621
  0
3DFACE
  5
17B
100
AcDbEntity
  8
0
 62
     7
100
AcDbFace
 10
-32454.33855744762
 20
18071.639736485144
 30
-147473.34953559621
 11
-29799.584478920617
 21
31368.90510361499
 31
-147009.24192855382
 12
-35108.437749822093
 22
31368.90510361499
 32
-147009.24192855382
 13
-32454.33855744762
 23
18071.639736485144
 33
-147473.34953559621
  0
3DFACE
  5
181
100
AcDbEntity
  8
0
 62
     7
100
AcDbFace
 10
-32454.33855744762
 20
18071.639736485144
 30
-147473.34953559621
 11
-35108.437749822093
 21
4774.3734355822662
 31
-147938.09459836123
 12
-27144.17800430251
 22
18071.639736485144
 32
-147473.34953559621
 13
-32454.33855744762
 23
18071.639736485144
 33
-147473.34953559621
  0
3DFACE
  5
187
100
AcDbEntity
  8
0
 62
     7
100
AcDbFace
 10
-27144.17800430251
 20
44667.47650795777
 30
-146544.4769452975
 11
-29799.584478920617
 21
31368.90510361499
 31
-147009.24192855382
 12
-24489.423925775511
 22
31368.90510361499
 32
-147009.24192855382
 13
-27144.17800430251
 23
44667.47650795777
 33
-146544.4769452975
  0
3DFACE
  5
18D
100
AcDbEntity
  8
0
 62
     7
100
AcDbFace
 10
-35108.437749822093
 20
44667.47650795777
 30
-146544.4769452975
 11
-35108.437749822093
 21
31368.90510361499
 31
-147009.24192855382
 12
-32454.33855744762
 22
44667.47650795777
 32
-146544.4769452975
 13
-35108.437749822093
 23
44667.47650795777
 33
-146544.4769452975
  0
3DFACE
  5
193
100
AcDbEntity
  8
0
 62
     7
100
AcDbFace
 10
-27144.17800430251
 20
44667.47650795777
 30
-146544.4769452975
 11
-24489.423925775511
 21
57965.395516209428
 31
-146079.71196204115
 12
-35108.437749822093
 22
57965.395516209428
 32
-146079.71196204115
 13
-27144.17800430251
 23
44667.47650795777
 33
-146544.4769452975
  0
3DFACE
  5
199
100
AcDbEntity
  8
0
 62
     7
100
AcDbFace
 10
-24489.423925775511
 20
4774.3734355822662
 30
-147938.09459836123
 11
-35108.437749822093
 21
4774.3734355822662
 31
-147938.09459836123
 12
-29799.584478920617
 22
4699.9595064402401
 32
-147940.06672700305
 13
-24489.423925775511
 23
4774.3734355822662
 33
-147938.09459836123
  0
3DFACE
  5
19F
100
AcDbEntity
  8
0
 62
     7
100
AcDbFace
 10
-29799.584478920617
 20
1601.9857788771037
 30
-59219.601769564411
 11
-35108.437749822093
 21
1675.7470784847646
 31
-59217.64458129109
 12
-24489.423925775511
 22
1675.7470784847646
 32
-59217.64458129109
 13
-29799.584478920617
 23
1601.9857788771037
 33
-59219.601769564411
  0
3DFACE
  5
1A5
100
AcDbEntity
  8
0
 62
     7
100
AcDbFace
 10
-27144.17800430251
 20
14973.665931107589
 30
-58752.884578157587
 11
-24489.423925775511
 21
1675.7470784847646
 31
-59217.64458129109
 12
-35108.437749822093
 22
1675.7470784847646
 32
-59217.64458129109
 13
-27144.17800430251
 23
14973.665931107589
 33
-58752.884578157587
  0
3DFACE
  5
1AB
100
AcDbEntity
  8
0
 62
     7
100
AcDbFace
 10
-35108.437749822093
 20
14973.665931107589
 30
-58752.884578157587
 11
-35108.437749822093
 21
28271.584939359254
 31
-58288.119594901254
 12
-32454.33855744762
 22
14973.665931107589
 32
-58752.884578157587
 13
-35108.437749822093
 23
14973.665931107589
 33
-58752.884578157587
  0
3DFACE
  5
1B1
100
AcDbEntity
  8
0
 62
     7
100
AcDbFace
 10
-27144.17800430251
 20
14973.665931107589
 30
-58752.884578157587
 11
-29799.584478920617
 21
28271.584939359254
 31
-58288.119594901254
 12
-24489.423925775511
 22
28271.584939359254
 32
-58288.119594901254
 13
-27144.17800430251
 23
14973.665931107589
 33
-58752.884578157587
  0
3DFACE
  5
1B7
100
AcDbEntity
  8
0
 62
     7
100
AcDbFace
 10
-24489.423925775511
 20
41569.503947610923
 30
-57824.011987858859
 11
-24489.423925775511
 21
28271.584939359254
 31
-58288.119594901254
 12
-27144.17800430251
 22
41569.503947610923
 32
-57824.011987858859
 13
-24489.423925775511
 23
41569.503947610923
 33
-57824.011987858859
  0
3DFACE
  5
1BD
100
AcDbEntity
  8
0
 62
     7
100
AcDbFace
 10
-32454.33855744762
 20
41569.503947610923
 30
-57824.011987858859
 11
-35108.437749822093
 21
54866.768069710059
 31
-57359.904380816472
 12
-27144.17800430251
 22
41569.503947610923
 32
-57824.011987858859
 13
-32454.33855744762
 23
41569.503947610923
 33
-57824.011987858859
  0
3DFACE
  5
1C3
100
AcDbEntity
  8
0
 62
     7
100
AcDbFace
 10
-32454.33855744762
 20
41569.503947610923
 30
-57824.011987858859
 11
-29799.584478920617
 21
28271.584939359254
 31
-58288.119594901254
 12
-35108.437749822093
 22
28271.584939359254
 32
-58288.119594901254
 13
-32454.33855744762
 23
41569.503947610923
 33
-57824.011987858859
  0
3DFACE
  5
1C9
100
AcDbEntity
  8
0
 62
     7
100
AcDbFace
 10
-35108.437749822093
 20
55254.500512987295
 30
-68449.552262877944
 11
-35108.437749822093
 21
55642.23793638737
 31
-79539.852541030516
 12
-33781.386908604145
 22
55254.500512987295
 32
-68449.552262877944
 13
-35108.437749822093
 23
55254.500512987295
 33
-68449.552262877944
  0
3DFACE
  5
1CF
100
AcDbEntity
  8
0
 62
     7
100
AcDbFace
 10
-25816.474766993459
 20
55254.500512987295
 30
-68449.552262877944
 11
-27144.17800430251
 21
55642.23793638737
 31
-79539.852541030516
 12
-24489.423925775511
 22
55642.23793638737
 32
-79539.852541030516
 13
-25816.474766993459
 23
55254.500512987295
 33
-68449.552262877944
  0
3DFACE
  5
1D5
100
AcDbEntity
  8
0
 62
     7
100
AcDbFace
 10
-28471.881241611565
 20
55254.500512987295
 30
-68449.552262877944
 11
-32454.33855744762
 21
55642.23793638737
 31
-79539.852541030516
 12
-27144.17800430251
 22
55642.23793638737
 32
-79539.852541030516
 13
-28471.881241611565
 23
55254.500512987295
 33
-68449.552262877944
  0
3DFACE
  5
1DB
100
AcDbEntity
  8
0
 62
     7
100
AcDbFace
 10
-28471.881241611565
 20
55254.500512987295
 30
-68449.552262877944
 11
-24489.423925775511
 21
54866.768069710059
 31
-57359.904380816472
 12
-35108.437749822093
 22
54866.768069710059
 32
-57359.904380816472
 13
-28471.881241611565
 23
55254.500512987295
 33
-68449.552262877944
  0
3DFACE
  5
1E1
100
AcDbEntity
  8
0
 62
     7
100
AcDbFace
 10
-24489.423925775511
 20
57577.658092809361
 30
-134990.05411973404
 11
-24489.423925775511
 21
57189.920669409286
 31
-123899.75882170428
 12
-25816.474766993459
 22
57577.658092809361
 32
-134990.05411973404
 13
-24489.423925775511
 23
57577.658092809361
 33
-134990.05411973404
  0
3DFACE
  5
1E7
100
AcDbEntity
  8
0
 62
     7
100
AcDbFace
 10
-33781.386908604145
 20
57577.658092809361
 30
-134990.05411973404
 11
-32454.33855744762
 21
57189.920669409286
 31
-123899.75882170428
 12
-35108.437749822093
 22
57189.920669409286
 32
-123899.75882170428
 13
-33781.386908604145
 23
57577.658092809361
 33
-134990.05411973404
  0
3DFACE
  5
1ED
100
AcDbEntity
  8
0
 62
     7
100
AcDbFace
 10
-31126.632830077146
 20
57577.658092809361
 30
-134990.05411973404
 11
-35108.437749822093
 21
57965.395516209428
 31
-146079.71196204115
 12
-24489.423925775511
 22
57965.395516209428
 32
-146079.71196204115
 13
-31126.632830077146
 23
57577.658092809361
 33
-134990.05411973404
  0
3DFACE
  5
1F3
100
AcDbEntity
  8
0
 62
     7
100
AcDbFace
 10
-31126.632830077146
 20
57577.658092809361
 30
-134990.05411973404
 11
-27144.17800430251
 21
57189.920669409286
 31
-123899.75882170428
 12
-32454.33855744762
 22
57189.920669409286
 32
-123899.75882170428
 13
-31126.632830077146
 23
57577.658092809361
 33
-134990.05411973404
  0
3DFACE
  5
1F9
100
AcDbEntity
  8
0
 62
     7
100
AcDbFace
 10
-33117.536534980325
 20
2035.4148176814629
 30
-70307.944859443669
 11
-31126.632830077146
 21
2395.0827125069995
 31
-81398.902513810186
 12
-33781.386908604145
 22
2431.6369697292275
 32
-81397.597721627972
 13
-33117.536534980325
 23
2035.4148176814629
 33
-70307.944859443669
  0
3DFACE
  5
1FF
100
AcDbEntity
  8
0
 62
     7
100
AcDbFace
 10
-31790.485693762381
 20
4340.2916116147035
 30
-136849.11405275937
 11
-33781.386908604145
 21
3980.6240280468442
 31
-125757.50400230174
 12
-31126.632830077146
 22
3944.0696151957773
 32
-125760.11358666616
 13
-31790.485693762381
 23
4340.2916116147035
 33
-136849.11405275937
  0
3DFACE
  5
205
100
AcDbEntity
  8
0
 62
     7
100
AcDbFace
 10
-29135.731615235381
 20
1998.2078531104494
 30
-70309.254631748714
 11
-29799.584478920617
 21
1601.9857788771037
 31
-59219.601769564411
 12
-26480.327630678694
 22
2035.4148176814629
 32
-70307.944859443669
 13
-29135.731615235381
 23
1998.2078531104494
 33
-70309.254631748714
  0
3DFACE
  5
20B
100
AcDbEntity
  8
0
 62
     7
100
AcDbFace
 10
-25153.276789460746
 20
4377.498731814555
 30
-136847.79930033148
 11
-24489.423925775511
 21
4774.3734355822662
 31
-147938.09459836123
 12
-27808.02837792633
 22
4340.2916116147035
 32
-136849.11405275937
 13
-25153.276789460746
 23
4377.498731814555
 33
-136847.79930033148
  0
3DFACE
  5
211
100
AcDbEntity
  8
0
 62
     7
100
AcDbFace
 10
-29135.731615235381
 20
3547.847618776851
 30
-114669.80832839075
 11
-28471.228845520458
 21
3944.0696151957773
 31
-125760.11358666616
 12
-29799.584478920617
 22
3925.1398570502975
 32
-125760.11358666616
 13
-29135.731615235381
 23
3547.847618776851
 33
-114669.80832839075
  0
3DFACE
  5
217
100
AcDbEntity
  8
0
 62
     7
100
AcDbFace
 10
-30463.434852544437
 20
2773.027658129231
 30
-92489.207772085603
 11
-31126.632830077146
 21
2395.0827125069995
 31
-81398.902513810186
 12
-29799.584478920617
 22
2375.5000913838958
 32
-81399.554909901301
 13
-30463.434852544437
 23
2773.027658129231
 33
-92489.207772085603
  0
3DFACE
  5
21D
100
AcDbEntity
  8
0
 62
     7
100
AcDbFace
 10
-25153.276789460746
 20
2827.8591217769922
 30
-92487.893019657713
 11
-25816.474766993459
 21
2431.6369697292275
 31
-81397.597721627972
 12
-24489.423925775511
 22
2450.5668835035463
 32
-81397.597721627972
 13
-25153.276789460746
 23
2827.8591217769922
 33
-92487.893019657713
  0
3DFACE
  5
223
100
AcDbEntity
  8
0
 62
     7
100
AcDbFace
 10
-34445.23977228938
 20
3602.6787711669353
 30
-114667.8461599946
 11
-33781.386908604145
 21
3980.6240280468442
 31
-125757.50400230174
 12
-35108.437749822093
 22
4000.206493541109
 32
-125757.50400230174
 13
-34445.23977228938
 23
3602.6787711669353
 33
-114667.8461599946
  0
3DFACE
  5
229
100
AcDbEntity
  8
0
 62
     7
100
AcDbFace
 10
-34445.23977228938
 20
3602.6787711669353
 30
-114667.8461599946
 11
-35108.437749822093
 21
3224.7338255447039
 31
-103577.55086196485
 12
-33117.536534980325
 22
3583.7490130214555
 32
-114668.50353620853
 13
-34445.23977228938
 23
3602.6787711669353
 33
-114667.8461599946
  0
3DFACE
  5
22F
100
AcDbEntity
  8
0
 62
     7
100
AcDbFace
 10
-31790.485693762381
 20
4340.2916116147035
 30
-136849.11405275937
 11
-29799.584478920617
 21
4699.9595064402401
 31
-147940.06672700305
 12
-35108.437749822093
 22
4774.3734355822662
 32
-147938.09459836123
 13
-31790.485693762381
 23
4340.2916116147035
 33
-136849.11405275937
  0
3DFACE
  5
235
100
AcDbEntity
  8
0
 62
     7
100
AcDbFace
 10
-25153.276789460746
 20
4377.498731814555
 30
-136847.79930033148
 11
-25816.474766993459
 21
3980.6240280468442
 31
-125757.50400230174
 12
-24489.423925775511
 22
4000.206493541109
 32
-125757.50400230174
 13
-25153.276789460746
 23
4377.498731814555
 33
-136847.79930033148
  0
3DFACE
  5
23B
100
AcDbEntity
  8
0
 62
     7
100
AcDbFace
 10
-26480.327630678694
 20
3583.7490130214555
 30
-114668.50353620853
 11
-25816.474766993459
 21
3980.6240280468442
 31
-125757.50400230174
 12
-27807.375981835223
 22
3565.4719622247608
 32
-114669.16091242248
 13
-26480.327630678694
 23
3583.7490130214555
 33
-114668.50353620853
  0
3DFACE
  5
241
100
AcDbEntity
  8
0
 62
     7
100
AcDbFace
 10
-33117.536534980325
 20
2035.4148176814629
 30
-70307.944859443669
 11
-35108.437749822093
 21
1675.7470784847646
 31
-59217.64458129109
 12
-29799.584478920617
 22
1601.9857788771037
 32
-59219.601769564411
 13
-33117.536534980325
 23
2035.4148176814629
 33
-70307.944859443669
  0
3DFACE
  5
247
100
AcDbEntity
  8
0
 62
     7
100
AcDbFace
 10
-30463.434852544437
 20
2773.027658129231
 30
-92489.207772085603
 11
-29799.584478920617
 21
3150.9726037514624
 31
-103580.16044632929
 12
-31790.485693762381
 22
2791.3048645547642
 32
-92488.550395871658
 13
-30463.434852544437
 23
2773.027658129231
 33
-92489.207772085603
  0
3DFACE
  5
24D
100
AcDbEntity
  8
0
 62
     7
100
AcDbFace
 10
-33117.536534980325
 20
2809.5820709802974
 30
-92487.893019657713
 11
-33781.386908604145
 21
2431.6369697292275
 31
-81397.597721627972
 12
-31790.485693762381
 22
2791.3048645547642
 32
-92488.550395871658
 13
-33117.536534980325
 23
2809.5820709802974
 33
-92487.893019657713
  0
3DFACE
  5
253
100
AcDbEntity
  8
0
 62
     7
100
AcDbFace
 10
-30463.434852544437
 20
4322.0145608180082
 30
-136849.76146872764
 11
-31126.632830077146
 21
3944.0696151957773
 31
-125760.11358666616
 12
-29799.584478920617
 22
3925.1398570502975
 32
-125760.11358666616
 13
-30463.434852544437
 23
4322.0145608180082
 33
-136849.76146872764
  0
3DFACE
  5
259
100
AcDbEntity
  8
0
 62
     7
100
AcDbFace
 10
-31790.485693762381
 20
3565.4719622247608
 30
-114669.16091242248
 11
-31126.632830077146
 21
3944.0696151957773
 31
-125760.11358666616
 12
-33781.386908604145
 22
3980.6240280468442
 32
-125757.50400230174
 13
-31790.485693762381
 23
3565.4719622247608
 33
-114669.16091242248
  0
3DFACE
  5
25F
100
AcDbEntity
  8
0
 62
     7
100
AcDbFace
 10
-29135.731615235381
 20
3547.847618776851
 30
-114669.80832839075
 11
-29799.584478920617
 21
3150.9726037514624
 31
-103580.16044632929
 12
-27144.17800430251
 22
3187.5270166025289
 32
-103578.8456939014
 13
-29135.731615235381
 23
3547.847618776851
 33
-114669.80832839075
  0
3DFACE
  5
265
100
AcDbEntity
  8
0
 62
     7
100
AcDbFace
 10
-29135.731615235381
 20
4322.0145608180082
 30
-136849.76146872764
 11
-28471.228845520458
 21
3944.0696151957773
 31
-125760.11358666616
 12
-27808.02837792633
 22
4340.2916116147035
 32
-136849.11405275937
 13
-29135.731615235381
 23
4322.0145608180082
 33
-136849.76146872764
  0
3DFACE
  5
26B
100
AcDbEntity
  8
0
 62
     7
100
AcDbFace
 10
-29135.731615235381
 20
1998.2078531104494
 30
-70309.254631748714
 11
-28471.228845520458
 21
2395.0827125069995
 31
-81398.902513810186
 12
-29799.584478920617
 22
2375.5000913838958
 32
-81399.554909901301
 13
-29135.731615235381
 23
1998.2078531104494
 33
-70309.254631748714
  0
3DFACE
  5
271
100
AcDbEntity
  8
0
 62
     7
100
AcDbFace
 10
-27807.375981835223
 20
2791.3048645547642
 30
-92488.550395871658
 11
-28471.228845520458
 21
2395.0827125069995
 31
-81398.902513810186
 12
-25816.474766993459
 22
2431.6369697292275
 32
-81397.597721627972
 13
-27807.375981835223
 23
2791.3048645547642
 33
-92488.550395871658
  0
3DFACE
  5
277
100
AcDbEntity
  8
0
 62
     7
100
AcDbFace
 10
-25153.276789460746
 20
2053.6920241069961
 30
-70307.292463352554
 11
-25816.474766993459
 21
2431.6369697292275
 31
-81397.597721627972
 12
-26480.327630678694
 22
2035.4148176814629
 32
-70307.944859443669
 13
-25153.276789460746
 23
2053.6920241069961
 33
-70307.292463352554
  0
3DFACE
  5
27D
100
AcDbEntity
  8
0
 62
     7
100
AcDbFace
 10
-25153.276789460746
 20
2827.8591217769922
 30
-92487.893019657713
 11
-24489.423925775511
 21
3224.7338255447039
 31
-103577.55086196485
 12
-27144.17800430251
 22
3187.5270166025289
 32
-103578.8456939014
 13
-25153.276789460746
 23
2827.8591217769922
 33
-92487.893019657713
  0
3DFACE
  5
283
100
AcDbEntity
  8
0
 62
     7
100
AcDbFace
 10
-34445.23977228938
 20
2053.6920241069961
 30
-70307.292463352554
 11
-33781.386908604145
 21
2431.6369697292275
 31
-81397.597721627972
 12
-35108.437749822093
 22
2450.5668835035463
 32
-81397.597721627972
 13
-34445.23977228938
 23
2053.6920241069961
 33
-70307.292463352554
  0
3DFACE
  5
289
100
AcDbEntity
  8
0
 62
     7
100
AcDbFace
 10
-29799.584478920617
 20
4312.2233280708761
 30
-136849.76146872764
 11
-29799.584478920617
 21
3925.1398570502975
 31
-125760.11358666616
 12
-29135.731615235381
 22
4322.0145608180082
 32
-136849.76146872764
 13
-29799.584478920617
 23
4312.2233280708761
 33
-136849.76146872764
  0
3DFACE
  5
28F
100
AcDbEntity
  8
0
 62
     7
100
AcDbFace
 10
-29799.584478920617
 20
3538.0560747720415
 30
-114669.80832839075
 11
-29799.584478920617
 21
3925.1398570502975
 31
-125760.11358666616
 12
-30463.434852544437
 22
3547.847618776851
 32
-114669.80832839075
 13
-29799.584478920617
 23
3538.0560747720415
 33
-114669.80832839075
  0
3DFACE
  5
295
100
AcDbEntity
  8
0
 62
     7
100
AcDbFace
 10
-35108.437749822093
 20
4387.2899645616881
 30
-136847.79930033148
 11
-35108.437749822093
 21
4000.206493541109
 31
-125757.50400230174
 12
-34445.23977228938
 22
4377.498731814555
 32
-136847.79930033148
 13
-35108.437749822093
 23
4387.2899645616881
 33
-136847.79930033148
  0
3DFACE
  5
29B
100
AcDbEntity
  8
0
 62
     7
100
AcDbFace
 10
-24489.423925775511
 20
3612.4703151717449
 30
-114667.8461599946
 11
-24489.423925775511
 21
4000.206493541109
 31
-125757.50400230174
 12
-25153.276789460746
 22
3602.6787711669353
 32
-114667.8461599946
 13
-24489.423925775511
 23
3612.4703151717449
 33
-114667.8461599946
  0
3DFACE
  5
2A1
100
AcDbEntity
  8
0
 62
     7
100
AcDbFace
 10
-24489.423925775511
 20
2063.4834124829672
 30
-70307.292463352554
 11
-24489.423925775511
 21
2450.5668835035463
 31
-81397.597721627972
 12
-25153.276789460746
 22
2053.6920241069961
 32
-70307.292463352554
 13
-24489.423925775511
 23
2063.4834124829672
 33
-70307.292463352554
  0
3DFACE
  5
2A7
100
AcDbEntity
  8
0
 62
     7
100
AcDbFace
 10
-29799.584478920617
 20
2763.2364253820983
 30
-92489.855188053873
 11
-29799.584478920617
 21
2375.5000913838958
 31
-81399.554909901301
 12
-29135.731615235381
 22
2773.027658129231
 32
-92489.207772085603
 13
-29799.584478920617
 23
2763.2364253820983
 33
-92489.855188053873
  0
3DFACE
  5
2AD
100
AcDbEntity
  8
0
 62
     7
100
AcDbFace
 10
-29799.584478920617
 20
1988.4164647344783
 30
-70309.902047716983
 11
-29799.584478920617
 21
2375.5000913838958
 31
-81399.554909901301
 12
-30463.434852544437
 22
1998.2078531104494
 32
-70309.254631748714
 13
-29799.584478920617
 23
1988.4164647344783
 33
-70309.902047716983
  0
3DFACE
  5
2B3
100
AcDbEntity
  8
0
 62
     7
100
AcDbFace
 10
-35108.437749822093
 20
2837.6503545241249
 30
-92487.893019657713
 11
-35108.437749822093
 21
2450.5668835035463
 31
-81397.597721627972
 12
-34445.23977228938
 22
2827.8591217769922
 32
-92487.893019657713
 13
-35108.437749822093
 23
2837.6503545241249
 33
-92487.893019657713
  0
3DFACE
  5
2B9
100
AcDbEntity
  8
0
 62
     7
100
AcDbFace
 10
-24489.423925775511
 20
44667.47650795777
 30
-146544.4769452975
 11
-24489.423925775511
 21
57965.395516209428
 31
-146079.71196204115
 12
-27144.17800430251
 22
44667.47650795777
 32
-146544.4769452975
 13
-24489.423925775511
 23
44667.47650795777
 33
-146544.4769452975
  0
3DFACE
  5
2BF
100
AcDbEntity
  8
0
 62
     7
100
AcDbFace
 10
-32454.33855744762
 20
44667.47650795777
 30
-146544.4769452975
 11
-29799.584478920617
 21
31368.90510361499
 31
-147009.24192855382
 12
-27144.17800430251
 22
44667.47650795777
 32
-146544.4769452975
 13
-32454.33855744762
 23
44667.47650795777
 33
-146544.4769452975
  0
3DFACE
  5
2C5
100
AcDbEntity
  8
0
 62
     7
100
AcDbFace
 10
-32454.33855744762
 20
14973.665931107589
 30
-58752.884578157587
 11
-29799.584478920617
 21
28271.584939359254
 31
-58288.119594901254
 12
-27144.17800430251
 22
14973.665931107589
 32
-58752.884578157587
 13
-32454.33855744762
 23
14973.665931107589
 33
-58752.884578157587
  0
3DFACE
  5
2CB
100
AcDbEntity
  8
0
 62
     7
100
AcDbFace
 10
-24489.423925775511
 20
14973.665931107589
 30
-58752.884578157587
 11
-24489.423925775511
 21
1675.7470784847646
 31
-59217.64458129109
 12
-27144.17800430251
 22
14973.665931107589
 32
-58752.884578157587
 13
-24489.423925775511
 23
14973.665931107589
 33
-58752.884578157587
  0
3DFACE
  5
2D1
100
AcDbEntity
  8
0
 62
     7
100
AcDbFace
 10
-32454.33855744762
 20
44667.47650795777
 30
-146544.4769452975
 11
-35108.437749822093
 21
31368.90510361499
 31
-147009.24192855382
 12
-29799.584478920617
 22
31368.90510361499
 32
-147009.24192855382
 13
-32454.33855744762
 23
44667.47650795777
 33
-146544.4769452975
  0
3DFACE
  5
2D7
100
AcDbEntity
  8
0
 62
     7
100
AcDbFace
 10
-32454.33855744762
 20
44667.47650795777
 30
-146544.4769452975
 11
-27144.17800430251
 21
44667.47650795777
 31
-146544.4769452975
 12
-35108.437749822093
 22
57965.395516209428
 32
-146079.71196204115
 13
-32454.33855744762
 23
44667.47650795777
 33
-146544.4769452975
  0
3DFACE
  5
2DD
100
AcDbEntity
  8
0
 62
     7
100
AcDbFace
 10
-32454.33855744762
 20
14973.665931107589
 30
-58752.884578157587
 11
-27144.17800430251
 21
14973.665931107589
 31
-58752.884578157587
 12
-35108.437749822093
 22
1675.7470784847646
 32
-59217.64458129109
 13
-32454.33855744762
 23
14973.665931107589
 33
-58752.884578157587
  0
3DFACE
  5
2E3
100
AcDbEntity
  8
0
 62
     7
100
AcDbFace
 10
-32454.33855744762
 20
14973.665931107589
 30
-58752.884578157587
 11
-35108.437749822093
 21
28271.584939359254
 31
-58288.119594901254
 12
-29799.584478920617
 22
28271.584939359254
 32
-58288.119594901254
 13
-32454.33855744762
 23
14973.665931107589
 33
-58752.884578157587
  0
3DFACE
  5
2E9
100
AcDbEntity
  8
0
 62
     7
100
AcDbFace
 10
-27144.17800430251
 20
41569.503947610923
 30
-57824.011987858859
 11
-24489.423925775511
 21
28271.584939359254
 31
-58288.119594901254
 12
-29799.584478920617
 22
28271.584939359254
 32
-58288.119594901254
 13
-27144.17800430251
 23
41569.503947610923
 33
-57824.011987858859
  0
3DFACE
  5
2EF
100
AcDbEntity
  8
0
 62
     7
100
AcDbFace
 10
-27144.17800430251
 20
41569.503947610923
 30
-57824.011987858859
 11
-35108.437749822093
 21
54866.768069710059
 31
-57359.904380816472
 12
-24489.423925775511
 22
54866.768069710059
 32
-57359.904380816472
 13
-27144.17800430251
 23
41569.503947610923
 33
-57824.011987858859
  0
3DFACE
  5
2F5
100
AcDbEntity
  8
0
 62
     7
100
AcDbFace
 10
-27144.17800430251
 20
18071.639736485144
 30
-147473.34953559621
 11
-24489.423925775511
 21
31368.90510361499
 31
-147009.24192855382
 12
-29799.584478920617
 22
31368.90510361499
 32
-147009.24192855382
 13
-27144.17800430251
 23
18071.639736485144
 33
-147473.34953559621
  0
3DFACE
  5
2FB
100
AcDbEntity
  8
0
 62
     7
100
AcDbFace
 10
-27144.17800430251
 20
18071.639736485144
 30
-147473.34953559621
 11
-35108.437749822093
 21
4774.3734355822662
 31
-147938.09459836123
 12
-24489.423925775511
 22
4774.3734355822662
 32
-147938.09459836123
 13
-27144.17800430251
 23
18071.639736485144
 33
-147473.34953559621
  0
3DFACE
  5
301
100
AcDbEntity
  8
0
 62
     7
100
AcDbFace
 10
-32454.33855744762
 20
41569.503947610923
 30
-57824.011987858859
 11
-27144.17800430251
 21
41569.503947610923
 31
-57824.011987858859
 12
-29799.584478920617
 22
28271.584939359254
 32
-58288.119594901254
 13
-32454.33855744762
 23
41569.503947610923
 33
-57824.011987858859
  0
3DFACE
  5
307
100
AcDbEntity
  8
0
 62
     7
100
AcDbFace
 10
-35108.437749822093
 20
41569.503947610923
 30
-57824.011987858859
 11
-35108.437749822093
 21
54866.768069710059
 31
-57359.904380816472
 12
-32454.33855744762
 22
41569.503947610923
 32
-57824.011987858859
 13
-35108.437749822093
 23
41569.503947610923
 33
-57824.011987858859
  0
3DFACE
  5
30D
100
AcDbEntity
  8
0
 62
     7
100
AcDbFace
 10
-35108.437749822093
 20
18071.639736485144
 30
-147473.34953559621
 11
-35108.437749822093
 21
4774.3734355822662
 31
-147938.09459836123
 12
-32454.33855744762
 22
18071.639736485144
 32
-147473.34953559621
 13
-35108.437749822093
 23
18071.639736485144
 33
-147473.34953559621
  0
3DFACE
  5
313
100
AcDbEntity
  8
0
 62
     7
100
AcDbFace
 10
-32454.33855744762
 20
18071.639736485144
 30
-147473.34953559621
 11
-27144.17800430251
 21
18071.639736485144
 31
-147473.34953559621
 12
-29799.584478920617
 22
31368.90510361499
 32
-147009.24192855382
 13
-32454.33855744762
 23
18071.639736485144
 33
-147473.34953559621
  0
3DFACE
  5
319
100
AcDbEntity
  8
0
 62
     7
100
AcDbFace
 10
-35108.437749822093
 20
22010.360368572077
 30
-69610.149968590893
 11
-35108.437749822093
 21
28271.584939359254
 31
-58288.119594901254
 12
-35108.437749822093
 22
14973.665931107589
 32
-58752.884578157587
 13
-35108.437749822093
 23
22010.360368572077
 33
-69610.149968590893
  0
3DFACE
  5
31F
100
AcDbEntity
  8
0
 62
     7
100
AcDbFace
 10
-35108.437749822093
 20
14973.665931107589
 30
-58752.884578157587
 11
-32454.33855744762
 21
14973.665931107589
 31
-58752.884578157587
 12
-35108.437749822093
 22
1675.7470784847646
 32
-59217.64458129109
 13
-35108.437749822093
 23
14973.665931107589
 33
-58752.884578157587
  0
3DFACE
  5
325
100
AcDbEntity
  8
0
 62
     7
100
AcDbFace
 10
-35108.437749822093
 20
23559.347893776208
 30
-113970.70864535576
 11
-35108.437749822093
 21
29821.224860654493
 31
-102648.02089545218
 12
-35108.437749822093
 22
16522.65345631172
 32
-103112.78587870851
 13
-35108.437749822093
 23
23559.347893776208
 33
-113970.70864535576
  0
3DFACE
  5
32B
100
AcDbEntity
  8
0
 62
     7
100
AcDbFace
 10
-35108.437749822093
 20
9486.6095473922796
 30
-92254.86311206127
 11
-35108.437749822093
 21
3224.7338255447039
 31
-103577.55086196485
 12
-35108.437749822093
 22
16522.65345631172
 32
-103112.78587870851
 13
-35108.437749822093
 23
9486.6095473922796
 33
-92254.86311206127
  0
3DFACE
  5
331
100
AcDbEntity
  8
0
 62
     7
100
AcDbFace
 10
-35108.437749822093
 20
37630.782070493282
 30
-135686.55417865026
 11
-35108.437749822093
 21
31368.90510361499
 31
-147009.24192855382
 12
-35108.437749822093
 22
44667.47650795777
 32
-146544.4769452975
 13
-35108.437749822093
 23
37630.782070493282
 33
-135686.55417865026
  0
3DFACE
  5
337
100
AcDbEntity
  8
0
 62
     7
100
AcDbFace
 10
-35108.437749822093
 20
44667.47650795777
 30
-146544.4769452975
 11
-32454.33855744762
 21
44667.47650795777
 31
-146544.4769452975
 12
-35108.437749822093
 22
57965.395516209428
 32
-146079.71196204115
 13
-35108.437749822093
 23
44667.47650795777
 33
-146544.4769452975
  0
3DFACE
  5
33D
100
AcDbEntity
  8
0
 62
     7
100
AcDbFace
 10
-24489.423925775511
 20
10261.429508039899
 30
-114435.47362861209
 11
-24489.423925775511
 21
3224.7338255447039
 31
-103577.55086196485
 12
-24489.423925775511
 22
16522.65345631172
 32
-103112.78587870851
 13
-24489.423925775511
 23
10261.429508039899
 33
-114435.47362861209
  0
3DFACE
  5
343
100
AcDbEntity
  8
0
 62
     7
100
AcDbFace
 10
-24489.423925775511
 20
22784.527933128589
 30
-91790.098128804937
 11
-24489.423925775511
 21
29821.224860654493
 31
-102648.02089545218
 12
-24489.423925775511
 22
16522.65345631172
 32
-103112.78587870851
 13
-24489.423925775511
 23
22784.527933128589
 33
-91790.098128804937
  0
3DFACE
  5
349
100
AcDbEntity
  8
0
 62
     7
100
AcDbFace
 10
-24489.423925775511
 20
8711.7895867446587
 30
-70074.909971724395
 11
-24489.423925775511
 21
1675.7470784847646
 31
-59217.64458129109
 12
-24489.423925775511
 22
14973.665931107589
 32
-58752.884578157587
 13
-24489.423925775511
 23
8711.7895867446587
 33
-70074.909971724395
  0
3DFACE
  5
34F
100
AcDbEntity
  8
0
 62
     7
100
AcDbFace
 10
-24489.423925775511
 20
14973.665931107589
 30
-58752.884578157587
 11
-27144.17800430251
 21
14973.665931107589
 31
-58752.884578157587
 12
-24489.423925775511
 22
28271.584939359254
 32
-58288.119594901254
 13
-24489.423925775511
 23
14973.665931107589
 33
-58752.884578157587
  0
3DFACE
  5
355
100
AcDbEntity
  8
0
 62
     7
100
AcDbFace
 10
-24489.423925775511
 20
50928.696098622109
 30
-135221.78919539391
 11
-24489.423925775511
 21
57965.395516209428
 31
-146079.71196204115
 12
-24489.423925775511
 22
44667.47650795777
 32
-146544.4769452975
 13
-24489.423925775511
 23
50928.696098622109
 33
-135221.78919539391
  0
3DFACE
  5
35B
100
AcDbEntity
  8
0
 62
     7
100
AcDbFace
 10
-24489.423925775511
 20
44667.47650795777
 30
-146544.4769452975
 11
-27144.17800430251
 21
44667.47650795777
 31
-146544.4769452975
 12
-24489.423925775511
 22
31368.90510361499
 32
-147009.24192855382
 13
-24489.423925775511
 23
44667.47650795777
 33
-146544.4769452975
  0
3DFACE
  5
361
100
AcDbEntity
  8
0
 62
     7
100
AcDbFace
 10
-35108.437749822093
 20
48604.891102831774
 30
-68681.934754506103
 11
-35108.437749822093
 21
54866.768069710059
 31
-57359.904380816472
 12
-35108.437749822093
 22
41569.503947610923
 32
-57824.011987858859
 13
-35108.437749822093
 23
48604.891102831774
 33
-68681.934754506103
  0
3DFACE
  5
367
100
AcDbEntity
  8
0
 62
     7
100
AcDbFace
 10
-35108.437749822093
 20
41569.503947610923
 30
-57824.011987858859
 11
-32454.33855744762
 21
41569.503947610923
 31
-57824.011987858859
 12
-35108.437749822093
 22
28271.584939359254
 32
-58288.119594901254
 13
-35108.437749822093
 23
41569.503947610923
 33
-57824.011987858859
  0
3DFACE
  5
36D
100
AcDbEntity
  8
0
 62
     7
100
AcDbFace
 10
-24489.423925775511
 20
35307.626980732639
 30
-69146.042361548505
 11
-24489.423925775511
 21
28271.584939359254
 31
-58288.119594901254
 12
-24489.423925775511
 22
41569.503947610923
 32
-57824.011987858859
 13
-24489.423925775511
 23
35307.626980732639
 33
-69146.042361548505
  0
3DFACE
  5
373
100
AcDbEntity
  8
0
 62
     7
100
AcDbFace
 10
-24489.423925775511
 20
41569.503947610923
 30
-57824.011987858859
 11
-27144.17800430251
 21
41569.503947610923
 31
-57824.011987858859
 12
-24489.423925775511
 22
54866.768069710059
 32
-57359.904380816472
 13
-24489.423925775511
 23
41569.503947610923
 33
-57824.011987858859
  0
3DFACE
  5
379
100
AcDbEntity
  8
0
 62
     7
100
AcDbFace
 10
-35108.437749822093
 20
50154.531024127013
 30
-113041.83605505704
 11
-35108.437749822093
 21
56415.75559491419
 31
-101719.8056813674
 12
-35108.437749822093
 22
43118.488982753632
 32
-102183.91328840979
 13
-35108.437749822093
 23
50154.531024127013
 33
-113041.83605505704
  0
3DFACE
  5
37F
100
AcDbEntity
  8
0
 62
     7
100
AcDbFace
 10
-35108.437749822093
 20
36082.446941380258
 30
-91325.990521762549
 11
-35108.437749822093
 21
29821.224860654493
 31
-102648.02089545218
 12
-35108.437749822093
 22
43118.488982753632
 32
-102183.91328840979
 13
-35108.437749822093
 23
36082.446941380258
 33
-91325.990521762549
  0
3DFACE
  5
385
100
AcDbEntity
  8
0
 62
     7
100
AcDbFace
 10
-24489.423925775511
 20
49379.708573417978
 30
-90861.882914720161
 11
-24489.423925775511
 21
56415.75559491419
 31
-101719.8056813674
 12
-24489.423925775511
 22
43118.488982753632
 32
-102183.91328840979
 13
-24489.423925775511
 23
49379.708573417978
 33
-90861.882914720161
  0
3DFACE
  5
38B
100
AcDbEntity
  8
0
 62
     7
100
AcDbFace
 10
-24489.423925775511
 20
36856.61450593677
 30
-113505.94366209942
 11
-24489.423925775511
 21
29821.224860654493
 31
-102648.02089545218
 12
-24489.423925775511
 22
43118.488982753632
 32
-102183.91328840979
 13
-24489.423925775511
 23
36856.61450593677
 33
-113505.94366209942
  0
3DFACE
  5
391
100
AcDbEntity
  8
0
 62
     7
100
AcDbFace
 10
-35108.437749822093
 20
11035.596450081057
 30
-136615.42676894896
 11
-35108.437749822093
 21
4774.3734355822662
 31
-147938.09459836123
 12
-35108.437749822093
 22
18071.639736485144
 32
-147473.34953559621
 13
-35108.437749822093
 23
11035.596450081057
 33
-136615.42676894896
  0
3DFACE
  5
397
100
AcDbEntity
  8
0
 62
     7
100
AcDbFace
 10
-35108.437749822093
 20
18071.639736485144
 30
-147473.34953559621
 11
-32454.33855744762
 21
18071.639736485144
 31
-147473.34953559621
 12
-35108.437749822093
 22
31368.90510361499
 32
-147009.24192855382
 13
-35108.437749822093
 23
18071.639736485144
 33
-147473.34953559621
  0
3DFACE
  5
39D
100
AcDbEntity
  8
0
 62
     7
100
AcDbFace
 10
-24489.423925775511
 20
24333.51545833272
 30
-136151.31916190658
 11
-24489.423925775511
 21
31368.90510361499
 31
-147009.24192855382
 12
-24489.423925775511
 22
18071.639736485144
 32
-147473.34953559621
 13
-24489.423925775511
 23
24333.51545833272
 33
-136151.31916190658
  0
3DFACE
  5
3A3
100
AcDbEntity
  8
0
 62
     7
100
AcDbFace
 10
-24489.423925775511
 20
18071.639736485144
 30
-147473.34953559621
 11
-27144.17800430251
 21
18071.639736485144
 31
-147473.34953559621
 12
-24489.423925775511
 22
4774.3734355822662
 32
-147938.09459836123
 13
-24489.423925775511
 23
18071.639736485144
 33
-147473.34953559621
  0
3DFACE
  5
3A9
100
AcDbEntity
  8
0
 62
     7
100
AcDbFace
 10
-35108.437749822093
 20
30981.822566367446
 30
-135918.92671003274
 11
-35108.437749822093
 21
31368.90510361499
 31
-147009.24192855382
 12
-35108.437749822093
 22
37630.782070493282
 32
-135686.55417865026
 13
-35108.437749822093
 23
30981.822566367446
 33
-135918.92671003274
  0
3DFACE
  5
3AF
100
AcDbEntity
  8
0
 62
     7
100
AcDbFace
 10
-35108.437749822093
 20
44279.739084557696
 30
-135454.17168702208
 11
-35108.437749822093
 21
43892.654057248728
 31
-124363.86642874667
 12
-35108.437749822093
 22
37630.782070493282
 32
-135686.55417865026
 13
-35108.437749822093
 23
44279.739084557696
 33
-135454.17168702208
  0
3DFACE
  5
3B5
100
AcDbEntity
  8
0
 62
     7
100
AcDbFace
 10
-24489.423925775511
 20
37630.782070493282
 30
-135686.55417865026
 11
-24489.423925775511
 21
30594.737539058478
 31
-124827.97403578907
 12
-24489.423925775511
 22
43892.654057248728
 32
-124363.86642874667
 13
-24489.423925775511
 23
37630.782070493282
 33
-135686.55417865026
  0
3DFACE
  5
3BB
100
AcDbEntity
  8
0
 62
     7
100
AcDbFace
 10
-24489.423925775511
 20
37630.782070493282
 30
-135686.55417865026
 11
-24489.423925775511
 21
44667.47650795777
 31
-146544.4769452975
 12
-24489.423925775511
 22
31368.90510361499
 32
-147009.24192855382
 13
-24489.423925775511
 23
37630.782070493282
 33
-135686.55417865026
  0
3DFACE
  5
3C1
100
AcDbEntity
  8
0
 62
     7
100
AcDbFace
 10
-35108.437749822093
 20
16910.389634681083
 30
-114203.08117673827
 11
-35108.437749822093
 21
17297.473416959339
 31
-125293.39639525933
 12
-35108.437749822093
 22
23559.347893776208
 32
-113970.70864535576
 13
-35108.437749822093
 23
16910.389634681083
 33
-114203.08117673827
  0
3DFACE
  5
3C7
100
AcDbEntity
  8
0
 62
     7
100
AcDbFace
 10
-35108.437749822093
 20
30208.307397902041
 30
-113738.3261537276
 11
-35108.437749822093
 21
29821.224860654493
 31
-102648.02089545218
 12
-35108.437749822093
 22
23559.347893776208
 32
-113970.70864535576
 13
-35108.437749822093
 23
30208.307397902041
 33
-113738.3261537276
  0
3DFACE
  5
3CD
100
AcDbEntity
  8
0
 62
     7
100
AcDbFace
 10
-24489.423925775511
 20
23559.347893776208
 30
-113970.70864535576
 11
-24489.423925775511
 21
30594.737539058478
 31
-124827.97403578907
 12
-24489.423925775511
 22
17297.473416959339
 32
-125293.39639525933
 13
-24489.423925775511
 23
23559.347893776208
 33
-113970.70864535576
  0
3DFACE
  5
3D3
100
AcDbEntity
  8
0
 62
     7
100
AcDbFace
 10
-24489.423925775511
 20
23559.347893776208
 30
-113970.70864535576
 11
-24489.423925775511
 21
16522.65345631172
 31
-103112.78587870851
 12
-24489.423925775511
 22
29821.224860654493
 32
-102648.02089545218
 13
-24489.423925775511
 23
23559.347893776208
 33
-113970.70864535576
  0
3DFACE
  5
3D9
100
AcDbEntity
  8
0
 62
     7
100
AcDbFace
 10
-35108.437749822093
 20
16135.569674033464
 30
-92022.480620433111
 11
-35108.437749822093
 21
15748.485891755208
 31
-80932.185322403355
 12
-35108.437749822093
 22
9486.6095473922796
 32
-92254.86311206127
 13
-35108.437749822093
 23
16135.569674033464
 33
-92022.480620433111
  0
3DFACE
  5
3DF
100
AcDbEntity
  8
0
 62
     7
100
AcDbFace
 10
-35108.437749822093
 20
2837.6503545241249
 30
-92487.893019657713
 11
-35108.437749822093
 21
3224.7338255447039
 31
-103577.55086196485
 12
-35108.437749822093
 22
9486.6095473922796
 32
-92254.86311206127
 13
-35108.437749822093
 23
2837.6503545241249
 33
-92487.893019657713
  0
3DFACE
  5
3E5
100
AcDbEntity
  8
0
 62
     7
100
AcDbFace
 10
-24489.423925775511
 20
9486.6095473922796
 30
-92254.86311206127
 11
-24489.423925775511
 21
2450.5668835035463
 31
-81397.597721627972
 12
-24489.423925775511
 22
15748.485891755208
 32
-80932.185322403355
 13
-24489.423925775511
 23
9486.6095473922796
 33
-92254.86311206127
  0
3DFACE
  5
3EB
100
AcDbEntity
  8
0
 62
     7
100
AcDbFace
 10
-24489.423925775511
 20
9486.6095473922796
 30
-92254.86311206127
 11
-24489.423925775511
 21
16522.65345631172
 31
-103112.78587870851
 12
-24489.423925775511
 22
3224.7338255447039
 32
-103577.55086196485
 13
-24489.423925775511
 23
9486.6095473922796
 33
-92254.86311206127
  0
3DFACE
  5
3F1
100
AcDbEntity
  8
0
 62
     7
100
AcDbFace
 10
-35108.437749822093
 20
50928.696098622109
 30
-135221.78919539391
 11
-35108.437749822093
 21
57189.920669409286
 31
-123899.75882170428
 12
-35108.437749822093
 22
43892.654057248728
 32
-124363.86642874667
 13
-35108.437749822093
 23
50928.696098622109
 33
-135221.78919539391
  0
3DFACE
  5
3F7
100
AcDbEntity
  8
0
 62
     7
100
AcDbFace
 10
-35108.437749822093
 20
50928.696098622109
 30
-135221.78919539391
 11
-35108.437749822093
 21
44667.47650795777
 31
-146544.4769452975
 12
-35108.437749822093
 22
57965.395516209428
 32
-146079.71196204115
 13
-35108.437749822093
 23
50928.696098622109
 33
-135221.78919539391
  0
3DFACE
  5
3FD
100
AcDbEntity
  8
0
 62
     7
100
AcDbFace
 10
-35108.437749822093
 20
49379.708573417978
 30
-90861.882914720161
 11
-35108.437749822093
 21
55642.23793638737
 31
-79539.852541030516
 12
-35108.437749822093
 22
42343.671512167435
 32
-80003.965128195749
 13
-35108.437749822093
 23
49379.708573417978
 33
-90861.882914720161
  0
3DFACE
  5
403
100
AcDbEntity
  8
0
 62
     7
100
AcDbFace
 10
-35108.437749822093
 20
49379.708573417978
 30
-90861.882914720161
 11
-35108.437749822093
 21
43118.488982753632
 31
-102183.91328840979
 12
-35108.437749822093
 22
56415.75559491419
 32
-101719.8056813674
 13
-35108.437749822093
 23
49379.708573417978
 33
-90861.882914720161
  0
3DFACE
  5
409
100
AcDbEntity
  8
0
 62
     7
100
AcDbFace
 10
-24489.423925775511
 20
42730.751559353565
 30
-91093.617990380051
 11
-24489.423925775511
 21
42343.671512167435
 31
-80003.965128195749
 12
-24489.423925775511
 22
49379.708573417978
 32
-90861.882914720161
 13
-24489.423925775511
 23
42730.751559353565
 33
-91093.617990380051
  0
3DFACE
  5
40F
100
AcDbEntity
  8
0
 62
     7
100
AcDbFace
 10
-24489.423925775511
 20
56029.322963696337
 30
-90629.510383337649
 11
-24489.423925775511
 21
56415.75559491419
 31
-101719.8056813674
 12
-24489.423925775511
 22
49379.708573417978
 32
-90861.882914720161
 13
-24489.423925775511
 23
56029.322963696337
 33
-90629.510383337649
  0
3DFACE
  5
415
100
AcDbEntity
  8
0
 62
     7
100
AcDbFace
 10
-24489.423925775511
 20
57577.658092809361
 30
-134990.05411973404
 11
-24489.423925775511
 21
57965.395516209428
 31
-146079.71196204115
 12
-24489.423925775511
 22
50928.696098622109
 32
-135221.78919539391
 13
-24489.423925775511
 23
57577.658092809361
 33
-134990.05411973404
  0
3DFACE
  5
41B
100
AcDbEntity
  8
0
 62
     7
100
AcDbFace
 10
-24489.423925775511
 20
44279.739084557696
 30
-135454.17168702208
 11
-24489.423925775511
 21
43892.654057248728
 31
-124363.86642874667
 12
-24489.423925775511
 22
50928.696098622109
 32
-135221.78919539391
 13
-24489.423925775511
 23
44279.739084557696
 33
-135454.17168702208
  0
3DFACE
  5
421
100
AcDbEntity
  8
0
 62
     7
100
AcDbFace
 10
-35108.437749822093
 20
10261.429508039899
 30
-114435.47362861209
 11
-35108.437749822093
 21
16522.65345631172
 31
-103112.78587870851
 12
-35108.437749822093
 22
3224.7338255447039
 32
-103577.55086196485
 13
-35108.437749822093
 23
10261.429508039899
 33
-114435.47362861209
  0
3DFACE
  5
427
100
AcDbEntity
  8
0
 62
     7
100
AcDbFace
 10
-35108.437749822093
 20
10261.429508039899
 30
-114435.47362861209
 11
-35108.437749822093
 21
4000.206493541109
 31
-125757.50400230174
 12
-35108.437749822093
 22
17297.473416959339
 32
-125293.39639525933
 13
-35108.437749822093
 23
10261.429508039899
 33
-114435.47362861209
  0
3DFACE
  5
42D
100
AcDbEntity
  8
0
 62
     7
100
AcDbFace
 10
-24489.423925775511
 20
16910.389634681083
 30
-114203.08117673827
 11
-24489.423925775511
 21
17297.473416959339
 31
-125293.39639525933
 12
-24489.423925775511
 22
10261.429508039899
 32
-114435.47362861209
 13
-24489.423925775511
 23
16910.389634681083
 33
-114203.08117673827
  0
3DFACE
  5
433
100
AcDbEntity
  8
0
 62
     7
100
AcDbFace
 10
-24489.423925775511
 20
3612.4703151717449
 30
-114667.8461599946
 11
-24489.423925775511
 21
3224.7338255447039
 31
-103577.55086196485
 12
-24489.423925775511
 22
10261.429508039899
 32
-114435.47362861209
 13
-24489.423925775511
 23
3612.4703151717449
 33
-114667.8461599946
  0
3DFACE
  5
439
100
AcDbEntity
  8
0
 62
     7
100
AcDbFace
 10
-35108.437749822093
 20
22784.527933128589
 30
-91790.098128804937
 11
-35108.437749822093
 21
29045.752503915766
 31
-80468.072735238136
 12
-35108.437749822093
 22
15748.485891755208
 32
-80932.185322403355
 13
-35108.437749822093
 23
22784.527933128589
 33
-91790.098128804937
  0
3DFACE
  5
43F
100
AcDbEntity
  8
0
 62
     7
100
AcDbFace
 10
-35108.437749822093
 20
22784.527933128589
 30
-91790.098128804937
 11
-35108.437749822093
 21
16522.65345631172
 31
-103112.78587870851
 12
-35108.437749822093
 22
29821.224860654493
 32
-102648.02089545218
 13
-35108.437749822093
 23
22784.527933128589
 33
-91790.098128804937
  0
3DFACE
  5
445
100
AcDbEntity
  8
0
 62
     7
100
AcDbFace
 10
-24489.423925775511
 20
29433.487437254422
 30
-91558.373013390708
 11
-24489.423925775511
 21
29821.224860654493
 31
-102648.02089545218
 12
-24489.423925775511
 22
22784.527933128589
 32
-91790.098128804937
 13
-24489.423925775511
 23
29433.487437254422
 33
-91558.373013390708
  0
3DFACE
  5
44B
100
AcDbEntity
  8
0
 62
     7
100
AcDbFace
 10
-24489.423925775511
 20
16135.569674033464
 30
-92022.480620433111
 11
-24489.423925775511
 21
15748.485891755208
 31
-80932.185322403355
 12
-24489.423925775511
 22
22784.527933128589
 32
-91790.098128804937
 13
-24489.423925775511
 23
16135.569674033464
 33
-92022.480620433111
  0
3DFACE
  5
451
100
AcDbEntity
  8
0
 62
     7
100
AcDbFace
 10
-35108.437749822093
 20
15360.749713385845
 30
-69842.532460219052
 11
-35108.437749822093
 21
15748.485891755208
 31
-80932.185322403355
 12
-35108.437749822093
 22
22010.360368572077
 32
-69610.149968590893
 13
-35108.437749822093
 23
15360.749713385845
 33
-69842.532460219052
  0
3DFACE
  5
457
100
AcDbEntity
  8
0
 62
     7
100
AcDbFace
 10
-35108.437749822093
 20
28658.667476606799
 30
-69377.77245708555
 11
-35108.437749822093
 21
28271.584939359254
 31
-58288.119594901254
 12
-35108.437749822093
 22
22010.360368572077
 32
-69610.149968590893
 13
-35108.437749822093
 23
28658.667476606799
 33
-69377.77245708555
  0
3DFACE
  5
45D
100
AcDbEntity
  8
0
 62
     7
100
AcDbFace
 10
-35108.437749822093
 20
41956.586484858468
 30
-68913.664850043162
 11
-35108.437749822093
 21
42343.671512167435
 31
-80003.965128195749
 12
-35108.437749822093
 22
48604.891102831774
 32
-68681.934754506103
 13
-35108.437749822093
 23
41956.586484858468
 33
-68913.664850043162
  0
3DFACE
  5
463
100
AcDbEntity
  8
0
 62
     7
100
AcDbFace
 10
-35108.437749822093
 20
55254.500512987295
 30
-68449.552262877944
 11
-35108.437749822093
 21
54866.768069710059
 31
-57359.904380816472
 12
-35108.437749822093
 22
48604.891102831774
 32
-68681.934754506103
 13
-35108.437749822093
 23
55254.500512987295
 33
-68449.552262877944
  0
3DFACE
  5
469
100
AcDbEntity
  8
0
 62
     7
100
AcDbFace
 10
-35108.437749822093
 20
4387.2899645616881
 30
-136847.79930033148
 11
-35108.437749822093
 21
4774.3734355822662
 31
-147938.09459836123
 12
-35108.437749822093
 22
11035.596450081057
 32
-136615.42676894896
 13
-35108.437749822093
 23
4387.2899645616881
 33
-136847.79930033148
  0
3DFACE
  5
46F
100
AcDbEntity
  8
0
 62
     7
100
AcDbFace
 10
-35108.437749822093
 20
17684.555954206888
 30
-136383.69169328909
 11
-35108.437749822093
 21
17297.473416959339
 31
-125293.39639525933
 12
-35108.437749822093
 22
11035.596450081057
 32
-136615.42676894896
 13
-35108.437749822093
 23
17684.555954206888
 33
-136383.69169328909
  0
3DFACE
  5
475
100
AcDbEntity
  8
0
 62
     7
100
AcDbFace
 10
-24489.423925775511
 20
48604.891102831774
 30
-68681.934754506103
 11
-24489.423925775511
 21
55642.23793638737
 31
-79539.852541030516
 12
-24489.423925775511
 22
42343.671512167435
 32
-80003.965128195749
 13
-24489.423925775511
 23
48604.891102831774
 33
-68681.934754506103
  0
3DFACE
  5
47B
100
AcDbEntity
  8
0
 62
     7
100
AcDbFace
 10
-24489.423925775511
 20
48604.891102831774
 30
-68681.934754506103
 11
-24489.423925775511
 21
41569.503947610923
 31
-57824.011987858859
 12
-24489.423925775511
 22
54866.768069710059
 32
-57359.904380816472
 13
-24489.423925775511
 23
48604.891102831774
 33
-68681.934754506103
  0
3DFACE
  5
481
100
AcDbEntity
  8
0
 62
     7
100
AcDbFace
 10
-24489.423925775511
 20
11035.596450081057
 30
-136615.42676894896
 11
-24489.423925775511
 21
18071.639736485144
 31
-147473.34953559621
 12
-24489.423925775511
 22
4774.3734355822662
 32
-147938.09459836123
 13
-24489.423925775511
 23
11035.596450081057
 33
-136615.42676894896
  0
3DFACE
  5
487
100
AcDbEntity
  8
0
 62
     7
100
AcDbFace
 10
-24489.423925775511
 20
11035.596450081057
 30
-136615.42676894896
 11
-24489.423925775511
 21
4000.206493541109
 31
-125757.50400230174
 12
-24489.423925775511
 22
17297.473416959339
 32
-125293.39639525933
 13
-24489.423925775511
 23
11035.596450081057
 33
-136615.42676894896
  0
3DFACE
  5
48D
100
AcDbEntity
  8
0
 62
     7
100
AcDbFace
 10
-24489.423925775511
 20
22010.360368572077
 30
-69610.149968590893
 11
-24489.423925775511
 21
29045.752503915766
 31
-80468.072735238136
 12
-24489.423925775511
 22
15748.485891755208
 32
-80932.185322403355
 13
-24489.423925775511
 23
22010.360368572077
 33
-69610.149968590893
  0
3DFACE
  5
493
100
AcDbEntity
  8
0
 62
     7
100
AcDbFace
 10
-24489.423925775511
 20
22010.360368572077
 30
-69610.149968590893
 11
-24489.423925775511
 21
14973.665931107589
 31
-58752.884578157587
 12
-24489.423925775511
 22
28271.584939359254
 32
-58288.119594901254
 13
-24489.423925775511
 23
22010.360368572077
 33
-69610.149968590893
  0
3DFACE
  5
499
100
AcDbEntity
  8
0
 62
     7
100
AcDbFace
 10
-35108.437749822093
 20
56802.835642100319
 30
-112809.46352367454
 11
-35108.437749822093
 21
56415.75559491419
 31
-101719.8056813674
 12
-35108.437749822093
 22
50154.531024127013
 32
-113041.83605505704
 13
-35108.437749822093
 23
56802.835642100319
 33
-112809.46352367454
  0
3DFACE
  5
49F
100
AcDbEntity
  8
0
 62
     7
100
AcDbFace
 10
-35108.437749822093
 20
43505.569029939768
 30
-113274.21854668521
 11
-35108.437749822093
 21
43892.654057248728
 31
-124363.86642874667
 12
-35108.437749822093
 22
50154.531024127013
 32
-113041.83605505704
 13
-35108.437749822093
 23
43505.569029939768
 33
-113274.21854668521
  0
3DFACE
  5
4A5
100
AcDbEntity
  8
0
 62
     7
100
AcDbFace
 10
-24489.423925775511
 20
50154.531024127013
 30
-113041.83605505704
 11
-24489.423925775511
 21
57189.920669409286
 31
-123899.75882170428
 12
-24489.423925775511
 22
43892.654057248728
 32
-124363.86642874667
 13
-24489.423925775511
 23
50154.531024127013
 33
-113041.83605505704
  0
3DFACE
  5
4AB
100
AcDbEntity
  8
0
 62
     7
100
AcDbFace
 10
-24489.423925775511
 20
50154.531024127013
 30
-113041.83605505704
 11
-24489.423925775511
 21
43118.488982753632
 31
-102183.91328840979
 12
-24489.423925775511
 22
56415.75559491419
 32
-101719.8056813674
 13
-24489.423925775511
 23
50154.531024127013
 33
-113041.83605505704
  0
3DFACE
  5
4B1
100
AcDbEntity
  8
0
 62
     7
100
AcDbFace
 10
-35108.437749822093
 20
24333.51545833272
 30
-136151.31916190658
 11
-35108.437749822093
 21
30594.737539058478
 31
-124827.97403578907
 12
-35108.437749822093
 22
17297.473416959339
 32
-125293.39639525933
 13
-35108.437749822093
 23
24333.51545833272
 33
-136151.31916190658
  0
3DFACE
  5
4B7
100
AcDbEntity
  8
0
 62
     7
100
AcDbFace
 10
-35108.437749822093
 20
24333.51545833272
 30
-136151.31916190658
 11
-35108.437749822093
 21
18071.639736485144
 31
-147473.34953559621
 12
-35108.437749822093
 22
31368.90510361499
 32
-147009.24192855382
 13
-35108.437749822093
 23
24333.51545833272
 33
-136151.31916190658
  0
3DFACE
  5
4BD
100
AcDbEntity
  8
0
 62
     7
100
AcDbFace
 10
-24489.423925775511
 20
17684.555954206888
 30
-136383.69169328909
 11
-24489.423925775511
 21
17297.473416959339
 31
-125293.39639525933
 12
-24489.423925775511
 22
24333.51545833272
 32
-136151.31916190658
 13
-24489.423925775511
 23
17684.555954206888
 33
-136383.69169328909
  0
3DFACE
  5
4C3
100
AcDbEntity
  8
0
 62
     7
100
AcDbFace
 10
-24489.423925775511
 20
30981.822566367446
 30
-135918.92671003274
 11
-24489.423925775511
 21
31368.90510361499
 31
-147009.24192855382
 12
-24489.423925775511
 22
24333.51545833272
 32
-136151.31916190658
 13
-24489.423925775511
 23
30981.822566367446
 33
-135918.92671003274
  0
3DFACE
  5
4C9
100
AcDbEntity
  8
0
 62
     7
100
AcDbFace
 10
-35108.437749822093
 20
35307.626980732639
 30
-69146.042361548505
 11
-35108.437749822093
 21
29045.752503915766
 31
-80468.072735238136
 12
-35108.437749822093
 22
42343.671512167435
 32
-80003.965128195749
 13
-35108.437749822093
 23
35307.626980732639
 33
-69146.042361548505
  0
3DFACE
  5
4CF
100
AcDbEntity
  8
0
 62
     7
100
AcDbFace
 10
-35108.437749822093
 20
35307.626980732639
 30
-69146.042361548505
 11
-35108.437749822093
 21
41569.503947610923
 31
-57824.011987858859
 12
-35108.437749822093
 22
28271.584939359254
 32
-58288.119594901254
 13
-35108.437749822093
 23
35307.626980732639
 33
-69146.042361548505
  0
3DFACE
  5
4D5
100
AcDbEntity
  8
0
 62
     7
100
AcDbFace
 10
-35108.437749822093
 20
36856.61450593677
 30
-113505.94366209942
 11
-35108.437749822093
 21
43118.488982753632
 31
-102183.91328840979
 12
-35108.437749822093
 22
29821.224860654493
 32
-102648.02089545218
 13
-35108.437749822093
 23
36856.61450593677
 33
-113505.94366209942
  0
3DFACE
  5
4DB
100
AcDbEntity
  8
0
 62
     7
100
AcDbFace
 10
-35108.437749822093
 20
36856.61450593677
 30
-113505.94366209942
 11
-35108.437749822093
 21
30594.737539058478
 31
-124827.97403578907
 12
-35108.437749822093
 22
43892.654057248728
 32
-124363.86642874667
 13
-35108.437749822093
 23
36856.61450593677
 33
-113505.94366209942
  0
3DFACE
  5
4E1
100
AcDbEntity
  8
0
 62
     7
100
AcDbFace
 10
-24489.423925775511
 20
43505.569029939768
 30
-113274.21854668521
 11
-24489.423925775511
 21
43892.654057248728
 31
-124363.86642874667
 12
-24489.423925775511
 22
36856.61450593677
 32
-113505.94366209942
 13
-24489.423925775511
 23
43505.569029939768
 33
-113274.21854668521
  0
3DFACE
  5
4E7
100
AcDbEntity
  8
0
 62
     7
100
AcDbFace
 10
-24489.423925775511
 20
30208.307397902041
 30
-113738.3261537276
 11
-24489.423925775511
 21
29821.224860654493
 31
-102648.02089545218
 12
-24489.423925775511
 22
36856.61450593677
 32
-113505.94366209942
 13
-24489.423925775511
 23
30208.307397902041
 33
-113738.3261537276
  0
3DFACE
  5
4ED
100
AcDbEntity
  8
0
 62
     7
100
AcDbFace
 10
-24489.423925775511
 20
28658.667476606799
 30
-69377.77245708555
 11
-24489.423925775511
 21
28271.584939359254
 31
-58288.119594901254
 12
-24489.423925775511
 22
35307.626980732639
 32
-69146.042361548505
 13
-24489.423925775511
 23
28658.667476606799
 33
-69377.77245708555
  0
3DFACE
  5
4F3
100
AcDbEntity
  8
0
 62
     7
100
AcDbFace
 10
-24489.423925775511
 20
41956.586484858468
 30
-68913.664850043162
 11
-24489.423925775511
 21
42343.671512167435
 31
-80003.965128195749
 12
-24489.423925775511
 22
35307.626980732639
 32
-69146.042361548505
 13
-24489.423925775511
 23
41956.586484858468
 33
-68913.664850043162
  0
3DFACE
  5
4F9
100
AcDbEntity
  8
0
 62
     7
100
AcDbFace
 10
-35108.437749822093
 20
29433.487437254422
 30
-91558.373013390708
 11
-35108.437749822093
 21
29821.224860654493
 31
-102648.02089545218
 12
-35108.437749822093
 22
36082.446941380258
 32
-91325.990521762549
 13
-35108.437749822093
 23
29433.487437254422
 33
-91558.373013390708
  0
3DFACE
  5
4FF
100
AcDbEntity
  8
0
 62
     7
100
AcDbFace
 10
-35108.437749822093
 20
42730.751559353565
 30
-91093.617990380051
 11
-35108.437749822093
 21
42343.671512167435
 31
-80003.965128195749
 12
-35108.437749822093
 22
36082.446941380258
 32
-91325.990521762549
 13
-35108.437749822093
 23
42730.751559353565
 33
-91093.617990380051
  0
3DFACE
  5
505
100
AcDbEntity
  8
0
 62
     7
100
AcDbFace
 10
-24489.423925775511
 20
36082.446941380258
 30
-91325.990521762549
 11
-24489.423925775511
 21
43118.488982753632
 31
-102183.91328840979
 12
-24489.423925775511
 22
29821.224860654493
 32
-102648.02089545218
 13
-24489.423925775511
 23
36082.446941380258
 33
-91325.990521762549
  0
3DFACE
  5
50B
100
AcDbEntity
  8
0
 62
     7
100
AcDbFace
 10
-24489.423925775511
 20
36082.446941380258
 30
-91325.990521762549
 11
-24489.423925775511
 21
29045.752503915766
 31
-80468.072735238136
 12
-24489.423925775511
 22
42343.671512167435
 32
-80003.965128195749
 13
-24489.423925775511
 23
36082.446941380258
 33
-91325.990521762549
  0
3DFACE
  5
511
100
AcDbEntity
  8
0
 62
     7
100
AcDbFace
 10
-35108.437749822093
 20
8711.7895867446587
 30
-70074.909971724395
 11
-35108.437749822093
 21
14973.665931107589
 31
-58752.884578157587
 12
-35108.437749822093
 22
1675.7470784847646
 32
-59217.64458129109
 13
-35108.437749822093
 23
8711.7895867446587
 33
-70074.909971724395
  0
3DFACE
  5
517
100
AcDbEntity
  8
0
 62
     7
100
AcDbFace
 10
-35108.437749822093
 20
8711.7895867446587
 30
-70074.909971724395
 11
-35108.437749822093
 21
2450.5668835035463
 31
-81397.597721627972
 12
-35108.437749822093
 22
15748.485891755208
 32
-80932.185322403355
 13
-35108.437749822093
 23
8711.7895867446587
 33
-70074.909971724395
  0
3DFACE
  5
51D
100
AcDbEntity
  8
0
 62
     7
100
AcDbFace
 10
-24489.423925775511
 20
15360.749713385845
 30
-69842.532460219052
 11
-24489.423925775511
 21
15748.485891755208
 31
-80932.185322403355
 12
-24489.423925775511
 22
8711.7895867446587
 32
-70074.909971724395
 13
-24489.423925775511
 23
15360.749713385845
 33
-69842.532460219052
  0
3DFACE
  5
523
100
AcDbEntity
  8
0
 62
     7
100
AcDbFace
 10
-24489.423925775511
 20
2063.4834124829672
 30
-70307.292463352554
 11
-24489.423925775511
 21
1675.7470784847646
 31
-59217.64458129109
 12
-24489.423925775511
 22
8711.7895867446587
 32
-70074.909971724395
 13
-24489.423925775511
 23
2063.4834124829672
 33
-70307.292463352554
  0
3DFACE
  5
529
100
AcDbEntity
  8
0
 62
     7
100
AcDbFace
 10
-25816.474766993459
 20
57577.658092809361
 30
-134990.05411973404
 11
-27144.17800430251
 21
57189.920669409286
 31
-123899.75882170428
 12
-31126.632830077146
 22
57577.658092809361
 32
-134990.05411973404
 13
-25816.474766993459
 23
57577.658092809361
 33
-134990.05411973404
  0
3DFACE
  5
52F
100
AcDbEntity
  8
0
 62
     7
100
AcDbFace
 10
-33781.386908604145
 20
57577.658092809361
 30
-134990.05411973404
 11
-35108.437749822093
 21
57965.395516209428
 31
-146079.71196204115
 12
-31126.632830077146
 22
57577.658092809361
 32
-134990.05411973404
 13
-33781.386908604145
 23
57577.658092809361
 33
-134990.05411973404
  0
3DFACE
  5
535
100
AcDbEntity
  8
0
 62
     7
100
AcDbFace
 10
-25816.474766993459
 20
55254.500512987295
 30
-68449.552262877944
 11
-24489.423925775511
 21
54866.768069710059
 31
-57359.904380816472
 12
-28471.881241611565
 22
55254.500512987295
 32
-68449.552262877944
 13
-25816.474766993459
 23
55254.500512987295
 33
-68449.552262877944
  0
3DFACE
  5
53B
100
AcDbEntity
  8
0
 62
     7
100
AcDbFace
 10
-33781.386908604145
 20
55254.500512987295
 30
-68449.552262877944
 11
-32454.33855744762
 21
55642.23793638737
 31
-79539.852541030516
 12
-28471.881241611565
 22
55254.500512987295
 32
-68449.552262877944
 13
-33781.386908604145
 23
55254.500512987295
 33
-68449.552262877944
  0
3DFACE
  5
541
100
AcDbEntity
  8
0
 62
     7
100
AcDbFace
 10
-27808.02837792633
 20
4340.2916116147035
 30
-136849.11405275937
 11
-24489.423925775511
 21
4774.3734355822662
 31
-147938.09459836123
 12
-29799.584478920617
 22
4699.9595064402401
 32
-147940.06672700305
 13
-27808.02837792633
 23
4340.2916116147035
 33
-136849.11405275937
  0
3DFACE
  5
547
100
AcDbEntity
  8
0
 62
     7
100
AcDbFace
 10
-27808.02837792633
 20
4340.2916116147035
 30
-136849.11405275937
 11
-28471.228845520458
 21
3944.0696151957773
 31
-125760.11358666616
 12
-25816.474766993459
 22
3980.6240280468442
 32
-125757.50400230174
 13
-27808.02837792633
 23
4340.2916116147035
 33
-136849.11405275937
  0
3DFACE
  5
54D
100
AcDbEntity
  8
0
 62
     7
100
AcDbFace
 10
-30463.434852544437
 20
4322.0145608180082
 30
-136849.76146872764
 11
-29799.584478920617
 21
4699.9595064402401
 31
-147940.06672700305
 12
-31790.485693762381
 22
4340.2916116147035
 32
-136849.11405275937
 13
-30463.434852544437
 23
4322.0145608180082
 33
-136849.76146872764
  0
3DFACE
  5
553
100
AcDbEntity
  8
0
 62
     7
100
AcDbFace
 10
-34445.23977228938
 20
4377.498731814555
 30
-136847.79930033148
 11
-33781.386908604145
 21
3980.6240280468442
 31
-125757.50400230174
 12
-31790.485693762381
 22
4340.2916116147035
 32
-136849.11405275937
 13
-34445.23977228938
 23
4377.498731814555
 33
-136847.79930033148
  0
3DFACE
  5
559
100
AcDbEntity
  8
0
 62
     7
100
AcDbFace
 10
-34445.23977228938
 20
2053.6920241069961
 30
-70307.292463352554
 11
-35108.437749822093
 21
1675.7470784847646
 31
-59217.64458129109
 12
-33117.536534980325
 22
2035.4148176814629
 32
-70307.944859443669
 13
-34445.23977228938
 23
2053.6920241069961
 33
-70307.292463352554
  0
3DFACE
  5
55F
100
AcDbEntity
  8
0
 62
     7
100
AcDbFace
 10
-30463.434852544437
 20
1998.2078531104494
 30
-70309.254631748714
 11
-31126.632830077146
 21
2395.0827125069995
 31
-81398.902513810186
 12
-33117.536534980325
 22
2035.4148176814629
 32
-70307.944859443669
 13
-30463.434852544437
 23
1998.2078531104494
 33
-70309.254631748714
  0
3DFACE
  5
565
100
AcDbEntity
  8
0
 62
     7
100
AcDbFace
 10
-26480.327630678694
 20
2035.4148176814629
 30
-70307.944859443669
 11
-29799.584478920617
 21
1601.9857788771037
 31
-59219.601769564411
 12
-24489.423925775511
 22
1675.7470784847646
 32
-59217.64458129109
 13
-26480.327630678694
 23
2035.4148176814629
 33
-70307.944859443669
  0
3DFACE
  5
56B
100
AcDbEntity
  8
0
 62
     7
100
AcDbFace
 10
-26480.327630678694
 20
2035.4148176814629
 30
-70307.944859443669
 11
-25816.474766993459
 21
2431.6369697292275
 31
-81397.597721627972
 12
-28471.228845520458
 22
2395.0827125069995
 32
-81398.902513810186
 13
-26480.327630678694
 23
2035.4148176814629
 33
-70307.944859443669
  0
3DFACE
  5
571
100
AcDbEntity
  8
0
 62
     7
100
AcDbFace
 10
-31126.632830077146
 20
56029.322963696337
 30
-90629.510383337649
 11
-29799.584478920617
 21
56415.75559491419
 31
-101719.8056813674
 12
-28471.881241611565
 22
56029.322963696337
 32
-90629.510383337649
 13
-31126.632830077146
 23
56029.322963696337
 33
-90629.510383337649
  0
3DFACE
  5
577
100
AcDbEntity
  8
0
 62
     7
100
AcDbFace
 10
-25816.474766993459
 20
56029.322963696337
 30
-90629.510383337649
 11
-27144.17800430251
 21
55642.23793638737
 31
-79539.852541030516
 12
-28471.881241611565
 22
56029.322963696337
 32
-90629.510383337649
 13
-25816.474766993459
 23
56029.322963696337
 33
-90629.510383337649
  0
3DFACE
  5
57D
100
AcDbEntity
  8
0
 62
     7
100
AcDbFace
 10
-28471.881241611565
 20
56802.835642100319
 30
-112809.46352367454
 11
-32454.33855744762
 21
57189.920669409286
 31
-123899.75882170428
 12
-27144.17800430251
 22
57189.920669409286
 32
-123899.75882170428
 13
-28471.881241611565
 23
56802.835642100319
 33
-112809.46352367454
  0
3DFACE
  5
583
100
AcDbEntity
  8
0
 62
     7
100
AcDbFace
 10
-28471.881241611565
 20
56802.835642100319
 30
-112809.46352367454
 11
-24489.423925775511
 21
56415.75559491419
 31
-101719.8056813674
 12
-29799.584478920617
 22
56415.75559491419
 32
-101719.8056813674
 13
-28471.881241611565
 23
56802.835642100319
 33
-112809.46352367454
  0
3DFACE
  5
589
100
AcDbEntity
  8
0
 62
     7
100
AcDbFace
 10
-25816.474766993459
 20
57577.658092809361
 30
-134990.05411973404
 11
-24489.423925775511
 21
57189.920669409286
 31
-123899.75882170428
 12
-27144.17800430251
 22
57189.920669409286
 32
-123899.75882170428
 13
-25816.474766993459
 23
57577.658092809361
 33
-134990.05411973404
  0
3DFACE
  5
58F
100
AcDbEntity
  8
0
 62
     7
100
AcDbFace
 10
-25816.474766993459
 20
57577.658092809361
 30
-134990.05411973404
 11
-31126.632830077146
 21
57577.658092809361
 31
-134990.05411973404
 12
-24489.423925775511
 22
57965.395516209428
 32
-146079.71196204115
 13
-25816.474766993459
 23
57577.658092809361
 33
-134990.05411973404
  0
3DFACE
  5
595
100
AcDbEntity
  8
0
 62
     7
100
AcDbFace
 10
-35108.437749822093
 20
57577.658092809361
 30
-134990.05411973404
 11
-35108.437749822093
 21
57965.395516209428
 31
-146079.71196204115
 12
-33781.386908604145
 22
57577.658092809361
 32
-134990.05411973404
 13
-35108.437749822093
 23
57577.658092809361
 33
-134990.05411973404
  0
3DFACE
  5
59B
100
AcDbEntity
  8
0
 62
     7
100
AcDbFace
 10
-33781.386908604145
 20
57577.658092809361
 30
-134990.05411973404
 11
-31126.632830077146
 21
57577.658092809361
 31
-134990.05411973404
 12
-32454.33855744762
 22
57189.920669409286
 32
-123899.75882170428
 13
-33781.386908604145
 23
57577.658092809361
 33
-134990.05411973404
  0
3DFACE
  5
5A1
100
AcDbEntity
  8
0
 62
     7
100
AcDbFace
 10
-33781.386908604145
 20
55254.500512987295
 30
-68449.552262877944
 11
-35108.437749822093
 21
55642.23793638737
 31
-79539.852541030516
 12
-32454.33855744762
 22
55642.23793638737
 32
-79539.852541030516
 13
-33781.386908604145
 23
55254.500512987295
 33
-68449.552262877944
  0
3DFACE
  5
5A7
100
AcDbEntity
  8
0
 62
     7
100
AcDbFace
 10
-33781.386908604145
 20
55254.500512987295
 30
-68449.552262877944
 11
-28471.881241611565
 21
55254.500512987295
 31
-68449.552262877944
 12
-35108.437749822093
 22
54866.768069710059
 32
-57359.904380816472
 13
-33781.386908604145
 23
55254.500512987295
 33
-68449.552262877944
  0
3DFACE
  5
5AD
100
AcDbEntity
  8
0
 62
     7
100
AcDbFace
 10
-24489.423925775511
 20
55254.500512987295
 30
-68449.552262877944
 11
-24489.423925775511
 21
54866.768069710059
 31
-57359.904380816472
 12
-25816.474766993459
 22
55254.500512987295
 32
-68449.552262877944
 13
-24489.423925775511
 23
55254.500512987295
 33
-68449.552262877944
  0
3DFACE
  5
5B3
100
AcDbEntity
  8
0
 62
     7
100
AcDbFace
 10
-25816.474766993459
 20
55254.500512987295
 30
-68449.552262877944
 11
-28471.881241611565
 21
55254.500512987295
 31
-68449.552262877944
 12
-27144.17800430251
 22
55642.23793638737
 32
-79539.852541030516
 13
-25816.474766993459
 23
55254.500512987295
 33
-68449.552262877944
  0
3DFACE
  5
5B9
100
AcDbEntity
  8
0
 62
     7
100
AcDbFace
 10
-25816.474766993459
 20
56029.322963696337
 30
-90629.510383337649
 11
-24489.423925775511
 21
55642.23793638737
 31
-79539.852541030516
 12
-27144.17800430251
 22
55642.23793638737
 32
-79539.852541030516
 13
-25816.474766993459
 23
56029.322963696337
 33
-90629.510383337649
  0
3DFACE
  5
5BF
100
AcDbEntity
  8
0
 62
     7
100
AcDbFace
 10
-25816.474766993459
 20
56029.322963696337
 30
-90629.510383337649
 11
-28471.881241611565
 21
56029.322963696337
 31
-90629.510383337649
 12
-24489.423925775511
 22
56415.75559491419
 32
-101719.8056813674
 13
-25816.474766993459
 23
56029.322963696337
 33
-90629.510383337649
  0
3DFACE
  5
5C5
100
AcDbEntity
  8
0
 62
     7
100
AcDbFace
 10
-31126.632830077146
 20
56029.322963696337
 30
-90629.510383337649
 11
-28471.881241611565
 21
56029.322963696337
 31
-90629.510383337649
 12
-32454.33855744762
 22
55642.23793638737
 32
-79539.852541030516
 13
-31126.632830077146
 23
56029.322963696337
 33
-90629.510383337649
  0
3DFACE
  5
5CB
100
AcDbEntity
  8
0
 62
     7
100
AcDbFace
 10
-31126.632830077146
 20
56029.322963696337
 30
-90629.510383337649
 11
-35108.437749822093
 21
56415.75559491419
 31
-101719.8056813674
 12
-29799.584478920617
 22
56415.75559491419
 32
-101719.8056813674
 13
-31126.632830077146
 23
56029.322963696337
 33
-90629.510383337649
  0
3DFACE
  5
5D1
100
AcDbEntity
  8
0
 62
     7
100
AcDbFace
 10
-33781.386908604145
 20
56029.322963696337
 30
-90629.510383337649
 11
-31126.632830077146
 21
56029.322963696337
 31
-90629.510383337649
 12
-32454.33855744762
 22
55642.23793638737
 32
-79539.852541030516
 13
-33781.386908604145
 23
56029.322963696337
 33
-90629.510383337649
  0
3DFACE
  5
5D7
100
AcDbEntity
  8
0
 62
     7
100
AcDbFace
 10
-35108.437749822093
 20
56029.322963696337
 30
-90629.510383337649
 11
-35108.437749822093
 21
56415.75559491419
 31
-101719.8056813674
 12
-33781.386908604145
 22
56029.322963696337
 32
-90629.510383337649
 13
-35108.437749822093
 23
56029.322963696337
 33
-90629.510383337649
  0
3DFACE
  5
5DD
100
AcDbEntity
  8
0
 62
     7
100
AcDbFace
 10
-33781.386908604145
 20
56802.835642100319
 30
-112809.46352367454
 11
-35108.437749822093
 21
57189.920669409286
 31
-123899.75882170428
 12
-32454.33855744762
 22
57189.920669409286
 32
-123899.75882170428
 13
-33781.386908604145
 23
56802.835642100319
 33
-112809.46352367454
  0
3DFACE
  5
5E3
100
AcDbEntity
  8
0
 62
     7
100
AcDbFace
 10
-33781.386908604145
 20
56802.835642100319
 30
-112809.46352367454
 11
-29799.584478920617
 21
56415.75559491419
 31
-101719.8056813674
 12
-35108.437749822093
 22
56415.75559491419
 32
-101719.8056813674
 13
-33781.386908604145
 23
56802.835642100319
 33
-112809.46352367454
  0
3DFACE
  5
5E9
100
AcDbEntity
  8
0
 62
     7
100
AcDbFace
 10
-31126.632830077146
 20
56802.835642100319
 30
-112809.46352367454
 11
-28471.881241611565
 21
56802.835642100319
 31
-112809.46352367454
 12
-29799.584478920617
 22
56415.75559491419
 32
-101719.8056813674
 13
-31126.632830077146
 23
56802.835642100319
 33
-112809.46352367454
  0
3DFACE
  5
5EF
100
AcDbEntity
  8
0
 62
     7
100
AcDbFace
 10
-31126.632830077146
 20
56802.835642100319
 30
-112809.46352367454
 11
-33781.386908604145
 21
56802.835642100319
 31
-112809.46352367454
 12
-32454.33855744762
 22
57189.920669409286
 32
-123899.75882170428
 13
-31126.632830077146
 23
56802.835642100319
 33
-112809.46352367454
  0
3DFACE
  5
5F5
100
AcDbEntity
  8
0
 62
     7
100
AcDbFace
 10
-25816.474766993459
 20
56802.835642100319
 30
-112809.46352367454
 11
-28471.881241611565
 21
56802.835642100319
 31
-112809.46352367454
 12
-27144.17800430251
 22
57189.920669409286
 32
-123899.75882170428
 13
-25816.474766993459
 23
56802.835642100319
 33
-112809.46352367454
  0
3DFACE
  5
5FB
100
AcDbEntity
  8
0
 62
     7
100
AcDbFace
 10
-24489.423925775511
 20
56802.835642100319
 30
-112809.46352367454
 11
-24489.423925775511
 21
56415.75559491419
 31
-101719.8056813674
 12
-25816.474766993459
 22
56802.835642100319
 32
-112809.46352367454
 13
-24489.423925775511
 23
56802.835642100319
 33
-112809.46352367454
  0
3DFACE
  5
601
100
AcDbEntity
  8
0
 62
     7
100
AcDbFace
 10
-29799.584478920617
 20
3538.0560747720415
 30
-114669.80832839075
 11
-29799.584478920617
 21
3150.9726037514624
 31
-103580.16044632929
 12
-29135.731615235381
 22
3547.847618776851
 32
-114669.80832839075
 13
-29799.584478920617
 23
3538.0560747720415
 33
-114669.80832839075
  0
3DFACE
  5
607
100
AcDbEntity
  8
0
 62
     7
100
AcDbFace
 10
-27807.375981835223
 20
3565.4719622247608
 30
-114669.16091242248
 11
-28471.228845520458
 21
3944.0696151957773
 31
-125760.11358666616
 12
-29135.731615235381
 22
3547.847618776851
 32
-114669.80832839075
 13
-27807.375981835223
 23
3565.4719622247608
 33
-114669.16091242248
  0
3DFACE
  5
60D
100
AcDbEntity
  8
0
 62
     7
100
AcDbFace
 10
-34445.23977228938
 20
2827.8591217769922
 30
-92487.893019657713
 11
-32454.33855744762
 21
3187.5270166025289
 31
-103578.8456939014
 12
-35108.437749822093
 22
3224.7338255447039
 32
-103577.55086196485
 13
-34445.23977228938
 23
2827.8591217769922
 33
-92487.893019657713
  0
3DFACE
  5
613
100
AcDbEntity
  8
0
 62
     7
100
AcDbFace
 10
-34445.23977228938
 20
2827.8591217769922
 30
-92487.893019657713
 11
-35108.437749822093
 21
2450.5668835035463
 31
-81397.597721627972
 12
-33781.386908604145
 22
2431.6369697292275
 32
-81397.597721627972
 13
-34445.23977228938
 23
2827.8591217769922
 33
-92487.893019657713
  0
3DFACE
  5
619
100
AcDbEntity
  8
0
 62
     7
100
AcDbFace
 10
-30463.434852544437
 20
3547.847618776851
 30
-114669.80832839075
 11
-32454.33855744762
 21
3187.5270166025289
 31
-103578.8456939014
 12
-29799.584478920617
 22
3150.9726037514624
 32
-103580.16044632929
 13
-30463.434852544437
 23
3547.847618776851
 33
-114669.80832839075
  0
3DFACE
  5
61F
100
AcDbEntity
  8
0
 62
     7
100
AcDbFace
 10
-30463.434852544437
 20
3547.847618776851
 30
-114669.80832839075
 11
-29799.584478920617
 21
3925.1398570502975
 31
-125760.11358666616
 12
-31126.632830077146
 22
3944.0696151957773
 32
-125760.11358666616
 13
-30463.434852544437
 23
3547.847618776851
 33
-114669.80832839075
  0
3DFACE
  5
625
100
AcDbEntity
  8
0
 62
     7
100
AcDbFace
 10
-25153.276789460746
 20
4377.498731814555
 30
-136847.79930033148
 11
-27808.02837792633
 21
4340.2916116147035
 31
-136849.11405275937
 12
-25816.474766993459
 22
3980.6240280468442
 32
-125757.50400230174
 13
-25153.276789460746
 23
4377.498731814555
 33
-136847.79930033148
  0
3DFACE
  5
62B
100
AcDbEntity
  8
0
 62
     7
100
AcDbFace
 10
-24489.423925775511
 20
4387.2899645616881
 30
-136847.79930033148
 11
-24489.423925775511
 21
4774.3734355822662
 31
-147938.09459836123
 12
-25153.276789460746
 22
4377.498731814555
 32
-136847.79930033148
 13
-24489.423925775511
 23
4387.2899645616881
 33
-136847.79930033148
  0
3DFACE
  5
631
100
AcDbEntity
  8
0
 62
     7
100
AcDbFace
 10
-24489.423925775511
 20
2837.6503545241249
 30
-92487.893019657713
 11
-24489.423925775511
 21
3224.7338255447039
 31
-103577.55086196485
 12
-25153.276789460746
 22
2827.8591217769922
 32
-92487.893019657713
 13
-24489.423925775511
 23
2837.6503545241249
 33
-92487.893019657713
  0
3DFACE
  5
637
100
AcDbEntity
  8
0
 62
     7
100
AcDbFace
 10
-26480.327630678694
 20
2809.5820709802974
 30
-92487.893019657713
 11
-25816.474766993459
 21
2431.6369697292275
 31
-81397.597721627972
 12
-25153.276789460746
 22
2827.8591217769922
 32
-92487.893019657713
 13
-26480.327630678694
 23
2809.5820709802974
 33
-92487.893019657713
  0
3DFACE
  5
63D
100
AcDbEntity
  8
0
 62
     7
100
AcDbFace
 10
-34445.23977228938
 20
4377.498731814555
 30
-136847.79930033148
 11
-31790.485693762381
 21
4340.2916116147035
 31
-136849.11405275937
 12
-35108.437749822093
 22
4774.3734355822662
 32
-147938.09459836123
 13
-34445.23977228938
 23
4377.498731814555
 33
-136847.79930033148
  0
3DFACE
  5
643
100
AcDbEntity
  8
0
 62
     7
100
AcDbFace
 10
-34445.23977228938
 20
4377.498731814555
 30
-136847.79930033148
 11
-35108.437749822093
 21
4000.206493541109
 31
-125757.50400230174
 12
-33781.386908604145
 22
3980.6240280468442
 32
-125757.50400230174
 13
-34445.23977228938
 23
4377.498731814555
 33
-136847.79930033148
  0
3DFACE
  5
649
100
AcDbEntity
  8
0
 62
     7
100
AcDbFace
 10
-29135.731615235381
 20
2773.027658129231
 30
-92489.207772085603
 11
-28471.228845520458
 21
2395.0827125069995
 31
-81398.902513810186
 12
-27807.375981835223
 22
2791.3048645547642
 32
-92488.550395871658
 13
-29135.731615235381
 23
2773.027658129231
 33
-92489.207772085603
  0
3DFACE
  5
64F
100
AcDbEntity
  8
0
 62
     7
100
AcDbFace
 10
-26480.327630678694
 20
2809.5820709802974
 30
-92487.893019657713
 11
-27144.17800430251
 21
3187.5270166025289
 31
-103578.8456939014
 12
-27807.375981835223
 22
2791.3048645547642
 32
-92488.550395871658
 13
-26480.327630678694
 23
2809.5820709802974
 33
-92487.893019657713
  0
3DFACE
  5
655
100
AcDbEntity
  8
0
 62
     7
100
AcDbFace
 10
-31790.485693762381
 20
2791.3048645547642
 30
-92488.550395871658
 11
-29799.584478920617
 21
3150.9726037514624
 31
-103580.16044632929
 12
-32454.33855744762
 22
3187.5270166025289
 32
-103578.8456939014
 13
-31790.485693762381
 23
2791.3048645547642
 33
-92488.550395871658
  0
3DFACE
  5
65B
100
AcDbEntity
  8
0
 62
     7
100
AcDbFace
 10
-31790.485693762381
 20
2791.3048645547642
 30
-92488.550395871658
 11
-33781.386908604145
 21
2431.6369697292275
 31
-81397.597721627972
 12
-31126.632830077146
 22
2395.0827125069995
 32
-81398.902513810186
 13
-31790.485693762381
 23
2791.3048645547642
 33
-92488.550395871658
  0
3DFACE
  5
661
100
AcDbEntity
  8
0
 62
     7
100
AcDbFace
 10
-29135.731615235381
 20
2773.027658129231
 30
-92489.207772085603
 11
-27807.375981835223
 21
2791.3048645547642
 31
-92488.550395871658
 12
-29799.584478920617
 22
3150.9726037514624
 32
-103580.16044632929
 13
-29135.731615235381
 23
2773.027658129231
 33
-92489.207772085603
  0
3DFACE
  5
667
100
AcDbEntity
  8
0
 62
     7
100
AcDbFace
 10
-29135.731615235381
 20
2773.027658129231
 30
-92489.207772085603
 11
-29799.584478920617
 21
2375.5000913838958
 31
-81399.554909901301
 12
-28471.228845520458
 22
2395.0827125069995
 32
-81398.902513810186
 13
-29135.731615235381
 23
2773.027658129231
 33
-92489.207772085603
  0
3DFACE
  5
66D
100
AcDbEntity
  8
0
 62
     7
100
AcDbFace
 10
-31790.485693762381
 20
3565.4719622247608
 30
-114669.16091242248
 11
-30463.434852544437
 21
3547.847618776851
 31
-114669.80832839075
 12
-31126.632830077146
 22
3944.0696151957773
 32
-125760.11358666616
 13
-31790.485693762381
 23
3565.4719622247608
 33
-114669.16091242248
  0
3DFACE
  5
673
100
AcDbEntity
  8
0
 62
     7
100
AcDbFace
 10
-33117.536534980325
 20
3583.7490130214555
 30
-114668.50353620853
 11
-32454.33855744762
 21
3187.5270166025289
 31
-103578.8456939014
 12
-31790.485693762381
 22
3565.4719622247608
 32
-114669.16091242248
 13
-33117.536534980325
 23
3583.7490130214555
 33
-114668.50353620853
  0
3DFACE
  5
679
100
AcDbEntity
  8
0
 62
     7
100
AcDbFace
 10
-27807.375981835223
 20
3565.4719622247608
 30
-114669.16091242248
 11
-25816.474766993459
 21
3980.6240280468442
 31
-125757.50400230174
 12
-28471.228845520458
 22
3944.0696151957773
 32
-125760.11358666616
 13
-27807.375981835223
 23
3565.4719622247608
 33
-114669.16091242248
  0
3DFACE
  5
67F
100
AcDbEntity
  8
0
 62
     7
100
AcDbFace
 10
-27807.375981835223
 20
3565.4719622247608
 30
-114669.16091242248
 11
-29135.731615235381
 21
3547.847618776851
 31
-114669.80832839075
 12
-27144.17800430251
 22
3187.5270166025289
 32
-103578.8456939014
 13
-27807.375981835223
 23
3565.4719622247608
 33
-114669.16091242248
  0
3DFACE
  5
685
100
AcDbEntity
  8
0
 62
     7
100
AcDbFace
 10
-33117.536534980325
 20
2809.5820709802974
 30
-92487.893019657713
 11
-34445.23977228938
 21
2827.8591217769922
 31
-92487.893019657713
 12
-33781.386908604145
 22
2431.6369697292275
 32
-81397.597721627972
 13
-33117.536534980325
 23
2809.5820709802974
 33
-92487.893019657713
  0
3DFACE
  5
68B
100
AcDbEntity
  8
0
 62
     7
100
AcDbFace
 10
-33117.536534980325
 20
2809.5820709802974
 30
-92487.893019657713
 11
-31790.485693762381
 21
2791.3048645547642
 31
-92488.550395871658
 12
-32454.33855744762
 22
3187.5270166025289
 32
-103578.8456939014
 13
-33117.536534980325
 23
2809.5820709802974
 33
-92487.893019657713
  0
3DFACE
  5
691
100
AcDbEntity
  8
0
 62
     7
100
AcDbFace
 10
-26480.327630678694
 20
2809.5820709802974
 30
-92487.893019657713
 11
-27807.375981835223
 21
2791.3048645547642
 31
-92488.550395871658
 12
-25816.474766993459
 22
2431.6369697292275
 32
-81397.597721627972
 13
-26480.327630678694
 23
2809.5820709802974
 33
-92487.893019657713
  0
3DFACE
  5
697
100
AcDbEntity
  8
0
 62
     7
100
AcDbFace
 10
-26480.327630678694
 20
2809.5820709802974
 30
-92487.893019657713
 11
-25153.276789460746
 21
2827.8591217769922
 31
-92487.893019657713
 12
-27144.17800430251
 22
3187.5270166025289
 32
-103578.8456939014
 13
-26480.327630678694
 23
2809.5820709802974
 33
-92487.893019657713
  0
3DFACE
  5
69D
100
AcDbEntity
  8
0
 62
     7
100
AcDbFace
 10
-29799.584478920617
 20
2763.2364253820983
 30
-92489.855188053873
 11
-29799.584478920617
 21
3150.9726037514624
 31
-103580.16044632929
 12
-30463.434852544437
 22
2773.027658129231
 32
-92489.207772085603
 13
-29799.584478920617
 23
2763.2364253820983
 33
-92489.855188053873
  0
3DFACE
  5
6A3
100
AcDbEntity
  8
0
 62
     7
100
AcDbFace
 10
-30463.434852544437
 20
2773.027658129231
 30
-92489.207772085603
 11
-31790.485693762381
 21
2791.3048645547642
 31
-92488.550395871658
 12
-31126.632830077146
 22
2395.0827125069995
 32
-81398.902513810186
 13
-30463.434852544437
 23
2773.027658129231
 33
-92489.207772085603
  0
3DFACE
  5
6A9
100
AcDbEntity
  8
0
 62
     7
100
AcDbFace
 10
-29135.731615235381
 20
1998.2078531104494
 30
-70309.254631748714
 11
-26480.327630678694
 21
2035.4148176814629
 31
-70307.944859443669
 12
-28471.228845520458
 22
2395.0827125069995
 32
-81398.902513810186
 13
-29135.731615235381
 23
1998.2078531104494
 33
-70309.254631748714
  0
3DFACE
  5
6AF
100
AcDbEntity
  8
0
 62
     7
100
AcDbFace
 10
-29799.584478920617
 20
1988.4164647344783
 30
-70309.902047716983
 11
-29799.584478920617
 21
1601.9857788771037
 31
-59219.601769564411
 12
-29135.731615235381
 22
1998.2078531104494
 32
-70309.254631748714
 13
-29799.584478920617
 23
1988.4164647344783
 33
-70309.902047716983
  0
3DFACE
  5
6B5
100
AcDbEntity
  8
0
 62
     7
100
AcDbFace
 10
-25153.276789460746
 20
3602.6787711669353
 30
-114667.8461599946
 11
-25816.474766993459
 21
3980.6240280468442
 31
-125757.50400230174
 12
-26480.327630678694
 22
3583.7490130214555
 32
-114668.50353620853
 13
-25153.276789460746
 23
3602.6787711669353
 33
-114667.8461599946
  0
3DFACE
  5
6BB
100
AcDbEntity
  8
0
 62
     7
100
AcDbFace
 10
-26480.327630678694
 20
3583.7490130214555
 30
-114668.50353620853
 11
-27807.375981835223
 21
3565.4719622247608
 31
-114669.16091242248
 12
-27144.17800430251
 22
3187.5270166025289
 32
-103578.8456939014
 13
-26480.327630678694
 23
3583.7490130214555
 33
-114668.50353620853
  0
3DFACE
  5
6C1
100
AcDbEntity
  8
0
 62
     7
100
AcDbFace
 10
-33117.536534980325
 20
3583.7490130214555
 30
-114668.50353620853
 11
-35108.437749822093
 21
3224.7338255447039
 31
-103577.55086196485
 12
-32454.33855744762
 22
3187.5270166025289
 32
-103578.8456939014
 13
-33117.536534980325
 23
3583.7490130214555
 33
-114668.50353620853
  0
3DFACE
  5
6C7
100
AcDbEntity
  8
0
 62
     7
100
AcDbFace
 10
-33117.536534980325
 20
3583.7490130214555
 30
-114668.50353620853
 11
-31790.485693762381
 21
3565.4719622247608
 31
-114669.16091242248
 12
-33781.386908604145
 22
3980.6240280468442
 32
-125757.50400230174
 13
-33117.536534980325
 23
3583.7490130214555
 33
-114668.50353620853
  0
3DFACE
  5
6CD
100
AcDbEntity
  8
0
 62
     7
100
AcDbFace
 10
-30463.434852544437
 20
1998.2078531104494
 30
-70309.254631748714
 11
-33117.536534980325
 21
2035.4148176814629
 31
-70307.944859443669
 12
-29799.584478920617
 22
1601.9857788771037
 32
-59219.601769564411
 13
-30463.434852544437
 23
1998.2078531104494
 33
-70309.254631748714
  0
3DFACE
  5
6D3
100
AcDbEntity
  8
0
 62
     7
100
AcDbFace
 10
-30463.434852544437
 20
1998.2078531104494
 30
-70309.254631748714
 11
-29799.584478920617
 21
2375.5000913838958
 31
-81399.554909901301
 12
-31126.632830077146
 22
2395.0827125069995
 32
-81398.902513810186
 13
-30463.434852544437
 23
1998.2078531104494
 33
-70309.254631748714
  0
3DFACE
  5
6D9
100
AcDbEntity
  8
0
 62
     7
100
AcDbFace
 10
-29135.731615235381
 20
4322.0145608180082
 30
-136849.76146872764
 11
-27808.02837792633
 21
4340.2916116147035
 31
-136849.11405275937
 12
-29799.584478920617
 22
4699.9595064402401
 32
-147940.06672700305
 13
-29135.731615235381
 23
4322.0145608180082
 33
-136849.76146872764
  0
3DFACE
  5
6DF
100
AcDbEntity
  8
0
 62
     7
100
AcDbFace
 10
-29135.731615235381
 20
4322.0145608180082
 30
-136849.76146872764
 11
-29799.584478920617
 21
3925.1398570502975
 31
-125760.11358666616
 12
-28471.228845520458
 22
3944.0696151957773
 32
-125760.11358666616
 13
-29135.731615235381
 23
4322.0145608180082
 33
-136849.76146872764
  0
3DFACE
  5
6E5
100
AcDbEntity
  8
0
 62
     7
100
AcDbFace
 10
-25153.276789460746
 20
3602.6787711669353
 30
-114667.8461599946
 11
-26480.327630678694
 21
3583.7490130214555
 31
-114668.50353620853
 12
-24489.423925775511
 22
3224.7338255447039
 32
-103577.55086196485
 13
-25153.276789460746
 23
3602.6787711669353
 33
-114667.8461599946
  0
3DFACE
  5
6EB
100
AcDbEntity
  8
0
 62
     7
100
AcDbFace
 10
-25153.276789460746
 20
3602.6787711669353
 30
-114667.8461599946
 11
-24489.423925775511
 21
4000.206493541109
 31
-125757.50400230174
 12
-25816.474766993459
 22
3980.6240280468442
 32
-125757.50400230174
 13
-25153.276789460746
 23
3602.6787711669353
 33
-114667.8461599946
  0
3DFACE
  5
6F1
100
AcDbEntity
  8
0
 62
     7
100
AcDbFace
 10
-35108.437749822093
 20
3612.4703151717449
 30
-114667.8461599946
 11
-35108.437749822093
 21
3224.7338255447039
 31
-103577.55086196485
 12
-34445.23977228938
 22
3602.6787711669353
 32
-114667.8461599946
 13
-35108.437749822093
 23
3612.4703151717449
 33
-114667.8461599946
  0
3DFACE
  5
6F7
100
AcDbEntity
  8
0
 62
     7
100
AcDbFace
 10
-34445.23977228938
 20
3602.6787711669353
 30
-114667.8461599946
 11
-33117.536534980325
 21
3583.7490130214555
 31
-114668.50353620853
 12
-33781.386908604145
 22
3980.6240280468442
 32
-125757.50400230174
 13
-34445.23977228938
 23
3602.6787711669353
 33
-114667.8461599946
  0
3DFACE
  5
6FD
100
AcDbEntity
  8
0
 62
     7
100
AcDbFace
 10
-34445.23977228938
 20
2053.6920241069961
 30
-70307.292463352554
 11
-33117.536534980325
 21
2035.4148176814629
 31
-70307.944859443669
 12
-33781.386908604145
 22
2431.6369697292275
 32
-81397.597721627972
 13
-34445.23977228938
 23
2053.6920241069961
 33
-70307.292463352554
  0
3DFACE
  5
703
100
AcDbEntity
  8
0
 62
     7
100
AcDbFace
 10
-35108.437749822093
 20
2063.4834124829672
 30
-70307.292463352554
 11
-35108.437749822093
 21
1675.7470784847646
 31
-59217.64458129109
 12
-34445.23977228938
 22
2053.6920241069961
 32
-70307.292463352554
 13
-35108.437749822093
 23
2063.4834124829672
 33
-70307.292463352554
  0
3DFACE
  5
709
100
AcDbEntity
  8
0
 62
     7
100
AcDbFace
 10
-25153.276789460746
 20
2053.6920241069961
 30
-70307.292463352554
 11
-26480.327630678694
 21
2035.4148176814629
 31
-70307.944859443669
 12
-24489.423925775511
 22
1675.7470784847646
 32
-59217.64458129109
 13
-25153.276789460746
 23
2053.6920241069961
 33
-70307.292463352554
  0
3DFACE
  5
70F
100
AcDbEntity
  8
0
 62
     7
100
AcDbFace
 10
-25153.276789460746
 20
2053.6920241069961
 30
-70307.292463352554
 11
-24489.423925775511
 21
2450.5668835035463
 31
-81397.597721627972
 12
-25816.474766993459
 22
2431.6369697292275
 32
-81397.597721627972
 13
-25153.276789460746
 23
2053.6920241069961
 33
-70307.292463352554
  0
3DFACE
  5
715
100
AcDbEntity
  8
0
 62
     7
100
AcDbFace
 10
-30463.434852544437
 20
4322.0145608180082
 30
-136849.76146872764
 11
-31790.485693762381
 21
4340.2916116147035
 31
-136849.11405275937
 12
-31126.632830077146
 22
3944.0696151957773
 32
-125760.11358666616
 13
-30463.434852544437
 23
4322.0145608180082
 33
-136849.76146872764
  0
3DFACE
  5
71B
100
AcDbEntity
  8
0
 62
     7
100
AcDbFace
 10
-29799.584478920617
 20
4312.2233280708761
 30
-136849.76146872764
 11
-29799.584478920617
 21
4699.9595064402401
 31
-147940.06672700305
 12
-30463.434852544437
 22
4322.0145608180082
 32
-136849.76146872764
 13
-29799.584478920617
 23
4312.2233280708761
 33
-136849.76146872764
  0
3DFACE
  5
721
100
AcDbEntity
  8
0
 62
     7
100
AcDbFace
 10
-35108.437749822093
 20
30981.822566367446
 30
-135918.92671003274
 11
-35108.437749822093
 21
24333.51545833272
 31
-136151.31916190658
 12
-35108.437749822093
 22
31368.90510361499
 32
-147009.24192855382
 13
-35108.437749822093
 23
30981.822566367446
 33
-135918.92671003274
  0
3DFACE
  5
727
100
AcDbEntity
  8
0
 62
     7
100
AcDbFace
 10
-35108.437749822093
 20
30981.822566367446
 30
-135918.92671003274
 11
-35108.437749822093
 21
37630.782070493282
 31
-135686.55417865026
 12
-35108.437749822093
 22
30594.737539058478
 32
-124827.97403578907
 13
-35108.437749822093
 23
30981.822566367446
 33
-135918.92671003274
  0
3DFACE
  5
72D
100
AcDbEntity
  8
0
 62
     7
100
AcDbFace
 10
-24489.423925775511
 20
30981.822566367446
 30
-135918.92671003274
 11
-24489.423925775511
 21
37630.782070493282
 31
-135686.55417865026
 12
-24489.423925775511
 22
31368.90510361499
 32
-147009.24192855382
 13
-24489.423925775511
 23
30981.822566367446
 33
-135918.92671003274
  0
3DFACE
  5
733
100
AcDbEntity
  8
0
 62
     7
100
AcDbFace
 10
-24489.423925775511
 20
30981.822566367446
 30
-135918.92671003274
 11
-24489.423925775511
 21
24333.51545833272
 31
-136151.31916190658
 12
-24489.423925775511
 22
30594.737539058478
 32
-124827.97403578907
 13
-24489.423925775511
 23
30981.822566367446
 33
-135918.92671003274
  0
3DFACE
  5
739
100
AcDbEntity
  8
0
 62
     7
100
AcDbFace
 10
-35108.437749822093
 20
44279.739084557696
 30
-135454.17168702208
 11
-35108.437749822093
 21
50928.696098622109
 31
-135221.78919539391
 12
-35108.437749822093
 22
43892.654057248728
 32
-124363.86642874667
 13
-35108.437749822093
 23
44279.739084557696
 33
-135454.17168702208
  0
3DFACE
  5
73F
100
AcDbEntity
  8
0
 62
     7
100
AcDbFace
 10
-35108.437749822093
 20
44279.739084557696
 30
-135454.17168702208
 11
-35108.437749822093
 21
37630.782070493282
 31
-135686.55417865026
 12
-35108.437749822093
 22
44667.47650795777
 32
-146544.4769452975
 13
-35108.437749822093
 23
44279.739084557696
 33
-135454.17168702208
  0
3DFACE
  5
745
100
AcDbEntity
  8
0
 62
     7
100
AcDbFace
 10
-24489.423925775511
 20
44279.739084557696
 30
-135454.17168702208
 11
-24489.423925775511
 21
37630.782070493282
 31
-135686.55417865026
 12
-24489.423925775511
 22
43892.654057248728
 32
-124363.86642874667
 13
-24489.423925775511
 23
44279.739084557696
 33
-135454.17168702208
  0
3DFACE
  5
74B
100
AcDbEntity
  8
0
 62
     7
100
AcDbFace
 10
-24489.423925775511
 20
44279.739084557696
 30
-135454.17168702208
 11
-24489.423925775511
 21
50928.696098622109
 31
-135221.78919539391
 12
-24489.423925775511
 22
44667.47650795777
 32
-146544.4769452975
 13
-24489.423925775511
 23
44279.739084557696
 33
-135454.17168702208
  0
3DFACE
  5
751
100
AcDbEntity
  8
0
 62
     7
100
AcDbFace
 10
-35108.437749822093
 20
16910.389634681083
 30
-114203.08117673827
 11
-35108.437749822093
 21
10261.429508039899
 31
-114435.47362861209
 12
-35108.437749822093
 22
17297.473416959339
 32
-125293.39639525933
 13
-35108.437749822093
 23
16910.389634681083
 33
-114203.08117673827
  0
3DFACE
  5
757
100
AcDbEntity
  8
0
 62
     7
100
AcDbFace
 10
-35108.437749822093
 20
16910.389634681083
 30
-114203.08117673827
 11
-35108.437749822093
 21
23559.347893776208
 31
-113970.70864535576
 12
-35108.437749822093
 22
16522.65345631172
 32
-103112.78587870851
 13
-35108.437749822093
 23
16910.389634681083
 33
-114203.08117673827
  0
3DFACE
  5
75D
100
AcDbEntity
  8
0
 62
     7
100
AcDbFace
 10
-24489.423925775511
 20
16910.389634681083
 30
-114203.08117673827
 11
-24489.423925775511
 21
23559.347893776208
 31
-113970.70864535576
 12
-24489.423925775511
 22
17297.473416959339
 32
-125293.39639525933
 13
-24489.423925775511
 23
16910.389634681083
 33
-114203.08117673827
  0
3DFACE
  5
763
100
AcDbEntity
  8
0
 62
     7
100
AcDbFace
 10
-24489.423925775511
 20
16910.389634681083
 30
-114203.08117673827
 11
-24489.423925775511
 21
10261.429508039899
 31
-114435.47362861209
 12
-24489.423925775511
 22
16522.65345631172
 32
-103112.78587870851
 13
-24489.423925775511
 23
16910.389634681083
 33
-114203.08117673827
  0
3DFACE
  5
769
100
AcDbEntity
  8
0
 62
     7
100
AcDbFace
 10
-35108.437749822093
 20
16135.569674033464
 30
-92022.480620433111
 11
-35108.437749822093
 21
22784.527933128589
 31
-91790.098128804937
 12
-35108.437749822093
 22
15748.485891755208
 32
-80932.185322403355
 13
-35108.437749822093
 23
16135.569674033464
 33
-92022.480620433111
  0
3DFACE
  5
76F
100
AcDbEntity
  8
0
 62
     7
100
AcDbFace
 10
-35108.437749822093
 20
16135.569674033464
 30
-92022.480620433111
 11
-35108.437749822093
 21
9486.6095473922796
 31
-92254.86311206127
 12
-35108.437749822093
 22
16522.65345631172
 32
-103112.78587870851
 13
-35108.437749822093
 23
16135.569674033464
 33
-92022.480620433111
  0
3DFACE
  5
775
100
AcDbEntity
  8
0
 62
     7
100
AcDbFace
 10
-24489.423925775511
 20
16135.569674033464
 30
-92022.480620433111
 11
-24489.423925775511
 21
9486.6095473922796
 31
-92254.86311206127
 12
-24489.423925775511
 22
15748.485891755208
 32
-80932.185322403355
 13
-24489.423925775511
 23
16135.569674033464
 33
-92022.480620433111
  0
3DFACE
  5
77B
100
AcDbEntity
  8
0
 62
     7
100
AcDbFace
 10
-24489.423925775511
 20
16135.569674033464
 30
-92022.480620433111
 11
-24489.423925775511
 21
22784.527933128589
 31
-91790.098128804937
 12
-24489.423925775511
 22
16522.65345631172
 32
-103112.78587870851
 13
-24489.423925775511
 23
16135.569674033464
 33
-92022.480620433111
  0
3DFACE
  5
781
100
AcDbEntity
  8
0
 62
     7
100
AcDbFace
 10
-35108.437749822093
 20
57577.658092809361
 30
-134990.05411973404
 11
-35108.437749822093
 21
50928.696098622109
 31
-135221.78919539391
 12
-35108.437749822093
 22
57965.395516209428
 32
-146079.71196204115
 13
-35108.437749822093
 23
57577.658092809361
 33
-134990.05411973404
  0
3DFACE
  5
787
100
AcDbEntity
  8
0
 62
     7
100
AcDbFace
 10
-35108.437749822093
 20
57577.658092809361
 30
-134990.05411973404
 11
-33781.386908604145
 21
57577.658092809361
 31
-134990.05411973404
 12
-35108.437749822093
 22
57189.920669409286
 32
-123899.75882170428
 13
-35108.437749822093
 23
57577.658092809361
 33
-134990.05411973404
  0
3DFACE
  5
78D
100
AcDbEntity
  8
0
 62
     7
100
AcDbFace
 10
-35108.437749822093
 20
3612.4703151717449
 30
-114667.8461599946
 11
-35108.437749822093
 21
10261.429508039899
 31
-114435.47362861209
 12
-35108.437749822093
 22
3224.7338255447039
 32
-103577.55086196485
 13
-35108.437749822093
 23
3612.4703151717449
 33
-114667.8461599946
  0
3DFACE
  5
793
100
AcDbEntity
  8
0
 62
     7
100
AcDbFace
 10
-35108.437749822093
 20
3612.4703151717449
 30
-114667.8461599946
 11
-34445.23977228938
 21
3602.6787711669353
 31
-114667.8461599946
 12
-35108.437749822093
 22
4000.206493541109
 32
-125757.50400230174
 13
-35108.437749822093
 23
3612.4703151717449
 33
-114667.8461599946
  0
3DFACE
  5
799
100
AcDbEntity
  8
0
 62
     7
100
AcDbFace
 10
-24489.423925775511
 20
57577.658092809361
 30
-134990.05411973404
 11
-24489.423925775511
 21
50928.696098622109
 31
-135221.78919539391
 12
-24489.423925775511
 22
57189.920669409286
 32
-123899.75882170428
 13
-24489.423925775511
 23
57577.658092809361
 33
-134990.05411973404
  0
3DFACE
  5
79F
100
AcDbEntity
  8
0
 62
     7
100
AcDbFace
 10
-24489.423925775511
 20
57577.658092809361
 30
-134990.05411973404
 11
-25816.474766993459
 21
57577.658092809361
 31
-134990.05411973404
 12
-24489.423925775511
 22
57965.395516209428
 32
-146079.71196204115
 13
-24489.423925775511
 23
57577.658092809361
 33
-134990.05411973404
  0
3DFACE
  5
7A5
100
AcDbEntity
  8
0
 62
     7
100
AcDbFace
 10
-24489.423925775511
 20
3612.4703151717449
 30
-114667.8461599946
 11
-24489.423925775511
 21
10261.429508039899
 31
-114435.47362861209
 12
-24489.423925775511
 22
4000.206493541109
 32
-125757.50400230174
 13
-24489.423925775511
 23
3612.4703151717449
 33
-114667.8461599946
  0
3DFACE
  5
7AB
100
AcDbEntity
  8
0
 62
     7
100
AcDbFace
 10
-24489.423925775511
 20
3612.4703151717449
 30
-114667.8461599946
 11
-25153.276789460746
 21
3602.6787711669353
 31
-114667.8461599946
 12
-24489.423925775511
 22
3224.7338255447039
 32
-103577.55086196485
 13
-24489.423925775511
 23
3612.4703151717449
 33
-114667.8461599946
  0
3DFACE
  5
7B1
100
AcDbEntity
  8
0
 62
     7
100
AcDbFace
 10
-35108.437749822093
 20
55254.500512987295
 30
-68449.552262877944
 11
-35108.437749822093
 21
48604.891102831774
 31
-68681.934754506103
 12
-35108.437749822093
 22
55642.23793638737
 32
-79539.852541030516
 13
-35108.437749822093
 23
55254.500512987295
 33
-68449.552262877944
  0
3DFACE
  5
7B7
100
AcDbEntity
  8
0
 62
     7
100
AcDbFace
 10
-35108.437749822093
 20
55254.500512987295
 30
-68449.552262877944
 11
-33781.386908604145
 21
55254.500512987295
 31
-68449.552262877944
 12
-35108.437749822093
 22
54866.768069710059
 32
-57359.904380816472
 13
-35108.437749822093
 23
55254.500512987295
 33
-68449.552262877944
  0
3DFACE
  5
7BD
100
AcDbEntity
  8
0
 62
     7
100
AcDbFace
 10
-35108.437749822093
 20
2063.4834124829672
 30
-70307.292463352554
 11
-35108.437749822093
 21
8711.7895867446587
 31
-70074.909971724395
 12
-35108.437749822093
 22
1675.7470784847646
 32
-59217.64458129109
 13
-35108.437749822093
 23
2063.4834124829672
 33
-70307.292463352554
  0
3DFACE
  5
7C3
100
AcDbEntity
  8
0
 62
     7
100
AcDbFace
 10
-35108.437749822093
 20
2063.4834124829672
 30
-70307.292463352554
 11
-34445.23977228938
 21
2053.6920241069961
 31
-70307.292463352554
 12
-35108.437749822093
 22
2450.5668835035463
 32
-81397.597721627972
 13
-35108.437749822093
 23
2063.4834124829672
 33
-70307.292463352554
  0
3DFACE
  5
7C9
100
AcDbEntity
  8
0
 62
     7
100
AcDbFace
 10
-24489.423925775511
 20
55254.500512987295
 30
-68449.552262877944
 11
-24489.423925775511
 21
48604.891102831774
 31
-68681.934754506103
 12
-24489.423925775511
 22
54866.768069710059
 32
-57359.904380816472
 13
-24489.423925775511
 23
55254.500512987295
 33
-68449.552262877944
  0
3DFACE
  5
7CF
100
AcDbEntity
  8
0
 62
     7
100
AcDbFace
 10
-24489.423925775511
 20
55254.500512987295
 30
-68449.552262877944
 11
-25816.474766993459
 21
55254.500512987295
 31
-68449.552262877944
 12
-24489.423925775511
 22
55642.23793638737
 32
-79539.852541030516
 13
-24489.423925775511
 23
55254.500512987295
 33
-68449.552262877944
  0
3DFACE
  5
7D5
100
AcDbEntity
  8
0
 62
     7
100
AcDbFace
 10
-24489.423925775511
 20
2063.4834124829672
 30
-70307.292463352554
 11
-24489.423925775511
 21
8711.7895867446587
 31
-70074.909971724395
 12
-24489.423925775511
 22
2450.5668835035463
 32
-81397.597721627972
 13
-24489.423925775511
 23
2063.4834124829672
 33
-70307.292463352554
  0
3DFACE
  5
7DB
100
AcDbEntity
  8
0
 62
     7
100
AcDbFace
 10
-24489.423925775511
 20
2063.4834124829672
 30
-70307.292463352554
 11
-25153.276789460746
 21
2053.6920241069961
 31
-70307.292463352554
 12
-24489.423925775511
 22
1675.7470784847646
 32
-59217.64458129109
 13
-24489.423925775511
 23
2063.4834124829672
 33
-70307.292463352554
  0
3DFACE
  5
7E1
100
AcDbEntity
  8
0
 62
     7
100
AcDbFace
 10
-29799.584478920617
 20
2763.2364253820983
 30
-92489.855188053873
 11
-30463.434852544437
 21
2773.027658129231
 31
-92489.207772085603
 12
-29799.584478920617
 22
2375.5000913838958
 32
-81399.554909901301
 13
-29799.584478920617
 23
2763.2364253820983
 33
-92489.855188053873
  0
3DFACE
  5
7E7
100
AcDbEntity
  8
0
 62
     7
100
AcDbFace
 10
-29799.584478920617
 20
2763.2364253820983
 30
-92489.855188053873
 11
-29135.731615235381
 21
2773.027658129231
 31
-92489.207772085603
 12
-29799.584478920617
 22
3150.9726037514624
 32
-103580.16044632929
 13
-29799.584478920617
 23
2763.2364253820983
 33
-92489.855188053873
  0
3DFACE
  5
7ED
100
AcDbEntity
  8
0
 62
     7
100
AcDbFace
 10
-35108.437749822093
 20
42730.751559353565
 30
-91093.617990380051
 11
-35108.437749822093
 21
49379.708573417978
 31
-90861.882914720161
 12
-35108.437749822093
 22
42343.671512167435
 32
-80003.965128195749
 13
-35108.437749822093
 23
42730.751559353565
 33
-91093.617990380051
  0
3DFACE
  5
7F3
100
AcDbEntity
  8
0
 62
     7
100
AcDbFace
 10
-35108.437749822093
 20
42730.751559353565
 30
-91093.617990380051
 11
-35108.437749822093
 21
36082.446941380258
 31
-91325.990521762549
 12
-35108.437749822093
 22
43118.488982753632
 32
-102183.91328840979
 13
-35108.437749822093
 23
42730.751559353565
 33
-91093.617990380051
  0
3DFACE
  5
7F9
100
AcDbEntity
  8
0
 62
     7
100
AcDbFace
 10
-24489.423925775511
 20
42730.751559353565
 30
-91093.617990380051
 11
-24489.423925775511
 21
36082.446941380258
 31
-91325.990521762549
 12
-24489.423925775511
 22
42343.671512167435
 32
-80003.965128195749
 13
-24489.423925775511
 23
42730.751559353565
 33
-91093.617990380051
  0
3DFACE
  5
7FF
100
AcDbEntity
  8
0
 62
     7
100
AcDbFace
 10
-24489.423925775511
 20
42730.751559353565
 30
-91093.617990380051
 11
-24489.423925775511
 21
49379.708573417978
 31
-90861.882914720161
 12
-24489.423925775511
 22
43118.488982753632
 32
-102183.91328840979
 13
-24489.423925775511
 23
42730.751559353565
 33
-91093.617990380051
  0
3DFACE
  5
805
100
AcDbEntity
  8
0
 62
     7
100
AcDbFace
 10
-35108.437749822093
 20
29433.487437254422
 30
-91558.373013390708
 11
-35108.437749822093
 21
36082.446941380258
 31
-91325.990521762549
 12
-35108.437749822093
 22
29045.752503915766
 32
-80468.072735238136
 13
-35108.437749822093
 23
29433.487437254422
 33
-91558.373013390708
  0
3DFACE
  5
80B
100
AcDbEntity
  8
0
 62
     7
100
AcDbFace
 10
-35108.437749822093
 20
29433.487437254422
 30
-91558.373013390708
 11
-35108.437749822093
 21
22784.527933128589
 31
-91790.098128804937
 12
-35108.437749822093
 22
29821.224860654493
 32
-102648.02089545218
 13
-35108.437749822093
 23
29433.487437254422
 33
-91558.373013390708
  0
3DFACE
  5
811
100
AcDbEntity
  8
0
 62
     7
100
AcDbFace
 10
-24489.423925775511
 20
29433.487437254422
 30
-91558.373013390708
 11
-24489.423925775511
 21
22784.527933128589
 31
-91790.098128804937
 12
-24489.423925775511
 22
29045.752503915766
 32
-80468.072735238136
 13
-24489.423925775511
 23
29433.487437254422
 33
-91558.373013390708
  0
3DFACE
  5
817
100
AcDbEntity
  8
0
 62
     7
100
AcDbFace
 10
-24489.423925775511
 20
29433.487437254422
 30
-91558.373013390708
 11
-24489.423925775511
 21
36082.446941380258
 31
-91325.990521762549
 12
-24489.423925775511
 22
29821.224860654493
 32
-102648.02089545218
 13
-24489.423925775511
 23
29433.487437254422
 33
-91558.373013390708
  0
3DFACE
  5
81D
100
AcDbEntity
  8
0
 62
     7
100
AcDbFace
 10
-29799.584478920617
 20
4312.2233280708761
 30
-136849.76146872764
 11
-30463.434852544437
 21
4322.0145608180082
 31
-136849.76146872764
 12
-29799.584478920617
 22
3925.1398570502975
 32
-125760.11358666616
 13
-29799.584478920617
 23
4312.2233280708761
 33
-136849.76146872764
  0
3DFACE
  5
823
100
AcDbEntity
  8
0
 62
     7
100
AcDbFace
 10
-29799.584478920617
 20
4312.2233280708761
 30
-136849.76146872764
 11
-29135.731615235381
 21
4322.0145608180082
 31
-136849.76146872764
 12
-29799.584478920617
 22
4699.9595064402401
 32
-147940.06672700305
 13
-29799.584478920617
 23
4312.2233280708761
 33
-136849.76146872764
  0
3DFACE
  5
829
100
AcDbEntity
  8
0
 62
     7
100
AcDbFace
 10
-35108.437749822093
 20
30208.307397902041
 30
-113738.3261537276
 11
-35108.437749822093
 21
36856.61450593677
 31
-113505.94366209942
 12
-35108.437749822093
 22
29821.224860654493
 32
-102648.02089545218
 13
-35108.437749822093
 23
30208.307397902041
 33
-113738.3261537276
  0
3DFACE
  5
82F
100
AcDbEntity
  8
0
 62
     7
100
AcDbFace
 10
-35108.437749822093
 20
30208.307397902041
 30
-113738.3261537276
 11
-35108.437749822093
 21
23559.347893776208
 31
-113970.70864535576
 12
-35108.437749822093
 22
30594.737539058478
 32
-124827.97403578907
 13
-35108.437749822093
 23
30208.307397902041
 33
-113738.3261537276
  0
3DFACE
  5
835
100
AcDbEntity
  8
0
 62
     7
100
AcDbFace
 10
-24489.423925775511
 20
30208.307397902041
 30
-113738.3261537276
 11
-24489.423925775511
 21
23559.347893776208
 31
-113970.70864535576
 12
-24489.423925775511
 22
29821.224860654493
 32
-102648.02089545218
 13
-24489.423925775511
 23
30208.307397902041
 33
-113738.3261537276
  0
3DFACE
  5
83B
100
AcDbEntity
  8
0
 62
     7
100
AcDbFace
 10
-24489.423925775511
 20
30208.307397902041
 30
-113738.3261537276
 11
-24489.423925775511
 21
36856.61450593677
 31
-113505.94366209942
 12
-24489.423925775511
 22
30594.737539058478
 32
-124827.97403578907
 13
-24489.423925775511
 23
30208.307397902041
 33
-113738.3261537276
  0
3DFACE
  5
841
100
AcDbEntity
  8
0
 62
     7
100
AcDbFace
 10
-35108.437749822093
 20
17684.555954206888
 30
-136383.69169328909
 11
-35108.437749822093
 21
24333.51545833272
 31
-136151.31916190658
 12
-35108.437749822093
 22
17297.473416959339
 32
-125293.39639525933
 13
-35108.437749822093
 23
17684.555954206888
 33
-136383.69169328909
  0
3DFACE
  5
847
100
AcDbEntity
  8
0
 62
     7
100
AcDbFace
 10
-35108.437749822093
 20
17684.555954206888
 30
-136383.69169328909
 11
-35108.437749822093
 21
11035.596450081057
 31
-136615.42676894896
 12
-35108.437749822093
 22
18071.639736485144
 32
-147473.34953559621
 13
-35108.437749822093
 23
17684.555954206888
 33
-136383.69169328909
  0
3DFACE
  5
84D
100
AcDbEntity
  8
0
 62
     7
100
AcDbFace
 10
-24489.423925775511
 20
17684.555954206888
 30
-136383.69169328909
 11
-24489.423925775511
 21
11035.596450081057
 31
-136615.42676894896
 12
-24489.423925775511
 22
17297.473416959339
 32
-125293.39639525933
 13
-24489.423925775511
 23
17684.555954206888
 33
-136383.69169328909
  0
3DFACE
  5
853
100
AcDbEntity
  8
0
 62
     7
100
AcDbFace
 10
-24489.423925775511
 20
17684.555954206888
 30
-136383.69169328909
 11
-24489.423925775511
 21
24333.51545833272
 31
-136151.31916190658
 12
-24489.423925775511
 22
18071.639736485144
 32
-147473.34953559621
 13
-24489.423925775511
 23
17684.555954206888
 33
-136383.69169328909
  0
3DFACE
  5
859
100
AcDbEntity
  8
0
 62
     7
100
AcDbFace
 10
-35108.437749822093
 20
28658.667476606799
 30
-69377.77245708555
 11
-35108.437749822093
 21
35307.626980732639
 31
-69146.042361548505
 12
-35108.437749822093
 22
28271.584939359254
 32
-58288.119594901254
 13
-35108.437749822093
 23
28658.667476606799
 33
-69377.77245708555
  0
3DFACE
  5
85F
100
AcDbEntity
  8
0
 62
     7
100
AcDbFace
 10
-35108.437749822093
 20
28658.667476606799
 30
-69377.77245708555
 11
-35108.437749822093
 21
22010.360368572077
 31
-69610.149968590893
 12
-35108.437749822093
 22
29045.752503915766
 32
-80468.072735238136
 13
-35108.437749822093
 23
28658.667476606799
 33
-69377.77245708555
  0
3DFACE
  5
865
100
AcDbEntity
  8
0
 62
     7
100
AcDbFace
 10
-35108.437749822093
 20
56029.322963696337
 30
-90629.510383337649
 11
-35108.437749822093
 21
49379.708573417978
 31
-90861.882914720161
 12
-35108.437749822093
 22
56415.75559491419
 32
-101719.8056813674
 13
-35108.437749822093
 23
56029.322963696337
 33
-90629.510383337649
  0
3DFACE
  5
86B
100
AcDbEntity
  8
0
 62
     7
100
AcDbFace
 10
-35108.437749822093
 20
56029.322963696337
 30
-90629.510383337649
 11
-33781.386908604145
 21
56029.322963696337
 31
-90629.510383337649
 12
-35108.437749822093
 22
55642.23793638737
 32
-79539.852541030516
 13
-35108.437749822093
 23
56029.322963696337
 33
-90629.510383337649
  0
3DFACE
  5
871
100
AcDbEntity
  8
0
 62
     7
100
AcDbFace
 10
-24489.423925775511
 20
56029.322963696337
 30
-90629.510383337649
 11
-25816.474766993459
 21
56029.322963696337
 31
-90629.510383337649
 12
-24489.423925775511
 22
56415.75559491419
 32
-101719.8056813674
 13
-24489.423925775511
 23
56029.322963696337
 33
-90629.510383337649
  0
3DFACE
  5
877
100
AcDbEntity
  8
0
 62
     7
100
AcDbFace
 10
-24489.423925775511
 20
56029.322963696337
 30
-90629.510383337649
 11
-24489.423925775511
 21
49379.708573417978
 31
-90861.882914720161
 12
-24489.423925775511
 22
55642.23793638737
 32
-79539.852541030516
 13
-24489.423925775511
 23
56029.322963696337
 33
-90629.510383337649
  0
3DFACE
  5
87D
100
AcDbEntity
  8
0
 62
     7
100
AcDbFace
 10
-24489.423925775511
 20
28658.667476606799
 30
-69377.77245708555
 11
-24489.423925775511
 21
22010.360368572077
 31
-69610.149968590893
 12
-24489.423925775511
 22
28271.584939359254
 32
-58288.119594901254
 13
-24489.423925775511
 23
28658.667476606799
 33
-69377.77245708555
  0
3DFACE
  5
883
100
AcDbEntity
  8
0
 62
     7
100
AcDbFace
 10
-24489.423925775511
 20
28658.667476606799
 30
-69377.77245708555
 11
-24489.423925775511
 21
35307.626980732639
 31
-69146.042361548505
 12
-24489.423925775511
 22
29045.752503915766
 32
-80468.072735238136
 13
-24489.423925775511
 23
28658.667476606799
 33
-69377.77245708555
  0
3DFACE
  5
889
100
AcDbEntity
  8
0
 62
     7
100
AcDbFace
 10
-35108.437749822093
 20
56802.835642100319
 30
-112809.46352367454
 11
-35108.437749822093
 21
50154.531024127013
 31
-113041.83605505704
 12
-35108.437749822093
 22
57189.920669409286
 32
-123899.75882170428
 13
-35108.437749822093
 23
56802.835642100319
 33
-112809.46352367454
  0
3DFACE
  5
88F
100
AcDbEntity
  8
0
 62
     7
100
AcDbFace
 10
-35108.437749822093
 20
56802.835642100319
 30
-112809.46352367454
 11
-33781.386908604145
 21
56802.835642100319
 31
-112809.46352367454
 12
-35108.437749822093
 22
56415.75559491419
 32
-101719.8056813674
 13
-35108.437749822093
 23
56802.835642100319
 33
-112809.46352367454
  0
3DFACE
  5
895
100
AcDbEntity
  8
0
 62
     7
100
AcDbFace
 10
-35108.437749822093
 20
4387.2899645616881
 30
-136847.79930033148
 11
-35108.437749822093
 21
11035.596450081057
 31
-136615.42676894896
 12
-35108.437749822093
 22
4000.206493541109
 32
-125757.50400230174
 13
-35108.437749822093
 23
4387.2899645616881
 33
-136847.79930033148
  0
3DFACE
  5
89B
100
AcDbEntity
  8
0
 62
     7
100
AcDbFace
 10
-35108.437749822093
 20
4387.2899645616881
 30
-136847.79930033148
 11
-34445.23977228938
 21
4377.498731814555
 31
-136847.79930033148
 12
-35108.437749822093
 22
4774.3734355822662
 32
-147938.09459836123
 13
-35108.437749822093
 23
4387.2899645616881
 33
-136847.79930033148
  0
3DFACE
  5
8A1
100
AcDbEntity
  8
0
 62
     7
100
AcDbFace
 10
-35108.437749822093
 20
2837.6503545241249
 30
-92487.893019657713
 11
-35108.437749822093
 21
9486.6095473922796
 31
-92254.86311206127
 12
-35108.437749822093
 22
2450.5668835035463
 32
-81397.597721627972
 13
-35108.437749822093
 23
2837.6503545241249
 33
-92487.893019657713
  0
3DFACE
  5
8A7
100
AcDbEntity
  8
0
 62
     7
100
AcDbFace
 10
-35108.437749822093
 20
2837.6503545241249
 30
-92487.893019657713
 11
-34445.23977228938
 21
2827.8591217769922
 31
-92487.893019657713
 12
-35108.437749822093
 22
3224.7338255447039
 32
-103577.55086196485
 13
-35108.437749822093
 23
2837.6503545241249
 33
-92487.893019657713
  0
3DFACE
  5
8AD
100
AcDbEntity
  8
0
 62
     7
100
AcDbFace
 10
-24489.423925775511
 20
56802.835642100319
 30
-112809.46352367454
 11
-25816.474766993459
 21
56802.835642100319
 31
-112809.46352367454
 12
-24489.423925775511
 22
57189.920669409286
 32
-123899.75882170428
 13
-24489.423925775511
 23
56802.835642100319
 33
-112809.46352367454
  0
3DFACE
  5
8B3
100
AcDbEntity
  8
0
 62
     7
100
AcDbFace
 10
-24489.423925775511
 20
56802.835642100319
 30
-112809.46352367454
 11
-24489.423925775511
 21
50154.531024127013
 31
-113041.83605505704
 12
-24489.423925775511
 22
56415.75559491419
 32
-101719.8056813674
 13
-24489.423925775511
 23
56802.835642100319
 33
-112809.46352367454
  0
3DFACE
  5
8B9
100
AcDbEntity
  8
0
 62
     7
100
AcDbFace
 10
-24489.423925775511
 20
2837.6503545241249
 30
-92487.893019657713
 11
-24489.423925775511
 21
9486.6095473922796
 31
-92254.86311206127
 12
-24489.423925775511
 22
3224.7338255447039
 32
-103577.55086196485
 13
-24489.423925775511
 23
2837.6503545241249
 33
-92487.893019657713
  0
3DFACE
  5
8BF
100
AcDbEntity
  8
0
 62
     7
100
AcDbFace
 10
-24489.423925775511
 20
2837.6503545241249
 30
-92487.893019657713
 11
-25153.276789460746
 21
2827.8591217769922
 31
-92487.893019657713
 12
-24489.423925775511
 22
2450.5668835035463
 32
-81397.597721627972
 13
-24489.423925775511
 23
2837.6503545241249
 33
-92487.893019657713
  0
3DFACE
  5
8C5
100
AcDbEntity
  8
0
 62
     7
100
AcDbFace
 10
-24489.423925775511
 20
4387.2899645616881
 30
-136847.79930033148
 11
-24489.423925775511
 21
11035.596450081057
 31
-136615.42676894896
 12
-24489.423925775511
 22
4774.3734355822662
 32
-147938.09459836123
 13
-24489.423925775511
 23
4387.2899645616881
 33
-136847.79930033148
  0
3DFACE
  5
8CB
100
AcDbEntity
  8
0
 62
     7
100
AcDbFace
 10
-24489.423925775511
 20
4387.2899645616881
 30
-136847.79930033148
 11
-25153.276789460746
 21
4377.498731814555
 31
-136847.79930033148
 12
-24489.423925775511
 22
4000.206493541109
 32
-125757.50400230174
 13
-24489.423925775511
 23
4387.2899645616881
 33
-136847.79930033148
  0
3DFACE
  5
8D1
100
AcDbEntity
  8
0
 62
     7
100
AcDbFace
 10
-29799.584478920617
 20
3538.0560747720415
 30
-114669.80832839075
 11
-29135.731615235381
 21
3547.847618776851
 31
-114669.80832839075
 12
-29799.584478920617
 22
3925.1398570502975
 32
-125760.11358666616
 13
-29799.584478920617
 23
3538.0560747720415
 33
-114669.80832839075
  0
3DFACE
  5
8D7
100
AcDbEntity
  8
0
 62
     7
100
AcDbFace
 10
-29799.584478920617
 20
3538.0560747720415
 30
-114669.80832839075
 11
-30463.434852544437
 21
3547.847618776851
 31
-114669.80832839075
 12
-29799.584478920617
 22
3150.9726037514624
 32
-103580.16044632929
 13
-29799.584478920617
 23
3538.0560747720415
 33
-114669.80832839075
  0
3DFACE
  5
8DD
100
AcDbEntity
  8
0
 62
     7
100
AcDbFace
 10
-29799.584478920617
 20
1988.4164647344783
 30
-70309.902047716983
 11
-29135.731615235381
 21
1998.2078531104494
 31
-70309.254631748714
 12
-29799.584478920617
 22
2375.5000913838958
 32
-81399.554909901301
 13
-29799.584478920617
 23
1988.4164647344783
 33
-70309.902047716983
  0
3DFACE
  5
8E3
100
AcDbEntity
  8
0
 62
     7
100
AcDbFace
 10
-29799.584478920617
 20
1988.4164647344783
 30
-70309.902047716983
 11
-30463.434852544437
 21
1998.2078531104494
 31
-70309.254631748714
 12
-29799.584478920617
 22
1601.9857788771037
 32
-59219.601769564411
 13
-29799.584478920617
 23
1988.4164647344783
 33
-70309.902047716983
  0
3DFACE
  5
8E9
100
AcDbEntity
  8
0
 62
     7
100
AcDbFace
 10
-35108.437749822093
 20
41956.586484858468
 30
-68913.664850043162
 11
-35108.437749822093
 21
35307.626980732639
 31
-69146.042361548505
 12
-35108.437749822093
 22
42343.671512167435
 32
-80003.965128195749
 13
-35108.437749822093
 23
41956.586484858468
 33
-68913.664850043162
  0
3DFACE
  5
8EF
100
AcDbEntity
  8
0
 62
     7
100
AcDbFace
 10
-35108.437749822093
 20
41956.586484858468
 30
-68913.664850043162
 11
-35108.437749822093
 21
48604.891102831774
 31
-68681.934754506103
 12
-35108.437749822093
 22
41569.503947610923
 32
-57824.011987858859
 13
-35108.437749822093
 23
41956.586484858468
 33
-68913.664850043162
  0
3DFACE
  5
8F5
100
AcDbEntity
  8
0
 62
     7
100
AcDbFace
 10
-24489.423925775511
 20
41956.586484858468
 30
-68913.664850043162
 11
-24489.423925775511
 21
48604.891102831774
 31
-68681.934754506103
 12
-24489.423925775511
 22
42343.671512167435
 32
-80003.965128195749
 13
-24489.423925775511
 23
41956.586484858468
 33
-68913.664850043162
  0
3DFACE
  5
8FB
100
AcDbEntity
  8
0
 62
     7
100
AcDbFace
 10
-24489.423925775511
 20
41956.586484858468
 30
-68913.664850043162
 11
-24489.423925775511
 21
35307.626980732639
 31
-69146.042361548505
 12
-24489.423925775511
 22
41569.503947610923
 32
-57824.011987858859
 13
-24489.423925775511
 23
41956.586484858468
 33
-68913.664850043162
  0
3DFACE
  5
901
100
AcDbEntity
  8
0
 62
     7
100
AcDbFace
 10
-35108.437749822093
 20
43505.569029939768
 30
-113274.21854668521
 11
-35108.437749822093
 21
36856.61450593677
 31
-113505.94366209942
 12
-35108.437749822093
 22
43892.654057248728
 32
-124363.86642874667
 13
-35108.437749822093
 23
43505.569029939768
 33
-113274.21854668521
  0
3DFACE
  5
907
100
AcDbEntity
  8
0
 62
     7
100
AcDbFace
 10
-35108.437749822093
 20
43505.569029939768
 30
-113274.21854668521
 11
-35108.437749822093
 21
50154.531024127013
 31
-113041.83605505704
 12
-35108.437749822093
 22
43118.488982753632
 32
-102183.91328840979
 13
-35108.437749822093
 23
43505.569029939768
 33
-113274.21854668521
  0
3DFACE
  5
90D
100
AcDbEntity
  8
0
 62
     7
100
AcDbFace
 10
-24489.423925775511
 20
43505.569029939768
 30
-113274.21854668521
 11
-24489.423925775511
 21
50154.531024127013
 31
-113041.83605505704
 12
-24489.423925775511
 22
43892.654057248728
 32
-124363.86642874667
 13
-24489.423925775511
 23
43505.569029939768
 33
-113274.21854668521
  0
3DFACE
  5
913
100
AcDbEntity
  8
0
 62
     7
100
AcDbFace
 10
-24489.423925775511
 20
43505.569029939768
 30
-113274.21854668521
 11
-24489.423925775511
 21
36856.61450593677
 31
-113505.94366209942
 12
-24489.423925775511
 22
43118.488982753632
 32
-102183.91328840979
 13
-24489.423925775511
 23
43505.569029939768
 33
-113274.21854668521
  0
3DFACE
  5
919
100
AcDbEntity
  8
0
 62
     7
100
AcDbFace
 10
-35108.437749822093
 20
15360.749713385845
 30
-69842.532460219052
 11
-35108.437749822093
 21
8711.7895867446587
 31
-70074.909971724395
 12
-35108.437749822093
 22
15748.485891755208
 32
-80932.185322403355
 13
-35108.437749822093
 23
15360.749713385845
 33
-69842.532460219052
  0
3DFACE
  5
91F
100
AcDbEntity
  8
0
 62
     7
100
AcDbFace
 10
-35108.437749822093
 20
15360.749713385845
 30
-69842.532460219052
 11
-35108.437749822093
 21
22010.360368572077
 31
-69610.149968590893
 12
-35108.437749822093
 22
14973.665931107589
 32
-58752.884578157587
 13
-35108.437749822093
 23
15360.749713385845
 33
-69842.532460219052
  0
3DFACE
  5
925
100
AcDbEntity
  8
0
 62
     7
100
AcDbFace
 10
-24489.423925775511
 20
15360.749713385845
 30
-69842.532460219052
 11
-24489.423925775511
 21
22010.360368572077
 31
-69610.149968590893
 12
-24489.423925775511
 22
15748.485891755208
 32
-80932.185322403355
 13
-24489.423925775511
 23
15360.749713385845
 33
-69842.532460219052
  0
3DFACE
  5
92B
100
AcDbEntity
  8
0
 62
     7
100
AcDbFace
 10
-24489.423925775511
 20
15360.749713385845
 30
-69842.532460219052
 11
-24489.423925775511
 21
8711.7895867446587
 31
-70074.909971724395
 12
-24489.423925775511
 22
14973.665931107589
 32
-58752.884578157587
 13
-24489.423925775511
 23
15360.749713385845
 33
-69842.532460219052
  0
ENDSEC
  0
EOF
