0
SECTION
2
HEADER
9
$INSUNITS
70
4
9
$ACADVER
1
AC1014
9
$HANDSEED
5
FFFF
0
ENDSEC
0
SECTION
2
TABLES
0
TABLE
2
VPORT
5
8
100
AcDbSymbolTable
0
ENDTAB
0
TABLE
2
LTYPE
5
5
100
AcDbSymbolTable
0
LTYPE
5
14
100
AcDbSymbolTableRecord
100
AcDbLinetypeTableRecord
2
BYBLOCK
70
0
0
LTYPE
5
15
100
AcDbSymbolTableRecord
100
AcDbLinetypeTableRecord
2
BYLAYER
70
0
0
LTYPE
5
16
100
AcDbSymbolTableRecord
100
AcDbLinetypeTableRecord
2
DASHED
70
0
3
Dashed __ __ __ __ __ __ __ __ __ __ __ __ __ _
72
65
73
2
40
0.75
49
0.5
74
0
49
-0.25
74
0
0
ENDTAB
0
TABLE
2
LAYER
5
2
100
AcDbSymbolTable
70
2
0
LAYER
5
50
100
AcDbSymbolTableRecord
100
AcDbLayerTableRecord
2
0
70
0
62
7
6
CONTINUOUS
0
ENDTAB
0
TABLE
2
STYLE
5
3
100
AcDbSymbolTable
70
1
0
STYLE
5
11
100
AcDbSymbolTableRecord
100
AcDbTextStyleTableRecord
2
STANDARD
70
0
0
ENDTAB
0
TABLE
2
VIEW
5
6
100
AcDbSymbolTable
70
0
0
ENDTAB
0
TABLE
2
UCS
5
7
100
AcDbSymbolTable
70
0
0
ENDTAB
0
TABLE
2
APPID
5
9
100
AcDbSymbolTable
70
2
0
APPID
5
12
100
AcDbSymbolTableRecord
100
AcDbRegAppTableRecord
2
ACAD
70
0
0
ENDTAB
0
TABLE
2
DIMSTYLE
5
A
100
AcDbSymbolTable
70
1
0
ENDTAB
0
TABLE
2
BLOCK_RECORD
5
1
100
AcDbSymbolTable
70
1
0
BLOCK_RECORD
5
1F
100
AcDbSymbolTableRecord
100
AcDbBlockTableRecord
2
*MODEL_SPACE
0
BLOCK_RECORD
5
1B
100
AcDbSymbolTableRecord
100
AcDbBlockTableRecord
2
*PAPER_SPACE
0
ENDTAB
0
ENDSEC
0
SECTION
2
BLOCKS
0
BLOCK
5
20
100
AcDbEntity
100
AcDbBlockBegin
2
*MODEL_SPACE
0
ENDBLK
5
21
100
AcDbEntity
100
AcDbBlockEnd
0
BLOCK
5
1C
100
AcDbEntity
100
AcDbBlockBegin
2
*PAPER_SPACE
0
ENDBLK
5
1D
100
AcDbEntity
100
AcDbBlockEnd
0
ENDSEC
0
SECTION
2
ENTITIES
0
LWPOLYLINE
5
100
100
AcDbEntity
8
0
100
AcDbPolyline
90
3
70
1
43
0.0
10
-19.696317911148071
20
-21.556787490844727
10
-12.461875677108765
20
-16.728085279464722
10
-19.7624671459198
20
-14.930863380432129
0
CIRCLE
5
101
100
AcDbEntity
8
0
100
AcDbCircle
10
61.929668906408963
20
3.2393618038472161
30
0
40
2.1000000000000005
210
0
220
0
230
1
0
CIRCLE
5
102
100
AcDbEntity
8
0
100
AcDbCircle
10
80.979668906408961
20
9.5893618038472184
30
0
40
2.1000000000000005
210
0
220
0
230
1
0
CIRCLE
5
103
100
AcDbEntity
8
0
100
AcDbCircle
10
68.279668906408958
20
22.289361803847214
30
0
40
2.1000000000000005
210
0
220
0
230
1
0
CIRCLE
5
104
100
AcDbEntity
8
0
100
AcDbCircle
10
61.929668906408963
20
15.939361803847213
30
0
40
2.1000000000000005
210
0
220
0
230
1
0
CIRCLE
5
105
100
AcDbEntity
8
0
100
AcDbCircle
10
55.579668906408969
20
9.5893618038472184
30
0
40
2.1000000000000005
210
0
220
0
230
1
0
CIRCLE
5
106
100
AcDbEntity
8
0
100
AcDbCircle
10
74.629668906408966
20
15.939361803847213
30
0
40
2.0999999999999996
210
0
220
0
230
1
0
CIRCLE
5
107
100
AcDbEntity
8
0
100
AcDbCircle
10
74.629668906408966
20
3.2393618038472161
30
0
40
2.1000000000000005
210
0
220
0
230
1
0
CIRCLE
5
108
100
AcDbEntity
8
0
100
AcDbCircle
10
68.279668906408958
20
-3.1106381961527774
30
0
40
2.1000000000000005
210
0
220
0
230
1
0
CIRCLE
5
109
100
AcDbEntity
8
0
100
AcDbCircle
10
46.282623650284208
20
22.289361803847221
30
0
40
2.1000000000000005
210
0
220
0
230
1
0
CIRCLE
5
110
100
AcDbEntity
8
0
100
AcDbCircle
10
90.276714162533693
20
22.289361803847235
30
0
40
2.1000000000000005
210
0
220
0
230
1
0
CIRCLE
5
111
100
AcDbEntity
8
0
100
AcDbCircle
10
68.279668906408958
20
-15.810638196152782
30
0
40
2.1000000000000005
210
0
220
0
230
1
0
ARC
5
112
100
AcDbEntity
8
0
100
AcDbCircle
10
68.279668906408958
20
9.5893618038472184
30
0
40
32.808332840601622
210
0
220
-0
230
1
100
AcDbArc
50
8.3190647433491058
51
9.6809352566509901
0
SPLINE
5
113
100
AcDbEntity
8
0
100
AcDbSpline
70
0
71
3
72
30
73
26
74
0
42
0.000000001
43
0.0000000001
44
0.0000000001
40
-0.3152622536876809
40
-0.3152622536876809
40
-0.3152622536876809
40
-0.3152622536876809
40
-0.29320992189809891
40
-0.29320992189809891
40
-0.28141482061045048
40
-0.28141482061045048
40
-0.27806273348037075
40
-0.27806273348037075
40
-0.27514895939435985
40
-0.27514895939435985
40
-0.27148660584769813
40
-0.27148660584769813
40
-0.26629558505200751
40
-0.26629558505200751
40
-0.25918538661198226
40
-0.25918538661198226
40
-0.24739221768644509
40
-0.24739221768644509
40
-0.23189469134170429
40
-0.23189469134170429
40
-0.21232517221034819
40
-0.21232517221034819
40
-0.14237351909691753
40
-0.14237351909691753
40
0
40
0
40
0
40
0
10
100.06876136796669
20
17.703565656319164
30
0
10
99.72179980855384
20
17.423610292261582
30
0
10
99.357178583517992
20
17.157463996773469
30
0
10
98.781266064270113
20
16.790817977486306
30
0
10
98.576486065397987
20
16.668969513991581
30
0
10
98.306629746100242
20
16.525708882767759
30
0
10
98.243211189603784
20
16.496112247687027
30
0
10
98.122622490764755
20
16.391923748815401
30
0
10
98.089068319505003
20
16.344070977387307
30
0
10
98.040230948478978
20
16.255065427658892
30
0
10
98.022831553539447
20
16.201361281146269
30
0
10
98.006812120128174
20
16.066090477468883
30
0
10
98.021896070541061
20
16.005354661554041
30
0
10
98.057706057539221
20
15.844862467554343
30
0
10
98.062168267828554
20
15.811983679255954
30
0
10
98.101039933702111
20
15.700868643780119
30
0
10
98.13598997500192
20
15.65571481267558
30
0
10
98.198789191811642
20
15.586372268734699
30
0
10
98.246134493696275
20
15.548512521894121
30
0
10
98.386068537949512
20
15.482568667073803
30
0
10
98.466494303790896
20
15.469778274647537
30
0
10
98.762674549459035
20
15.447656772956817
30
0
10
98.994014401909709
20
15.426115592358123
30
0
10
99.691592461645243
20
15.32808013106418
30
0
10
100.16217119327435
20
15.228480293712309
30
0
10
100.62079396343299
20
15.106456486275587
30
0
0
ARC
5
114
100
AcDbEntity
8
0
100
AcDbCircle
10
68.279668906408958
20
9.5893618038472184
30
0
40
32.808332839218394
210
0
220
-0
230
1
100
AcDbArc
50
14.31906474273517
51
15.680935256651258
0
SPLINE
5
115
100
AcDbEntity
8
0
100
AcDbSpline
70
0
71
3
72
30
73
26
74
0
42
0.000000001
43
0.0000000001
44
0.0000000001
40
-0.31526225364042143
40
-0.31526225364042143
40
-0.31526225364042143
40
-0.31526225364042143
40
-0.29320992188163508
40
-0.29320992188163508
40
-0.28141482060860817
40
-0.28141482060860817
40
-0.27806273348256272
40
-0.27806273348256272
40
-0.27514895939871448
40
-0.27514895939871448
40
-0.27148660585167828
40
-0.27148660585167828
40
-0.26629558505546064
40
-0.26629558505546064
40
-0.25918538661497059
40
-0.25918538661497059
40
-0.24739221768886241
40
-0.24739221768886241
40
-0.23189469134359414
40
-0.23189469134359414
40
-0.21232517221202304
40
-0.21232517221202304
40
-0.14237351909794693
40
-0.14237351909794693
40
0
40
0
40
0
40
0
10
99.046452133975265
20
20.981980182292126
30
0
10
98.730654570291975
20
20.66729108440807
30
0
10
98.395850641770423
20
20.36448946986388
30
0
10
97.861417976527548
20
19.939652725218359
30
0
10
97.670496416538271
20
19.797066421751847
30
0
10
97.417093211996146
20
19.626382920877468
30
0
10
97.357115759772327
20
19.590319375009017
30
0
10
97.248078322094926
20
19.474096680231618
30
0
10
97.219709940766279
20
19.422998685325222
30
0
10
97.180443719318831
20
19.329375822002682
30
0
10
97.168753251991319
20
19.274147140408804
30
0
10
97.166961223945975
20
19.137942877590181
30
0
10
97.188311164403331
20
19.079116480986407
30
0
10
97.240700982950415
20
18.923246642930579
30
0
10
97.248575518000152
20
18.891014396057745
30
0
10
97.298848924725633
20
18.784571255870091
30
0
10
97.338327366618458
20
18.7433180562853
30
0
10
97.408030832303382
20
18.680919683684554
30
0
10
97.459074192827188
20
18.648216268146921
30
0
10
97.605134673552044
20
18.597260751267424
30
0
10
97.686456818697692
20
18.592947207659659
30
0
10
97.983326884567234
20
18.601906155799735
30
0
10
98.215651099605665
20
18.6046645793115
30
0
10
98.919655249855026
20
18.580082929125549
30
0
10
99.398067119892431
20
18.530217581768099
30
0
10
99.866932467606489
20
18.456801366899818
30
0
0
ARC
5
116
100
AcDbEntity
8
0
100
AcDbCircle
10
68.279668906408958
20
9.5893618038472184
30
0
40
32.808332839218409
210
0
220
-0
230
1
100
AcDbArc
50
20.319064742735179
51
21.680935256650589
0
SPLINE
5
117
100
AcDbEntity
8
0
100
AcDbSpline
70
0
71
3
72
30
73
26
74
0
42
0.000000001
43
0.0000000001
44
0.0000000001
40
-0.31526225356494048
40
-0.31526225356494048
40
-0.31526225356494048
40
-0.31526225356494048
40
-0.29320992183604644
40
-0.29320992183604644
40
-0.28141482057717315
40
-0.28141482057717315
40
-0.27806273345517052
40
-0.27806273345517052
40
-0.27514895937487732
40
-0.27514895937487732
40
-0.27148660583257
40
-0.27148660583257
40
-0.26629558504341616
40
-0.26629558504341616
40
-0.25918538660759144
40
-0.25918538660759144
40
-0.24739221768414121
40
-0.24739221768414121
40
-0.23189469134134669
40
-0.23189469134134669
40
-0.21232517221067174
40
-0.21232517221067174
40
-0.14237351909730936
40
-0.14237351909730936
40
0
40
0
40
0
40
0
10
97.687055584579326
20
24.135574797252211
30
0
10
97.405881960818007
20
23.789599765158034
30
0
10
97.10456351071231
20
23.453460389417909
30
0
10
96.617466055589048
20
22.975087519688984
30
0
10
96.442494711048653
20
22.813325581624724
30
0
10
96.208320959803757
20
22.617089255248473
30
0
10
96.152441737370197
20
22.574953918347912
30
0
10
96.05615019786859
20
22.447970387858316
30
0
10
96.033278416383268
20
22.394187009809627
30
0
10
96.004013553433225
20
22.296972584538945
30
0
10
95.998160096923755
20
22.240824464857063
30
0
10
96.010615108076507
20
22.105179025309461
30
0
10
96.037997124158622
20
22.048906562330416
30
0
10
96.106392780463636
20
21.899366822729238
30
0
10
96.117593365207711
20
21.868134260555223
30
0
10
96.178717706809834
20
21.767529228988014
30
0
10
96.222292015222848
20
21.730628639610998
30
0
10
96.298136044029889
20
21.675858087973062
30
0
10
96.352318221453714
20
21.648669309203594
30
0
10
96.502904869455946
20
21.613260409568706
30
0
10
96.584232411473636
20
21.617470974866599
30
0
10
96.878539726976584
20
21.657412216726289
30
0
10
97.109302911885862
20
21.684440022483514
30
0
10
97.812019935860434
20
21.733581505109107
30
0
10
98.293023363745561
20
21.733996982925685
30
0
10
98.766994302143615
20
21.709992724040248
30
0
0
ARC
5
118
100
AcDbEntity
8
0
100
AcDbCircle
10
68.279668906408958
20
9.5893618038472184
30
0
40
32.808332839218394
210
0
220
-0
230
1
100
AcDbArc
50
26.319064742735222
51
27.68093525665126
0
SPLINE
5
119
100
AcDbEntity
8
0
100
AcDbSpline
70
0
71
3
72
30
73
26
74
0
42
0.000000001
43
0.0000000001
44
0.0000000001
40
-0.31526225364808697
40
-0.31526225364808697
40
-0.31526225364808697
40
-0.31526225364808697
40
-0.29320992188097272
40
-0.29320992188097272
40
-0.2814148206040939
40
-0.2814148206040939
40
-0.27806273347704746
40
-0.27806273347704746
40
-0.2751489593933365
40
-0.2751489593933365
40
-0.27148660584885292
40
-0.27148660584885292
40
-0.26629558505650031
40
-0.26629558505650031
40
-0.25918538661765628
40
-0.25918538661765628
40
-0.24739221769053599
40
-0.24739221769053599
40
-0.2318946913451328
40
-0.2318946913451328
40
-0.21232517221378785
40
-0.21232517221378785
40
-0.14237351909891338
40
-0.14237351909891338
40
0
40
0
40
0
40
0
10
96.005465552846076
20
27.129798058665759
30
0
10
95.761996466034631
20
26.756327667171842
30
0
10
95.497464802293251
20
26.390533343529636
30
0
10
95.063039298928061
20
25.863865501988201
30
0
10
94.905935192541108
20
25.684700227008406
30
0
10
94.693556551267676
20
25.465061081435209
30
0
10
94.642387783075009
20
25.41731559706664
30
0
10
94.559897132017753
20
25.280962489014819
30
0
10
94.542772538393763
20
25.225082989772439
30
0
10
94.523829665901502
20
25.125342104117671
30
0
10
94.523877351905199
20
25.068889716896621
30
0
10
94.550442942549523
20
24.935289260434175
30
0
10
94.583557031163224
20
24.882187263956908
30
0
10
94.667209168077179
20
24.740616011555975
30
0
10
94.681613086577926
20
24.710725324529037
30
0
10
94.752918671991097
20
24.617060651344094
30
0
10
94.800111437685203
20
24.584916962752914
30
0
10
94.881265066555457
20
24.538374309711113
30
0
10
94.937992429603909
20
24.51699805365671
30
0
10
95.091455386063927
20
24.497523718583267
30
0
10
95.171897283374435
20
24.51021226095181
30
0
10
95.460417355977398
20
24.580698191927635
30
0
10
95.687091221013318
20
24.631699257634267
30
0
10
96.380822003937794
20
24.754025468703567
30
0
10
96.85914701545849
20
24.804717219633019
30
0
10
97.333030619762127
20
24.830387912413926
30
0
0
ARC
5
120
100
AcDbEntity
8
0
100
AcDbCircle
10
68.279668906408958
20
9.5893618038472184
30
0
40
32.808332839218394
210
0
220
-0
230
1
100
AcDbArc
50
32.319064742735172
51
33.680935256650805
0
SPLINE
5
121
100
AcDbEntity
8
0
100
AcDbSpline
70
0
71
3
72
30
73
26
74
0
42
0.000000001
43
0.0000000001
44
0.0000000001
40
-0.31526225365707294
40
-0.31526225365707294
40
-0.31526225365707294
40
-0.31526225365707294
40
-0.29320992188819456
40
-0.29320992188819456
40
-0.28141482060983442
40
-0.28141482060983442
40
-0.2780627334823304
40
-0.2780627334823304
40
-0.27514895939786949
40
-0.27514895939786949
40
-0.27148660585162893
40
-0.27148660585162893
40
-0.26629558505665896
40
-0.26629558505665896
40
-0.25918538661648932
40
-0.25918538661648932
40
-0.24739221768949454
40
-0.24739221768949454
40
-0.23189469134387339
40
-0.23189469134387339
40
-0.2123251722124064
40
-0.2123251722124064
40
-0.14237351909805868
40
-0.14237351909805868
40
0
40
0
40
0
40
0
10
94.020105891058506
20
29.931844629899263
30
0
10
93.817008839478589
20
29.534970698790332
30
0
10
93.592162226396155
20
29.143529146437743
30
0
10
93.21516833152485
20
28.57433661616961
30
0
10
93.077652728732033
20
28.379730976494002
30
0
10
92.889396062232365
20
28.139095424131611
30
0
10
92.843498364014962
20
28.08626290181617
30
0
10
92.775712386217592
20
27.942034129358618
30
0
10
92.764522601096559
20
27.884670736402718
30
0
10
92.756109261145397
20
27.783496172414004
30
0
10
92.762057567204309
20
27.727358021821324
30
0
10
92.802442679170895
20
27.59726630300144
30
0
10
92.840926035432432
20
27.547916569611957
30
0
10
92.93891814262841
20
27.415864888685768
30
0
10
92.956367582545894
20
27.387643565423161
30
0
10
93.037073172857788
20
27.301945460378853
30
0
10
93.087367342016648
20
27.274910845552242
30
0
10
93.172941434816906
20
27.237106022148289
30
0
10
93.231592466631312
20
27.221776491546734
30
0
10
93.386250359274499
20
27.21845008592706
30
0
10
93.464925273616785
20
27.239477587040124
30
0
10
93.744497017027527
20
27.339735948522517
30
0
10
93.964598075890194
20
27.41415149582987
30
0
10
94.641741958139704
20
27.608322203776456
30
0
10
95.112147924376501
20
27.708734838387414
30
0
10
95.580752226642289
20
27.783799229352386
30
0
0
ARC
5
122
100
AcDbEntity
8
0
100
AcDbCircle
10
68.279668906408958
20
9.5893618038472184
30
0
40
32.808332839218394
210
0
220
-0
230
1
100
AcDbArc
50
38.319064742735172
51
39.680935256650962
0
SPLINE
5
123
100
AcDbEntity
8
0
100
AcDbSpline
70
0
71
3
72
30
73
26
74
0
42
0.000000001
43
0.0000000001
44
0.0000000001
40
-0.31526225358141396
40
-0.31526225358141396
40
-0.31526225358141396
40
-0.31526225358141396
40
-0.29320992185150085
40
-0.29320992185150085
40
-0.28141482059202583
40
-0.28141482059202583
40
-0.27806273346979171
40
-0.27806273346979171
40
-0.27514895938811784
40
-0.27514895938811784
40
-0.27148660584129147
40
-0.27148660584129147
40
-0.2662955850452981
40
-0.2662955850452981
40
-0.25918538660590601
40
-0.25918538660590601
40
-0.2473922176824685
40
-0.2473922176824685
40
-0.23189469133893906
40
-0.23189469133893906
40
-0.21232517220781805
40
-0.21232517220781805
40
-0.14237351909572674
40
-0.14237351909572674
40
0
40
0
40
0
40
0
10
91.752728615134359
20
32.511014702352348
30
0
10
91.592228772589834
20
32.095085465484885
30
0
10
91.409530676716429
20
31.682285399998314
30
0
10
91.094098814347717
20
31.076804373480634
30
0
10
90.977678364863408
20
30.868890509206025
30
0
10
90.815606252561096
20
30.609895003501858
30
0
10
90.77548248910567
20
30.552554287411272
30
0
10
90.723143861915361
20
30.402030051123148
30
0
10
90.718011482938422
20
30.343811249786732
30
0
10
90.720219853838827
20
30.242311497199786
30
0
10
90.732003609067178
20
30.187102644561655
30
0
10
90.785765774618326
20
30.061944975480174
30
0
10
90.829196766823642
20
30.016888191184709
30
0
10
90.940455222265314
20
29.895802867579228
30
0
10
90.960759003886253
20
29.869560106806816
30
0
10
91.049980371760938
20
29.792767496277293
30
0
10
91.102824910942601
20
29.771138152112474
30
0
10
91.191881900013243
20
29.742485355900254
30
0
10
91.251814007616161
20
29.733370504300108
30
0
10
91.405972372197382
20
29.746228472929023
30
0
10
91.482018324746321
20
29.775364551083445
30
0
10
91.74957869243984
20
29.904296891483739
30
0
10
91.960695471869244
20
30.001311608083125
30
0
10
92.613833523374737
20
30.265199438000483
30
0
10
93.071166578121137
20
30.414232814454657
30
0
10
93.529357451547028
20
30.537868482426237
30
0
0
ARC
5
124
100
AcDbEntity
8
0
100
AcDbCircle
10
68.279668906408958
20
9.5893618038472184
30
0
40
32.808332839218394
210
0
220
-0
230
1
100
AcDbArc
50
44.319064742735222
51
45.680935256650692
0
SPLINE
5
125
100
AcDbEntity
8
0
100
AcDbSpline
70
0
71
3
72
30
73
26
74
0
42
0.000000001
43
0.0000000001
44
0.0000000001
40
-0.31526225363852889
40
-0.31526225363852889
40
-0.31526225363852889
40
-0.31526225363852889
40
-0.29320992186623768
40
-0.29320992186623768
40
-0.28141482058848
40
-0.28141482058848
40
-0.27806273346116539
40
-0.27806273346116539
40
-0.27514895937712025
40
-0.27514895937712025
40
-0.27148660583178535
40
-0.27148660583178535
40
-0.26629558503788292
40
-0.26629558503788292
40
-0.25918538660180529
40
-0.25918538660180529
40
-0.24739221768431804
40
-0.24739221768431804
40
-0.2318946913438644
40
-0.2318946913438644
40
-0.21232517221210914
40
-0.21232517221210914
40
-0.14237351909797771
40
-0.14237351909797771
40
0
40
0
40
0
40
0
10
89.228175584987909
20
34.839050348985147
30
0
10
89.112031421320083
20
34.408622814056201
30
0
10
88.973483521193018
20
33.978986959257441
30
0
10
88.723069628794661
20
33.343851213308412
30
0
10
88.629019859458666
20
33.124907072308389
30
0
10
88.494907997378434
20
32.850389222310554
30
0
10
88.460997773031679
20
32.789168549322952
30
0
10
88.424679929434248
20
32.633998024333515
30
0
10
88.425661187984517
20
32.575561671999807
30
0
10
88.438467074364922
20
32.474848783240169
30
0
10
88.455957173474289
20
32.421174108298644
30
0
10
88.522507363072975
20
32.302321742570378
30
0
10
88.570410152181282
20
32.262051558927062
30
0
10
88.693715984959852
20
32.153259228769791
30
0
10
88.716651655798302
20
32.129282551675914
30
0
10
88.813411273254971
20
32.062236791575543
30
0
10
88.868227206628987
20
32.046249693694072
30
0
10
88.959791364967288
20
32.027062850705228
30
0
10
89.020347919645559
20
32.024262542330533
30
0
10
89.172317764857212
20
32.053164010608612
30
0
10
89.244901580245141
20
32.090089444835456
30
0
10
89.497519124841901
20
32.246283154451071
30
0
10
89.697338585223662
20
32.364834126805945
30
0
10
90.319314888802325
20
32.695547868402684
30
0
10
90.758564395405386
20
32.891569145841295
30
0
10
91.20132180491423
20
33.062421512572719
30
0
0
ARC
5
126
100
AcDbEntity
8
0
100
AcDbCircle
10
68.279668906408958
20
9.5893618038472184
30
0
40
32.808332839218401
210
0
220
-0
230
1
100
AcDbArc
50
50.319064742735208
51
51.680935256650613
0
SPLINE
5
127
100
AcDbEntity
8
0
100
AcDbSpline
70
0
71
3
72
30
73
26
74
0
42
0.000000001
43
0.0000000001
44
0.0000000001
40
-0.31526225364159116
40
-0.31526225364159116
40
-0.31526225364159116
40
-0.31526225364159116
40
-0.29320992187371814
40
-0.29320992187371814
40
-0.28141482059594869
40
-0.28141482059594869
40
-0.2780627334686227
40
-0.2780627334686227
40
-0.27514895938469758
40
-0.27514895938469758
40
-0.27148660584004852
40
-0.27148660584004852
40
-0.26629558504746831
40
-0.26629558504746831
40
-0.25918538660861079
40
-0.25918538660861079
40
-0.2473922176818347
40
-0.2473922176818347
40
-0.23189469133703394
40
-0.23189469133703394
40
-0.21232517220668273
40
-0.21232517220668273
40
-0.14237351909507084
40
-0.14237351909507084
40
0
40
0
40
0
40
0
10
86.474106331914101
20
36.890445124080401
30
0
10
86.403590346906469
20
36.450235145310316
30
0
10
86.310710602348678
20
36.008470681623912
30
0
10
86.128058266951598
20
35.350638896393505
30
0
10
86.057409606684203
20
35.123063276417675
30
0
10
85.952727352404651
20
34.836030757038714
30
0
10
85.925402194683315
20
34.771600873666635
30
0
10
85.905503040553867
20
34.613484140675133
30
0
10
85.912587185772821
20
34.555470478242334
30
0
10
85.935850283661708
20
34.456647884842134
30
0
10
85.958855101465673
20
34.405095458568091
30
0
10
86.037464177303832
20
34.293850567587334
30
0
10
86.089313930328771
20
34.258808193155126
30
0
10
86.223316175983129
20
34.163500807948111
30
0
10
86.248632448003946
20
34.14205290804567
30
0
10
86.351870196409266
20
34.085488565759249
30
0
10
86.408056949136252
20
34.075318872150675
30
0
10
86.501125080618593
20
34.065808197457777
30
0
10
86.561642612084896
20
34.069353113054291
30
0
10
86.709758924550343
20
34.113981430454466
30
0
10
86.778085359314346
20
34.158291657974296
30
0
10
87.012992350130361
20
34.340035445835269
30
0
10
87.199325227641395
20
34.47882380468446
30
0
10
87.783325280766448
20
34.872740089007792
30
0
10
88.199678729716751
20
35.113601617295082
30
0
10
88.622151732461134
20
35.329798788496845
30
0
0
ARC
5
128
100
AcDbEntity
8
0
100
AcDbCircle
10
68.279668906408958
20
9.5893618038472184
30
0
40
32.808332839218394
210
0
220
-0
230
1
100
AcDbArc
50
56.319064742735172
51
57.680935256650891
0
SPLINE
5
129
100
AcDbEntity
8
0
100
AcDbSpline
70
0
71
3
72
30
73
26
74
0
42
0.000000001
43
0.0000000001
44
0.0000000001
40
-0.3152622536720166
40
-0.3152622536720166
40
-0.3152622536720166
40
-0.3152622536720166
40
-0.29320992188753464
40
-0.29320992188753464
40
-0.28141482060187717
40
-0.28141482060187717
40
-0.27806273347240062
40
-0.27806273347240062
40
-0.2751489593876657
40
-0.2751489593876657
40
-0.27148660584446216
40
-0.27148660584446216
40
-0.26629558505398387
40
-0.26629558505398387
40
-0.25918538661715013
40
-0.25918538661715013
40
-0.24739221769282424
40
-0.24739221769282424
40
-0.23189469134896809
40
-0.23189469134896809
40
-0.21232517221721986
40
-0.21232517221721986
40
-0.14237351910050028
40
-0.14237351910050028
40
0
40
0
40
0
40
0
10
83.520695014975615
20
38.642723517200217
30
0
10
83.496579796507007
20
38.197554127187054
30
0
10
83.450385817421079
20
37.748501118473989
30
0
10
83.337496216224437
20
37.07518063666307
30
0
10
83.291022706545746
20
36.841466903868607
30
0
10
83.21691698077062
20
36.545064503510858
30
0
10
83.196476269819769
20
36.478131317034688
30
0
10
83.193213824455668
20
36.31880073607816
30
0
10
83.206323240957957
20
36.261845373371891
30
0
10
83.239788674996646
20
36.165995796323003
30
0
10
83.26805616589769
20
36.117130437886971
30
0
10
83.357862870493051
20
36.014711843955709
30
0
10
83.413091510693732
20
35.985281210321546
30
0
10
83.556322012547895
20
35.904502977750781
30
0
10
83.583741515394024
20
35.885818842701163
30
0
10
83.692326300384195
20
35.840355648992919
30
0
10
83.749268278645559
20
35.836114780948527
30
0
10
83.84282070938545
20
35.836384475489815
30
0
10
83.902636174902213
20
35.846235776236156
30
0
10
84.045276161266216
20
35.906101985567666
30
0
10
84.108596616682107
20
35.957311534251716
30
0
10
84.323219363569635
20
36.162614177387361
30
0
10
84.494024156211424
20
36.320119328427168
30
0
10
85.033649532070754
20
36.772922326219309
30
0
10
85.422545267849742
20
37.055985176048765
30
0
10
85.820105161227616
20
37.315158450284457
30
0
0
ARC
5
130
100
AcDbEntity
8
0
100
AcDbCircle
10
68.279668906408958
20
9.5893618038472184
30
0
40
32.808332839218394
210
0
220
-0
230
1
100
AcDbArc
50
62.319064742735222
51
63.680935256650947
0
SPLINE
5
131
100
AcDbEntity
8
0
100
AcDbSpline
70
0
71
3
72
30
73
26
74
0
42
0.000000001
43
0.0000000001
44
0.0000000001
40
-0.31526225372570238
40
-0.31526225372570238
40
-0.31526225372570238
40
-0.31526225372570238
40
-0.29320992192057771
40
-0.29320992192057771
40
-0.28141482062543843
40
-0.28141482062543843
40
-0.27806273349319466
40
-0.27806273349319466
40
-0.27514895940541506
40
-0.27514895940541506
40
-0.27148660585670242
40
-0.27148660585670242
40
-0.26629558505793999
40
-0.26629558505793999
40
-0.25918538661616419
40
-0.25918538661616419
40
-0.24739221769019465
40
-0.24739221769019465
40
-0.2318946913445975
40
-0.2318946913445975
40
-0.2123251722125456
40
-0.2123251722125456
40
-0.14237351909805454
40
-0.14237351909805454
40
0
40
0
40
0
40
0
10
80.400299826601952
20
40.07668719958172
30
0
10
80.422849586056273
20
39.631435767317029
30
0
10
80.423847483346677
20
39.180014132300911
30
0
10
80.381957458443068
20
38.498581994007097
30
0
10
80.360168272848057
20
38.261290764965452
30
0
10
80.317450993413203
20
37.958765930359561
30
0
10
80.304118681939457
20
37.890062774776254
30
0
10
80.317528689374896
20
37.73126400499175
30
0
10
80.336519747668262
20
37.675990956883865
30
0
10
80.379820863543728
20
37.584164544259025
30
0
10
80.413041322996847
20
37.538521632754076
30
0
10
80.513061715308055
20
37.4460514554154
30
0
10
80.5710641461515
20
37.422555010761648
30
0
10
80.721953640778978
20
37.357190954080977
30
0
10
80.751175960681749
20
37.341475291155454
30
0
10
80.863918104652896
20
37.307611350284844
30
0
10
80.920991440221712
20
37.309345771643144
30
0
10
81.01400319020064
20
37.319392880591899
30
0
10
81.072461239010423
20
37.335442633573038
30
0
10
81.20806210573673
20
37.409890828122755
30
0
10
81.265682829637157
20
37.467438635431485
30
0
10
81.457669880871023
20
37.694050795123893
30
0
10
81.611075215592322
20
37.868547078959836
30
0
10
82.100413665663652
20
38.375275785836401
30
0
10
82.457590865211699
20
38.697438661389548
30
0
10
82.82588189981405
20
38.996748482017708
30
0
0
ARC
5
132
100
AcDbEntity
8
0
100
AcDbCircle
10
68.279668906408958
20
9.5893618038472184
30
0
40
32.808332839218394
210
0
220
-0
230
1
100
AcDbArc
50
68.319064742735193
51
69.680935256650201
0
SPLINE
5
133
100
AcDbEntity
8
0
100
AcDbSpline
70
0
71
3
72
30
73
26
74
0
42
0.000000001
43
0.0000000001
44
0.0000000001
40
-0.31526225369238103
40
-0.31526225369238103
40
-0.31526225369238103
40
-0.31526225369238103
40
-0.29320992190169964
40
-0.29320992190169964
40
-0.28141482061345896
40
-0.28141482061345896
40
-0.27806273348316668
40
-0.27806273348316668
40
-0.27514895939676565
40
-0.27514895939676565
40
-0.27148660584911888
40
-0.27148660584911888
40
-0.2662955850519465
40
-0.2662955850519465
40
-0.25918538661100449
40
-0.25918538661100449
40
-0.24739221768505079
40
-0.24739221768505079
40
-0.2318946913399873
40
-0.2318946913399873
40
-0.21232517220880276
40
-0.21232517220880276
40
-0.14237351909614587
40
-0.14237351909614587
40
0
40
0
40
0
40
0
10
77.147108469461557
20
41.176625365044579
30
0
10
77.216076146955089
20
40.736170158425047
30
0
10
77.264254987452588
20
40.287325767043782
30
0
10
77.293823494727832
20
39.605247885374183
30
0
10
77.296957360090275
20
39.366978972416589
30
0
10
77.286096546443432
20
39.061646228920146
30
0
10
77.280018706041574
20
38.991925830382591
30
0
10
77.309954243428649
20
38.835398704336257
30
0
10
77.334618873499238
20
38.782413553908867
30
0
10
77.387281255126027
20
38.695616375087361
30
0
10
77.42509071282484
20
38.653695983803175
30
0
10
77.534228948495183
20
38.572187345675815
30
0
10
77.594369683204349
20
38.554882521965766
30
0
10
77.751264993804554
20
38.505648783419048
30
0
10
77.781969964867926
20
38.493073776734988
30
0
10
77.897634241272641
20
38.471180109130799
30
0
10
77.954213626737427
20
38.478870817207721
30
0
10
78.045665639755498
20
38.498585262331829
30
0
10
78.102125793242934
20
38.520657623092966
30
0
10
78.229201868868529
20
38.608872132861464
30
0
10
78.280491556554423
20
38.672127692985384
30
0
10
78.447739461822522
20
38.917566558987858
30
0
10
78.582064597673863
20
39.107142157818494
30
0
10
79.015754827495485
20
39.662244748027156
30
0
10
79.337300182669793
20
40.019977965422449
30
0
10
79.672287284853979
20
40.356145031413661
30
0
0
ARC
5
134
100
AcDbEntity
8
0
100
AcDbCircle
10
68.279668906408958
20
9.5893618038472184
30
0
40
32.808332839218394
210
0
220
-0
230
1
100
AcDbArc
50
74.319064742735151
51
75.680935256651125
0
SPLINE
5
135
100
AcDbEntity
8
0
100
AcDbSpline
70
0
71
3
72
30
73
26
74
0
42
0.000000001
43
0.0000000001
44
0.0000000001
40
-0.31526225352170645
40
-0.31526225352170645
40
-0.31526225352170645
40
-0.31526225352170645
40
-0.29320992180590871
40
-0.29320992180590871
40
-0.28141482055350497
40
-0.28141482055350497
40
-0.27806273343333821
40
-0.27806273343333821
40
-0.27514895935452971
40
-0.27514895935452971
40
-0.27148660581388195
40
-0.27148660581388195
40
-0.26629558502709805
40
-0.26629558502709805
40
-0.25918538659457357
40
-0.25918538659457357
40
-0.24739221767665631
40
-0.24739221767665631
40
-0.23189469133732035
40
-0.23189469133732035
40
-0.21232517220703279
40
-0.21232517220703279
40
-0.14237351909539539
40
-0.14237351909539539
40
0
40
0
40
0
40
0
10
73.796763588837337
20
41.930486860871099
30
0
10
73.911393560048253
20
41.49965359936003
30
0
10
74.006225486284023
20
41.058304084736292
30
0
10
74.106928566993247
20
40.383053447702792
30
0
10
74.134951148036492
20
40.146417374858004
30
0
10
74.15606579353377
20
39.841622011847875
30
0
10
74.157309014293872
20
39.77164824163674
30
0
10
74.203442101626621
20
39.619107703257036
30
0
10
74.233510072633052
20
39.568990966908494
30
0
10
74.294956739921503
20
39.488173989961567
30
0
10
74.336940947535211
20
39.450435407476462
30
0
10
74.454001285211774
20
39.380781334257208
30
0
10
74.515621409308238
20
39.369857726758688
30
0
10
74.676803558076656
20
39.337293721481728
30
0
10
74.708654770183017
20
39.32799714544938
30
0
10
74.825973936990295
20
39.318313622713909
30
0
10
74.881439476763148
20
39.33187635650139
30
0
10
74.97032978545144
20
39.361042142220626
30
0
10
75.024173454356728
20
39.38889528136572
30
0
10
75.141332466789237
20
39.489909609710466
30
0
10
75.185729177709817
20
39.558179881498333
30
0
10
75.326405533963367
20
39.819756374232718
30
0
10
75.440178776646832
20
40.022334258126293
30
0
10
75.813469185303859
20
40.619728911525769
30
0
10
76.095859777903655
20
41.009113070771264
30
0
10
76.393872758880974
20
41.378454265405082
30
0
0
ARC
5
136
100
AcDbEntity
8
0
100
AcDbCircle
10
68.279668906408958
20
9.5893618038472184
30
0
40
32.808332839218409
210
0
220
-0
230
1
100
AcDbArc
50
80.319064742735208
51
81.680935256650955
0
SPLINE
5
137
100
AcDbEntity
8
0
100
AcDbSpline
70
0
71
3
72
30
73
26
74
0
42
0.000000001
43
0.0000000001
44
0.0000000001
40
-0.31526225362863586
40
-0.31526225362863586
40
-0.31526225362863586
40
-0.31526225362863586
40
-0.29320992186451439
40
-0.29320992186451439
40
-0.28141482058886919
40
-0.28141482058886919
40
-0.27806273346217758
40
-0.27806273346217758
40
-0.27514895937891909
40
-0.27514895937891909
40
-0.2714866058353822
40
-0.2714866058353822
40
-0.26629558504431972
40
-0.26629558504431972
40
-0.25918538660841295
40
-0.25918538660841295
40
-0.24739221768738814
40
-0.24739221768738814
40
-0.2318946913453433
40
-0.2318946913453433
40
-0.21232517221374325
40
-0.21232517221374325
40
-0.14237351909871562
40
-0.14237351909871562
40
0
40
0
40
0
40
0
10
70.385972264346151
20
42.330012222757333
30
0
10
70.54500861934379
20
41.913521205633671
30
0
10
70.685454632902946
20
41.484502085311981
30
0
10
70.856188963002808
20
40.823476880188409
30
0
10
70.90879323845536
20
40.591066281875698
30
0
10
70.961652006612582
20
40.290147701244706
30
0
10
70.970202667549685
20
40.220687206620553
30
0
10
71.032027861054445
20
40.073804522024581
30
0
10
71.067169741993581
20
40.027105289200293
30
0
10
71.136727472438565
20
39.953153961789965
30
0
10
71.182426442203337
20
39.920010659911938
30
0
10
71.306126344338708
20
39.8629742962002
30
0
10
71.368550734855063
20
39.858551586245895
30
0
10
71.532253776349677
20
39.843014092316338
30
0
10
71.564902261005813
20
39.83709780215257
30
0
10
71.682590944901122
20
39.839730518987359
30
0
10
71.736334946923733
20
39.85901668233759
30
0
10
71.821689650433399
20
39.897314262195991
30
0
10
71.872326912255488
20
39.930643014896539
30
0
10
71.978285242851115
20
40.043350427712703
30
0
10
72.015302557345592
20
40.115887427771817
30
0
10
72.127866084988113
20
40.390735660448165
30
0
10
72.219840911048635
20
40.604096343716193
30
0
10
72.52864165069937
20
41.237237879456487
30
0
10
72.768783550298537
20
41.654006806222952
30
0
10
73.026557317493982
20
42.052475550092403
30
0
0
ARC
5
138
100
AcDbEntity
8
0
100
AcDbCircle
10
68.279668906408958
20
9.5893618038472184
30
0
40
32.808332839218409
210
0
220
-0
230
1
100
AcDbArc
50
86.319064742735165
51
87.680935256650741
0
SPLINE
5
139
100
AcDbEntity
8
0
100
AcDbSpline
70
0
71
3
72
30
73
26
74
0
42
0.000000001
43
0.0000000001
44
0.0000000001
40
-0.31526225369031208
40
-0.31526225369031208
40
-0.31526225369031208
40
-0.31526225369031208
40
-0.29320992189981465
40
-0.29320992189981465
40
-0.28141482061008932
40
-0.28141482061008932
40
-0.27806273347937061
40
-0.27806273347937061
40
-0.27514895939294493
40
-0.27514895939294493
40
-0.27148660584626
40
-0.27148660584626
40
-0.26629558505055984
40
-0.26629558505055984
40
-0.2591853866102613
40
-0.2591853866102613
40
-0.24739221768395506
40
-0.24739221768395506
40
-0.2318946913389236
40
-0.2318946913389236
40
-0.21232517220803687
40
-0.21232517220803687
40
-0.1423735190958012
40
-0.1423735190958012
40
0
40
0
40
0
40
0
10
66.952103839493091
20
42.370824167232414
30
0
10
67.153804142682674
20
41.973238557270079
30
0
10
67.338325487644028
20
41.561250254548092
30
0
10
67.5772204660922
20
40.921692811814445
30
0
10
67.6538300925084
20
40.696054027151405
30
0
10
67.737853851605053
20
40.40230915579626
30
0
10
67.753618269887696
20
40.334122960477082
30
0
10
67.83045819981163
20
40.194507407070873
30
0
10
67.870288968890137
20
40.151737324339756
30
0
10
67.947195673428993
20
40.085461872704009
30
0
10
67.996108717868523
20
40.057276976384522
30
0
10
68.125092902448003
20
40.013483224517543
30
0
10
68.187637624697999
20
40.015609868243317
30
0
10
68.352067994144193
20
40.017269117690461
30
0
10
68.385156047717004
20
40.014797933511844
30
0
10
68.501924826848665
20
40.029718045321367
30
0
10
68.553358460587901
20
40.054516334992428
30
0
10
68.634242394917692
20
40.101526112683992
30
0
10
68.681118457222311
20
40.139965322147745
30
0
10
68.774715204344346
20
40.263130973443197
30
0
10
68.8039475529703
20
40.339139971223616
30
0
10
68.887164982437383
20
40.624248649088329
30
0
10
68.956333696433433
20
40.846054507436676
30
0
10
69.197261481563544
20
41.508006094378054
30
0
10
69.392523643258741
20
41.947593581087517
30
0
10
69.607233973324895
20
42.370824167232577
30
0
0
ARC
5
140
100
AcDbEntity
8
0
100
AcDbCircle
10
68.279668906408958
20
9.5893618038472184
30
0
40
32.808332839218394
210
0
220
0
230
1
100
AcDbArc
50
92.319064742735193
51
93.680935256650741
0
SPLINE
5
141
100
AcDbEntity
8
0
100
AcDbSpline
70
0
71
3
72
30
73
26
74
0
42
0.000000001
43
0.0000000001
44
0.0000000001
40
-0.31526225368359839
40
-0.31526225368359839
40
-0.31526225368359839
40
-0.31526225368359839
40
-0.29320992190694534
40
-0.29320992190694534
40
-0.28141482062378159
40
-0.28141482062378159
40
-0.27806273349487981
40
-0.27806273349487981
40
-0.27514895940905465
40
-0.27514895940905465
40
-0.27148660586084472
40
-0.27148660586084472
40
-0.26629558506295831
40
-0.26629558506295831
40
-0.25918538662003776
40
-0.25918538662003776
40
-0.2473922176897175
40
-0.2473922176897175
40
-0.23189469134215249
40
-0.23189469134215249
40
-0.21232517221058714
40
-0.21232517221058714
40
-0.14237351909712018
40
-0.14237351909712018
40
0
40
0
40
0
40
0
10
63.532780495323991
20
42.052475550092261
30
0
10
63.774934875969791
20
41.678151378442649
30
0
10
64.001509897859208
20
41.287707723388692
30
0
10
64.305948141280595
20
40.676625168227154
30
0
10
64.405723767566357
20
40.460230342947071
30
0
10
64.519991935720356
20
40.176877511135757
30
0
10
64.542797393082424
20
40.110712677347138
30
0
10
64.633810185091463
20
39.979893912321529
30
0
10
64.677893448079203
20
39.941521577666741
30
0
10
64.761306520732447
20
39.88364812954611
30
0
10
64.812897738296371
20
39.860730438406677
30
0
10
64.945753027600702
20
39.830659111894555
30
0
10
65.007732828517689
20
39.839311809346007
30
0
10
65.171088992396221
20
39.858149623083243
30
0
10
65.204254095236621
20
39.859150619702788
30
0
10
65.318823626420382
20
39.886194658619324
30
0
10
65.367383374222342
20
39.916233379360229
30
0
10
65.442910358071927
20
39.971440305927182
30
0
10
65.485511636909351
20
40.014568824134074
30
0
10
65.565721335002635
20
40.146843285254278
30
0
10
65.586848442031055
20
40.22549151026876
30
0
10
65.639808025750824
20
40.517736922984952
30
0
10
65.685412800777627
20
40.745557805013384
30
0
10
65.855827976150408
20
41.429066963034309
30
0
10
66.004071066835309
20
41.886656797193069
30
0
10
66.173365548471793
20
42.330012222757496
30
0
0
ARC
5
142
100
AcDbEntity
8
0
100
AcDbCircle
10
68.279668906408958
20
9.5893618038472184
30
0
40
32.808332839218409
210
0
220
0
230
1
100
AcDbArc
50
98.319064742735236
51
99.680935256651026
0
SPLINE
5
143
100
AcDbEntity
8
0
100
AcDbSpline
70
0
71
3
72
30
73
26
74
0
42
0.000000001
43
0.0000000001
44
0.0000000001
40
-0.3152622536029856
40
-0.3152622536029856
40
-0.3152622536029856
40
-0.3152622536029856
40
-0.29320992185422168
40
-0.29320992185422168
40
-0.28141482058655087
40
-0.28141482058655087
40
-0.27806273346208804
40
-0.27806273346208804
40
-0.27514895937991335
40
-0.27514895937991335
40
-0.27148660583571621
40
-0.27148660583571621
40
-0.2662955850436956
40
-0.2662955850436956
40
-0.25918538660672535
40
-0.25918538660672535
40
-0.24739221768419226
40
-0.24739221768419226
40
-0.23189469134149071
40
-0.23189469134149071
40
-0.21232517221035285
40
-0.21232517221035285
40
-0.14237351909692347
40
-0.14237351909692347
40
0
40
0
40
0
40
0
10
60.165465053937019
20
41.37845426540494
30
0
10
60.44542041797493
20
41.031492706016465
30
0
10
60.71156671344761
20
40.666871481004648
30
0
10
61.078212732740425
20
40.090958961758218
30
0
10
61.200061196248335
20
39.886178962864761
30
0
10
61.343321827488928
20
39.616322643538155
30
0
10
61.372918462568023
20
39.5529040870438
30
0
10
61.477106961456833
20
39.432315388184051
30
0
10
61.52495973289254
20
39.398761216930509
30
0
10
61.613965282595586
20
39.349923845917864
30
0
10
61.667669429108336
20
39.332524450978063
30
0
10
61.802940232783641
20
39.316505017566634
30
0
10
61.863676048697158
20
39.331588967978099
30
0
10
62.024168242719242
20
39.367398954981503
30
0
10
62.057047031004529
20
39.371861165268598
30
0
10
62.168162066474501
20
39.410732831139335
30
0
10
62.213315897578561
20
39.445682872438624
30
0
10
62.282658441524944
20
39.508482089252638
30
0
10
62.320518188363693
20
39.555827391138862
30
0
10
62.386462043182163
20
39.695761435386231
30
0
10
62.39925243560868
20
39.776187201229938
30
0
10
62.421373937299443
20
40.072367446897331
30
0
10
62.442915117898067
20
40.303707299347984
30
0
10
62.540950579192007
20
41.001285359083482
30
0
10
62.640550416543867
20
41.471864090712586
30
0
10
62.7625742239806
20
41.930486860871241
30
0
0
ARC
5
144
100
AcDbEntity
8
0
100
AcDbCircle
10
68.279668906408958
20
9.5893618038472184
30
0
40
32.808332839218394
210
0
220
0
230
1
100
AcDbArc
50
104.31906474273518
51
105.68093525665068
0
SPLINE
5
145
100
AcDbEntity
8
0
100
AcDbSpline
70
0
71
3
72
30
73
26
74
0
42
0.000000001
43
0.0000000001
44
0.0000000001
40
-0.31526225357168253
40
-0.31526225357168253
40
-0.31526225357168253
40
-0.31526225357168253
40
-0.29320992184552908
40
-0.29320992184552908
40
-0.28141482058763612
40
-0.28141482058763612
40
-0.27806273346584692
40
-0.27806273346584692
40
-0.27514895938483463
40
-0.27514895938483463
40
-0.27148660583952572
40
-0.27148660583952572
40
-0.26629558504581008
40
-0.26629558504581008
40
-0.25918538660784307
40
-0.25918538660784307
40
-0.24739221768502259
40
-0.24739221768502259
40
-0.23189469134188495
40
-0.23189469134188495
40
-0.21232517221062347
40
-0.21232517221062347
40
-0.14237351909707885
40
-0.14237351909707885
40
0
40
0
40
0
40
0
10
56.887050527964064
20
40.356145031413519
30
0
10
57.201739625826406
20
40.040347467752007
30
0
10
57.50454124034934
20
39.705543539256063
30
0
10
57.929377984997757
20
39.171110874019774
30
0
10
58.071964288482292
20
38.980189314007248
30
0
10
58.242647789379411
20
38.726786109433945
30
0
10
58.278711335245902
20
38.666808657212158
30
0
10
58.394934030039281
20
38.557771219519026
30
0
10
58.446032024951279
20
38.529402838196063
30
0
10
58.539654888253182
20
38.490136616757169
30
0
10
58.5948835698468
20
38.478446149429701
30
0
10
58.731087832664102
20
38.476654121384115
30
0
10
58.789914229267396
20
38.498004061840767
30
0
10
58.945784067332369
20
38.550393880390992
30
0
10
58.978016314199863
20
38.558268415439244
30
0
10
59.084459454385261
20
38.608541822163225
30
0
10
59.125712653969813
20
38.648020264055731
30
0
10
59.188111026575811
20
38.717723729746034
30
0
10
59.220814442111163
20
38.768767090271545
30
0
10
59.271769958988742
20
38.914827570989431
30
0
10
59.276083502596478
20
38.996149716136451
30
0
10
59.267124554456522
20
39.293019782005473
30
0
10
59.26436613094468
20
39.525343997043912
30
0
10
59.288947781130652
20
40.229348147294019
30
0
10
59.338813128488503
20
40.707760017333555
30
0
10
59.412229343356373
20
41.176625365044728
30
0
0
ARC
5
146
100
AcDbEntity
8
0
100
AcDbCircle
10
68.279668906408958
20
9.5893618038472184
30
0
40
32.808332839218394
210
0
220
0
230
1
100
AcDbArc
50
110.31906474273521
51
111.68093525665086
0
SPLINE
5
147
100
AcDbEntity
8
0
100
AcDbSpline
70
0
71
3
72
30
73
26
74
0
42
0.000000001
43
0.0000000001
44
0.0000000001
40
-0.31526225356345683
40
-0.31526225356345683
40
-0.31526225356345683
40
-0.31526225356345683
40
-0.29320992183773231
40
-0.29320992183773231
40
-0.28141482058044798
40
-0.28141482058044798
40
-0.27806273345887134
40
-0.27806273345887134
40
-0.27514895937839384
40
-0.27514895937839384
40
-0.27148660583452583
40
-0.27148660583452583
40
-0.26629558504299011
40
-0.26629558504299011
40
-0.25918538660653923
40
-0.25918538660653923
40
-0.2473922176847107
40
-0.2473922176847107
40
-0.2318946913424102
40
-0.2318946913424102
40
-0.21232517221123801
40
-0.21232517221123801
40
-0.14237351909749413
40
-0.14237351909749413
40
0
40
0
40
0
40
0
10
53.733455913003965
20
38.996748482017594
30
0
10
54.079430945101841
20
38.715574858253262
30
0
10
54.415570320841638
20
38.414256408147232
30
0
10
54.893943190567583
20
37.927158953026876
30
0
10
55.055705128631828
20
37.752187608486516
30
0
10
55.251941455008335
20
37.51801385724125
30
0
10
55.294076791908971
20
37.462134634807519
30
0
10
55.421060322411819
20
37.365843095296597
30
0
10
55.474843700464113
20
37.342971313816022
30
0
10
55.572058125719238
20
37.313706450871152
30
0
10
55.628206245401358
20
37.307852994361859
30
0
10
55.763851684952222
20
37.320308005515741
30
0
10
55.820124147932297
20
37.347690021599995
30
0
10
55.969663887507281
20
37.416085677892738
30
0
10
56.000896449696818
20
37.427286262642951
30
0
10
56.10150148127061
20
37.488410604250419
30
0
10
56.138402070648254
20
37.531984912664534
30
0
10
56.193172622289225
20
37.607828941477663
30
0
10
56.22036140105606
20
37.662011118903237
30
0
10
56.25577030068726
20
37.812597766897738
30
0
10
56.251559735389769
20
37.893925308911051
30
0
10
56.211618493529599
20
38.188232624415065
30
0
10
56.184590687772655
20
38.418995809324237
30
0
10
56.135449205147225
20
39.121712833296449
30
0
10
56.135033727330423
20
39.602716261183204
30
0
10
56.159037986215942
20
40.076687199581862
30
0
0
ARC
5
148
100
AcDbEntity
8
0
100
AcDbCircle
10
68.279668906408958
20
9.5893618038472184
30
0
40
32.808332839218394
210
0
220
0
230
1
100
AcDbArc
50
116.31906474273522
51
117.68093525665027
0
SPLINE
5
149
100
AcDbEntity
8
0
100
AcDbSpline
70
0
71
3
72
30
73
26
74
0
42
0.000000001
43
0.0000000001
44
0.0000000001
40
-0.31526225364808697
40
-0.31526225364808697
40
-0.31526225364808697
40
-0.31526225364808697
40
-0.29320992188097272
40
-0.29320992188097272
40
-0.2814148206040939
40
-0.2814148206040939
40
-0.27806273347704746
40
-0.27806273347704746
40
-0.2751489593933365
40
-0.2751489593933365
40
-0.27148660584885292
40
-0.27148660584885292
40
-0.26629558505650031
40
-0.26629558505650031
40
-0.25918538661765628
40
-0.25918538661765628
40
-0.24739221769053599
40
-0.24739221769053599
40
-0.2318946913451328
40
-0.2318946913451328
40
-0.21232517221378785
40
-0.21232517221378785
40
-0.14237351909891338
40
-0.14237351909891338
40
0
40
0
40
0
40
0
10
50.73923265159042
20
37.315158450284329
30
0
10
51.112703043084338
20
37.071689363472892
30
0
10
51.478497366726543
20
36.807157699731512
30
0
10
52.005165208267982
20
36.372732196366314
30
0
10
52.18433048324777
20
36.215628089979354
30
0
10
52.403969628820974
20
36.003249448705922
30
0
10
52.451715113189543
20
35.952080680513262
30
0
10
52.588068221241357
20
35.86959002945602
30
0
10
52.643947720483737
20
35.852465435832009
30
0
10
52.743688606138512
20
35.833522563339763
30
0
10
52.800140993359562
20
35.833570249343452
30
0
10
52.933741449822008
20
35.860135839987777
30
0
10
52.986843446299268
20
35.893249928601477
30
0
10
53.128414698700212
20
35.976902065515432
30
0
10
53.158305385727147
20
35.991305984016179
30
0
10
53.251970058912086
20
36.06261156942935
30
0
10
53.28411374750327
20
36.109804335123464
30
0
10
53.330656400545067
20
36.190957963993711
30
0
10
53.352032656599476
20
36.24768532704217
30
0
10
53.371506991672916
20
36.401148283502195
30
0
10
53.358818449304373
20
36.481590180812688
30
0
10
53.288332518328545
20
36.770110253415652
30
0
10
53.237331452621916
20
36.996784118451572
30
0
10
53.115005241552609
20
37.690514901376048
30
0
10
53.064313490623157
20
38.16883991289675
30
0
10
53.03864279784225
20
38.64272351720038
30
0
0
ARC
5
150
100
AcDbEntity
8
0
100
AcDbCircle
10
68.279668906408958
20
9.5893618038472184
30
0
40
32.808332839218394
210
0
220
0
230
1
100
AcDbArc
50
122.31906474273521
51
123.68093525665077
0
SPLINE
5
151
100
AcDbEntity
8
0
100
AcDbSpline
70
0
71
3
72
30
73
26
74
0
42
0.000000001
43
0.0000000001
44
0.0000000001
40
-0.31526225365704807
40
-0.31526225365704807
40
-0.31526225365704807
40
-0.31526225365704807
40
-0.29320992189006029
40
-0.29320992189006029
40
-0.28141482061385265
40
-0.28141482061385265
40
-0.2780627334869486
40
-0.2780627334869486
40
-0.27514895940257544
40
-0.27514895940257544
40
-0.27148660585531931
40
-0.27148660585531931
40
-0.2662955850587842
40
-0.2662955850587842
40
-0.25918538661758223
40
-0.25918538661758223
40
-0.24739221769004199
40
-0.24739221769004199
40
-0.23189469134399754
40
-0.23189469134399754
40
-0.21232517221241293
40
-0.21232517221241293
40
-0.14237351909808327
40
-0.14237351909808327
40
0
40
0
40
0
40
0
10
47.937186080356909
20
35.329798788496767
30
0
10
48.334060011475287
20
35.12670173691204
30
0
10
48.725501563841512
20
34.901855123821377
30
0
10
49.29469409411179
20
34.524861228945198
30
0
10
49.489299733776242
20
34.387345626159949
30
0
10
49.729935286124814
20
34.199088959670235
30
0
10
49.782767808441491
20
34.153191261452065
30
0
10
49.926996580911016
20
34.085405283649919
30
0
10
49.984359973869047
20
34.074215498533356
30
0
10
50.085534537843571
20
34.065802158583736
30
0
10
50.141672688436003
20
34.07175046464284
30
0
10
50.271764407256612
20
34.112135576609845
30
0
10
50.321114140646571
20
34.150618932872504
30
0
10
50.453165821562308
20
34.248611040060524
30
0
10
50.481387144831096
20
34.266060479982144
30
0
10
50.567085249877607
20
34.346766070296589
30
0
10
50.59411986470451
20
34.397060239455854
30
0
10
50.631924688107986
20
34.482634332255778
30
0
10
50.647254218709691
20
34.541285364070234
30
0
10
50.65058062432886
20
34.69594325671374
30
0
10
50.62955312321612
20
34.774618171054954
30
0
10
50.529294761733539
20
35.054189914465937
30
0
10
50.454879214426292
20
35.274290973328547
30
0
10
50.260708506479723
20
35.951434855577993
30
0
10
50.16029587186879
20
36.421840821814691
30
0
10
50.085231480903794
20
36.890445124080543
30
0
0
ARC
5
152
100
AcDbEntity
8
0
100
AcDbCircle
10
68.279668906408958
20
9.5893618038472184
30
0
40
32.808332839218401
210
0
220
0
230
1
100
AcDbArc
50
128.31906474273521
51
129.68093525665097
0
SPLINE
5
153
100
AcDbEntity
8
0
100
AcDbSpline
70
0
71
3
72
30
73
26
74
0
42
0.000000001
43
0.0000000001
44
0.0000000001
40
-0.31526225373416017
40
-0.31526225373416017
40
-0.31526225373416017
40
-0.31526225373416017
40
-0.29320992193510897
40
-0.29320992193510897
40
-0.28141482064280587
40
-0.28141482064280587
40
-0.27806273351133443
40
-0.27806273351133443
40
-0.27514895942350437
40
-0.27514895942350437
40
-0.27148660587302709
40
-0.27148660587302709
40
-0.26629558507170664
40
-0.26629558507170664
40
-0.25918538662678264
40
-0.25918538662678264
40
-0.24739221769595471
40
-0.24739221769595471
40
-0.23189469134733159
40
-0.23189469134733159
40
-0.21232517221495539
40
-0.21232517221495539
40
-0.14237351909936599
40
-0.14237351909936599
40
0
40
0
40
0
40
0
10
45.358016007903842
20
33.062421512572627
30
0
10
45.773945244818577
20
32.90192167000987
30
0
10
46.186745310358631
20
32.719223574110423
30
0
10
46.79222633687889
20
32.403791711727756
30
0
10
47.000140201107982
20
32.287371262267904
30
0
10
47.259135706753106
20
32.125299149999442
30
0
10
47.316476422848325
20
32.085175386542119
30
0
10
47.467000659091198
20
32.03283675936872
30
0
10
47.525219460421404
20
32.027704380375432
30
0
10
47.626719213058152
20
32.029912751277358
30
0
10
47.681928065696212
20
32.041696506505964
30
0
10
47.807085734779079
20
32.095458672058179
30
0
10
47.852142519074889
20
32.138889664265129
30
0
10
47.973227842665892
20
32.250148119693229
30
0
10
47.999470603447278
20
32.27045190132165
30
0
10
48.076263213980184
20
32.359673269201423
30
0
10
48.097892558144878
20
32.41251780838374
30
0
10
48.126545354351379
20
32.501574797438344
30
0
10
48.135660205957663
20
32.561506905039749
30
0
10
48.122802237326582
20
32.715665269637213
30
0
10
48.093666159173054
20
32.791711222184048
30
0
10
47.96473381877226
20
33.059271589878222
30
0
10
47.867719102173076
20
33.270388369307625
30
0
10
47.60383127226001
20
33.923526420802077
30
0
10
47.454797895804703
20
34.38085947554768
30
0
10
47.33116222782995
20
34.839050348985296
30
0
0
ARC
5
154
100
AcDbEntity
8
0
100
AcDbCircle
10
68.279668906408958
20
9.5893618038472184
30
0
40
32.808332839218394
210
0
220
0
230
1
100
AcDbArc
50
134.31906474273521
51
135.68093525665103
0
SPLINE
5
155
100
AcDbEntity
8
0
100
AcDbSpline
70
0
71
3
72
30
73
26
74
0
42
0.000000001
43
0.0000000001
44
0.0000000001
40
-0.31526225373817734
40
-0.31526225373817734
40
-0.31526225373817734
40
-0.31526225373817734
40
-0.29320992191279027
40
-0.29320992191279027
40
-0.28141482061036854
40
-0.28141482061036854
40
-0.27806273347612143
40
-0.27806273347612143
40
-0.27514895938727602
40
-0.27514895938727602
40
-0.27148660583853368
40
-0.27148660583853368
40
-0.26629558503956918
40
-0.26629558503956918
40
-0.25918538659913454
40
-0.25918538659913454
40
-0.24739221767709596
40
-0.24739221767709596
40
-0.23189469133409524
40
-0.23189469133409524
40
-0.21232517220325797
40
-0.21232517220325797
40
-0.14237351909334234
40
-0.14237351909334234
40
0
40
0
40
0
40
0
10
43.029980361271036
20
30.537868482426159
30
0
10
43.460407896251496
20
30.421724318744406
30
0
10
43.890043751099
20
30.28317641859903
30
0
10
44.525179497048271
20
30.032762526189408
30
0
10
44.744123638004147
20
29.938712756871464
30
0
10
45.018641487944663
20
29.80460089481657
30
0
10
45.079862160936898
20
29.770690670468419
30
0
10
45.235032685896513
20
29.734372826879188
30
0
10
45.293469038227499
20
29.735354085418827
30
0
10
45.394181927018806
20
29.748159971803897
30
0
10
45.447856601959913
20
29.765650070913576
30
0
10
45.566708967689927
20
29.832200260513954
30
0
10
45.606979151333491
20
29.880103049624704
30
0
10
45.715771481471421
20
30.003408882380832
30
0
10
45.739748158577356
20
30.026344553231699
30
0
10
45.80679391868177
20
30.123104170695992
30
0
10
45.822781016563127
20
30.177920104070775
30
0
10
45.841967859548596
20
30.269484262395963
30
0
10
45.844768167928024
20
30.330040817073829
30
0
10
45.815866699646634
20
30.482010662297295
30
0
10
45.778941265420983
20
30.554594477683072
30
0
10
45.622747555804835
20
30.807212022280318
30
0
10
45.504196583450138
20
31.007031482662018
30
0
10
45.173482841847566
20
31.629007786251929
30
0
10
44.97746156440931
20
32.068257292858064
30
0
10
44.806609197683471
20
32.51101470235249
30
0
0
ARC
5
156
100
AcDbEntity
8
0
100
AcDbCircle
10
68.279668906408958
20
9.5893618038472184
30
0
40
32.808332839218401
210
0
220
0
230
1
100
AcDbArc
50
140.31906474273524
51
141.68093525665091
0
SPLINE
5
157
100
AcDbEntity
8
0
100
AcDbSpline
70
0
71
3
72
30
73
26
74
0
42
0.000000001
43
0.0000000001
44
0.0000000001
40
-0.31526225368980598
40
-0.31526225368980598
40
-0.31526225368980598
40
-0.31526225368980598
40
-0.29320992189705719
40
-0.29320992189705719
40
-0.28141482060790413
40
-0.28141482060790413
40
-0.27806273347739158
40
-0.27806273347739158
40
-0.27514895939141309
40
-0.27514895939141309
40
-0.27148660584570788
40
-0.27148660584570788
40
-0.26629558505147821
40
-0.26629558505147821
40
-0.25918538661224161
40
-0.25918538661224161
40
-0.24739221768668279
40
-0.24739221768668279
40
-0.23189469134205734
40
-0.23189469134205734
40
-0.21232517221068967
40
-0.21232517221068967
40
-0.14237351909708434
40
-0.14237351909708434
40
0
40
0
40
0
40
0
10
40.978585586175775
20
27.783799229352354
30
0
10
41.418795564986553
20
27.713283244338189
30
0
10
41.860560028700476
20
27.620403499772152
30
0
10
42.518391813923273
20
27.437751164370816
30
0
10
42.745967433872707
20
27.367102504111166
30
0
10
43.032999953217193
20
27.262420249842684
30
0
10
43.09742983659207
20
27.235095092120815
30
0
10
43.255546569566036
20
27.215195937994409
30
0
10
43.313560231997869
20
27.22228008320711
30
0
10
43.41238282541596
20
27.245543181100693
30
0
10
43.46393525168979
20
27.268547998904875
30
0
10
43.575180142671726
20
27.347157074744505
30
0
10
43.610222517103885
20
27.399006827771206
30
0
10
43.705529902298856
20
27.533009073408227
30
0
10
43.726977802208928
20
27.558325345438732
30
0
10
43.783542144497844
20
27.661563093850219
30
0
10
43.793711838106475
20
27.717749846578652
30
0
10
43.803222512798982
20
27.810817978069604
30
0
10
43.799677597199043
20
27.87133550953569
30
0
10
43.755049279799522
20
28.019451821992007
30
0
10
43.710739052282378
20
28.087778256752131
30
0
10
43.528995264420288
20
28.322685247568788
30
0
10
43.390206905571617
20
28.509018125079887
30
0
10
42.996290621252413
20
29.093018178198609
30
0
10
42.755429092964135
20
29.509371627149044
30
0
10
42.539231921759331
20
29.931844629899405
30
0
0
ARC
5
158
100
AcDbEntity
8
0
100
AcDbCircle
10
68.279668906408958
20
9.5893618038472184
30
0
40
32.808332839218394
210
0
220
0
230
1
100
AcDbArc
50
146.31906474273521
51
147.68093525665074
0
SPLINE
5
159
100
AcDbEntity
8
0
100
AcDbSpline
70
0
71
3
72
30
73
26
74
0
42
0.000000001
43
0.0000000001
44
0.0000000001
40
-0.31526225360473259
40
-0.31526225360473259
40
-0.31526225360473259
40
-0.31526225360473259
40
-0.29320992185643441
40
-0.29320992185643441
40
-0.28141482058838452
40
-0.28141482058838452
40
-0.27806273346379945
40
-0.27806273346379945
40
-0.2751489593816468
40
-0.2751489593816468
40
-0.27148660583785372
40
-0.27148660583785372
40
-0.2662955850465144
40
-0.2662955850465144
40
-0.25918538660889989
40
-0.25918538660889989
40
-0.24739221768370054
40
-0.24739221768370054
40
-0.2318946913397919
40
-0.2318946913397919
40
-0.21232517220910055
40
-0.21232517220910055
40
-0.14237351909629764
40
-0.14237351909629764
40
0
40
0
40
0
40
0
10
39.226307193055959
20
24.830387912413883
30
0
10
39.671476583039933
20
24.806272693946873
30
0
10
40.120529591727198
20
24.760078714865156
30
0
10
40.793850073539808
20
24.647189113673459
30
0
10
41.027563806357215
20
24.600715603990608
30
0
10
41.32396620674642
20
24.526609878208909
30
0
10
41.390899393220259
20
24.506169167258083
30
0
10
41.550229974221878
20
24.502906721893023
30
0
10
41.607185336928737
20
24.516016138411743
30
0
10
41.70303491393318
20
24.54948157243491
30
0
10
41.751900272369284
20
24.577749063336
30
0
10
41.854318866300986
20
24.66755576793183
30
0
10
41.883749499935128
20
24.722784408132906
30
0
10
41.964527732503569
20
24.866014909982816
30
0
10
41.983211867554687
20
24.893434412831368
30
0
10
42.028675061263321
20
25.00201919782284
30
0
10
42.032915929307734
20
25.058961176084424
30
0
10
42.03264623476629
20
25.152513606820868
30
0
10
42.022794934021341
20
25.212329072337614
30
0
10
41.962928724688169
20
25.354969058704974
30
0
10
41.911719176004311
20
25.418289514120577
30
0
10
41.706416532868573
20
25.632912261007998
30
0
10
41.548911381828901
20
25.803717053649756
30
0
10
41.096108384029044
20
26.343342429518479
30
0
10
40.813045534199759
20
26.73223816529973
30
0
10
40.55387225997174
20
27.129798058665877
30
0
0
ARC
5
160
100
AcDbEntity
8
0
100
AcDbCircle
10
68.279668906408958
20
9.5893618038472184
30
0
40
32.808332839218394
210
0
220
0
230
1
100
AcDbArc
50
152.31906474273524
51
153.6809352566504
0
SPLINE
5
161
100
AcDbEntity
8
0
100
AcDbSpline
70
0
71
3
72
30
73
26
74
0
42
0.000000001
43
0.0000000001
44
0.0000000001
40
-0.31526225363463783
40
-0.31526225363463783
40
-0.31526225363463783
40
-0.31526225363463783
40
-0.2932099218778968
40
-0.2932099218778968
40
-0.28141482060623535
40
-0.28141482060623535
40
-0.27806273348062716
40
-0.27806273348062716
40
-0.27514895939740786
40
-0.27514895939740786
40
-0.27148660585173162
40
-0.27148660585173162
40
-0.26629558505757012
40
-0.26629558505757012
40
-0.25918538661815588
40
-0.25918538661815588
40
-0.2473922176920712
40
-0.2473922176920712
40
-0.23189469134693105
40
-0.23189469134693105
40
-0.2123251722150116
40
-0.2123251722150116
40
-0.14237351909934678
40
-0.14237351909934678
40
0
40
0
40
0
40
0
10
37.792343510674456
20
21.709992724040212
30
0
10
38.23759494290519
20
21.7325424834928
30
0
10
38.689016577884921
20
21.733540380784795
30
0
10
39.370448716177826
20
21.691650355888097
30
0
10
39.607739945250572
20
21.669861170290766
30
0
10
39.910264779896949
20
21.627143890851769
30
0
10
39.978967935477087
20
21.613811579377973
30
0
10
40.137766705291554
20
21.627221586815011
30
0
10
40.193039753398843
20
21.646212645119441
30
0
10
40.284866165994032
20
21.689513760979999
30
0
10
40.330509077499372
20
21.72273422043282
30
0
10
40.42297925483588
20
21.822754612740045
30
0
10
40.446475699490549
20
21.880757043580026
30
0
10
40.511839756188536
20
22.03164653824868
30
0
10
40.527555419102576
20
22.060868858128224
30
0
10
40.561419359970969
20
22.173611002086542
30
0
10
40.559684938613181
20
22.230684337653948
30
0
10
40.549637829665684
20
22.323696087632065
30
0
10
40.533588076685909
20
22.382154136441837
30
0
10
40.459139882136057
20
22.517755003172496
30
0
10
40.401592074823391
20
22.575375727076498
30
0
10
40.174979915132234
20
22.767362778309352
30
0
10
40.000483631296326
20
22.920768113030636
30
0
10
39.49375492442244
20
23.41010656309928
30
0
10
39.171592048869357
20
23.76728376264662
30
0
10
38.872282228238468
20
24.135574797252307
30
0
0
ARC
5
162
100
AcDbEntity
8
0
100
AcDbCircle
10
68.279668906408958
20
9.5893618038472184
30
0
40
32.808332839218394
210
0
220
0
230
1
100
AcDbArc
50
158.31906474273521
51
159.68093525665066
0
SPLINE
5
163
100
AcDbEntity
8
0
100
AcDbSpline
70
0
71
3
72
30
73
26
74
0
42
0.000000001
43
0.0000000001
44
0.0000000001
40
-0.31526225365787436
40
-0.31526225365787436
40
-0.31526225365787436
40
-0.31526225365787436
40
-0.29320992189086448
40
-0.29320992189086448
40
-0.28141482061431589
40
-0.28141482061431589
40
-0.27806273348729804
40
-0.27806273348729804
40
-0.27514895940280792
40
-0.27514895940280792
40
-0.27148660585537587
40
-0.27148660585537587
40
-0.26629558505850692
40
-0.26629558505850692
40
-0.25918538661816243
40
-0.25918538661816243
40
-0.24739221769339634
40
-0.24739221769339634
40
-0.23189469134848625
40
-0.23189469134848625
40
-0.21232517221619784
40
-0.21232517221619784
40
-0.14237351909997562
40
-0.14237351909997562
40
0
40
0
40
0
40
0
10
36.692405345211618
20
18.456801366899825
30
0
10
37.132860551820158
20
18.52576904439163
30
0
10
37.581704943187901
20
18.573947884888117
30
0
10
38.263782824854822
20
18.60351639216579
30
0
10
38.502051737824274
20
18.606650257528617
30
0
10
38.807384481336896
20
18.595789443881792
30
0
10
38.877104879873379
20
18.589711603479703
30
0
10
39.033632005944568
20
18.619647140871688
30
0
10
39.086617156370295
20
18.644311770951454
30
0
10
39.173414335168673
20
18.696974152564181
30
0
10
39.215334726453044
20
18.734783610263079
30
0
10
39.296843364580596
20
18.843921845933828
30
0
10
39.314148188290581
20
18.904062580643156
30
0
10
39.363381926836695
20
19.060957891241394
30
0
10
39.375956933521209
20
19.091662862305981
30
0
10
39.397850601125448
20
19.207327138711797
30
0
10
39.390159893048356
20
19.263906524176647
30
0
10
39.370445447922918
20
19.355358537199699
30
0
10
39.348373087159729
20
19.411818690686523
30
0
10
39.260158577394108
20
19.538894766307266
30
0
10
39.196903017270998
20
19.590184453992553
30
0
10
38.95146415126824
20
19.757432359260786
30
0
10
38.761888552437675
20
19.891757495112159
30
0
10
38.206785962238001
20
20.325447724926654
30
0
10
37.849052744842773
20
20.646993080099023
30
0
10
37.51288567884253
20
20.981980182292233
30
0
0
ARC
5
164
100
AcDbEntity
8
0
100
AcDbCircle
10
68.279668906408958
20
9.5893618038472184
30
0
40
32.808332839218394
210
0
220
0
230
1
100
AcDbArc
50
164.31906474273524
51
165.68093525665108
0
SPLINE
5
165
100
AcDbEntity
8
0
100
AcDbSpline
70
0
71
3
72
30
73
26
74
0
42
0.000000001
43
0.0000000001
44
0.0000000001
40
-0.31526225359567978
40
-0.31526225359567978
40
-0.31526225359567978
40
-0.31526225359567978
40
-0.29320992184450995
40
-0.29320992184450995
40
-0.28141482057568418
40
-0.28141482057568418
40
-0.27806273345089488
40
-0.27806273345089488
40
-0.27514895936885603
40
-0.27514895936885603
40
-0.27148660582581563
40
-0.27148660582581563
40
-0.2662955850353777
40
-0.2662955850353777
40
-0.25918538660096635
40
-0.25918538660096635
40
-0.24739221768310155
40
-0.24739221768310155
40
-0.23189469134294891
40
-0.23189469134294891
40
-0.21232517221164929
40
-0.21232517221164929
40
-0.14237351909774765
40
-0.14237351909774765
40
0
40
0
40
0
40
0
10
35.938543849385098
20
15.106456486275604
30
0
10
36.369377110928141
20
15.221086457495021
30
0
10
36.810726625587179
20
15.315918383736843
30
0
10
37.485977262625681
20
15.416621464439878
30
0
10
37.72261333543927
20
15.444644045478881
30
0
10
38.027408698408379
20
15.465758690971674
30
0
10
38.09738246862274
20
15.467001911732519
30
0
10
38.249923006984034
20
15.513134999060867
30
0
10
38.300039743334281
20
15.543202970060719
30
0
10
38.380856720296919
20
15.604649637362044
30
0
10
38.418595302781512
20
15.646633844975861
30
0
10
38.488249376001676
20
15.763694182655527
30
0
10
38.499172983498973
20
15.825314306754672
30
0
10
38.531736988769282
20
15.986496455488176
30
0
10
38.541033564806725
20
16.018347667614655
30
0
10
38.550717087541813
20
16.135666834432655
30
0
10
38.537154353753571
20
16.191132374206376
30
0
10
38.507988568033085
20
16.280022682895616
30
0
10
38.480135428886598
20
16.33386635180053
30
0
10
38.37912110054333
20
16.451025364228933
30
0
10
38.310850828759094
20
16.495422075147438
30
0
10
38.049274336023508
20
16.636098431401543
30
0
10
37.846696452129933
20
16.749871674085096
30
0
10
37.249301798736667
20
17.123162082738183
30
0
10
36.85991763949103
20
17.405552675337006
30
0
10
36.490576444851101
20
17.703565656319245
30
0
0
ARC
5
166
100
AcDbEntity
8
0
100
AcDbCircle
10
68.279668906408958
20
9.5893618038472184
30
0
40
32.808332839218394
210
0
220
0
230
1
100
AcDbArc
50
170.31906474273526
51
171.68093525665108
0
SPLINE
5
167
100
AcDbEntity
8
0
100
AcDbSpline
70
0
71
3
72
30
73
26
74
0
42
0.000000001
43
0.0000000001
44
0.0000000001
40
-0.31526225364303295
40
-0.31526225364303295
40
-0.31526225364303295
40
-0.31526225364303295
40
-0.29320992188266015
40
-0.29320992188266015
40
-0.28141482060847989
40
-0.28141482060847989
40
-0.27806273348213323
40
-0.27806273348213323
40
-0.27514895939825329
40
-0.27514895939825329
40
-0.2714866058518024
40
-0.2714866058518024
40
-0.26629558505645329
40
-0.26629558505645329
40
-0.25918538661671797
40
-0.25918538661671797
40
-0.24739221769144859
40
-0.24739221769144859
40
-0.2318946913465707
40
-0.2318946913465707
40
-0.21232517221477307
40
-0.21232517221477307
40
-0.14237351909940493
40
-0.14237351909940493
40
0
40
0
40
0
40
0
10
35.539018487498851
20
11.695665161784405
30
0
10
35.955509504619059
20
11.854701516780711
30
0
10
36.384528624931427
20
11.995147530336961
30
0
10
37.045553830052931
20
12.165881860437741
30
0
10
37.277964428371959
20
12.218486135891835
30
0
10
37.5788830090125
20
12.2713449040511
30
0
10
37.648343503636141
20
12.279895564987886
30
0
10
37.795226188255988
20
12.341720758503206
30
0
10
37.841925421076695
20
12.376862639451119
30
0
10
37.915876748467632
20
12.446420369878538
30
0
10
37.949020050345311
20
12.492119339643327
30
0
10
38.006056414057369
20
12.615819241780766
30
0
10
38.010479124010672
20
12.678243632298614
30
0
10
38.026016617938289
20
12.841946673769966
30
0
10
38.031932908104011
20
12.874595158439632
30
0
10
38.029300191268277
20
12.992283842341678
30
0
10
38.010014027917606
20
13.046027844364465
30
0
10
37.9717164480641
20
13.131382547862618
30
0
10
37.93838769536714
20
13.182019809686976
30
0
10
37.825680282542677
20
13.287978140289781
30
0
10
37.753143282484452
20
13.324995454783849
30
0
10
37.478295049807841
20
13.437558982426346
30
0
10
37.264934366539926
20
13.529533808486928
30
0
10
36.631792830799839
20
13.838334548137558
30
0
10
36.215023904035178
20
14.078476447735589
30
0
10
35.816555160163773
20
14.336250214932244
30
0
0
ARC
5
168
100
AcDbEntity
8
0
100
AcDbCircle
10
68.279668906408958
20
9.5893618038472184
30
0
40
32.808332839218394
210
0
220
0
230
1
100
AcDbArc
50
176.31906474273515
51
177.68093525665097
0
SPLINE
5
169
100
AcDbEntity
8
0
100
AcDbSpline
70
0
71
3
72
30
73
26
74
0
42
0.000000001
43
0.0000000001
44
0.0000000001
40
-0.31526225358764037
40
-0.31526225358764037
40
-0.31526225358764037
40
-0.31526225358764037
40
-0.29320992185065953
40
-0.29320992185065953
40
-0.28141482058809347
40
-0.28141482058809347
40
-0.27806273346503968
40
-0.27806273346503968
40
-0.27514895938366457
40
-0.27514895938366457
40
-0.27148660583953521
40
-0.27148660583953521
40
-0.26629558504765549
40
-0.26629558504765549
40
-0.25918538661050144
40
-0.25918538661050144
40
-0.24739221768722869
40
-0.24739221768722869
40
-0.23189469134399529
40
-0.23189469134399529
40
-0.21232517221256905
40
-0.21232517221256905
40
-0.14237351909807666
40
-0.14237351909807666
40
0
40
0
40
0
40
0
10
35.498206543023763
20
8.2617967369313501
30
0
10
35.895792152969136
20
8.4634970401123439
30
0
10
36.30778045567294
20
8.6480183850664343
30
0
10
36.947337898402068
20
8.8869133635171007
30
0
10
37.172976683082169
20
8.9635229899394382
30
0
10
37.46672155446042
20
9.0475467490436685
30
0
10
37.534907749777929
20
9.0633111673254838
30
0
10
37.674523303220901
20
9.1401510972693369
30
0
10
37.717293385944757
20
9.1799818663617483
30
0
10
37.783568837550433
20
9.2568885708646249
30
0
10
37.811753733870631
20
9.3058016153044818
30
0
10
37.855547485737603
20
9.4347857998821301
30
0
10
37.853420842013023
20
9.4973305221304631
30
0
10
37.851761592565424
20
9.6617608916004194
30
0
10
37.854232776743459
20
9.6948489451595634
30
0
10
37.839312664935612
20
9.8116177242848206
30
0
10
37.814514375264935
20
9.8630513580238546
30
0
10
37.767504597568475
20
9.9439352923626316
30
0
10
37.729065388102143
20
9.9908113546650874
30
0
10
37.605899736813683
20
10.084408101782405
30
0
10
37.52989073903187
20
10.113640450408777
30
0
10
37.244782061167584
20
10.196857879875651
30
0
10
37.022976202819393
20
10.266026593871763
30
0
10
36.361024615885583
20
10.506954378999021
30
0
10
35.921437129175416
20
10.702216540693549
30
0
10
35.49820654302362
20
10.916926870763156
30
0
0
ARC
5
170
100
AcDbEntity
8
0
100
AcDbCircle
10
68.279668906408958
20
9.5893618038472184
30
0
40
32.808332839218394
210
0
220
0
230
1
100
AcDbArc
50
182.31906474273512
51
183.68093525665111
0
SPLINE
5
171
100
AcDbEntity
8
0
100
AcDbSpline
70
0
71
3
72
30
73
26
74
0
42
0.000000001
43
0.0000000001
44
0.0000000001
40
-0.31526225364583221
40
-0.31526225364583221
40
-0.31526225364583221
40
-0.31526225364583221
40
-0.29320992187094369
40
-0.29320992187094369
40
-0.28141482058929917
40
-0.28141482058929917
40
-0.27806273346091176
40
-0.27806273346091176
40
-0.27514895937656653
40
-0.27514895937656653
40
-0.27148660583265588
40
-0.27148660583265588
40
-0.26629558504104128
40
-0.26629558504104128
40
-0.25918538660461798
40
-0.25918538660461798
40
-0.24739221768296885
40
-0.24739221768296885
40
-0.23189469134079066
40
-0.23189469134079066
40
-0.21232517220974712
40
-0.21232517220974712
40
-0.14237351909675824
40
-0.14237351909675824
40
0
40
0
40
0
40
0
10
35.816555160163915
20
4.8424733927622583
30
0
10
36.190879331819097
20
5.0846277734116674
30
0
10
36.581322986879989
20
5.3112027953048093
30
0
10
37.192405542043609
20
5.6156410387255518
30
0
10
37.408800367317347
20
5.7154166650082399
30
0
10
37.69215319911892
20
5.8296848331579305
30
0
10
37.758318032908008
20
5.8524902905204801
30
0
10
37.889136797909586
20
5.9435030825118478
30
0
10
37.927509132570577
20
5.9875863454907492
30
0
10
37.985382580708929
20
6.0709994181684879
30
0
10
38.008300271848761
20
6.1225906357324984
30
0
10
38.038371598361032
20
6.2554459250347838
30
0
10
38.029718900910929
20
6.317425725950323
30
0
10
38.010881087170731
20
6.480781889852504
30
0
10
38.009880090552031
20
6.5139469926793776
30
0
10
37.98283605163769
20
6.6285165238570691
30
0
10
37.95279733089744
20
6.6770762716579135
30
0
10
37.897590404320411
20
6.7526032555228079
30
0
10
37.854461886107771
20
6.7952045343556344
30
0
10
37.722187425004243
20
6.875414232440356
30
0
10
37.643539199986037
20
6.8965413394695698
30
0
10
37.351293787271175
20
6.9495009231891638
30
0
10
37.123472905242764
20
6.9951056982158955
30
0
10
36.439963747219991
20
7.165520873589184
30
0
10
35.982373913061991
20
7.3137639642740293
30
0
10
35.53901848749868
20
7.4830584459100669
30
0
0
ARC
5
172
100
AcDbEntity
8
0
100
AcDbCircle
10
68.279668906408958
20
9.5893618038472184
30
0
40
32.808332839218394
210
0
220
0
230
1
100
AcDbArc
50
188.31906474273509
51
189.68093525665088
0
SPLINE
5
173
100
AcDbEntity
8
0
100
AcDbSpline
70
0
71
3
72
30
73
26
74
0
42
0.000000001
43
0.0000000001
44
0.0000000001
40
-0.31526225359042415
40
-0.31526225359042415
40
-0.31526225359042415
40
-0.31526225359042415
40
-0.29320992185024691
40
-0.29320992185024691
40
-0.28141482058559908
40
-0.28141482058559908
40
-0.27806273346193816
40
-0.27806273346193816
40
-0.27514895938007849
40
-0.27514895938007849
40
-0.2714866058355202
40
-0.2714866058355202
40
-0.26629558504297179
40
-0.26629558504297179
40
-0.25918538660552259
40
-0.25918538660552259
40
-0.24739221768247791
40
-0.24739221768247791
40
-0.23189469133945706
40
-0.23189469133945706
40
-0.21232517220852246
40
-0.21232517220852246
40
-0.14237351909594362
40
-0.14237351909594362
40
0
40
0
40
0
40
0
10
36.490576444851243
20
1.4751579513752777
30
0
10
36.837538004226772
20
1.7551133154027221
30
0
10
37.202159229220101
20
2.0212596108626757
30
0
10
37.778071748460036
20
2.3879056301562516
30
0
10
37.982851747369594
20
2.509754093674105
30
0
10
38.252708066718114
20
2.6530147249274929
30
0
10
38.316126623210977
20
2.6826113600053825
30
0
10
38.436715322078726
20
2.7867998589005349
30
0
10
38.4702694933301
20
2.8346526303388186
30
0
10
38.519106864338362
20
2.9236581800339723
30
0
10
38.536506259278141
20
2.9773623265466451
30
0
10
38.552525692689585
20
3.1126331302223784
30
0
10
38.53744174227792
20
3.1733689461360495
30
0
10
38.501631755275191
20
3.3338611401552622
30
0
10
38.497169544987798
20
3.3667399284423727
30
0
10
38.458297879116508
20
3.4778549639134315
30
0
10
38.423347837817161
20
3.5230087950172706
30
0
10
38.360548621004597
20
3.5923513389620023
30
0
10
38.313203319118742
20
3.6302110858013261
30
0
10
38.173269274869767
20
3.6961549406204486
30
0
10
38.09284350902648
20
3.7089453330469171
30
0
10
37.796663263358937
20
3.7310668347377129
30
0
10
37.565323410908221
20
3.7526080153363028
30
0
10
36.867745351170157
20
3.8506434766306432
30
0
10
36.397166619540435
20
3.9502433139829551
30
0
10
35.938543849384942
20
4.0722671214188555
30
0
0
ARC
5
174
100
AcDbEntity
8
0
100
AcDbCircle
10
68.279668906408958
20
9.5893618038472184
30
0
40
32.808332839218394
210
0
220
0
230
1
100
AcDbArc
50
194.31906474273512
51
195.68093525665122
0
SPLINE
5
175
100
AcDbEntity
8
0
100
AcDbSpline
70
0
71
3
72
30
73
26
74
0
42
0.000000001
43
0.0000000001
44
0.0000000001
40
-0.31526225359880844
40
-0.31526225359880844
40
-0.31526225359880844
40
-0.31526225359880844
40
-0.29320992185379191
40
-0.29320992185379191
40
-0.28141482058758616
40
-0.28141482058758616
40
-0.27806273346349519
40
-0.27806273346349519
40
-0.27514895938146494
40
-0.27514895938146494
40
-0.27148660583701428
40
-0.27148660583701428
40
-0.26629558504457423
40
-0.26629558504457423
40
-0.25918538660734969
40
-0.25918538660734969
40
-0.24739221768474426
40
-0.24739221768474426
40
-0.23189469134186819
40
-0.23189469134186819
40
-0.21232517221072875
40
-0.21232517221072875
40
-0.14237351909724669
40
-0.14237351909724669
40
0
40
0
40
0
40
0
10
37.51288567884265
20
-1.8032565745976825
30
0
10
37.828683242523482
20
-1.4885674767161294
30
0
10
38.163487171038412
20
-1.1857658621777678
30
0
10
38.697919836278807
20
-0.76092911753251613
30
0
10
38.888841396273151
20
-0.61834281406203617
30
0
10
39.142244600821698
20
-0.44765931318301311
30
0
10
39.202222053044991
20
-0.41159576731498948
30
0
10
39.311259490719891
20
-0.29537307254067446
30
0
10
39.339627872049618
20
-0.24427507763527645
30
0
10
39.378894093498801
20
-0.15065221430934139
30
0
10
39.390584560826341
20
-0.095423532715730452
30
0
10
39.392376588872224
20
0.040780730100299367
30
0
10
39.371026648416318
20
0.099607126703161741
30
0
10
39.318636829862292
20
0.25547696477899562
30
0
10
39.310762294815831
20
0.28770921164013696
30
0
10
39.260488888093512
20
0.39415235182285291
30
0
10
39.221010446201362
20
0.43540555140705206
30
0
10
39.151306980511563
20
0.49780392401305495
30
0
10
39.100263619986194
20
0.53050733954861817
30
0
10
38.954203139267761
20
0.58146285642697304
30
0
10
38.872880994119271
20
0.58577640003472764
30
0
10
38.576010928250639
20
0.57681745189478772
30
0
10
38.343686713212236
20
0.5740590283829472
30
0
10
37.639682562961255
20
0.59864067856894798
30
0
10
37.161270692923182
20
0.64850602592669837
30
0
10
36.692405345211448
20
0.72192224079462797
30
0
0
ARC
5
176
100
AcDbEntity
8
0
100
AcDbCircle
10
68.279668906408958
20
9.5893618038472184
30
0
40
32.808332839218394
210
0
220
0
230
1
100
AcDbArc
50
200.31906474273518
51
201.6809352566508
0
SPLINE
5
177
100
AcDbEntity
8
0
100
AcDbSpline
70
0
71
3
72
30
73
26
74
0
42
0.000000001
43
0.0000000001
44
0.0000000001
40
-0.31526225370900735
40
-0.31526225370900735
40
-0.31526225370900735
40
-0.31526225370900735
40
-0.29320992190806155
40
-0.29320992190806155
40
-0.28141482061369832
40
-0.28141482061369832
40
-0.27806273348172239
40
-0.27806273348172239
40
-0.27514895939485712
40
-0.27514895939485712
40
-0.27148660584906709
40
-0.27148660584906709
40
-0.2662955850547517
40
-0.2662955850547517
40
-0.25918538661534957
40
-0.25918538661534957
40
-0.24739221768950986
40
-0.24739221768950986
40
-0.2318946913446624
40
-0.2318946913446624
40
-0.21232517221307987
40
-0.21232517221307987
40
-0.14237351909850754
40
-0.14237351909850754
40
0
40
0
40
0
40
0
10
38.872282228238589
20
-4.9568511895577583
30
0
10
39.153455852029388
20
-4.6108761574272705
30
0
10
39.454774302168687
20
-4.2747367816534076
30
0
10
39.941871757297491
20
-3.7963639119314552
30
0
10
40.116843101808627
20
-3.6346019738951973
30
0
10
40.351016853013348
20
-3.4383656475552815
30
0
10
40.406896075449588
20
-3.3962303106514824
30
0
10
40.503187614917529
20
-3.2692467802053726
30
0
10
40.526059396418674
20
-3.2154634021691586
30
0
10
40.555324259385124
20
-3.1182489768419686
30
0
10
40.561177715894338
20
-3.0621008571598574
30
0
10
40.548722704740179
20
-2.9264554176079716
30
0
10
40.521340688655286
20
-2.8701829546276025
30
0
10
40.452945032366742
20
-2.7206432150614934
30
0
10
40.441744447614369
20
-2.6894106528666217
30
0
10
40.380620106005395
20
-2.5888056212908617
30
0
10
40.337045797590974
20
-2.5519050319128089
30
0
10
40.261201768784133
20
-2.4971344802767992
30
0
10
40.207019591360343
20
-2.4699457015071857
30
0
10
40.056432943357493
20
-2.4345368018745406
30
0
10
39.975105401345729
20
-2.4387473671718873
30
0
10
39.680798085841111
20
-2.4786886090320959
30
0
10
39.450034900931939
20
-2.5057164147890365
30
0
10
38.747317876961951
20
-2.5548578974143976
30
0
10
38.266314449076347
20
-2.5552733752314527
30
0
10
37.7923435106743
20
-2.531269116345789
30
0
0
ARC
5
178
100
AcDbEntity
8
0
100
AcDbCircle
10
68.279668906408958
20
9.5893618038472184
30
0
40
32.808332839218394
210
0
220
0
230
1
100
AcDbArc
50
206.31906474273512
51
207.68093525665083
0
SPLINE
5
179
100
AcDbEntity
8
0
100
AcDbSpline
70
0
71
3
72
30
73
26
74
0
42
0.000000001
43
0.0000000001
44
0.0000000001
40
-0.31526225370183891
40
-0.31526225370183891
40
-0.31526225370183891
40
-0.31526225370183891
40
-0.29320992190258133
40
-0.29320992190258133
40
-0.28141482060977108
40
-0.28141482060977108
40
-0.27806273347822297
40
-0.27806273347822297
40
-0.27514895939153272
40
-0.27514895939153272
40
-0.27148660584544371
40
-0.27148660584544371
40
-0.26629558505064588
40
-0.26629558505064588
40
-0.25918538661087898
40
-0.25918538661087898
40
-0.24739221768475669
40
-0.24739221768475669
40
-0.23189469133987251
40
-0.23189469133987251
40
-0.2123251722088223
40
-0.2123251722088223
40
-0.14237351909619747
40
-0.14237351909619747
40
0
40
0
40
0
40
0
10
40.553872259971854
20
-7.9510744509713271
30
0
10
40.797341346792926
20
-7.5776040594625949
30
0
10
41.061873010545824
20
-7.2118097358059003
30
0
10
41.49629851391451
20
-6.6851418942658398
30
0
10
41.653402620290976
20
-6.5059766192984121
30
0
10
41.865781261550197
20
-6.2863374737410886
30
0
10
41.916950029743774
20
-6.2385919893711961
30
0
10
41.999440680788389
20
-6.1022388813394883
30
0
10
42.016565274419833
20
-6.046359382101933
30
0
10
42.03550814691652
20
-5.946618496421312
30
0
10
42.035460460912624
20
-5.8901661092002637
30
0
10
42.008894870267106
20
-5.7565656527351683
30
0
10
41.975780781651402
20
-5.7034636562571634
30
0
10
41.892128644752013
20
-5.5618924038802291
30
0
10
41.877724726243642
20
-5.5320017168388258
30
0
10
41.806419140824893
20
-5.4383370436480476
30
0
10
41.759226375129842
20
-5.4061933550564145
30
0
10
41.67807274625622
20
-5.3596507020136297
30
0
10
41.621345383206844
20
-5.3382744459607352
30
0
10
41.467882426751203
20
-5.318800110889268
30
0
10
41.387440529444035
20
-5.3314886532571659
30
0
10
41.098920456840261
20
-5.4019745842335087
30
0
10
40.872246591804441
20
-5.4529756499398729
30
0
10
40.17851580887438
20
-5.5753018610100957
30
0
10
39.700190797350402
20
-5.625993611939113
30
0
10
39.22630719305581
20
-5.6516643047194766
30
0
0
ARC
5
180
100
AcDbEntity
8
0
100
AcDbCircle
10
68.279668906408958
20
9.5893618038472184
30
0
40
32.808332839218394
210
0
220
0
230
1
100
AcDbArc
50
212.31906474273518
51
213.68093525665074
0
SPLINE
5
181
100
AcDbEntity
8
0
100
AcDbSpline
70
0
71
3
72
30
73
26
74
0
42
0.000000001
43
0.0000000001
44
0.0000000001
40
-0.31526225364648652
40
-0.31526225364648652
40
-0.31526225364648652
40
-0.31526225364648652
40
-0.29320992189108752
40
-0.29320992189108752
40
-0.28141482061998785
40
-0.28141482061998785
40
-0.27806273349444355
40
-0.27806273349444355
40
-0.27514895941025819
40
-0.27514895941025819
40
-0.27148660586099771
40
-0.27148660586099771
40
-0.26629558506139189
40
-0.26629558506139189
40
-0.25918538661845753
40
-0.25918538661845753
40
-0.24739221769057851
40
-0.24739221769057851
40
-0.23189469134399679
40
-0.23189469134399679
40
-0.21232517221204741
40
-0.21232517221204741
40
-0.14237351909785614
40
-0.14237351909785614
40
0
40
0
40
0
40
0
10
42.539231921759409
20
-10.753121022204827
30
0
10
42.742328973339369
20
-10.356247091095796
30
0
10
42.967175586422293
20
-9.9648055387424108
30
0
10
43.344169481293733
20
-9.3956130084742444
30
0
10
43.481685084086209
20
-9.2010073687991678
30
0
10
43.669941750586673
20
-8.9603718164357637
30
0
10
43.715839448804424
20
-8.9075392941201752
30
0
10
43.783625426618315
20
-8.7633105216245539
30
0
10
43.794815211725705
20
-8.7059471286620749
30
0
10
43.803228551672305
20
-8.6047725647145974
30
0
10
43.797280245612733
20
-8.5486344141228354
30
0
10
43.75689513364442
20
-8.4185426953004043
30
0
10
43.718411777379472
20
-8.3691929619097074
30
0
10
43.620419670208371
20
-8.2371412810163296
30
0
10
43.60297023027789
20
-8.2089199577341976
30
0
10
43.522264639957378
20
-8.1232218526826863
30
0
10
43.471970470796933
20
-8.0961872378552542
30
0
10
43.386396377994743
20
-8.0583824144518807
30
0
10
43.327745346179931
20
-8.0430528838512068
30
0
10
43.173087453539679
20
-8.0397264782337281
30
0
10
43.094412539202729
20
-8.0607539793450691
30
0
10
42.81484079579041
20
-8.1610123408282078
30
0
10
42.594739736927707
20
-8.2354278881354315
30
0
10
41.917595854677856
20
-8.4295985960821174
30
0
10
41.447189888440732
20
-8.5300112306930824
30
0
10
40.978585586175612
20
-8.6050756216579583
30
0
0
ARC
5
182
100
AcDbEntity
8
0
100
AcDbCircle
10
68.279668906408958
20
9.5893618038472184
30
0
40
32.808332839218394
210
0
220
0
230
1
100
AcDbArc
50
218.31906474273515
51
219.68093525665103
0
SPLINE
5
183
100
AcDbEntity
8
0
100
AcDbSpline
70
0
71
3
72
30
73
26
74
0
42
0.000000001
43
0.0000000001
44
0.0000000001
40
-0.31526225357568571
40
-0.31526225357568571
40
-0.31526225357568571
40
-0.31526225357568571
40
-0.29320992186172629
40
-0.29320992186172629
40
-0.28141482060915901
40
-0.28141482060915901
40
-0.27806273348880212
40
-0.27806273348880212
40
-0.27514895940813111
40
-0.27514895940813111
40
-0.27148660586115941
40
-0.27148660586115941
40
-0.26629558506511453
40
-0.26629558506511453
40
-0.2591853866237584
40
-0.2591853866237584
40
-0.24739221769510361
40
-0.24739221769510361
40
-0.23189469134834656
40
-0.23189469134834656
40
-0.21232517221625341
40
-0.21232517221625341
40
-0.14237351910006907
40
-0.14237351910006907
40
0
40
0
40
0
40
0
10
44.806609197683542
20
-13.332291094657901
30
0
10
44.967109040216556
20
-12.916361857820252
30
0
10
45.14980713607811
20
-12.503561792355903
30
0
10
45.465238998444093
20
-11.898080765832461
30
0
10
45.581659447939217
20
-11.690166901537831
30
0
10
45.743731560256855
20
-11.431171395806818
30
0
10
45.783855323711258
20
-11.373830679718807
30
0
10
45.836193950907415
20
-11.223306443415449
30
0
10
45.841326329878967
20
-11.16508764207715
30
0
10
45.839117958979394
20
-11.063587889507293
30
0
10
45.827334203751263
20
-11.008379036868977
30
0
10
45.773572038201408
20
-10.883221367789133
30
0
10
45.730141045997861
20
-10.838164583494017
30
0
10
45.618882590541205
20
-10.717079259872584
30
0
10
45.598578808928352
20
-10.690836499109908
30
0
10
45.509357441059173
20
-10.614043888584103
30
0
10
45.456512901878163
20
-10.592414544419189
30
0
10
45.3674559128185
20
-10.563761748209931
30
0
10
45.307523805217031
20
-10.554646896604819
30
0
10
45.153365440622117
20
-10.567504865233897
30
0
10
45.077319488070927
20
-10.596640943389328
30
0
10
44.809759120377954
20
-10.725573283789291
30
0
10
44.598642340948587
20
-10.822588000388649
30
0
10
43.945504289455585
20
-11.086475830301126
30
0
10
43.488171234710748
20
-11.23550920675644
30
0
10
43.029980361270873
20
-11.359144874731793
30
0
0
ARC
5
184
100
AcDbEntity
8
0
100
AcDbCircle
10
68.279668906408958
20
9.5893618038472184
30
0
40
32.808332839218394
210
0
220
0
230
1
100
AcDbArc
50
224.31906474273515
51
225.68093525665131
0
SPLINE
5
185
100
AcDbEntity
8
0
100
AcDbSpline
70
0
71
3
72
30
73
26
74
0
42
0.000000001
43
0.0000000001
44
0.0000000001
40
-0.31526225373817734
40
-0.31526225373817734
40
-0.31526225373817734
40
-0.31526225373817734
40
-0.29320992191279027
40
-0.29320992191279027
40
-0.28141482061036854
40
-0.28141482061036854
40
-0.27806273347612143
40
-0.27806273347612143
40
-0.27514895938727602
40
-0.27514895938727602
40
-0.27148660583853368
40
-0.27148660583853368
40
-0.26629558503956918
40
-0.26629558503956918
40
-0.25918538659913454
40
-0.25918538659913454
40
-0.24739221767709596
40
-0.24739221767709596
40
-0.23189469133409524
40
-0.23189469133409524
40
-0.21232517220325797
40
-0.21232517220325797
40
-0.14237351909334234
40
-0.14237351909334234
40
0
40
0
40
0
40
0
10
47.331162227830021
20
-15.660326741290707
30
0
10
47.447306391511773
20
-15.229899206310247
30
0
10
47.585854291657142
20
-14.800263351462736
30
0
10
47.836268184066775
20
-14.165127605513472
30
0
10
47.930317953384716
20
-13.946183464557599
30
0
10
48.06442981543961
20
-13.671665614617083
30
0
10
48.098340039787757
20
-13.610444941624845
30
0
10
48.134657883376988
20
-13.45527441666523
30
0
10
48.133676624837349
20
-13.396838064334236
30
0
10
48.120870738452282
20
-13.296125175542937
30
0
10
48.103380639342603
20
-13.242450500601834
30
0
10
48.036830449742226
20
-13.123598134871814
30
0
10
47.988927660631475
20
-13.083327951228254
30
0
10
47.865621827875344
20
-12.974535621090322
30
0
10
47.842686157024481
20
-12.950558943984385
30
0
10
47.745926539560188
20
-12.883513183879977
30
0
10
47.691110606185404
20
-12.86752608599862
30
0
10
47.599546447860213
20
-12.848339243013145
30
0
10
47.538989893182347
20
-12.845538934633716
30
0
10
47.387020047958885
20
-12.874440402915116
30
0
10
47.314436232573115
20
-12.911365837140764
30
0
10
47.061818687975858
20
-13.0675595467569
30
0
10
46.861999227594154
20
-13.186110519111608
30
0
10
46.240022924004251
20
-13.516824260714175
30
0
10
45.800773417398105
20
-13.712845538152436
30
0
10
45.3580160079037
20
-13.883697904878272
30
0
0
ARC
5
186
100
AcDbEntity
8
0
100
AcDbCircle
10
68.279668906408958
20
9.5893618038472184
30
0
40
32.808332839218401
210
0
220
0
230
1
100
AcDbArc
50
230.31906474273518
51
231.68093525665051
0
SPLINE
5
187
100
AcDbEntity
8
0
100
AcDbSpline
70
0
71
3
72
30
73
26
74
0
42
0.000000001
43
0.0000000001
44
0.0000000001
40
-0.3152622536898026
40
-0.3152622536898026
40
-0.3152622536898026
40
-0.3152622536898026
40
-0.29320992189705408
40
-0.29320992189705408
40
-0.28141482060790124
40
-0.28141482060790124
40
-0.27806273347738869
40
-0.27806273347738869
40
-0.27514895939141026
40
-0.27514895939141026
40
-0.27148660584570516
40
-0.27148660584570516
40
-0.26629558505147549
40
-0.26629558505147549
40
-0.25918538661223894
40
-0.25918538661223894
40
-0.24739221768668029
40
-0.24739221768668029
40
-0.23189469134205504
40
-0.23189469134205504
40
-0.21232517221068761
40
-0.21232517221068761
40
-0.14237351909708301
40
-0.14237351909708301
40
0
40
0
40
0
40
0
10
50.085231480903829
20
-17.711721516385968
30
0
10
50.15574746591799
20
-17.271511537575186
30
0
10
50.248627210484031
20
-16.829747073861263
30
0
10
50.43127954588536
20
-16.171915288638473
30
0
10
50.501928206145017
20
-15.944339668689036
30
0
10
50.606610460413499
20
-15.657307149344554
30
0
10
50.633935618135368
20
-15.592877265969673
30
0
10
50.653834772261774
20
-15.43476053299571
30
0
10
50.646750627049073
20
-15.376746870563878
30
0
10
50.623487529155483
20
-15.277924277145779
30
0
10
50.600482711351304
20
-15.226371850871953
30
0
10
50.521873635511682
20
-15.115126959890013
30
0
10
50.470023882484973
20
-15.080084585457856
30
0
10
50.33602163684796
20
-14.984777200262887
30
0
10
50.310705364817451
20
-14.963329300352814
30
0
10
50.207467616405957
20
-14.906764958063903
30
0
10
50.151280863677528
20
-14.896595264455271
30
0
10
50.058212732186576
20
-14.887084589762768
30
0
10
49.997695200720493
20
-14.890629505362698
30
0
10
49.849578888264176
20
-14.935257822762225
30
0
10
49.781252453504052
20
-14.979568050279358
30
0
10
49.546345462687391
20
-15.161311838141458
30
0
10
49.360012585176293
20
-15.300100196990133
30
0
10
48.776012532057571
20
-15.694016481309333
30
0
10
48.359659083107132
20
-15.9348780095976
30
0
10
47.937186080356767
20
-16.151075180802408
30
0
0
ARC
5
188
100
AcDbEntity
8
0
100
AcDbCircle
10
68.279668906408958
20
9.5893618038472184
30
0
40
32.808332839218394
210
0
220
0
230
1
100
AcDbArc
50
236.31906474273515
51
237.68093525665086
0
SPLINE
5
189
100
AcDbEntity
8
0
100
AcDbSpline
70
0
71
3
72
30
73
26
74
0
42
0.000000001
43
0.0000000001
44
0.0000000001
40
-0.31526225372069955
40
-0.31526225372069955
40
-0.31526225372069955
40
-0.31526225372069955
40
-0.29320992192340534
40
-0.29320992192340534
40
-0.28141482063177953
40
-0.28141482063177953
40
-0.27806273350055949
40
-0.27806273350055949
40
-0.27514895941368644
40
-0.27514895941368644
40
-0.27148660586621537
40
-0.27148660586621537
40
-0.26629558506941042
40
-0.26629558506941042
40
-0.2591853866273961
40
-0.2591853866273961
40
-0.24739221769807065
40
-0.24739221769807065
40
-0.23189469135070964
40
-0.23189469135070964
40
-0.21232517221841851
40
-0.21232517221841851
40
-0.14237351910117502
40
-0.14237351910117502
40
0
40
0
40
0
40
0
10
53.038642797842293
20
-19.463999909505766
30
0
10
53.062758016311449
20
-19.018830519482158
30
0
10
53.10895199539911
20
-18.569777510756555
30
0
10
53.221841596598445
20
-17.89645702894401
30
0
10
53.268315106275175
20
-17.662743296160297
30
0
10
53.342420832047672
20
-17.366340895815355
30
0
10
53.362861542998765
20
-17.299407709338013
30
0
10
53.366123988362155
20
-17.140077128362407
30
0
10
53.353014571852796
20
-17.083121765656006
30
0
10
53.319549137819834
20
-16.987272188625653
30
0
10
53.291281646918463
20
-16.93840683018998
30
0
10
53.201474942319955
20
-16.835988236256483
30
0
10
53.146246302116097
20
-16.80655760262276
30
0
10
53.003015800296971
20
-16.725779370071248
30
0
10
52.975596297431231
20
-16.707095235009266
30
0
10
52.867011512430096
20
-16.66163204129786
30
0
10
52.81006953416756
20
-16.657391173253728
30
0
10
52.716517103439728
20
-16.657660867795848
30
0
10
52.656701637922573
20
-16.667512168538181
30
0
10
52.514061651549625
20
-16.727378377874924
30
0
10
52.450741196136519
20
-16.778587926556533
30
0
10
52.236118449248259
20
-16.983890569693155
30
0
10
52.065313656606413
20
-17.141395720732792
30
0
10
51.52568828074827
20
-17.594198718523927
30
0
10
51.136792544970049
20
-17.877261568353102
30
0
10
50.739232651590299
20
-18.136434842590003
30
0
0
ARC
5
190
100
AcDbEntity
8
0
100
AcDbCircle
10
68.279668906408958
20
9.5893618038472184
30
0
40
32.808332839218394
210
0
220
0
230
1
100
AcDbArc
50
242.31906474273521
51
243.6809352566506
0
SPLINE
5
191
100
AcDbEntity
8
0
100
AcDbSpline
70
0
71
3
72
30
73
26
74
0
42
0.000000001
43
0.0000000001
44
0.0000000001
40
-0.31526225368968758
40
-0.31526225368968758
40
-0.31526225368968758
40
-0.31526225368968758
40
-0.29320992190629031
40
-0.29320992190629031
40
-0.28141482062099088
40
-0.28141482062099088
40
-0.27806273349156507
40
-0.27806273349156507
40
-0.27514895940588957
40
-0.27514895940588957
40
-0.27148660585911771
40
-0.27148660585911771
40
-0.26629558506348028
40
-0.26629558506348028
40
-0.25918538662120744
40
-0.25918538662120744
40
-0.24739221768953404
40
-0.24739221768953404
40
-0.2318946913415513
40
-0.2318946913415513
40
-0.21232517221052119
40
-0.21232517221052119
40
-0.1423735190970781
40
-0.1423735190970781
40
0
40
0
40
0
40
0
10
56.159037986215957
20
-20.897963591887283
30
0
10
56.136488226762722
20
-20.452712159643749
30
0
10
56.135490329471466
20
-20.00129052465407
30
0
10
56.177380354370037
20
-19.319858386363361
30
0
10
56.199169539966682
20
-19.082567157299479
30
0
10
56.241886819404392
20
-18.78004232266559
30
0
10
56.255219130878061
20
-18.711339167084638
30
0
10
56.241809123443275
20
-18.5525403972939
30
0
10
56.222818065147528
20
-18.497267349186011
30
0
10
56.179516949276682
20
-18.405440936568493
30
0
10
56.146296489823882
20
-18.359798025062979
30
0
10
56.046276097517378
20
-18.267327847726854
30
0
10
55.988273666678232
20
-18.243831403072051
30
0
10
55.837384172000668
20
-18.178467346370333
30
0
10
55.808161852126162
20
-18.162751683458758
30
0
10
55.695419708170789
20
-18.128887742590898
30
0
10
55.63834637260431
20
-18.130622163948704
30
0
10
55.545334622645221
20
-18.140669272893302
30
0
10
55.486876573833996
20
-18.156719025865755
30
0
10
55.351275707085264
20
-18.23116722042392
30
0
10
55.293654983178691
20
-18.288715027739496
30
0
10
55.101667931946579
20
-18.515327187429804
30
0
10
54.948262597225401
20
-18.689823471265548
30
0
10
54.458924147151961
20
-19.19655217814439
30
0
10
54.101746947603679
20
-19.518715053697171
30
0
10
53.733455913003851
20
-19.818024874323289
30
0
0
ARC
5
192
100
AcDbEntity
8
0
100
AcDbCircle
10
68.279668906408958
20
9.5893618038472184
30
0
40
32.808332839218394
210
0
220
0
230
1
100
AcDbArc
50
248.31906474273518
51
249.68093525665122
0
SPLINE
5
193
100
AcDbEntity
8
0
100
AcDbSpline
70
0
71
3
72
30
73
26
74
0
42
0.000000001
43
0.0000000001
44
0.0000000001
40
-0.31526225375581624
40
-0.31526225375581624
40
-0.31526225375581624
40
-0.31526225375581624
40
-0.29320992194035173
40
-0.29320992194035173
40
-0.28141482064032419
40
-0.28141482064032419
40
-0.27806273350671529
40
-0.27806273350671529
40
-0.27514895941798734
40
-0.27514895941798734
40
-0.27148660586860052
40
-0.27148660586860052
40
-0.26629558506887652
40
-0.26629558506887652
40
-0.25918538662534929
40
-0.25918538662534929
40
-0.24739221769603209
40
-0.24739221769603209
40
-0.23189469134841531
40
-0.23189469134841531
40
-0.21232517221601693
40
-0.21232517221601693
40
-0.14237351909985854
40
-0.14237351909985854
40
0
40
0
40
0
40
0
10
59.412229343356351
20
-21.997901757350125
30
0
10
59.343261665859963
20
-21.557446550712474
30
0
10
59.295082825360872
20
-21.108602159308134
30
0
10
59.265514318089657
20
-20.42652427763651
30
0
10
59.262380452727761
20
-20.188255364697632
30
0
10
59.273241266374697
20
-19.882922621225852
30
0
10
59.27931910677632
20
-19.813202222686375
30
0
10
59.249383569391298
20
-19.656675096653842
30
0
10
59.224718939325633
20
-19.603689946225668
30
0
10
59.172056557691199
20
-19.516892767392061
30
0
10
59.134247099992329
20
-19.474972376108045
30
0
10
59.02510886432114
20
-19.393463737980369
30
0
10
58.964968129611094
20
-19.376158914270594
30
0
10
58.808072819020502
20
-19.326925175726799
30
0
10
58.777367847951737
20
-19.314350169040733
30
0
10
58.661703571544031
20
-19.292456501436384
30
0
10
58.605124186078669
20
-19.300147209513447
30
0
10
58.513672173065565
20
-19.319861654637034
30
0
10
58.457212019577668
20
-19.341934015396227
30
0
10
58.330135943948449
20
-19.430148525168249
30
0
10
58.278846256263861
20
-19.493404085290393
30
0
10
58.111598350995394
20
-19.738842951293506
30
0
10
57.977273215144017
20
-19.928418550124071
30
0
10
57.543582985329493
20
-20.483521140323777
30
0
10
57.222037630156883
20
-20.841254357719251
30
0
10
56.887050527963943
20
-21.17742142371921
30
0
0
ARC
5
194
100
AcDbEntity
8
0
100
AcDbCircle
10
68.279668906408958
20
9.5893618038472184
30
0
40
32.808332839218394
210
0
220
0
230
1
100
AcDbArc
50
254.31906474273518
51
255.6809352566506
0
SPLINE
5
195
100
AcDbEntity
8
0
100
AcDbSpline
70
0
71
3
72
30
73
26
74
0
42
0.000000001
43
0.0000000001
44
0.0000000001
40
-0.31526225371902172
40
-0.31526225371902172
40
-0.31526225371902172
40
-0.31526225371902172
40
-0.29320992190705908
40
-0.29320992190705908
40
-0.28141482060862294
40
-0.28141482060862294
40
-0.27806273347554455
40
-0.27806273347554455
40
-0.27514895938820633
40
-0.27514895938820633
40
-0.27148660584285056
40
-0.27148660584285056
40
-0.2662955850490597
40
-0.2662955850490597
40
-0.2591853866108203
40
-0.2591853866108203
40
-0.24739221768737854
40
-0.24739221768737854
40
-0.2318946913438393
40
-0.2318946913438393
40
-0.2123251722122752
40
-0.2123251722122752
40
-0.14237351909808116
40
-0.14237351909808116
40
0
40
0
40
0
40
0
10
62.762574223980572
20
-22.751763253176644
30
0
10
62.647944252750392
20
-22.320929991593164
30
0
10
62.553112326501584
20
-21.879580476891917
30
0
10
62.452409245806386
20
-21.204329839850114
30
0
10
62.42438666477242
20
-20.967693767073751
30
0
10
62.403272019285048
20
-20.662898404155033
30
0
10
62.402028798523183
20
-20.592924633936907
30
0
10
62.355895711209314
20
-20.440384095624463
30
0
10
62.325827740227204
20
-20.39026735926905
30
0
10
62.264381072893343
20
-20.309450382264032
30
0
10
62.222396865279556
20
-20.271711799779663
30
0
10
62.105336527599192
20
-20.202057726559353
30
0
10
62.043716403499339
20
-20.191134119062362
30
0
10
61.882534254774185
20
-20.158570113793672
30
0
10
61.850683042642949
20
-20.149273537754997
30
0
10
61.733363875822405
20
-20.139590015020048
30
0
10
61.677898336048209
20
-20.153152748808445
30
0
10
61.589008027370504
20
-20.182318534525695
30
0
10
61.53516435846381
20
-20.210171673667674
30
0
10
61.418005346026447
20
-20.311186002019642
30
0
10
61.373608635108887
20
-20.379456273802322
30
0
10
61.232932278854648
20
-20.641032766538409
30
0
10
61.119159036171034
20
-20.843610650431863
30
0
10
60.745868627518561
20
-21.441005303824209
30
0
10
60.463478034919873
20
-21.830389463069857
30
0
10
60.165465053936927
20
-22.199730657710642
30
0
0
ARC
5
196
100
AcDbEntity
8
0
100
AcDbCircle
10
68.279668906408958
20
9.5893618038472184
30
0
40
32.808332839218394
210
0
220
0
230
1
100
AcDbArc
50
260.31906474273518
51
261.6809352566508
0
SPLINE
5
197
100
AcDbEntity
8
0
100
AcDbSpline
70
0
71
3
72
30
73
26
74
0
42
0.000000001
43
0.0000000001
44
0.0000000001
40
-0.31526225361649796
40
-0.31526225361649796
40
-0.31526225361649796
40
-0.31526225361649796
40
-0.29320992186873923
40
-0.29320992186873923
40
-0.28141482060133249
40
-0.28141482060133249
40
-0.27806273347687133
40
-0.27806273347687133
40
-0.27514895939411682
40
-0.27514895939411682
40
-0.27148660584782708
40
-0.27148660584782708
40
-0.26629558505262368
40
-0.26629558505262368
40
-0.25918538661339197
40
-0.25918538661339197
40
-0.2473922176892332
40
-0.2473922176892332
40
-0.23189469134503479
40
-0.23189469134503479
40
-0.21232517221306754
40
-0.21232517221306754
40
-0.14237351909837706
40
-0.14237351909837706
40
0
40
0
40
0
40
0
10
66.173365548471764
20
-23.151288615062903
30
0
10
66.014329193476911
20
-22.734797597946571
30
0
10
65.873883179919773
20
-22.305778477632288
30
0
10
65.703148849818518
20
-21.644753272509224
30
0
10
65.650544574364375
20
-21.412342674189983
30
0
10
65.597685806204922
20
-21.11142409354839
30
0
10
65.58913514526823
20
-21.041963598924735
30
0
10
65.527309951746602
20
-20.895080914291277
30
0
10
65.492168070793639
20
-20.848381681472734
30
0
10
65.422610340376707
20
-20.774430354093369
30
0
10
65.37691137061212
20
-20.741287052216105
30
0
10
65.253211468474859
20
-20.684250688504132
30
0
10
65.190787077956415
20
-20.679827978550964
30
0
10
65.027084036488233
20
-20.664290484623645
30
0
10
64.994435551816935
20
-20.658374194457657
30
0
10
64.87674686791388
20
-20.661006911293576
30
0
10
64.823002865890004
20
-20.680293074644432
30
0
10
64.73764816238436
20
-20.718590654502378
30
0
10
64.687010900561603
20
-20.751919407201669
30
0
10
64.581052569965252
20
-20.864626820021535
30
0
10
64.544035255472863
20
-20.937163820075941
30
0
10
64.431471727829916
20
-21.212012052753771
30
0
10
64.33949690176928
20
-21.425372736021746
30
0
10
64.030696162118019
20
-22.058514271763094
30
0
10
63.790554262518739
20
-22.475283198529453
30
0
10
63.532780495323927
20
-22.873751942397963
30
0
0
ARC
5
198
100
AcDbEntity
8
0
100
AcDbCircle
10
68.279668906408958
20
9.5893618038472184
30
0
40
32.808332839218409
210
0
220
0
230
1
100
AcDbArc
50
266.31906474273512
51
267.68093525665097
0
SPLINE
5
199
100
AcDbEntity
8
0
100
AcDbSpline
70
0
71
3
72
30
73
26
74
0
42
0.000000001
43
0.0000000001
44
0.0000000001
40
-0.31526225363726357
40
-0.31526225363726357
40
-0.31526225363726357
40
-0.31526225363726357
40
-0.29320992187439199
40
-0.29320992187439199
40
-0.28141482059923018
40
-0.28141482059923018
40
-0.27806273347263361
40
-0.27806273347263361
40
-0.27514895938873318
40
-0.27514895938873318
40
-0.27148660584268769
40
-0.27148660584268769
40
-0.26629558504791151
40
-0.26629558504791151
40
-0.25918538660893625
40
-0.25918538660893625
40
-0.24739221768491129
40
-0.24739221768491129
40
-0.23189469134107335
40
-0.23189469134107335
40
-0.2123251722097142
40
-0.2123251722097142
40
-0.14237351909660528
40
-0.14237351909660528
40
0
40
0
40
0
40
0
10
69.607233973324838
20
-23.192100559537984
30
0
10
69.405533670135753
20
-22.794514949576666
30
0
10
69.221012325174513
20
-22.382526646854728
30
0
10
68.982117346727051
20
-21.742969204123902
30
0
10
68.905507720310226
20
-21.517330419459189
30
0
10
68.821483961212778
20
-21.223585548101532
30
0
10
68.805719542930177
20
-21.155399352782371
30
0
10
68.728879612992642
20
-21.015783799351802
30
0
10
68.689048843904729
20
-20.973013716625569
30
0
10
68.61214213938986
20
-20.90673826501018
30
0
10
68.56322909495006
20
-20.878553368690334
30
0
10
68.434244910370111
20
-20.834759616823103
30
0
10
68.371700188120158
20
-20.836886260548901
30
0
10
68.207269818675343
20
-20.838545509995967
30
0
10
68.174181765101508
20
-20.836074325817332
30
0
10
68.057412985969009
20
-20.85099443762693
30
0
10
68.005979352229247
20
-20.875792727298155
30
0
10
67.925095417891114
20
-20.922802504995222
30
0
10
67.878219355588683
20
-20.961241714461764
30
0
10
67.784622608472986
20
-21.084407365750373
30
0
10
67.755390259847786
20
-21.160416363528554
30
0
10
67.672172830380603
20
-21.445525041393978
30
0
10
67.603004116384454
20
-21.667330899742264
30
0
10
67.362076331255537
20
-22.329282486680526
30
0
10
67.166814169560411
20
-22.7688699733907
30
0
10
66.95210383949302
20
-23.192100559538137
30
0
0
ARC
5
200
100
AcDbEntity
8
0
100
AcDbCircle
10
68.279668906408958
20
9.5893618038472184
30
0
40
32.808332839218394
210
0
220
0
230
1
100
AcDbArc
50
272.31906474273512
51
273.68093525665097
0
SPLINE
5
201
100
AcDbEntity
8
0
100
AcDbSpline
70
0
71
3
72
30
73
26
74
0
42
0.000000001
43
0.0000000001
44
0.0000000001
40
-0.3152622536033487
40
-0.3152622536033487
40
-0.3152622536033487
40
-0.3152622536033487
40
-0.29320992186564948
40
-0.29320992186564948
40
-0.28141482060251949
40
-0.28141482060251949
40
-0.27806273347924426
40
-0.27806273347924426
40
-0.27514895939692052
40
-0.27514895939692052
40
-0.27148660584984768
40
-0.27148660584984768
40
-0.2662955850535686
40
-0.2662955850535686
40
-0.25918538661304308
40
-0.25918538661304308
40
-0.2473922176869385
40
-0.2473922176869385
40
-0.23189469134171026
40
-0.23189469134171026
40
-0.21232517221022695
40
-0.21232517221022695
40
-0.14237351909700455
40
-0.14237351909700455
40
0
40
0
40
0
40
0
10
73.026557317493911
20
-22.873751942397824
30
0
10
72.784402936856608
20
-22.499427770761319
30
0
10
72.557827914973046
20
-22.10898411571932
30
0
10
72.253389671548291
20
-21.497901560556816
30
0
10
72.15361404525764
20
-21.281506735266458
30
0
10
72.039345877097105
20
-20.998153903440571
30
0
10
72.016540419735705
20
-20.931989069652861
30
0
10
71.925527627705208
20
-20.80117030459671
30
0
10
71.881444364705942
20
-20.76279796994962
30
0
10
71.798031292085781
20
-20.704924521851819
30
0
10
71.746440074521672
20
-20.682006830712261
30
0
10
71.613584785216915
20
-20.651935504200061
30
0
10
71.5516049842998
20
-20.660588201651638
30
0
10
71.388248820423399
20
-20.679426015388582
30
0
10
71.355083717581365
20
-20.680427012008256
30
0
10
71.240514186396368
20
-20.707471050925292
30
0
10
71.191954438594976
20
-20.737509771666272
30
0
10
71.116427454738457
20
-20.792716698238177
30
0
10
71.073826175903307
20
-20.835845216448277
30
0
10
70.993616477815266
20
-20.968119677559848
30
0
10
70.972489370786803
20
-21.046767902574473
30
0
10
70.91952978706712
20
-21.339013315290593
30
0
10
70.873925012040274
20
-21.566834197318983
30
0
10
70.703509836667195
20
-22.250343355341027
30
0
10
70.555266745982436
20
-22.707933189498984
30
0
10
70.385972264346108
20
-23.151288615063056
30
0
0
ARC
5
202
100
AcDbEntity
8
0
100
AcDbCircle
10
68.279668906408958
20
9.5893618038472184
30
0
40
32.808332839218394
210
0
220
0
230
1
100
AcDbArc
50
278.31906474273518
51
279.68093525665131
0
SPLINE
5
203
100
AcDbEntity
8
0
100
AcDbSpline
70
0
71
3
72
30
73
26
74
0
42
0.000000001
43
0.0000000001
44
0.0000000001
40
-0.31526225375482292
40
-0.31526225375482292
40
-0.31526225375482292
40
-0.31526225375482292
40
-0.29320992193668988
40
-0.29320992193668988
40
-0.28141482063352685
40
-0.28141482063352685
40
-0.27806273349903488
40
-0.27806273349903488
40
-0.27514895941004186
40
-0.27514895941004186
40
-0.27148660586170759
40
-0.27148660586170759
40
-0.26629558506364531
40
-0.26629558506364531
40
-0.25918538662040835
40
-0.25918538662040835
40
-0.24739221768953434
40
-0.24739221768953434
40
-0.23189469134155241
40
-0.23189469134155241
40
-0.21232517221009012
40
-0.21232517221009012
40
-0.14237351909675197
40
-0.14237351909675197
40
0
40
0
40
0
40
0
10
76.393872758880889
20
-22.199730657710504
30
0
10
76.11391739482508
20
-21.852769098299838
30
0
10
75.847771099339468
20
-21.488147873267664
30
0
10
75.481125080051882
20
-20.912235354020432
30
0
10
75.359276616555519
20
-20.707455355145669
30
0
10
75.216015985329648
20
-20.437599035844446
30
0
10
75.186419350249196
20
-20.374180479348425
30
0
10
75.082230851392666
20
-20.253591780526321
30
0
10
75.034378079971333
20
-20.220037609261002
30
0
10
74.945372530220084
20
-20.17120023822255
30
0
10
74.891668383707625
20
-20.153800843283172
30
0
10
74.756397580030267
20
-20.137781409872023
30
0
10
74.695661764115457
20
-20.152865360284949
30
0
10
74.535169570115528
20
-20.188675347283169
30
0
10
74.502290781817067
20
-20.193137557572513
30
0
10
74.391175746340707
20
-20.232009223446418
30
0
10
74.346021915236378
20
-20.266959264746454
30
0
10
74.276679371305391
20
-20.329758481547522
30
0
10
74.238819624461101
20
-20.377103783428581
30
0
10
74.172875769635453
20
-20.517037827693958
30
0
10
74.160085377209285
20
-20.597463593534332
30
0
10
74.137963875518551
20
-20.893643839202888
30
0
10
74.116422694919848
20
-21.124983691653551
30
0
10
74.018387233625901
20
-21.822561751389102
30
0
10
73.918787396273899
20
-22.293140483018696
30
0
10
73.796763588837308
20
-22.751763253176801
30
0
0
ARC
5
204
100
AcDbEntity
8
0
100
AcDbCircle
10
68.279668906408958
20
9.5893618038472184
30
0
40
32.808332839218394
210
0
220
0
230
1
100
AcDbArc
50
284.31906474273518
51
285.68093525665091
0
SPLINE
5
205
100
AcDbEntity
8
0
100
AcDbSpline
70
0
71
3
72
30
73
26
74
0
42
0.000000001
43
0.0000000001
44
0.0000000001
40
-0.31526225369390626
40
-0.31526225369390626
40
-0.31526225369390626
40
-0.31526225369390626
40
-0.29320992190499529
40
-0.29320992190499529
40
-0.28141482061626027
40
-0.28141482061626027
40
-0.27806273348580413
40
-0.27806273348580413
40
-0.27514895939939699
40
-0.27514895939939699
40
-0.27148660585221518
40
-0.27148660585221518
40
-0.26629558505573547
40
-0.26629558505573547
40
-0.25918538661546708
40
-0.25918538661546708
40
-0.24739221769033784
40
-0.24739221769033784
40
-0.2318946913454541
40
-0.2318946913454541
40
-0.21232517221359881
40
-0.21232517221359881
40
-0.14237351909871224
40
-0.14237351909871224
40
0
40
0
40
0
40
0
10
79.672287284853866
20
-21.177421423719093
30
0
10
79.357598186975565
20
-20.861623860041604
30
0
10
79.054796572428188
20
-20.52681993151786
30
0
10
78.629959827777029
20
-19.992387266267304
30
0
10
78.487373524311735
20
-19.801465706279593
30
0
10
78.31669002343952
20
-19.548062501740393
30
0
10
78.280626477570877
20
-19.488085049516513
30
0
10
78.164403782818709
20
-19.379047611862354
30
0
10
78.11330578792132
20
-19.350679230524435
30
0
10
78.019682924563583
20
-19.311413009062409
30
0
10
77.964454242969978
20
-19.299722541735083
30
0
10
77.828249980150801
20
-19.297930513689874
30
0
10
77.76942358354674
20
-19.319280454147677
30
0
10
77.613553745497256
20
-19.37167027269254
30
0
10
77.581321498620639
20
-19.37954480774334
30
0
10
77.474878358431155
20
-19.429818214469933
30
0
10
77.433625158846297
20
-19.469296656362975
30
0
10
77.371226786243767
20
-19.539000122050169
30
0
10
77.338523370707208
20
-19.590043482574796
30
0
10
77.287567853829103
20
-19.736103963296575
30
0
10
77.283254310221366
20
-19.817426108441612
30
0
10
77.292213258361556
20
-20.114296174311232
30
0
10
77.294971681873221
20
-20.346620389349575
30
0
10
77.270390031687427
20
-21.050624539595756
30
0
10
77.220524684330229
20
-21.52903640963374
30
0
10
77.147108469461557
20
-21.997901757350302
30
0
0
ARC
5
206
100
AcDbEntity
8
0
100
AcDbCircle
10
68.279668906408958
20
9.5893618038472184
30
0
40
32.808332839218394
210
0
220
0
230
1
100
AcDbArc
50
290.31906474273518
51
291.68093525665023
0
SPLINE
5
207
100
AcDbEntity
8
0
100
AcDbSpline
70
0
71
3
72
30
73
26
74
0
42
0.000000001
43
0.0000000001
44
0.0000000001
40
-0.3152622537115915
40
-0.3152622537115915
40
-0.3152622537115915
40
-0.3152622537115915
40
-0.293209921906736
40
-0.293209921906736
40
-0.28141482060982936
40
-0.28141482060982936
40
-0.27806273347711835
40
-0.27806273347711835
40
-0.27514895938978767
40
-0.27514895938978767
40
-0.27148660584390305
40
-0.27148660584390305
40
-0.2662955850494127
40
-0.2662955850494127
40
-0.25918538661019802
40
-0.25918538661019802
40
-0.24739221768511699
40
-0.24739221768511699
40
-0.23189469134079696
40
-0.23189469134079696
40
-0.21232517220966521
40
-0.21232517220966521
40
-0.14237351909662752
40
-0.14237351909662752
40
0
40
0
40
0
40
0
10
82.82588189981395
20
-19.818024874323154
30
0
10
82.479906867688072
20
-19.536851250536142
30
0
10
82.143767491917728
20
-19.23553280040025
30
0
10
81.665394622196118
20
-18.748435345273474
30
0
10
81.503632684156159
20
-18.573464000758456
30
0
10
81.307396357811427
20
-18.339290249548466
30
0
10
81.265261020908085
20
-18.283411027112617
30
0
10
81.138277490465725
20
-18.187119487647262
30
0
10
81.084494112430662
20
-18.164247706144607
30
0
10
80.98727968709747
20
-18.134982843176513
30
0
10
80.931131567415576
20
-18.129129386667394
30
0
10
80.795486127863285
20
-18.141584397821724
30
0
10
80.739213664882669
20
-18.168966413906983
30
0
10
80.589673925321037
20
-18.237362070193427
30
0
10
80.55844136312345
20
-18.248562654946873
30
0
10
80.457836331546304
20
-18.309686996556955
30
0
10
80.420935742168552
20
-18.353261304971422
30
0
10
80.366165190532755
20
-18.429105333777894
30
0
10
80.338976411763255
20
-18.483287511201922
30
0
10
80.303567512130741
20
-18.633874159204101
30
0
10
80.307778077428068
20
-18.715201701215985
30
0
10
80.347719319288245
20
-19.009509016720571
30
0
10
80.374747125045246
20
-19.240272201629772
30
0
10
80.423888607670833
20
-19.942989225603984
30
0
10
80.424304085487336
20
-20.423992653491652
30
0
10
80.400299826601952
20
-20.897963591887443
30
0
0
ARC
5
208
100
AcDbEntity
8
0
100
AcDbCircle
10
68.279668906408958
20
9.5893618038472184
30
0
40
32.808332839218394
210
0
220
0
230
1
100
AcDbArc
50
296.31906474273524
51
297.68093525665108
0
SPLINE
5
209
100
AcDbEntity
8
0
100
AcDbSpline
70
0
71
3
72
30
73
26
74
0
42
0.000000001
43
0.0000000001
44
0.0000000001
40
-0.31526225362024962
40
-0.31526225362024962
40
-0.31526225362024962
40
-0.31526225362024962
40
-0.29320992187318135
40
-0.29320992187318135
40
-0.28141482060703948
40
-0.28141482060703948
40
-0.27806273348292465
40
-0.27806273348292465
40
-0.275148959399862
40
-0.275148959399862
40
-0.27148660585161932
40
-0.27148660585161932
40
-0.26629558505350792
40
-0.26629558505350792
40
-0.25918538661248119
40
-0.25918538661248119
40
-0.24739221768761185
40
-0.24739221768761185
40
-0.23189469134279631
40
-0.23189469134279631
40
-0.21232517221111974
40
-0.21232517221111974
40
-0.14237351909735393
40
-0.14237351909735393
40
0
40
0
40
0
40
0
10
85.820105161227488
20
-18.136434842589892
30
0
10
85.44663476972687
20
-17.892965755774096
30
0
10
85.080840446083599
20
-17.628434092031142
30
0
10
84.55417260454638
20
-17.194008588668691
30
0
10
84.375007329568049
20
-17.036904482283024
30
0
10
84.155368183994966
20
-16.824525841009557
30
0
10
84.107622699626248
20
-16.773357072816442
30
0
10
83.971269591526635
20
-16.690866421732352
30
0
10
83.915390092273711
20
-16.673741828125571
30
0
10
83.815649206674266
20
-16.65479895564502
30
0
10
83.759196819453251
20
-16.654846641649375
30
0
10
83.625596362984936
20
-16.68141223229647
30
0
10
83.572494366505779
20
-16.714526320914999
30
0
10
83.430923114160606
20
-16.798178457795181
30
0
10
83.401032427100233
20
-16.81258237631349
30
0
10
83.307367753901758
20
-16.883887961739749
30
0
10
83.275224065309814
20
-16.931080727435955
30
0
10
83.228681412265871
20
-17.012234356313432
30
0
10
83.207305156215071
20
-17.068961719364037
30
0
10
83.187830821145951
20
-17.222424675813137
30
0
10
83.200519363513024
20
-17.302866573116333
30
0
10
83.271005294489612
20
-17.591386645721251
30
0
10
83.322006360195999
20
-17.818060510757192
30
0
10
83.44433257126569
20
-18.511791293683807
30
0
10
83.495024322195079
20
-18.990116305207497
30
0
10
83.520695014975658
20
-19.46399990950594
30
0
0
ARC
5
210
100
AcDbEntity
8
0
100
AcDbCircle
10
68.279668906408958
20
9.5893618038472184
30
0
40
32.808332839218394
210
0
220
0
230
1
100
AcDbArc
50
302.31906474273518
51
303.68093525665131
0
SPLINE
5
211
100
AcDbEntity
8
0
100
AcDbSpline
70
0
71
3
72
30
73
26
74
0
42
0.000000001
43
0.0000000001
44
0.0000000001
40
-0.31526225370852895
40
-0.31526225370852895
40
-0.31526225370852895
40
-0.31526225370852895
40
-0.29320992190712419
40
-0.29320992190712419
40
-0.28141482061271944
40
-0.28141482061271944
40
-0.27806273348071248
40
-0.27806273348071248
40
-0.27514895939377532
40
-0.27514895939377532
40
-0.27148660584778289
40
-0.27148660584778289
40
-0.26629558505303202
40
-0.26629558505303202
40
-0.25918538661423657
40
-0.25918538661423657
40
-0.24739221769066169
40
-0.24739221769066169
40
-0.23189469134673529
40
-0.23189469134673529
40
-0.21232517221489233
40
-0.21232517221489233
40
-0.14237351909940688
40
-0.14237351909940688
40
0
40
0
40
0
40
0
10
88.622151732460992
20
-16.151075180802323
30
0
10
88.225277801334926
20
-15.947978129213691
30
0
10
87.833836248962371
20
-15.723131516118567
30
0
10
87.264643718697229
20
-15.346137621244367
30
0
10
87.070038079036593
20
-15.208622018461782
30
0
10
86.829402526693968
20
-15.020365351976395
30
0
10
86.776570004376921
20
-14.974467653758214
30
0
10
86.632341231953447
20
-14.906681675977076
30
0
10
86.574977839003793
20
-14.895491890843431
30
0
10
86.473803274973733
20
-14.887078550889314
30
0
10
86.417665124381656
20
-14.893026856948484
30
0
10
86.287573405561233
20
-14.933411968915458
30
0
10
86.238223672171287
20
-14.971895325178103
30
0
10
86.106171991255025
20
-15.069887432366546
30
0
10
86.077950667986528
20
-15.087336872287977
30
0
10
85.992252562939996
20
-15.168042462602536
30
0
10
85.965217948113377
20
-15.218336631761634
30
0
10
85.927413124706163
20
-15.303910724569668
30
0
10
85.912083594108083
20
-15.362561756385546
30
0
10
85.908757188488977
20
-15.517219649019136
30
0
10
85.929784689601902
20
-15.59589456336084
30
0
10
86.030043051084448
20
-15.875466306771568
30
0
10
86.104458598391616
20
-16.095567365634167
30
0
10
86.298629306337276
20
-16.772711247880213
30
0
10
86.399041940948408
20
-17.243117214115898
30
0
10
86.474106331914129
20
-17.711721516386124
30
0
0
ARC
5
212
100
AcDbEntity
8
0
100
AcDbCircle
10
68.279668906408958
20
9.5893618038472184
30
0
40
32.80833283921838
210
0
220
0
230
1
100
AcDbArc
50
308.31906474273518
51
309.68093525665108
0
SPLINE
5
213
100
AcDbEntity
8
0
100
AcDbSpline
70
0
71
3
72
30
73
26
74
0
42
0.000000001
43
0.0000000001
44
0.0000000001
40
-0.31526225362972887
40
-0.31526225362972887
40
-0.31526225362972887
40
-0.31526225362972887
40
-0.29320992187846745
40
-0.29320992187846745
40
-0.28141482060947715
40
-0.28141482060947715
40
-0.27806273348458466
40
-0.27806273348458466
40
-0.27514895940137191
40
-0.27514895940137191
40
-0.27148660585428697
40
-0.27148660585428697
40
-0.26629558505796497
40
-0.26629558505796497
40
-0.25918538661774237
40
-0.25918538661774237
40
-0.24739221769251266
40
-0.24739221769251266
40
-0.23189469134747101
40
-0.23189469134747101
40
-0.2123251722152131
40
-0.2123251722152131
40
-0.14237351909939538
40
-0.14237351909939538
40
0
40
0
40
0
40
0
10
91.201321804914073
20
-13.883697904878192
30
0
10
90.785392568039072
20
-13.723198062330798
30
0
10
90.372592502528292
20
-13.54049996644687
30
0
10
89.76711147600129
20
-13.225068104068477
30
0
10
89.559197611744878
20
-13.108647654593874
30
0
10
89.300202106064432
20
-12.946575542305197
30
0
10
89.242861389972092
20
-12.906451778849082
30
0
10
89.092337153703497
20
-12.854113151665768
30
0
10
89.034118352369646
20
-12.848980772681857
30
0
10
88.932618599762321
20
-12.851189143582534
30
0
10
88.877409747123949
20
-12.862972898810821
30
0
10
88.752252078042687
20
-12.916735064361728
30
0
10
88.707195293747276
20
-12.960166056566674
30
0
10
88.586109970138679
20
-13.07142451201126
30
0
10
88.559867209367994
20
-13.091728293630798
30
0
10
88.483074598838897
20
-13.180949661504817
30
0
10
88.461445254674075
20
-13.233794200686596
30
0
10
88.432792458462472
20
-13.322851189755927
30
0
10
88.423677606861574
20
-13.382783297358479
30
0
10
88.43653557549095
20
-13.536941661941807
30
0
10
88.465671653645131
20
-13.612987614490084
30
0
10
88.594603994045571
20
-13.880547982183785
30
0
10
88.691618710644832
20
-14.091664761613178
30
0
10
88.95550654055738
20
-14.74480281310635
30
0
10
89.104539917013227
20
-15.202135867853155
30
0
10
89.228175584987952
20
-15.66032674129087
30
0
0
ARC
5
214
100
AcDbEntity
8
0
100
AcDbCircle
10
68.279668906408958
20
9.5893618038472184
30
0
40
32.808332839218394
210
0
220
0
230
1
100
AcDbArc
50
314.31906474273518
51
315.68093525665091
0
SPLINE
5
215
100
AcDbEntity
8
0
100
AcDbSpline
70
0
71
3
72
30
73
26
74
0
42
0.000000001
43
0.0000000001
44
0.0000000001
40
-0.31526225364259569
40
-0.31526225364259569
40
-0.31526225364259569
40
-0.31526225364259569
40
-0.29320992188148981
40
-0.29320992188148981
40
-0.28141482060695511
40
-0.28141482060695511
40
-0.27806273348053295
40
-0.27806273348053295
40
-0.27514895939681405
40
-0.27514895939681405
40
-0.27148660585108275
40
-0.27148660585108275
40
-0.26629558505683548
40
-0.26629558505683548
40
-0.25918538661738977
40
-0.25918538661738977
40
-0.24739221769133971
40
-0.24739221769133971
40
-0.23189469134624011
40
-0.23189469134624011
40
-0.21232517221450134
40
-0.21232517221450134
40
-0.14237351909911072
40
-0.14237351909911072
40
0
40
0
40
0
40
0
10
93.529357451546886
20
-11.359144874731729
30
0
10
93.098929916653518
20
-11.243000711073471
30
0
10
92.669294061893851
20
-11.10445281096089
30
0
10
92.034158315944751
20
-10.854038918570797
30
0
10
91.815214174912001
20
-10.759989149221397
30
0
10
91.5406963248723
20
-10.625877287122689
30
0
10
91.479475651888094
20
-10.591967062777027
30
0
10
91.324305126889527
20
-10.555649219176079
30
0
10
91.265868774554875
20
-10.556630477729474
30
0
10
91.165155885804481
20
-10.569436364108071
30
0
10
91.111481210862934
20
-10.586926463217093
30
0
10
90.992628845137048
20
-10.65347665281347
30
0
10
90.952358661493875
20
-10.701379441919144
30
0
10
90.843566331315117
20
-10.824685274722556
30
0
10
90.819589654234605
20
-10.847620945547348
30
0
10
90.752543894138853
20
-10.944380562995191
30
0
10
90.73655679625729
20
-10.99919649636799
30
0
10
90.717369953272055
20
-11.090760654683919
30
0
10
90.714569644887618
20
-11.151317209360773
30
0
10
90.743471113168752
20
-11.303287054598119
30
0
10
90.780396547397956
20
-11.375870869990173
30
0
10
90.936590257012838
20
-11.628488414585846
30
0
10
91.055141229367692
20
-11.82830787496755
30
0
10
91.385854970962171
20
-12.450284178541837
30
0
10
91.581876248401699
20
-12.889533685145679
30
0
10
91.75272861513443
20
-13.332291094658046
30
0
0
ARC
5
216
100
AcDbEntity
8
0
100
AcDbCircle
10
68.279668906408958
20
9.5893618038472184
30
0
40
32.808332839218394
210
0
220
0
230
1
100
AcDbArc
50
320.31906474273518
51
321.68093525665091
0
SPLINE
5
217
100
AcDbEntity
8
0
100
AcDbSpline
70
0
71
3
72
30
73
26
74
0
42
0.000000001
43
0.0000000001
44
0.0000000001
40
-0.3152622536203934
40
-0.3152622536203934
40
-0.3152622536203934
40
-0.3152622536203934
40
-0.29320992186314287
40
-0.29320992186314287
40
-0.28141482059094869
40
-0.28141482059094869
40
-0.27806273346516708
40
-0.27806273346516708
40
-0.27514895938190848
40
-0.27514895938190848
40
-0.27148660583649409
40
-0.27148660583649409
40
-0.26629558504254153
40
-0.26629558504254153
40
-0.25918538660524792
40
-0.25918538660524792
40
-0.24739221768458219
40
-0.24739221768458219
40
-0.23189469134257315
40
-0.23189469134257315
40
-0.21232517221114386
40
-0.21232517221114386
40
-0.14237351909738644
40
-0.14237351909738644
40
0
40
0
40
0
40
0
10
95.580752226642147
20
-8.6050756216579174
30
0
10
95.140542247864275
20
-8.5345596366490284
30
0
10
94.698777784179541
20
-8.4416798920909244
30
0
10
94.040945998953958
20
-8.2590275566950062
30
0
10
93.813370378978448
20
-8.1883788964277375
30
0
10
93.526337859599153
20
-8.0836966421479861
30
0
10
93.461907976226769
20
-8.0563714844264602
30
0
10
93.303791243214974
20
-8.0364723302953482
30
0
10
93.245777580781279
20
-8.043556475521644
30
0
10
93.146954987400562
20
-8.0668195734067751
30
0
10
93.095402561127031
20
-8.0898243912110424
30
0
10
92.984157670143901
20
-8.1684334670519387
30
0
10
92.949115295711721
20
-8.2202832200801534
30
0
10
92.853807910527152
20
-8.3542854657022048
30
0
10
92.832360010610529
20
-8.3796017377410088
30
0
10
92.775795668319759
20
-8.4828394861571184
30
0
10
92.765625974711256
20
-8.5390262388856897
30
0
10
92.756115300017754
20
-8.6320943703870547
30
0
10
92.759660215622532
20
-8.692611901853633
30
0
10
92.804288533018592
20
-8.84072821429789
30
0
10
92.848598760535509
20
-8.9090546490576461
30
0
10
93.030342548397641
20
-9.14396163987435
30
0
10
93.169130907246313
20
-9.3302945173854503
30
0
10
93.563047191565488
20
-9.9142945705041452
30
0
10
93.803908719853283
20
-10.330648019453722
30
0
10
94.020105891058577
20
-10.753121022204969
30
0
0
ARC
5
218
100
AcDbEntity
8
0
100
AcDbCircle
10
68.279668906408958
20
9.5893618038472184
30
0
40
32.808332839218394
210
0
220
0
230
1
100
AcDbArc
50
326.31906474273512
51
327.68093525665057
0
SPLINE
5
219
100
AcDbEntity
8
0
100
AcDbSpline
70
0
71
3
72
30
73
26
74
0
42
0.000000001
43
0.0000000001
44
0.0000000001
40
-0.31526225363062216
40
-0.31526225363062216
40
-0.31526225363062216
40
-0.31526225363062216
40
-0.29320992187638723
40
-0.29320992187638723
40
-0.28141482060553891
40
-0.28141482060553891
40
-0.27806273348018035
40
-0.27806273348018035
40
-0.27514895939716616
40
-0.27514895939716616
40
-0.27148660585178735
40
-0.27148660585178735
40
-0.26629558505815959
40
-0.26629558505815959
40
-0.25918538661812213
40
-0.25918538661812213
40
-0.24739221768968581
40
-0.24739221768968581
40
-0.23189469134353025
40
-0.23189469134353025
40
-0.21232517221239272
40
-0.21232517221239272
40
-0.1423735190979665
40
-0.1423735190979665
40
0
40
0
40
0
40
0
10
97.333030619761956
20
-5.651664304719457
30
0
10
96.887861229769513
20
-5.6275490862519657
30
0
10
96.4388082210764
20
-5.5813551071691503
30
0
10
95.765487739265311
20
-5.4684655059764431
30
0
10
95.531774006453233
20
-5.4219919962945706
30
0
10
95.235371606071283
20
-5.3478862705143566
30
0
10
95.168438419596782
20
-5.3274455595634951
30
0
10
95.009107838590211
20
-5.324183114198604
30
0
10
94.952152475883182
20
-5.337292530719397
30
0
10
94.856302898884508
20
-5.3707579647405712
30
0
10
94.807437540448319
20
-5.3990254556417572
30
0
10
94.705018946516034
20
-5.4888321602383172
30
0
10
94.67558831288207
20
-5.5440608004398761
30
0
10
94.594810080317643
20
-5.6872913022824356
30
0
10
94.576125945263797
20
-5.7147108051353213
30
0
10
94.530662751554388
20
-5.8232955901293266
30
0
10
94.526421883510238
20
-5.8802375683906671
30
0
10
94.52669157805154
20
-5.9737899991176047
30
0
10
94.536542878793156
20
-6.0336054646347748
30
0
10
94.596409088129406
20
-6.1762454510100229
30
0
10
94.647618636813263
20
-6.2395659064257103
30
0
10
94.852921279948944
20
-6.4541886533134596
30
0
10
95.0104264309889
20
-6.6249934459551918
30
0
10
95.46322942878561
20
-7.164618821820139
30
0
10
95.746292278615101
20
-7.5535145576006402
30
0
10
96.005465552846175
20
-7.9510744509714453
30
0
0
ARC
5
220
100
AcDbEntity
8
0
100
AcDbCircle
10
68.279668906408958
20
9.5893618038472184
30
0
40
32.808332839218394
210
0
220
0
230
1
100
AcDbArc
50
332.31906474273518
51
333.68093525665068
0
SPLINE
5
221
100
AcDbEntity
8
0
100
AcDbSpline
70
0
71
3
72
30
73
26
74
0
42
0.000000001
43
0.0000000001
44
0.0000000001
40
-0.31526225366810734
40
-0.31526225366810734
40
-0.31526225366810734
40
-0.31526225366810734
40
-0.29320992187997219
40
-0.29320992187997219
40
-0.28141482059278106
40
-0.28141482059278106
40
-0.27806273346282528
40
-0.27806273346282528
40
-0.27514895937728079
40
-0.27514895937728079
40
-0.27148660583207412
40
-0.27148660583207412
40
-0.26629558503847683
40
-0.26629558503847683
40
-0.25918538660149765
40
-0.25918538660149765
40
-0.24739221768114894
40
-0.24739221768114894
40
-0.23189469133955476
40
-0.23189469133955476
40
-0.21232517220835506
40
-0.21232517220835506
40
-0.14237351909597146
40
-0.14237351909597146
40
0
40
0
40
0
40
0
10
98.766994302143459
20
-2.5312691163457823
30
0
10
98.321742869893257
20
-2.5538188757993829
30
0
10
97.870321234893908
20
-2.5548167730903781
30
0
10
97.188889096601642
20
-2.5129267481900208
30
0
10
96.951597867545615
20
-2.4911375625939502
30
0
10
96.649073032921947
20
-2.448420283157291
30
0
10
96.580369877340146
20
-2.4350879716836205
30
0
10
96.421571107564205
20
-2.4484979791173878
30
0
10
96.366298059455971
20
-2.4674890374074887
30
0
10
96.27447164682296
20
-2.5107901532861554
30
0
10
96.228828735317634
20
-2.5440106127391093
30
0
10
96.136358557979975
20
-2.6440310050482552
30
0
10
96.112862113325747
20
-2.702033435889577
30
0
10
96.047498056635007
20
-2.8529229305409931
30
0
10
96.031782393716171
20
-2.8821452504302347
30
0
10
95.997918452846903
20
-2.9948873943935972
30
0
10
95.999652874204685
20
-3.0519607299618912
30
0
10
96.009699983154505
20
-3.144972479955106
30
0
10
96.025749736140483
20
-3.2034305287638376
30
0
10
96.100197930683265
20
-3.3390313954793371
30
0
10
96.15774573799365
20
-3.3966521193812893
30
0
10
96.384357897685376
20
-3.5886391706148113
30
0
10
96.558854181521511
20
-3.742044505336084
30
0
10
97.065582888403554
20
-4.2313829554127551
30
0
10
97.38774576395565
20
-4.5885601549609305
30
0
10
97.687055584579454
20
-4.9568511895578897
30
0
0
ARC
5
222
100
AcDbEntity
8
0
100
AcDbCircle
10
68.279668906408958
20
9.5893618038472184
30
0
40
32.808332839218409
210
0
220
0
230
1
100
AcDbArc
50
338.31906474273518
51
339.68093525665086
0
SPLINE
5
223
100
AcDbEntity
8
0
100
AcDbSpline
70
0
71
3
72
30
73
26
74
0
42
0.000000001
43
0.0000000001
44
0.0000000001
40
-0.31526225368853739
40
-0.31526225368853739
40
-0.31526225368853739
40
-0.31526225368853739
40
-0.29320992191787915
40
-0.29320992191787915
40
-0.28141482063859907
40
-0.28141482063859907
40
-0.2780627335107983
40
-0.2780627335107983
40
-0.27514895942528039
40
-0.27514895942528039
40
-0.2714866058758113
40
-0.2714866058758113
40
-0.26629558507617185
40
-0.26629558507617185
40
-0.25918538663075208
40
-0.25918538663075208
40
-0.24739221769623404
40
-0.24739221769623404
40
-0.23189469134592189
40
-0.23189469134592189
40
-0.21232517221399486
40
-0.21232517221399486
40
-0.14237351909892154
40
-0.14237351909892154
40
0
40
0
40
0
40
0
10
99.866932467606304
20
0.72192224079460465
30
0
10
99.426477261010433
20
0.65295456330476509
30
0
10
98.977632869652936
20
0.60477572280876579
30
0
10
98.29555498798662
20
0.57520721552887677
30
0
10
98.057286075007084
20
0.57207335016575489
30
0
10
97.751953331481388
20
0.58293416381250962
30
0
10
97.682232932945894
20
0.58901200421470623
30
0
10
97.525705806866654
20
0.55907646682170187
30
0
10
97.472720656441311
20
0.53441183673895942
30
0
10
97.385923477650479
20
0.48174945513123402
30
0
10
97.344003086365817
20
0.44393999743236545
30
0
10
97.262494448238698
20
0.33480176176276522
30
0
10
97.245189624528322
20
0.27466102705463347
30
0
10
97.195955885977824
20
0.11776571644187439
30
0
10
97.183380879296323
20
0.087060745385453275
30
0
10
97.16148721169246
20
-0.028603531015923833
30
0
10
97.169177919769311
20
-0.085182916480364135
30
0
10
97.188892364889199
20
-0.17663492947923909
30
0
10
97.210964725642398
20
-0.23309508296885273
30
0
10
97.299179235422798
20
-0.36017115861197158
30
0
10
97.362434795546704
20
-0.41146084629793078
30
0
10
97.607873661549419
20
-0.57870875156631918
30
0
10
97.797449260380176
20
-0.71303388741762452
30
0
10
98.352551850583453
20
-1.1467241172350562
30
0
10
98.710285067977637
20
-1.4682694724070777
30
0
10
99.046452133975407
20
-1.8032565745978002
30
0
0
ARC
5
224
100
AcDbEntity
8
0
100
AcDbCircle
10
68.279668906408958
20
9.5893618038472184
30
0
40
32.808332839218394
210
0
220
0
230
1
100
AcDbArc
50
344.31906474273524
51
345.68093525665108
0
SPLINE
5
225
100
AcDbEntity
8
0
100
AcDbSpline
70
0
71
3
72
30
73
26
74
0
42
0.000000001
43
0.0000000001
44
0.0000000001
40
-0.31526225365027455
40
-0.31526225365027455
40
-0.31526225365027455
40
-0.31526225365027455
40
-0.29320992187804112
40
-0.29320992187804112
40
-0.28141482059774436
40
-0.28141482059774436
40
-0.27806273346974603
40
-0.27806273346974603
40
-0.27514895938571288
40
-0.27514895938571288
40
-0.2714866058421207
40
-0.2714866058421207
40
-0.26629558505107809
40
-0.26629558505107809
40
-0.25918538661396695
40
-0.25918538661396695
40
-0.24739221768970904
40
-0.24739221768970904
40
-0.23189469134610075
40
-0.23189469134610075
40
-0.2123251722147235
40
-0.2123251722147235
40
-0.14237351909937687
40
-0.14237351909937687
40
0
40
0
40
0
40
0
10
100.62079396343282
20
4.0722671214188271
30
0
10
100.18996070189382
20
3.9576371502005028
30
0
10
99.748611187239362
20
3.8628052239593327
30
0
10
99.073360550199695
20
3.7621021432554205
30
0
10
98.836724477383001
20
3.7340795622159941
30
0
10
98.531929114410929
20
3.7129649167228109
30
0
10
98.461955344196937
20
3.7117216959619235
30
0
10
98.309414805857656
20
3.6655886086411957
30
0
10
98.259298069504894
20
3.6355206376495799
30
0
10
98.178481092522659
20
3.5740739703340019
30
0
10
98.140742510037612
20
3.5320897627202141
30
0
10
98.071088436817888
20
3.415029425042222
30
0
10
98.060164829319859
20
3.3534093009447732
30
0
10
98.027600824045535
20
3.1922271521901591
30
0
10
98.018304248011191
20
3.160375940075939
30
0
10
98.008620725275861
20
3.0430567732650626
30
0
10
98.022183459063427
20
2.9875912334919486
30
0
10
98.051349244777924
20
2.8987009248183515
30
0
10
98.079202383917661
20
2.8448572559107266
30
0
10
98.180216712272426
20
2.727698243466774
30
0
10
98.248486984060165
20
2.6833015325462739
30
0
10
98.510063476794642
20
2.542625176292761
30
0
10
98.712641360688082
20
2.4288519336092396
30
0
10
99.310036014077369
20
2.0555615249587413
30
0
10
99.699420173322665
20
1.7731709323608325
30
0
10
100.06876136796683
20
1.4751579513751834
30
0
0
ARC
5
226
100
AcDbEntity
8
0
100
AcDbCircle
10
68.279668906408958
20
9.5893618038472184
30
0
40
32.808332839218394
210
0
220
0
230
1
100
AcDbArc
50
350.31906474273529
51
351.68093525665091
0
SPLINE
5
227
100
AcDbEntity
8
0
100
AcDbSpline
70
0
71
3
72
30
73
26
74
0
42
0.000000001
43
0.0000000001
44
0.0000000001
40
-0.31526225365463995
40
-0.31526225365463995
40
-0.31526225365463995
40
-0.31526225365463995
40
-0.29320992188182282
40
-0.29320992188182282
40
-0.28141482060263118
40
-0.28141482060263118
40
-0.27806273347492255
40
-0.27806273347492255
40
-0.27514895939044842
40
-0.27514895939044842
40
-0.27148660584446332
40
-0.27148660584446332
40
-0.26629558504980722
40
-0.26629558504980722
40
-0.2591853866105594
40
-0.2591853866105594
40
-0.24739221768559164
40
-0.24739221768559164
40
-0.2318946913411655
40
-0.2318946913411655
40
-0.21232517220987707
40
-0.21232517220987707
40
-0.14237351909668167
40
-0.14237351909668167
40
0
40
0
40
0
40
0
10
101.02031932531908
20
7.4830584459100162
30
0
10
100.60382830817883
20
7.3240220909060323
30
0
10
100.17480918784116
20
7.1835760773426287
30
0
10
99.5137839827172
20
7.0128417472460107
30
0
10
99.281373384418771
20
6.9602374717969422
30
0
10
98.980454803806026
20
6.9073787036436762
30
0
10
98.910994309180396
20
6.898828042706131
30
0
10
98.76411162457542
20
6.8370028491967254
30
0
10
98.71741239175266
20
6.8018609682539299
30
0
10
98.643461064350902
20
6.7323032378166081
30
0
10
98.610317762472988
20
6.6866042680516857
30
0
10
98.553281398760873
20
6.5629043659145747
30
0
10
98.548858688807314
20
6.5004799753970088
30
0
10
98.53332119487925
20
6.3367769339198858
30
0
10
98.52740490471399
20
6.304128449253489
30
0
10
98.530037621549567
20
6.1864397653528247
30
0
10
98.549323784900253
20
6.1326957633298651
30
0
10
98.587621364754796
20
6.0473410598299822
30
0
10
98.620950117452097
20
5.9967037980059912
30
0
10
98.73365753027565
20
5.8907454674045443
30
0
10
98.806194530332604
20
5.8537281529109819
30
0
10
99.081042763009677
20
5.7411646252680786
30
0
10
99.29440344627784
20
5.6491897992075994
30
0
10
99.927544982023505
20
5.3403890595541785
30
0
10
100.34431390879038
20
5.100247159953927
30
0
10
100.74278265265414
20
4.8424733927621775
30
0
0
ARC
5
228
100
AcDbEntity
8
0
100
AcDbCircle
10
68.279668906408958
20
9.5893618038472184
30
0
40
32.808332839218423
210
0
220
0
230
1
100
AcDbArc
50
356.31906474273524
51
357.68093525665108
0
SPLINE
5
229
100
AcDbEntity
8
0
100
AcDbSpline
70
0
71
3
72
30
73
26
74
0
42
0.000000001
43
0.0000000001
44
0.0000000001
40
-0.31526225362480892
40
-0.31526225362480892
40
-0.31526225362480892
40
-0.31526225362480892
40
-0.29320992186627132
40
-0.29320992186627132
40
-0.28141482059299228
40
-0.28141482059299228
40
-0.27806273346692539
40
-0.27806273346692539
40
-0.27514895938365508
40
-0.27514895938365508
40
-0.27148660583882411
40
-0.27148660583882411
40
-0.26629558504586071
40
-0.26629558504586071
40
-0.2591853866079481
40
-0.2591853866079481
40
-0.24739221768424344
40
-0.24739221768424344
40
-0.2318946913408684
40
-0.2318946913408684
40
-0.21232517220979094
40
-0.21232517220979094
40
-0.14237351909663973
40
-0.14237351909663973
40
0
40
0
40
0
40
0
10
101.06113126979416
20
10.916926870763081
30
0
10
100.66354565983806
20
10.715226567576654
30
0
10
100.25155735712241
20
10.530705222617938
30
0
10
99.611999914392413
20
10.291810244169444
30
0
10
99.386361129722417
20
10.215200617750742
30
0
10
99.09261625835785
20
10.131176858650996
30
0
10
99.024430063039318
20
10.115412440368672
30
0
10
98.884814509612923
20
10.03857251043377
30
0
10
98.842044426885835
20
9.9987417413475779
30
0
10
98.775768975266857
20
9.9218350368288331
30
0
10
98.747584078947
20
9.8729219923891769
30
0
10
98.703790327079986
20
9.7439378078110988
30
0
10
98.705916970804978
20
9.681393085562128
30
0
10
98.707576220252378
20
9.5169627161012222
30
0
10
98.70510503607413
20
9.4838746625368167
30
0
10
98.720025147882509
20
9.3671058834091792
30
0
10
98.744823437553237
20
9.3156722496700475
30
0
10
98.791833215248786
20
9.2347883153329917
30
0
10
98.83027242471465
20
9.1879122530301629
30
0
10
98.953438076004275
20
9.0943155059120482
30
0
10
99.029447073785676
20
9.0650831572857875
30
0
10
99.314555751650147
20
8.9818657278187626
30
0
10
99.536361609998437
20
8.9126970138227133
30
0
10
100.19831319693652
20
8.6717692286938544
30
0
10
100.63790068364676
20
8.4765070669987139
30
0
10
101.06113126979432
20
8.2617967369312773
30
0
0
ARC
5
230
100
AcDbEntity
8
0
100
AcDbCircle
10
68.279668906408958
20
9.5893618038472184
30
0
40
32.808332839218409
210
0
220
-0
230
1
100
AcDbArc
50
2.3190647427349944
51
3.6809352566507321
0
SPLINE
5
231
100
AcDbEntity
8
0
100
AcDbSpline
70
0
71
3
72
30
73
26
74
0
42
0.000000001
43
0.0000000001
44
0.0000000001
40
-0.31526225365660587
40
-0.31526225365660587
40
-0.31526225365660587
40
-0.31526225365660587
40
-0.29320992188089895
40
-0.29320992188089895
40
-0.28141482059956913
40
-0.28141482059956913
40
-0.27806273347123373
40
-0.27806273347123373
40
-0.27514895938642525
40
-0.27514895938642525
40
-0.27148660584061313
40
-0.27148660584061313
40
-0.26629558504616407
40
-0.26629558504616407
40
-0.25918538660767876
40
-0.25918538660767876
40
-0.24739221768453176
40
-0.24739221768453176
40
-0.23189469134128496
40
-0.23189469134128496
40
-0.21232517221011515
40
-0.21232517221011515
40
-0.14237351909683232
40
-0.14237351909683232
40
0
40
0
40
0
40
0
10
100.742782652654
20
14.336250214932193
30
0
10
100.36845848099153
20
14.094095834278084
30
0
10
99.978014825921676
20
13.867520812380114
30
0
10
99.3669322707552
20
13.563082568960152
30
0
10
99.15053744548969
20
13.463306942681438
30
0
10
98.867184613698115
20
13.349038774536266
30
0
10
98.801019779908174
20
13.326233317173337
30
0
10
98.670201014894459
20
13.235220525172448
30
0
10
98.631828680236836
20
13.19113726218885
30
0
10
98.57395523210829
20
13.107724189524593
30
0
10
98.551037540968608
20
13.056132971960459
30
0
10
98.520966214456379
20
12.923277682656153
30
0
10
98.529618911907647
20
12.861297881739384
30
0
10
98.548456725645195
20
12.697941717858212
30
0
10
98.549457722264663
20
12.664776615019289
30
0
10
98.576501761180793
20
12.550207083836572
30
0
10
98.606540481921286
20
12.501647336035306
30
0
10
98.661747408495842
20
12.426120352174108
30
0
10
98.704875926707615
20
12.383519073340208
30
0
10
98.837150387814162
20
12.303309375254013
30
0
10
98.915798612831551
20
12.282182268224965
30
0
10
99.208044025546641
20
12.229222684505249
30
0
10
99.435864907575109
20
12.183617909478567
30
0
10
100.11937406559638
20
12.013202734105672
30
0
10
100.5769638997557
20
11.864959643420532
30
0
10
101.02031932531924
20
11.695665161784387
30
0
0
LWPOLYLINE
5
232
100
AcDbEntity
8
0
100
AcDbPolyline
90
8
70
1
43
0.0
10
74.199555656096891
20
33.671049646745715
42
-0.15196059458077374
10
79.720370425721342
20
23.497465018998327
42
0.17236145631625424
10
79.760597261387417
20
23.429889483445578
42
-0.046492172395841462
10
82.120196586007296
20
21.07029015882571
42
0.77270001005538058
10
82.326104762185338
20
21.166581394367068
42
0.15204375644366352
10
75.888396930781639
20
33.407950503859411
42
0.1200290687467809
10
75.840886917242386
20
33.436815339148446
42
0.015902626598538035
10
74.309798985457448
20
33.869200953962228
42
0.76535955684682488
0
LWPOLYLINE
5
233
100
AcDbEntity
8
0
100
AcDbPolyline
90
8
70
1
43
0.0
10
92.712778488965569
20
14.964881690563596
42
0.015902626598535415
10
92.321691449732782
20
16.507035542324019
42
0.76535955684687196
10
92.094965719209924
20
16.503433412539763
42
-0.15196059458077371
10
86.04479036884203
20
6.6354752585829813
42
0.172361456316282
10
86.006381656212056
20
6.5668500292059413
42
-0.046492172395839651
10
85.142708360648584
20
3.3435774090225823
42
0.77270001005537103
10
85.329053104878213
20
3.2134013153761209
42
0.15204375644366372
10
92.711535815098856
20
14.909304394259932
42
0.12002906874683164
0
LWPOLYLINE
5
234
100
AcDbEntity
8
0
100
AcDbPolyline
90
8
70
1
43
0.0
10
86.291561370684221
20
-7.7728036077910172
42
0.7653595568468583
10
86.175078969521905
20
-7.578254430358764
42
-0.15196059458077324
10
74.604088849529575
20
-7.2726279565681207
42
0.17236145631624955
10
74.525453301233554
20
-7.2736776503924228
42
-0.046492172395840713
10
71.302180681050174
20
-8.1373509459558928
42
0.77270001005535527
10
71.282617249101747
20
-8.3638182751436894
42
0.15204375644366422
10
85.102807790726075
20
-8.9092843057522746
42
0.12002906874672779
10
85.151560478132055
20
-8.8825718447376527
42
0.015902626598534107
0
LWPOLYLINE
5
235
100
AcDbEntity
8
0
100
AcDbPolyline
90
8
70
1
43
0.0
10
62.249538827360489
20
-14.690477346267796
42
0.76535955684680668
10
62.359782156721039
20
-14.492326039051287
42
-0.15196059458077391
10
56.838967387096574
20
-4.3187414113038898
42
0.17236145631623861
10
56.798740551430512
20
-4.2511658757511501
42
-0.046492172395839804
10
54.439141226810634
20
-1.891566551131274
42
0.77270001005538469
10
54.233233050632549
20
-1.9878577866726355
42
0.15204375644366408
10
60.670940882036277
20
-14.229226896164974
42
0.12002906874670827
10
60.718450895575529
20
-14.258091731454003
42
0.015902626598535852
0
LWPOLYLINE
5
236
100
AcDbEntity
8
0
100
AcDbPolyline
90
8
70
1
43
0.0
10
43.84780199771906
20
4.2694192134346807
42
0.12002906874692422
10
43.846559323852304
20
4.2138419171310151
42
0.015902626598530614
10
44.237646363085084
20
2.6716880653705841
42
0.76535955684688761
10
44.464372093607963
20
2.6752901951548353
42
-0.15196059458077291
10
50.514547443975914
20
12.543248349111575
42
0.17236145631627378
10
50.552956156605894
20
12.61187357848862
42
-0.046492172395841462
10
51.416629452169396
20
15.835146198671971
42
0.77270001005536282
10
51.230284707939759
20
15.965322292318424
42
0.15204375644366386
0
LWPOLYLINE
5
237
100
AcDbEntity
8
0
100
AcDbPolyline
90
8
70
1
43
0.0
10
65.27672056371631
20
27.542541882838172
42
0.15204375644366352
10
51.456530022091997
20
28.088007913446837
42
0.12002906874677034
10
51.407777334685996
20
28.061295452432216
42
0.015902626598534107
10
50.26777644213383
20
26.95152721548558
42
0.76535955684681112
10
50.384258843296152
20
26.756978038053312
42
-0.15196059458077399
10
61.955248963288469
20
26.451351564262595
42
0.17236145631628513
10
62.033884511584525
20
26.452401258086908
42
-0.046492172395840713
10
65.257157131767883
20
27.316074553650349
42
0.77270001005537425
0
CIRCLE
5
238
100
AcDbEntity
8
0
100
AcDbCircle
10
46.282623650284229
20
-3.1106381961527796
30
0
40
2.1000000000000005
210
0
220
0
230
1
0
CIRCLE
5
239
100
AcDbEntity
8
0
100
AcDbCircle
10
90.276714162533708
20
-3.1106381961527863
30
0
40
2.1000000000000005
210
0
220
0
230
1
0
CIRCLE
5
240
100
AcDbEntity
8
0
100
AcDbCircle
10
68.279668906408958
20
34.989361803847217
30
0
40
2.1000000000000005
210
0
220
0
230
1
0
LWPOLYLINE
5
241
100
AcDbEntity
8
0
100
AcDbPolyline
90
4
70
1
43
0.0
10
69.867168906412616
20
8.0018618038472198
10
66.692168906408952
20
8.0018618038472198
10
66.692168906408952
20
11.176861803847217
10
69.867168906412616
20
11.176861803847217
0
ENDSEC
0
SECTION
2
OBJECTS
0
DICTIONARY
5
C
100
AcDbDictionary
3
ACAD_GROUP
350
D
3
ACAD_MLINESTYLE
350
17
0
DICTIONARY
5
D
100
AcDbDictionary
0
DICTIONARY
5
1A
330
C
100
AcDbDictionary
0
DICTIONARY
5
17
100
AcDbDictionary
0
ENDSEC
0
EOF
