0
SECTION
2
TABLES
0
TABLE
2
LAYER
0
ENDTAB
0
ENDSEC
0
SECTION
2
ENTITIES
0
LINE
8
0
10
60.920156542731256
20
-1.4537651320339657
11
62.20374597749545
21
-1.0792969856113774
0
LINE
8
0
10
62.20374597749545
20
-1.0792969856113774
11
63.74800376743477
21
-0.5044954579799806
0
LINE
8
0
10
63.74800376743477
20
-0.5044954579799806
11
63.748003767434774
21
-0.504495457979966
0
LINE
8
0
10
63.748003767434774
20
-0.504495457979966
11
63.75
21
0
0
LINE
8
0
10
63.75
20
0
11
63.748003767434774
21
0.504495457979966
0
LINE
8
0
10
63.748003767434774
20
0.504495457979966
11
63.74800376743477
21
0.5044954579799806
0
LINE
8
0
10
63.74800376743477
20
0.5044954579799806
11
62.20374597749545
21
1.0792969856113774
0
LINE
8
0
10
62.20374597749545
20
1.0792969856113774
11
60.920156542731256
21
1.4537651320339657
0
LINE
8
0
10
60.920156542731256
20
1.4537651320339657
11
60.920156542731256
21
1.4537651320339657
0
LINE
8
0
10
60.920156542731256
20
1.4537651320339657
11
60.90743102228677
21
1.9140931313234297
0
LINE
8
0
10
60.90743102228677
20
1.9140931313234297
11
60.891227197594255
21
2.374311820498215
0
LINE
8
0
10
60.891227197594255
20
2.374311820498215
11
60.89122719759425
21
2.374311820498215
0
LINE
8
0
10
60.89122719759425
20
2.374311820498215
11
62.148770712356
21
2.828638287044135
0
LINE
8
0
10
62.148770712356
20
2.828638287044135
11
63.65388917575279
21
3.4992703240791485
0
LINE
8
0
10
63.65388917575279
20
3.4992703240791485
11
63.653889175752795
21
3.499270324079188
0
LINE
8
0
10
63.653889175752795
20
3.499270324079188
11
63.62420393730231
21
4.002895619993728
0
LINE
8
0
10
63.62420393730231
20
4.002895619993728
11
63.59053411193931
21
4.506270226948523
0
LINE
8
0
10
63.59053411193931
20
4.506270226948523
11
63.59053411193931
21
4.506270226948515
0
LINE
8
0
10
63.59053411193931
20
4.506270226948515
11
62.013231475450084
21
4.982972766148574
0
LINE
8
0
10
62.013231475450084
20
4.982972766148574
11
60.708661861766224
21
5.276104737752129
0
LINE
8
0
10
60.708661861766224
20
5.276104737752129
11
60.708661861766224
21
5.276104737752148
0
LINE
8
0
10
60.708661861766224
20
5.276104737752148
11
60.66705721800019
21
5.734725342846954
0
LINE
8
0
10
60.66705721800019
20
5.734725342846954
11
60.621987997263915
21
6.193018448994808
0
LINE
8
0
10
60.621987997263915
20
6.193018448994808
11
60.62198799726389
21
6.1930184489948426
0
LINE
8
0
10
60.62198799726389
20
6.1930184489948426
11
61.84852264228742
21
6.725410216662647
0
LINE
8
0
10
61.84852264228742
20
6.725410216662647
11
63.30856176418989
21
7.48922608483374
0
LINE
8
0
10
63.30856176418989
20
7.48922608483374
11
63.30856176418989
21
7.489226084833746
0
LINE
8
0
10
63.30856176418989
20
7.489226084833746
11
63.247312208797965
21
7.989993639724396
0
LINE
8
0
10
63.247312208797965
20
7.989993639724396
11
63.18210167005562
21
8.490260806050353
0
LINE
8
0
10
63.18210167005562
20
8.490260806050353
11
63.182101670055616
21
8.490260806050378
0
LINE
8
0
10
63.182101670055616
20
8.490260806050378
11
61.57797907992167
21
8.866983029681544
0
LINE
8
0
10
61.57797907992167
20
8.866983029681544
11
60.257577827582196
21
9.077621968493407
0
LINE
8
0
10
60.257577827582196
20
9.077621968493407
11
60.2575778275822
21
9.077621968493396
0
LINE
8
0
10
60.2575778275822
20
9.077621968493396
11
60.18725825501621
21
9.532725213389055
0
LINE
8
0
10
60.18725825501621
20
9.532725213389055
11
60.11350150586024
21
9.987284062994219
0
LINE
8
0
10
60.11350150586024
20
9.987284062994219
11
60.11350150586024
21
9.987284062994227
0
LINE
8
0
10
60.11350150586024
20
9.987284062994227
11
61.304186709252
21
10.595640024703604
0
LINE
8
0
10
61.304186709252
20
10.595640024703604
11
62.713384382274405
21
11.449625291733376
0
LINE
8
0
10
62.713384382274405
20
11.449625291733376
11
62.7133843822744
21
11.449625291733403
0
LINE
8
0
10
62.7133843822744
20
11.449625291733403
11
62.620812233953906
21
11.945558804839946
0
LINE
8
0
10
62.620812233953906
20
11.945558804839946
11
62.52431833803678
21
12.440744204581906
0
LINE
8
0
10
62.52431833803678
20
12.440744204581906
11
62.52431833803677
21
12.440744204581907
0
LINE
8
0
10
62.52431833803677
20
12.440744204581907
11
60.89970653326746
21
12.715999362135525
0
LINE
8
0
10
60.89970653326746
20
12.715999362135525
11
59.56868466278141
21
12.843313972495977
0
LINE
8
0
10
59.56868466278141
20
12.843313972495977
11
59.56868466278141
21
12.84331397249599
0
LINE
8
0
10
59.56868466278141
20
12.84331397249599
11
59.46992768064242
21
13.293103772601802
0
LINE
8
0
10
59.46992768064242
20
13.293103772601802
11
59.36777448725944
21
13.74213442955306
0
LINE
8
0
10
59.36777448725944
20
13.74213442955306
11
59.367774487259425
21
13.742134429553102
0
LINE
8
0
10
59.367774487259425
20
13.742134429553102
11
60.517911158493966
21
14.424053682254584
0
LINE
8
0
10
60.517911158493966
20
14.424053682254584
11
61.87070592322207
21
15.364838058442821
0
LINE
8
0
10
61.87070592322207
20
15.364838058442821
11
61.870705923222076
21
15.364838058442821
0
LINE
8
0
10
61.870705923222076
20
15.364838058442821
11
61.74717652195023
21
15.853980306759492
0
LINE
8
0
10
61.74717652195023
20
15.853980306759492
11
61.619780086181635
21
16.342129669373367
0
LINE
8
0
10
61.619780086181635
20
16.342129669373367
11
61.61978008618163
21
16.3421296693734
0
LINE
8
0
10
61.61978008618163
20
16.3421296693734
11
59.98109066735584
21
16.514831454494722
0
LINE
8
0
10
59.98109066735584
20
16.514831454494722
11
58.64470111395997
21
16.55831928380119
0
LINE
8
0
10
58.64470111395997
20
16.55831928380119
11
58.644701113959975
21
16.55831928380117
0
LINE
8
0
10
58.644701113959975
20
16.55831928380117
11
58.51789647093872
21
17.00102052426552
0
LINE
8
0
10
58.51789647093872
20
17.00102052426552
11
58.38774998531364
21
17.44275086970249
0
LINE
8
0
10
58.38774998531364
20
17.44275086970249
11
58.38774998531363
21
17.442750869702515
0
LINE
8
0
10
58.38774998531363
20
17.442750869702515
11
59.492799060397054
21
18.19554218964495
0
LINE
8
0
10
59.492799060397054
20
18.19554218964495
11
60.78385205392762
21
19.21941282886235
0
LINE
8
0
10
60.78385205392762
20
19.21941282886235
11
60.78385205392762
21
19.21941282886236
0
LINE
8
0
10
60.78385205392762
20
19.21941282886236
11
60.62985291381604
21
19.699833391402898
0
LINE
8
0
10
60.62985291381604
20
19.699833391402898
11
60.472056713726055
21
20.17902021436867
0
LINE
8
0
10
60.472056713726055
20
20.17902021436867
11
60.47205671372605
21
20.179020214368684
0
LINE
8
0
10
60.47205671372605
20
20.179020214368684
11
58.82575683933392
21
20.248487052011782
0
LINE
8
0
10
58.82575683933392
20
20.248487052011782
11
57.489273722057156
21
20.20797647366969
0
LINE
8
0
10
57.489273722057156
20
20.20797647366969
11
57.48927372205716
21
20.207976473669692
0
LINE
8
0
10
57.48927372205716
20
20.207976473669692
11
57.33492185814812
21
20.64184201494743
0
LINE
8
0
10
57.33492185814812
20
20.64184201494743
11
57.17729570900143
21
21.07452874100407
0
LINE
8
0
10
57.17729570900143
20
21.07452874100407
11
57.17729570900143
21
21.074528741004066
0
LINE
8
0
10
57.17729570900143
20
21.074528741004066
11
58.23289606408329
21
21.8952212047653
0
LINE
8
0
10
58.23289606408329
20
21.8952212047653
11
59.457112090076855
21
22.998137357360854
0
LINE
8
0
10
59.457112090076855
20
22.998137357360854
11
59.45711209007684
21
22.998137357360893
0
LINE
8
0
10
59.45711209007684
20
22.998137357360893
11
59.27325097537602
21
23.46794023364822
0
LINE
8
0
10
59.27325097537602
20
23.46794023364822
11
59.08567776047618
21
23.93627338549529
0
LINE
8
0
10
59.08567776047618
20
23.93627338549529
11
59.08567776047619
21
23.936273385495277
0
LINE
8
0
10
59.08567776047619
20
23.936273385495277
11
57.438264623999075
21
23.902231121788354
0
LINE
8
0
10
57.438264623999075
20
23.902231121788354
11
56.10696243112425
21
23.777882012542893
0
LINE
8
0
10
56.10696243112425
20
23.777882012542893
11
56.10696243112425
21
23.777882012542914
0
LINE
8
0
10
56.10696243112425
20
23.777882012542914
11
55.92567250261761
21
24.20119958555693
0
LINE
8
0
10
55.92567250261761
20
24.20119958555693
11
55.741188768347456
21
24.62313507540125
0
LINE
8
0
10
55.741188768347456
20
24.62313507540125
11
55.741188768347435
21
24.62313507540128
0
LINE
8
0
10
55.741188768347435
20
24.62313507540128
11
56.74317443108416
21
25.50848978476555
0
LINE
8
0
10
56.74317443108416
20
25.50848978476555
11
57.89572206817722
21
26.686098744559445
0
LINE
8
0
10
57.89572206817722
20
26.686098744559445
11
57.895722068177214
21
26.68609874455945
0
LINE
8
0
10
57.895722068177214
20
26.68609874455945
11
57.68272459470874
21
27.143429837273384
0
LINE
8
0
10
57.68272459470874
20
27.143429837273384
11
57.4661146307842
21
27.59906102101247
0
LINE
8
0
10
57.4661146307842
20
27.59906102101247
11
57.46611463078419
21
27.599061021012492
0
LINE
8
0
10
57.46611463078419
20
27.599061021012492
11
55.82408981924029
21
27.46164400521796
0
LINE
8
0
10
55.82408981924029
20
27.46164400521796
11
54.50322259230859
21
27.253947114193615
0
LINE
8
0
10
54.50322259230859
20
27.253947114193615
11
54.50322259230859
21
27.25394711419361
0
LINE
8
0
10
54.50322259230859
20
27.25394711419361
11
54.29571006772867
21
27.665046077878625
0
LINE
8
0
10
54.29571006772867
20
27.665046077878625
11
54.08509682135162
21
28.0745651448962
0
LINE
8
0
10
54.08509682135162
20
28.0745651448962
11
54.08509682135161
21
28.07456514489621
0
LINE
8
0
10
54.08509682135161
20
28.07456514489621
11
55.029513412096065
21
29.021088009305757
0
LINE
8
0
10
55.029513412096065
20
29.021088009305757
11
56.105844081313954
21
30.268742291732025
0
LINE
8
0
10
56.105844081313954
20
30.268742291732025
11
56.10584408131395
21
30.268742291732053
0
LINE
8
0
10
56.10584408131395
20
30.268742291732053
11
55.864550852796306
21
30.711796723984353
0
LINE
8
0
10
55.864550852796306
20
30.711796723984353
11
55.619759000414994
21
31.15292777149132
0
LINE
8
0
10
55.619759000414994
20
31.15292777149132
11
55.619759000414994
21
31.15292777149132
0
LINE
8
0
10
55.619759000414994
20
31.15292777149132
11
53.98960283556569
21
30.912678325790665
0
LINE
8
0
10
53.98960283556569
20
30.912678325790665
11
52.68438343407496
21
30.622453337728636
0
LINE
8
0
10
52.68438343407496
20
30.622453337728636
11
52.68438343407496
21
30.622453337728647
0
LINE
8
0
10
52.68438343407496
20
30.622453337728647
11
52.451467270552826
21
31.019711272288244
0
LINE
8
0
10
52.451467270552826
20
31.019711272288244
11
52.21555570633229
21
31.415197731813016
0
LINE
8
0
10
52.21555570633229
20
31.415197731813016
11
52.21555570633226
21
31.41519773181306
0
LINE
8
0
10
52.21555570633226
20
31.41519773181306
11
53.09867604426367
21
32.41915325794722
0
LINE
8
0
10
53.09867604426367
20
32.41915325794722
11
54.094541960183705
21
33.73192894155217
0
LINE
8
0
10
54.094541960183705
20
33.73192894155217
11
54.094541960183705
21
33.73192894155216
0
LINE
8
0
10
54.094541960183705
20
33.73192894155216
11
53.82590525075346
21
34.15895817991104
0
LINE
8
0
10
53.82590525075346
20
34.15895817991104
11
53.553897591521974
21
34.583848148474985
0
LINE
8
0
10
53.553897591521974
20
34.583848148474985
11
53.55389759152195
21
34.58384814847501
0
LINE
8
0
10
53.55389759152195
20
34.58384814847501
11
51.9420435550024
21
34.241714427670885
0
LINE
8
0
10
51.9420435550024
20
34.241714427670885
11
50.657623083632295
21
33.870106728007855
0
LINE
8
0
10
50.657623083632295
20
33.870106728007855
11
50.657623083632316
21
33.87010672800784
0
LINE
8
0
10
50.657623083632316
20
33.87010672800784
11
50.400222494856116
21
34.2519558378642
0
LINE
8
0
10
50.400222494856116
20
34.2519558378642
11
50.13994364795833
21
34.63184888552101
0
LINE
8
0
10
50.13994364795833
20
34.63184888552101
11
50.13994364795831
21
34.63184888552102
0
LINE
8
0
10
50.13994364795831
20
34.63184888552102
11
50.95828246056218
21
35.689274919581806
0
LINE
8
0
10
50.95828246056218
20
35.689274919581806
11
51.86975339538207
21
37.0619910784924
0
LINE
8
0
10
51.86975339538207
20
37.0619910784924
11
51.86975339538207
21
37.06199107849241
0
LINE
8
0
10
51.86975339538207
20
37.06199107849241
11
51.5748333914029
21
37.471309833645165
0
LINE
8
0
10
51.5748333914029
20
37.471309833645165
11
51.27668341528374
21
37.87828187667394
0
LINE
8
0
10
51.27668341528374
20
37.87828187667394
11
51.276683415283735
21
37.87828187667395
0
LINE
8
0
10
51.276683415283735
20
37.87828187667395
11
49.689492758590006
21
37.435614126256326
0
LINE
8
0
10
49.689492758590006
20
37.435614126256326
11
48.43094023814514
21
36.98409028081147
0
LINE
8
0
10
48.43094023814514
20
36.98409028081147
11
48.43094023814515
21
36.984090280811465
0
LINE
8
0
10
48.43094023814515
20
36.984090280811465
11
48.15007106664364
21
37.34902358197825
0
LINE
8
0
10
48.15007106664364
20
37.34902358197825
11
47.866452138767215
21
37.71182395346462
0
LINE
8
0
10
47.866452138767215
20
37.71182395346462
11
47.86645213876721
21
37.71182395346461
0
LINE
8
0
10
47.86645213876721
20
37.71182395346461
11
48.61677981661363
21
38.81854731798759
0
LINE
8
0
10
48.61677981661363
20
38.81854731798759
11
49.4402586109651
21
40.24578646865894
0
LINE
8
0
10
49.4402586109651
20
40.24578646865894
11
49.440258610965074
21
40.24578646865897
0
LINE
8
0
10
49.440258610965074
20
40.24578646865897
11
49.12021922695656
21
40.63577934647897
0
LINE
8
0
10
49.12021922695656
20
40.63577934647897
11
48.797103595693706
21
41.023227331246574
0
LINE
8
0
10
48.797103595693706
20
41.023227331246574
11
48.79710359569372
21
41.023227331246574
0
LINE
8
0
10
48.79710359569372
20
41.023227331246574
11
47.24084023522934
21
40.48177255859069
0
LINE
8
0
10
47.24084023522934
20
40.48177255859069
11
46.01312259752997
21
39.95211452570035
0
LINE
8
0
10
46.01312259752997
20
39.95211452570035
11
46.01312259752995
21
39.952114525700374
0
LINE
8
0
10
46.01312259752995
20
39.952114525700374
11
45.70989330560613
21
40.29869179316003
0
LINE
8
0
10
45.70989330560613
20
40.29869179316003
11
45.40405361108623
21
40.64296768115743
0
LINE
8
0
10
45.40405361108623
20
40.64296768115743
11
45.404053611086205
21
40.642967681157444
0
LINE
8
0
10
45.404053611086205
20
40.642967681157444
11
46.08340895362282
21
41.79462064463663
0
LINE
8
0
10
46.08340895362282
20
41.79462064463663
11
46.81564571291626
21
43.270750126184616
0
LINE
8
0
10
46.81564571291626
20
43.270750126184616
11
46.81564571291624
21
43.270750126184616
0
LINE
8
0
10
46.81564571291624
20
43.270750126184616
11
46.47174999811499
21
43.63987800295391
0
LINE
8
0
10
46.47174999811499
20
43.63987800295391
11
46.12494390148753
21
44.00627284927261
0
LINE
8
0
10
46.12494390148753
20
44.00627284927261
11
46.12494390148752
21
44.00627284927262
0
LINE
8
0
10
46.12494390148752
20
44.00627284927262
11
44.60574969774717
21
43.368167928999014
0
LINE
8
0
10
44.60574969774717
20
43.368167928999014
11
43.413712183418426
21
42.76246602694126
0
LINE
8
0
10
43.413712183418426
20
42.76246602694126
11
43.41371218341843
21
42.76246602694126
0
LINE
8
0
10
43.41371218341843
20
42.76246602694126
11
43.08931947855524
21
43.08931947855523
0
LINE
8
0
10
43.08931947855524
20
43.08931947855523
11
42.762466026941276
21
43.413712183418426
0
LINE
8
0
10
42.762466026941276
20
43.413712183418426
11
42.76246602694126
21
43.413712183418426
0
LINE
8
0
10
42.76246602694126
20
43.413712183418426
11
43.36816792899902
21
44.60574969774717
0
LINE
8
0
10
43.36816792899902
20
44.60574969774717
11
44.00627284927263
21
46.12494390148752
0
LINE
8
0
10
44.00627284927263
20
46.12494390148752
11
44.00627284927261
21
46.12494390148754
0
LINE
8
0
10
44.00627284927261
20
46.12494390148754
11
43.6398780029539
21
46.47174999811499
0
LINE
8
0
10
43.6398780029539
20
46.47174999811499
11
43.270750126184616
21
46.81564571291625
0
LINE
8
0
10
43.270750126184616
20
46.81564571291625
11
43.270750126184616
21
46.81564571291625
0
LINE
8
0
10
43.270750126184616
20
46.81564571291625
11
41.79462064463663
21
46.08340895362282
0
LINE
8
0
10
41.79462064463663
20
46.08340895362282
11
40.64296768115745
21
45.40405361108621
0
LINE
8
0
10
40.64296768115745
20
45.40405361108621
11
40.642967681157444
21
45.40405361108622
0
LINE
8
0
10
40.642967681157444
20
45.40405361108622
11
40.298691793160046
21
45.70989330560612
0
LINE
8
0
10
40.298691793160046
20
45.70989330560612
11
39.95211452570039
21
46.013122597529936
0
LINE
8
0
10
39.95211452570039
20
46.013122597529936
11
39.95211452570035
21
46.013122597529964
0
LINE
8
0
10
39.95211452570035
20
46.013122597529964
11
40.4817725585907
21
47.24084023522934
0
LINE
8
0
10
40.4817725585907
20
47.24084023522934
11
41.023227331246574
21
48.79710359569371
0
LINE
8
0
10
41.023227331246574
20
48.79710359569371
11
41.02322733124657
21
48.79710359569371
0
LINE
8
0
10
41.02322733124657
20
48.79710359569371
11
40.63577934647896
21
49.120219226956564
0
LINE
8
0
10
40.63577934647896
20
49.120219226956564
11
40.24578646865896
21
49.44025861096508
0
LINE
8
0
10
40.24578646865896
20
49.44025861096508
11
40.24578646865894
21
49.4402586109651
0
LINE
8
0
10
40.24578646865894
20
49.4402586109651
11
38.81854731798759
21
48.61677981661363
0
LINE
8
0
10
38.81854731798759
20
48.61677981661363
11
37.711823953464624
21
47.86645213876721
0
LINE
8
0
10
37.711823953464624
20
47.86645213876721
11
37.71182395346464
21
47.8664521387672
0
LINE
8
0
10
37.71182395346464
20
47.8664521387672
11
37.34902358197826
21
48.150071066643626
0
LINE
8
0
10
37.34902358197826
20
48.150071066643626
11
36.984090280811486
21
48.43094023814513
0
LINE
8
0
10
36.984090280811486
20
48.43094023814513
11
36.98409028081147
21
48.43094023814514
0
LINE
8
0
10
36.98409028081147
20
48.43094023814514
11
37.43561412625633
21
49.68949275859
0
LINE
8
0
10
37.43561412625633
20
49.68949275859
11
37.87828187667395
21
51.27668341528373
0
LINE
8
0
10
37.87828187667395
20
51.27668341528373
11
37.87828187667393
21
51.27668341528374
0
LINE
8
0
10
37.87828187667393
20
51.27668341528374
11
37.47130983364516
21
51.5748333914029
0
LINE
8
0
10
37.47130983364516
20
51.5748333914029
11
37.061991078492404
21
51.86975339538207
0
LINE
8
0
10
37.061991078492404
20
51.86975339538207
11
37.0619910784924
21
51.86975339538207
0
LINE
8
0
10
37.0619910784924
20
51.86975339538207
11
35.68927491958181
21
50.95828246056218
0
LINE
8
0
10
35.68927491958181
20
50.95828246056218
11
34.63184888552103
21
50.13994364795832
0
LINE
8
0
10
34.63184888552103
20
50.13994364795832
11
34.63184888552103
21
50.13994364795832
0
LINE
8
0
10
34.63184888552103
20
50.13994364795832
11
34.251955837864216
21
50.4002224948561
0
LINE
8
0
10
34.251955837864216
20
50.4002224948561
11
33.87010672800786
21
50.6576230836323
0
LINE
8
0
10
33.87010672800786
20
50.6576230836323
11
33.870106728007855
21
50.657623083632295
0
LINE
8
0
10
33.870106728007855
20
50.657623083632295
11
34.24171442767089
21
51.9420435550024
0
LINE
8
0
10
34.24171442767089
20
51.9420435550024
11
34.58384814847502
21
53.55389759152195
0
LINE
8
0
10
34.58384814847502
20
53.55389759152195
11
34.583848148474985
21
53.553897591521974
0
LINE
8
0
10
34.583848148474985
20
53.553897591521974
11
34.15895817991103
21
53.82590525075346
0
LINE
8
0
10
34.15895817991103
20
53.82590525075346
11
33.73192894155216
21
54.094541960183705
0
LINE
8
0
10
33.73192894155216
20
54.094541960183705
11
33.73192894155217
21
54.094541960183705
0
LINE
8
0
10
33.73192894155217
20
54.094541960183705
11
32.41915325794723
21
53.09867604426367
0
LINE
8
0
10
32.41915325794723
20
53.09867604426367
11
31.41519773181306
21
52.21555570633226
0
LINE
8
0
10
31.41519773181306
20
52.21555570633226
11
31.415197731813045
21
52.215555706332275
0
LINE
8
0
10
31.415197731813045
20
52.215555706332275
11
31.01971127228826
21
52.45146727055281
0
LINE
8
0
10
31.01971127228826
20
52.45146727055281
11
30.622453337728665
21
52.684383434074945
0
LINE
8
0
10
30.622453337728665
20
52.684383434074945
11
30.622453337728636
21
52.68438343407496
0
LINE
8
0
10
30.622453337728636
20
52.68438343407496
11
30.912678325790672
21
53.98960283556569
0
LINE
8
0
10
30.912678325790672
20
53.98960283556569
11
31.152927771491328
21
55.61975900041499
0
LINE
8
0
10
31.152927771491328
20
55.61975900041499
11
31.152927771491306
21
55.61975900041501
0
LINE
8
0
10
31.152927771491306
20
55.61975900041501
11
30.711796723984342
21
55.86455085279631
0
LINE
8
0
10
30.711796723984342
20
55.86455085279631
11
30.26874229173205
21
56.105844081313954
0
LINE
8
0
10
30.26874229173205
20
56.105844081313954
11
30.268742291732035
21
56.105844081313954
0
LINE
8
0
10
30.268742291732035
20
56.105844081313954
11
29.021088009305757
21
55.02951341209605
0
LINE
8
0
10
29.021088009305757
20
55.02951341209605
11
28.07456514489621
21
54.08509682135161
0
LINE
8
0
10
28.07456514489621
20
54.08509682135161
11
28.074565144896216
21
54.08509682135161
0
LINE
8
0
10
28.074565144896216
20
54.08509682135161
11
27.665046077878632
21
54.29571006772866
0
LINE
8
0
10
27.665046077878632
20
54.29571006772866
11
27.253947114193625
21
54.50322259230858
0
LINE
8
0
10
27.253947114193625
20
54.50322259230858
11
27.25394711419362
21
54.50322259230859
0
LINE
8
0
10
27.25394711419362
20
54.50322259230859
11
27.461644005217963
21
55.824089819240285
0
LINE
8
0
10
27.461644005217963
20
55.824089819240285
11
27.599061021012496
21
57.46611463078419
0
LINE
8
0
10
27.599061021012496
20
57.46611463078419
11
27.599061021012464
21
57.466114630784205
0
LINE
8
0
10
27.599061021012464
20
57.466114630784205
11
27.14342983727338
21
57.682724594708745
0
LINE
8
0
10
27.14342983727338
20
57.682724594708745
11
26.686098744559455
21
57.895722068177214
0
LINE
8
0
10
26.686098744559455
20
57.895722068177214
11
26.686098744559448
21
57.895722068177214
0
LINE
8
0
10
26.686098744559448
20
57.895722068177214
11
25.508489784765562
21
56.74317443108415
0
LINE
8
0
10
25.508489784765562
20
56.74317443108415
11
24.623135075401287
21
55.741188768347435
0
LINE
8
0
10
24.623135075401287
20
55.741188768347435
11
24.62313507540128
21
55.74118876834744
0
LINE
8
0
10
24.62313507540128
20
55.74118876834744
11
24.201199585556953
21
55.925672502617594
0
LINE
8
0
10
24.201199585556953
20
55.925672502617594
11
23.77788201254294
21
56.10696243112424
0
LINE
8
0
10
23.77788201254294
20
56.10696243112424
11
23.777882012542893
21
56.10696243112425
0
LINE
8
0
10
23.777882012542893
20
56.10696243112425
11
23.902231121788358
21
57.43826462399907
0
LINE
8
0
10
23.902231121788358
20
57.43826462399907
11
23.93627338549528
21
59.08567776047619
0
LINE
8
0
10
23.93627338549528
20
59.08567776047619
11
23.936273385495277
21
59.08567776047619
0
LINE
8
0
10
23.936273385495277
20
59.08567776047619
11
23.467940233648214
21
59.27325097537603
0
LINE
8
0
10
23.467940233648214
20
59.27325097537603
11
22.998137357360893
21
59.45711209007684
0
LINE
8
0
10
22.998137357360893
20
59.45711209007684
11
22.998137357360857
21
59.45711209007684
0
LINE
8
0
10
22.998137357360857
20
59.45711209007684
11
21.895221204765303
21
58.23289606408328
0
LINE
8
0
10
21.895221204765303
20
58.23289606408328
11
21.07452874100407
21
57.17729570900143
0
LINE
8
0
10
21.07452874100407
20
57.17729570900143
11
21.07452874100409
21
57.17729570900142
0
LINE
8
0
10
21.07452874100409
20
57.17729570900142
11
20.64184201494745
21
57.334921858148114
0
LINE
8
0
10
20.64184201494745
20
57.334921858148114
11
20.20797647366971
21
57.489273722057156
0
LINE
8
0
10
20.20797647366971
20
57.489273722057156
11
20.207976473669692
21
57.489273722057156
0
LINE
8
0
10
20.207976473669692
20
57.489273722057156
11
20.248487052011786
21
58.82575683933392
0
LINE
8
0
10
20.248487052011786
20
58.82575683933392
11
20.179020214368688
21
60.47205671372605
0
LINE
8
0
10
20.179020214368688
20
60.47205671372605
11
20.17902021436867
21
60.47205671372606
0
LINE
8
0
10
20.17902021436867
20
60.47205671372606
11
19.6998333914029
21
60.62985291381604
0
LINE
8
0
10
19.6998333914029
20
60.62985291381604
11
19.21941282886237
21
60.78385205392762
0
LINE
8
0
10
19.21941282886237
20
60.78385205392762
11
19.21941282886235
21
60.78385205392762
0
LINE
8
0
10
19.21941282886235
20
60.78385205392762
11
18.195542189644957
21
59.49279906039706
0
LINE
8
0
10
18.195542189644957
20
59.49279906039706
11
17.442750869702515
21
58.38774998531363
0
LINE
8
0
10
17.442750869702515
20
58.38774998531363
11
17.442750869702525
21
58.387749985313626
0
LINE
8
0
10
17.442750869702525
20
58.387749985313626
11
17.00102052426555
21
58.51789647093871
0
LINE
8
0
10
17.00102052426555
20
58.51789647093871
11
16.558319283801197
21
58.64470111395997
0
LINE
8
0
10
16.558319283801197
20
58.64470111395997
11
16.558319283801193
21
58.64470111395996
0
LINE
8
0
10
16.558319283801193
20
58.64470111395996
11
16.51483145449473
21
59.98109066735584
0
LINE
8
0
10
16.51483145449473
20
59.98109066735584
11
16.342129669373403
21
61.61978008618163
0
LINE
8
0
10
16.342129669373403
20
61.61978008618163
11
16.342129669373357
21
61.61978008618164
0
LINE
8
0
10
16.342129669373357
20
61.61978008618164
11
15.853980306759489
21
61.74717652195023
0
LINE
8
0
10
15.853980306759489
20
61.74717652195023
11
15.364838058442823
21
61.870705923222076
0
LINE
8
0
10
15.364838058442823
20
61.870705923222076
11
15.36483805844283
21
61.87070592322207
0
LINE
8
0
10
15.36483805844283
20
61.87070592322207
11
14.424053682254591
21
60.517911158493966
0
LINE
8
0
10
14.424053682254591
20
60.517911158493966
11
13.742134429553106
21
59.367774487259425
0
LINE
8
0
10
13.742134429553106
20
59.367774487259425
11
13.74213442955309
21
59.36777448725943
0
LINE
8
0
10
13.74213442955309
20
59.36777448725943
11
13.293103772601821
21
59.469927680642414
0
LINE
8
0
10
13.293103772601821
20
59.469927680642414
11
12.843313972496016
21
59.56868466278141
0
LINE
8
0
10
12.843313972496016
20
59.56868466278141
11
12.843313972495983
21
59.5686846627814
0
LINE
8
0
10
12.843313972495983
20
59.5686846627814
11
12.715999362135529
21
60.89970653326746
0
LINE
8
0
10
12.715999362135529
20
60.89970653326746
11
12.440744204581968
21
62.52431833803676
0
LINE
8
0
10
12.440744204581968
20
62.52431833803676
11
12.440744204581891
21
62.52431833803678
0
LINE
8
0
10
12.440744204581891
20
62.52431833803678
11
11.945558804839939
21
62.620812233953906
0
LINE
8
0
10
11.945558804839939
20
62.620812233953906
11
11.4496252917334
21
62.7133843822744
0
LINE
8
0
10
11.4496252917334
20
62.7133843822744
11
11.449625291733376
21
62.713384382274405
0
LINE
8
0
10
11.449625291733376
20
62.713384382274405
11
10.59564002470361
21
61.304186709252
0
LINE
8
0
10
10.59564002470361
20
61.304186709252
11
9.987284062994231
21
60.11350150586024
0
LINE
8
0
10
9.987284062994231
20
60.11350150586024
11
9.987284062994242
21
60.11350150586024
0
LINE
8
0
10
9.987284062994242
20
60.11350150586024
11
9.532725213389073
21
60.18725825501621
0
LINE
8
0
10
9.532725213389073
20
60.18725825501621
11
9.077621968493418
21
60.2575778275822
0
LINE
8
0
10
9.077621968493418
20
60.2575778275822
11
9.077621968493409
21
60.257577827582196
0
LINE
8
0
10
9.077621968493409
20
60.257577827582196
11
8.866983029681494
21
61.57797907992167
0
LINE
8
0
10
8.866983029681494
20
61.57797907992167
11
8.490260806050328
21
63.18210167005563
0
LINE
8
0
10
8.490260806050328
20
63.18210167005563
11
8.490260806050347
21
63.18210167005562
0
LINE
8
0
10
8.490260806050347
20
63.18210167005562
11
7.989993639724396
21
63.247312208797965
0
LINE
8
0
10
7.989993639724396
20
63.247312208797965
11
7.48922608483375
21
63.30856176418989
0
LINE
8
0
10
7.48922608483375
20
63.30856176418989
11
7.489226084833744
21
63.30856176418989
0
LINE
8
0
10
7.489226084833744
20
63.30856176418989
11
6.725410216662651
21
61.848522642287435
0
LINE
8
0
10
6.725410216662651
20
61.848522642287435
11
6.193018448994846
21
60.62198799726391
0
LINE
8
0
10
6.193018448994846
20
60.62198799726391
11
6.193018448994841
21
60.621987997263915
0
LINE
8
0
10
6.193018448994841
20
60.621987997263915
11
5.7347253428469775
21
60.66705721800019
0
LINE
8
0
10
5.7347253428469775
20
60.66705721800019
11
5.276104737752178
21
60.708661861766224
0
LINE
8
0
10
5.276104737752178
20
60.708661861766224
11
5.276104737752132
21
60.708661861766224
0
LINE
8
0
10
5.276104737752132
20
60.708661861766224
11
4.982972766148577
21
62.013231475450084
0
LINE
8
0
10
4.982972766148577
20
62.013231475450084
11
4.5062702269485175
21
63.59053411193931
0
LINE
8
0
10
4.5062702269485175
20
63.59053411193931
11
4.506270226948513
21
63.59053411193931
0
LINE
8
0
10
4.506270226948513
20
63.59053411193931
11
4.002895619993724
21
63.62420393730231
0
LINE
8
0
10
4.002895619993724
20
63.62420393730231
11
3.499270324079189
21
63.653889175752795
0
LINE
8
0
10
3.499270324079189
20
63.653889175752795
11
3.499270324079152
21
63.6538891757528
0
LINE
8
0
10
3.499270324079152
20
63.6538891757528
11
2.8286382870441384
21
62.148770712356
0
LINE
8
0
10
2.8286382870441384
20
62.148770712356
11
2.3743118204982214
21
60.89122719759425
0
LINE
8
0
10
2.3743118204982214
20
60.89122719759425
11
2.3743118204982436
21
60.891227197594255
0
LINE
8
0
10
2.3743118204982436
20
60.891227197594255
11
1.914093131323449
21
60.90743102228677
0
LINE
8
0
10
1.914093131323449
20
60.90743102228677
11
1.4537651320339904
21
60.920156542731256
0
LINE
8
0
10
1.4537651320339904
20
60.920156542731256
11
1.4537651320339706
21
60.920156542731256
0
LINE
8
0
10
1.4537651320339706
20
60.920156542731256
11
1.0792969856113805
21
62.20374597749545
0
LINE
8
0
10
1.0792969856113805
20
62.20374597749545
11
0.504495457979984
21
63.74800376743477
0
LINE
8
0
10
0.504495457979984
20
63.74800376743477
11
0.5044954579799499
21
63.748003767434774
0
LINE
8
0
10
0.5044954579799499
20
63.748003767434774
11
-1.0251781891688557e-14
21
63.75
0
LINE
8
0
10
-1.0251781891688557e-14
20
63.75
11
-0.5044954579799705
21
63.748003767434774
0
LINE
8
0
10
-0.5044954579799705
20
63.748003767434774
11
-0.5044954579799774
21
63.74800376743477
0
LINE
8
0
10
-0.5044954579799774
20
63.74800376743477
11
-1.0792969856113708
21
62.20374597749544
0
LINE
8
0
10
-1.0792969856113708
20
62.20374597749544
11
-1.4537651320339624
21
60.920156542731256
0
LINE
8
0
10
-1.4537651320339624
20
60.920156542731256
11
-1.4537651320339695
21
60.920156542731256
0
LINE
8
0
10
-1.4537651320339695
20
60.920156542731256
11
-1.914093131323442
21
60.90743102228677
0
LINE
8
0
10
-1.914093131323442
20
60.90743102228677
11
-2.3743118204982228
21
60.891227197594255
0
LINE
8
0
10
-2.3743118204982228
20
60.891227197594255
11
-2.3743118204982117
21
60.89122719759425
0
LINE
8
0
10
-2.3743118204982117
20
60.89122719759425
11
-2.828638287044132
21
62.148770712356
0
LINE
8
0
10
-2.828638287044132
20
62.148770712356
11
-3.4992703240791454
21
63.65388917575279
0
LINE
8
0
10
-3.4992703240791454
20
63.65388917575279
11
-3.499270324079195
21
63.653889175752795
0
LINE
8
0
10
-3.499270324079195
20
63.653889175752795
11
-4.00289561999373
21
63.62420393730231
0
LINE
8
0
10
-4.00289561999373
20
63.62420393730231
11
-4.506270226948519
21
63.59053411193931
0
LINE
8
0
10
-4.506270226948519
20
63.59053411193931
11
-4.506270226948511
21
63.59053411193931
0
LINE
8
0
10
-4.506270226948511
20
63.59053411193931
11
-4.9829727661485705
21
62.013231475450084
0
LINE
8
0
10
-4.9829727661485705
20
62.013231475450084
11
-5.276104737752126
21
60.708661861766224
0
LINE
8
0
10
-5.276104737752126
20
60.708661861766224
11
-5.276104737752143
21
60.70866186176623
0
LINE
8
0
10
-5.276104737752143
20
60.70866186176623
11
-5.734725342846957
21
60.66705721800019
0
LINE
8
0
10
-5.734725342846957
20
60.66705721800019
11
-6.193018448994806
21
60.621987997263915
0
LINE
8
0
10
-6.193018448994806
20
60.621987997263915
11
-6.193018448994891
21
60.62198799726389
0
LINE
8
0
10
-6.193018448994891
20
60.62198799726389
11
-6.725410216662592
21
61.848522642287435
0
LINE
8
0
10
-6.725410216662592
20
61.848522642287435
11
-7.489226084833793
21
63.30856176418989
0
LINE
8
0
10
-7.489226084833793
20
63.30856176418989
11
-7.489226084833756
21
63.30856176418988
0
LINE
8
0
10
-7.489226084833756
20
63.30856176418988
11
-7.989993639724403
21
63.24731220879796
0
LINE
8
0
10
-7.989993639724403
20
63.24731220879796
11
-8.490260806050355
21
63.18210167005562
0
LINE
8
0
10
-8.490260806050355
20
63.18210167005562
11
-8.490260806050374
21
63.182101670055616
0
LINE
8
0
10
-8.490260806050374
20
63.182101670055616
11
-8.86698302968154
21
61.57797907992167
0
LINE
8
0
10
-8.86698302968154
20
61.57797907992167
11
-9.077621968493403
21
60.257577827582196
0
LINE
8
0
10
-9.077621968493403
20
60.257577827582196
11
-9.077621968493395
21
60.2575778275822
0
LINE
8
0
10
-9.077621968493395
20
60.2575778275822
11
-9.532725213389066
21
60.18725825501621
0
LINE
8
0
10
-9.532725213389066
20
60.18725825501621
11
-9.98728406299422
21
60.11350150586024
0
LINE
8
0
10
-9.98728406299422
20
60.11350150586024
11
-9.987284062994279
21
60.11350150586023
0
LINE
8
0
10
-9.987284062994279
20
60.11350150586023
11
-10.595640024703656
21
61.304186709252
0
LINE
8
0
10
-10.595640024703656
20
61.304186709252
11
-11.449625291733428
21
62.71338438227439
0
LINE
8
0
10
-11.449625291733428
20
62.71338438227439
11
-11.449625291733419
21
62.7133843822744
0
LINE
8
0
10
-11.449625291733419
20
62.7133843822744
11
-11.945558804839958
21
62.6208122339539
0
LINE
8
0
10
-11.945558804839958
20
62.6208122339539
11
-12.440744204581911
21
62.52431833803678
0
LINE
8
0
10
-12.440744204581911
20
62.52431833803678
11
-12.440744204581959
21
62.52431833803676
0
LINE
8
0
10
-12.440744204581959
20
62.52431833803676
11
-12.715999362135577
21
60.89970653326745
0
LINE
8
0
10
-12.715999362135577
20
60.89970653326745
11
-12.843313972496029
21
59.5686846627814
0
LINE
8
0
10
-12.843313972496029
20
59.5686846627814
11
-12.843313972495995
21
59.56868466278141
0
LINE
8
0
10
-12.843313972495995
20
59.56868466278141
11
-13.293103772601812
21
59.46992768064242
0
LINE
8
0
10
-13.293103772601812
20
59.46992768064242
11
-13.74213442955307
21
59.36777448725943
0
LINE
8
0
10
-13.74213442955307
20
59.36777448725943
11
-13.742134429553099
21
59.367774487259425
0
LINE
8
0
10
-13.742134429553099
20
59.367774487259425
11
-14.42405368225458
21
60.517911158493966
0
LINE
8
0
10
-14.42405368225458
20
60.517911158493966
11
-15.364838058442821
21
61.87070592322207
0
LINE
8
0
10
-15.364838058442821
20
61.87070592322207
11
-15.36483805844283
21
61.87070592322207
0
LINE
8
0
10
-15.36483805844283
20
61.87070592322207
11
-15.853980306759496
21
61.74717652195023
0
LINE
8
0
10
-15.853980306759496
20
61.74717652195023
11
-16.34212966937336
21
61.619780086181635
0
LINE
8
0
10
-16.34212966937336
20
61.619780086181635
11
-16.342129669373392
21
61.61978008618163
0
LINE
8
0
10
-16.342129669373392
20
61.61978008618163
11
-16.51483145449472
21
59.98109066735584
0
LINE
8
0
10
-16.51483145449472
20
59.98109066735584
11
-16.558319283801186
21
58.64470111395997
0
LINE
8
0
10
-16.558319283801186
20
58.64470111395997
11
-16.558319283801165
21
58.644701113959975
0
LINE
8
0
10
-16.558319283801165
20
58.644701113959975
11
-17.001020524265527
21
58.517896470938716
0
LINE
8
0
10
-17.001020524265527
20
58.517896470938716
11
-17.44275086970249
21
58.38774998531364
0
LINE
8
0
10
-17.44275086970249
20
58.38774998531364
11
-17.442750869702508
21
58.38774998531363
0
LINE
8
0
10
-17.442750869702508
20
58.38774998531363
11
-18.19554218964495
21
59.49279906039706
0
LINE
8
0
10
-18.19554218964495
20
59.49279906039706
11
-19.219412828862342
21
60.78385205392762
0
LINE
8
0
10
-19.219412828862342
20
60.78385205392762
11
-19.219412828862378
21
60.78385205392761
0
LINE
8
0
10
-19.219412828862378
20
60.78385205392761
11
-19.69983339140291
21
60.62985291381604
0
LINE
8
0
10
-19.69983339140291
20
60.62985291381604
11
-20.179020214368673
21
60.472056713726055
0
LINE
8
0
10
-20.179020214368673
20
60.472056713726055
11
-20.17902021436868
21
60.47205671372605
0
LINE
8
0
10
-20.17902021436868
20
60.47205671372605
11
-20.24848705201178
21
58.82575683933392
0
LINE
8
0
10
-20.24848705201178
20
58.82575683933392
11
-20.207976473669685
21
57.489273722057156
0
LINE
8
0
10
-20.207976473669685
20
57.489273722057156
11
-20.207976473669692
21
57.48927372205716
0
LINE
8
0
10
-20.207976473669692
20
57.48927372205716
11
-20.641842014947443
21
57.334921858148114
0
LINE
8
0
10
-20.641842014947443
20
57.334921858148114
11
-21.074528741004073
21
57.17729570900143
0
LINE
8
0
10
-21.074528741004073
20
57.17729570900143
11
-21.074528741004066
21
57.17729570900143
0
LINE
8
0
10
-21.074528741004066
20
57.17729570900143
11
-21.895221204765292
21
58.232896064083285
0
LINE
8
0
10
-21.895221204765292
20
58.232896064083285
11
-22.998137357360854
21
59.457112090076855
0
LINE
8
0
10
-22.998137357360854
20
59.457112090076855
11
-22.9981373573609
21
59.45711209007683
0
LINE
8
0
10
-22.9981373573609
20
59.45711209007683
11
-23.46794023364822
21
59.27325097537602
0
LINE
8
0
10
-23.46794023364822
20
59.27325097537602
11
-23.936273385495284
21
59.08567776047618
0
LINE
8
0
10
-23.936273385495284
20
59.08567776047618
11
-23.936273385495277
21
59.08567776047619
0
LINE
8
0
10
-23.936273385495277
20
59.08567776047619
11
-23.90223112178835
21
57.438264623999075
0
LINE
8
0
10
-23.90223112178835
20
57.438264623999075
11
-23.777882012542886
21
56.10696243112425
0
LINE
8
0
10
-23.777882012542886
20
56.10696243112425
11
-23.777882012542907
21
56.10696243112425
0
LINE
8
0
10
-23.777882012542907
20
56.10696243112425
11
-24.201199585556935
21
55.92567250261761
0
LINE
8
0
10
-24.201199585556935
20
55.92567250261761
11
-24.623135075401247
21
55.741188768347456
0
LINE
8
0
10
-24.623135075401247
20
55.741188768347456
11
-24.623135075401226
21
55.74118876834746
0
LINE
8
0
10
-24.623135075401226
20
55.74118876834746
11
-25.508489784765604
21
56.74317443108413
0
LINE
8
0
10
-25.508489784765604
20
56.74317443108413
11
-26.68609874455939
21
57.89572206817725
0
LINE
8
0
10
-26.68609874455939
20
57.89572206817725
11
-26.686098744559462
21
57.895722068177214
0
LINE
8
0
10
-26.686098744559462
20
57.895722068177214
11
-27.143429837273384
21
57.68272459470874
0
LINE
8
0
10
-27.143429837273384
20
57.68272459470874
11
-27.599061021012467
21
57.466114630784205
0
LINE
8
0
10
-27.599061021012467
20
57.466114630784205
11
-27.599061021012485
21
57.4661146307842
0
LINE
8
0
10
-27.599061021012485
20
57.4661146307842
11
-27.461644005217956
21
55.82408981924029
0
LINE
8
0
10
-27.461644005217956
20
55.82408981924029
11
-27.25394711419361
21
54.50322259230859
0
LINE
8
0
10
-27.25394711419361
20
54.50322259230859
11
-27.25394711419362
21
54.50322259230859
0
LINE
8
0
10
-27.25394711419362
20
54.50322259230859
11
-27.66504607787863
21
54.29571006772867
0
LINE
8
0
10
-27.66504607787863
20
54.29571006772867
11
-28.074565144896198
21
54.08509682135162
0
LINE
8
0
10
-28.074565144896198
20
54.08509682135162
11
-28.074565144896248
21
54.08509682135159
0
LINE
8
0
10
-28.074565144896248
20
54.08509682135159
11
-29.021088009305803
21
55.02951341209604
0
LINE
8
0
10
-29.021088009305803
20
55.02951341209604
11
-30.268742291732075
21
56.10584408131393
0
LINE
8
0
10
-30.268742291732075
20
56.10584408131393
11
-30.268742291732067
21
56.10584408131394
0
LINE
8
0
10
-30.268742291732067
20
56.10584408131394
11
-30.71179672398436
21
55.8645508527963
0
LINE
8
0
10
-30.71179672398436
20
55.8645508527963
11
-31.152927771491324
21
55.619759000414994
0
LINE
8
0
10
-31.152927771491324
20
55.619759000414994
11
-31.152927771491367
21
55.619759000414966
0
LINE
8
0
10
-31.152927771491367
20
55.619759000414966
11
-30.91267832579072
21
53.98960283556566
0
LINE
8
0
10
-30.91267832579072
20
53.98960283556566
11
-30.622453337728675
21
52.68438343407493
0
LINE
8
0
10
-30.622453337728675
20
52.68438343407493
11
-30.622453337728658
21
52.68438343407495
0
LINE
8
0
10
-30.622453337728658
20
52.68438343407495
11
-31.01971127228825
21
52.45146727055282
0
LINE
8
0
10
-31.01971127228825
20
52.45146727055282
11
-31.415197731813024
21
52.21555570633228
0
LINE
8
0
10
-31.415197731813024
20
52.21555570633228
11
-31.415197731813045
21
52.21555570633226
0
LINE
8
0
10
-31.415197731813045
20
52.21555570633226
11
-32.41915325794722
21
53.09867604426368
0
LINE
8
0
10
-32.41915325794722
20
53.09867604426368
11
-33.73192894155216
21
54.094541960183705
0
LINE
8
0
10
-33.73192894155216
20
54.094541960183705
11
-33.731928941552184
21
54.09454196018369
0
LINE
8
0
10
-33.731928941552184
20
54.09454196018369
11
-34.15895817991105
21
53.82590525075345
0
LINE
8
0
10
-34.15895817991105
20
53.82590525075345
11
-34.58384814847499
21
53.55389759152197
0
LINE
8
0
10
-34.58384814847499
20
53.55389759152197
11
-34.58384814847501
21
53.55389759152196
0
LINE
8
0
10
-34.58384814847501
20
53.55389759152196
11
-34.241714427670885
21
51.94204355500241
0
LINE
8
0
10
-34.241714427670885
20
51.94204355500241
11
-33.870106728007855
21
50.65762308363231
0
LINE
8
0
10
-33.870106728007855
20
50.65762308363231
11
-33.87010672800786
21
50.65762308363231
0
LINE
8
0
10
-33.87010672800786
20
50.65762308363231
11
-34.251955837864216
21
50.4002224948561
0
LINE
8
0
10
-34.251955837864216
20
50.4002224948561
11
-34.63184888552102
21
50.13994364795832
0
LINE
8
0
10
-34.63184888552102
20
50.13994364795832
11
-34.63184888552102
21
50.13994364795831
0
LINE
8
0
10
-34.63184888552102
20
50.13994364795831
11
-35.689274919581806
21
50.95828246056218
0
LINE
8
0
10
-35.689274919581806
20
50.95828246056218
11
-37.0619910784924
21
51.86975339538207
0
LINE
8
0
10
-37.0619910784924
20
51.86975339538207
11
-37.06199107849241
21
51.86975339538206
0
LINE
8
0
10
-37.06199107849241
20
51.86975339538206
11
-37.47130983364516
21
51.5748333914029
0
LINE
8
0
10
-37.47130983364516
20
51.5748333914029
11
-37.87828187667393
21
51.27668341528375
0
LINE
8
0
10
-37.87828187667393
20
51.27668341528375
11
-37.878281876673945
21
51.276683415283735
0
LINE
8
0
10
-37.878281876673945
20
51.276683415283735
11
-37.435614126256326
21
49.689492758590006
0
LINE
8
0
10
-37.435614126256326
20
49.689492758590006
11
-36.984090280811465
21
48.43094023814514
0
LINE
8
0
10
-36.984090280811465
20
48.43094023814514
11
-36.98409028081147
21
48.43094023814515
0
LINE
8
0
10
-36.98409028081147
20
48.43094023814515
11
-37.349023581978244
21
48.15007106664364
0
LINE
8
0
10
-37.349023581978244
20
48.15007106664364
11
-37.71182395346462
21
47.866452138767215
0
LINE
8
0
10
-37.71182395346462
20
47.866452138767215
11
-37.71182395346461
21
47.86645213876721
0
LINE
8
0
10
-37.71182395346461
20
47.86645213876721
11
-38.81854731798758
21
48.61677981661363
0
LINE
8
0
10
-38.81854731798758
20
48.61677981661363
11
-40.245786468658935
21
49.4402586109651
0
LINE
8
0
10
-40.245786468658935
20
49.4402586109651
11
-40.24578646865898
21
49.44025861096507
0
LINE
8
0
10
-40.24578646865898
20
49.44025861096507
11
-40.63577934647897
21
49.120219226956564
0
LINE
8
0
10
-40.63577934647897
20
49.120219226956564
11
-41.02322733124657
21
48.79710359569371
0
LINE
8
0
10
-41.02322733124657
20
48.79710359569371
11
-41.02322733124657
21
48.79710359569372
0
LINE
8
0
10
-41.02322733124657
20
48.79710359569372
11
-40.481772558590684
21
47.24084023522935
0
LINE
8
0
10
-40.481772558590684
20
47.24084023522935
11
-39.952114525700345
21
46.01312259752997
0
LINE
8
0
10
-39.952114525700345
20
46.01312259752997
11
-39.952114525700374
21
46.01312259752995
0
LINE
8
0
10
-39.952114525700374
20
46.01312259752995
11
-40.298691793160025
21
45.70989330560614
0
LINE
8
0
10
-40.298691793160025
20
45.70989330560614
11
-40.64296768115742
21
45.40405361108624
0
LINE
8
0
10
-40.64296768115742
20
45.40405361108624
11
-40.64296768115748
21
45.40405361108618
0
LINE
8
0
10
-40.64296768115748
20
45.40405361108618
11
-41.79462064463659
21
46.083408953622865
0
LINE
8
0
10
-41.79462064463659
20
46.083408953622865
11
-43.27075012618466
21
46.815645712916215
0
LINE
8
0
10
-43.27075012618466
20
46.815645712916215
11
-43.27075012618463
21
46.815645712916236
0
LINE
8
0
10
-43.27075012618463
20
46.815645712916236
11
-43.63987800295391
21
46.47174999811498
0
LINE
8
0
10
-43.63987800295391
20
46.47174999811498
11
-44.00627284927261
21
46.12494390148754
0
LINE
8
0
10
-44.00627284927261
20
46.12494390148754
11
-44.00627284927262
21
46.124943901487526
0
LINE
8
0
10
-44.00627284927262
20
46.124943901487526
11
-43.368167928999014
21
44.60574969774718
0
LINE
8
0
10
-43.368167928999014
20
44.60574969774718
11
-42.762466026941254
21
43.413712183418426
0
LINE
8
0
10
-42.762466026941254
20
43.413712183418426
11
-42.76246602694127
21
43.41371218341843
0
LINE
8
0
10
-42.76246602694127
20
43.41371218341843
11
-43.08931947855523
21
43.08931947855524
0
LINE
8
0
10
-43.08931947855523
20
43.08931947855524
11
-43.413712183418426
21
42.762466026941276
0
LINE
8
0
10
-43.413712183418426
20
42.762466026941276
11
-43.41371218341846
21
42.76246602694123
0
LINE
8
0
10
-43.41371218341846
20
42.76246602694123
11
-44.6057496977472
21
43.368167928998986
0
LINE
8
0
10
-44.6057496977472
20
43.368167928998986
11
-46.124943901487555
21
44.00627284927259
0
LINE
8
0
10
-46.124943901487555
20
44.00627284927259
11
-46.12494390148755
21
44.0062728492726
0
LINE
8
0
10
-46.12494390148755
20
44.0062728492726
11
-46.471749998114994
21
43.63987800295389
0
LINE
8
0
10
-46.471749998114994
20
43.63987800295389
11
-46.81564571291625
21
43.270750126184616
0
LINE
8
0
10
-46.81564571291625
20
43.270750126184616
11
-46.815645712916286
21
43.27075012618458
0
LINE
8
0
10
-46.815645712916286
20
43.27075012618458
11
-46.08340895362286
21
41.7946206446366
0
LINE
8
0
10
-46.08340895362286
20
41.7946206446366
11
-45.40405361108624
21
40.642967681157415
0
LINE
8
0
10
-45.40405361108624
20
40.642967681157415
11
-45.40405361108623
21
40.64296768115743
0
LINE
8
0
10
-45.40405361108623
20
40.64296768115743
11
-45.70989330560613
21
40.29869179316003
0
LINE
8
0
10
-45.70989330560613
20
40.29869179316003
11
-46.01312259752994
21
39.95211452570038
0
LINE
8
0
10
-46.01312259752994
20
39.95211452570038
11
-46.013122597529964
21
39.95211452570035
0
LINE
8
0
10
-46.013122597529964
20
39.95211452570035
11
-47.24084023522934
21
40.4817725585907
0
LINE
8
0
10
-47.24084023522934
20
40.4817725585907
11
-48.79710359569371
21
41.023227331246574
0
LINE
8
0
10
-48.79710359569371
20
41.023227331246574
11
-48.79710359569373
21
41.02322733124655
0
LINE
8
0
10
-48.79710359569373
20
41.02322733124655
11
-49.12021922695657
21
40.635779346478955
0
LINE
8
0
10
-49.12021922695657
20
40.635779346478955
11
-49.44025861096508
21
40.24578646865896
0
LINE
8
0
10
-49.44025861096508
20
40.24578646865896
11
-49.440258610965095
21
40.24578646865894
0
LINE
8
0
10
-49.440258610965095
20
40.24578646865894
11
-48.616779816613615
21
38.81854731798759
0
LINE
8
0
10
-48.616779816613615
20
38.81854731798759
11
-47.8664521387672
21
37.711823953464624
0
LINE
8
0
10
-47.8664521387672
20
37.711823953464624
11
-47.866452138767215
21
37.711823953464624
0
LINE
8
0
10
-47.866452138767215
20
37.711823953464624
11
-48.15007106664363
21
37.34902358197825
0
LINE
8
0
10
-48.15007106664363
20
37.34902358197825
11
-48.43094023814514
21
36.98409028081148
0
LINE
8
0
10
-48.43094023814514
20
36.98409028081148
11
-48.43094023814514
21
36.98409028081147
0
LINE
8
0
10
-48.43094023814514
20
36.98409028081147
11
-49.68949275859
21
37.43561412625633
0
LINE
8
0
10
-49.68949275859
20
37.43561412625633
11
-51.27668341528373
21
37.87828187667396
0
LINE
8
0
10
-51.27668341528373
20
37.87828187667396
11
-51.27668341528374
21
37.87828187667394
0
LINE
8
0
10
-51.27668341528374
20
37.87828187667394
11
-51.57483339140289
21
37.47130983364517
0
LINE
8
0
10
-51.57483339140289
20
37.47130983364517
11
-51.869753395382055
21
37.061991078492426
0
LINE
8
0
10
-51.869753395382055
20
37.061991078492426
11
-51.86975339538207
21
37.0619910784924
0
LINE
8
0
10
-51.86975339538207
20
37.0619910784924
11
-50.95828246056218
21
35.68927491958181
0
LINE
8
0
10
-50.95828246056218
20
35.68927491958181
11
-50.13994364795831
21
34.63184888552104
0
LINE
8
0
10
-50.13994364795831
20
34.63184888552104
11
-50.13994364795832
21
34.63184888552103
0
LINE
8
0
10
-50.13994364795832
20
34.63184888552103
11
-50.4002224948561
21
34.25195583786422
0
LINE
8
0
10
-50.4002224948561
20
34.25195583786422
11
-50.6576230836323
21
33.870106728007876
0
LINE
8
0
10
-50.6576230836323
20
33.870106728007876
11
-50.657623083632295
21
33.87010672800786
0
LINE
8
0
10
-50.657623083632295
20
33.87010672800786
11
-51.9420435550024
21
34.24171442767089
0
LINE
8
0
10
-51.9420435550024
20
34.24171442767089
11
-53.55389759152195
21
34.58384814847502
0
LINE
8
0
10
-53.55389759152195
20
34.58384814847502
11
-53.553897591521974
21
34.58384814847498
0
LINE
8
0
10
-53.553897591521974
20
34.58384814847498
11
-53.82590525075346
21
34.15895817991104
0
LINE
8
0
10
-53.82590525075346
20
34.15895817991104
11
-54.0945419601837
21
33.73192894155217
0
LINE
8
0
10
-54.0945419601837
20
33.73192894155217
11
-54.09454196018369
21
33.73192894155217
0
LINE
8
0
10
-54.09454196018369
20
33.73192894155217
11
-53.09867604426367
21
32.41915325794723
0
LINE
8
0
10
-53.09867604426367
20
32.41915325794723
11
-52.215555706332275
21
31.415197731813038
0
LINE
8
0
10
-52.215555706332275
20
31.415197731813038
11
-52.215555706332275
21
31.415197731813038
0
LINE
8
0
10
-52.215555706332275
20
31.415197731813038
11
-52.45146727055281
21
31.01971127228826
0
LINE
8
0
10
-52.45146727055281
20
31.01971127228826
11
-52.684383434074945
21
30.622453337728672
0
LINE
8
0
10
-52.684383434074945
20
30.622453337728672
11
-52.684383434074924
21
30.62245333772869
0
LINE
8
0
10
-52.684383434074924
20
30.62245333772869
11
-53.98960283556571
21
30.912678325790626
0
LINE
8
0
10
-53.98960283556571
20
30.912678325790626
11
-55.61975900041496
21
31.152927771491377
0
LINE
8
0
10
-55.61975900041496
20
31.152927771491377
11
-55.619759000415
21
31.15292777149131
0
LINE
8
0
10
-55.619759000415
20
31.15292777149131
11
-55.864550852796306
21
30.711796723984346
0
LINE
8
0
10
-55.864550852796306
20
30.711796723984346
11
-56.10584408131395
21
30.268742291732053
0
LINE
8
0
10
-56.10584408131395
20
30.268742291732053
11
-56.105844081313954
21
30.268742291732035
0
LINE
8
0
10
-56.105844081313954
20
30.268742291732035
11
-55.02951341209606
21
29.021088009305764
0
LINE
8
0
10
-55.02951341209606
20
29.021088009305764
11
-54.08509682135161
21
28.074565144896212
0
LINE
8
0
10
-54.08509682135161
20
28.074565144896212
11
-54.08509682135162
21
28.07456514489621
0
LINE
8
0
10
-54.08509682135162
20
28.07456514489621
11
-54.29571006772866
21
27.665046077878635
0
LINE
8
0
10
-54.29571006772866
20
27.665046077878635
11
-54.50322259230858
21
27.25394711419363
0
LINE
8
0
10
-54.50322259230858
20
27.25394711419363
11
-54.50322259230861
21
27.253947114193576
0
LINE
8
0
10
-54.50322259230861
20
27.253947114193576
11
-55.82408981924031
21
27.461644005217913
0
LINE
8
0
10
-55.82408981924031
20
27.461644005217913
11
-57.466114630784205
21
27.599061021012446
0
LINE
8
0
10
-57.466114630784205
20
27.599061021012446
11
-57.46611463078421
21
27.599061021012453
0
LINE
8
0
10
-57.46611463078421
20
27.599061021012453
11
-57.682724594708745
21
27.14342983727337
0
LINE
8
0
10
-57.682724594708745
20
27.14342983727337
11
-57.89572206817722
21
26.686098744559445
0
LINE
8
0
10
-57.89572206817722
20
26.686098744559445
11
-57.89572206817723
21
26.686098744559427
0
LINE
8
0
10
-57.89572206817723
20
26.686098744559427
11
-56.743174431084164
21
25.508489784765533
0
LINE
8
0
10
-56.743174431084164
20
25.508489784765533
11
-55.74118876834744
21
24.623135075401258
0
LINE
8
0
10
-55.74118876834744
20
24.623135075401258
11
-55.741188768347456
21
24.623135075401258
0
LINE
8
0
10
-55.741188768347456
20
24.623135075401258
11
-55.9256725026176
21
24.201199585556942
0
LINE
8
0
10
-55.9256725026176
20
24.201199585556942
11
-56.106962431124245
21
23.77788201254293
0
LINE
8
0
10
-56.106962431124245
20
23.77788201254293
11
-56.10696243112425
21
23.7778820125429
0
LINE
8
0
10
-56.10696243112425
20
23.7778820125429
11
-57.43826462399907
21
23.90223112178836
0
LINE
8
0
10
-57.43826462399907
20
23.90223112178836
11
-59.08567776047618
21
23.936273385495287
0
LINE
8
0
10
-59.08567776047618
20
23.936273385495287
11
-59.08567776047619
21
23.936273385495266
0
LINE
8
0
10
-59.08567776047619
20
23.936273385495266
11
-59.27325097537603
21
23.467940233648207
0
LINE
8
0
10
-59.27325097537603
20
23.467940233648207
11
-59.45711209007684
21
22.998137357360886
0
LINE
8
0
10
-59.45711209007684
20
22.998137357360886
11
-59.45711209007684
21
22.998137357360864
0
LINE
8
0
10
-59.45711209007684
20
22.998137357360864
11
-58.23289606408328
21
21.895221204765303
0
LINE
8
0
10
-58.23289606408328
20
21.895221204765303
11
-57.17729570900142
21
21.07452874100407
0
LINE
8
0
10
-57.17729570900142
20
21.07452874100407
11
-57.17729570900143
21
21.074528741004073
0
LINE
8
0
10
-57.17729570900143
20
21.074528741004073
11
-57.334921858148114
21
20.64184201494744
0
LINE
8
0
10
-57.334921858148114
20
20.64184201494744
11
-57.489273722057156
21
20.207976473669703
0
LINE
8
0
10
-57.489273722057156
20
20.207976473669703
11
-57.489273722057156
21
20.207976473669696
0
LINE
8
0
10
-57.489273722057156
20
20.207976473669696
11
-58.82575683933392
21
20.24848705201179
0
LINE
8
0
10
-58.82575683933392
20
20.24848705201179
11
-60.47205671372605
21
20.17902021436869
0
LINE
8
0
10
-60.47205671372605
20
20.17902021436869
11
-60.47205671372607
21
20.17902021436865
0
LINE
8
0
10
-60.47205671372607
20
20.17902021436865
11
-60.629852913816045
21
19.69983339140288
0
LINE
8
0
10
-60.629852913816045
20
19.69983339140288
11
-60.783852053927625
21
19.21941282886235
0
LINE
8
0
10
-60.783852053927625
20
19.21941282886235
11
-60.78385205392763
21
19.219412828862332
0
LINE
8
0
10
-60.78385205392763
20
19.219412828862332
11
-59.49279906039706
21
18.195542189644932
0
LINE
8
0
10
-59.49279906039706
20
18.195542189644932
11
-58.38774998531363
21
17.442750869702493
0
LINE
8
0
10
-58.38774998531363
20
17.442750869702493
11
-58.38774998531364
21
17.442750869702486
0
LINE
8
0
10
-58.38774998531364
20
17.442750869702486
11
-58.517896470938716
21
17.001020524265524
0
LINE
8
0
10
-58.517896470938716
20
17.001020524265524
11
-58.644701113959975
21
16.558319283801175
0
LINE
8
0
10
-58.644701113959975
20
16.558319283801175
11
-58.64470111395996
21
16.558319283801193
0
LINE
8
0
10
-58.64470111395996
20
16.558319283801193
11
-59.98109066735584
21
16.514831454494733
0
LINE
8
0
10
-59.98109066735584
20
16.514831454494733
11
-61.61978008618162
21
16.342129669373406
0
LINE
8
0
10
-61.61978008618162
20
16.342129669373406
11
-61.619780086181635
21
16.34212966937336
0
LINE
8
0
10
-61.619780086181635
20
16.34212966937336
11
-61.74717652195023
21
15.853980306759494
0
LINE
8
0
10
-61.74717652195023
20
15.853980306759494
11
-61.87070592322207
21
15.364838058442826
0
LINE
8
0
10
-61.87070592322207
20
15.364838058442826
11
-61.87070592322207
21
15.364838058442807
0
LINE
8
0
10
-61.87070592322207
20
15.364838058442807
11
-60.517911158493966
21
14.424053682254565
0
LINE
8
0
10
-60.517911158493966
20
14.424053682254565
11
-59.367774487259425
21
13.742134429553083
0
LINE
8
0
10
-59.367774487259425
20
13.742134429553083
11
-59.36777448725943
21
13.742134429553081
0
LINE
8
0
10
-59.36777448725943
20
13.742134429553081
11
-59.469927680642414
21
13.293103772601825
0
LINE
8
0
10
-59.469927680642414
20
13.293103772601825
11
-59.5686846627814
21
12.84331397249602
0
LINE
8
0
10
-59.5686846627814
20
12.84331397249602
11
-59.56868466278142
21
12.843313972495933
0
LINE
8
0
10
-59.56868466278142
20
12.843313972495933
11
-60.89970653326745
21
12.715999362135587
0
LINE
8
0
10
-60.89970653326745
20
12.715999362135587
11
-62.524318338036785
21
12.440744204581861
0
LINE
8
0
10
-62.524318338036785
20
12.440744204581861
11
-62.52431833803678
21
12.440744204581895
0
LINE
8
0
10
-62.52431833803678
20
12.440744204581895
11
-62.620812233953906
21
11.945558804839942
0
LINE
8
0
10
-62.620812233953906
20
11.945558804839942
11
-62.7133843822744
21
11.449625291733403
0
LINE
8
0
10
-62.7133843822744
20
11.449625291733403
11
-62.713384382274405
21
11.449625291733383
0
LINE
8
0
10
-62.713384382274405
20
11.449625291733383
11
-61.304186709252
21
10.595640024703613
0
LINE
8
0
10
-61.304186709252
20
10.595640024703613
11
-60.11350150586023
21
9.987284062994238
0
LINE
8
0
10
-60.11350150586023
20
9.987284062994238
11
-60.11350150586024
21
9.987284062994233
0
LINE
8
0
10
-60.11350150586024
20
9.987284062994233
11
-60.187258255016204
21
9.532725213389075
0
LINE
8
0
10
-60.187258255016204
20
9.532725213389075
11
-60.2575778275822
21
9.07762196849342
0
LINE
8
0
10
-60.2575778275822
20
9.07762196849342
11
-60.25757782758221
21
9.07762196849336
0
LINE
8
0
10
-60.25757782758221
20
9.07762196849336
11
-61.57797907992167
21
8.866983029681498
0
LINE
8
0
10
-61.57797907992167
20
8.866983029681498
11
-63.182101670055616
21
8.490260806050332
0
LINE
8
0
10
-63.182101670055616
20
8.490260806050332
11
-63.18210167005562
21
8.490260806050339
0
LINE
8
0
10
-63.18210167005562
20
8.490260806050339
11
-63.247312208797965
21
7.989993639724386
0
LINE
8
0
10
-63.247312208797965
20
7.989993639724386
11
-63.30856176418989
21
7.489226084833741
0
LINE
8
0
10
-63.30856176418989
20
7.489226084833741
11
-63.30856176418989
21
7.489226084833721
0
LINE
8
0
10
-63.30856176418989
20
7.489226084833721
11
-61.848522642287435
21
6.725410216662631
0
LINE
8
0
10
-61.848522642287435
20
6.725410216662631
11
-60.62198799726391
21
6.193018448994823
0
LINE
8
0
10
-60.62198799726391
20
6.193018448994823
11
-60.621987997263915
21
6.193018448994817
0
LINE
8
0
10
-60.621987997263915
20
6.193018448994817
11
-60.66705721800019
21
5.734725342846969
0
LINE
8
0
10
-60.66705721800019
20
5.734725342846969
11
-60.708661861766224
21
5.276104737752168
0
LINE
8
0
10
-60.708661861766224
20
5.276104737752168
11
-60.708661861766224
21
5.276104737752136
0
LINE
8
0
10
-60.708661861766224
20
5.276104737752136
11
-62.01323147545007
21
4.98297276614858
0
LINE
8
0
10
-62.01323147545007
20
4.98297276614858
11
-63.59053411193931
21
4.506270226948525
0
LINE
8
0
10
-63.59053411193931
20
4.506270226948525
11
-63.59053411193931
21
4.506270226948503
0
LINE
8
0
10
-63.59053411193931
20
4.506270226948503
11
-63.62420393730231
21
4.002895619993713
0
LINE
8
0
10
-63.62420393730231
20
4.002895619993713
11
-63.653889175752795
21
3.4992703240791787
0
LINE
8
0
10
-63.653889175752795
20
3.4992703240791787
11
-63.6538891757528
21
3.499270324079155
0
LINE
8
0
10
-63.6538891757528
20
3.499270324079155
11
-62.148770712356
21
2.8286382870441416
0
LINE
8
0
10
-62.148770712356
20
2.8286382870441416
11
-60.89122719759425
21
2.374311820498225
0
LINE
8
0
10
-60.89122719759425
20
2.374311820498225
11
-60.891227197594255
21
2.3743118204982205
0
LINE
8
0
10
-60.891227197594255
20
2.3743118204982205
11
-60.90743102228677
21
1.9140931313234395
0
LINE
8
0
10
-60.90743102228677
20
1.9140931313234395
11
-60.920156542731256
21
1.4537651320339808
0
LINE
8
0
10
-60.920156542731256
20
1.4537651320339808
11
-60.92015654273125
21
1.4537651320339737
0
LINE
8
0
10
-60.92015654273125
20
1.4537651320339737
11
-62.20374597749545
21
1.0792969856113839
0
LINE
8
0
10
-62.20374597749545
20
1.0792969856113839
11
-63.74800376743477
21
0.5044954579799904
0
LINE
8
0
10
-63.74800376743477
20
0.5044954579799904
11
-63.748003767434774
21
0.5044954579799398
0
LINE
8
0
10
-63.748003767434774
20
0.5044954579799398
11
-63.75
21
-2.0503563783377117e-14
0
LINE
8
0
10
-63.75
20
-2.0503563783377117e-14
11
-63.748003767434774
21
-0.5044954579799806
0
LINE
8
0
10
-63.748003767434774
20
-0.5044954579799806
11
-63.74800376743477
21
-0.5044954579800003
0
LINE
8
0
10
-63.74800376743477
20
-0.5044954579800003
11
-62.20374597749544
21
-1.079296985611397
0
LINE
8
0
10
-62.20374597749544
20
-1.079296985611397
11
-60.920156542731256
21
-1.4537651320339884
0
LINE
8
0
10
-60.920156542731256
20
-1.4537651320339884
11
-60.920156542731256
21
-1.4537651320339928
0
LINE
8
0
10
-60.920156542731256
20
-1.4537651320339928
11
-60.90743102228677
21
-1.9140931313234517
0
LINE
8
0
10
-60.90743102228677
20
-1.9140931313234517
11
-60.891227197594255
21
-2.374311820498232
0
LINE
8
0
10
-60.891227197594255
20
-2.374311820498232
11
-60.89122719759425
21
-2.3743118204982085
0
LINE
8
0
10
-60.89122719759425
20
-2.3743118204982085
11
-62.148770712356
21
-2.8286382870441287
0
LINE
8
0
10
-62.148770712356
20
-2.8286382870441287
11
-63.6538891757528
21
-3.4992703240791423
0
LINE
8
0
10
-63.6538891757528
20
-3.4992703240791423
11
-63.653889175752795
21
-3.499270324079191
0
LINE
8
0
10
-63.653889175752795
20
-3.499270324079191
11
-63.62420393730231
21
-4.002895619993726
0
LINE
8
0
10
-63.62420393730231
20
-4.002895619993726
11
-63.59053411193931
21
-4.506270226948515
0
LINE
8
0
10
-63.59053411193931
20
-4.506270226948515
11
-63.59053411193931
21
-4.506270226948534
0
LINE
8
0
10
-63.59053411193931
20
-4.506270226948534
11
-62.01323147545007
21
-4.982972766148594
0
LINE
8
0
10
-62.01323147545007
20
-4.982972766148594
11
-60.708661861766224
21
-5.2761047377521475
0
LINE
8
0
10
-60.708661861766224
20
-5.2761047377521475
11
-60.708661861766224
21
-5.276104737752154
0
LINE
8
0
10
-60.708661861766224
20
-5.276104737752154
11
-60.66705721800019
21
-5.734725342846954
0
LINE
8
0
10
-60.66705721800019
20
-5.734725342846954
11
-60.621987997263915
21
-6.193018448994803
0
LINE
8
0
10
-60.621987997263915
20
-6.193018448994803
11
-60.62198799726391
21
-6.19301844899478
0
LINE
8
0
10
-60.62198799726391
20
-6.19301844899478
11
-61.84852264228742
21
-6.725410216662697
0
LINE
8
0
10
-61.84852264228742
20
-6.725410216662697
11
-63.30856176418989
21
-7.489226084833676
0
LINE
8
0
10
-63.30856176418989
20
-7.489226084833676
11
-63.30856176418988
21
-7.489226084833753
0
LINE
8
0
10
-63.30856176418988
20
-7.489226084833753
11
-63.247312208797965
21
-7.989993639724398
0
LINE
8
0
10
-63.247312208797965
20
-7.989993639724398
11
-63.18210167005562
21
-8.490260806050351
0
LINE
8
0
10
-63.18210167005562
20
-8.490260806050351
11
-63.182101670055616
21
-8.49026080605037
0
LINE
8
0
10
-63.182101670055616
20
-8.49026080605037
11
-61.57797907992167
21
-8.866983029681537
0
LINE
8
0
10
-61.57797907992167
20
-8.866983029681537
11
-60.257577827582196
21
-9.0776219684934
0
LINE
8
0
10
-60.257577827582196
20
-9.0776219684934
11
-60.2575778275822
21
-9.077621968493405
0
LINE
8
0
10
-60.2575778275822
20
-9.077621968493405
11
-60.18725825501621
21
-9.53272521338906
0
LINE
8
0
10
-60.18725825501621
20
-9.53272521338906
11
-60.11350150586024
21
-9.987284062994217
0
LINE
8
0
10
-60.11350150586024
20
-9.987284062994217
11
-60.11350150586023
21
-9.987284062994277
0
LINE
8
0
10
-60.11350150586023
20
-9.987284062994277
11
-61.30418670925199
21
-10.595640024703652
0
LINE
8
0
10
-61.30418670925199
20
-10.595640024703652
11
-62.71338438227439
21
-11.449625291733419
0
LINE
8
0
10
-62.71338438227439
20
-11.449625291733419
11
-62.7133843822744
21
-11.449625291733415
0
LINE
8
0
10
-62.7133843822744
20
-11.449625291733415
11
-62.6208122339539
21
-11.945558804839955
0
LINE
8
0
10
-62.6208122339539
20
-11.945558804839955
11
-62.52431833803678
21
-12.440744204581907
0
LINE
8
0
10
-62.52431833803678
20
-12.440744204581907
11
-62.52431833803677
21
-12.440744204581927
0
LINE
8
0
10
-62.52431833803677
20
-12.440744204581927
11
-60.89970653326746
21
-12.715999362135543
0
LINE
8
0
10
-60.89970653326746
20
-12.715999362135543
11
-59.56868466278141
21
-12.843313972496
0
LINE
8
0
10
-59.56868466278141
20
-12.843313972496
11
-59.56868466278141
21
-12.843313972496006
0
LINE
8
0
10
-59.56868466278141
20
-12.843313972496006
11
-59.46992768064242
21
-13.293103772601809
0
LINE
8
0
10
-59.46992768064242
20
-13.293103772601809
11
-59.36777448725943
21
-13.742134429553067
0
LINE
8
0
10
-59.36777448725943
20
-13.742134429553067
11
-59.367774487259425
21
-13.742134429553095
0
LINE
8
0
10
-59.367774487259425
20
-13.742134429553095
11
-60.517911158493966
21
-14.424053682254575
0
LINE
8
0
10
-60.517911158493966
20
-14.424053682254575
11
-61.87070592322207
21
-15.364838058442814
0
LINE
8
0
10
-61.87070592322207
20
-15.364838058442814
11
-61.87070592322207
21
-15.364838058442839
0
LINE
8
0
10
-61.87070592322207
20
-15.364838058442839
11
-61.74717652195023
21
-15.853980306759507
0
LINE
8
0
10
-61.74717652195023
20
-15.853980306759507
11
-61.619780086181635
21
-16.34212966937337
0
LINE
8
0
10
-61.619780086181635
20
-16.34212966937337
11
-61.61978008618162
21
-16.34212966937339
0
LINE
8
0
10
-61.61978008618162
20
-16.34212966937339
11
-59.98109066735584
21
-16.514831454494715
0
LINE
8
0
10
-59.98109066735584
20
-16.514831454494715
11
-58.64470111395997
21
-16.558319283801183
0
LINE
8
0
10
-58.64470111395997
20
-16.558319283801183
11
-58.64470111395997
21
-16.558319283801186
0
LINE
8
0
10
-58.64470111395997
20
-16.558319283801186
11
-58.517896470938716
21
-17.001020524265535
0
LINE
8
0
10
-58.517896470938716
20
-17.001020524265535
11
-58.38774998531364
21
-17.4427508697025
0
LINE
8
0
10
-58.38774998531364
20
-17.4427508697025
11
-58.38774998531363
21
-17.442750869702508
0
LINE
8
0
10
-58.38774998531363
20
-17.442750869702508
11
-59.49279906039706
21
-18.195542189644943
0
LINE
8
0
10
-59.49279906039706
20
-18.195542189644943
11
-60.78385205392762
21
-19.219412828862342
0
LINE
8
0
10
-60.78385205392762
20
-19.219412828862342
11
-60.78385205392761
21
-19.21941282886239
0
LINE
8
0
10
-60.78385205392761
20
-19.21941282886239
11
-60.62985291381604
21
-19.69983339140292
0
LINE
8
0
10
-60.62985291381604
20
-19.69983339140292
11
-60.472056713726055
21
-20.179020214368684
0
LINE
8
0
10
-60.472056713726055
20
-20.179020214368684
11
-60.47205671372605
21
-20.179020214368705
0
LINE
8
0
10
-60.47205671372605
20
-20.179020214368705
11
-58.82575683933392
21
-20.248487052011804
0
LINE
8
0
10
-58.82575683933392
20
-20.248487052011804
11
-57.489273722057156
21
-20.207976473669707
0
LINE
8
0
10
-57.489273722057156
20
-20.207976473669707
11
-57.489273722057156
21
-20.207976473669714
0
LINE
8
0
10
-57.489273722057156
20
-20.207976473669714
11
-57.334921858148114
21
-20.64184201494745
0
LINE
8
0
10
-57.334921858148114
20
-20.64184201494745
11
-57.17729570900142
21
-21.07452874100408
0
LINE
8
0
10
-57.17729570900142
20
-21.07452874100408
11
-57.17729570900139
21
-21.07452874100416
0
LINE
8
0
10
-57.17729570900139
20
-21.07452874100416
11
-58.23289606408329
21
-21.895221204765292
0
LINE
8
0
10
-58.23289606408329
20
-21.895221204765292
11
-59.45711209007682
21
-22.998137357360957
0
LINE
8
0
10
-59.45711209007682
20
-22.998137357360957
11
-59.457112090076826
21
-22.998137357360925
0
LINE
8
0
10
-59.457112090076826
20
-22.998137357360925
11
-59.273250975376016
21
-23.467940233648243
0
LINE
8
0
10
-59.273250975376016
20
-23.467940233648243
11
-59.08567776047617
21
-23.936273385495305
0
LINE
8
0
10
-59.08567776047617
20
-23.936273385495305
11
-59.085677760476166
21
-23.936273385495323
0
LINE
8
0
10
-59.085677760476166
20
-23.936273385495323
11
-57.43826462399905
21
-23.9022311217884
0
LINE
8
0
10
-57.43826462399905
20
-23.9022311217884
11
-56.10696243112423
21
-23.777882012542932
0
LINE
8
0
10
-56.10696243112423
20
-23.777882012542932
11
-56.10696243112424
21
-23.777882012542943
0
LINE
8
0
10
-56.10696243112424
20
-23.777882012542943
11
-55.925672502617594
21
-24.201199585556953
0
LINE
8
0
10
-55.925672502617594
20
-24.201199585556953
11
-55.74118876834745
21
-24.62313507540127
0
LINE
8
0
10
-55.74118876834745
20
-24.62313507540127
11
-55.74118876834742
21
-24.62313507540132
0
LINE
8
0
10
-55.74118876834742
20
-24.62313507540132
11
-56.74317443108418
21
-25.508489784765498
0
LINE
8
0
10
-56.74317443108418
20
-25.508489784765498
11
-57.89572206817719
21
-26.686098744559487
0
LINE
8
0
10
-57.89572206817719
20
-26.686098744559487
11
-57.895722068177214
21
-26.68609874455946
0
LINE
8
0
10
-57.895722068177214
20
-26.68609874455946
11
-57.68272459470874
21
-27.14342983727338
0
LINE
8
0
10
-57.68272459470874
20
-27.14342983727338
11
-57.466114630784205
21
-27.599061021012464
0
LINE
8
0
10
-57.466114630784205
20
-27.599061021012464
11
-57.4661146307842
21
-27.59906102101248
0
LINE
8
0
10
-57.4661146307842
20
-27.59906102101248
11
-55.82408981924029
21
-27.461644005217952
0
LINE
8
0
10
-55.82408981924029
20
-27.461644005217952
11
-54.50322259230859
21
-27.253947114193608
0
LINE
8
0
10
-54.50322259230859
20
-27.253947114193608
11
-54.50322259230859
21
-27.253947114193615
0
LINE
8
0
10
-54.50322259230859
20
-27.253947114193615
11
-54.29571006772867
21
-27.66504607787863
0
LINE
8
0
10
-54.29571006772867
20
-27.66504607787863
11
-54.08509682135163
21
-28.074565144896198
0
LINE
8
0
10
-54.08509682135163
20
-28.074565144896198
11
-54.08509682135159
21
-28.074565144896248
0
LINE
8
0
10
-54.08509682135159
20
-28.074565144896248
11
-55.02951341209604
21
-29.021088009305803
0
LINE
8
0
10
-55.02951341209604
20
-29.021088009305803
11
-56.10584408131393
21
-30.268742291732075
0
LINE
8
0
10
-56.10584408131393
20
-30.268742291732075
11
-56.10584408131394
21
-30.268742291732067
0
LINE
8
0
10
-56.10584408131394
20
-30.268742291732067
11
-55.8645508527963
21
-30.711796723984357
0
LINE
8
0
10
-55.8645508527963
20
-30.711796723984357
11
-55.619759000414994
21
-31.15292777149132
0
LINE
8
0
10
-55.619759000414994
20
-31.15292777149132
11
-55.61975900041499
21
-31.15292777149134
0
LINE
8
0
10
-55.61975900041499
20
-31.15292777149134
11
-53.98960283556568
21
-30.912678325790683
0
LINE
8
0
10
-53.98960283556568
20
-30.912678325790683
11
-52.684383434074945
21
-30.62245333772865
0
LINE
8
0
10
-52.684383434074945
20
-30.62245333772865
11
-52.68438343407495
21
-30.622453337728658
0
LINE
8
0
10
-52.68438343407495
20
-30.622453337728658
11
-52.45146727055282
21
-31.019711272288244
0
LINE
8
0
10
-52.45146727055282
20
-31.019711272288244
11
-52.21555570633229
21
-31.415197731813024
0
LINE
8
0
10
-52.21555570633229
20
-31.415197731813024
11
-52.21555570633226
21
-31.415197731813045
0
LINE
8
0
10
-52.21555570633226
20
-31.415197731813045
11
-53.09867604426368
21
-32.41915325794722
0
LINE
8
0
10
-53.09867604426368
20
-32.41915325794722
11
-54.094541960183705
21
-33.73192894155216
0
LINE
8
0
10
-54.094541960183705
20
-33.73192894155216
11
-54.09454196018369
21
-33.73192894155218
0
LINE
8
0
10
-54.09454196018369
20
-33.73192894155218
11
-53.82590525075345
21
-34.158958179911046
0
LINE
8
0
10
-53.82590525075345
20
-34.158958179911046
11
-53.55389759152197
21
-34.58384814847499
0
LINE
8
0
10
-53.55389759152197
20
-34.58384814847499
11
-53.55389759152196
21
-34.58384814847501
0
LINE
8
0
10
-53.55389759152196
20
-34.58384814847501
11
-51.94204355500241
21
-34.24171442767088
0
LINE
8
0
10
-51.94204355500241
20
-34.24171442767088
11
-50.65762308363231
21
-33.870106728007855
0
LINE
8
0
10
-50.65762308363231
20
-33.870106728007855
11
-50.65762308363231
21
-33.87010672800786
0
LINE
8
0
10
-50.65762308363231
20
-33.87010672800786
11
-50.40022249485611
21
-34.25195583786421
0
LINE
8
0
10
-50.40022249485611
20
-34.25195583786421
11
-50.139943647958326
21
-34.631848885521016
0
LINE
8
0
10
-50.139943647958326
20
-34.631848885521016
11
-50.139943647958326
21
-34.63184888552102
0
LINE
8
0
10
-50.139943647958326
20
-34.63184888552102
11
-50.95828246056219
21
-35.689274919581806
0
LINE
8
0
10
-50.95828246056219
20
-35.689274919581806
11
-51.86975339538208
21
-37.06199107849239
0
LINE
8
0
10
-51.86975339538208
20
-37.06199107849239
11
-51.86975339538205
21
-37.061991078492426
0
LINE
8
0
10
-51.86975339538205
20
-37.061991078492426
11
-51.57483339140288
21
-37.47130983364518
0
LINE
8
0
10
-51.57483339140288
20
-37.47130983364518
11
-51.276683415283735
21
-37.878281876673945
0
LINE
8
0
10
-51.276683415283735
20
-37.878281876673945
11
-51.27668341528372
21
-37.87828187667397
0
LINE
8
0
10
-51.27668341528372
20
-37.87828187667397
11
-49.68949275859
21
-37.43561412625635
0
LINE
8
0
10
-49.68949275859
20
-37.43561412625635
11
-48.430940238145126
21
-36.98409028081148
0
LINE
8
0
10
-48.430940238145126
20
-36.98409028081148
11
-48.43094023814513
21
-36.98409028081149
0
LINE
8
0
10
-48.43094023814513
20
-36.98409028081149
11
-48.150071066643626
21
-37.34902358197826
0
LINE
8
0
10
-48.150071066643626
20
-37.34902358197826
11
-47.86645213876721
21
-37.71182395346463
0
LINE
8
0
10
-47.86645213876721
20
-37.71182395346463
11
-47.866452138767215
21
-37.71182395346461
0
LINE
8
0
10
-47.866452138767215
20
-37.71182395346461
11
-48.616779816613565
21
-38.818547317987665
0
LINE
8
0
10
-48.616779816613565
20
-38.818547317987665
11
-49.4402586109651
21
-40.245786468658935
0
LINE
8
0
10
-49.4402586109651
20
-40.245786468658935
11
-49.44025861096505
21
-40.24578646865899
0
LINE
8
0
10
-49.44025861096505
20
-40.24578646865899
11
-49.12021922695655
21
-40.635779346478984
0
LINE
8
0
10
-49.12021922695655
20
-40.635779346478984
11
-48.7971035956937
21
-41.02322733124659
0
LINE
8
0
10
-48.7971035956937
20
-41.02322733124659
11
-48.797103595693684
21
-41.0232273312466
0
LINE
8
0
10
-48.797103595693684
20
-41.0232273312466
11
-47.24084023522932
21
-40.481772558590734
0
LINE
8
0
10
-47.24084023522932
20
-40.481772558590734
11
-46.013122597529936
21
-39.95211452570038
0
LINE
8
0
10
-46.013122597529936
20
-39.95211452570038
11
-46.013122597529936
21
-39.952114525700395
0
LINE
8
0
10
-46.013122597529936
20
-39.952114525700395
11
-45.709893305606116
21
-40.298691793160046
0
LINE
8
0
10
-45.709893305606116
20
-40.298691793160046
11
-45.40405361108622
21
-40.642967681157444
0
LINE
8
0
10
-45.40405361108622
20
-40.642967681157444
11
-45.404053611086255
21
-40.6429676811574
0
LINE
8
0
10
-45.404053611086255
20
-40.6429676811574
11
-46.08340895362279
21
-41.794620644636666
0
LINE
8
0
10
-46.08340895362279
20
-41.794620644636666
11
-46.81564571291629
21
-43.270750126184566
0
LINE
8
0
10
-46.81564571291629
20
-43.270750126184566
11
-46.81564571291624
21
-43.27075012618462
0
LINE
8
0
10
-46.81564571291624
20
-43.27075012618462
11
-46.47174999811499
21
-43.63987800295391
0
LINE
8
0
10
-46.47174999811499
20
-43.63987800295391
11
-46.12494390148754
21
-44.006272849272605
0
LINE
8
0
10
-46.12494390148754
20
-44.006272849272605
11
-46.124943901487526
21
-44.00627284927262
0
LINE
8
0
10
-46.124943901487526
20
-44.00627284927262
11
-44.60574969774718
21
-43.36816792899901
0
LINE
8
0
10
-44.60574969774718
20
-43.36816792899901
11
-43.41371218341843
21
-42.762466026941254
0
LINE
8
0
10
-43.41371218341843
20
-42.762466026941254
11
-43.41371218341843
21
-42.76246602694127
0
LINE
8
0
10
-43.41371218341843
20
-42.76246602694127
11
-43.08931947855525
21
-43.08931947855523
0
LINE
8
0
10
-43.08931947855525
20
-43.08931947855523
11
-42.762466026941276
21
-43.413712183418426
0
LINE
8
0
10
-42.762466026941276
20
-43.413712183418426
11
-42.76246602694123
21
-43.41371218341846
0
LINE
8
0
10
-42.76246602694123
20
-43.41371218341846
11
-43.368167928998986
21
-44.6057496977472
0
LINE
8
0
10
-43.368167928998986
20
-44.6057496977472
11
-44.0062728492726
21
-46.124943901487555
0
LINE
8
0
10
-44.0062728492726
20
-46.124943901487555
11
-44.0062728492726
21
-46.12494390148755
0
LINE
8
0
10
-44.0062728492726
20
-46.12494390148755
11
-43.6398780029539
21
-46.47174999811499
0
LINE
8
0
10
-43.6398780029539
20
-46.47174999811499
11
-43.270750126184616
21
-46.81564571291625
0
LINE
8
0
10
-43.270750126184616
20
-46.81564571291625
11
-43.2707501261846
21
-46.815645712916265
0
LINE
8
0
10
-43.2707501261846
20
-46.815645712916265
11
-41.79462064463662
21
-46.083408953622836
0
LINE
8
0
10
-41.79462064463662
20
-46.083408953622836
11
-40.64296768115743
21
-45.40405361108622
0
LINE
8
0
10
-40.64296768115743
20
-45.40405361108622
11
-40.64296768115744
21
-45.404053611086226
0
LINE
8
0
10
-40.64296768115744
20
-45.404053611086226
11
-40.29869179316004
21
-45.70989330560612
0
LINE
8
0
10
-40.29869179316004
20
-45.70989330560612
11
-39.95211452570039
21
-46.01312259752994
0
LINE
8
0
10
-39.95211452570039
20
-46.01312259752994
11
-39.95211452570035
21
-46.01312259752996
0
LINE
8
0
10
-39.95211452570035
20
-46.01312259752996
11
-40.4817725585907
21
-47.24084023522934
0
LINE
8
0
10
-40.4817725585907
20
-47.24084023522934
11
-41.02322733124658
21
-48.79710359569371
0
LINE
8
0
10
-41.02322733124658
20
-48.79710359569371
11
-41.02322733124658
21
-48.797103595693706
0
LINE
8
0
10
-41.02322733124658
20
-48.797103595693706
11
-40.635779346478955
21
-49.12021922695657
0
LINE
8
0
10
-40.635779346478955
20
-49.12021922695657
11
-40.24578646865894
21
-49.440258610965095
0
LINE
8
0
10
-40.24578646865894
20
-49.440258610965095
11
-40.24578646865894
21
-49.44025861096509
0
LINE
8
0
10
-40.24578646865894
20
-49.44025861096509
11
-38.81854731798759
21
-48.61677981661362
0
LINE
8
0
10
-38.81854731798759
20
-48.61677981661362
11
-37.711823953464624
21
-47.8664521387672
0
LINE
8
0
10
-37.711823953464624
20
-47.8664521387672
11
-37.711823953464624
21
-47.866452138767215
0
LINE
8
0
10
-37.711823953464624
20
-47.866452138767215
11
-37.34902358197825
21
-48.15007106664363
0
LINE
8
0
10
-37.34902358197825
20
-48.15007106664363
11
-36.984090280811486
21
-48.43094023814514
0
LINE
8
0
10
-36.984090280811486
20
-48.43094023814514
11
-36.98409028081148
21
-48.43094023814514
0
LINE
8
0
10
-36.98409028081148
20
-48.43094023814514
11
-37.43561412625633
21
-49.68949275859
0
LINE
8
0
10
-37.43561412625633
20
-49.68949275859
11
-37.87828187667396
21
-51.27668341528373
0
LINE
8
0
10
-37.87828187667396
20
-51.27668341528373
11
-37.87828187667397
21
-51.27668341528372
0
LINE
8
0
10
-37.87828187667397
20
-51.27668341528372
11
-37.47130983364517
21
-51.57483339140289
0
LINE
8
0
10
-37.47130983364517
20
-51.57483339140289
11
-37.061991078492404
21
-51.86975339538207
0
LINE
8
0
10
-37.061991078492404
20
-51.86975339538207
11
-37.0619910784924
21
-51.869753395382055
0
LINE
8
0
10
-37.0619910784924
20
-51.869753395382055
11
-35.68927491958181
21
-50.95828246056218
0
LINE
8
0
10
-35.68927491958181
20
-50.95828246056218
11
-34.63184888552104
21
-50.13994364795831
0
LINE
8
0
10
-34.63184888552104
20
-50.13994364795831
11
-34.63184888552104
21
-50.13994364795831
0
LINE
8
0
10
-34.63184888552104
20
-50.13994364795831
11
-34.25195583786423
21
-50.400222494856095
0
LINE
8
0
10
-34.25195583786423
20
-50.400222494856095
11
-33.870106728007876
21
-50.657623083632295
0
LINE
8
0
10
-33.870106728007876
20
-50.657623083632295
11
-33.87010672800778
21
-50.65762308363235
0
LINE
8
0
10
-33.87010672800778
20
-50.65762308363235
11
-34.24171442767089
21
-51.94204355500239
0
LINE
8
0
10
-34.24171442767089
20
-51.94204355500239
11
-34.583848148474935
21
-53.55389759152201
0
LINE
8
0
10
-34.583848148474935
20
-53.55389759152201
11
-34.583848148474985
21
-53.553897591521974
0
LINE
8
0
10
-34.583848148474985
20
-53.553897591521974
11
-34.15895817991102
21
-53.82590525075347
0
LINE
8
0
10
-34.15895817991102
20
-53.82590525075347
11
-33.73192894155212
21
-54.094541960183726
0
LINE
8
0
10
-33.73192894155212
20
-54.094541960183726
11
-33.73192894155213
21
-54.094541960183726
0
LINE
8
0
10
-33.73192894155213
20
-54.094541960183726
11
-32.41915325794719
21
-53.09867604426369
0
LINE
8
0
10
-32.41915325794719
20
-53.09867604426369
11
-31.415197731813013
21
-52.21555570633228
0
LINE
8
0
10
-31.415197731813013
20
-52.21555570633228
11
-31.415197731813016
21
-52.21555570633229
0
LINE
8
0
10
-31.415197731813016
20
-52.21555570633229
11
-31.019711272288237
21
-52.451467270552826
0
LINE
8
0
10
-31.019711272288237
20
-52.451467270552826
11
-30.622453337728654
21
-52.68438343407496
0
LINE
8
0
10
-30.622453337728654
20
-52.68438343407496
11
-30.622453337728597
21
-52.68438343407498
0
LINE
8
0
10
-30.622453337728597
20
-52.68438343407498
11
-30.91267832579073
21
-53.989602835565655
0
LINE
8
0
10
-30.91267832579073
20
-53.989602835565655
11
-31.15292777149129
21
-55.619759000415016
0
LINE
8
0
10
-31.15292777149129
20
-55.619759000415016
11
-31.15292777149134
21
-55.61975900041499
0
LINE
8
0
10
-31.15292777149134
20
-55.61975900041499
11
-30.71179672398435
21
-55.864550852796306
0
LINE
8
0
10
-30.71179672398435
20
-55.864550852796306
11
-30.268742291732032
21
-56.10584408131396
0
LINE
8
0
10
-30.268742291732032
20
-56.10584408131396
11
-30.268742291732035
21
-56.10584408131395
0
LINE
8
0
10
-30.268742291732035
20
-56.10584408131395
11
-29.021088009305764
21
-55.02951341209606
0
LINE
8
0
10
-29.021088009305764
20
-55.02951341209606
11
-28.074565144896212
21
-54.085096821351605
0
LINE
8
0
10
-28.074565144896212
20
-54.085096821351605
11
-28.074565144896212
21
-54.08509682135161
0
LINE
8
0
10
-28.074565144896212
20
-54.08509682135161
11
-27.66504607787864
21
-54.29571006772866
0
LINE
8
0
10
-27.66504607787864
20
-54.29571006772866
11
-27.253947114193632
21
-54.50322259230858
0
LINE
8
0
10
-27.253947114193632
20
-54.50322259230858
11
-27.253947114193576
21
-54.50322259230861
0
LINE
8
0
10
-27.253947114193576
20
-54.50322259230861
11
-27.46164400521792
21
-55.82408981924031
0
LINE
8
0
10
-27.46164400521792
20
-55.82408981924031
11
-27.59906102101245
21
-57.466114630784205
0
LINE
8
0
10
-27.59906102101245
20
-57.466114630784205
11
-27.599061021012457
21
-57.466114630784205
0
LINE
8
0
10
-27.599061021012457
20
-57.466114630784205
11
-27.14342983727335
21
-57.68272459470876
0
LINE
8
0
10
-27.14342983727335
20
-57.68272459470876
11
-26.6860987445594
21
-57.89572206817724
0
LINE
8
0
10
-26.6860987445594
20
-57.89572206817724
11
-26.686098744559406
21
-57.895722068177236
0
LINE
8
0
10
-26.686098744559406
20
-57.895722068177236
11
-25.508489784765516
21
-56.74317443108417
0
LINE
8
0
10
-25.508489784765516
20
-56.74317443108417
11
-24.62313507540124
21
-55.74118876834745
0
LINE
8
0
10
-24.62313507540124
20
-55.74118876834745
11
-24.623135075401237
21
-55.74118876834746
0
LINE
8
0
10
-24.623135075401237
20
-55.74118876834746
11
-24.201199585556925
21
-55.92567250261761
0
LINE
8
0
10
-24.201199585556925
20
-55.92567250261761
11
-23.777882012542907
21
-56.10696243112425
0
LINE
8
0
10
-23.777882012542907
20
-56.10696243112425
11
-23.777882012542904
21
-56.10696243112425
0
LINE
8
0
10
-23.777882012542904
20
-56.10696243112425
11
-23.902231121788365
21
-57.43826462399907
0
LINE
8
0
10
-23.902231121788365
20
-57.43826462399907
11
-23.93627338549529
21
-59.08567776047618
0
LINE
8
0
10
-23.93627338549529
20
-59.08567776047618
11
-23.936273385495298
21
-59.08567776047618
0
LINE
8
0
10
-23.936273385495298
20
-59.08567776047618
11
-23.46794023364821
21
-59.27325097537603
0
LINE
8
0
10
-23.46794023364821
20
-59.27325097537603
11
-22.99813735736086
21
-59.457112090076855
0
LINE
8
0
10
-22.99813735736086
20
-59.457112090076855
11
-22.998137357360864
21
-59.45711209007684
0
LINE
8
0
10
-22.998137357360864
20
-59.45711209007684
11
-21.895221204765306
21
-58.232896064083285
0
LINE
8
0
10
-21.895221204765306
20
-58.232896064083285
11
-21.074528741004077
21
-57.17729570900142
0
LINE
8
0
10
-21.074528741004077
20
-57.17729570900142
11
-21.074528741004077
21
-57.17729570900143
0
LINE
8
0
10
-21.074528741004077
20
-57.17729570900143
11
-20.641842014947443
21
-57.334921858148114
0
LINE
8
0
10
-20.641842014947443
20
-57.334921858148114
11
-20.207976473669707
21
-57.489273722057156
0
LINE
8
0
10
-20.207976473669707
20
-57.489273722057156
11
-20.2079764736697
21
-57.489273722057156
0
LINE
8
0
10
-20.2079764736697
20
-57.489273722057156
11
-20.248487052011793
21
-58.82575683933392
0
LINE
8
0
10
-20.248487052011793
20
-58.82575683933392
11
-20.179020214368695
21
-60.47205671372605
0
LINE
8
0
10
-20.179020214368695
20
-60.47205671372605
11
-20.179020214368702
21
-60.47205671372605
0
LINE
8
0
10
-20.179020214368702
20
-60.47205671372605
11
-19.69983339140291
21
-60.62985291381604
0
LINE
8
0
10
-19.69983339140291
20
-60.62985291381604
11
-19.219412828862353
21
-60.78385205392762
0
LINE
8
0
10
-19.219412828862353
20
-60.78385205392762
11
-19.219412828862357
21
-60.78385205392762
0
LINE
8
0
10
-19.219412828862357
20
-60.78385205392762
11
-18.195542189644964
21
-59.492799060397054
0
LINE
8
0
10
-18.195542189644964
20
-59.492799060397054
11
-17.442750869702518
21
-58.387749985313626
0
LINE
8
0
10
-17.442750869702518
20
-58.387749985313626
11
-17.442750869702518
21
-58.38774998531363
0
LINE
8
0
10
-17.442750869702518
20
-58.38774998531363
11
-17.001020524265556
21
-58.51789647093871
0
LINE
8
0
10
-17.001020524265556
20
-58.51789647093871
11
-16.558319283801207
21
-58.64470111395996
0
LINE
8
0
10
-16.558319283801207
20
-58.64470111395996
11
-16.558319283801197
21
-58.64470111395996
0
LINE
8
0
10
-16.558319283801197
20
-58.64470111395996
11
-16.514831454494626
21
-59.981090667355865
0
LINE
8
0
10
-16.514831454494626
20
-59.981090667355865
11
-16.34212966937341
21
-61.61978008618162
0
LINE
8
0
10
-16.34212966937341
20
-61.61978008618162
11
-16.342129669373364
21
-61.619780086181635
0
LINE
8
0
10
-16.342129669373364
20
-61.619780086181635
11
-15.85398030675947
21
-61.74717652195024
0
LINE
8
0
10
-15.85398030675947
20
-61.74717652195024
11
-15.364838058442775
21
-61.87070592322208
0
LINE
8
0
10
-15.364838058442775
20
-61.87070592322208
11
-15.364838058442778
21
-61.87070592322208
0
LINE
8
0
10
-15.364838058442778
20
-61.87070592322208
11
-14.424053682254542
21
-60.51791115849398
0
LINE
8
0
10
-14.424053682254542
20
-60.51791115849398
11
-13.742134429553062
21
-59.367774487259425
0
LINE
8
0
10
-13.742134429553062
20
-59.367774487259425
11
-13.742134429553058
21
-59.36777448725944
0
LINE
8
0
10
-13.742134429553058
20
-59.36777448725944
11
-13.293103772601802
21
-59.46992768064242
0
LINE
8
0
10
-13.293103772601802
20
-59.46992768064242
11
-12.843313972495997
21
-59.56868466278141
0
LINE
8
0
10
-12.843313972495997
20
-59.56868466278141
11
-12.843313972496045
21
-59.5686846627814
0
LINE
8
0
10
-12.843313972496045
20
-59.5686846627814
11
-12.715999362135484
21
-60.89970653326747
0
LINE
8
0
10
-12.715999362135484
20
-60.89970653326747
11
-12.440744204581977
21
-62.52431833803676
0
LINE
8
0
10
-12.440744204581977
20
-62.52431833803676
11
-12.440744204581927
21
-62.52431833803677
0
LINE
8
0
10
-12.440744204581927
20
-62.52431833803677
11
-11.945558804839946
21
-62.620812233953906
0
LINE
8
0
10
-11.945558804839946
20
-62.620812233953906
11
-11.44962529173338
21
-62.713384382274405
0
LINE
8
0
10
-11.44962529173338
20
-62.713384382274405
11
-11.449625291733383
21
-62.713384382274405
0
LINE
8
0
10
-11.449625291733383
20
-62.713384382274405
11
-10.595640024703616
21
-61.304186709252
0
LINE
8
0
10
-10.595640024703616
20
-61.304186709252
11
-9.98728406299424
21
-60.11350150586023
0
LINE
8
0
10
-9.98728406299424
20
-60.11350150586023
11
-9.987284062994236
21
-60.11350150586024
0
LINE
8
0
10
-9.987284062994236
20
-60.11350150586024
11
-9.532725213389078
21
-60.187258255016204
0
LINE
8
0
10
-9.532725213389078
20
-60.187258255016204
11
-9.077621968493423
21
-60.257577827582196
0
LINE
8
0
10
-9.077621968493423
20
-60.257577827582196
11
-9.077621968493366
21
-60.25757782758221
0
LINE
8
0
10
-9.077621968493366
20
-60.25757782758221
11
-8.8669830296815
21
-61.57797907992167
0
LINE
8
0
10
-8.8669830296815
20
-61.57797907992167
11
-8.490260806050335
21
-63.182101670055616
0
LINE
8
0
10
-8.490260806050335
20
-63.182101670055616
11
-8.490260806050342
21
-63.18210167005562
0
LINE
8
0
10
-8.490260806050342
20
-63.18210167005562
11
-7.9899936397243625
21
-63.247312208797965
0
LINE
8
0
10
-7.9899936397243625
20
-63.247312208797965
11
-7.489226084833689
21
-63.308561764189896
0
LINE
8
0
10
-7.489226084833689
20
-63.308561764189896
11
-7.489226084833695
21
-63.30856176418989
0
LINE
8
0
10
-7.489226084833695
20
-63.30856176418989
11
-6.725410216662605
21
-61.848522642287435
0
LINE
8
0
10
-6.725410216662605
20
-61.848522642287435
11
-6.193018448994797
21
-60.62198799726391
0
LINE
8
0
10
-6.193018448994797
20
-60.62198799726391
11
-6.193018448994795
21
-60.621987997263915
0
LINE
8
0
10
-6.193018448994795
20
-60.621987997263915
11
-5.734725342846945
21
-60.66705721800019
0
LINE
8
0
10
-5.734725342846945
20
-60.66705721800019
11
-5.276104737752145
21
-60.70866186176623
0
LINE
8
0
10
-5.276104737752145
20
-60.70866186176623
11
-5.276104737752139
21
-60.708661861766224
0
LINE
8
0
10
-5.276104737752139
20
-60.708661861766224
11
-4.982972766148584
21
-62.01323147545007
0
LINE
8
0
10
-4.982972766148584
20
-62.01323147545007
11
-4.506270226948527
21
-63.59053411193931
0
LINE
8
0
10
-4.506270226948527
20
-63.59053411193931
11
-4.506270226948534
21
-63.59053411193931
0
LINE
8
0
10
-4.506270226948534
20
-63.59053411193931
11
-4.002895619993717
21
-63.62420393730231
0
LINE
8
0
10
-4.002895619993717
20
-63.62420393730231
11
-3.499270324079154
21
-63.653889175752795
0
LINE
8
0
10
-3.499270324079154
20
-63.653889175752795
11
-3.4992703240791583
21
-63.6538891757528
0
LINE
8
0
10
-3.4992703240791583
20
-63.6538891757528
11
-2.828638287044148
21
-62.148770712356
0
LINE
8
0
10
-2.828638287044148
20
-62.148770712356
11
-2.374311820498228
21
-60.89122719759425
0
LINE
8
0
10
-2.374311820498228
20
-60.89122719759425
11
-2.374311820498224
21
-60.891227197594255
0
LINE
8
0
10
-2.374311820498224
20
-60.891227197594255
11
-1.9140931313234433
21
-60.90743102228677
0
LINE
8
0
10
-1.9140931313234433
20
-60.90743102228677
11
-1.4537651320339844
21
-60.920156542731256
0
LINE
8
0
10
-1.4537651320339844
20
-60.920156542731256
11
-1.453765132033977
21
-60.92015654273125
0
LINE
8
0
10
-1.453765132033977
20
-60.92015654273125
11
-1.0792969856113872
21
-62.20374597749544
0
LINE
8
0
10
-1.0792969856113872
20
-62.20374597749544
11
-0.5044954579799937
21
-63.74800376743477
0
LINE
8
0
10
-0.5044954579799937
20
-63.74800376743477
11
-0.5044954579800002
21
-63.748003767434774
0
LINE
8
0
10
-0.5044954579800002
20
-63.748003767434774
11
-1.1710685016846564e-14
21
-63.75
0
LINE
8
0
10
-1.1710685016846564e-14
20
-63.75
11
0.5044954579799767
21
-63.748003767434774
0
LINE
8
0
10
0.5044954579799767
20
-63.748003767434774
11
0.5044954579799709
21
-63.74800376743477
0
LINE
8
0
10
0.5044954579799709
20
-63.74800376743477
11
1.0792969856113643
21
-62.20374597749544
0
LINE
8
0
10
1.0792969856113643
20
-62.20374597749544
11
1.453765132033956
21
-60.920156542731256
0
LINE
8
0
10
1.453765132033956
20
-60.920156542731256
11
1.453765132033962
21
-60.920156542731256
0
LINE
8
0
10
1.453765132033962
20
-60.920156542731256
11
1.9140931313234208
21
-60.90743102228677
0
LINE
8
0
10
1.9140931313234208
20
-60.90743102228677
11
2.374311820498202
21
-60.891227197594255
0
LINE
8
0
10
2.374311820498202
20
-60.891227197594255
11
2.374311820498316
21
-60.89122719759425
0
LINE
8
0
10
2.374311820498316
20
-60.89122719759425
11
2.828638287044125
21
-62.148770712356
0
LINE
8
0
10
2.828638287044125
20
-62.148770712356
11
3.499270324079253
21
-63.65388917575279
0
LINE
8
0
10
3.499270324079253
20
-63.65388917575279
11
3.499270324079187
21
-63.653889175752795
0
LINE
8
0
10
3.499270324079187
20
-63.653889175752795
11
4.002895619993749
21
-63.62420393730231
0
LINE
8
0
10
4.002895619993749
20
-63.62420393730231
11
4.506270226948568
21
-63.59053411193931
0
LINE
8
0
10
4.506270226948568
20
-63.59053411193931
11
4.50627022694856
21
-63.59053411193931
0
LINE
8
0
10
4.50627022694856
20
-63.59053411193931
11
4.982972766148613
21
-62.01323147545007
0
LINE
8
0
10
4.982972766148613
20
-62.01323147545007
11
5.276104737752173
21
-60.708661861766224
0
LINE
8
0
10
5.276104737752173
20
-60.708661861766224
11
5.276104737752177
21
-60.708661861766224
0
LINE
8
0
10
5.276104737752177
20
-60.708661861766224
11
5.734725342846977
21
-60.66705721800019
0
LINE
8
0
10
5.734725342846977
20
-60.66705721800019
11
6.193018448994826
21
-60.621987997263915
0
LINE
8
0
10
6.193018448994826
20
-60.621987997263915
11
6.193018448994885
21
-60.62198799726389
0
LINE
8
0
10
6.193018448994885
20
-60.62198799726389
11
6.725410216662586
21
-61.848522642287435
0
LINE
8
0
10
6.725410216662586
20
-61.848522642287435
11
7.489226084833787
21
-63.308561764189875
0
LINE
8
0
10
7.489226084833787
20
-63.308561764189875
11
7.489226084833722
21
-63.30856176418989
0
LINE
8
0
10
7.489226084833722
20
-63.30856176418989
11
7.9899936397243945
21
-63.247312208797965
0
LINE
8
0
10
7.9899936397243945
20
-63.247312208797965
11
8.490260806050374
21
-63.182101670055616
0
LINE
8
0
10
8.490260806050374
20
-63.182101670055616
11
8.490260806050367
21
-63.182101670055616
0
LINE
8
0
10
8.490260806050367
20
-63.182101670055616
11
8.866983029681535
21
-61.57797907992167
0
LINE
8
0
10
8.866983029681535
20
-61.57797907992167
11
9.077621968493396
21
-60.257577827582196
0
LINE
8
0
10
9.077621968493396
20
-60.257577827582196
11
9.077621968493402
21
-60.2575778275822
0
LINE
8
0
10
9.077621968493402
20
-60.2575778275822
11
9.532725213389057
21
-60.18725825501621
0
LINE
8
0
10
9.532725213389057
20
-60.18725825501621
11
9.987284062994213
21
-60.11350150586024
0
LINE
8
0
10
9.987284062994213
20
-60.11350150586024
11
9.987284062994274
21
-60.11350150586023
0
LINE
8
0
10
9.987284062994274
20
-60.11350150586023
11
10.595640024703648
21
-61.30418670925199
0
LINE
8
0
10
10.595640024703648
20
-61.30418670925199
11
11.449625291733419
21
-62.71338438227439
0
LINE
8
0
10
11.449625291733419
20
-62.71338438227439
11
11.449625291733412
21
-62.7133843822744
0
LINE
8
0
10
11.449625291733412
20
-62.7133843822744
11
11.945558804839976
21
-62.6208122339539
0
LINE
8
0
10
11.945558804839976
20
-62.6208122339539
11
12.440744204581959
21
-62.524318338036764
0
LINE
8
0
10
12.440744204581959
20
-62.524318338036764
11
12.440744204581952
21
-62.52431833803676
0
LINE
8
0
10
12.440744204581952
20
-62.52431833803676
11
12.71599936213557
21
-60.89970653326746
0
LINE
8
0
10
12.71599936213557
20
-60.89970653326746
11
12.843313972496023
21
-59.5686846627814
0
LINE
8
0
10
12.843313972496023
20
-59.5686846627814
11
12.843313972496027
21
-59.5686846627814
0
LINE
8
0
10
12.843313972496027
20
-59.5686846627814
11
13.293103772601834
21
-59.469927680642414
0
LINE
8
0
10
13.293103772601834
20
-59.469927680642414
11
13.742134429553088
21
-59.36777448725943
0
LINE
8
0
10
13.742134429553088
20
-59.36777448725943
11
13.742134429553092
21
-59.367774487259425
0
LINE
8
0
10
13.742134429553092
20
-59.367774487259425
11
14.424053682254575
21
-60.517911158493966
0
LINE
8
0
10
14.424053682254575
20
-60.517911158493966
11
15.364838058442814
21
-61.87070592322207
0
LINE
8
0
10
15.364838058442814
20
-61.87070592322207
11
15.364838058442809
21
-61.870705923222076
0
LINE
8
0
10
15.364838058442809
20
-61.870705923222076
11
15.853980306759501
21
-61.74717652195023
0
LINE
8
0
10
15.853980306759501
20
-61.74717652195023
11
16.342129669373396
21
-61.61978008618163
0
LINE
8
0
10
16.342129669373396
20
-61.61978008618163
11
16.34212966937339
21
-61.61978008618162
0
LINE
8
0
10
16.34212966937339
20
-61.61978008618162
11
16.51483145449471
21
-59.98109066735585
0
LINE
8
0
10
16.51483145449471
20
-59.98109066735585
11
16.55831928380118
21
-58.64470111395997
0
LINE
8
0
10
16.55831928380118
20
-58.64470111395997
11
16.558319283801183
21
-58.64470111395997
0
LINE
8
0
10
16.558319283801183
20
-58.64470111395997
11
17.00102052426553
21
-58.517896470938716
0
LINE
8
0
10
17.00102052426553
20
-58.517896470938716
11
17.442750869702497
21
-58.38774998531364
0
LINE
8
0
10
17.442750869702497
20
-58.38774998531364
11
17.4427508697025
21
-58.38774998531363
0
LINE
8
0
10
17.4427508697025
20
-58.38774998531363
11
18.195542189644943
21
-59.49279906039706
0
LINE
8
0
10
18.195542189644943
20
-59.49279906039706
11
19.219412828862335
21
-60.78385205392762
0
LINE
8
0
10
19.219412828862335
20
-60.78385205392762
11
19.21941282886233
21
-60.783852053927625
0
LINE
8
0
10
19.21941282886233
20
-60.783852053927625
11
19.699833391402887
21
-60.629852913816045
0
LINE
8
0
10
19.699833391402887
20
-60.629852913816045
11
20.17902021436868
21
-60.472056713726055
0
LINE
8
0
10
20.17902021436868
20
-60.472056713726055
11
20.179020214368673
21
-60.47205671372605
0
LINE
8
0
10
20.179020214368673
20
-60.47205671372605
11
20.24848705201177
21
-58.825756839333934
0
LINE
8
0
10
20.24848705201177
20
-58.825756839333934
11
20.207976473669678
21
-57.48927372205716
0
LINE
8
0
10
20.207976473669678
20
-57.48927372205716
11
20.207976473669685
21
-57.48927372205716
0
LINE
8
0
10
20.207976473669685
20
-57.48927372205716
11
20.64184201494742
21
-57.33492185814812
0
LINE
8
0
10
20.64184201494742
20
-57.33492185814812
11
21.074528741004055
21
-57.177295709001434
0
LINE
8
0
10
21.074528741004055
20
-57.177295709001434
11
21.07452874100406
21
-57.17729570900143
0
LINE
8
0
10
21.07452874100406
20
-57.17729570900143
11
21.89522120476539
21
-58.232896064083256
0
LINE
8
0
10
21.89522120476539
20
-58.232896064083256
11
22.998137357360847
21
-59.457112090076855
0
LINE
8
0
10
22.998137357360847
20
-59.457112090076855
11
22.998137357360893
21
-59.45711209007684
0
LINE
8
0
10
22.998137357360893
20
-59.45711209007684
11
23.46794023364824
21
-59.273250975376016
0
LINE
8
0
10
23.46794023364824
20
-59.273250975376016
11
23.93627338549533
21
-59.085677760476166
0
LINE
8
0
10
23.93627338549533
20
-59.085677760476166
11
23.93627338549532
21
-59.085677760476166
0
LINE
8
0
10
23.93627338549532
20
-59.085677760476166
11
23.902231121788397
21
-57.43826462399905
0
LINE
8
0
10
23.902231121788397
20
-57.43826462399905
11
23.777882012542932
21
-56.10696243112424
0
LINE
8
0
10
23.777882012542932
20
-56.10696243112424
11
23.77788201254294
21
-56.10696243112424
0
LINE
8
0
10
23.77788201254294
20
-56.10696243112424
11
24.20119958555695
21
-55.925672502617594
0
LINE
8
0
10
24.20119958555695
20
-55.925672502617594
11
24.623135075401265
21
-55.74118876834745
0
LINE
8
0
10
24.623135075401265
20
-55.74118876834745
11
24.62313507540122
21
-55.74118876834746
0
LINE
8
0
10
24.62313507540122
20
-55.74118876834746
11
25.508489784765597
21
-56.74317443108413
0
LINE
8
0
10
25.508489784765597
20
-56.74317443108413
11
26.68609874455938
21
-57.89572206817725
0
LINE
8
0
10
26.68609874455938
20
-57.89572206817725
11
26.686098744559427
21
-57.89572206817723
0
LINE
8
0
10
26.686098744559427
20
-57.89572206817723
11
27.143429837273377
21
-57.682724594708745
0
LINE
8
0
10
27.143429837273377
20
-57.682724594708745
11
27.599061021012485
21
-57.46611463078419
0
LINE
8
0
10
27.599061021012485
20
-57.46611463078419
11
27.599061021012478
21
-57.4661146307842
0
LINE
8
0
10
27.599061021012478
20
-57.4661146307842
11
27.461644005217952
21
-55.82408981924029
0
LINE
8
0
10
27.461644005217952
20
-55.82408981924029
11
27.253947114193604
21
-54.50322259230859
0
LINE
8
0
10
27.253947114193604
20
-54.50322259230859
11
27.25394711419361
21
-54.50322259230859
0
LINE
8
0
10
27.25394711419361
20
-54.50322259230859
11
27.665046077878625
21
-54.29571006772867
0
LINE
8
0
10
27.665046077878625
20
-54.29571006772867
11
28.074565144896194
21
-54.08509682135163
0
LINE
8
0
10
28.074565144896194
20
-54.08509682135163
11
28.074565144896248
21
-54.08509682135159
0
LINE
8
0
10
28.074565144896248
20
-54.08509682135159
11
29.021088009305796
21
-55.02951341209604
0
LINE
8
0
10
29.021088009305796
20
-55.02951341209604
11
30.268742291732064
21
-56.10584408131395
0
LINE
8
0
10
30.268742291732064
20
-56.10584408131395
11
30.268742291732064
21
-56.10584408131395
0
LINE
8
0
10
30.268742291732064
20
-56.10584408131395
11
30.711796723984378
21
-55.86455085279629
0
LINE
8
0
10
30.711796723984378
20
-55.86455085279629
11
31.152927771491367
21
-55.61975900041497
0
LINE
8
0
10
31.152927771491367
20
-55.61975900041497
11
31.15292777149136
21
-55.619759000414966
0
LINE
8
0
10
31.15292777149136
20
-55.619759000414966
11
30.912678325790704
21
-53.98960283556567
0
LINE
8
0
10
30.912678325790704
20
-53.98960283556567
11
30.622453337728675
21
-52.68438343407494
0
LINE
8
0
10
30.622453337728675
20
-52.68438343407494
11
30.62245333772868
21
-52.68438343407494
0
LINE
8
0
10
30.62245333772868
20
-52.68438343407494
11
31.019711272288266
21
-52.451467270552804
0
LINE
8
0
10
31.019711272288266
20
-52.451467270552804
11
31.415197731813045
21
-52.215555706332275
0
LINE
8
0
10
31.415197731813045
20
-52.215555706332275
11
31.415197731813045
21
-52.21555570633227
0
LINE
8
0
10
31.415197731813045
20
-52.21555570633227
11
32.41915325794721
21
-53.09867604426368
0
LINE
8
0
10
32.41915325794721
20
-53.09867604426368
11
33.731928941552155
21
-54.09454196018371
0
LINE
8
0
10
33.731928941552155
20
-54.09454196018371
11
33.73192894155215
21
-54.09454196018371
0
LINE
8
0
10
33.73192894155215
20
-54.09454196018371
11
34.158958179911046
21
-53.82590525075345
0
LINE
8
0
10
34.158958179911046
20
-53.82590525075345
11
34.58384814847501
21
-53.55389759152196
0
LINE
8
0
10
34.58384814847501
20
-53.55389759152196
11
34.58384814847501
21
-53.55389759152196
0
LINE
8
0
10
34.58384814847501
20
-53.55389759152196
11
34.24171442767088
21
-51.94204355500241
0
LINE
8
0
10
34.24171442767088
20
-51.94204355500241
11
33.870106728007855
21
-50.65762308363231
0
LINE
8
0
10
33.870106728007855
20
-50.65762308363231
11
33.870106728007855
21
-50.65762308363231
0
LINE
8
0
10
33.870106728007855
20
-50.65762308363231
11
34.25195583786421
21
-50.40022249485611
0
LINE
8
0
10
34.25195583786421
20
-50.40022249485611
11
34.631848885521016
21
-50.139943647958326
0
LINE
8
0
10
34.631848885521016
20
-50.139943647958326
11
34.63184888552111
21
-50.139943647958255
0
LINE
8
0
10
34.63184888552111
20
-50.139943647958255
11
35.689274919581806
21
-50.95828246056218
0
LINE
8
0
10
35.689274919581806
20
-50.95828246056218
11
37.061991078492476
21
-51.86975339538202
0
LINE
8
0
10
37.061991078492476
20
-51.86975339538202
11
37.061991078492426
21
-51.869753395382055
0
LINE
8
0
10
37.061991078492426
20
-51.869753395382055
11
37.4713098336452
21
-51.57483339140287
0
LINE
8
0
10
37.4713098336452
20
-51.57483339140287
11
37.87828187667399
21
-51.2766834152837
0
LINE
8
0
10
37.87828187667399
20
-51.2766834152837
11
37.87828187667398
21
-51.2766834152837
0
LINE
8
0
10
37.87828187667398
20
-51.2766834152837
11
37.43561412625637
21
-49.689492758589985
0
LINE
8
0
10
37.43561412625637
20
-49.689492758589985
11
36.9840902808115
21
-48.43094023814511
0
LINE
8
0
10
36.9840902808115
20
-48.43094023814511
11
36.98409028081151
21
-48.43094023814512
0
LINE
8
0
10
36.98409028081151
20
-48.43094023814512
11
37.34902358197828
21
-48.15007106664361
0
LINE
8
0
10
37.34902358197828
20
-48.15007106664361
11
37.711823953464645
21
-47.866452138767194
0
LINE
8
0
10
37.711823953464645
20
-47.866452138767194
11
37.711823953464695
21
-47.86645213876715
0
LINE
8
0
10
37.711823953464695
20
-47.86645213876715
11
38.81854731798758
21
-48.61677981661363
0
LINE
8
0
10
38.81854731798758
20
-48.61677981661363
11
40.24578646865901
21
-49.44025861096503
0
LINE
8
0
10
40.24578646865901
20
-49.44025861096503
11
40.24578646865897
21
-49.440258610965074
0
LINE
8
0
10
40.24578646865897
20
-49.440258610965074
11
40.635779346478984
21
-49.12021922695655
0
LINE
8
0
10
40.635779346478984
20
-49.12021922695655
11
41.0232273312466
21
-48.797103595693684
0
LINE
8
0
10
41.0232273312466
20
-48.797103595693684
11
41.023227331246595
21
-48.797103595693684
0
LINE
8
0
10
41.023227331246595
20
-48.797103595693684
11
40.48177255859073
21
-47.24084023522932
0
LINE
8
0
10
40.48177255859073
20
-47.24084023522932
11
39.95211452570038
21
-46.013122597529936
0
LINE
8
0
10
39.95211452570038
20
-46.013122597529936
11
39.95211452570039
21
-46.013122597529936
0
LINE
8
0
10
39.95211452570039
20
-46.013122597529936
11
40.29869179316004
21
-45.70989330560612
0
LINE
8
0
10
40.29869179316004
20
-45.70989330560612
11
40.64296768115744
21
-45.404053611086226
0
LINE
8
0
10
40.64296768115744
20
-45.404053611086226
11
40.64296768115748
21
-45.404053611086184
0
LINE
8
0
10
40.64296768115748
20
-45.404053611086184
11
41.79462064463658
21
-46.08340895362287
0
LINE
8
0
10
41.79462064463658
20
-46.08340895362287
11
43.27075012618465
21
-46.815645712916215
0
LINE
8
0
10
43.27075012618465
20
-46.815645712916215
11
43.2707501261846
21
-46.815645712916265
0
LINE
8
0
10
43.2707501261846
20
-46.815645712916265
11
43.6398780029539
21
-46.47174999811499
0
LINE
8
0
10
43.6398780029539
20
-46.47174999811499
11
44.00627284927263
21
-46.124943901487526
0
LINE
8
0
10
44.00627284927263
20
-46.124943901487526
11
44.00627284927261
21
-46.124943901487526
0
LINE
8
0
10
44.00627284927261
20
-46.124943901487526
11
43.36816792899901
21
-44.60574969774718
0
LINE
8
0
10
43.36816792899901
20
-44.60574969774718
11
42.76246602694125
21
-43.41371218341844
0
LINE
8
0
10
42.76246602694125
20
-43.41371218341844
11
42.76246602694127
21
-43.41371218341843
0
LINE
8
0
10
42.76246602694127
20
-43.41371218341843
11
43.08931947855523
21
-43.08931947855525
0
LINE
8
0
10
43.08931947855523
20
-43.08931947855525
11
43.41371218341842
21
-42.762466026941276
0
LINE
8
0
10
43.41371218341842
20
-42.762466026941276
11
43.41371218341846
21
-42.76246602694124
0
LINE
8
0
10
43.41371218341846
20
-42.76246602694124
11
44.6057496977472
21
-43.368167928998986
0
LINE
8
0
10
44.6057496977472
20
-43.368167928998986
11
46.124943901487555
21
-44.0062728492726
0
LINE
8
0
10
46.124943901487555
20
-44.0062728492726
11
46.12494390148755
21
-44.006272849272605
0
LINE
8
0
10
46.12494390148755
20
-44.006272849272605
11
46.47174999811501
21
-43.63987800295388
0
LINE
8
0
10
46.47174999811501
20
-43.63987800295388
11
46.815645712916286
21
-43.27075012618458
0
LINE
8
0
10
46.815645712916286
20
-43.27075012618458
11
46.815645712916286
21
-43.27075012618459
0
LINE
8
0
10
46.815645712916286
20
-43.27075012618459
11
46.08340895362285
21
-41.7946206446366
0
LINE
8
0
10
46.08340895362285
20
-41.7946206446366
11
45.40405361108624
21
-40.642967681157415
0
LINE
8
0
10
45.40405361108624
20
-40.642967681157415
11
45.40405361108624
21
-40.642967681157415
0
LINE
8
0
10
45.40405361108624
20
-40.642967681157415
11
45.70989330560614
21
-40.29869179316002
0
LINE
8
0
10
45.70989330560614
20
-40.29869179316002
11
46.01312259752996
21
-39.95211452570037
0
LINE
8
0
10
46.01312259752996
20
-39.95211452570037
11
46.01312259752996
21
-39.95211452570036
0
LINE
8
0
10
46.01312259752996
20
-39.95211452570036
11
47.240840235229335
21
-40.481772558590706
0
LINE
8
0
10
47.240840235229335
20
-40.481772558590706
11
48.797103595693706
21
-41.02322733124658
0
LINE
8
0
10
48.797103595693706
20
-41.02322733124658
11
48.7971035956937
21
-41.02322733124658
0
LINE
8
0
10
48.7971035956937
20
-41.02322733124658
11
49.12021922695657
21
-40.63577934647896
0
LINE
8
0
10
49.12021922695657
20
-40.63577934647896
11
49.440258610965095
21
-40.24578646865895
0
LINE
8
0
10
49.440258610965095
20
-40.24578646865895
11
49.44025861096509
21
-40.24578646865895
0
LINE
8
0
10
49.44025861096509
20
-40.24578646865895
11
48.616779816613615
21
-38.81854731798759
0
LINE
8
0
10
48.616779816613615
20
-38.81854731798759
11
47.8664521387672
21
-37.71182395346463
0
LINE
8
0
10
47.8664521387672
20
-37.71182395346463
11
47.86645213876721
21
-37.71182395346463
0
LINE
8
0
10
47.86645213876721
20
-37.71182395346463
11
48.150071066643626
21
-37.34902358197825
0
LINE
8
0
10
48.150071066643626
20
-37.34902358197825
11
48.43094023814513
21
-36.984090280811486
0
LINE
8
0
10
48.43094023814513
20
-36.984090280811486
11
48.430940238145126
21
-36.98409028081148
0
LINE
8
0
10
48.430940238145126
20
-36.98409028081148
11
49.68949275859006
21
-37.435614126256255
0
LINE
8
0
10
49.68949275859006
20
-37.435614126256255
11
51.27668341528372
21
-37.87828187667396
0
LINE
8
0
10
51.27668341528372
20
-37.87828187667396
11
51.27668341528375
21
-37.878281876673924
0
LINE
8
0
10
51.27668341528375
20
-37.878281876673924
11
51.57483339140292
21
-37.47130983364513
0
LINE
8
0
10
51.57483339140292
20
-37.47130983364513
11
51.869753395382105
21
-37.06199107849236
0
LINE
8
0
10
51.869753395382105
20
-37.06199107849236
11
51.8697533953821
21
-37.061991078492355
0
LINE
8
0
10
51.8697533953821
20
-37.061991078492355
11
50.95828246056221
21
-35.68927491958178
0
LINE
8
0
10
50.95828246056221
20
-35.68927491958178
11
50.13994364795834
21
-34.631848885520995
0
LINE
8
0
10
50.13994364795834
20
-34.631848885520995
11
50.13994364795834
21
-34.631848885520995
0
LINE
8
0
10
50.13994364795834
20
-34.631848885520995
11
50.40022249485612
21
-34.25195583786419
0
LINE
8
0
10
50.40022249485612
20
-34.25195583786419
11
50.65762308363232
21
-33.87010672800783
0
LINE
8
0
10
50.65762308363232
20
-33.87010672800783
11
50.657623083632295
21
-33.87010672800787
0
LINE
8
0
10
50.657623083632295
20
-33.87010672800787
11
51.94204355500245
21
-34.24171442767081
0
LINE
8
0
10
51.94204355500245
20
-34.24171442767081
11
53.553897591521945
21
-34.58384814847503
0
LINE
8
0
10
53.553897591521945
20
-34.58384814847503
11
53.553897591521974
21
-34.583848148474985
0
LINE
8
0
10
53.553897591521974
20
-34.583848148474985
11
53.82590525075347
21
-34.15895817991102
0
LINE
8
0
10
53.82590525075347
20
-34.15895817991102
11
54.094541960183726
21
-33.73192894155213
0
LINE
8
0
10
54.094541960183726
20
-33.73192894155213
11
54.094541960183726
21
-33.73192894155213
0
LINE
8
0
10
54.094541960183726
20
-33.73192894155213
11
53.09867604426369
21
-32.419153257947194
0
LINE
8
0
10
53.09867604426369
20
-32.419153257947194
11
52.21555570633229
21
-31.41519773181302
0
LINE
8
0
10
52.21555570633229
20
-31.41519773181302
11
52.21555570633229
21
-31.415197731813016
0
LINE
8
0
10
52.21555570633229
20
-31.415197731813016
11
52.451467270552826
21
-31.019711272288244
0
LINE
8
0
10
52.451467270552826
20
-31.019711272288244
11
52.68438343407495
21
-30.622453337728654
0
LINE
8
0
10
52.68438343407495
20
-30.622453337728654
11
52.684383434074924
21
-30.622453337728697
0
LINE
8
0
10
52.684383434074924
20
-30.622453337728697
11
53.989602835565705
21
-30.91267832579064
0
LINE
8
0
10
53.989602835565705
20
-30.91267832579064
11
55.61975900041495
21
-31.152927771491385
0
LINE
8
0
10
55.61975900041495
20
-31.152927771491385
11
55.61975900041499
21
-31.152927771491342
0
LINE
8
0
10
55.61975900041499
20
-31.152927771491342
11
55.864550852796306
21
-30.711796723984353
0
LINE
8
0
10
55.864550852796306
20
-30.711796723984353
11
56.10584408131396
21
-30.268742291732035
0
LINE
8
0
10
56.10584408131396
20
-30.268742291732035
11
56.105844081313954
21
-30.268742291732043
0
LINE
8
0
10
56.105844081313954
20
-30.268742291732043
11
55.02951341209605
21
-29.021088009305775
0
LINE
8
0
10
55.02951341209605
20
-29.021088009305775
11
54.085096821351605
21
-28.07456514489622
0
LINE
8
0
10
54.085096821351605
20
-28.07456514489622
11
54.08509682135161
21
-28.074565144896212
0
LINE
8
0
10
54.08509682135161
20
-28.074565144896212
11
54.29571006772866
21
-27.665046077878642
0
LINE
8
0
10
54.29571006772866
20
-27.665046077878642
11
54.503222592308575
21
-27.253947114193636
0
LINE
8
0
10
54.503222592308575
20
-27.253947114193636
11
54.5032225923086
21
-27.253947114193583
0
LINE
8
0
10
54.5032225923086
20
-27.253947114193583
11
55.82408981924031
21
-27.46164400521792
0
LINE
8
0
10
55.82408981924031
20
-27.46164400521792
11
57.466114630784205
21
-27.599061021012453
0
LINE
8
0
10
57.466114630784205
20
-27.599061021012453
11
57.466114630784205
21
-27.59906102101246
0
LINE
8
0
10
57.466114630784205
20
-27.59906102101246
11
57.68272459470875
21
-27.143429837273352
0
LINE
8
0
10
57.68272459470875
20
-27.143429837273352
11
57.895722068177236
21
-26.686098744559402
0
LINE
8
0
10
57.895722068177236
20
-26.686098744559402
11
57.895722068177236
21
-26.68609874455941
0
LINE
8
0
10
57.895722068177236
20
-26.68609874455941
11
56.74317443108417
21
-25.508489784765516
0
LINE
8
0
10
56.74317443108417
20
-25.508489784765516
11
55.74118876834745
21
-24.623135075401247
0
LINE
8
0
10
55.74118876834745
20
-24.623135075401247
11
55.74118876834746
21
-24.62313507540124
0
LINE
8
0
10
55.74118876834746
20
-24.62313507540124
11
55.92567250261761
21
-24.201199585556928
0
LINE
8
0
10
55.92567250261761
20
-24.201199585556928
11
56.10696243112425
21
-23.77788201254291
0
LINE
8
0
10
56.10696243112425
20
-23.77788201254291
11
56.106962431124245
21
-23.777882012542907
0
LINE
8
0
10
56.106962431124245
20
-23.777882012542907
11
57.43826462399907
21
-23.902231121788372
0
LINE
8
0
10
57.43826462399907
20
-23.902231121788372
11
59.08567776047618
21
-23.936273385495294
0
LINE
8
0
10
59.08567776047618
20
-23.936273385495294
11
59.08567776047617
21
-23.9362733854953
0
LINE
8
0
10
59.08567776047617
20
-23.9362733854953
11
59.27325097537603
21
-23.467940233648214
0
LINE
8
0
10
59.27325097537603
20
-23.467940233648214
11
59.45711209007685
21
-22.998137357360864
0
LINE
8
0
10
59.45711209007685
20
-22.998137357360864
11
59.45711209007684
21
-22.998137357360875
0
LINE
8
0
10
59.45711209007684
20
-22.998137357360875
11
58.23289606408328
21
-21.89522120476531
0
LINE
8
0
10
58.23289606408328
20
-21.89522120476531
11
57.17729570900142
21
-21.074528741004077
0
LINE
8
0
10
57.17729570900142
20
-21.074528741004077
11
57.17729570900143
21
-21.074528741004077
0
LINE
8
0
10
57.17729570900143
20
-21.074528741004077
11
57.334921858148114
21
-20.641842014947446
0
LINE
8
0
10
57.334921858148114
20
-20.641842014947446
11
57.489273722057156
21
-20.20797647366971
0
LINE
8
0
10
57.489273722057156
20
-20.20797647366971
11
57.489273722057185
21
-20.2079764736696
0
LINE
8
0
10
57.489273722057185
20
-20.2079764736696
11
58.82575683933392
21
-20.2484870520118
0
LINE
8
0
10
58.82575683933392
20
-20.2484870520118
11
60.472056713726076
21
-20.17902021436859
0
LINE
8
0
10
60.472056713726076
20
-20.17902021436859
11
60.47205671372606
21
-20.179020214368656
0
LINE
8
0
10
60.47205671372606
20
-20.179020214368656
11
60.62985291381605
21
-19.69983339140286
0
LINE
8
0
10
60.62985291381605
20
-19.69983339140286
11
60.78385205392764
21
-19.2194128288623
0
LINE
8
0
10
60.78385205392764
20
-19.2194128288623
11
60.78385205392763
21
-19.219412828862307
0
LINE
8
0
10
60.78385205392763
20
-19.219412828862307
11
59.492799060397076
21
-18.195542189644915
0
LINE
8
0
10
59.492799060397076
20
-18.195542189644915
11
58.38774998531364
21
-17.442750869702476
0
LINE
8
0
10
58.38774998531364
20
-17.442750869702476
11
58.38774998531365
21
-17.442750869702472
0
LINE
8
0
10
58.38774998531365
20
-17.442750869702472
11
58.51789647093872
21
-17.001020524265503
0
LINE
8
0
10
58.51789647093872
20
-17.001020524265503
11
58.644701113959975
21
-16.558319283801158
0
LINE
8
0
10
58.644701113959975
20
-16.558319283801158
11
58.64470111395999
21
-16.5583192838011
0
LINE
8
0
10
58.64470111395999
20
-16.5583192838011
11
59.98109066735584
21
-16.51483145449474
0
LINE
8
0
10
59.98109066735584
20
-16.51483145449474
11
61.619780086181656
21
-16.34212966937331
0
LINE
8
0
10
61.619780086181656
20
-16.34212966937331
11
61.619780086181635
21
-16.342129669373367
0
LINE
8
0
10
61.619780086181635
20
-16.342129669373367
11
61.74717652195024
21
-15.853980306759473
0
LINE
8
0
10
61.74717652195024
20
-15.853980306759473
11
61.87070592322208
21
-15.364838058442778
0
LINE
8
0
10
61.87070592322208
20
-15.364838058442778
11
61.87070592322208
21
-15.364838058442787
0
LINE
8
0
10
61.87070592322208
20
-15.364838058442787
11
60.517911158493966
21
-14.424053682254545
0
LINE
8
0
10
60.517911158493966
20
-14.424053682254545
11
59.367774487259425
21
-13.742134429553065
0
LINE
8
0
10
59.367774487259425
20
-13.742134429553065
11
59.36777448725944
21
-13.742134429553062
0
LINE
8
0
10
59.36777448725944
20
-13.742134429553062
11
59.46992768064242
21
-13.293103772601803
0
LINE
8
0
10
59.46992768064242
20
-13.293103772601803
11
59.56868466278141
21
-12.843313972496
0
LINE
8
0
10
59.56868466278141
20
-12.843313972496
11
59.56868466278141
21
-12.843313972495942
0
LINE
8
0
10
59.56868466278141
20
-12.843313972495942
11
60.89970653326745
21
-12.715999362135594
0
LINE
8
0
10
60.89970653326745
20
-12.715999362135594
11
62.524318338036785
21
-12.440744204581868
0
LINE
8
0
10
62.524318338036785
20
-12.440744204581868
11
62.52431833803677
21
-12.44074420458193
0
LINE
8
0
10
62.52431833803677
20
-12.44074420458193
11
62.620812233953906
21
-11.94555880483995
0
LINE
8
0
10
62.620812233953906
20
-11.94555880483995
11
62.713384382274405
21
-11.449625291733383
0
LINE
8
0
10
62.713384382274405
20
-11.449625291733383
11
62.71338438227439
21
-11.449625291733392
0
LINE
8
0
10
62.71338438227439
20
-11.449625291733392
11
61.304186709252
21
-10.595640024703624
0
LINE
8
0
10
61.304186709252
20
-10.595640024703624
11
60.11350150586023
21
-9.987284062994243
0
LINE
8
0
10
60.11350150586023
20
-9.987284062994243
11
60.11350150586024
21
-9.98728406299424
0
LINE
8
0
10
60.11350150586024
20
-9.98728406299424
11
60.187258255016204
21
-9.532725213389083
0
LINE
8
0
10
60.187258255016204
20
-9.532725213389083
11
60.257577827582196
21
-9.077621968493427
0
LINE
8
0
10
60.257577827582196
20
-9.077621968493427
11
60.25757782758221
21
-9.07762196849337
0
LINE
8
0
10
60.25757782758221
20
-9.07762196849337
11
61.57797907992167
21
-8.866983029681505
0
LINE
8
0
10
61.57797907992167
20
-8.866983029681505
11
63.182101670055616
21
-8.490260806050339
0
LINE
8
0
10
63.182101670055616
20
-8.490260806050339
11
63.18210167005562
21
-8.490260806050346
0
LINE
8
0
10
63.18210167005562
20
-8.490260806050346
11
63.247312208797965
21
-7.989993639724366
0
LINE
8
0
10
63.247312208797965
20
-7.989993639724366
11
63.30856176418989
21
-7.4892260848336925
0
LINE
8
0
10
63.30856176418989
20
-7.4892260848336925
11
63.30856176418989
21
-7.489226084833701
0
LINE
8
0
10
63.30856176418989
20
-7.489226084833701
11
61.848522642287435
21
-6.7254102166626115
0
LINE
8
0
10
61.848522642287435
20
-6.7254102166626115
11
60.62198799726391
21
-6.1930184489948
0
LINE
8
0
10
60.62198799726391
20
-6.1930184489948
11
60.621987997263915
21
-6.193018448994798
0
LINE
8
0
10
60.621987997263915
20
-6.193018448994798
11
60.66705721800019
21
-5.734725342846949
0
LINE
8
0
10
60.66705721800019
20
-5.734725342846949
11
60.708661861766224
21
-5.276104737752148
0
LINE
8
0
10
60.708661861766224
20
-5.276104737752148
11
60.708661861766224
21
-5.276104737752142
0
LINE
8
0
10
60.708661861766224
20
-5.276104737752142
11
62.01323147545007
21
-4.9829727661485865
0
LINE
8
0
10
62.01323147545007
20
-4.9829727661485865
11
63.59053411193931
21
-4.506270226948531
0
LINE
8
0
10
63.59053411193931
20
-4.506270226948531
11
63.59053411193931
21
-4.506270226948539
0
LINE
8
0
10
63.59053411193931
20
-4.506270226948539
11
63.62420393730231
21
-4.002895619993721
0
LINE
8
0
10
63.62420393730231
20
-4.002895619993721
11
63.653889175752795
21
-3.499270324079158
0
LINE
8
0
10
63.653889175752795
20
-3.499270324079158
11
63.65388917575279
21
-3.499270324079165
0
LINE
8
0
10
63.65388917575279
20
-3.499270324079165
11
62.148770712356
21
-2.8286382870441513
0
LINE
8
0
10
62.148770712356
20
-2.8286382870441513
11
60.89122719759425
21
-2.374311820498231
0
LINE
8
0
10
60.89122719759425
20
-2.374311820498231
11
60.891227197594255
21
-2.3743118204982276
0
LINE
8
0
10
60.891227197594255
20
-2.3743118204982276
11
60.90743102228677
21
-1.914093131323447
0
LINE
8
0
10
60.90743102228677
20
-1.914093131323447
11
60.920156542731256
21
-1.4537651320339882
0
LINE
8
0
10
-2.82842712474619
20
-2.82842712474619
11
2.82842712474619
21
-2.82842712474619
0
LINE
8
0
10
2.82842712474619
20
-2.82842712474619
11
2.82842712474619
21
2.82842712474619
0
LINE
8
0
10
2.82842712474619
20
2.82842712474619
11
-2.82842712474619
21
2.82842712474619
0
LINE
8
0
10
-2.82842712474619
20
2.82842712474619
11
-2.82842712474619
21
-2.82842712474619
0
ENDSEC
0
EOF