0
SECTION
2
HEADER
9
$INSUNITS
70
4
9
$ACADVER
1
AC1014
9
$HANDSEED
5
FFFF
0
ENDSEC
0
SECTION
2
TABLES
0
TABLE
2
VPORT
5
8
100
AcDbSymbolTable
0
ENDTAB
0
TABLE
2
LTYPE
5
5
100
AcDbSymbolTable
0
LTYPE
5
14
100
AcDbSymbolTableRecord
100
AcDbLinetypeTableRecord
2
BYBLOCK
70
0
0
LTYPE
5
15
100
AcDbSymbolTableRecord
100
AcDbLinetypeTableRecord
2
BYLAYER
70
0
0
LTYPE
5
16
100
AcDbSymbolTableRecord
100
AcDbLinetypeTableRecord
2
DASHED
70
0
3
Dashed __ __ __ __ __ __ __ __ __ __ __ __ __ _
72
65
73
2
40
0.75
49
0.5
74
0
49
-0.25
74
0
0
ENDTAB
0
TABLE
2
LAYER
5
2
100
AcDbSymbolTable
70
3
0
LAYER
5
50
100
AcDbSymbolTableRecord
100
AcDbLayerTableRecord
2
1
70
0
62
7
6
DASHED
0
LAYER
5
51
100
AcDbSymbolTableRecord
100
AcDbLayerTableRecord
2
0
70
0
62
7
6
CONTINUOUS
0
ENDTAB
0
TABLE
2
STYLE
5
3
100
AcDbSymbolTable
70
1
0
STYLE
5
11
100
AcDbSymbolTableRecord
100
AcDbTextStyleTableRecord
2
STANDARD
70
0
0
ENDTAB
0
TABLE
2
VIEW
5
6
100
AcDbSymbolTable
70
0
0
ENDTAB
0
TABLE
2
UCS
5
7
100
AcDbSymbolTable
70
0
0
ENDTAB
0
TABLE
2
APPID
5
9
100
AcDbSymbolTable
70
2
0
APPID
5
12
100
AcDbSymbolTableRecord
100
AcDbRegAppTableRecord
2
ACAD
70
0
0
ENDTAB
0
TABLE
2
DIMSTYLE
5
A
100
AcDbSymbolTable
70
1
0
ENDTAB
0
TABLE
2
BLOCK_RECORD
5
1
100
AcDbSymbolTable
70
1
0
BLOCK_RECORD
5
1F
100
AcDbSymbolTableRecord
100
AcDbBlockTableRecord
2
*MODEL_SPACE
0
BLOCK_RECORD
5
1B
100
AcDbSymbolTableRecord
100
AcDbBlockTableRecord
2
*PAPER_SPACE
0
ENDTAB
0
ENDSEC
0
SECTION
2
BLOCKS
0
BLOCK
5
20
100
AcDbEntity
100
AcDbBlockBegin
2
*MODEL_SPACE
0
ENDBLK
5
21
100
AcDbEntity
100
AcDbBlockEnd
0
BLOCK
5
1C
100
AcDbEntity
100
AcDbBlockBegin
2
*PAPER_SPACE
0
ENDBLK
5
1D
100
AcDbEntity
100
AcDbBlockEnd
0
ENDSEC
0
SECTION
2
ENTITIES
0
LINE
5
100
100
AcDbEntity
8
0
100
AcDbLine
10
-2.4748737341529119
20
52.675883860929638
30
0
11
-9.8847051535518773
21
0.80706392513694603
31
0
0
LINE
5
101
100
AcDbEntity
8
0
100
AcDbLine
10
-10.815257677593371
20
1.5543122344752192e-14
30
0
11
-15.678383704192028
21
2.4980018054066022e-15
31
0
0
LINE
5
102
100
AcDbEntity
8
0
100
AcDbLine
10
-16.618383704192023
20
-0.94000000000000072
30
0
11
-16.618383704192009
21
-5.1634287196627424
31
0
0
LINE
5
103
100
AcDbEntity
8
0
100
AcDbLine
10
-17.617834355255063
20
-6.1015468465999545
30
0
11
-34.119450651063055
21
-5.0558023884032188
31
0
0
LINE
5
104
100
AcDbEntity
8
0
100
AcDbLine
10
-35.000000000000007
20
-4.1176842614660085
30
0
11
-35.000000000000007
21
-4.0224421386807769
31
0
0
LINE
5
105
100
AcDbEntity
8
0
100
AcDbLine
10
-34.060000000000002
20
-3.0824421386807801
30
0
11
-30.908377053382303
21
-3.082442138680781
31
0
0
LINE
5
106
100
AcDbEntity
8
0
100
AcDbLine
10
-29.968480101255718
20
-2.1285238276067608
30
0
11
-29.986286270003045
21
-0.92608168892598219
31
0
0
LINE
5
107
100
AcDbEntity
8
0
100
AcDbLine
10
-47.174766644157998
20
-0.94000000000000039
30
0
11
-47.174766644157998
21
-2.1424421386807815
31
0
0
LINE
5
108
100
AcDbEntity
8
0
100
AcDbLine
10
-46.234766644158
20
-3.0824421386807774
30
0
11
-44.362228388372728
21
-3.0824421386807801
31
0
0
LINE
5
109
100
AcDbEntity
8
0
100
AcDbLine
10
-43.422228388372723
20
-4.0224421386807796
30
0
11
-43.422228388372723
21
-8.3091918520960046
31
0
0
LINE
5
110
100
AcDbEntity
8
0
100
AcDbLine
10
-43.422228388372723
20
0.93999999999999984
30
0
11
-43.422228388372723
21
59.395176618996224
31
0
0
LINE
5
111
100
AcDbEntity
8
0
100
AcDbLine
10
-42.981835097479298
20
60.414566124454097
30
0
11
-40.287884143386762
21
62.950528478108211
31
0
0
LINE
5
112
100
AcDbEntity
8
0
100
AcDbLine
10
-38.405640758979793
20
62.984106951931118
30
0
11
-35.477363324699603
21
60.418277591985294
31
0
0
LINE
5
113
100
AcDbEntity
8
0
100
AcDbLine
10
-35
20
59.365309612704522
30
0
11
-35
21
1.3999999999999968
31
0
0
LINE
5
114
100
AcDbEntity
8
0
100
AcDbLine
10
-43.422228388372723
20
-8.3091918520960046
30
0
11
-43.422228388372723
21
-29.059999999999995
31
0
0
LINE
5
115
100
AcDbEntity
8
0
100
AcDbLine
10
-42.482228388372718
20
-30
30
0
11
-35.939999999999998
21
-30
31
0
0
LINE
5
116
100
AcDbEntity
8
0
100
AcDbLine
10
-35
20
-29.060000000000002
30
0
11
-35
21
-26.225212058225303
31
0
0
LINE
5
117
100
AcDbEntity
8
0
100
AcDbLine
10
-33.816581096618563
20
-25.317276357045657
30
0
11
-17.046926353968786
21
-29.813245578475627
31
0
0
LINE
5
118
100
AcDbEntity
8
0
100
AcDbLine
10
-16.350345257350227
20
-30.721181279655273
30
0
11
-16.350345257350178
21
-44.894574409948959
31
0
0
LINE
5
119
100
AcDbEntity
8
0
100
AcDbLine
10
-15.410345257350178
20
-45.834574409948956
30
0
11
-13.269768554723125
21
-45.834574409948956
31
0
0
LINE
5
120
100
AcDbEntity
8
0
100
AcDbLine
10
-12.329768554723126
20
-44.894574409948959
30
0
11
-12.329768554723124
21
-30.939999999999998
31
0
0
LINE
5
121
100
AcDbEntity
8
0
100
AcDbLine
10
-11.389768554723123
20
-30
30
0
11
-8.8377278322236048
21
-30
31
0
0
LINE
5
122
100
AcDbEntity
8
0
100
AcDbLine
10
-7.9104649699417369
20
-30.785780726778917
30
0
11
-6.5636111595158457
21
-38.883909405808488
31
0
0
LINE
5
123
100
AcDbEntity
8
0
100
AcDbLine
10
-5.6363482972339787
20
-39.669690132587405
30
0
11
0
21
-39.669690132587405
31
0
0
LINE
5
124
100
AcDbEntity
8
0
100
AcDbLine
10
-30.926183222129634
20
1.8041124150158794e-15
30
0
11
-33.600000000000001
21
2.7755575615628914e-15
31
0
0
LINE
5
125
100
AcDbEntity
8
0
100
AcDbLine
10
-44.362228388372728
20
-8.3266726846886741e-16
30
0
11
-46.234766644158
21
-3.7470027081099033e-15
31
0
0
LINE
5
126
100
AcDbEntity
8
0
100
AcDbLine
10
38.719876851618594
20
63.259448414802257
30
0
11
35.320515375155452
21
60.280843526047263
31
0
0
LINE
5
127
100
AcDbEntity
8
0
100
AcDbLine
10
43.12653575020142
20
60.278351540704904
30
0
11
39.983668838291841
21
63.236902868092606
31
0
0
LINE
5
128
100
AcDbEntity
8
0
100
AcDbLine
10
29.968480101255714
20
-2.1285238276067711
30
0
11
29.986286270003045
21
-0.92608168892598086
31
0
0
LINE
5
129
100
AcDbEntity
8
0
100
AcDbLine
10
12.329768554723124
20
-44.894574409948945
30
0
11
12.329768554723124
21
-30.939999999999998
31
0
0
LINE
5
130
100
AcDbEntity
8
0
100
AcDbLine
10
33.816581096618563
20
-25.317276357045657
30
0
11
17.046926353968786
21
-29.813245578475627
31
0
0
LINE
5
131
100
AcDbEntity
8
0
100
AcDbLine
10
17.617834355255063
20
-6.1015468465999572
30
0
11
34.119450651063062
21
-5.0558023884032188
31
0
0
LINE
5
132
100
AcDbEntity
8
0
100
AcDbLine
10
44.362228388372728
20
0
30
0
11
46.234766644158
21
0
31
0
0
LINE
5
133
100
AcDbEntity
8
0
100
AcDbLine
10
11.389768554723123
20
-30
30
0
11
8.8377278322236048
21
-30
31
0
0
LINE
5
134
100
AcDbEntity
8
0
100
AcDbLine
10
35
20
-29.060000000000002
30
0
11
34.999999999999993
21
-26.225212058225303
31
0
0
LINE
5
135
100
AcDbEntity
8
0
100
AcDbLine
10
43.422228388372723
20
-4.0224421386807894
30
0
11
43.422228388372723
21
-8.3091918520960029
31
0
0
LINE
5
136
100
AcDbEntity
8
0
100
AcDbLine
10
46.234766644158
20
-3.0824421386807899
30
0
11
44.362228388372728
21
-3.082442138680789
31
0
0
LINE
5
137
100
AcDbEntity
8
0
100
AcDbLine
10
41.522228388372717
20
-30
30
0
11
35.939999999999998
21
-30
31
0
0
LINE
5
138
100
AcDbEntity
8
0
100
AcDbLine
10
35
20
-4.1176842614660085
30
0
11
35
21
-4.0224421386807894
31
0
0
LINE
5
139
100
AcDbEntity
8
0
100
AcDbLine
10
16.350345257350227
20
-30.721181279655273
30
0
11
16.350345257350178
21
-44.894574409948945
31
0
0
LINE
5
140
100
AcDbEntity
8
0
100
AcDbLine
10
16.618383704192023
20
-0.94000000000000128
30
0
11
16.618383704192009
21
-5.1634287196627433
31
0
0
LINE
5
141
100
AcDbEntity
8
0
100
AcDbLine
10
5.6363482972339787
20
-39.669690132587405
30
0
11
0
21
-39.669690132587405
31
0
0
LINE
5
142
100
AcDbEntity
8
0
100
AcDbLine
10
10.815257677593371
20
1.5543122344752192e-14
30
0
11
15.678383704192028
21
2.3592239273284576e-15
31
0
0
LINE
5
143
100
AcDbEntity
8
0
100
AcDbLine
10
34.060000000000002
20
-3.0824421386807908
30
0
11
30.908377053382303
21
-3.082442138680789
31
0
0
LINE
5
144
100
AcDbEntity
8
0
100
AcDbLine
10
7.9104649699417369
20
-30.785780726778917
30
0
11
6.5636111595158457
21
-38.883909405808488
31
0
0
LINE
5
145
100
AcDbEntity
8
0
100
AcDbLine
10
30.926183222129634
20
1.6653345369377348e-15
30
0
11
34.060000000000002
21
4.163336342344337e-16
31
0
0
LINE
5
146
100
AcDbEntity
8
0
100
AcDbLine
10
47.174766644157998
20
-0.93999999999999972
30
0
11
47.174766644157998
21
-2.1424421386807904
31
0
0
LINE
5
147
100
AcDbEntity
8
0
100
AcDbLine
10
35
20
59.573850739958743
30
0
11
35
21
0.94000000000000294
31
0
0
LINE
5
148
100
AcDbEntity
8
0
100
AcDbLine
10
43.422228388372723
20
0.94000000000000017
30
0
11
43.42222838837273
21
59.593904301326042
31
0
0
LINE
5
149
100
AcDbEntity
8
0
100
AcDbLine
10
2.474873734152911
20
52.675883860929638
30
0
11
9.8847051535518791
21
0.80706392513694625
31
0
0
LINE
5
150
100
AcDbEntity
8
0
100
AcDbLine
10
15.410345257350178
20
-45.834574409948949
30
0
11
13.269768554723125
21
-45.834574409948956
31
0
0
ARC
5
151
100
AcDbEntity
8
0
100
AcDbCircle
10
-1.3877787807814457e-16
20
52.322330470336375
30
0
40
2.4999999999999938
210
0
220
-0
230
1
100
AcDbArc
50
8.1301023541556905
51
171.8698976458443
0
ARC
5
152
100
AcDbEntity
8
0
100
AcDbCircle
10
-39.328277434280182
20
61.931138972650324
30
0
40
1.4000000000000128
210
0
220
-0
230
1
100
AcDbArc
50
48.774352763219568
51
133.26969827959013
0
ARC
5
153
100
AcDbEntity
8
0
100
AcDbCircle
10
-42.022228388372717
20
59.395176618996224
30
0
40
1.4000000000000068
210
0
220
-0
230
1
100
AcDbArc
50
133.26969827959053
51
180
0
ARC
5
154
100
AcDbEntity
8
0
100
AcDbCircle
10
-36.400000000000027
20
59.365309612704507
30
0
40
1.4000000000000279
210
0
220
-0
230
1
100
AcDbArc
50
0
51
48.774352763218282
0
ARC
5
155
100
AcDbEntity
8
0
100
AcDbCircle
10
-33.600000000000001
20
1.4000000000000039
30
0
40
1.4000000000000012
210
0
220
0
230
1
100
AcDbArc
50
180
51
270
0
ARC
5
156
100
AcDbEntity
8
0
100
AcDbCircle
10
-44.362228388372728
20
0.94000000000000217
30
0
40
0.94000000000000306
210
-0
220
0
230
1
100
AcDbArc
50
270
51
360
0
ARC
5
157
100
AcDbEntity
8
0
100
AcDbCircle
10
-46.234766644158
20
-0.94000000000000683
30
0
40
0.94000000000000306
210
0
220
-0
230
1
100
AcDbArc
50
90
51
180
0
ARC
5
158
100
AcDbEntity
8
0
100
AcDbCircle
10
-46.234766644158
20
-2.1424421386807744
30
0
40
0.94000000000000306
210
0
220
0
230
1
100
AcDbArc
50
180
51
270
0
ARC
5
159
100
AcDbEntity
8
0
100
AcDbCircle
10
-44.362228388372728
20
-4.0224421386807832
30
0
40
0.94000000000000306
210
0
220
-0
230
1
100
AcDbArc
50
0
51
90
0
ARC
5
160
100
AcDbEntity
8
0
100
AcDbCircle
10
-42.482228388372718
20
-29.059999999999995
30
0
40
0.94000000000000306
210
0
220
0
230
1
100
AcDbArc
50
180
51
270
0
ARC
5
161
100
AcDbEntity
8
0
100
AcDbCircle
10
-35.939999999999991
20
-29.060000000000009
30
0
40
0.93999999999998973
210
0
220
0
230
1
100
AcDbArc
50
-90.000000000000398
51
0
0
ARC
5
162
100
AcDbEntity
8
0
100
AcDbCircle
10
-34.059999999999995
20
-26.225212058225303
30
0
40
0.94000000000000095
210
0
220
-0
230
1
100
AcDbArc
50
74.991859477225461
51
180
0
ARC
5
163
100
AcDbEntity
8
0
100
AcDbCircle
10
-34.060000000000002
20
-4.1176842614660094
30
0
40
0.94000000000000306
210
0
220
0
230
1
100
AcDbArc
50
180
51
266.37388688601504
0
ARC
5
164
100
AcDbEntity
8
0
100
AcDbCircle
10
-34.060000000000002
20
-4.0224421386807832
30
0
40
0.94000000000000306
210
0
220
-0
230
1
100
AcDbArc
50
90
51
180
0
ARC
5
165
100
AcDbEntity
8
0
100
AcDbCircle
10
-30.908377053382306
20
-2.1424421386807788
30
0
40
0.94000000000000195
210
0
220
0
230
1
100
AcDbArc
50
-89.999999999999801
51
0.84839321745733798
0
ARC
5
166
100
AcDbEntity
8
0
100
AcDbCircle
10
-30.926183222129634
20
-0.93999999999999806
30
0
40
0.93999999999999995
210
0
220
-0
230
1
100
AcDbArc
50
0.84839321745733798
51
90
0
ARC
5
167
100
AcDbEntity
8
0
100
AcDbCircle
10
-17.558383704192003
20
-5.1634287196627495
30
0
40
0.93999999999999551
210
0
220
0
230
1
100
AcDbArc
50
-93.626113113985383
51
0
0
ARC
5
168
100
AcDbEntity
8
0
100
AcDbCircle
10
-15.678383704192026
20
-0.93999999999999628
30
0
40
0.93999999999999873
210
0
220
0
230
1
100
AcDbArc
50
90.000000000000114
51
180
0
ARC
5
169
100
AcDbEntity
8
0
100
AcDbCircle
10
-10.815257677593372
20
0.94000000000001305
30
0
40
0.9399999999999975
210
-0
220
0
230
1
100
AcDbArc
50
270.00000000000011
51
351.86989764584422
0
ARC
5
170
100
AcDbEntity
8
0
100
AcDbCircle
10
10.815257677593376
20
0.94000000000001516
30
0
40
0.93999999999999906
210
0
220
0
230
1
100
AcDbArc
50
188.13010235415581
51
269.99999999999972
0
ARC
5
171
100
AcDbEntity
8
0
100
AcDbCircle
10
15.678383704192026
20
-0.93999999999999628
30
0
40
0.93999999999999861
210
0
220
0
230
1
100
AcDbArc
50
0
51
89.999999999999901
0
ARC
5
172
100
AcDbEntity
8
0
100
AcDbCircle
10
17.558383704192003
20
-5.1634287196627504
30
0
40
0.93999999999999639
210
0
220
-0
230
1
100
AcDbArc
50
180
51
273.62611311398541
0
ARC
5
173
100
AcDbEntity
8
0
100
AcDbCircle
10
34.060000000000002
20
-4.1176842614660103
30
0
40
0.93999999999999884
210
0
220
0
230
1
100
AcDbArc
50
-86.373886886014631
51
0
0
ARC
5
174
100
AcDbEntity
8
0
100
AcDbCircle
10
34.060000000000002
20
-4.0224421386807849
30
0
40
0.93999999999999417
210
0
220
0
230
1
100
AcDbArc
50
0
51
90
0
ARC
5
175
100
AcDbEntity
8
0
100
AcDbCircle
10
30.908377053382303
20
-2.1424421386807886
30
0
40
0.93999999999999995
210
0
220
0
230
1
100
AcDbArc
50
179.15160678254267
51
270
0
ARC
5
176
100
AcDbEntity
8
0
100
AcDbCircle
10
30.926183222129634
20
-0.93999999999999839
30
0
40
0.93999999999999995
210
0
220
-0
230
1
100
AcDbArc
50
90
51
179.15160678254267
0
ARC
5
177
100
AcDbEntity
8
0
100
AcDbCircle
10
34.060000000000002
20
0.93999999999999517
30
0
40
0.93999999999999473
210
0
220
0
230
1
100
AcDbArc
50
-90
51
0
0
ARC
5
178
100
AcDbEntity
8
0
100
AcDbCircle
10
35.940000000000019
20
59.573850739958736
30
0
40
0.94000000000001638
210
0
220
0
230
1
100
AcDbArc
50
131.22564723678158
51
180
0
ARC
5
179
100
AcDbEntity
8
0
100
AcDbCircle
10
39.339361476463147
20
62.552455628713744
30
0
40
0.94000000000000106
210
0
220
-0
230
1
100
AcDbArc
50
46.730301720410083
51
131.22564723678155
0
ARC
5
180
100
AcDbEntity
8
0
100
AcDbCircle
10
42.482228388372718
20
59.593904301326035
30
0
40
0.94000000000001194
210
0
220
-0
230
1
100
AcDbArc
50
0
51
46.730301720410061
0
ARC
5
181
100
AcDbEntity
8
0
100
AcDbCircle
10
44.362228388372728
20
0.94000000000000217
30
0
40
0.94000000000000306
210
0
220
0
230
1
100
AcDbArc
50
180
51
270
0
ARC
5
182
100
AcDbEntity
8
0
100
AcDbCircle
10
46.234766644158
20
-0.94000000000000661
30
0
40
0.94000000000000306
210
0
220
-0
230
1
100
AcDbArc
50
0
51
90
0
ARC
5
183
100
AcDbEntity
8
0
100
AcDbCircle
10
46.234766644158
20
-2.1424421386807833
30
0
40
0.94000000000000639
210
0
220
0
230
1
100
AcDbArc
50
270
51
360
0
ARC
5
184
100
AcDbEntity
8
0
100
AcDbCircle
10
44.362228388372728
20
-4.022442138680792
30
0
40
0.94000000000000306
210
0
220
-0
230
1
100
AcDbArc
50
90
51
180
0
ARC
5
185
100
AcDbEntity
8
0
100
AcDbCircle
10
35.939999999999991
20
-29.060000000000009
30
0
40
0.93999999999998973
210
0
220
0
230
1
100
AcDbArc
50
180
51
270.0000000000004
0
ARC
5
186
100
AcDbEntity
8
0
100
AcDbCircle
10
34.059999999999995
20
-26.225212058225303
30
0
40
0.93999999999999861
210
0
220
-0
230
1
100
AcDbArc
50
0
51
105.00814052277453
0
ARC
5
187
100
AcDbEntity
8
0
100
AcDbCircle
10
17.290345257350225
20
-30.721181279655273
30
0
40
0.93999999999999728
210
0
220
0
230
1
100
AcDbArc
50
105.00814052277495
51
180
0
ARC
5
188
100
AcDbEntity
8
0
100
AcDbCircle
10
15.410345257350169
20
-44.894574409948945
30
0
40
0.94000000000000306
210
-0
220
0
230
1
100
AcDbArc
50
-89.999999999999446
51
0
0
ARC
5
189
100
AcDbEntity
8
0
100
AcDbCircle
10
13.269768554723134
20
-44.894574409948945
30
0
40
0.94000000000000972
210
0
220
0
230
1
100
AcDbArc
50
180
51
269.99999999999943
0
ARC
5
190
100
AcDbEntity
8
0
100
AcDbCircle
10
11.389768554723121
20
-30.940000000000005
30
0
40
0.94000000000000306
210
0
220
-0
230
1
100
AcDbArc
50
0
51
89.999999999999901
0
ARC
5
191
100
AcDbEntity
8
0
100
AcDbCircle
10
8.837727832223603
20
-30.939999999999998
30
0
40
0.93999999999999861
210
0
220
-0
230
1
100
AcDbArc
50
89.999999999999901
51
170.55719014325115
0
ARC
5
192
100
AcDbEntity
8
0
100
AcDbCircle
10
5.6363482972339796
20
-38.729690132587407
30
0
40
0.93999999999999861
210
0
220
0
230
1
100
AcDbArc
50
269.99999999999994
51
350.5571901432512
0
ARC
5
193
100
AcDbEntity
8
0
100
AcDbCircle
10
-5.6363482972339796
20
-38.729690132587407
30
0
40
0.93999999999999861
210
0
220
0
230
1
100
AcDbArc
50
189.44280985674882
51
270.00000000000006
0
ARC
5
194
100
AcDbEntity
8
0
100
AcDbCircle
10
-8.837727832223603
20
-30.939999999999998
30
0
40
0.93999999999999861
210
0
220
-0
230
1
100
AcDbArc
50
9.4428098567488465
51
90.000000000000114
0
ARC
5
195
100
AcDbEntity
8
0
100
AcDbCircle
10
-11.389768554723121
20
-30.940000000000005
30
0
40
0.94000000000000306
210
0
220
-0
230
1
100
AcDbArc
50
90.000000000000114
51
180
0
ARC
5
196
100
AcDbEntity
8
0
100
AcDbCircle
10
-13.269768554723129
20
-44.894574409948959
30
0
40
0.94000000000000306
210
0
220
0
230
1
100
AcDbArc
50
-89.999999999999801
51
0
0
ARC
5
197
100
AcDbEntity
8
0
100
AcDbCircle
10
-15.410345257350173
20
-44.894574409948959
30
0
40
0.94000000000000306
210
0
220
0
230
1
100
AcDbArc
50
180
51
269.99999999999972
0
ARC
5
198
100
AcDbEntity
8
0
100
AcDbCircle
10
-17.290345257350225
20
-30.721181279655273
30
0
40
0.93999999999999639
210
0
220
-0
230
1
100
AcDbArc
50
0
51
74.991859477225049
0
LINE
5
199
100
AcDbEntity
8
0
100
AcDbLine
10
43.422228388372723
20
-8.3091918520960029
30
0
11
43.422228388372723
21
-28.099999999999994
31
0
0
ARC
5
200
100
AcDbEntity
8
0
100
AcDbCircle
10
41.522228388372717
20
-28.099999999999994
30
0
40
1.9000000000000039
210
0
220
0
230
1
100
AcDbArc
50
-90
51
0
0
ENDSEC
0
SECTION
2
OBJECTS
0
DICTIONARY
5
C
100
AcDbDictionary
3
ACAD_GROUP
350
D
3
ACAD_MLINESTYLE
350
17
0
DICTIONARY
5
D
100
AcDbDictionary
0
DICTIONARY
5
1A
330
C
100
AcDbDictionary
0
DICTIONARY
5
17
100
AcDbDictionary
0
ENDSEC
0
EOF
